<svg xmlns="http://www.w3.org/2000/svg" x="0px" y="0px"
width="48" height="48"
viewBox="0 0 48 48"
style=" fill:#000000;"><path fill="#fcbf95" d="M4.671,34.968c0.112,2.365,0.34,4.194,1.355,5.559c1.057,1.422,3.06,1.652,4.829,1.761 c2.521,0.156,4.927-0.003,7.447,0.153c1.735,0.107,3.491,0.213,5.198-0.116c1.378-0.266,2.447-0.495,3.814-0.814 c4.556-1.062,9.307,0.436,13.981,0.233c0.641-0.028,1.333-0.111,1.797-0.553c0.55-0.525,0.599-1.371,0.611-2.131 c0.067-3.978-0.11-8.334-0.043-12.312c-0.011-4.061-0.133-8.499-0.144-12.56c-0.002-0.737-0.014-1.511-0.38-2.151 c-0.851-1.485-2.972-1.422-4.67-1.208c-6.123,0.772-12.248,0.968-18.298-0.255c-0.539-0.109-1.145-0.281-1.388-0.774 c-0.308-0.624-0.095-1.021-0.384-1.654c-0.31-0.677-1.227-0.75-1.972-0.723c-2.469,0.09-4.74,0.053-7.208-0.054 C8.06,7.319,6.468,7.771,5.717,8.651C4.648,9.9,4.585,11.695,4.578,13.34C4.549,20.321,4.581,27.987,4.671,34.968z"></path><path fill="#bcbcbc" d="M22.559,29.341c-0.045,0.25-0.089,0.505-0.037,0.754c0.129,0.612,0.923,1.064,1.648,0.938 c0.457-0.08,0.847-0.358,1.067-0.704c0.22-0.346,0.281-0.754,0.228-1.143L22.559,29.341z"></path><path fill="#bcbcbc" d="M21.468,17.228c-0.172,3.199-0.161,6.409,0.035,9.606c0.015,0.249,0.032,0.501,0.107,0.739 c0.266,0.85,1.196,1.321,2.079,1.44c0.895,0.121,1.934-0.096,2.411-0.862c0.228-0.366,0.296-0.806,0.344-1.234 c0.133-1.196,0.142-2.401,0.151-3.604c0.015-2.102,0.031-4.205,0.046-6.307L21.468,17.228z"></path><path fill="#bcbcbc" d="M27.265,35.345c0.021,1.091-0.536,2.258-1.693,2.775c-0.842,0.376-1.915,0.346-2.749-0.041 c-0.835-0.387-1.42-1.109-1.589-1.891c-0.164-0.762,0.045-1.542,0.253-2.297c0.335-1.214,0.67-2.428,1.005-3.641l2.553,0.078 c0.289,0.602,0.929,1.27,1.218,1.872C26.75,33.213,27.245,34.254,27.265,35.345z M24.823,34.718 c-0.361-0.222-0.863-0.184-1.233,0.025c-0.37,0.209-0.563,0.701-0.336,1.045c0.119,0.181,0.324,0.294,0.521,0.4 c0.171,0.092,0.348,0.185,0.544,0.206c0.246,0.026,0.497-0.072,0.676-0.232c0.179-0.161,0.291-0.379,0.348-0.605 c0.063-0.248,0.03-0.564-0.212-0.679C25.019,34.824,24.885,34.757,24.823,34.718z"></path><path fill="#010101" d="M24.33,36.897c-0.045,0-0.089-0.002-0.134-0.006c-0.303-0.031-0.549-0.158-0.747-0.26 c-0.222-0.114-0.528-0.271-0.727-0.56c-0.178-0.26-0.233-0.577-0.156-0.896c0.088-0.363,0.342-0.69,0.68-0.873 c0.574-0.311,1.271-0.316,1.779-0.017c0.001,0,0.002,0.001,0.003,0.001c0.056,0.033,0.175,0.09,0.274,0.136 c0.442,0.201,0.642,0.708,0.496,1.261c-0.091,0.347-0.272,0.643-0.521,0.856C25.009,36.771,24.67,36.897,24.33,36.897z M24.18,35.067c-0.153,0-0.317,0.039-0.458,0.115c-0.09,0.049-0.163,0.139-0.184,0.229c0.064,0.176,0.24,0.266,0.368,0.331 c0.136,0.07,0.276,0.143,0.389,0.154c0.114,0.013,0.237-0.033,0.33-0.114c0.121-0.104,0.179-0.249,0.206-0.354 c0.019-0.07,0.012-0.127,0.006-0.142c-0.086-0.017-0.243-0.093-0.319-0.139l0,0C24.425,35.095,24.306,35.067,24.18,35.067z"></path><path fill="#010101" d="M44.182,32.896c-0.027-2.045-0.055-4.159-0.021-6.15c-0.006-2.028-0.039-4.149-0.072-6.271 c-0.033-2.128-0.066-4.256-0.072-6.288c-0.002-0.726-0.004-1.628-0.446-2.397c-1.126-1.966-4.061-1.595-5.167-1.456 c-7.103,0.896-12.866,0.816-18.135-0.249c-0.434-0.088-0.897-0.217-1.04-0.506c-0.115-0.232-0.13-0.421-0.15-0.658 c-0.022-0.264-0.049-0.592-0.228-0.982c-0.497-1.086-1.962-1.032-2.444-1.015c-2.238,0.082-4.449,0.064-7.168-0.054 C7.97,6.846,6.218,7.296,5.337,8.325c-1.149,1.345-1.251,3.138-1.259,5.013c-0.012,2.875-0.013,5.861-0.004,8.859 c0,0.014-0.001,0.026-0.001,0.04c0,0.002,0.001,0.003,0.001,0.005c0.012,4.314,0.045,8.654,0.097,12.733c0,0.005,0,0.011,0,0.017 c0.125,2.624,0.402,4.42,1.453,5.834c1.179,1.587,3.302,1.845,5.2,1.962c1.276,0.079,2.537,0.078,3.754,0.077 c1.206,0.002,2.448-0.002,3.693,0.075c0.858,0.053,1.73,0.107,2.608,0.107c0.903,0,1.812-0.058,2.715-0.231 c1.347-0.26,2.422-0.489,3.833-0.817c2.652-0.617,5.343-0.346,8.189-0.058c1.866,0.19,3.795,0.382,5.7,0.303 c0.724-0.032,1.541-0.14,2.12-0.692c0.736-0.702,0.755-1.817,0.766-2.483C44.237,37.07,44.208,34.949,44.182,32.896z M6.097,8.976 c0.641-0.75,2.083-1.16,3.097-1.106c2.75,0.117,4.984,0.134,7.249,0.054c0.844-0.033,1.353,0.113,1.499,0.431 c0.105,0.231,0.121,0.416,0.14,0.649c0.024,0.288,0.051,0.615,0.25,1.018c0.378,0.768,1.296,0.954,1.737,1.044 c5.379,1.086,11.245,1.17,18.459,0.261c1.573-0.197,3.47-0.269,4.174,0.961c0.31,0.54,0.312,1.264,0.313,1.902 c0.003,1.182,0.017,2.398,0.033,3.625c-0.177-0.269-0.385-0.519-0.646-0.733c-1.429-1.172-3.492-1.104-4.86-1.058 c-4.744,0.158-9.365,0.316-13.986,0.475c-4.621,0.158-9.242,0.316-13.985,0.475c-1.497,0.05-3.499,0.286-4.503,1.608 c0-1.771,0.003-3.525,0.01-5.238C5.085,11.661,5.168,10.062,6.097,8.976z M23.035,18.924c0.278,0.234,0.55,0.476,0.816,0.723 c-0.417,0.485-0.761,1.04-1.007,1.626c-0.092,0.219-0.017,0.473,0.179,0.606c0.085,0.059,0.184,0.087,0.281,0.087l0.593,0.717 c-0.385,0.342-0.701,0.766-0.913,1.231c-0.073,0.16-0.056,0.348,0.045,0.493c0.266,0.382,0.566,0.739,0.896,1.067 c-0.309,0.321-0.586,0.672-0.827,1.048c-0.146,0.228-0.084,0.529,0.139,0.683c0.211,0.144,0.409,0.307,0.595,0.488l-0.554,0.559 c-0.038,0.039-0.063,0.084-0.086,0.13c-0.488-0.168-0.956-0.476-1.106-0.956c-0.059-0.188-0.073-0.418-0.085-0.621 c-0.188-3.069-0.201-6.179-0.046-9.251c0.478-0.016,0.959-0.033,1.438-0.049c-0.172,0.26-0.333,0.528-0.479,0.805 C22.806,18.517,22.855,18.772,23.035,18.924z M23.051,29.383c0.193,0.056,0.385,0.101,0.571,0.126 c0.17,0.023,0.35,0.036,0.533,0.036c0.274,0,0.553-0.042,0.828-0.106c0.001,0.189-0.035,0.413-0.167,0.621 c-0.155,0.244-0.436,0.429-0.731,0.48c-0.482,0.081-1.006-0.236-1.072-0.55c-0.033-0.155,0.002-0.353,0.04-0.561 C23.055,29.414,23.049,29.399,23.051,29.383z M22.779,31.212c0.328,0.213,0.725,0.341,1.137,0.341c0.113,0,0.227-0.009,0.341-0.029 c0.3-0.052,0.584-0.176,0.834-0.348c0.107,0.152,0.221,0.3,0.333,0.446c0.216,0.279,0.421,0.543,0.548,0.801 c0.473,0.952,0.961,1.938,0.981,2.932c0.015,0.769-0.354,1.834-1.443,2.306c-0.726,0.315-1.679,0.301-2.43-0.038 c-0.694-0.312-1.213-0.903-1.354-1.543c-0.145-0.649,0.058-1.361,0.253-2.051L22.779,31.212z M24.421,28.52l0.324-0.326 c0.061-0.062,0.223-0.226,0.227-0.485c0.004-0.259-0.153-0.432-0.203-0.485c-0.175-0.193-0.363-0.374-0.563-0.54 c0.231-0.305,0.492-0.586,0.78-0.839c0.108-0.095,0.17-0.232,0.17-0.377s-0.064-0.282-0.173-0.376 c-0.352-0.305-0.673-0.646-0.955-1.015c0.212-0.358,0.51-0.669,0.858-0.892c0.121-0.077,0.203-0.202,0.225-0.344 S25.092,22.557,25,22.446l-0.977-1.181c-0.012-0.014-0.027-0.031-0.045-0.051c0.245-0.453,0.56-0.873,0.927-1.232 c0.096-0.095,0.15-0.224,0.15-0.359c0-0.135-0.055-0.264-0.152-0.357c-0.296-0.286-0.599-0.565-0.91-0.837 c0.197-0.335,0.416-0.655,0.655-0.957c0.002-0.003,0.003-0.007,0.005-0.01c0.494-0.017,0.991-0.034,1.485-0.051l-0.043,5.9 c-0.008,1.171-0.018,2.382-0.148,3.553c-0.04,0.362-0.094,0.739-0.271,1.023C25.417,28.301,24.918,28.473,24.421,28.52z M43.203,39.05c-0.011,0.69-0.056,1.396-0.457,1.777c-0.339,0.324-0.909,0.392-1.473,0.416c-1.834,0.085-3.726-0.112-5.556-0.298 c-2.803-0.284-5.702-0.578-8.517,0.078c-1.397,0.326-2.461,0.553-3.795,0.81c-1.658,0.319-3.394,0.211-5.072,0.108 c-1.154-0.071-2.295-0.077-3.404-0.077c-0.117,0-0.234,0-0.351,0c-1.201-0.007-2.448,0.002-3.692-0.075 c-1.673-0.104-3.535-0.317-4.458-1.56c-0.897-1.208-1.141-2.85-1.256-5.277c-0.053-4.084-0.085-8.431-0.097-12.752 c0.004-1.378,0.193-1.808,0.568-2.652c0.578-1.299,2.421-1.524,3.962-1.576c3.843-0.128,7.601-0.256,11.349-0.385 c-0.151,3.082-0.138,6.201,0.051,9.277c0.015,0.247,0.034,0.555,0.128,0.858c0.181,0.578,0.582,0.998,1.061,1.29 c-0.06,0.066-0.11,0.143-0.127,0.238c-0.047,0.263-0.103,0.59-0.035,0.93l-1.016,3.573c-0.219,0.771-0.467,1.646-0.268,2.541 c0.212,0.956,0.93,1.793,1.92,2.238c0.522,0.235,1.106,0.354,1.685,0.354c0.541,0,1.076-0.104,1.553-0.31 c1.27-0.551,2.073-1.823,2.046-3.243c-0.024-1.218-0.588-2.354-1.085-3.356c-0.172-0.347-0.417-0.663-0.653-0.969 c-0.169-0.219-0.32-0.427-0.444-0.63c0.181-0.378,0.252-0.807,0.191-1.261c-0.005-0.035-0.022-0.064-0.033-0.096 c0.227-0.161,0.437-0.351,0.596-0.606c0.288-0.463,0.366-0.987,0.417-1.442c0.137-1.222,0.146-2.46,0.154-3.656l0.043-5.941 c3.447-0.118,6.906-0.236,10.438-0.353c1.61-0.055,3.141-0.031,4.193,0.831c0.874,0.717,1.057,2.063,1.233,3.366 c0.034,0.254,0.069,0.504,0.108,0.747c0.024,1.618,0.046,3.227,0.051,4.77c-0.034,1.997-0.005,4.119,0.021,6.172 C43.208,34.955,43.236,37.069,43.203,39.05z"></path></svg>