<svg xmlns="http://www.w3.org/2000/svg" x="0px" y="0px"
width="25" height="25"
viewBox="0 0 512 512"
style=" fill:#000000;"><path fill="#EF4823" d="M444.1,173.6c-2.2-27-9-52.7-26.8-73.8C385.6,62.4,333.5,44.3,286,39.2c-45.6-4.9-93.3,4-131.7,29.9c-43.3,29.3-71.1,77.7-82,128.2c-12,55.5-2.8,113.6,23,163.9c11.9,23.2,26.4,45,46.4,61.9c18.3,15.5,40.3,27.2,63.7,33c16.6,4.1,34.6,7.4,51.7,4.4c7.5-1.3,15.3-4.2,20.3-10.2c6.1-7.3,6.9-16.6,7-25.8c-6.9,2.4-13.8,4.6-21.1,6c-44.5,8.7-93.1-10.6-125.6-40.9c-16.7-15.6-29-34.1-36.7-55.6c-7.9-22-11.9-45.5-11.7-68.9c0.3-47,15.1-94.1,43.6-131.7c30.6-40.6,79.3-72.7,131.4-73.6c26.7-0.4,53.3,6.9,76.6,19.8c22.5,12.4,44.3,30.2,56.8,53.1c12.9,23.9,15.7,50.9,14.2,77.7c-1,18.5-3,37.3-8.6,55c-5.1,16-13.1,34.2-29.5,41.5c-17.4,7.8-37.2-1.1-47.9-15.7c-11.4-15.5-16.3-35.9-17.2-54.9c-1.5-30.4,3.8-60.6,0.8-91c0-0.3,0-0.7,0-1c-8-0.2-16.1-0.7-24.1-1.4c-1-0.1-2.5-0.4-3.7-0.3c0,0.3-0.1,0.5-0.1,0.8c-0.2,2.7-0.2,5.4-0.2,8c0,4.5-3.9,6.7-7.9,5.4c-12-4.1-25.4-5.3-37.6-0.9c-10.7,3.8-19.7,10.8-26.9,19.5c-15.6,18.8-24.2,43.4-27.5,67.4c-2.5,17.5-4,35.5-3.1,53.2c0.8,16.5,3.5,34.4,13.5,48.1c11.2,15.3,30.1,21.4,48.5,20.3c26-1.5,48.8-14.3,65.4-34.1c0.5-0.7,1.1-1.1,1.8-1.4c1.8-2.2,5.1-3.4,8-1.1c5.5,4.4,11.5,8.2,18.1,10.7c26.2,10.1,55.2-2.1,74.5-20.7c17.9-17.3,28.9-40.1,33.4-64.5c2.4-12.7,2.9-25.3,3.2-38.2C445.1,201.3,445.2,187.4,444.1,173.6z M280.5,298.5c0,4.3-0.3,6.7-2.9,10.2c-1.7,2.3-3.5,4.5-5.6,6.4c-4.4,4.1-9.2,7.6-14.6,10.4c-10.2,5.2-23.3,8.4-34.2,3.3c-22-10.2-21.1-38.1-17.7-58.2c2.6-15.2,6.9-30,12.2-44.4c2.8-7.6,5.8-15.2,9-22.6c2.3-5.3,4.2-10.9,7.7-15.5c5.5-7.1,13.9-13.2,22.9-14.5c7.3-1,13.3,1.6,17.6,6.5c3.2-1.4,7.6-0.1,7.6,4.3C282.4,222.5,280.6,260.5,280.5,298.5z"></path><path d="M450,140.3c-12.4-50.9-57.9-83.1-105.2-99c-45-15.2-93.5-19.1-139.6-6.9c-45.4,12-84.2,40.7-109.8,79.8C64.5,161,51.4,218.8,57.6,274.4c3.1,27.9,11.2,55.2,22.8,80.7c11,24.2,25,47.2,43.6,66.3c30.4,31.2,73.5,49.4,116.9,51c13.4,0.5,27.9-1.4,39-9.4c14.9-10.8,15.6-28.8,15.6-45.6c0-4-3.5-5.5-6.5-4.7c-1.1-0.5-2.4-0.5-3.8-0.1c-11.7,4-23,7.6-35.4,8.6c-11.1,0.9-22.1-0.2-33-2.5c-22.6-4.7-44-15.3-62.2-29.4c-17.9-13.9-31.9-31.6-40.6-52.5c-8.9-21.7-13.2-45-13.6-68.4c-1-46.8,14.7-94.2,43.4-131.2c31.9-41,83.3-71.3,136.5-65.9c26.4,2.7,52.2,13.7,73.5,29.3c21.8,16,38,37.2,44.3,63.7c5.5,23.1,3.7,48.1,0.5,71.4c-2.3,16.7-6.3,34.9-16,49.1c-7.2,10.6-17.3,15.8-30,12.7c-14.3-3.5-22.4-18.2-26.9-30.9c-5.4-15.2-6.4-31.1-6-47c0.6-25.1,3.3-50.1,0.9-75.2c-0.3-2.7-2.1-4.3-4.2-4.7c0.1-3-1.9-6.3-5.7-6.3c-6.7-0.1-13.3-0.9-20-1c-4.3-0.1-8.3-1.2-12.5-0.2c-6.1,1.4-7.4,6.8-7.6,12.4c-17.6-4.3-35.4-2.6-51.5,7.3c-17,10.5-28.7,28.6-36.5,46.6c-7.9,18.4-11.5,37.7-13.5,57.5c-1.8,18.2-2.7,36.6-0.3,54.8c3.6,27,16.7,52.2,44,61c36.3,11.7,75.7-4.9,99.9-32.5c9.8,7,20.7,11.9,32.8,13.5c13.2,1.8,26.6-1,38.8-6.1c23.9-10.1,43-29.3,55-52.1c11.7-22.3,15.7-47.3,16.4-72.2C456.3,194.8,456.5,167.1,450,140.3z M444.8,215.1c-0.3,12.8-0.8,25.5-3.2,38.2c-4.5,24.4-15.5,47.2-33.4,64.5c-19.3,18.6-48.3,30.7-74.5,20.7c-6.6-2.5-12.6-6.4-18.1-10.7c-2.9-2.3-6.2-1.2-8,1.1c-0.6,0.3-1.2,0.8-1.8,1.4c-16.6,19.8-39.4,32.5-65.4,34.1c-18.4,1.1-37.4-5-48.5-20.3c-10-13.7-12.7-31.6-13.5-48.1c-0.9-17.7,0.6-35.7,3.1-53.2c3.4-24,11.9-48.6,27.5-67.4c7.2-8.7,16.2-15.7,26.9-19.5c12.1-4.3,25.5-3.2,37.6,0.9c4.1,1.4,7.9-0.8,7.9-5.4c0-2.7,0-5.4,0.2-8c0-0.3,0.1-0.5,0.1-0.8c1.2-0.1,2.7,0.2,3.7,0.3c8,0.7,16.1,1.3,24.1,1.4c0,0.3,0,0.6,0,1c3,30.4-2.3,60.6-0.8,91c0.9,19,5.8,39.4,17.2,54.9c10.7,14.6,30.5,23.4,47.9,15.7c16.3-7.3,24.4-25.5,29.5-41.5c5.6-17.7,7.6-36.5,8.6-55c1.5-26.7-1.3-53.8-14.2-77.7c-12.4-23-34.3-40.7-56.8-53.1c-23.3-12.9-49.9-20.2-76.6-19.8c-52.1,0.9-100.7,33-131.4,73.6C104.5,170.9,89.6,218,89.3,265c-0.1,23.4,3.9,46.9,11.7,68.9c7.7,21.5,20,40.1,36.7,55.6c32.5,30.3,81.1,49.6,125.6,40.9c7.3-1.4,14.2-3.6,21.1-6c-0.1,9.2-0.9,18.5-7,25.8c-5,6-12.8,8.9-20.3,10.2c-17.1,3-35.1-0.3-51.7-4.4c-23.4-5.8-45.4-17.5-63.7-33c-20-16.9-34.5-38.7-46.4-61.9c-25.9-50.3-35-108.4-23-163.9c10.9-50.5,38.7-99,82-128.2c38.4-25.9,86.1-34.8,131.7-29.9c47.5,5.1,99.6,23.2,131.2,60.6c17.8,21.1,24.6,46.7,26.8,73.8C445.2,187.4,445.1,201.3,444.8,215.1z"></path><path d="M274.8,180.1c-4.3-4.9-10.3-7.5-17.6-6.5c-9.1,1.3-17.5,7.3-22.9,14.5c-3.5,4.6-5.5,10.2-7.7,15.5c-3.2,7.5-6.2,15-9,22.6c-5.3,14.5-9.6,29.3-12.2,44.4c-3.5,20.1-4.3,48,17.7,58.2c10.9,5.1,24,1.9,34.2-3.3c5.4-2.8,10.1-6.3,14.6-10.4c2.1-1.9,3.9-4.2,5.6-6.4c2.6-3.5,2.9-5.9,2.9-10.2c0.1-38.1,2-76.1,2-114.2C282.5,179.9,278.1,178.6,274.8,180.1z M268.5,302.6c-3.9,5.2-9,9.2-14.6,12.4c-9.5,5.5-22.6,8.3-31.4,0.3c-7.1-6.4-8.4-17.8-8.1-26.8c0.5-15,4.4-30.3,8.8-44.6c4.6-15,10.6-29.6,17-44c3.3-7.5,10.5-14.3,18.9-15.5c4.8-0.7,7.9,2,9.7,6.2c0.6,1.4,1.6,2.3,2.7,2.9c-0.2,29.5-1.3,59-1.8,88.6c-0.1,3.9-0.1,7.7-0.1,11.6C269.5,296.6,270.3,300.1,268.5,302.6z"></path></svg>