<svg xmlns="http://www.w3.org/2000/svg"  viewBox="0 0 512 512" width="48px" height="48px"><path fill="#FCBF95" d="M144.3,61.1c-7.6-2.5-17.7-2.7-24.3,1.8c-3.7,2.5-6.8,6.9-5.3,11.6c1.6,4.8,5.2,7.9,10.3,7.6c1.3-0.1,2.4,0.3,3.3,0.8C133.1,75.2,138.4,67.9,144.3,61.1C144.4,61.1,144.3,61.1,144.3,61.1z"/><path fill="#C56528" d="M344.5,169.4c-1.5-15.1-7.3-30-13-44c-10-24.5-20.9-48.5-39.9-67.5c-17-17.1-38.7-29.5-63.3-29.5c-26.6,2.5-51.4,14.2-70.1,33.4c-16,16.4-27.7,36.5-35.2,58.1c-4.4,12.6-8.4,25.9-9.9,39.2c-1.7,14.8,0.9,28.3,8.9,40.9c7.6,12,17.2,22.7,27.8,32.4c1,0.1,2.1,0.5,3.1,1.4c2.1,1.8,4.4,4.2,6.5,7c7.1,5.8,14.4,11.3,21.8,16.4c23,16,51.5,26,78,13.2c0.4-0.4,0.8-0.8,1.4-1.2c3.6-2.3,7.1-4.5,10.7-6.8c23.4-15.1,50.1-31.8,64.3-56.7C341.9,194.5,345.7,182.2,344.5,169.4z M171.9,153.1c-4-1.6-5.7-5.6-5-9.9c0.3-2.2,2.6-4.4,4.9-4.4c4.9,0.1,11.1,0.9,15,4.3c3.3,2.9,2.2,9.9-1.8,11.9c-3.3,1.7-7.1,1.9-10.5,0.1C173.6,154.5,172.7,153.9,171.9,153.1z M266.5,197.8c-5.7,5.5-12.8,5.2-19.8,7.5c-4.4,1.5-3.2,3.5-3.9,7.3c-0.7,3.5-3.2,7.2-5.9,9.4c-0.3,0.2-0.6,0.4-0.9,0.6c0.4,0.9,0.6,2,0.3,3.2c-0.6,3.5,6.3,5.1,9.1,5.6c2.6,0.5,5.2,0.8,7.8,0.7c0.6,0,2.8-0.3,2.4-0.2c0.5-0.1,0.7-0.2,0.7-0.2c4.4-3.1,11.7,1.2,8.3,6.4c-4.5,6.9-16.3,5.4-23.1,3.6c-5.1-1.3-10.4-3.8-13.5-7.7c-0.9,1.4-1.9,2.7-3.2,4c-3.3,3.1-7.6,4.8-12,5.4c-8.7,1.2-18.2-0.2-25.4-5.6c-3.7-2.8-1.5-9.6,3.2-9.6h2c2.4,0,4.1,1.3,5,3.1c4.7,2,10.9,2.3,15.3,1c5-1.5,6.8-5.5,9.2-9.5c-0.6-0.4-1.2-0.8-1.8-1.2c-2.4-1.8-4.6-4.2-6.3-6.7c-1.6-2.5-2.9-6.4-5.8-7.7c-4.7-2.1-10.7,0.3-15.7-1.3c-6.6-2.1-12-6.1-13.2-13.4c-0.9-6.1,0.9-12.4,3.8-17.8c0.9-1.7,2.4-2.6,3.9-2.8c0.8-0.8,1.8-1.5,2.8-2.1c6-3.2,12.3-5.8,18.8-7.8c8.4-2.7,18.4-3.5,27.1-3c11.7,0.7,20.4,8.4,29.5,15c0.8,0.6,1.3,1.4,1.6,2.2c1.2,0.5,2.3,1.5,2.9,3.1C272.5,185.8,271.7,192.8,266.5,197.8z M276.6,148.6c-2.2,3.4-5.8,6.5-10.1,6.7c-4.7,0.2-8.6-2.6-9.9-7.2c-0.6-2.2-0.1-4.4,1.5-5.9c0.2-3.4,2.1-6.7,5.6-7.9c3.6-1.2,7.4-0.4,10.9,0.9C279.9,137.1,278.9,144.8,276.6,148.6z"/><path fill="#FEBF10" d="M259.8,183.5c-2.6-0.2-4.3-1.8-5-3.8c-5.8-4.5-12-9.4-19.5-9.9c-6.3-0.4-14.3,0-20.5,1.7c-4.2,1.1-8.4,2.7-12.4,4.4c-1.9,0.8-3.9,1.6-5.7,2.6c-0.5,0.3-1,0.5-1.5,0.8c-0.5,2-2.1,3.8-4.1,4.2c-1.3,3.2-2,7,0,9.5c2.7,3.3,8,2.7,11.6,2.6c4.5-0.1,8.8,0.4,12.5,3.1c4.4,3.2,6,8,9.3,11.9c2.8,3.3,5.5,4.8,7.4-0.1c0.7-1.9,0.1-4.2,0.8-6.2c0.9-2.7,2.8-5.3,5.2-6.9c5-3.1,10.8-3.1,16.3-5C259,190.8,261.4,188.3,259.8,183.5z"/><path fill="#C56528" d="M350.7 46c-4.2-6.5-9-13-15.4-17.4-8.4-5.8-19.7-3.7-29.2-1.3-5.6 1.4-18.7 4.6-19.1 11.9 3 2.4 6 4.9 8.8 7.6 3.2-6.7 15.8-8.6 22.3-8.1 8.3.6 16.4 5.2 20.7 12.4 4.4 7.5 7.4 18.5 4.3 27-2.4 6.6-9.4 9.3-15.4 12 1.5 2.9 2.9 5.9 4.3 8.9 5.5-2.7 11.6-4.6 16.4-8.3 6.4-4.8 9.7-14.3 10.2-22.1C359.2 60.1 355.2 52.9 350.7 46zM163.7 40.9c-11-8-25.9-11.6-39.4-10.6-12.6 1-22.8 6-30 16.6C88 56.4 84 69.8 87.6 81c4.2 12.7 16.5 19.4 29 22.1.4.1.8.2 1.2.4 1.3-3 2.7-6 4.1-9 .3-.5.5-1 .8-1.5-18.4-1.7-26.2-26-10.6-37.8 6.4-4.9 15.1-6.9 23.1-6.5 4.8.3 12.9.7 17 4.2 4.1-4 8.4-7.7 13-11.1C164.7 41.6 164.2 41.3 163.7 40.9z"/><path fill="#FCBF95" d="M330.9,59.3c-4.5-9.6-14.3-11.3-23.1-8c-0.3,1.8-1.6,3.4-3.7,3.8c5.2,5.8,10,12.1,14.3,18.6c1.5,2.2,2.8,4.5,4.2,6.8c0.1,0,0.1-0.1,0.1-0.1c3-1.3,9.2-2.9,10.4-6.4C334.6,70,332.6,63,330.9,59.3z"/><path fill="#C56528" d="M339.1,310.6c-1.7-7.6-3.4-15.3-4.3-23.1c-0.4-3.2-0.8-6.4-1.6-9.5c-0.4-0.2-0.8-0.3-1.2-0.5c-2.5-0.9-3.4-2.8-3.1-4.7c-2.2-0.5-4.6-0.7-6.5-1.2c-4.8-1.1-10-2.4-13.9-5.7c-3.6-3-5.3-7.3-5.5-11.8c-10.7,7.8-22,15-33.1,22c-0.4,0.7-1.1,1.4-2.1,1.9c-21.9,11.8-46.6,11.4-69.1,1.5c-11.5-5.1-22.6-12-33-19.8c-0.3,1.5-0.9,2.9-1.8,4.2c-3.3,5-7.5,8.2-13.3,9.9c-2.2,0.6-4.8,1.1-7.2,2c0.3,1.8-0.3,3.7-2,5.2c-1.4,1.2-2.8,2.5-4,3.8c-1.9,5.3-3.3,10.9-4.2,16.3c-1.7,9.6-2.5,19.3-2.3,29.1c0.2,12.1,0.6,24.7,2.9,36.6c2.3,12.3,7.5,23.9,16.6,32.8c1.9,1.9,4,3.7,6.1,5.4v1.7c5.4-5.2,12.2-8.8,20.2-8c11.7,1.2,23,10.9,29.1,20.6c5.5,8.8,8.6,18.7,9.6,28.9c5.7,4.1,11.8,7.7,18.4,9.2c10.7,2.5,20.4-2.1,29-8.2c0.1-11.3,0.7-22.4,7.2-32.2c8.5-12.8,24-20.1,38.8-13.7c2.3,1,4.4,2.2,6.4,3.5c8.9-7.8,17.3-16.2,23.5-26c5.1-8.2,9.2-17.5,9-27.3C347,339.2,342.2,324.7,339.1,310.6z"/><path fill="#C56528" d="M418.7 276.3c-11.1-16-28.7-26.9-46.6-33.8-15.2-5.9-37.4-11.5-52-1 .2 1.7-.4 3.6-2.4 4.8-2.3 1.4-5.2 7.2-3.4 9.9 1.6 2.3 4.5 3.3 7.1 3.9 5.6 1.5 11.8 2 17 4.7.5-.4.9-.7 1.4-1.1.4.9.8 1.8 1.2 2.7 0 0 .1.1.1.1 1.5 1.2 2.1 2.6 2 4 15.8 9.3 16.6 29.2 21.5 46 2.5 8.5 6.6 16.5 16.1 18.4 9.2 1.9 19-.5 27.3-4.7 8.7-4.3 17.4-11.8 19.3-21.8C429.4 297.1 425 285.6 418.7 276.3zM152.7 250.1c-1.1-.6-2.2-1.2-3.3-1.9.4-.3.7-.6 1.1-.8-3.1-2.7-6.1-5.5-9-8.2-1.5.5-3.1.3-4.4-.8-1.2.2-2.4.4-3.5.8-8 2.3-15.7 5.6-23.3 8.9-7.8 3.4-15.9 6.4-23.4 10.5-11.4 6.2-22.2 13.9-31 23.6-7.8 8.6-15.3 18.8-17.3 30.5-2 11.5 2.9 23 14.2 27.6 11.4 4.7 24.4-.5 33.5-7.8 10.2-8.1 17.2-19.5 24.3-30.2 5.2-7.9 10.5-15.5 16.8-22.3-.8-1.3-.9-3 .3-4.8 1.3-2 2.8-3.7 4.5-5.2.4-.8.8-1.6 1.2-2.4.4.2.7.4 1.1.6 1.1-.7 2.3-1.3 3.6-1.8 4-1.6 8.4-2.2 12.3-4C156.1 259.7 155.4 254.7 152.7 250.1zM357.9 461.2c-8.2-7.3-18.8-11-26.3-19.1-6-6.5-10.3-14.7-16.6-21-.5.4-1 .8-1.5 1.2v-2.6c-1.9-1.7-3.9-3.3-6.3-4.5-11.8-6.4-24.4-1.1-30.2 11-5.5 11.5-3.3 24.7-3.9 37 0 .3 0 .5-.1.8.1.4.1.8.1 1.2-.1 4.9.7 9.9 4.8 13.2 6.1 5 15 6.1 22.6 6.5 8.1.4 16.3.8 24.4.6 9.3-.2 19.3-.8 27.9-4.9 3.5-1.6 7-4.1 8.6-7.6C363.7 468.3 361.5 464.4 357.9 461.2zM204.2 448.8c-1-9.6-4-19.1-10.3-26.6-5.8-7-16.9-16.6-26.3-10.4-8.9 5.9-13.1 16.4-16.9 25.9-4.1 10.5-10.7 19.2-19.2 26.5-3.7 3.2-8.6 6.9-10.4 11.7-1.8 4.9 3.3 8.3 7.4 9.4 9.9 2.6 20.1.5 30.2 1 11.1.5 24.5 3.4 34.2-3.5 9.2-6.5 12.8-16.8 7.9-27.3C199.4 452.1 201.4 449.6 204.2 448.8z"/><path fill="#010101" d="M242.8 212.7c.8-3.9-.5-5.9 3.9-7.3 7-2.3 14.2-2.1 19.8-7.5 5.2-5 6-12 3.4-18.6-.6-1.6-1.7-2.6-2.9-3.1-.3-.9-.8-1.6-1.6-2.2-9.1-6.6-17.8-14.3-29.5-15-8.8-.6-18.7.3-27.1 3-6.5 2-12.8 4.6-18.8 7.8-1 .5-1.9 1.2-2.8 2.1-1.5.2-3 1.1-3.9 2.8-2.9 5.4-4.7 11.6-3.8 17.8 1.1 7.3 6.5 11.2 13.2 13.4 5 1.6 11-.8 15.7 1.3 2.9 1.3 4.2 5.2 5.8 7.7 1.6 2.6 3.8 4.9 6.3 6.7.6.4 1.2.9 1.8 1.2-2.3 4-4.2 8-9.2 9.5-4.4 1.4-10.7 1.1-15.3-1-.9-1.7-2.6-3.1-5-3.1h-2c-4.6 0-6.9 6.8-3.2 9.6 7.1 5.4 16.6 6.9 25.4 5.6 4.4-.6 8.7-2.3 12-5.4 1.3-1.2 2.3-2.5 3.2-4 3.1 3.9 8.4 6.3 13.5 7.7 6.8 1.8 18.6 3.3 23.1-3.6 3.4-5.2-3.9-9.6-8.3-6.4 0 0-.2 0-.7.2.3-.1-1.9.2-2.4.2-2.6.1-5.2-.2-7.8-.7-2.9-.5-9.8-2.1-9.1-5.6.2-1.2.1-2.3-.3-3.2.3-.2.6-.4.9-.6C239.6 219.9 242.1 216.2 242.8 212.7zM232.8 204.3c-.7 2 0 4.3-.8 6.2-1.9 5-4.6 3.4-7.4.1-3.3-4-4.9-8.8-9.3-11.9-3.7-2.7-8-3.2-12.5-3.1-3.7.1-9 .7-11.6-2.6-2-2.4-1.2-6.2 0-9.5 2-.4 3.6-2.2 4.1-4.2.5-.3 1-.6 1.5-.8 1.8-1 3.8-1.8 5.7-2.6 4-1.7 8.2-3.2 12.4-4.4 6.1-1.7 14.1-2.1 20.5-1.7 7.4.5 13.6 5.4 19.5 9.9.7 2 2.4 3.6 5 3.8 1.6 4.8-.8 7.3-5.6 9-5.5 1.9-11.2 1.8-16.3 5C235.5 199 233.7 201.6 232.8 204.3zM274.6 135.2c-3.5-1.3-7.2-2.1-10.9-.9-3.6 1.2-5.5 4.5-5.6 7.9-1.6 1.4-2.1 3.7-1.5 5.9 1.3 4.5 5.2 7.4 9.9 7.2 4.2-.2 7.9-3.3 10.1-6.7C278.9 144.8 279.9 137.1 274.6 135.2zM186.8 143.1c-3.9-3.4-10-4.3-15-4.3-2.3 0-4.6 2.2-4.9 4.4-.7 4.3 1 8.3 5 9.9.8.8 1.7 1.4 2.7 2 3.3 1.8 7.2 1.6 10.5-.1C189 153 190.2 146.1 186.8 143.1z"/><path fill="#010101" d="M438.6,298.5c-1.6-20.7-16.5-38.6-32.8-50.2c-18.2-12.9-46.2-26.1-70.5-23.4c0.2-0.2,0.4-0.4,0.6-0.7c8-9.8,14.2-20.9,17.6-33.1c3.6-13.2,2-26.5-1.3-39.5c-3.8-14.7-9.7-28.9-15.7-42.8c7.1-3.9,15.2-6,21.2-11.7c7.3-6.9,11.2-18.2,11.9-28.1c0.7-10.5-3.6-19.3-8.9-28c-5.2-8.5-11.8-16.9-20.3-22.3c-11.6-7.4-26.1-4.8-38.7-1.6c-8.5,2.2-19.9,6.8-24,15.2c-4.1-2.6-8.4-5-12.9-7.1c-11.3-5.2-23.6-7.8-36-7.9c-0.4,0-0.7,0-1.1,0l0,0c-0.3,0-0.7,0-1,0c-0.7,0-1.3,0.1-1.8,0.3c-19.1,2.2-36.5,8.8-51.8,18.6c0-1.3-0.6-2.6-2.1-3.7c-13.6-9.9-30.7-14.2-47.4-13.3c-16.3,0.9-30,8.8-38.8,22.6c-8.1,12.6-11.5,28.1-7.3,42.7c4.7,16.2,21,25.5,36.5,29c-1.7,4.6-3.2,9.2-4.6,13.9c-4,13.3-7.3,26.7-7.5,40.7c-0.4,23.8,13.2,43.7,29.1,60.3c-1.3,0.4-2.4,0.7-3.4,1c-7.9,2.5-15.6,5.9-23.1,9.2c-8.4,3.7-16.8,7.1-24.9,11.5c-11.4,6.2-21.7,14.2-30.6,23.5c-15.2,15.9-29,40.5-17,62c6,10.8,18,16.7,29.9,17.2c11.9,0.5,24-5.8,32.9-13.3c11.3-9.4,18.8-22.1,26.8-34.2c-1.1,8.1-1.5,16.3-1.5,24.5c0,13.7,0.8,27.8,3.5,41.2c2.7,13.2,8.5,24.7,17.5,34.6c2.8,3.1,5.9,5.9,9.1,8.5c-6.5,9.7-8.9,21.4-15.7,30.9c-6.7,9.4-18.1,15-23,25.6c-5.2,11.2,3.5,21.5,13.9,24.7c10.7,3.2,21.7,1,32.6,1.4c12.7,0.5,26,3,37.7-3.2c12.5-6.6,20.1-19.9,18.2-33.3c6.8,4.3,14.2,7.7,22.1,8.7c9.5,1.2,18.3-1.7,26.4-6.3c0,0.4,0,0.8-0.1,1.2c0,0.4,0,0.9,0.1,1.2c0,0.2-0.1,0.5-0.1,0.7c-0.4,21.1,18.7,28.5,36.7,29.6c17.6,1.1,36.5,2.3,53.5-3.1c8.4-2.7,16.3-8.1,19.7-16.5c4.5-11.3-3.4-20.8-12.1-27.1c-4.3-3.1-9.1-5.5-13.5-8.5c-4.7-3.2-8.6-7.3-11.9-11.9c-3.7-5.1-7.3-10.1-11.5-14.4c7.2-6.4,14-13.2,20-20.9c6.3-8.1,11.2-17.2,13.7-27.1c3-11.8,0.5-23.8-2-35.5c-2.9-13.5-6.6-26.8-8.6-40.4c5.1,10.1,5.6,23.6,9.3,34.1c3.2,9.1,9.3,16.7,18.5,20c9.3,3.4,19.4,2.4,28.8-0.3C423.4,338,440.3,321.1,438.6,298.5z M306.2,27.3c9.5-2.4,20.8-4.5,29.2,1.3c6.4,4.4,11.2,11,15.4,17.4c4.4,6.8,8.5,14.1,7.9,22.5c-0.5,7.8-3.8,17.3-10.2,22.1c-4.8,3.7-10.9,5.6-16.4,8.3c-1.4-3-2.8-5.9-4.3-8.9c6-2.6,13-5.3,15.4-12c3-8.5,0.1-19.5-4.3-27c-4.3-7.2-12.4-11.8-20.7-12.4c-6.5-0.5-19,1.4-22.3,8.1c-2.8-2.7-5.8-5.2-8.8-7.6C287.4,31.9,300.6,28.8,306.2,27.3z M322.7,80.4c-0.1,0-0.1,0.1-0.1,0.1c-1.3-2.3-2.7-4.5-4.2-6.8c-4.3-6.5-9-12.8-14.3-18.6c2.2-0.4,3.4-2,3.7-3.8c8.8-3.3,18.6-1.7,23.1,8c1.7,3.7,3.7,10.7,2.2,14.7C331.8,77.5,325.6,79.1,322.7,80.4z M87.6,81C84,69.8,88,56.4,94.4,47c7.2-10.6,17.3-15.7,30-16.6c13.5-1,28.4,2.6,39.4,10.6c0.5,0.4,1,0.6,1.6,0.8c-4.5,3.4-8.9,7.1-13,11.1c-4.1-3.6-12.2-4-17-4.2c-8-0.5-16.7,1.6-23.1,6.5c-15.6,11.9-7.8,36.1,10.6,37.8c-0.3,0.5-0.5,1-0.8,1.5c-1.5,2.9-2.9,5.9-4.1,9c-0.4-0.2-0.7-0.3-1.2-0.4C104.2,100.4,91.8,93.7,87.6,81z M144.4,61.1c-5.9,6.7-11.3,14-16,21.8c-0.9-0.6-2-0.9-3.3-0.8c-5.1,0.2-8.8-2.9-10.3-7.6c-1.6-4.7,1.6-9.1,5.3-11.6C126.6,58.4,136.7,58.6,144.4,61.1C144.3,61.1,144.4,61.1,144.4,61.1z M122.1,199.9c-8-12.6-10.6-26.1-8.9-40.9c1.5-13.3,5.5-26.6,9.9-39.2c7.5-21.6,19.2-41.7,35.2-58.1c18.7-19.1,43.5-30.9,70.1-33.4c24.6,0,46.2,12.5,63.3,29.5c19,19,29.9,43,39.9,67.5c5.7,14,11.5,28.9,13,44c1.3,12.8-2.5,25.1-8.8,36.2c-14.2,24.9-40.8,41.5-64.3,56.7c-3.5,2.3-7.1,4.6-10.7,6.8c-0.6,0.4-1,0.8-1.4,1.2c-26.5,12.8-55,2.8-78-13.2c-7.4-5.1-14.7-10.6-21.8-16.4c-2.1-2.8-4.4-5.2-6.5-7c-1-0.9-2.1-1.3-3.1-1.4C139.3,222.6,129.7,211.9,122.1,199.9z M127.6,275.1c-1.2,1.8-1.1,3.5-0.3,4.8c-6.3,6.9-11.6,14.5-16.8,22.3c-7.1,10.7-14.1,22.1-24.3,30.2c-9.1,7.2-22.1,12.5-33.5,7.8c-11.3-4.6-16.1-16.1-14.2-27.6c2-11.7,9.5-21.9,17.3-30.5c8.8-9.7,19.5-17.4,31-23.6c7.5-4.1,15.6-7.1,23.4-10.5c7.6-3.3,15.3-6.6,23.3-8.9c1.2-0.3,2.3-0.6,3.5-0.8c1.3,1.1,2.9,1.3,4.4,0.8c2.9,2.8,5.9,5.5,9,8.2c-0.4,0.3-0.7,0.6-1.1,0.8c1.1,0.6,2.2,1.2,3.3,1.9c2.7,4.6,3.4,9.6-2.4,12.3c-3.9,1.8-8.3,2.4-12.3,4c-1.3,0.5-2.5,1.1-3.6,1.8c-0.4-0.2-0.7-0.4-1.1-0.6c-0.4,0.8-0.8,1.6-1.2,2.4C130.3,271.4,128.9,273.2,127.6,275.1z M200.9,455.5c4.9,10.4,1.3,20.7-7.9,27.3c-9.7,6.9-23.1,4.1-34.2,3.5c-10.1-0.5-20.3,1.6-30.2-1c-4.2-1.1-9.2-4.5-7.4-9.4c1.8-4.8,6.6-8.5,10.4-11.7c8.5-7.3,15.1-16,19.2-26.5c3.8-9.5,8-20,16.9-25.9c9.4-6.2,20.6,3.4,26.3,10.4c6.2,7.5,9.2,17,10.3,26.6C201.4,449.6,199.4,452.1,200.9,455.5z M331.6,442.1c7.5,8.1,18.2,11.8,26.3,19.1c3.6,3.2,5.8,7.1,3.7,11.8c-1.7,3.6-5.2,6-8.6,7.6c-8.6,4-18.6,4.7-27.9,4.9c-8.1,0.2-16.3-0.2-24.4-0.6c-7.6-0.3-16.5-1.5-22.6-6.5c-4-3.3-4.9-8.2-4.8-13.2c0-0.4,0-0.8-0.1-1.2c0-0.3,0.1-0.5,0.1-0.8c0.6-12.3-1.6-25.5,3.9-37c5.7-12.1,18.4-17.3,30.2-11c2.3,1.3,4.4,2.8,6.3,4.5v2.6c0.5-0.4,1-0.8,1.5-1.2C321.2,427.3,325.6,435.6,331.6,442.1z M347.3,353.7c0.2,9.8-3.9,19.2-9,27.3c-6.2,9.8-14.5,18.3-23.5,26c-2-1.3-4.1-2.5-6.4-3.5c-14.8-6.4-30.3,0.8-38.8,13.7c-6.5,9.8-7.1,21-7.2,32.2c-8.6,6.1-18.3,10.6-29,8.2c-6.6-1.5-12.7-5.1-18.4-9.2c-1-10.2-4.1-20.1-9.6-28.9c-6.1-9.7-17.3-19.4-29.1-20.6c-7.9-0.8-14.7,2.8-20.2,8v-1.7c-2.1-1.7-4.1-3.5-6.1-5.4c-9.1-8.9-14.2-20.5-16.6-32.8c-2.2-11.9-2.6-24.5-2.9-36.6c-0.2-9.8,0.6-19.5,2.3-29.1c1-5.5,2.4-11,4.2-16.3c1.3-1.3,2.6-2.6,4-3.8c1.7-1.5,2.2-3.4,2-5.2c2.4-0.8,5-1.3,7.2-2c5.8-1.7,10-4.9,13.3-9.9c0.9-1.4,1.5-2.8,1.8-4.2c10.4,7.8,21.4,14.7,33,19.8c22.6,10,47.2,10.3,69.1-1.5c1-0.5,1.7-1.2,2.1-1.9c11.1-7,22.4-14.2,33.1-22c0.2,4.5,1.9,8.8,5.5,11.8c3.9,3.2,9.1,4.6,13.9,5.7c1.9,0.4,4.2,0.7,6.5,1.2c-0.2,1.9,0.6,3.8,3.1,4.7c0.4,0.1,0.8,0.3,1.2,0.5c0.7,3.1,1.2,6.3,1.6,9.5c0.9,7.8,2.6,15.5,4.3,23.1C342.2,324.7,347,339.2,347.3,353.7z M427.2,308.5c-1.9,10-10.6,17.5-19.3,21.8c-8.3,4.1-18.1,6.5-27.3,4.7c-9.4-1.9-13.6-9.9-16.1-18.4c-4.9-16.8-5.7-36.7-21.5-46c0.1-1.4-0.5-2.9-2-4c0,0-0.1-0.1-0.1-0.1c-0.4-0.9-0.8-1.8-1.2-2.7c-0.5,0.4-0.9,0.7-1.4,1.1c-5.2-2.7-11.4-3.2-17-4.7c-2.6-0.7-5.5-1.7-7.1-3.9c-1.9-2.6,1-8.4,3.4-9.9c2-1.2,2.7-3,2.4-4.8c14.6-10.5,36.8-4.9,52,1c17.9,7,35.6,17.8,46.6,33.8C425,285.6,429.4,297.1,427.2,308.5z"/></svg>