<svg xmlns="http://www.w3.org/2000/svg"  viewBox="0 0 512 512" width="48px" height="48px"><path fill="#BCBCBC" d="M234.9,409.6c-8.2-14.2-19.7-31.8-38.3-31.7c-20,0.1-34.6,15.8-48.8,27.8c-14.2,12-29.8,23.2-47.5,29.2c-5.8,2-11.8,3.5-17.9,4.4c0.6,0.2,1.1,0.5,1.7,0.7c7.8,2.9,17.3,6.2,25.7,4c8.9-2.3,15.2-7,21.6-13.3c5.8-5.6,11.6-11.3,18.8-15c7.4-3.8,15.9-5.6,24.2-6.2c7.3-0.6,16.3-1.3,23.4,1.2c5.5,2,10.8,5.1,15.7,8.4c3.4,2.3,7.5,4.7,9.4,8.4c3-2.6,6.2-4.9,9.2-7.4c2.4-2,6-4.5,6.7-7.8C237.5,412.1,236,411.4,234.9,409.6z"/><path fill="#D6E5E5" d="M450.2 324.6c-1.7-23.1-3.8-45.9-3.7-69.1.1-22.7.6-45.5.3-68.2-.3-20.3-.7-40.7-.8-61-14.3 14.7-38.4 14.4-55 3.3-9.7-6.5-16.5-15.9-23.7-24.8-7.5-9.2-16.6-16.6-26.4-23.4-9.3-6.5-20.4-13.7-32-14.8-8.4-.8-17.2.8-25.2 3.1-15.1 4.4-37.2 13.7-38.9 31.9 0 0 0 .1 0 .1 0 .3 0 .6 0 .9-1.6 25.3-.7 50.8.3 76.1 1 25.4 1.5 50.7 1.9 76.1.5 25.8 1.9 51.6 2.5 77.4.6 22.7.4 45.4.4 68.1 6.1-4.7 11.8-9.9 18.1-14.2 9.3-6.3 19.3-10.1 30.6-10.7 23.2-1.2 45.5 3.3 64.4 17.2 9.3 6.8 17.2 14.1 28.9 16.6 8.8 1.9 18.4 2.3 27.2.1 7.4-1.9 14.7-4.3 21.6-7.4 3.1-1.3 6.1-2.8 8.9-4.6.3-.2.7-.4 1-.7-2.6-2.6-1.8-6.1.3-8.1C451.1 367.2 451.8 345.7 450.2 324.6zM361.1 150.4c8 5.6 16.2 11.1 25.3 14.8 4.2 1.7 8.6 3 13.1 3.8 4.6.8 9.4.4 13.9 1.3 3.3.6 5.7 4.7 3.9 7.8-1.5 2.6-3.5 3.4-6.3 3.9-2.1.4-3.6-.3-4.5-1.5-4-.3-8-.4-12-1.3-4.8-1.2-9.6-2.7-14.2-4.7-9.4-4.2-17.9-9.9-26.3-15.8C348.1 154.5 355.4 146.3 361.1 150.4zM412.9 289c-9.2.2-19.1 2.3-27.9-1.6-6.5-2.8-1.6-12.7 4.9-9.9 6.5 2.9 15.2.6 22.1.4C419.1 277.9 420 288.8 412.9 289zM290.7 127.3c15.1-5.7 35 .8 47.4 10.1 5.7 4.3-1.6 12.5-7.3 8.3-9.3-6.9-25.3-12.2-36.6-7.9C287.7 140.2 284 129.8 290.7 127.3zM286.1 155c22.7.2 41.1 9.7 58.7 23.3 18.7 14.5 40.6 21.5 64.3 19.7 7.1-.5 7.9 10.4.8 11-23.4 1.8-45.9-4-65.3-17.2-9.2-6.2-17.5-13.6-27.5-18.5-9.5-4.7-19.6-7.1-30.2-7.2C279.9 165.9 279 154.9 286.1 155zM408 230.9c-.8.9-1.6 1.3-2.7 1.8-2 .8-3.7.5-4.9-.5 0 0-.1 0-.1 0-.7 0-1.5-.1-2.2-.1-2.1-.1-4.2-.1-6.2-.1-5.8 0-11.6.1-17.3-1.1-6.9-1.5-4.8-12.3 2.1-10.8 6.4 1.4 13.1.8 19.6 1 4 .1 9.7-.6 12.3 3.1C409.9 226.2 409.6 229.1 408 230.9zM286.1 185c13.8.2 25.5 5.1 37.1 12.2 5.5 3.4 11.1 7.7 17.3 9.9 4.4 1.5 8.9 3.1 11.6 7.3 3.8 6-5.3 12.2-9.1 6.2-1.9-3-7.3-3-10.2-4.7-5.4-3.1-10.7-6.4-16-9.6-9.3-5.6-18.8-10.1-29.8-10.2C279.9 195.9 279 184.9 286.1 185zM294.1 220c20.1-.6 36.1 13.4 53.2 21.8 19.5 9.6 42.7 8.2 63.8 8.2 7.1 0 7.9 11 .8 11-21.6 0-45.7 1.5-65.9-7.6-8.7-3.9-16.6-9.2-24.9-13.7-8.1-4.4-16.8-9-26.3-8.7C287.8 231.2 287 220.2 294.1 220zM358 286.4c-9.3-5.7-19.3-10.1-29-15-7.9-4.1-16.9-11.1-26.1-11.4-7-.3-7.9-11.2-.8-11 10.9.4 20.2 6.4 29.6 11.4 10.4 5.5 21.3 10.1 31.3 16.2C368.9 280.2 364.1 290.1 358 286.4zM375 369.4c-14.5-5-26.7-13.7-40-21-10.4-5.7-22.5-4.8-34-3.9-.6.3-1.3.4-2.1.4h-3c-7 0-8-10.4-.8-11 14.1-1 30.6-3.3 43.5 3.8 13.7 7.5 26.4 16.6 41.3 21.7C386.6 361.9 381.7 371.7 375 369.4zM411.9 371h-10c-3 0-5.7-1.9-5.9-5.1-.2-2.8 2.1-5.9 5.1-5.9h10c3 0 5.7 1.9 5.9 5.1C417.2 367.9 414.9 371 411.9 371zM414.9 348c-18.8.1-39.7 1.8-56.4-8.6-15.8-9.9-31.3-19-50.6-18.4-7.1.3-7.9-10.7-.8-11 19.5-.7 35.6 6.8 51.9 16.8 8.9 5.4 17.5 8.9 27.9 9.9 9 .8 18.1.4 27.2.4C421.1 337 422 348 414.9 348zM423.1 314.3c-2.3 2.9-7.3 2.7-10.6 2.7-5.8 0-11.5-.1-17.3 0-12.1.2-23.7.4-35.3-3.5-20.5-6.9-37.7-22.4-59.5-25.6-7-1-4.9-11.8 2.1-10.8 20.4 3 36.6 16 55.1 23.8 10.4 4.4 20.5 5.4 31.6 5.2 5.7-.1 11.5-.1 17.2-.1 2.4 0 4.9.1 7.3.1.8-.7 1.9-1.1 3.3-1.1 1 0 2 0 3 .2C424.1 306.4 425.8 310.9 423.1 314.3zM238.5 329.1c-.8-25.8-2.1-51.6-2.5-77.4-.3-25.4-1-50.7-2-76-1-25.1-1.6-50.1 0-75.2 0-.1 0-.2 0-.3-1.3-1.1-2.1-2.7-2-4.8.9-15.5-18.2-26.2-30.8-30-7.4-2.2-15-3.4-22.6-1.4-10.4 2.8-19.9 8.1-28.3 14.8-9.1 7.3-15.3 16.2-21.7 25.8-6.1 9.2-13.5 16.2-23.4 21.3-9.7 4.9-19.9 10.7-30.9 12.1-8.2 1-16-.4-23.6-3 2.4 19.9 3.1 40 3.3 60 .2 21.5.3 43.1.1 64.6-.2 22.1-1.4 44.2-2.2 66.2-.7 17.4-.2 35-1.6 52.3-.7 8.5-1.6 17-1.2 25.5.3 6.6 1 15.3 6.1 20.2 7.1 6.8 18.6 5.6 27.6 4.1 13.3-2.2 25.8-7.8 37-15 11.4-7.4 21.3-16.3 31.7-25.1 10.3-8.8 21.6-17.1 35-20.1 12.4-2.7 25.7.4 35.8 8.2 6.8 5.2 12.2 11.9 16.8 19.1C239.1 373.1 239.2 351.1 238.5 329.1zM90.5 226.1c21.6 5.2 38.3-6.9 54.7-19.4 8.8-6.7 17.6-13.6 27.4-18.8 3.5-1.9 6.9-3.6 10.8-4.5 1.6-.3 3.2-.7 4.8-1 .1 0 .2 0 .3-.1.8-.8 2-1.3 3.5-1.2 3 .1 5 .9 6.4 3.8 1 2.1-.2 5.2-2.1 6.4-2.4 1.5-5.6 1.7-8.3 2.3-4.5 1-8.2 2.7-12.2 5.1-9.9 5.9-19 13-28.2 20-17.6 13.4-36.5 23.8-59.2 18.3C81.6 235.2 83.6 224.4 90.5 226.1zM86.1 194c15.3-.1 29.3-4.5 42.1-12.8 10.1-6.6 19.2-14.4 28.6-21.9 8.1-6.6 37.2-30.4 41.3-8.2 1.2 6.6-8.6 7.6-10.7 1.8-1.1.2-2.2.6-3.3 1.1-3.6 1.6-7 3.9-10.3 6.2-6.2 4.4-11.9 9.2-17.8 13.9-9.9 8.1-20 16.1-31.4 21.9-11.7 5.9-24.4 8.9-37.5 9C79.8 205 79 194.1 86.1 194zM197.4 224.9c-8.7-2.9-17 3.8-23.5 8.7-7.2 5.5-14.2 11.5-22.6 15.1-6.6 2.8-10.1-7.6-3.6-10.4 16.4-7 31.6-31 51.9-24.2C206.2 216.3 204.2 227.1 197.4 224.9zM199.9 261c-11.6.1-24 1.5-34.2 7.5-10.5 6.2-17.9 16.3-28 23.1-8.4 5.7-17.9 8.2-27.9 9.5-7.3.9-17.8 2.7-24-2.5-5.4-4.6 1.8-12.8 7.3-8.3 1.1.9 6.4.7 8.5.5 4.4-.3 8.8-.8 13.1-1.7 10.1-2 17.9-6.8 25.4-13.7 8.5-7.8 16.5-15.7 27.4-20 9.2-3.6 18.9-5.1 28.7-5.4.3 0 .5-.1.8-.1h2C206.1 250 207 260.9 199.9 261zM175.4 114.9c6.1-3.5 13.9-7.2 21.1-5.8 7 1.3 4.9 12.1-2.1 10.8-4.1-.8-9.5 2.2-12.9 4.2C175.5 127.6 169.3 118.5 175.4 114.9zM80.1 165c14 0 28.1-1.2 40.1-9.2 14.1-9.5 28-20.1 41.3-30.8 5.5-4.5 11.6 4.7 6.2 9.1-7.2 5.9-14.7 11.4-22.2 16.9-7.1 5.2-14 11.2-21.6 15.6-13.3 7.6-27.7 9.4-42.8 9.5C73.8 176 73 165 80.1 165zM84.1 257c6.4 0 12.8.4 19.2 0 5.7-.4 12.9-.8 17.1-5.2 4.9-5.1 13.2 2.1 8.3 7.3-10.9 11.4-29.4 8.9-43.7 8.9C77.9 267.9 77 257 84.1 257zM148.6 347.1c-16.6 15.3-37.2 22.7-59.7 21.9-7-.3-7.9-11.2-.8-11 19.5.8 37.8-4.8 52.3-18.1C145.5 335.1 153.8 342.3 148.6 347.1zM199.3 317.7c-5.7 2.2-12.1 1.4-17.7 3.7-5.4 2.2-10.3 6.1-14 10.7-4.4 5.5-12.7-1.7-8.3-7.3 4.4-5.5 10.6-10.5 17.2-13.2 6.2-2.5 13-2 19.2-4.3C202.3 304.8 205.9 315.2 199.3 317.7zM202.6 290c-19.4 0-37.6 12.3-53.8 21.6-9.2 5.3-18.5 10.1-28.9 12.6-9.9 2.4-20.1 1.8-30.1 1.8-7.1 0-7.9-11-.8-11 11.2 0 21.8.4 32.6-2.7 9.9-2.9 18.5-8.5 27.5-13.5 9-5.1 18-10.6 27.7-14.2 6.7-2.5 14.7-4.9 22.1-5.4.4-.1.7-.1 1.1-.1h1.7C208.9 279 209.7 290 202.6 290z"/><path fill="#BCBCBC" d="M256.5 426.6c-2.5-2.6-5.1-5.2-7.9-7.4-.1-.1-.2-.1-.2-.2-2.3 4.5-6.9 8-11.2 11.2 8.4 2.1 17.2 3.1 25.9 3.5C260.9 431.1 258.5 428.7 256.5 426.6zM471.9 410.8c-1.7-10-1.7-20.1-1.3-30.2.4-12.2.4-24.2 0-36.4-1-28-1-56.1-1.5-84.2-.6-27.8-2-55.5-2.1-83.3 0-12.6-.9-23.9-5.2-35.9-1.4-3.8-3.1-7.4-4.8-11 .2 18.8.6 37.7.8 56.5.3 22.7-.3 45.5-.3 68.2-.1 23.2 2.1 46 3.7 69.1 1.5 22.5.8 45.1.8 67.6 1.5 1.1 2.4 2.9 1.9 5.2-1.2 6.3-7.9 10-13.2 12.7-7.4 3.8-15.3 6.8-23.3 9.1-18.4 5.3-40 4.6-56.4-6.1-9.6-6.3-17.6-14.4-28.1-19.2-10.7-4.9-22.7-6.7-34.4-6.9-12.6-.2-23.7 1.6-34.2 9-6.6 4.6-12.6 10.1-19.1 14.9 3.6 2.8 6.9 6.5 9.3 9.1 3.5 3.8 7.5 8 10.3 12.6 9.2-12.3 22-19.2 38-17.3 16.3 1.9 30.5 10.3 45.1 17.2 9.2 4.3 18.4 10.7 28.5 12.6 9.3 1.8 20.2.9 29.4-1.3 10.2-2.4 19.5-6.8 28.9-11.3 9-4.3 18-8.7 26.7-13.5.2-.5.4-1 .8-1.4C471 414.9 471.1 412.6 471.9 410.8z"/><path d="M483.3,418.3c0.6-0.9,0.8-2,0.6-3.3c-0.1-0.5-0.2-1-0.3-1.4c0,0,0,0,0,0c-2.9-11.6-2.4-23.8-2-35.7c0.4-12.2,0.3-24.3-0.2-36.6c-1-27.4-0.9-54.8-1.5-82.2c-0.5-27.1-2-54.2-2.1-81.3c0-12.3-0.2-24.1-4.1-35.9c-3.6-11-11.4-21.4-12.9-32.9c-0.6-4.6-5.5-5.8-8.5-4.2c-2.9-1.3-7.1-0.4-8.4,3.6c-3.1,10-11.5,16.4-21.6,18c-11,1.7-21.5-2.3-29.8-9.3c-8.8-7.4-15-17.4-22.6-25.9c-8-8.9-18.4-16-28.3-22.5c-9.4-6.1-20.2-12-31.6-13.1c-9-0.9-18,0.6-26.7,2.7c-15.6,3.8-33.1,11.7-43,25.1c-4.4-10.6-14.2-18.6-24.9-24c-7.3-3.7-15.6-6.3-23.7-7.2c-10-1.1-19.7,1.6-28.7,5.8c-10.5,4.8-19.9,11.7-28.1,19.7c-8.7,8.6-13.9,19.8-21.8,29.1c-3.7,4.3-9.4,7.4-14.3,10c-5.4,2.9-11.1,5.6-16.8,7.8c-11.4,4.5-22.3,2.7-33.3-2.1c-2.9-1.2-5.7-0.2-7,2.1c-1.9,0.8-3.3,2.6-2.9,5.2c4.2,31.3,4.2,62.9,4,94.3c-0.1,32.3-0.6,64.4-1.9,96.7c-0.6,15.5-0.9,31.1-1.2,46.6c-0.1,8.2-1.3,16.3-1.7,24.5c-0.7,13.4-0.4,29.1,8.8,39.2c0.1,1.7,1,3.2,2.9,4.2c16,8.1,32.4,18.4,50.7,19.9c17.6,1.5,30.3-9.1,42.1-20.5c5.6-5.4,11.3-9.5,18.7-12c7.2-2.4,15.2-2.9,22.8-2.9c6.3,0,10.8,1,16.3,4c2.8,1.5,5.5,3.1,8.1,4.8c1,0.7,2,1.5,3,2.2c1.6,1.3,1.7,2.6,1.2-0.1c0.7,4.1,4.8,5.5,7.8,4.5c0.5,0.9,1.3,1.6,2.3,2c16,5.6,33,7.5,49.9,7.6c1.8,0,3.2-1,4.1-2.4c2,0.2,4.1-0.6,5.4-2.7c4.2-6.5,9.7-11.6,17.2-13.9c6.8-2.1,14.3-0.7,20.9,1.1c16.1,4.3,31.3,13.6,46,21.1c8.7,4.4,17.5,7.5,27.4,7.8c9.6,0.2,19.3-1,28.6-3.4c10.3-2.7,19.8-7.6,29.3-12.2c10.1-4.8,20-9.8,29.7-15.3C484.4,423.4,484.6,420.6,483.3,418.3z M244.9,102.5c0-0.3,0-0.6,0-0.9c0,0,0-0.1,0-0.1c1.7-18.2,23.7-27.5,38.9-31.9c8-2.3,16.8-3.9,25.2-3.1c11.6,1.1,22.6,8.4,32,14.8c9.8,6.8,18.9,14.1,26.4,23.4c7.3,8.9,14,18.3,23.7,24.8c16.6,11.1,40.7,11.4,55-3.3c0.1,20.3,0.6,40.7,0.8,61c0.3,22.7-0.2,45.5-0.3,68.2c-0.1,23.2,2,46,3.7,69.1c1.5,21.2,0.9,42.6,0.8,63.9c-2.1,2-2.9,5.5-0.3,8.1c-0.3,0.2-0.7,0.5-1,0.7c-2.8,1.9-5.8,3.3-8.9,4.6c-7,3.1-14.3,5.5-21.6,7.4c-8.8,2.2-18.4,1.7-27.2-0.1c-11.7-2.5-19.6-9.8-28.9-16.6c-18.9-13.9-41.3-18.4-64.4-17.2c-11.3,0.6-21.3,4.4-30.6,10.7c-6.4,4.3-12.1,9.5-18.1,14.2c0-22.7,0.2-45.4-0.4-68.1c-0.6-25.8-2-51.6-2.5-77.4c-0.5-25.4-0.9-50.7-1.9-76.1C244.1,153.3,243.3,127.9,244.9,102.5z M55.2,424c-5.1-4.9-5.8-13.6-6.1-20.2c-0.4-8.5,0.5-17,1.2-25.5c1.4-17.4,0.9-34.9,1.6-52.3c0.8-22.1,2-44.1,2.2-66.2c0.2-21.5,0.1-43.1-0.1-64.6c-0.2-20-0.9-40.1-3.3-60c7.6,2.6,15.4,4,23.6,3c11-1.4,21.2-7.1,30.9-12.1c9.9-5.1,17.3-12,23.4-21.3c6.4-9.6,12.6-18.5,21.7-25.8c8.4-6.7,17.9-12,28.3-14.8c7.7-2.1,15.2-0.9,22.6,1.4c12.6,3.8,31.8,14.5,30.8,30c-0.1,2,0.7,3.7,2,4.8c0,0.1,0,0.2,0,0.3c-1.6,25-1,50.1,0,75.2c1,25.3,1.7,50.6,2,76c0.3,25.8,1.7,51.6,2.5,77.4c0.6,22,0.5,44,0.5,66c-4.6-7.2-10-13.9-16.8-19.1c-10.1-7.7-23.4-10.9-35.8-8.2c-13.4,2.9-24.8,11.3-35,20.1c-10.3,8.8-20.2,17.7-31.7,25.1c-11.3,7.3-23.8,12.8-37,15C73.8,429.6,62.3,430.8,55.2,424z M232.3,419.9c-3.1,2.5-6.3,4.8-9.2,7.4c-1.9-3.7-6-6.1-9.4-8.4c-4.9-3.3-10.2-6.4-15.7-8.4c-7.1-2.5-16-1.8-23.4-1.2c-8.3,0.7-16.8,2.4-24.2,6.2c-7.2,3.7-13,9.4-18.8,15c-6.5,6.3-12.8,11-21.6,13.3c-8.4,2.2-17.9-1-25.7-4c-0.6-0.2-1.1-0.5-1.7-0.7c6.1-0.9,12.1-2.4,17.9-4.4c17.7-6,33.4-17.2,47.5-29.2c14.2-12,28.7-27.7,48.8-27.8c18.6-0.1,30.1,17.5,38.3,31.7c1,1.8,2.5,2.5,4.1,2.5C238.3,415.4,234.7,417.9,232.3,419.9z M237,430.2c4.4-3.3,8.9-6.8,11.2-11.2c0.1,0.1,0.2,0.1,0.2,0.2c2.9,2.2,5.4,4.8,7.9,7.4c2,2.1,4.4,4.6,6.5,7.2C254.2,433.3,245.5,432.3,237,430.2z M471.5,418.1c-8.8,4.8-17.7,9.2-26.7,13.5c-9.4,4.5-18.7,8.8-28.9,11.3c-9.2,2.2-20.1,3.1-29.4,1.3c-10.2-2-19.3-8.3-28.5-12.6c-14.6-6.8-28.8-15.2-45.1-17.2c-16-1.9-28.9,5.1-38,17.3c-2.9-4.6-6.9-8.8-10.3-12.6c-2.4-2.7-5.7-6.3-9.3-9.1c6.4-4.9,12.4-10.3,19.1-14.9c10.5-7.4,21.6-9.2,34.2-9c11.8,0.2,23.7,2,34.4,6.9c10.6,4.8,18.6,12.9,28.1,19.2c16.4,10.8,38,11.5,56.4,6.1c8-2.3,15.9-5.3,23.3-9.1c5.2-2.7,11.9-6.4,13.2-12.7c0.5-2.3-0.4-4.1-1.9-5.2c0-22.5,0.8-45.2-0.8-67.6c-1.6-23.1-3.7-45.9-3.7-69.1c0-22.7,0.6-45.5,0.3-68.2c-0.2-18.8-0.6-37.7-0.8-56.5c1.7,3.6,3.4,7.2,4.8,11c4.3,12,5.2,23.3,5.2,35.9c0,27.8,1.5,55.5,2.1,83.3c0.6,28.1,0.5,56.1,1.5,84.2c0.4,12.2,0.5,24.2,0,36.4c-0.3,10.1-0.3,20.2,1.3,30.2c-0.9,1.8-0.9,4.1,0.3,5.9C471.9,417.1,471.6,417.6,471.5,418.1z"/><path d="M338.1 137.4c-12.4-9.3-32.3-15.8-47.4-10.1-6.6 2.5-3 12.9 3.6 10.4 11.3-4.3 27.3 1 36.6 7.9C336.5 149.9 343.8 141.6 338.1 137.4zM413.4 170.2c-4.5-.9-9.3-.5-13.9-1.3-4.5-.8-8.8-2.1-13.1-3.8-9.1-3.7-17.3-9.2-25.3-14.8-5.8-4-13.1 4.2-7.3 8.3 8.4 5.9 16.9 11.6 26.3 15.8 4.6 2 9.4 3.6 14.2 4.7 4 1 8 1 12 1.3.9 1.2 2.5 1.9 4.5 1.5 2.8-.5 4.8-1.3 6.3-3.9C419.1 175 416.7 170.9 413.4 170.2zM409.1 198c-23.7 1.8-45.5-5.2-64.3-19.7-17.6-13.7-36-23.1-58.7-23.3-7.1-.1-6.2 10.9.8 11 10.7.1 20.7 2.5 30.2 7.2 10 4.9 18.3 12.3 27.5 18.5 19.4 13.2 41.9 19 65.3 17.2C417 208.4 416.1 197.5 409.1 198zM352 214.4c-2.6-4.1-7.2-5.7-11.6-7.3-6.2-2.2-11.8-6.5-17.3-9.9-11.7-7.1-23.3-12.1-37.1-12.2-7.1-.1-6.2 10.9.8 11 11.1.1 20.5 4.6 29.8 10.2 5.3 3.2 10.6 6.5 16 9.6 2.9 1.7 8.3 1.8 10.2 4.7C346.7 226.6 355.8 220.4 352 214.4zM408.4 224.2c-2.6-3.7-8.4-3-12.3-3.1-6.5-.2-13.2.4-19.6-1-6.9-1.5-9 9.3-2.1 10.8 5.7 1.2 11.5 1.1 17.3 1.1 2.1 0 4.2 0 6.2.1.7 0 1.5 0 2.2.1.1 0 .1 0 .1 0 1.2 1 2.9 1.3 4.9.5 1.1-.5 1.9-.9 2.7-1.8C409.6 229.1 409.9 226.2 408.4 224.2zM411.1 250c-21.1 0-44.3 1.5-63.8-8.2-17.1-8.4-33.1-22.4-53.2-21.8-7.1.2-6.2 11.2.8 11 9.4-.3 18.2 4.3 26.3 8.7 8.3 4.5 16.2 9.8 24.9 13.7 20.2 9.1 44.3 7.6 65.9 7.6C419 261 418.1 250 411.1 250zM362.9 276.6c-10-6.1-20.9-10.7-31.3-16.2-9.4-5-18.6-11-29.6-11.4-7.1-.3-6.2 10.7.8 11 9.2.4 18.2 7.4 26.1 11.4 9.7 4.9 19.7 9.3 29 15C364.1 290.1 368.9 280.2 362.9 276.6zM412.1 278c-6.9.1-15.6 2.4-22.1-.4-6.5-2.8-11.4 7-4.9 9.9 8.7 3.8 18.7 1.7 27.9 1.6C420 288.8 419.1 277.9 412.1 278zM420.1 305.2c-1-.3-2-.2-3-.2-1.4-.1-2.6.4-3.3 1.1-2.4.1-4.9-.1-7.3-.1-5.7 0-11.5 0-17.2.1-11.2.2-21.3-.8-31.6-5.2-18.5-7.8-34.7-20.8-55.1-23.8-7-1-9.1 9.8-2.1 10.8 21.8 3.2 39 18.7 59.5 25.6 11.6 3.9 23.2 3.6 35.3 3.5 5.8-.1 11.5 0 17.3 0 3.3 0 8.3.2 10.6-2.7C425.8 310.9 424.1 306.4 420.1 305.2zM414.1 337c-9.1 0-18.2.5-27.2-.4-10.4-1-19-4.5-27.9-9.9-16.3-10-32.4-17.5-51.9-16.8-7.1.3-6.2 11.2.8 11 19.3-.7 34.8 8.5 50.6 18.4 16.7 10.4 37.6 8.7 56.4 8.6C422 348 421.1 337 414.1 337zM379.9 359.6c-14.9-5.1-27.6-14.2-41.3-21.7-13-7.1-29.4-4.8-43.5-3.8-7.1.5-6.2 11 .8 11h3c.8 0 1.5-.2 2.1-.4 11.5-1 23.6-1.8 34 3.9 13.3 7.3 25.5 16 40 21C381.7 371.7 386.6 361.9 379.9 359.6zM417 365.1c-.2-3.2-2.9-5.1-5.9-5.1h-10c-3 0-5.3 3.1-5.1 5.9.2 3.2 2.9 5.1 5.9 5.1h10C414.9 371 417.2 367.9 417 365.1zM161.4 124.9c-13.2 10.8-27.1 21.3-41.3 30.8-11.9 8.1-26.1 9.2-40.1 9.2-7.1 0-6.2 11 .8 11 15.1-.1 29.5-1.9 42.8-9.5 7.6-4.4 14.5-10.4 21.6-15.6 7.5-5.5 15-11 22.2-16.9C173 129.6 166.9 120.5 161.4 124.9zM196.5 109.1c-7.2-1.4-15.1 2.3-21.1 5.8-6.1 3.6 0 12.7 6.2 9.1 3.4-2 8.8-4.9 12.9-4.2C201.4 121.2 203.5 110.4 196.5 109.1zM198 151.1c-4.1-22.2-33.1 1.6-41.3 8.2-9.3 7.6-18.5 15.4-28.6 21.9-12.8 8.3-26.8 12.7-42.1 12.8-7.1.1-6.2 11 .8 11 13.1-.1 25.8-3.1 37.5-9 11.5-5.8 21.5-13.8 31.4-21.9 5.8-4.8 11.6-9.6 17.8-13.9 3.3-2.3 6.6-4.5 10.3-6.2 1.1-.5 2.2-.9 3.3-1.1C189.3 158.7 199.2 157.7 198 151.1zM198.5 184.8c-1.4-2.9-3.4-3.7-6.4-3.8-1.6-.1-2.7.4-3.5 1.2-.1 0-.2.1-.3.1-1.6.4-3.2.7-4.8 1-3.9.9-7.3 2.6-10.8 4.5-9.8 5.2-18.6 12.1-27.4 18.8-16.4 12.6-33 24.7-54.7 19.4-6.9-1.7-9 9.1-2.1 10.8 22.7 5.5 41.6-4.9 59.2-18.3 9.2-7 18.2-14.1 28.2-20 4-2.4 7.7-4.1 12.2-5.1 2.7-.6 5.9-.9 8.3-2.3C198.3 190 199.5 186.9 198.5 184.8zM120.4 251.9c-4.2 4.4-11.5 4.8-17.1 5.2-6.4.4-12.8 0-19.2 0-7.1 0-6.2 10.9.8 11 14.3.1 32.8 2.5 43.7-8.9C133.6 254 125.3 246.8 120.4 251.9zM199.5 214.1c-20.3-6.8-35.5 17.2-51.9 24.2-6.5 2.8-2.9 13.2 3.6 10.4 8.4-3.6 15.4-9.6 22.6-15.1 6.6-5 14.9-11.6 23.5-8.7C204.2 227.1 206.2 216.3 199.5 214.1zM199.1 250h-2c-.3 0-.5 0-.8.1-9.8.3-19.5 1.8-28.7 5.4-11 4.3-18.9 12.2-27.4 20-7.5 6.9-15.3 11.7-25.4 13.7-4.3.9-8.7 1.4-13.1 1.7-2.1.1-7.4.4-8.5-.5-5.4-4.6-12.7 3.7-7.3 8.3 6.2 5.2 16.7 3.4 24 2.5 10-1.3 19.5-3.9 27.9-9.5 10.1-6.8 17.5-16.8 28-23.1 10.2-6.1 22.6-7.5 34.2-7.5C207 260.9 206.1 250 199.1 250zM201.8 279h-1.7c-.4 0-.8 0-1.1.1-7.4.5-15.3 2.9-22.1 5.4-9.7 3.6-18.7 9.1-27.7 14.2-8.9 5-17.5 10.6-27.5 13.5-10.8 3.2-21.5 2.8-32.6 2.7-7.1 0-6.2 10.9.8 11 10 0 20.3.7 30.1-1.8 10.4-2.6 19.6-7.3 28.9-12.6 16.1-9.4 34.4-21.6 53.8-21.6C209.7 290 208.9 279 201.8 279zM140.4 339.9c-14.5 13.3-32.8 18.9-52.3 18.1-7.1-.3-6.2 10.7.8 11 22.5.9 43.1-6.6 59.7-21.9C153.8 342.3 145.5 335.1 140.4 339.9zM195.7 307.3c-6.2 2.3-13 1.8-19.2 4.3-6.5 2.7-12.8 7.7-17.2 13.2-4.4 5.5 3.8 12.8 8.3 7.3 3.6-4.6 8.6-8.5 14-10.7 5.6-2.3 12-1.6 17.7-3.7C205.9 315.2 202.3 304.8 195.7 307.3z"/></svg>