<svg xmlns="http://www.w3.org/2000/svg" x="0px" y="0px"
width="48" height="48"
viewBox="0 0 512 512"
style=" fill:#000000;"><path fill="#EF4823" d="M222.6 431.3c-3.4-19.9-13-38-19.9-56.8-6.8-18.5-9.6-37.8-11.1-57.4-1.5-20.1-1.6-40.4.6-60.5 0-.2.1-.5.1-.7-6.9 1.5-13.5 4-19.8 7.1 1.3 2.2 1.1 5.1-1.8 6.7-4.8 2.6-6.5 8.8-7.6 13.7-1.8 7.7-2.6 15.7-2.8 23.6-.2 7.2-.1 14.5.4 21.7.7 9.7 3.4 19.2 5.6 28.6 5.5 23.7 11.9 49.3 7.9 73.8-2.9 17.9-14.6 33.2-29.6 43.1 10.6 6.9 23.1 11.3 35 14.5 12.8 3.4 26.5 6.2 39.9 5.3-.1-1.4.2-2.7.9-3.8C220.4 470.5 226 451.1 222.6 431.3zM271.8 165.7h-.3c-4.3 0-6.3-4.1-5.6-7.3-9.6-7-26.7-11.7-29.9 1.4-1 4.1-5.7 5.8-9 3.1-6-4.8-14.4-8.6-22.3-8.1-1.1 1.4-2.8 2.2-5.1 1.8 0 0-1.1 0-1.2-.1-.4.1-1 .2-.7.1-.3.1-.5.3-.8.6-.7.9-1.6 3-2 4.8-1.3 6.1-1.1 12.4-.7 18.6.9 12.5 3.2 24.7 5.6 37 1.3 6.8 0 13.6.3 20.4.2 6.7 5 11.2 11.5 12.9 11.4 3.1 33.9 4.9 33.1-12.4-.2-5.7 6.7-7.8 10-3.5 4.2 5.4 13.6 15.9 21.7 11.1 7.1-4.2 9.8-13.1 10.4-20.9C288.4 204.9 279.1 184.8 271.8 165.7zM327.8 436.7c-3.5-6.3-6.6-12.9-7.2-20.1-.7-9.3.7-18.6 3.1-27.6 5.5-20.3 13.4-40.9 11.3-62.3-.9-9.1-2.7-18.6-8.1-26.2-4.3-6-9.4-11.3-13.9-17.2-1-1.3-1.3-2.6-1.1-3.8-4.1-2.8-8.1-5.7-12.1-8.5 7 12.5 10.1 27.6 11.1 41.6.7 9.5.6 19.3-.9 28.7-1.6 9.8-5.6 18.7-10.6 27.2-11.5 19.6-28.8 38.4-33.5 61.2-4.9 23.6 9.8 45.5 23.1 64.4 7.7-8.6 19.2-12.6 30.3-15.9 11.3-3.4 24.7-6.5 33-15.4C341.8 457.3 333.4 446.6 327.8 436.7zM188.3 216.5c-1.9-9.9-9.3-42-3.9-59.4-17.9-4.3-34-13.4-45.9-27.8-10.5-12.6-19-27-30.7-38.6C102 84.9 95 78.8 86.6 77.1c-8.5-1.7-17.8 1.1-24.6 6.5-15.6 12.5-19.8 35.9-22.5 54.5-1.7 12.4-2.3 24.2-.8 36.7 1.8 14.3 4.5 28.7 2.7 43.2-1 7.9-3.8 15.3-5.5 23-1.5 6.7-2.6 13.4-3.2 20.3-.5 6.2-.7 12.4-.8 18.6 2.6-4 5.6-7.7 8.6-11 17.1-18.2 41.6-25.9 65.7-30 8.1-1.4 16.2-2.2 24.4-2.6-4.6-.1-9.1-.1-13.7-.1-7.1 0-7.9-11-.8-11 11.5 0 23 0 34.5 1.6 5 .7 5.4 6.3 2.6 9.2 11.9.3 23.8 1.2 35.7 2.3 0-.4 0-.7 0-1.1C189.1 230.2 189.7 223.4 188.3 216.5zM165 179.2c-16.6-.5-32.8-10.8-42.7-23.8-4.5-5.9-8.5-12.3-13.4-17.9-3.1-3.6-6.7-7.1-11.3-7.7-.3.8-.5 1.7-.7 2.5 6.8.3 7.6 11 .6 11h-6c-2.8 0-5.9-1.9-5.9-5.1 0-5.8.3-12.9 4.4-17.6 2.5-2.9 8.4-2.5 11.7-1.4 8.3 2.7 14.1 8.9 19.3 15.7 5.1 6.7 9.5 14.7 15.8 20.4 7.2 6.3 17.5 12.6 27.3 12.9C171.2 168.4 172.1 179.4 165 179.2z"></path><path fill="#EF4823" d="M119.2 248.2c-11.7 1.3-23.4 3.6-34.6 7.3-9.1 3-18.5 6.2-26.2 12-8 6-15.2 13.8-19.8 22.7-3.9 7.6-7.4 17.8-2.2 25.7 10.4 16 29.6 8.3 42.9.4 15.1-9 28.2-20.7 41.7-32 17.1-14.3 36.8-28.5 58.2-36C159.3 246.7 139.2 245.9 119.2 248.2zM442.4 297.9c-9.8-15.7-25.9-25.1-43-31-34.6-11.9-71.5-11.3-107.5-15.2 20.9 14.9 41.6 29.5 64.3 41.7 11.5 6.2 22.7 13.2 34.2 19.5 9.8 5.4 20.4 12 31.6 13.5 7.2 1 17.6.9 22.9-5.1C450.8 314.5 446.6 304.6 442.4 297.9z"></path><path fill="#EF4823" d="M469.3,221.7c-4.5-8.3-8.4-16.5-9.9-25.9c-1.5-9.1-1.1-18.3-0.3-27.5c2-23.2-2.7-50-15.3-69.8c-6-9.4-14-19.2-25.5-21.6c-11.1-2.3-22.3,0.6-32.5,5c-20.9,9.2-40.7,24.3-56.5,40.6c-14.4,14.9-28.1,30.4-47.7,37.6c4.3,12,9.3,23.8,12.5,36.1c3.4,12.9,6,27.5,1.6,40.5c-0.5,1.4-1,2.7-1.6,4.1c41.8,4.5,86.6,2.8,124.9,22.3c15.9,8.1,32,21.4,37.8,39c2,6,2.8,12.9,0.8,19c14.5-10.4,22.8-31.4,24.9-48.2C484.8,254.2,478.1,237.9,469.3,221.7z M305.3,165.5c15.2-4.9,27.8-14.4,40.7-23.5c9.7-6.9,21-16.7,33.7-16.2c9.4,0.3,20.6,4.1,22.2,14.8c0.8,5.6-1,11.7-5.9,14.9c-4.5,3-9.8,4.5-14.5,1.3c-5.9-3.9,1.4-12.2,7.3-8.3c-2.5-1.7,0.2-0.9,1.8-2.8c-0.4,0.3,0.5-1.6,0.5-1.9c0.1-0.5,0.1-1,0-1.5c-0.4-2.5-2.8-3.8-5-4.6c-6.8-2.4-12.9-0.2-18.7,3.3c-19.4,11.8-36.4,27.7-58.4,34.8C302.1,178.1,298.5,167.7,305.3,165.5z M417,207.1c-4.9,9.5-14.8,12.2-24.8,12.1c-27.4-0.1-51.6-15.8-78.6-17.7c-7.1-0.5-4.9-11.3,2.1-10.8c20.6,1.4,39.5,11.2,59.4,15.4c8.1,1.8,19.4,4.1,27.4,0.5c2.7-1.2,8.2-6.4,2.5-6.6c-7-0.2-7.9-11.2-0.8-11c5,0.2,10.2,1.2,12.9,5.9C419.1,198.7,418.9,203.4,417,207.1z"></path><path d="M492.6,249.8c-2.7-13.4-9.3-25.3-15.8-37.2c-6.9-12.7-8.1-26.2-7.1-40.4c1.8-24.1-1.3-49.1-12-71c-8.2-16.9-21.6-33-41.2-35.7c-19.4-2.7-38.8,7-54.7,16.9c-16.5,10.3-31.4,22.9-44.7,37c-12.3,13-24.3,25.4-41.2,31.1c-0.7-0.2-1.5-0.3-2.2-0.2c-13.4-10.7-36.3-14.5-45.5,0c-10-5.9-22-8.5-32.9-4.7c-1.5,0.3-2.9,0.8-4.1,1.6c0,0,0,0,0,0c-12.7-2.4-24.1-7.2-34.3-15.2c-7.1-5.6-12.5-12.9-17.9-20.1c-11.3-15.2-22.5-32.2-39.5-41.7c-17.1-9.5-37.8-3.5-50.4,10.5c-13.7,15.3-17.9,37.9-20.6,57.6c-1.7,12.6-2.1,24.6-0.6,37.3c1.8,14.6,4.6,29.1,2.4,43.8c-1.1,7.2-3.8,14.1-5.4,21.2c-1.6,7.2-2.5,14.5-3.1,21.9c-1.1,14.5-0.6,29-0.6,43.5c0,2,0.9,3.4,2.2,4.2c0.5,4.4,2,8.7,4.7,12.8c10.6,16.3,30.3,15.3,46.1,8.3c18.1-7.9,33.5-21.1,48.3-33.8c9.1-7.8,18.7-14.9,28.6-21.7c1.1-0.7,2.2-1.5,3.3-2.2c-2.9,7.6-3.8,16.5-4.3,23.3c-1.3,15.4-1.3,31.1,2,46.2c5.2,24.2,12.2,48.1,12.3,73.1c0,11.6-1.9,22.2-8.4,31.9c-6.1,9-14.6,15.9-24.2,20.8c-3.1,1.6-3.1,6.6-0.6,8.7c12.5,10.4,28.3,16.4,43.8,20.9c15.5,4.6,32.6,7.8,48.8,5.9c2.4-0.3,3.9-1.8,4.5-3.6c2.1-0.9,3.7-2.8,3.5-5.3c-0.7-10.1,0.8-20.1,2-30.2c1.3-10.6,1.7-21.2,0.5-31.9c-2.3-19.9-11.2-38.3-18.6-56.6c-3.7-9.1-7-18.5-8.9-28.2c-1.8-9.6-2.9-19.5-3.7-29.2c-1.7-20.1-2-40.5,0.1-60.6c14.1,7.2,34.9,7.7,46.6-3.2c1.8-1.7,3.1-3.7,4-5.8c5.9,5.3,13,9,21.2,7.9c0,1.8,0.9,3.5,2.9,4.6c16,8.8,20.5,31.8,22.1,48.3c0.9,9.4,0.9,18.9-0.5,28.2c-1.5,9.8-6.1,18.4-11.1,26.8c-11.9,20-27.7,38.4-33,61.6c-6,26.2,9.9,50.7,24,71.4c1.8,2.6,3.6,5.2,5.4,7.8c2.4,3.4,7.6,3.1,9.5-0.6c6.2-12.6,22.3-15.6,34.5-19.3c14.8-4.4,29.4-10.3,37.5-24.2c1.9-3.2-0.6-7.1-3.9-7.8c-12.6-2.9-22.4-17.8-27.5-28.7c-7.6-16.2-0.2-34.7,4.4-50.7c5.6-19.2,9.6-39.2,5.5-59.2c-1.6-7.7-3.8-14.6-8.1-21.2c6.9,4,14,7.8,21,11.7c13.1,7.3,25.8,15.3,39.2,22c10.5,5.3,20.7,9.2,32.6,9.2c0.2,0,0.3,0,0.5,0c0.3,0.1,0.5,0.1,0.8,0.2C475.9,345,500.2,287,492.6,249.8z M32,280c0.1-6.2,0.3-12.4,0.8-18.6c0.6-6.8,1.7-13.6,3.2-20.3c1.8-7.8,4.6-15.1,5.5-23c1.8-14.4-0.9-28.9-2.7-43.2c-1.6-12.5-1-24.3,0.8-36.7c2.6-18.7,6.8-42,22.5-54.5c6.8-5.4,16.1-8.2,24.6-6.5c8.4,1.7,15.4,7.7,21.2,13.6c11.7,11.6,20.2,26,30.7,38.6c11.9,14.3,28,23.5,45.9,27.8c-5.4,17.5,2,49.5,3.9,59.4c1.3,6.9,0.8,13.7,0.6,20.7c0,0.4,0,0.7,0,1.1c-11.9-1.1-23.8-2-35.7-2.3c2.7-2.9,2.4-8.5-2.6-9.2c-11.4-1.5-23-1.6-34.5-1.6c-7.1,0-6.2,11,0.8,11c4.6,0,9.1,0,13.7,0.1c-8.1,0.4-16.3,1.3-24.4,2.6c-24.1,4.1-48.6,11.8-65.7,30C37.6,272.2,34.6,275.9,32,280z M121,284.4c-13.5,11.3-26.5,22.9-41.7,32c-13.2,7.9-32.5,15.6-42.9-0.4c-5.1-7.9-1.7-18.2,2.2-25.7c4.6-8.9,11.8-16.7,19.8-22.7c7.7-5.8,17.1-9,26.2-12c11.2-3.7,22.9-6,34.6-7.3c19.9-2.3,40-1.5,60,0.2C157.8,255.9,138.1,270.1,121,284.4z M202.7,374.5c6.9,18.8,16.5,36.9,19.9,56.8c3.4,19.8-2.2,39.2-2.2,58.8c-0.7,1.1-1.1,2.5-0.9,3.8c-13.4,0.9-27-1.8-39.9-5.3c-11.9-3.2-24.5-7.6-35-14.5c15-9.8,26.7-25.2,29.6-43.1c4-24.5-2.4-50.1-7.9-73.8c-2.2-9.4-4.9-18.9-5.6-28.6c-0.5-7.2-0.6-14.5-0.4-21.7c0.2-7.9,1-15.9,2.8-23.6c1.1-4.9,2.9-11.1,7.6-13.7c3-1.6,3.1-4.5,1.8-6.7c6.4-3.1,13-5.6,19.8-7.1c0,0.2-0.1,0.5-0.1,0.7c-2.2,20.1-2,40.3-0.6,60.5C193,336.7,195.8,356,202.7,374.5z M286.7,225.3c-0.6,7.8-3.3,16.6-10.4,20.9c-8.1,4.8-17.5-5.7-21.7-11.1c-3.3-4.3-10.3-2.2-10,3.5c0.8,17.3-21.7,15.5-33.1,12.4c-6.5-1.8-11.3-6.2-11.5-12.9c-0.2-6.8,1-13.7-0.3-20.4c-2.4-12.2-4.7-24.5-5.6-37c-0.5-6.2-0.6-12.5,0.7-18.6c0.4-1.8,1.3-3.9,2-4.8c0.3-0.4,0.5-0.5,0.8-0.6c-0.3,0.1,0.3,0,0.7-0.1c0.1,0,1.2,0.1,1.2,0.1c2.2,0.4,4-0.5,5.1-1.8c7.9-0.5,16.4,3.3,22.3,8.1c3.3,2.7,8,1.1,9-3.1c3.2-13.1,20.3-8.4,29.9-1.4c-0.7,3.2,1.3,7.3,5.6,7.3h0.3C279.1,184.8,288.4,204.9,286.7,225.3z M323.7,388.9c-2.4,9-3.8,18.3-3.1,27.6c0.5,7.3,3.7,13.9,7.2,20.1c5.5,9.9,14,20.7,24.6,26.1c-8.3,8.9-21.7,12-33,15.4c-11.1,3.3-22.7,7.3-30.3,15.9c-13.4-18.9-28-40.8-23.1-64.4c4.7-22.8,22-41.6,33.5-61.2c5-8.5,9-17.4,10.6-27.2c1.6-9.4,1.6-19.2,0.9-28.7c-1-14-4.1-29.1-11.1-41.6c4,2.9,8.1,5.7,12.1,8.5c-0.2,1.2,0.1,2.5,1.1,3.8c4.5,5.9,9.6,11.1,13.9,17.2c5.4,7.6,7.2,17.1,8.1,26.2C337.1,348,329.2,368.7,323.7,388.9z M444.8,321.4c-5.3,6-15.7,6.1-22.9,5.1c-11.2-1.6-21.8-8.1-31.6-13.5c-11.5-6.3-22.6-13.3-34.2-19.5c-22.7-12.3-43.4-26.8-64.3-41.7c36,3.9,72.9,3.3,107.5,15.2c17.1,5.9,33.3,15.3,43,31C446.6,304.6,450.8,314.5,444.8,321.4z M482.5,273c-2.1,16.8-10.5,37.8-24.9,48.2c2-6,1.2-12.9-0.8-19c-5.8-17.6-21.8-30.9-37.8-39c-38.3-19.6-83.1-17.8-124.9-22.3c0.6-1.3,1.1-2.7,1.6-4.1c4.3-13,1.8-27.6-1.6-40.5c-3.3-12.3-8.2-24.1-12.5-36.1c19.6-7.1,33.3-22.6,47.7-37.6c15.8-16.4,35.6-31.5,56.5-40.6c10.2-4.5,21.4-7.3,32.5-5c11.5,2.4,19.5,12.2,25.5,21.6c12.6,19.8,17.3,46.7,15.3,69.8c-0.8,9.2-1.1,18.4,0.3,27.5c1.5,9.4,5.4,17.6,9.9,25.9C478.1,237.9,484.8,254.2,482.5,273z"></path><path d="M401.9 140.6c-1.6-10.7-12.8-14.4-22.2-14.8-12.7-.5-24 9.3-33.7 16.2-12.9 9.1-25.5 18.5-40.7 23.5-6.7 2.2-3.1 12.6 3.6 10.4 22-7.1 39-23 58.4-34.8 5.9-3.6 11.9-5.7 18.7-3.3 2.2.8 4.7 2.1 5 4.6.1.5.1 1 0 1.5 0 .3-.9 2.3-.5 1.9-1.6 1.9-4.4 1.1-1.8 2.8-5.8-3.9-13.1 4.3-7.3 8.3 4.7 3.2 10 1.8 14.5-1.3C400.8 152.3 402.7 146.3 401.9 140.6zM417 195.1c-2.7-4.6-7.9-5.7-12.9-5.9-7.1-.2-6.2 10.7.8 11 5.7.2.1 5.4-2.5 6.6-8 3.5-19.2 1.2-27.4-.5-20-4.3-38.8-14.1-59.4-15.4-7-.5-9.2 10.3-2.1 10.8 27.1 1.8 51.2 17.6 78.6 17.7 10 0 20-2.7 24.8-12.1C418.9 203.4 419.1 198.7 417 195.1zM164.2 168.2c-9.8-.3-20.2-6.6-27.3-12.9-6.4-5.6-10.7-13.6-15.8-20.4-5.2-6.8-11-12.9-19.3-15.7-3.3-1.1-9.2-1.5-11.7 1.4-4.1 4.7-4.3 11.7-4.4 17.6 0 3.2 3.1 5.1 5.9 5.1h6c7 0 6.2-10.7-.6-11 .2-.9.4-1.7.7-2.5 4.6.7 8.2 4.2 11.3 7.7 4.9 5.6 8.9 12 13.4 17.9 9.9 13 26.1 23.3 42.7 23.8C172.1 179.4 171.2 168.4 164.2 168.2z"></path></svg>