<svg xmlns="http://www.w3.org/2000/svg" x="0px" y="0px"
width="48" height="48"
viewBox="0 0 48 48"
style=" fill:#000000;"><path fill="#a37b57" d="M18.784,5.194C18.286,4.67,17.923,4.39,17.356,3.94C17.102,3.738,16.821,3.547,16.5,3.5 s-0.691,0.093-0.814,0.393c-0.125,0.307,0.036,0.651,0.208,0.934c0.924,1.527,2.132,2.551,3.71,3.385l1.35-0.634 C20.327,6.92,19.411,5.853,18.784,5.194z"></path><path fill="#a37b57" d="M32.413,4.104c-0.091-0.264-0.374-0.426-0.653-0.445s-0.551,0.083-0.8,0.208 c-0.54,0.273-1.009,0.665-1.461,1.067c-0.794,0.706-1.5,1.814-2.219,2.596l1.247,1.552c0.985-1.076,2.161-2.908,3.282-3.84 C32.163,4.949,32.562,4.538,32.413,4.104z"></path><path fill="#513620" d="M26.522,7.077c-1.44-0.684-3.22-0.708-4.681-0.062c-1.461,0.645-2.649,2.169-2.997,3.643 l9.684-0.162C28.371,9.42,27.558,7.569,26.522,7.077z"></path><path fill="#f58420" d="M17.345,16.149c-1.653,0.026-3.62,0.204-4.771,1.425c-1.216,1.29-1.133,3.331-0.971,5.121 c0.175,1.919,0.349,3.838,0.524,5.757c0.258,2.834,0.534,5.738,1.737,8.302c0.444,0.947,1.007,1.828,1.568,2.707 c0.652,1.02,1.318,2.055,2.226,2.842c0.629,0.545,1.359,0.956,2.116,1.288c3.324,1.457,7.51,1.249,10.192-1.244 c0.73-0.679,1.325-1.496,1.872-2.337c4.101-6.307,5.606-14.343,4.077-21.768c-0.093-0.451-0.199-0.907-0.432-1.301 c-0.599-1.012-1.768-1.486-2.916-1.404c-1.149,0.082-2.253,0.496-3.397,0.625c-1.458,0.165-2.921-0.136-4.379-0.296 C22.397,15.603,19.751,16.111,17.345,16.149z"></path><path fill="#a37b57" d="M13.648,17.129c0.058-4.694,5.542-7.443,10.27-7.607c1.611-0.056,3.272,0.236,4.633,1.092 c1.134,0.712,1.996,1.767,2.899,2.753c0.516,0.564,1.058,1.117,1.435,1.781c0.377,0.664,0.575,1.467,0.35,2.195 c-0.378,1.221-1.742,1.807-2.953,2.241c-1.315,0.471-2.63,0.942-3.945,1.414c-0.778,0.279-1.582,0.562-2.409,0.518 c-0.677-0.036-1.321-0.289-1.95-0.539c-1.779-0.706-3.558-1.413-5.337-2.119C15.602,18.447,13.634,18.238,13.648,17.129z"></path><path fill="#010101" d="M43.334,34.558c-0.208-0.519-0.405-1.009-0.542-1.632c-0.108-0.501-0.231-1.068-0.502-1.585 c-0.249-0.481-0.593-0.867-0.982-1.287c-1.379-1.481-2.843-2.917-4.352-4.272c0.093-1.646,0.054-3.301-0.127-4.947 c2.116-0.654,4.083-1.316,6.332-2.135c0.139-0.051,0.248-0.159,0.299-0.298c0.621-1.695,0.563-3.382,0.508-5.013 c-0.03-0.911-0.063-1.854,0.022-2.798c0.024-0.275-0.178-0.519-0.453-0.543c-0.278-0.019-0.519,0.177-0.543,0.453 c-0.091,1.006-0.058,1.98-0.025,2.922c0.052,1.529,0.102,2.978-0.373,4.418c-2.082,0.754-3.931,1.376-5.896,1.987 c-0.082-0.565-0.175-1.128-0.29-1.689c-0.11-0.48-0.23-1-0.5-1.45c-0.524-0.887-1.442-1.462-2.51-1.615 c-0.03-0.058-0.048-0.117-0.081-0.175c-0.363-0.639-0.854-1.17-1.327-1.684l-0.577-0.633c-0.725-0.806-1.481-1.63-2.412-2.259 c-0.043-0.254-0.114-0.534-0.212-0.829c0.036-0.023,0.075-0.042,0.106-0.075c0.389-0.425,0.792-0.945,1.221-1.497 c0.668-0.862,1.359-1.754,2.013-2.297c0.257-0.214,1.038-0.865,0.756-1.684C32.739,3.509,32.3,3.194,31.792,3.16 c-0.431-0.028-0.809,0.137-1.057,0.262c-0.608,0.307-1.128,0.749-1.567,1.139C28.674,5,28.356,5.478,28.049,5.939 c-0.229,0.345-0.446,0.672-0.735,0.986c-0.019,0.021-0.027,0.047-0.042,0.069c-0.171-0.149-0.347-0.28-0.534-0.369 c-1.562-0.742-3.516-0.769-5.099-0.068c-0.2,0.088-0.395,0.192-0.586,0.309c-0.01-0.013-0.015-0.03-0.027-0.042l-1.88-1.975 c-0.495-0.521-0.869-0.817-1.388-1.229l-0.092-0.072c-0.293-0.232-0.652-0.479-1.095-0.544c-0.583-0.08-1.148,0.208-1.35,0.7 c-0.238,0.584,0.111,1.162,0.243,1.381c0.893,1.475,2.105,2.588,3.792,3.501c-0.368,0.528-0.649,1.107-0.823,1.706 c-2.784,1.262-4.92,3.409-5.235,6.201c-0.359,0.198-0.7,0.427-0.99,0.737c-0.796,0.844-1.092,1.946-1.169,3.099 c-1.91-0.59-3.566-1.282-5.478-2.091c-0.077-0.033-0.195-0.083-0.226-0.119c-0.04-0.047-0.064-0.215-0.077-0.306 c-0.167-1.137-0.407-2.214-0.639-3.255c-0.229-1.026-0.465-2.089-0.626-3.193c-0.041-0.274-0.302-0.461-0.567-0.423 c-0.273,0.04-0.463,0.294-0.423,0.567c0.167,1.142,0.408,2.222,0.641,3.267c0.228,1.023,0.463,2.081,0.624,3.181 c0.031,0.216,0.078,0.543,0.307,0.812c0.185,0.216,0.422,0.316,0.628,0.403c1.999,0.846,3.739,1.578,5.817,2.201 c0.013,0.461,0.047,0.921,0.089,1.367l0.32,3.549c-0.04,0.013-0.081,0.022-0.119,0.046c-1.799,1.156-3.582,2.375-5.3,3.622 c-0.352,0.257-0.751,0.548-1.079,0.926c-0.431,0.495-0.7,1.089-0.938,1.612c-0.229,0.502-0.368,0.997-0.502,1.475 c-0.129,0.461-0.251,0.896-0.447,1.327c-0.114,0.251-0.003,0.548,0.248,0.662c0.067,0.03,0.138,0.045,0.207,0.045 c0.189,0,0.371-0.108,0.455-0.293c0.229-0.501,0.366-0.994,0.5-1.471c0.13-0.462,0.252-0.898,0.449-1.331 c0.22-0.484,0.447-0.985,0.782-1.37c0.255-0.292,0.59-0.537,0.914-0.773c1.599-1.161,3.256-2.292,4.929-3.375l0.1,1.109 c0.184,1.998,0.388,4.196,0.981,6.283c-0.286,0.231-0.575,0.457-0.869,0.679c-0.826,0.621-1.68,1.263-2.347,2.111 c-0.675,0.86-1.096,1.85-1.503,2.807c-0.344,0.808-0.624,1.664-0.895,2.492c-0.265,0.808-0.538,1.643-0.864,2.412 c-0.108,0.254,0.011,0.548,0.265,0.655c0.063,0.027,0.13,0.04,0.195,0.04c0.194,0,0.379-0.114,0.46-0.305 c0.344-0.808,0.624-1.664,0.895-2.492c0.265-0.808,0.538-1.643,0.864-2.412c0.382-0.896,0.776-1.824,1.37-2.58 c0.585-0.745,1.351-1.32,2.16-1.929c0.202-0.152,0.396-0.31,0.595-0.464c0.141,0.394,0.295,0.783,0.472,1.163 c0.46,0.99,1.04,1.89,1.6,2.77c0.63,0.99,1.35,2.11,2.32,2.95c0.6,0.52,1.34,0.97,2.24,1.37c1.47,0.64,3.01,0.95,4.5,0.95 c2.37,0,4.62-0.78,6.24-2.29c0.83-0.77,1.48-1.7,1.95-2.43c0.689-1.06,1.298-2.166,1.841-3.304 c0.992,0.532,1.769,1.136,2.759,2.163c0.141,0.145,0.252,0.265,0.313,0.39c0.063,0.129,0.093,0.303,0.135,0.561 c0.275,1.646,0.84,3.421,1.775,5.588c0.081,0.188,0.266,0.302,0.459,0.302c0.066,0,0.134-0.013,0.198-0.041 c0.254-0.109,0.37-0.403,0.261-0.657c-0.902-2.091-1.445-3.793-1.719-5.427c-0.039-0.237-0.083-0.507-0.213-0.768 c-0.135-0.275-0.341-0.487-0.49-0.642c-1.074-1.115-1.954-1.791-3.062-2.379c1.244-2.854,2.034-5.901,2.342-9.005 c1.283,1.18,2.536,2.405,3.717,3.675c0.34,0.364,0.636,0.696,0.828,1.068c0.209,0.397,0.312,0.873,0.412,1.334 c0.153,0.707,0.376,1.26,0.592,1.794c0.208,0.519,0.405,1.009,0.542,1.633c0.051,0.234,0.258,0.394,0.488,0.394 c0.035,0,0.07-0.004,0.106-0.012c0.27-0.059,0.44-0.325,0.382-0.595C43.772,35.645,43.55,35.092,43.334,34.558z M28.05,7.602 c0.342-0.372,0.591-0.746,0.832-1.108c0.284-0.428,0.553-0.832,0.95-1.185c0.41-0.364,0.853-0.741,1.354-0.994 c0.228-0.115,0.392-0.168,0.541-0.156c0.109,0.007,0.199,0.068,0.213,0.109c0.01,0.028,0.033,0.188-0.449,0.591 c-0.736,0.612-1.462,1.548-2.164,2.452c-0.337,0.434-0.653,0.832-0.955,1.183c-0.139-0.275-0.293-0.542-0.466-0.787 C27.958,7.68,28.008,7.647,28.05,7.602z M19.837,7.77c-1.604-0.848-2.688-1.835-3.516-3.201c-0.2-0.331-0.188-0.45-0.173-0.485 c0.021-0.049,0.145-0.109,0.279-0.088c0.207,0.03,0.42,0.18,0.618,0.337l0.092,0.073c0.505,0.399,0.838,0.663,1.284,1.134 l1.835,1.928c-0.126,0.111-0.248,0.226-0.365,0.348C19.873,7.8,19.859,7.781,19.837,7.77z M22.043,7.472 c1.324-0.586,2.96-0.563,4.265,0.057c0.614,0.292,1.174,1.26,1.487,2.14c-1.133-0.471-2.458-0.693-3.894-0.646 c-1.425,0.049-2.863,0.32-4.207,0.775C20.201,8.788,21.076,7.899,22.043,7.472z M18.971,11.137c0.04-0.01,0.076-0.027,0.111-0.046 c1.497-0.636,3.185-1.01,4.853-1.068c0.113-0.004,0.232-0.007,0.355-0.007c1.154,0,2.681,0.196,3.994,1.022 c0.904,0.567,1.624,1.367,2.387,2.215l0.585,0.643c0.456,0.494,0.887,0.96,1.193,1.499c0.355,0.626,0.467,1.283,0.307,1.802 c-0.297,0.959-1.446,1.488-2.645,1.918l-3.945,1.413c-0.724,0.26-1.474,0.519-2.213,0.49c-0.604-0.032-1.208-0.272-1.792-0.505 l-5.338-2.119c-0.266-0.105-0.588-0.199-0.925-0.296c-0.782-0.225-1.757-0.504-1.751-0.963 C14.182,14.413,16.241,12.328,18.971,11.137z M17.99,41.92c-0.87-0.74-1.51-1.75-2.14-2.73c-0.54-0.85-1.1-1.73-1.53-2.65 c-1.18-2.51-1.44-5.37-1.7-8.13l-0.52-5.76c-0.15-1.7-0.23-3.6,0.84-4.73c0.095-0.104,0.201-0.195,0.31-0.282 c0.324,0.824,1.44,1.153,2.374,1.421c0.302,0.087,0.593,0.169,0.831,0.264l5.338,2.119c0.492,0.195,1.038,0.407,1.62,0.511 c-0.021,1.806-0.15,3.541-0.287,5.213c-0.149,1.83-0.304,3.723-0.305,5.733c-0.002,3.638,0.003,7.395,0.657,11.066 c-1.172-0.072-2.365-0.335-3.509-0.836C19.16,42.78,18.51,42.38,17.99,41.92z M31.42,39.74c-0.44,0.67-1.04,1.54-1.8,2.24 c-1.335,1.244-3.168,1.908-5.126,1.994c-0.673-3.641-0.675-7.417-0.673-11.073c0.001-1.97,0.153-3.842,0.302-5.652 c0.137-1.682,0.273-3.422,0.296-5.252c0.747-0.06,1.452-0.3,2.086-0.527l3.945-1.413c1.441-0.518,2.835-1.186,3.262-2.564 c0.127-0.41,0.146-0.854,0.071-1.309c0.543,0.192,0.993,0.545,1.267,1.018c0.2,0.32,0.29,0.72,0.38,1.14 C36.92,25.59,35.42,33.58,31.42,39.74z"></path></svg>