<svg xmlns="http://www.w3.org/2000/svg"  viewBox="0 0 512 512" width="48px" height="48px"><path fill="#FCBF95" d="M426.9 209.3c-.2-3.8-.5-7.8-.5-11.8-2.2-.4-3.6 1.1-5 3.9-2.3 4.4-3.7 9.2-4.7 14.1-1.3 6.8-.3 13.8-.7 20.7-.3 6.4-1.5 12.7-4.1 18.5 1.7 4.1 2.8 8.2 3.1 11.9.3 3.9.1 7.7-.6 11.5 7.7-8.4 11.7-18.6 12.6-30.5C428.1 235 427.6 222 426.9 209.3zM97.5 266.6c.3-3.7 1.4-7.8 3.1-11.9-2.6-5.8-3.7-12-4.1-18.5-.4-6.9.6-13.9-.7-20.7-1-4.9-2.4-9.7-4.7-14.1-1.5-2.8-2.9-4.3-5-3.9 0 4-.2 8.1-.5 11.8-.8 12.6-1.2 25.6-.2 38.2.9 11.9 4.9 22.1 12.6 30.5C97.4 274.3 97.2 270.5 97.5 266.6z"/><path fill="#EF4754" d="M323,52c-12.2-9.3-29.2-11.7-43.4-5.8C264.4,52.5,256.3,66.8,257,83c0.7,4.3-4,7-7.5,5.8c-1.6-0.5-2.9-1.7-3.3-3.7c-3.4-9.2-7.9-18.2-13.9-26c-6.7-8.7-15.9-17-27.1-19.1c-11.1-2-22.4,4.2-30.1,11.8c-8,8-14.7,18.1-18,29c-4.1,13.8-0.5,29.1,3.8,42.4c8.7,26.8,19.3,52.9,34.4,76.7c14.4,22.7,31.6,43.3,51.1,61.6c4.3-3.9,7.5-9.7,10.7-14.1c6.2-8.5,12.3-17.1,18.7-25.5c10.5-13.7,21.8-26.9,31.8-41c14.6-20.5,28.3-43.8,32.7-69C344,91.2,341,65.8,323,52z"/><path fill="#FCBF95" d="M236.4 429.9c-7.5-11.3-16.2-22.2-25.8-31.8-1.8-1.8-1.6-4.6-.4-6.6 6.8-11.4 15.2-23.9 13.9-37.8-1.1-11.8-9.6-21.9-18.7-28.7-9.1-6.8-19.5-11.6-29.1-17.6-11.9-7.4-23.9-16.1-32.1-27.7-3.2-4.5-4.8-9.7-5.5-15.1-.8-6.1-.6-11.6-3.7-17.1-3.9-7-10.8-4.8-15.9-.5-2.6 2.2-4.7 4.8-6.4 7.7 1.7 3.2-.3 6-3 6.9-1 3.3-1.5 6.8-1.5 10.2 0 12.5 8.8 23.7 17.4 31.7 5.1 4.8 11.2 8.6 17.4 11.8 6.2 3.2.1 12-6 8.9-13.5-6.9-26.7-18.2-33.9-32-1.6 1.2-3.7 1.4-5.7-.3-9.6-8-16.7-17.4-20.2-29.5-3.5-11.8-2.8-24.7-2.7-36.9.1-9.9 1.1-19.8.9-29.7-.1-4.3-.7-8.8-2.7-12.6-.9-1.9-9-7.6-9.4-3.8-.1.5-.2 1-.4 1.5.5 1.6.8 3.3 1.1 4.8 4.3 22.3-6.8 44.5-8 66.5-.6 10.8 1.7 20 7 29.4 4.3 7.7 10 14.5 15.7 21.3.7.1 1.4.3 2 .6 3.2-3.2 7.1-5.5 11.4-6.6 6.7-1.7 8.8 8.9 2.1 10.6-5.5 1.4-11.1 8.4-10.4 14.2.8 6.8-9.7 8.9-10.6 2.1-.4-3.2 0-6.5 1-9.5-8-9.7-16.2-19.3-22.2-30.5-6.4-11.8-7.5-24.3-6.3-37.5 2.3-23.9 15.8-49.8 2.8-72.8-4.5-8-13-7.3-18.9-1.2-6.1 6.3-7.8 17.2-9 25.4-2 12.7-.5 25 1 37.7 1.7 15.1 2.5 30.3 3 45.5.4 11.2 1.2 22.3 4.4 33.1 2.4 8.3 6.4 16.1 10.9 23.4 9.4 15.1 22.1 28.1 34.3 40.9 12.1 12.8 23.2 26 34 39.9 10.3 13.4 21.9 26.5 27.2 42.7h.8c1.1 0 2 .3 2.7.7 2.1.4 4.1.9 6.1 1.1 5.2.7 10.4 1.1 15.5 1.4 10.6.6 21.3.6 31.9.3 19.4-.5 38.9-1.8 58.3-2C250.9 451.1 242.3 438.9 236.4 429.9zM492.1 197.7c-1.3-8.2-3-19.2-9-25.4-5.9-6.1-14.4-6.8-18.9 1.2-13.1 23 .4 48.9 2.8 72.8 1.3 13.2.1 25.7-6.3 37.5-6 11.1-14.2 20.7-22.2 30.5 1 3.1 1.4 6.3 1 9.5-.8 6.9-11.4 4.8-10.6-2.1.7-5.8-4.9-12.9-10.4-14.2-6.7-1.6-4.7-12.2 2.1-10.6 4.3 1.1 8.2 3.4 11.4 6.6.6-.3 1.3-.5 2-.6 5.6-6.8 11.3-13.6 15.7-21.3 5.3-9.4 7.7-18.6 7-29.4-1.3-22.1-12.3-44.3-8-66.5.3-1.5.7-3.1 1.1-4.8-.2-.4-.3-.9-.4-1.5-.4-3.8-8.4 1.9-9.4 3.8-1.9 3.9-2.6 8.3-2.7 12.6-.2 9.9.8 19.8.9 29.7.1 12.2.8 25.1-2.7 36.9-3.6 12.1-10.6 21.5-20.2 29.5-2 1.7-4.1 1.4-5.7.3-7.2 13.8-20.4 25.1-33.9 32-6.1 3.1-12.2-5.8-6-8.9 6.2-3.2 12.3-7 17.4-11.8 8.6-8.1 17.4-19.3 17.4-31.7 0-3.5-.5-6.9-1.5-10.2-2.7-.9-4.7-3.7-3-6.9-1.7-2.9-3.8-5.5-6.4-7.7-5.1-4.3-12-6.5-15.9.5-3.1 5.5-2.9 11-3.7 17.1-.7 5.5-2.3 10.6-5.5 15.1-8.2 11.6-20.1 20.3-32.1 27.7-9.6 6-20 10.8-29.1 17.6-9.1 6.8-17.5 17-18.7 28.7-1.4 13.9 7 26.5 13.9 37.8 1.2 2 1.3 4.8-.4 6.6-9.6 9.6-18.3 20.5-25.8 31.8-5.9 8.9-14.5 21.1-14.1 32.6 19.5.2 38.9 1.5 58.3 2 10.6.3 21.3.3 31.9-.3 5.2-.3 10.4-.7 15.5-1.4 2-.3 4.1-.7 6.1-1.1.7-.5 1.6-.7 2.7-.7h.8c5.3-16.2 16.9-29.4 27.2-42.7 10.8-14 21.8-27.1 34-39.9 12.2-12.8 24.9-25.8 34.3-40.9 4.5-7.3 8.5-15.1 10.9-23.4 3.2-10.8 4-21.9 4.4-33.1.5-15.2 1.3-30.4 3-45.5C492.6 222.7 494.1 210.4 492.1 197.7z"/><path fill="#010101" d="M502.1,192.5c-2.8-15.4-8.6-31.2-25.2-35.5c-10.5-2.7-17.9,3.9-22.6,12.5c-6.8-3.5-17.6-0.3-22.3,6.3c-2.3,3.2-3.7,6.9-4.5,10.8c-9.8-1.4-16.3,9.9-19.3,19.1c-2.2,6.7-2.8,13-2.7,20c0.1,5.7,0,11.4-1,16.8c-6-7.1-14.1-11.8-23-10.1c-9.4,1.8-16,11.5-17.2,20.5c-0.7,5.2-0.4,10.8-2.1,15.9c-2.2,6.6-8.3,11.8-13.3,16.4c-17.8,16.5-43.2,23-59.2,41.5c-8.2,9.5-13,21.9-11.9,34.5c1,11.8,7.3,22.6,13.3,32.7c-9.2,9.6-17.3,20.3-24.7,31.3c-3.4,5.1-7.2,11-10.2,17.3c-3-6.3-6.8-12.2-10.2-17.3c-7.4-11-15.5-21.7-24.7-31.3c6.1-10.1,12.3-20.9,13.3-32.7c1.1-12.5-3.7-25-11.9-34.5c-16-18.5-41.4-25-59.2-41.5c-4.9-4.6-11-9.8-13.3-16.4c-1.7-5.1-1.4-10.6-2.1-15.9c-1.2-9.1-7.8-18.8-17.2-20.5c-8.9-1.7-17,3-23,10.1c-1-5.4-1.1-11-1-16.8c0.1-7-0.5-13.3-2.7-20c-3-9.2-9.5-20.5-19.3-19.1c-0.8-3.9-2.2-7.5-4.5-10.8c-4.6-6.5-15.5-9.8-22.3-6.3c-4.7-8.6-12.1-15.2-22.6-12.5C19,161.3,13.2,177,10.4,192.5c-2.1,11.5-2,22.3-0.8,33.9c1.6,15.5,3.1,30.8,3.8,46.4c0.6,15.2,0.7,30.5,5.4,45.1c3.6,11.4,9.1,21.8,16,31.5c14.4,20.3,33,37,49.2,55.8c7.9,9.2,14.9,19.1,22.4,28.6c7.9,10.1,16.2,20.9,19.4,33.6c0.6,2.2,2.1,3.5,3.9,3.9c0.6,0.2,1.3,0.4,2.1,0.4c4.5,0,9.4,1.5,13.9,2c5.2,0.6,10.4,1,15.6,1.3c10,0.5,20.1,0.5,30.1,0.2c20.3-0.5,40.6-2,61-2c1.6,0,2.9-0.6,3.9-1.5c0.9,0.9,2.2,1.5,3.9,1.5c20.3,0,40.7,1.5,61,2c10,0.3,20.1,0.3,30.1-0.2c5.2-0.2,10.4-0.7,15.6-1.3c4.5-0.5,9.4-2,13.9-2c0.8,0,1.5-0.1,2.1-0.4c1.8-0.4,3.3-1.7,3.9-3.9c3.2-12.7,11.5-23.5,19.4-33.6c7.5-9.5,14.5-19.4,22.4-28.6c16.2-18.8,34.8-35.5,49.2-55.8c6.9-9.7,12.4-20.1,16-31.5c4.6-14.7,4.8-29.9,5.4-45.1c0.6-15.6,2.2-30.9,3.8-46.4C504.1,214.8,504.2,203.9,502.1,192.5z M85.7,209.3c0.2-3.8,0.5-7.8,0.5-11.8c2.2-0.4,3.6,1.1,5,3.9c2.3,4.4,3.7,9.2,4.7,14.1c1.3,6.8,0.3,13.8,0.7,20.7c0.3,6.4,1.5,12.7,4.1,18.5c-1.7,4.1-2.8,8.2-3.1,11.9c-0.3,3.9-0.1,7.7,0.6,11.5c-7.7-8.4-11.7-18.6-12.6-30.5C84.5,235,84.9,222,85.7,209.3z M192.2,464.5c-10.6,0.3-21.3,0.3-31.9-0.3c-5.2-0.3-10.4-0.7-15.5-1.4c-2-0.3-4.1-0.7-6.1-1.1c-0.7-0.5-1.6-0.7-2.7-0.7h-0.8c-5.3-16.2-16.9-29.4-27.2-42.7c-10.8-14-21.8-27.1-34-39.9c-12.2-12.8-24.9-25.8-34.3-40.9c-4.5-7.3-8.5-15.1-10.9-23.4c-3.2-10.8-4-21.9-4.4-33.1c-0.5-15.2-1.3-30.4-3-45.5c-1.5-12.7-3-25-1-37.7c1.3-8.2,3-19.2,9-25.4c5.9-6.1,14.4-6.8,18.9,1.2c13,23-0.4,48.9-2.8,72.8c-1.3,13.2-0.1,25.7,6.3,37.5c6,11.1,14.2,20.7,22.2,30.5c-1,3.1-1.4,6.3-1,9.5c0.8,6.9,11.4,4.8,10.6-2.1c-0.7-5.8,4.9-12.9,10.4-14.2c6.7-1.6,4.7-12.2-2.1-10.6c-4.3,1.1-8.2,3.4-11.4,6.6c-0.6-0.3-1.3-0.5-2-0.6c-5.6-6.8-11.3-13.6-15.7-21.3c-5.3-9.4-7.7-18.6-7-29.4c1.3-22.1,12.3-44.3,8-66.5c-0.3-1.5-0.7-3.1-1.1-4.8c0.2-0.4,0.3-0.9,0.4-1.5c0.4-3.8,8.4,1.9,9.4,3.8c1.9,3.9,2.6,8.3,2.7,12.6c0.2,9.9-0.8,19.8-0.9,29.7c-0.1,12.2-0.8,25.1,2.7,36.9c3.6,12.1,10.6,21.5,20.2,29.5c2,1.7,4.1,1.4,5.7,0.3c7.2,13.8,20.4,25.1,33.9,32c6.1,3.1,12.2-5.8,6-8.9c-6.2-3.2-12.3-7-17.4-11.8c-8.6-8.1-17.4-19.3-17.4-31.7c0-3.5,0.5-6.9,1.5-10.2c2.7-0.9,4.7-3.7,3-6.9c1.7-2.9,3.8-5.5,6.4-7.7c5.1-4.3,12-6.5,15.9,0.5c3.1,5.5,2.9,11,3.7,17.1c0.7,5.5,2.3,10.6,5.5,15.1c8.2,11.6,20.2,20.3,32.1,27.7c9.6,6,20,10.8,29.1,17.6c9.1,6.8,17.5,17,18.7,28.7c1.4,13.9-7,26.5-13.9,37.8c-1.2,2-1.3,4.8,0.4,6.6c9.6,9.6,18.3,20.5,25.8,31.8c5.9,8.9,14.5,21.1,14.1,32.6C231.1,462.7,211.7,464.1,192.2,464.5z M416.7,215.5c1-4.9,2.4-9.7,4.7-14.1c1.5-2.8,2.9-4.3,5-3.9c0,4,0.2,8.1,0.5,11.8c0.8,12.6,1.2,25.6,0.2,38.2c-0.9,11.9-4.9,22.1-12.6,30.5c0.7-3.7,0.9-7.5,0.6-11.5c-0.3-3.7-1.4-7.8-3.1-11.9c2.6-5.8,3.7-12,4.1-18.5C416.4,229.4,415.4,222.3,416.7,215.5z M491.1,235.4c-1.7,15.1-2.5,30.3-3,45.5c-0.4,11.2-1.2,22.3-4.4,33.1c-2.4,8.3-6.4,16.1-10.9,23.4c-9.4,15.1-22.1,28.1-34.3,40.9c-12.1,12.8-23.2,26-34,39.9c-10.3,13.4-21.9,26.5-27.2,42.7h-0.8c-1.1,0-2,0.3-2.7,0.7c-2.1,0.4-4.1,0.9-6.1,1.1c-5.2,0.7-10.4,1.1-15.5,1.4c-10.6,0.6-21.3,0.6-31.9,0.3c-19.4-0.5-38.9-1.8-58.3-2c-0.4-11.4,8.2-23.7,14.1-32.6c7.5-11.3,16.2-22.2,25.8-31.8c1.8-1.8,1.6-4.6,0.4-6.6c-6.8-11.4-15.2-23.9-13.9-37.8c1.1-11.8,9.6-21.9,18.7-28.7c9.1-6.8,19.5-11.6,29.1-17.6c11.9-7.4,23.9-16.1,32.1-27.7c3.2-4.5,4.8-9.7,5.5-15.1c0.8-6.1,0.6-11.6,3.7-17.1c3.9-7,10.8-4.8,15.9-0.5c2.6,2.2,4.7,4.8,6.4,7.7c-1.7,3.2,0.3,6,3,6.9c1,3.3,1.5,6.8,1.5,10.2c0,12.5-8.8,23.7-17.4,31.7c-5.1,4.8-11.2,8.6-17.4,11.8c-6.2,3.2-0.1,12,6,8.9c13.5-6.9,26.7-18.2,33.9-32c1.6,1.2,3.7,1.4,5.7-0.3c9.6-8,16.7-17.4,20.2-29.5c3.5-11.8,2.8-24.7,2.7-36.9c-0.1-9.9-1.1-19.8-0.9-29.7c0.1-4.3,0.7-8.8,2.7-12.6c0.9-1.9,9-7.6,9.4-3.8c0.1,0.5,0.2,1,0.4,1.5c-0.5,1.6-0.8,3.3-1.1,4.8c-4.3,22.3,6.8,44.5,8,66.5c0.6,10.8-1.7,20-7,29.4c-4.3,7.7-10,14.5-15.7,21.3c-0.7,0.1-1.4,0.3-2,0.6c-3.2-3.2-7.1-5.5-11.4-6.6c-6.7-1.7-8.8,8.9-2.1,10.6c5.5,1.4,11.1,8.4,10.4,14.2c-0.8,6.8,9.7,8.9,10.6,2.1c0.4-3.2,0-6.5-1-9.5c8-9.7,16.2-19.3,22.2-30.5c6.4-11.8,7.5-24.3,6.3-37.5c-2.3-23.9-15.8-49.8-2.8-72.8c4.5-8,13-7.3,18.9-1.2c6.1,6.3,7.8,17.2,9,25.4C494.1,210.4,492.6,222.7,491.1,235.4z"/><path fill="#010101" d="M350.7,77.9c-4.1-19.1-16.7-35.7-35.3-42.4c-15.6-5.6-33-4.2-47.2,4.3c-9.6,5.7-16,14.4-19.4,24.5c-8-14.5-19.4-27.4-34.9-33.1c-23.3-8.5-45.4,7.8-57.6,26.6c-6.5,10-11.3,21.3-11.7,33.4c-0.5,14.6,3.6,28.8,8.3,42.5c9.1,26.4,20.1,51.7,35.2,75.3c14.2,22.2,31.6,42.5,50.8,60.6c-0.2,3.6,2.8,7.3,7,5.4c10.9-4.9,17-16.5,23.7-25.8c9-12.7,18.6-25,28.1-37.2c15.3-19.7,30.5-39.1,41.4-61.8C349.9,127.6,356,102.6,350.7,77.9z M340.4,112.1c-4.4,25.2-18,48.4-32.7,69c-10,14.1-21.3,27.3-31.8,41c-6.4,8.4-12.4,17-18.7,25.5c-3.2,4.4-6.4,10.2-10.7,14.1c-19.5-18.4-36.7-39-51.1-61.6c-15.1-23.8-25.8-49.9-34.4-76.7c-4.3-13.3-8-28.6-3.8-42.4c3.3-10.9,10-21,18-29c7.6-7.6,19-13.8,30.1-11.8c11.2,2,20.3,10.3,27.1,19.1c6,7.8,10.5,16.7,13.9,26c0.4,2,1.7,3.2,3.3,3.7c3.5,1.2,8.2-1.5,7.5-5.8c-0.7-16.2,7.3-30.5,22.6-36.8c14.2-5.9,31.3-3.5,43.4,5.8C341,65.8,344,91.2,340.4,112.1z"/></svg>