<svg xmlns="http://www.w3.org/2000/svg" x="0px" y="0px"
width="60" height="60"
viewBox="0 0 48 48"
style=" fill:#000000;"><path fill="#fcbf95" d="M43.797,24.385c0.031,3.785-0.323,7.714-0.251,11.498c0.024,1.263,0.066,2.554-0.317,3.758 c-0.383,1.204-1.284,2.326-2.518,2.598c-0.339,0.075-0.688,0.083-1.035,0.092c-8.461,0.202-16.626-0.011-25.088,0.192 c-1.577,0.038-3.172,0.074-4.711-0.273s-3.039-0.706-3.946-1.996c-1.075-1.53-1.253-4.039-1.116-5.903 c0.065-0.886,0.036-2.263,0.129-3.147c0.243-2.301-0.506-4.581-0.712-6.886c-0.309-3.457,0.608-6.931,0.347-10.392 c-0.144-1.905-0.566-4.08,0.689-5.52c0.767-0.88,2.147-1.353,3.31-1.459c2.748-0.221,4.666-0.459,7.423-0.452 c0.746,0.002,1.551,0.032,2.138,0.492c0.955,0.748,0.922,2.297,1.842,3.087c0.536,0.46,1.284,0.562,1.988,0.623 c5.629,0.488,12.271-0.431,17.906-0.839c0.441-0.032,0.889-0.06,1.322,0.029c1.431,0.297,2.312,1.811,2.493,3.262 s-0.149,2.911-0.201,4.372c-0.036,1.011-0.235,2.021-0.139,3.028C43.471,21.775,43.787,23.151,43.797,24.385z"></path><path fill="#010101" d="M44.297,24.381c-0.007-0.799-0.133-1.64-0.256-2.453c-0.04-0.267-0.069-0.521-0.104-0.781 c-0.027-0.324-0.007-0.645,0.021-0.984c0.039-0.468,0.079-0.952-0.028-1.464c-0.005-0.022-0.015-0.04-0.019-0.062 c0.034-0.366,0.068-0.732,0.081-1.099c0.019-0.503,0.07-1.006,0.122-1.509c0.099-0.957,0.201-1.947,0.076-2.943 c-0.197-1.579-1.167-3.332-2.888-3.688c-0.514-0.106-1.038-0.07-1.46-0.04c-1.367,0.1-2.794,0.229-4.251,0.36 c-4.599,0.416-9.355,0.848-13.576,0.48c-0.628-0.054-1.278-0.138-1.706-0.505c-0.356-0.306-0.55-0.802-0.755-1.327 c-0.239-0.612-0.51-1.308-1.104-1.773c-0.7-0.548-1.592-0.597-2.445-0.599c-2.201-0.024-3.839,0.141-5.765,0.31 C9.701,6.352,9.14,6.4,8.535,6.449C7.368,6.555,5.799,7.038,4.893,8.078c-1.226,1.406-1.042,3.371-0.879,5.105 c0.024,0.263,0.049,0.523,0.068,0.78c0.125,1.654-0.031,3.361-0.182,5.013c-0.059,0.651-0.114,1.311-0.158,1.975 c-0.004,0.039-0.01,0.073-0.014,0.113c-0.001,0.012,0.004,0.023,0.004,0.034c-0.068,1.082-0.095,2.174,0.002,3.262 c0.075,0.839,0.22,1.678,0.361,2.488c0.258,1.484,0.501,2.887,0.352,4.302c-0.055,0.515-0.068,1.175-0.082,1.813 c-0.011,0.488-0.021,0.966-0.049,1.35c-0.09,1.229-0.154,4.296,1.205,6.228c1.036,1.474,2.741,1.857,4.245,2.196 c1.11,0.251,2.238,0.31,3.353,0.31c0.497,0,0.992-0.012,1.481-0.023c4.229-0.102,8.455-0.095,12.546-0.097 c4.085,0.006,8.31,0.006,12.541-0.096c0.347-0.008,0.741-0.017,1.131-0.104c1.549-0.341,2.507-1.739,2.887-2.935 c0.393-1.236,0.368-2.525,0.344-3.773l-0.003-0.146c-0.038-1.976,0.043-4.031,0.121-6.02 C44.238,28.051,44.312,26.187,44.297,24.381z M5.647,8.734C6.359,7.918,7.696,7.529,8.62,7.445C9.223,7.397,9.786,7.348,10.327,7.3 c1.868-0.164,3.486-0.306,5.562-0.306c0.038,0,0.076,0,0.113,0c0.708,0.002,1.38,0.033,1.831,0.386 c0.379,0.297,0.579,0.809,0.79,1.35c0.241,0.617,0.489,1.255,1.036,1.724c0.653,0.56,1.515,0.676,2.271,0.741 c4.31,0.377,9.11-0.06,13.752-0.48c1.451-0.132,2.871-0.26,4.232-0.358c0.379-0.028,0.807-0.057,1.186,0.021 c1.23,0.256,1.951,1.647,2.099,2.834c0.11,0.884,0.019,1.774-0.078,2.718c-0.035,0.342-0.057,0.685-0.083,1.028 c-0.224-0.237-0.469-0.447-0.752-0.588c-0.62-0.309-1.328-0.344-1.845-0.368c-5.133-0.247-10.346,0.01-15.385,0.256 c-4.636,0.229-9.43,0.461-14.135,0.304l-0.173-0.006c-1.512-0.054-3.077-0.105-4.513,0.524c-0.496,0.217-0.896,0.479-1.231,0.79 c0.108-1.313,0.178-2.649,0.077-3.98c-0.02-0.262-0.045-0.528-0.07-0.798C4.858,11.481,4.703,9.817,5.647,8.734z M43.168,29.814 c-0.079,2.003-0.161,4.073-0.122,6.078l0.003,0.146c0.022,1.166,0.046,2.372-0.297,3.451c-0.371,1.168-1.214,2.055-2.149,2.261 c-0.295,0.065-0.622,0.073-0.938,0.08c-4.22,0.101-8.44,0.1-12.517,0.096c-4.092,0.001-8.329-0.005-12.57,0.097 c-1.526,0.038-3.104,0.074-4.59-0.261c-1.393-0.314-2.833-0.639-3.646-1.797c-1.207-1.715-1.091-4.703-1.026-5.578 c0.029-0.399,0.041-0.896,0.051-1.402c0.013-0.617,0.027-1.256,0.077-1.729c0.164-1.555-0.103-3.092-0.361-4.578 c-0.137-0.791-0.279-1.608-0.35-2.406c-0.095-1.063-0.064-2.148,0.007-3.227c0.179-1.925,0.832-2.586,1.896-3.052 c1.228-0.538,2.677-0.491,4.077-0.44l0.174,0.006c4.745,0.158,9.56-0.077,14.218-0.305c5.015-0.246,10.204-0.499,15.288-0.257 c0.556,0.027,1.048,0.066,1.446,0.265c0.496,0.248,0.879,0.797,1.062,1.476c-0.055,0.606-0.105,1.226-0.044,1.858 c0.02,0.212,0.058,0.439,0.088,0.658c0.003,0.034,0,0.065,0.004,0.099c0.002,0.019,0.012,0.035,0.016,0.053 c0.031,0.224,0.055,0.442,0.089,0.67c0.118,0.779,0.239,1.585,0.245,2.313C43.312,26.171,43.239,28.023,43.168,29.814z"></path><path fill="#ef4823" d="M24.589,37.523c-3.379-2.14-7.252-5.036-8.475-8.845c-0.277-0.864-0.419-1.81-0.143-2.674 c0.209-0.653,0.643-1.214,1.148-1.678c1.103-1.015,2.637-1.62,4.118-1.392c1.481,0.228,2.836,1.389,3.077,2.868 c0.69-2.287,3.386-3.417,5.772-3.297c0.94,0.047,1.932,0.271,2.59,0.943c0.36,0.368,0.593,0.845,0.733,1.34 c0.497,1.748-0.128,3.654-1.179,5.136c-1.051,1.482-2.493,2.632-3.859,3.829S25.34,35.868,24.589,37.523z"></path><path fill="#010101" d="M24.589,38.022c-0.094,0-0.187-0.026-0.268-0.077c-3.365-2.131-7.392-5.092-8.683-9.115 c-0.37-1.15-0.417-2.126-0.143-2.979c0.214-0.668,0.646-1.305,1.286-1.893c1.292-1.189,2.987-1.757,4.533-1.519 c1.303,0.2,2.446,1.009,3.06,2.077c1.187-1.783,3.617-2.636,5.737-2.511c1.293,0.064,2.276,0.432,2.923,1.093 c0.388,0.396,0.676,0.918,0.857,1.553c0.49,1.723,0.033,3.75-1.252,5.562c-0.936,1.319-2.164,2.381-3.351,3.406l-0.586,0.51 c-0.364,0.318-0.748,0.618-1.131,0.917c-1.039,0.809-2.021,1.572-2.525,2.684c-0.06,0.131-0.173,0.23-0.312,0.272 C24.686,38.016,24.637,38.022,24.589,38.022z M20.604,23.386c-1.091,0-2.232,0.468-3.145,1.309c-0.51,0.469-0.85,0.961-1.011,1.461 c-0.207,0.648-0.161,1.424,0.143,2.37c1.137,3.543,4.689,6.269,7.81,8.283c0.637-1.06,1.609-1.816,2.554-2.552 c0.368-0.287,0.737-0.574,1.086-0.88l0.592-0.514c1.142-0.987,2.323-2.009,3.189-3.229c1.109-1.563,1.513-3.28,1.106-4.71 c-0.135-0.472-0.34-0.852-0.609-1.127c-0.465-0.475-1.225-0.742-2.258-0.794c-2.147-0.108-4.642,0.869-5.268,2.942 c-0.067,0.223-0.29,0.377-0.512,0.354c-0.232-0.016-0.423-0.189-0.46-0.419c-0.194-1.196-1.337-2.251-2.659-2.454 C20.978,23.399,20.792,23.386,20.604,23.386z"></path></svg>