<svg xmlns="http://www.w3.org/2000/svg" x="0px" y="0px"
width="60" height="60"
viewBox="0 0 48 48"
style=" fill:#000000;"><path fill="#fcbf95" d="M44.152,21.28c-0.01-0.725-0.048-1.479-0.257-2.163c-0.121-1.992-0.241-5.609-0.362-6.603 c-0.071-0.585-0.157-1.206-0.533-1.659c-0.611-0.736-1.715-0.749-2.671-0.7c-5.098,0.26-10.69,0.137-15.789,0.396 c-1.033,0.053-2.087,0.103-3.085-0.172c-0.997-0.275-1.907-1.284-2.253-2.259c-0.092-0.259-0.141-0.538-0.287-0.772 c-0.332-0.531-1.04-0.662-1.665-0.69c-2.04-0.091-4.073,0.373-6.114,0.312C9.929,6.933,8.718,6.713,7.519,6.867 C6.321,7.022,5.081,7.659,4.657,8.791c-0.205,0.547-0.237,1.493-0.228,2.076c0.036,2.38,0.178,8.831,0.223,11.217 c0,0.01,0.01,0.015,0.011,0.024c0.008,4.854,0.108,9.355,0.028,14.132c-0.021,1.289,0.002,2.708,0.85,3.679 c0.592,0.678,1.481,1.005,2.342,1.266c2.724,0.825,5.57,1.246,8.416,1.244c2.438-0.002,4.768-0.619,7.206-0.544 c2.464,0.076,4.902,0.543,7.365,0.641c3.556,0.141,7.092-0.492,10.594-1.121c0.49-0.088,1-0.184,1.4-0.482 c0.767-0.57,0.878-1.656,0.919-2.611C44.041,32.203,44.234,27.394,44.152,21.28z"></path><path fill="#010101" d="M44.652,21.273c-0.011-0.808-0.049-1.595-0.267-2.311c-0.045-0.744-0.085-1.689-0.125-2.632 c-0.04-0.83-0.08-1.65-0.12-2.33c-0.03-0.68-0.07-1.24-0.11-1.55c-0.07-0.59-0.16-1.34-0.65-1.91c-0.72-0.88-1.9-0.95-3.08-0.88 c-2.54,0.12-5.25,0.16-7.87,0.19c-2.63,0.04-5.36,0.07-7.91,0.2c-0.99,0.05-2,0.1-2.93-0.15c-0.78-0.22-1.6-1.05-1.92-1.95 c-0.02-0.07-0.04-0.15-0.06-0.22c-0.07-0.2-0.13-0.43-0.27-0.65c-0.53-0.85-1.69-0.91-2.07-0.92c-1.08-0.05-2.16,0.05-3.21,0.15 c-0.95,0.09-1.94,0.19-2.91,0.16c-0.39-0.01-0.78-0.04-1.17-0.08C9.16,6.33,8.31,6.26,7.46,6.37C6.22,6.53,4.72,7.2,4.19,8.62 c-0.25,0.65-0.27,1.69-0.26,2.26c0.02,1.51,0.09,4.66,0.14,7.37l0.06,2.72l0.03-0.048c-0.005,2.135,0.011,4.198,0.03,6.227 c0.027,3.083,0.053,5.994,0.002,9.083c-0.024,1.441,0.031,2.938,0.973,4.017c0.665,0.761,1.63,1.13,2.574,1.416 c2.771,0.84,5.645,1.266,8.54,1.266c1.158-0.02,2.354-0.142,3.48-0.279c1.275-0.155,2.479-0.306,3.729-0.265 c1.248,0.038,2.521,0.182,3.75,0.321c1.179,0.133,2.397,0.271,3.611,0.319c0.347,0.014,0.692,0.02,1.039,0.02 c3.275,0,6.518-0.583,9.663-1.148c0.494-0.09,1.109-0.201,1.608-0.572c1.024-0.762,1.087-2.212,1.121-2.991 C44.564,31.667,44.73,27.191,44.652,21.273z M5.068,18.13c-0.05-2.687-0.118-5.778-0.138-7.27c-0.01-0.64,0.03-1.47,0.19-1.89 c0.38-1,1.52-1.48,2.46-1.61c0.29-0.03,0.57-0.05,0.86-0.05c0.47,0,0.96,0.04,1.46,0.08c0.41,0.03,0.82,0.07,1.22,0.08 c1.03,0.03,2.05-0.07,3.04-0.16c1.01-0.1,2.06-0.19,3.07-0.15c0.68,0.03,1.09,0.18,1.26,0.45c0.07,0.1,0.11,0.25,0.16,0.41 c0.02,0.09,0.05,0.18,0.08,0.27c0.43,1.21,1.5,2.27,2.59,2.57c1.09,0.3,2.23,0.24,3.25,0.19c2.54-0.13,5.25-0.16,7.87-0.2 c2.63-0.03,5.36-0.07,7.91-0.2c0.91-0.04,1.82-0.01,2.27,0.52c0.27,0.33,0.34,0.81,0.42,1.4c0.07,0.6,0.14,2.23,0.22,3.81 c0.013,0.315,0.026,0.623,0.04,0.926c-1.044-0.868-2.51-1.062-3.601-1.117c-1.408-0.071-2.829-0.017-4.205,0.036 c-1.259,0.05-2.563,0.101-3.832,0.05c-1.105-0.042-2.233-0.161-3.323-0.277c-0.748-0.079-1.497-0.158-2.247-0.216 c-5.288-0.397-10.587,0.313-15.715,1.005c-0.685,0.091-1.762,0.129-2.803,0.166C6.571,16.988,5.688,17.439,5.068,18.13z M43.281,38.291c-0.036,0.849-0.124,1.791-0.717,2.231c-0.312,0.231-0.759,0.313-1.19,0.391c-3.424,0.616-6.962,1.257-10.485,1.113 c-1.177-0.046-2.377-0.182-3.537-0.313c-1.251-0.142-2.544-0.287-3.832-0.327c-0.145-0.004-0.287-0.006-0.431-0.006 c-1.177,0-2.331,0.141-3.451,0.277c-1.091,0.134-2.22,0.272-3.339,0.272c-0.007,0-0.014,0-0.02,0c-2.798,0-5.574-0.411-8.252-1.223 c-0.746-0.226-1.586-0.518-2.109-1.117c-0.709-0.812-0.748-2.043-0.727-3.342c0.051-3.102,0.025-6.02-0.002-9.108 c-0.02-2.168-0.039-4.366-0.03-6.661C5.164,19.11,6.24,18,7.609,17.952c1.065-0.038,2.167-0.077,2.9-0.176 c5.078-0.683,10.327-1.392,15.506-0.997c0.74,0.056,1.479,0.134,2.218,0.213c1.106,0.117,2.251,0.238,3.39,0.282 c1.311,0.049,2.632-0.001,3.91-0.051c1.352-0.052,2.751-0.106,4.115-0.037c1.747,0.091,2.83,0.501,3.407,1.292 c0.526,0.721,0.582,1.698,0.597,2.809C43.73,27.179,43.564,31.642,43.281,38.291z"></path></svg>