<svg xmlns="http://www.w3.org/2000/svg" xmlns:xlink="http://www.w3.org/1999/xlink" viewBox="0,0,256,256" width="48px" height="48px" fill-rule="nonzero"><g fill="none" fill-rule="nonzero" stroke="none" stroke-width="1" stroke-linecap="butt" stroke-linejoin="miter" stroke-miterlimit="10" stroke-dasharray="" stroke-dashoffset="0" font-family="none" font-weight="none" font-size="none" text-anchor="none" style="mix-blend-mode: normal"><g transform="scale(5.33333,5.33333)"><path d="M12.89,41.314c0.498,0.965 1.083,1.793 1.924,2.481c1.514,1.239 3.601,1.448 5.555,1.546c3.352,0.168 6.713,0.161 10.064,-0.021c0.617,-0.033 1.245,-0.075 1.82,-0.3c1.326,-0.518 1.996,-1.68 2.663,-2.938z" fill="#bcbcbc"></path><path d="M14.64,4.499c0,0 -0.545,2.344 -1.495,3.376c-0.95,1.031 -1.881,1.827 -1.742,5.375c0.139,3.548 0.812,12.665 0.766,14.499c-0.046,1.834 -0.534,12.439 -0.534,12.439c0,0 1.689,2.292 7.529,2.7c5.84,0.408 11.614,0.6 14.115,-0.315c2.501,-0.915 2.715,-1.006 2.844,-2.27c0.129,-1.265 0.2,-24.135 0.2,-24.135c0,0 0.289,-4.46 -1.465,-8.022c-0.867,-2.11 -1.058,-3.069 -1.01,-3.576c-1.76,0.696 -5.128,1.51 -9.488,1.251c-4.36,-0.259 -9.72,-1.322 -9.72,-1.322z" fill="#b24b4b"></path><path d="M11.708,19.125c0,0 8.333,1.96 14.833,1.605c6.5,-0.355 7.958,-0.682 9.542,-1.977c0.192,3.913 0.37,10.962 0.37,10.962c0,0 -3.578,2.671 -11.516,2.259c-6.527,0.195 -7.094,0.275 -12.656,-0.709c0.032,-4.015 -0.573,-12.14 -0.573,-12.14z" fill="#841e1e"></path><path d="M23.229,2.479c-3.405,0.271 -5.203,0.246 -8.526,1.038c-0.215,0.051 -0.459,0.13 -0.54,0.335c-0.146,0.372 0.356,0.649 0.747,0.733c4.005,0.853 8.104,1.268 12.199,1.235c2.212,-0.018 4.481,-0.18 6.492,-1.1c0.374,-0.171 0.793,-0.602 0.529,-0.917c-1.964,-0.368 -3.935,-0.697 -5.911,-0.987c-1.939,-0.285 -3.036,-0.492 -4.99,-0.337z" fill="#bcbcbc"></path><path d="M23.461,16.074c-2.249,4.097 -4.11,6.56 -7.121,10.134c3.05,0.903 5.937,0.723 9.067,1.292c-1.486,4.073 -1.844,5.576 -3.047,9.742c4.009,-4.263 6.688,-7.264 9.91,-12.15c0.087,-0.131 0.169,-0.318 0.058,-0.43c-0.038,-0.038 -0.091,-0.056 -0.141,-0.073c-2.567,-0.852 -5.208,-1.48 -7.883,-1.874c-0.363,-3.333 1.223,-6.552 1.611,-9.882c-1.162,0.824 -1.846,2.024 -2.454,3.241z" fill="#febf10"></path><path d="M36.808,29.823c0.016,-0.073 0.017,-0.148 -0.001,-0.222l-0.009,-2.612c-0.016,-4.084 -0.03,-8.169 -0.083,-12.252c-0.022,-1.786 -0.048,-3.81 -0.83,-5.646c-0.17,-0.402 -0.375,-0.789 -0.581,-1.175c-0.227,-0.426 -0.44,-0.827 -0.606,-1.25c-0.196,-0.5 -0.467,-1.454 -0.077,-2.228c0.025,-0.049 0.034,-0.102 0.042,-0.154c0.008,-0.025 0.024,-0.046 0.03,-0.072c0.06,-0.265 -0.003,-0.524 -0.178,-0.732c-0.074,-0.089 -0.177,-0.148 -0.291,-0.17c-1.96,-0.367 -3.955,-0.701 -5.931,-0.991l-0.496,-0.073c-1.668,-0.248 -2.77,-0.414 -4.606,-0.266c-0.703,0.056 -1.338,0.099 -1.932,0.139c-2.319,0.158 -3.995,0.272 -6.672,0.91c-0.21,0.051 -0.703,0.17 -0.889,0.641c-0.093,0.237 -0.077,0.491 0.044,0.717c0.055,0.102 0.132,0.192 0.219,0.271c-0.079,1.058 -0.484,2.085 -1.19,2.885c-0.12,0.136 -0.247,0.267 -0.375,0.396c-0.345,0.353 -0.702,0.718 -0.943,1.2c-0.245,0.491 -0.324,1.023 -0.38,1.483c-0.36,2.976 -0.068,5.99 0.215,8.905c0.126,1.303 0.257,2.648 0.326,3.967c0.111,2.113 0.067,4.255 0.01,6.071c-0.107,3.397 -0.272,6.994 -0.492,10.69c-0.009,0.146 0.047,0.289 0.153,0.391c0.356,0.341 0.75,0.625 1.158,0.884c0.002,0.003 0.001,0.007 0.003,0.01c0.585,1.134 1.237,1.973 2.052,2.639c1.64,1.343 3.877,1.561 5.847,1.658c1.61,0.081 3.23,0.121 4.851,0.121c1.76,0 3.52,-0.048 5.266,-0.143c0.711,-0.038 1.351,-0.09 1.975,-0.333c1.564,-0.61 2.317,-2.029 2.923,-3.169c0.005,-0.01 0.005,-0.02 0.009,-0.03c0.362,-0.214 0.711,-0.46 0.995,-0.793c0.057,-0.065 0.095,-0.145 0.111,-0.229c0.342,-1.766 0.364,-3.63 0.357,-5.388zM23.386,31.604c-3.642,0.468 -9.197,-0.182 -10.798,-1.011c0.011,-0.33 0.025,-0.667 0.035,-0.994c0.058,-1.837 0.102,-4.005 -0.012,-6.155c-0.066,-1.251 -0.186,-2.515 -0.305,-3.747c2.575,0.805 4.666,1.264 7.382,1.264c0.049,0 0.103,-0.003 0.153,-0.003c-1.128,1.59 -2.353,3.11 -3.886,4.928c-0.108,0.129 -0.145,0.305 -0.096,0.466c0.048,0.162 0.175,0.288 0.337,0.336c1.862,0.551 3.688,0.711 5.452,0.865c1.004,0.088 2.036,0.179 3.082,0.341c-0.533,1.48 -0.914,2.623 -1.254,3.715c-0.029,-0.002 -0.059,-0.01 -0.09,-0.005zM23.417,35.365c0.776,-2.724 1.245,-4.368 2.459,-7.693c0.051,-0.139 0.037,-0.293 -0.036,-0.421c-0.073,-0.128 -0.199,-0.217 -0.344,-0.243c-1.292,-0.234 -2.546,-0.345 -3.76,-0.451c-1.541,-0.135 -3.009,-0.264 -4.511,-0.628c2.758,-3.303 4.528,-5.707 6.674,-9.614c0.003,-0.005 0.006,-0.011 0.009,-0.017c0.358,-0.719 0.75,-1.453 1.274,-2.093c-0.157,0.77 -0.354,1.537 -0.548,2.289c-0.522,2.028 -1.063,4.126 -0.829,6.274c0.024,0.227 0.199,0.408 0.424,0.441c2.566,0.378 5.116,0.978 7.534,1.739c-1.723,2.602 -3.302,4.671 -4.969,6.643c-0.027,0.024 -0.047,0.053 -0.069,0.083c-1.049,1.238 -2.135,2.439 -3.315,3.71zM32.686,25.368c0.391,-0.588 0.095,-0.96 -0.005,-1.06c-0.118,-0.118 -0.255,-0.166 -0.338,-0.194c-2.464,-0.817 -5.011,-1.435 -7.576,-1.835c-0.022,-0.353 -0.007,-0.704 0.01,-1.056c0.671,-0.028 1.344,-0.041 2.016,-0.049c1.323,-0.016 2.69,-0.031 4.039,-0.203c1.695,-0.217 3.435,-0.451 4.927,-1.471c0.018,2.497 0.03,4.994 0.04,7.492l0.009,2.471c-0.077,0.051 -0.146,0.094 -0.301,0.189c-2.196,1.353 -4.833,1.675 -7.274,1.772c1.473,-1.793 2.903,-3.707 4.453,-6.056zM21.326,3.118c0.597,-0.041 1.235,-0.084 1.943,-0.141c1.725,-0.137 2.724,0.011 4.379,0.259l0.499,0.074c1.786,0.262 3.589,0.56 5.366,0.886c-0.037,0.025 -0.077,0.049 -0.12,0.068c-0.68,0.312 -1.393,0.528 -2.12,0.683c-0.054,-0.041 -0.12,-0.073 -0.206,-0.088c-4.474,-0.756 -8.642,-1.535 -13.147,-0.514c-0.155,0.035 -0.255,0.121 -0.309,0.228c-0.869,-0.142 -1.737,-0.295 -2.597,-0.478c-0.01,-0.002 -0.017,-0.007 -0.028,-0.009c-0.001,-0.037 0.001,-0.074 -0.001,-0.112c0,-0.003 -0.002,-0.005 -0.002,-0.009c2.497,-0.582 4.122,-0.696 6.343,-0.847zM27.688,5.31c-0.195,0.004 -0.39,0.008 -0.583,0.01c-2.22,0.013 -4.441,-0.114 -6.65,-0.359c2.442,-0.242 4.816,-0.02 7.233,0.349zM12.064,10.744c0.046,-0.377 0.109,-0.81 0.282,-1.157c0.171,-0.341 0.459,-0.636 0.764,-0.947c0.14,-0.143 0.279,-0.285 0.41,-0.434c0.768,-0.871 1.26,-1.964 1.418,-3.107c3.848,0.81 7.786,1.222 11.717,1.222c0.152,0 0.306,-0.001 0.458,-0.002c2.086,-0.017 4.284,-0.161 6.317,-0.991c-0.004,0.536 0.104,1.112 0.336,1.704c0.188,0.477 0.426,0.923 0.655,1.354c0.192,0.36 0.385,0.721 0.544,1.097c0.704,1.654 0.729,3.573 0.75,5.267c0.015,1.163 0.022,2.325 0.032,3.488c-1.39,1.264 -3.164,1.502 -5.042,1.742c-1.291,0.165 -2.629,0.181 -3.924,0.195c-0.638,0.007 -1.275,0.023 -1.912,0.047c0.15,-1.142 0.428,-2.291 0.734,-3.478c0.322,-1.252 0.655,-2.545 0.809,-3.854c0.022,-0.196 -0.072,-0.387 -0.242,-0.488c-0.17,-0.099 -0.384,-0.09 -0.544,0.022c-1.283,0.911 -2.019,2.241 -2.607,3.417c-0.854,1.556 -1.65,2.869 -2.474,4.099c-3.173,0.11 -5.401,-0.383 -8.339,-1.324c-0.25,-2.605 -0.455,-5.276 -0.142,-7.872zM32.071,44.554c-0.486,0.189 -1.042,0.232 -1.666,0.267c-3.317,0.18 -6.687,0.187 -10.012,0.021c-1.893,-0.095 -3.858,-0.283 -5.264,-1.434c-0.365,-0.298 -0.687,-0.633 -0.985,-1.023c1.704,0.641 3.605,0.876 5.365,1.037c2.34,0.213 4.651,0.394 6.923,0.394c2.37,0 4.696,-0.196 6.967,-0.758c0.136,-0.034 0.293,-0.082 0.444,-0.125c-0.472,0.736 -0.995,1.318 -1.772,1.621zM35.517,40.938c-0.629,0.66 -1.639,0.971 -2.357,1.148c-4.297,1.062 -8.864,0.767 -13.56,0.339c-2.604,-0.237 -5.53,-0.635 -7.457,-2.346c0.17,-2.884 0.306,-5.702 0.408,-8.416c1.678,0.662 5.012,1.097 8.026,1.097c0.919,0 1.792,-0.049 2.592,-0.135c-0.229,0.77 -0.454,1.557 -0.713,2.465l-0.576,2.013c-0.064,0.222 0.032,0.459 0.233,0.573c0.077,0.044 0.162,0.065 0.247,0.065c0.135,0 0.268,-0.054 0.364,-0.157c1.717,-1.827 3.216,-3.451 4.649,-5.134c2.73,-0.063 5.809,-0.298 8.438,-1.829l0.019,5.258c0.007,1.733 -0.013,3.424 -0.313,5.059z" fill="#010101"></path></g></g></svg>