<svg xmlns="http://www.w3.org/2000/svg" x="0px" y="0px"
width="48" height="48"
viewBox="0 0 512 512"
style=" fill:#000000;"><path fill="none" d="M255.7,495.3c-1.7-5-3.8-10-5.1-15.1c-4.5,0.3-9.1,0.8-13.6,1c-2.6,0.1-5.6,0.4-8.6,0.1c0,0.2,0.1,0.5,0.1,0.7c0.5,6.4-1.4,12-3.6,17.5C235.1,497.9,245.3,496,255.7,495.3z"></path><path fill="#3AB37C" d="M255.7,495.3c-1.7-5-3.8-10-5.1-15.1c-4.5,0.3-9.1,0.8-13.6,1c-2.6,0.1-5.6,0.4-8.6,0.1c0,0.2,0.1,0.5,0.1,0.7c0.5,6.4-1.4,12-3.6,17.5C235.1,497.9,245.3,496,255.7,495.3z"></path><path fill="#FEBF10" d="M261.1 40.8c-.8-3.2-1.6-6.4-3-9.4-.3-.6-1.4-2.3-1.3-2.1-.2-.2-.4-.4-.5-.5-.1 0-.2-.1-.4-.1-.4 2.1-1.1 4.2-2.1 6.2-1.3 2.7-4.7 3.8-7.4 2.5-2.7-1.3-3.8-4.7-2.5-7.4.2-.5.5-1 .6-1.5.1-.2.3-1 .3-1 .1-.2.1-.4.2-.7-2.2.5-4.2-.5-5.5-2.2-.8-.5-1.4-1.3-1.9-2.4-.1-.2-.2-.4-.3-.7 0 .1 0 .1 0 .2 1 8.2 3 16.4 3.8 24.6.1 1.4.2 2.8.2 4.2 1.9-.4 3.8-1 5.8-1.6 4.8-1.7 9.6-3.6 14.3-5.4C261.5 42.7 261.3 41.7 261.1 40.8zM264.4 64.1c-.3-3.1-.6-6.2-1-9.3-1 .4-2 .8-3 1.2-6.3 2.4-12.5 4.8-19.1 6.2-.1 0-.2 0-.2 0-.8 7.8-2.2 15.7-2.5 23.5.8 0 1.6 0 2.3-.1 8.1-.3 16.8-1.2 25-3.5C265.4 76.1 265 70.1 264.4 64.1zM257.5 72c0 1.5-.3 2.9-1.4 4.1-.9 1.1-2.3 1.7-3.7 1.9-2.8.2-5.9-2.1-5.9-5.1v-4c0-1.5.3-2.9 1.4-4.1.9-1.1 2.3-1.7 3.7-1.9 2.8-.2 5.9 2.1 5.9 5.1V72zM226.6 186.7c-9-.6-18.3-1.9-27-4.7 0 12.4.2 24.9.4 37.3 7.4 2.3 15.3 3.6 23.3 3.7 1.2 0 2.3 0 3.5 0C226.7 211 226.6 198.8 226.6 186.7zM220.4 208.5c-.3 1.4-1.1 2.7-2.3 3.5-1.2.8-2.7 1.1-4.1.8-1.3-.2-2.9-1.1-3.5-2.3-.1-.2-.3-.5-.4-.7-1-.2-1.9-.5-2.7-1.2-1.1-.9-1.7-2.3-1.9-3.7-.2-2.8 2.1-6 5.1-5.9 2.4 0 4.5.5 6.4 2 1.1.9 2 2.1 2.6 3.4C220.3 205.8 220.7 206.9 220.4 208.5zM267.6 136.4c-.5.1-1 .2-1.5.2-9.3 1.2-18.7 1.5-28.1 1.4-.2 12.7-.4 25.4-.4 38.1 9.4 0 18.8-.7 28.1-2.2 1.2-.2 2.3-.4 3.5-.6C268.4 161 267.8 148.7 267.6 136.4zM254.4 162.9c-.2 0-.4 0-.5 0-.2.4-.4.8-.7 1.1-1.8 2.1-5.7 2.7-7.8.5-1.6-1.8-2.8-3.8-2.3-6.3.3-1.8 1.5-3.6 3.1-4.5 2.3-1.2 4.8-1.8 7.4-1.9 3 0 5.7 1.9 5.9 5.1C259.7 159.9 257.4 162.9 254.4 162.9zM266.5 93.4c-9.1 2.3-18.6 3.2-27.4 3.2-.2 0-.4 0-.7 0-.1 10.1-.2 20.3-.4 30.4 8.6 0 17.2-.1 25.8-1.2 1.2-.2 2.4-.3 3.6-.5C267.4 114.6 267.1 104 266.5 93.4zM261.1 113.1c-.8.8-1.6 1.6-2.4 2.5-.1.1-.3.4-.4.6-.1.2-.3.5-.4.7-1.4 2.7-4.7 3.8-7.4 2.5-2.7-1.3-3.8-4.7-2.5-7.4 1.2-2.4 2.9-4.3 4.8-6.2 2.1-2.1 5.4-2.6 7.8-.5C262.8 107.2 263.3 111 261.1 113.1zM226.8 137.9c-7.9-.2-16.9-.9-25.2-3-1 12-1.6 24-1.9 36 8.6 3.1 18.3 4.4 26.8 5 0-2.4 0-4.7 0-7.1C226.5 158.4 226.6 148.1 226.8 137.9zM222.1 154.1c-.9.9-1.7 1.7-2.5 2.7 0 .1-.1.1-.1.1-.1.1-.1.2-.2.4 0 0 0 .1 0 .1-.5 2.4-2.1 4.4-4.9 4.6-2.7.2-6.1-2.1-5.9-5.1.1-2.6.8-4.6 2.4-6.7.9-1.2 1.9-2.3 3-3.3 2.1-2.1 5.4-2.6 7.8-.5C223.8 148.2 224.3 152 222.1 154.1zM226.8 234.2c-2.3 0-4.6-.1-6.9-.3-6.8-.6-13.5-1.7-19.8-3.3.1 7.3.2 14.7.3 22 0 4.8-.1 9.6-.2 14.3 6 1.7 12 2.8 17.6 3.4 3.1.4 6.2.6 9.3.8C227 258.8 226.9 246.5 226.8 234.2zM219.8 255.7c-2.8 1-6.1-.5-7-3.4-.2-.5-.3-.9-.5-1.4-1.1-.1-2-.5-2.9-1.3-1.1-.9-1.7-2.3-1.9-3.7-.2-2.8 2.1-6 5.1-5.9 2.7.1 5.4.6 7.3 2.7 1.6 1.7 2.6 3.7 3.3 5.9C224.1 251.5 222.7 254.7 219.8 255.7zM228.5 381.9c0 .2 0 .4-.1.7-1.2-1.7-1.3-3.4-.7-4.9-4-.1-7.9-.2-11.8.4 2.6 3.7 5.7 6.9 9.6 9.1 1.6-.6 3.5-.4 5.1 1.2.1.1.1.1.2.2.3-.7.7-1.4 1-2.1C230.2 385.8 228.8 384.3 228.5 381.9zM228.4 364.1c-.2-10.3-.3-20.5-.4-30.8-11.3.6-22-1.5-30.9-7.8 2.3 7.9 4.6 15.8 7 23.6.2-.5.5-.9.8-1.3 1.9-2.1 5.7-2.7 7.8-.5.8.8 1.5 1.7 2.2 2.6.2.2.5.4.7.7 2.6 1.4 3.7 4.6 2.4 7.3-1.3 2.6-4.7 3.9-7.4 2.5-1.6-.9-2.8-1.9-4-3.3 1.2 3.5 2.4 7.3 4 10.8 5.9-1.2 11.9-.7 17.9-.6C228.4 366.3 228.4 365.2 228.4 364.1zM270 184.3c-.7.1-1.5.3-2.2.4-10 1.6-20.1 2.4-30.3 2.4.1 11.9.2 23.7.3 35.6 11.7-.8 23.7-2.9 34.7-6.9C271.7 205.3 270.8 194.8 270 184.3zM261.1 215c-2.3 1.6-6.2 1.1-7.6-1.5 0-.1-.1-.2-.1-.2-.1-.1-.3-.1-.4-.2-.2 0-.3-.1-.5-.1-.5-.1-1.9-.1.1-.1-3-.1-5.7-1.9-5.9-5.1-.2-2.8 2.1-6 5.1-5.9 4.1.1 8.9 1.6 11 5.4C264 210 263.7 213.2 261.1 215zM304 169.9c-1.1 1.1-2.3 2.2-3.5 3.1.2 0 .4 0 .6.1 1.3.2 2.4 1 3.3 2C304.2 173.3 304.1 171.6 304 169.9zM284.2 222.8c.7 8.7 1.6 17.3 2.6 25.9 2.7-11 5.7-22 9.9-32.5C292.8 218.8 288.6 221 284.2 222.8zM297.8 149.8c-.7-.1-1.4-.5-2-.9-1.3-.1-2.4-.4-3.4-1.3-1.1-.9-1.7-2.3-1.9-3.7-.1-1.5.4-3 1.4-4.1.9-1 2.3-1.9 3.7-1.9 1 0 2.1 0 3.1.3.1 0 .2.1.3.1.3-.8.6-1.6 1-2.3 1.5-3.2 2.6-5.8 1-9.2-.5-1-1.1-2-1.6-2.9-5.8 5.2-13.1 8.3-20.7 10.3.2 12.2.8 24.4 1.6 36.6 7.4-2.2 14.3-5.8 18.6-12 .6-.9 1.3-1.4 2-1.7-.3-.5-.5-1.1-.8-1.6C299.2 153.7 298.3 151.8 297.8 149.8zM270.5 33.5c.6 2.1 1.1 4.2 1.6 6.4.2-.1.5-.1.7-.2.5-.3 1.1-.5 1.7-.6.1-.3.3-.7.5-1.1C277.4 34.3 273.5 33.9 270.5 33.5zM304.5 190.9c0-2.9 0-5.7 0-8.6-1.1 3.1-2.7 5.8-4.6 8.6-1.7 2.5-4.4 3.9-7.4 2.5-2.4-1.2-4.1-4.9-2.5-7.4 1.8-2.7 3.7-5.7 4.5-8.6.1-.3.2-.6.3-.8-4.3 2.3-9.1 4.1-13.9 5.4.7 9.8 1.5 19.5 2.3 29.3 2.6-1.3 5.2-2.8 7.6-4.4 3.7-2.4 7.4.1 8.3 3.3 2.1-4.8 4.5-9.5 7.3-14 .2-.3.4-.6.6-.9C305.6 194.6 304.5 193.1 304.5 190.9zM276.1 252.3c-1.3-8.5-2-17-2.6-25.6-4.5 1.4-9.2 2.6-13.8 3.6-7.1 1.5-14.4 2.7-21.7 3.4.1 12.6.2 25.2.3 37.8 5.2 0 10.4-.1 15.4-.5 6.2-.4 11.9-1.5 17.7-3.8 2.1-.9 4.2-1.7 6.3-2.5C277.3 260.6 276.8 256.5 276.1 252.3zM267.1 252.1l-6 6c-2.1 2.1-5.4 2.6-7.8.5-2.1-1.9-2.6-5.6-.5-7.8l6-6c2.1-2.1 5.4-2.6 7.8-.5C268.8 246.2 269.3 250 267.1 252.1zM291.9 60.9c-.4-.6-.7-1.1-1.1-1.6-1.4 2.4-4.6 3.3-7.2 2.1-2.7-1.3-3.8-4.7-2.5-7.4.2-.5.5-1 .7-1.6 0-.1.1-.2.1-.2 0 0 0-.1 0-.1-1.2-.7-2.3-1.4-3.4-2.2-1.4 0-2.9.4-4.5.9.3 2.1.5 4.3.8 6.4.8 6.9 1.4 13.8 1.9 20.8 1.4-.7 2.8-1.5 4.2-2.3.4-2.2 1.9-4.3 4.7-4.7 1.9-.3 3.5-.1 4.7.6.4-.9.9-1.8 1.3-2.8C292.7 66.4 293.4 63.4 291.9 60.9zM258 327.8c-6.3 1.6-12.6 3.2-19 4.3.2 11.5.3 22.9.4 34.3.3-.1.5-.1.8-.2 1.1-.3 2.2-.2 3.1 0 1.4-2.3 2.9-4.7 4.3-7 6.7-10.8 12.8-21.9 17.7-33.5C262.8 326.5 260.4 327.2 258 327.8zM277 276.8c-2.6 1.1-5.2 2.2-7.8 2.9-6.5 1.8-13.3 2.4-20 2.5-3.6 0-7.1.1-10.7.1 0 .3 0 .7 0 1 .1 12.6.2 25.1.4 37.7 7.4-1.4 14.6-3.3 21.8-5.1 3-.7 6.2-1.7 9.4-2.5 3.5-10 6.3-20.3 8.8-30.6C277.4 281.3 276.4 279.1 277 276.8zM265.4 305.9c-2.7.2-5.5-1.8-5.9-4.6l0 0c-2.7-1.4-3.8-4.7-2.5-7.4 1.3-2.7 4.7-3.8 7.4-2.5 3.3 1.7 6 4.6 6 8.5C270.5 303 268.5 305.7 265.4 305.9zM298.4 99.2c-.1.1-.2.3-.3.4 0 .1-.1.2-.1.3-.3.4-.5.8-.8 1.2-.9 1.1-2.3 1.7-3.7 1.9-1.5.1-3-.4-4.1-1.4-1-.8-1.9-2.4-1.9-3.7.1-1.6.1-1.7.6-3.2.2-.5.5-.9.8-1.3 0-.1.1-.2.1-.3.3-.4.5-.8.8-1.2.4-.5 1-.9 1.5-1.2-1.6-1.9-2.9-4-3.5-6.4-3.3 2.2-6.8 4-10.5 5.5.6 11 1 22 1 33.1 5.9-1.8 11.4-4.5 15.4-9.1.4-.5.9-.8 1.3-1.1 0-.2 0-.3 0-.5C295.6 108.2 299 103.2 298.4 99.2zM172.8 266.7c5.4 9 10.1 18.5 13.9 28.2.3.7.5 1.4.8 2 .4-7.5 1-14.9 1.3-22.4C183.2 272.5 177.8 269.9 172.8 266.7zM189.1 226.8c-8.2-3.4-15.9-8-22.6-14 0 1.2-.1 2.3-.3 3.5-.5 3.1-1.7 6.3-1.9 9.4-.2 2.3 0 4.7-.1 7-.1 3.6-.4 7.1-1.6 10.4 1.1.3 2.2 1 3 2.2 5.7 8.1 14.3 13.8 23.8 17.7.1-3.9.2-7.8.1-11.7C189.4 243.2 189.2 235 189.1 226.8zM178.1 240.1c-.9 1-2.3 1.9-3.7 1.9-.7 0-1.4 0-2.1-.1-1.1-.2-2-.7-2.8-1.4-1.3-1.1-2-2.9-2-4.6 0-1.5.3-2.9 1.4-4.1.9-1.1 2.3-1.7 3.7-1.9 1.5-.1 3 .4 4.1 1.4.3.2.5.5.7.8.1.1.2.1.3.2 1.1.9 1.7 2.3 1.9 3.7C179.6 237.5 179.1 239 178.1 240.1zM188.6 179.7c0-.7 0-1.3 0-2-6.6-3.4-12.4-7.8-16.8-13.8-.6 3.8-1.6 7.5-2.9 11.1.2 0 .4 0 .6-.1 3-.1 5.7 2 5.9 5.1 0 .1 0 .2 0 .3.5.8.9 1.6 1 2.7.1 1.5-.4 3-1.4 4.1-1.9 2.1-5.6 2.6-7.8.5-1-1-1.9-2-2.7-3.1-1.2 2.4-2.2 4.9-2.8 7.6 0 .1 0 .2-.1.3 1 .3 2 1 2.8 2.1 6.5 8.9 14.9 15.8 24.3 20.5C188.7 203.2 188.6 191.4 188.6 179.7zM192.8 85.8c-1.5 5.4-5.1 9.9-7.7 15.5-.8 1.6-1.1 3.4-1.3 5.2 1.1.6 2 1.6 2.4 3.1 1.1 3.8 3.2 6.7 6 9 1.1-10.3 2.4-20.6 4-30.8C195 87.2 193.9 86.5 192.8 85.8zM183 125.3c-.9 2.6-2.4 5-4.5 7.3-.1.1-.2.3-.3.4h2.4c1.5 0 2.9.3 4.1 1.4 1.1.9 1.7 2.3 1.9 3.7.1 1.5-.4 3-1.4 4.1-.9 1-2.3 1.9-3.7 1.9h-3c-1.5 0-2.9-.3-4.1-1.4-.3-.3-.5-.5-.8-.9-.1.3-.1.6-.2.8 1 .8 1.8 1.9 2.1 3.5 1.7 8.8 6.8 15.1 13.4 19.5.4-11.6 1-23.2 2.1-34.7C188 129.4 185.3 127.5 183 125.3z"></path><path fill="#3AB37C" d="M352.1 305.6c-2.7-15.6-7-30.8-10.6-46.1-3.1-13.5-6.6-27.5-6.2-41.5.6-20 7.4-38.1 18.6-53.9-11 4.7-20.6 13.8-27.8 23-8.7 11-15.5 23.2-20.5 36.3-5.1 13.4-7.9 27.5-11.2 41.4-3.5 14.8-6.7 29.7-11.3 44.1-.4 1.2-.7 2.3-1.1 3.5 4.9 2 4.8 10.5-1.4 10.5-.8 0-1.6 0-2.4.1-3.5 9.2-7.5 18.3-12.3 26.9-6.7 12-14.5 23.2-21.1 35.2-13.7 25.2-19.1 54.5-18.4 83 0 .1.1.1.1.2.4.5.6 1 .8 1.6 1.6.5 3.9.6 6.2.5.9-24.4 17.3-41.7 34.2-57.6 16.5-15.5 35-32.5 34.8-56.9 0-7 10.9-8 11-.8v3c0 .4 0 .8-.1 1.2-1.4 23.7-16.6 41.2-33.4 57.1-12.8 12.1-28 25.1-33.5 42.2 3.2-5.2 7.3-9.8 12.5-13.6 8.9-6.5 18.9-11.2 28-17.4 16.4-11.4 35.9-26 41.3-46.2-1.3-1.8-1.5-4.3.5-6.4.6-.8.9-1.1.9-1 2.4-6.1 11.3-4.1 10.6 2.7-2.4 24.4-23.1 42.7-41.8 56.2-9.1 6.6-18.9 11.7-28.2 17.7-6.4 4.2-11.6 8.9-15.1 15 .1 0 .1.1.2.1 14.2 8.9 31.9-1.3 44.5-8.6 22.7-13.2 40.6-36.1 48-61.4 4.2-14.3 5.9-29.2 6.4-44.1C354.7 336 354.8 320.8 352.1 305.6zM155 209.7c-2.6-4-5.2-7.1-4.9-12.2.3-4.4 1.1-8.5 2.6-12.6-4.1-10-15.7-15.6-26.3-14.4 12.2 16.7 19.8 38 19.1 58.6 0 .7-.1 1.2-.3 1.8 2.6 2.4 5 5 7.4 7.7 1.1-4.3.5-9 .8-13.5C153.6 220.9 157.4 213.4 155 209.7zM198.2 366.5c-6.5-19.1-11.3-38.8-18.1-57.9-6.2-17.5-14.5-34.3-25.3-49.4-4.6-6.4-9.6-12.7-15.2-18.4 1.2 8.9.4 18.6-.7 27.2-1.5 12.9-2.1 26.1-2.7 39.1-.6 13.6-.9 27.3.2 40.8 1.2 13.5 3.5 27 8.2 39.7 4.7 12.8 11.8 24.1 19.1 35.5 6.6 10.3 13.7 20.4 23.3 28.2 6.7 5.4 14.1 10.1 21.7 14.3-3.2-2.6-6.6-4.9-9.8-7.3-6.3-4.6-11.6-9.7-16.7-15.6-10.4-12.1-19.7-25.6-25.5-40.5-2.6-6.6 7.8-10.2 10.4-3.6 5.8 14.9 15.6 28.8 26.4 40.4 6.4 6.9 14.6 12 21.9 17.9.1-3.2.3-6.5.5-9.7-.6-.4-1.1-1-1.5-1.7-4.6-7.9-13.5-12.8-20.4-18.4-7.3-5.9-14-12.7-15.5-22.3-1.1-7 9.9-7.8 11-.8 1.3 7.9 9.9 13.5 15.8 17.9 4.2 3.2 8.8 6.4 12.6 10.2.5-3 1-6 1.7-9-1.4.2-2.8-.2-4.2-1.6-9.5-10.3-22.2-17.3-28.6-30.3-3.1-6.4 7.3-9.9 10.4-3.6 5.1 10.5 16.9 16.7 24.8 25 1.2-4.6 2.6-9 4.3-13.4C211.9 394 203 380.6 198.2 366.5z"></path><path fill="#FEBF10" d="M190.5 56c0 .5 0 1 0 1.6.4.2.8.5 1.1.8 1 1.1 2.1 2.3 2.4 3.8.2 1 .4 1.9.4 2.9 0 1.5-.3 2.9-1.4 4.1-.3.4-.8.7-1.2 1 .2 1 .3 2 .5 2.9 1.1.1 2.1.5 3.2 1.3.8.6 1.6 1.2 2.4 1.8.8-4.9 1.7-9.9 2.7-14.8C196.6 60.3 192.9 58.6 190.5 56zM199.5 45c-.3.5-.7 1-1.2 1.4.2.6.2 1.3.1 2 0 .1.1-.1.2 0 .6.5 1.3.9 2.3 1.3.6.3 1.3.5 2 .7.3-1.5.6-3 .9-4.6C202 46.3 200.5 45.9 199.5 45zM229.1 38.6c-.4-2.4-.8-4.9-1.3-7.3-.2.3-.3.5-.5.8.1.3.2.7.2 1 .1 1.5-.4 3-1.4 4.1-1.8 2.1-5.7 2.7-7.8.5-1.8-1.9-3.1-4.3-2.9-6.9-1.1.7-1.9 1.7-2.7 2.7 2.4.7 4.4 2.9 3.7 6.1-.9 4.2-1.8 8.3-2.7 12.5 4.6.3 9.2.3 13.8.2.9 0 1.7-.1 2.5-.1C230.1 47.7 229.8 43.2 229.1 38.6zM227.3 282c-4.8-.2-9.5-.6-14.1-1.3-4.4-.7-9-1.6-13.5-2.8-.6 11.2-1.5 22.4-1.9 33.7 7.7 9.3 18.8 11.5 30 10.8C227.6 308.9 227.4 295.5 227.3 282zM219.1 307c-2.5 1.7-5.9 1-7.6-1.5-.2-.3-.4-.6-.7-.9-.2-.2-.3-.3-.5-.4-.1 0-.2-.1-.3-.1-.1 0-.1 0-.2 0-.2 0-.4-.1-.5-.1-2.9-.1-5.5-1.9-5.7-5.1-.2-2.8 2.1-6 5.1-5.9 2.3 0 4.9.2 6.9 1.5 2.1 1.3 3.7 2.9 5.1 4.9C222.3 301.9 221.5 305.4 219.1 307zM206.6 92.3c-1.6 10.5-2.9 21.1-4 31.7 7.7 2.4 16.8 2.9 24.4 3 0-2.3.1-4.6.1-6.9.2-7.9.1-15.9.2-23.9C220.3 95.6 213.2 94.4 206.6 92.3zM221.1 109.1c-.8.8-1.6 1.6-2.4 2.5-.1.1-.3.4-.4.6-.1.2-.3.5-.4.7-1.4 2.7-4.7 3.8-7.4 2.5-2.7-1.3-3.8-4.7-2.5-7.4 1.2-2.4 2.9-4.3 4.8-6.2 2.1-2.1 5.4-2.6 7.8-.5C222.8 103.2 223.3 107 221.1 109.1zM221.1 63.2c-2.6 0-5.9-.1-9.5-.3-.4 2.2-.8 4.4-1.2 6.6.1-.2.3-.5.5-.7.9-1.1 2.3-1.7 3.7-1.9 2.8-.2 5.9 2.1 5.9 5.1 0 .4 0 .8 0 1.3.8 1.2 1.2 2.8.9 4.2-.3 1.4-1.1 2.7-2.3 3.5-1.3.9-2.6 1-4.1.8-2.2-.2-4.5-2.3-5-4.5-.2-1.1-.4-2.2-.4-3.3-.4 2.4-.9 4.9-1.3 7.3 6.1 2.2 12.8 3.4 19.3 3.9.2-4.3.5-8.5 1-12.8.4-3.2.7-6.2 1-9.3C226.7 63.3 223.9 63.3 221.1 63.2z"></path><path d="M366.9,147.9c-5.3,2.9-11.6,3.3-17,6c-6.2,3.2-12.1,6.8-17.6,11.1c-6.4,5.1-11.9,11.2-16.8,17.8c-0.1-6.4-0.3-12.9-1.2-19.3c-0.5-3.9-1.5-7.4-3.3-10.9c-1.5-2.8-3.4-5.9-2.2-9.2c1.3-3.6,3.3-6.8,4-10.6c0.7-3.6-0.4-7.6-1.9-10.8c-1.2-2.5-3-4.6-4.5-6.9c-1.3-2.1,0.8-5.9,1.6-7.8c3.1-7,1.7-13.4-3.3-18.9c-1.9-2.1-4.7-3.5-5.8-6.2c-1.4-3.1,2.6-8.2,3.7-11.1c5.6-13.9-6.7-22.8-16.9-29.5c2.4-5.5,0.3-13-4.6-16.3c-3-2-12-1.5-12.8-5.5c-1.2-6.1-4.6-10.4-11.2-10.3c-4,0.1-8,2.1-11.6,4.4c-4.3-5.7-11-9.6-18.1-5.8c-3.7,2-5.6,4.5-7.2,8.3c-1.2,2.8-8.1,3.2-10.6,4.7c-4.8,2.9-8.5,9.5-11,14.3c-0.3,0.6-0.6,1.3-0.8,2c-0.5-0.2-1-0.3-1.6-0.4c-17.7-1.6-17.2,18.5-15.5,30.8c0.9,6.6,3.4,13.1,0.2,19.4c-2.3,4.4-6,8.3-7.1,13.2c-1.6,6.8,0.3,13.6-0.6,20.4c-0.3,2.4-2.2,3.9-3.7,5.6c-2,2.2-3.7,4.5-4.9,7.2c-2.4,5.4-2.7,11.5-2.9,17.3c-0.1,5.4-0.1,10.6-1.4,15.9c-0.5,2.1-1.3,4.2-2.2,6.2c-10-12.1-28.5-17.8-42.8-10.6c-2.8,1.4-5.3,5.3-2.7,8.3c12.2,14.2,20.5,32.6,21.9,51.4c-3.5-2.4-7.1-4.6-10.9-6.4c-6.4-3-11.1,6.5-4.9,9.9c8.8,4.7,10.6,14.3,10.8,23.5c0.3,10.6-1.7,21.3-2.4,31.8c-1.8,27.1-3.9,54.5,0.1,81.5c2,13.3,5.6,26.4,11.2,38.7c5.3,11.8,12.7,22.9,19.8,33.7c6.8,10.2,14.7,19.6,24.3,27.2c9.7,7.6,21,13.7,31.9,19.5c0.8,0.9,1.9,1.5,3.3,1.7c0.5,7.7-3.7,14.2-6.4,21.1c-1.4,3.6,0.9,8.6,5.4,7.9c15.6-2.1,31.1-5.8,47-6c3.8,0,5.6-4.1,4.8-7.3c-1.6-6.5-4.7-12.6-6.5-19.1c19.4,3.3,41.8-10.5,56-21.4c21.1-16.2,35.7-40.3,42.4-65.8c3.7-14.2,4.7-29,5.2-43.7c0.5-15.5,0.1-30.6-2.5-45.9c-5-28.9-17.3-57.7-16.4-87.3c0.6-22.1,11.9-41.8,26.8-57.5c0.6-0.7,1-1.4,1.3-2.1C378.2,152.1,372.6,144.8,366.9,147.9z M304.5,190.9c0,2.2,1.1,3.7,2.6,4.4c-0.2,0.3-0.4,0.6-0.6,0.9c-2.8,4.6-5.2,9.2-7.3,14c-1-3.2-4.7-5.7-8.3-3.3c-2.4,1.6-5,3-7.6,4.4c-0.8-9.8-1.6-19.5-2.3-29.3c4.8-1.3,9.6-3,13.9-5.4c-0.1,0.3-0.2,0.5-0.3,0.8c-0.8,2.9-2.7,5.9-4.5,8.6c-1.7,2.5,0,6.2,2.5,7.4c2.9,1.5,5.7,0,7.4-2.5c1.9-2.8,3.4-5.5,4.6-8.6C304.5,185.2,304.5,188,304.5,190.9z M296.7,216.2c-4.2,10.5-7.2,21.4-9.9,32.5c-1.1-8.6-1.9-17.2-2.6-25.9C288.6,221,292.8,218.8,296.7,216.2z M304,169.9c0.2,1.7,0.3,3.5,0.4,5.2c-0.8-1-2-1.8-3.3-2c-0.2,0-0.4-0.1-0.6-0.1C301.7,172,302.9,171,304,169.9z M299.3,123.9c0.6,0.9,1.1,1.9,1.6,2.9c1.7,3.4,0.6,6-1,9.2c-0.4,0.8-0.7,1.6-1,2.3c-0.1,0-0.2-0.1-0.3-0.1c-1-0.3-2.1-0.3-3.1-0.3c-1.4,0-2.8,0.9-3.7,1.9c-1,1.1-1.5,2.6-1.4,4.1c0.1,1.4,0.8,2.8,1.9,3.7c1,0.9,2.1,1.2,3.4,1.3c0.6,0.5,1.3,0.8,2,0.9c0.5,2,1.4,3.9,2.3,5.6c0.3,0.6,0.5,1.1,0.8,1.6c-0.7,0.3-1.4,0.9-2,1.7c-4.4,6.2-11.3,9.7-18.6,12c-0.8-12.2-1.4-24.4-1.6-36.6C286.2,132.2,293.5,129,299.3,123.9z M260.7,315.8c-7.3,1.8-14.5,3.8-21.8,5.1c-0.2-12.6-0.4-25.1-0.4-37.7c0-0.3,0-0.7,0-1c3.6,0,7.2,0,10.7-0.1c6.7-0.1,13.5-0.7,20-2.5c2.7-0.7,5.3-1.8,7.8-2.9c-0.6,2.3,0.4,4.5,1.9,5.9c-2.5,10.3-5.3,20.6-8.8,30.6C266.9,314.1,263.7,315.1,260.7,315.8z M265.4,325.7c-4.9,11.7-11.1,22.8-17.7,33.5c-1.4,2.3-2.9,4.7-4.3,7c-0.9-0.3-2-0.3-3.1,0c-0.3,0.1-0.5,0.1-0.8,0.2c-0.1-11.5-0.2-22.9-0.4-34.3c6.4-1.1,12.7-2.7,19-4.3C260.4,327.2,262.8,326.5,265.4,325.7z M238.3,271.5c-0.1-12.6-0.2-25.2-0.3-37.8c7.3-0.6,14.6-1.9,21.7-3.4c4.6-1,9.3-2.2,13.8-3.6c0.7,8.6,1.3,17.1,2.6,25.6c0.6,4.1,1.2,8.2,1.6,12.4c-2.1,0.8-4.2,1.6-6.3,2.5c-5.8,2.4-11.5,3.4-17.7,3.8C248.7,271.4,243.5,271.5,238.3,271.5z M297.1,101.1c0.3-0.4,0.5-0.8,0.8-1.2c0-0.1,0.1-0.2,0.1-0.3c0.1-0.1,0.2-0.3,0.3-0.4c0.6,4-2.8,9-3.2,13.1c0,0.2,0,0.3,0,0.5c-0.5,0.3-0.9,0.6-1.3,1.1c-4,4.5-9.5,7.3-15.4,9.1c-0.1-11-0.4-22.1-1-33.1c3.7-1.5,7.2-3.4,10.5-5.5c0.6,2.4,1.9,4.5,3.5,6.4c-0.6,0.3-1.1,0.7-1.5,1.2c-0.3,0.4-0.5,0.8-0.8,1.2c0,0.1-0.1,0.2-0.1,0.3c-0.3,0.4-0.6,0.9-0.8,1.3c-0.5,1.5-0.5,1.6-0.6,3.2c-0.1,1.3,0.9,2.9,1.9,3.7c1.1,1,2.6,1.5,4.1,1.4C294.8,102.8,296.2,102.2,297.1,101.1z M281.9,52.1c0,0,0,0.1,0,0.1c0,0,0,0.1-0.1,0.2c-0.2,0.5-0.4,1-0.7,1.6c-1.3,2.7-0.2,6,2.5,7.4c2.5,1.3,5.7,0.3,7.2-2.1c0.4,0.5,0.8,1,1.1,1.6c1.6,2.5,0.8,5.5-0.3,8c-0.4,0.9-0.9,1.8-1.3,2.8c-1.2-0.7-2.8-1-4.7-0.6c-2.8,0.5-4.3,2.5-4.7,4.7c-1.4,0.8-2.8,1.6-4.2,2.3c-0.5-6.9-1.2-13.9-1.9-20.8c-0.2-2.1-0.5-4.2-0.8-6.4c1.5-0.5,3.1-0.9,4.5-0.9C279.6,50.7,280.7,51.4,281.9,52.1z M275.1,38c-0.2,0.4-0.4,0.7-0.5,1.1c-0.7,0.1-1.2,0.3-1.7,0.6c-0.2,0.1-0.5,0.1-0.7,0.2c-0.5-2.1-1-4.3-1.6-6.4C273.5,33.9,277.4,34.3,275.1,38z M272.6,215.8c-11.1,3.9-23,6-34.7,6.9c-0.1-11.9-0.2-23.7-0.3-35.6c10.1,0,20.2-0.8,30.3-2.4c0.7-0.1,1.5-0.2,2.2-0.4C270.8,194.8,271.7,205.3,272.6,215.8z M269.2,173.3c-1.2,0.2-2.4,0.4-3.5,0.6c-9.3,1.5-18.7,2.2-28.1,2.2c0-12.7,0.2-25.4,0.4-38.1c9.4,0,18.8-0.2,28.1-1.4c0.5-0.1,1-0.1,1.5-0.2C267.8,148.7,268.4,161,269.2,173.3z M267.5,125.3c-1.2,0.2-2.4,0.4-3.6,0.5c-8.5,1.1-17.2,1.2-25.8,1.2c0.2-10.1,0.3-20.3,0.4-30.4c0.2,0,0.4,0,0.7,0c8.8,0,18.3-0.9,27.4-3.2C267.1,104,267.4,114.6,267.5,125.3z M264.4,64.1c0.6,6,1.1,12,1.5,18c-8.2,2.3-16.8,3.2-25,3.5c-0.8,0-1.6,0-2.3,0.1c0.3-7.8,1.7-15.7,2.5-23.5c0.1,0,0.2,0,0.2,0c6.6-1.4,12.9-3.7,19.1-6.2c1-0.4,2-0.8,3-1.2C263.8,57.9,264.1,61,264.4,64.1z M237.8,22.3c0.5,1,1.1,1.8,1.9,2.4c1.2,1.7,3.3,2.7,5.5,2.2c-0.1,0.2-0.1,0.4-0.2,0.7c0,0-0.3,0.8-0.3,1c-0.2,0.5-0.4,1-0.6,1.5c-1.3,2.7-0.2,6,2.5,7.4c2.7,1.3,6.1,0.2,7.4-2.5c1-2,1.7-4.1,2.1-6.2c0.1,0,0.2,0.1,0.4,0.1c0.1,0.1,0.3,0.2,0.5,0.5c-0.1-0.1,1,1.6,1.3,2.1c1.4,3,2.2,6.2,3,9.4c0.2,1,0.4,1.9,0.6,2.9c-4.8,1.8-9.5,3.7-14.3,5.4c-2,0.7-3.9,1.2-5.8,1.6c0-1.4-0.1-2.8-0.2-4.2c-0.8-8.3-2.8-16.4-3.8-24.6c0-0.1,0-0.1,0-0.2C237.6,21.9,237.7,22.1,237.8,22.3z M231.9,386.4c-0.3,0.7-0.7,1.4-1,2.1c-0.1-0.1-0.1-0.1-0.2-0.2c-1.6-1.6-3.5-1.9-5.1-1.2c-3.9-2.2-7-5.4-9.6-9.1c3.9-0.6,7.8-0.5,11.8-0.4c-0.6,1.5-0.6,3.2,0.7,4.9c0-0.2,0-0.4,0.1-0.7C228.8,384.3,230.2,385.8,231.9,386.4z M215.5,350.6c-0.2-0.2-0.5-0.4-0.7-0.7c-0.7-0.9-1.4-1.8-2.2-2.6c-2.1-2.2-5.9-1.6-7.8,0.5c-0.3,0.4-0.6,0.8-0.8,1.3c-2.5-7.8-4.7-15.7-7-23.6c8.9,6.3,19.6,8.4,30.9,7.8c0.1,10.3,0.3,20.5,0.4,30.8c0,1.1,0,2.1,0,3.2c-5.9-0.1-11.9-0.6-17.9,0.6c-1.5-3.6-2.8-7.3-4-10.8c1.2,1.3,2.3,2.4,4,3.3c2.7,1.4,6.1,0.2,7.4-2.5C219.3,355.2,218.1,352,215.5,350.6z M200.1,230.5c6.3,1.7,13,2.8,19.8,3.3c2.3,0.2,4.6,0.3,6.9,0.3c0.1,12.3,0.2,24.6,0.3,36.9c-3.1-0.2-6.3-0.5-9.3-0.8c-5.7-0.7-11.7-1.8-17.6-3.4c0.2-4.8,0.3-9.5,0.2-14.3C200.4,245.2,200.3,237.9,200.1,230.5z M226.5,175.8c-8.6-0.5-18.2-1.9-26.8-5c0.3-12.1,0.9-24.1,1.9-36c8.3,2.1,17.3,2.8,25.2,3c-0.2,10.3-0.3,20.6-0.3,30.9C226.5,171.1,226.5,173.5,226.5,175.8z M226.6,186.7c0,12.1,0.1,24.2,0.2,36.3c-1.2,0-2.3,0-3.5,0c-8-0.1-15.9-1.4-23.3-3.7c-0.2-12.4-0.4-24.9-0.4-37.3C208.3,184.8,217.6,186.2,226.6,186.7z M199.7,277.9c4.5,1.2,9.1,2.1,13.5,2.8c4.7,0.7,9.4,1.1,14.1,1.3c0.1,13.5,0.3,26.9,0.5,40.4c-11.2,0.7-22.4-1.5-30-10.8C198.2,300.4,199,289.2,199.7,277.9z M215.4,30.7c-0.2,2.6,1.1,5,2.9,6.9c2,2.2,5.9,1.6,7.8-0.5c1-1.1,1.5-2.6,1.4-4.1c0-0.4-0.1-0.7-0.2-1c0.2-0.2,0.4-0.5,0.5-0.8c0.4,2.4,0.8,4.9,1.3,7.3c0.8,4.6,1,9.1,1,13.5c-0.8,0-1.7,0.1-2.5,0.1c-4.6,0.1-9.2,0.1-13.8-0.2c0.9-4.2,1.7-8.3,2.7-12.5c0.7-3.2-1.2-5.4-3.7-6.1C213.5,32.4,214.4,31.4,215.4,30.7z M209.5,74.1c0.1,1.1,0.2,2.1,0.4,3.3c0.5,2.2,2.7,4.3,5,4.5c1.5,0.1,2.8,0,4.1-0.8c1.2-0.8,2-2.1,2.3-3.5c0.3-1.4-0.1-3-0.9-4.2c0-0.4,0-0.8,0-1.3c0-3-3.1-5.3-5.9-5.1c-1.4,0.1-2.8,0.8-3.7,1.9c-0.2,0.2-0.4,0.5-0.5,0.7c0.4-2.2,0.8-4.4,1.2-6.6c3.6,0.2,6.9,0.3,9.5,0.3c2.8,0,5.6,0.1,8.5,0c-0.3,3.1-0.6,6.1-1,9.3c-0.5,4.2-0.8,8.5-1,12.8c-6.6-0.5-13.2-1.7-19.3-3.9C208.7,79,209.1,76.5,209.5,74.1z M206.6,92.3c6.7,2.2,13.7,3.3,20.7,3.9c-0.1,8,0,16-0.2,23.9c0,2.3-0.1,4.6-0.1,6.9c-7.6-0.1-16.7-0.6-24.4-3C203.7,113.4,205,102.8,206.6,92.3z M199.5,45c1.1,0.9,2.5,1.3,4.3,0.9c-0.3,1.5-0.6,3-0.9,4.6c-0.7-0.2-1.3-0.4-2-0.7c-1-0.4-1.7-0.8-2.3-1.3c-0.1-0.1-0.2,0.1-0.2,0c0.1-0.7,0-1.4-0.1-2C198.7,46,199.1,45.6,199.5,45z M200.7,61.3c-0.9,4.9-1.8,9.9-2.7,14.8c-0.8-0.6-1.6-1.2-2.4-1.8c-1-0.9-2.1-1.3-3.2-1.3c-0.2-0.9-0.3-1.9-0.5-2.9c0.4-0.3,0.8-0.6,1.2-1c1-1.2,1.4-2.5,1.4-4.1c0-1-0.2-1.9-0.4-2.9c-0.3-1.5-1.4-2.7-2.4-3.8c-0.3-0.3-0.7-0.6-1.1-0.8c0-0.5,0-1.1,0-1.6C192.9,58.6,196.6,60.3,200.7,61.3z M185.1,101.3c2.7-5.6,6.2-10.1,7.7-15.5c1.1,0.7,2.2,1.4,3.4,2c-1.6,10.3-2.9,20.5-4,30.8c-2.8-2.3-4.9-5.3-6-9c-0.4-1.6-1.3-2.6-2.4-3.1C183.9,104.7,184.3,103,185.1,101.3z M173.6,141.7c0.2,0.3,0.5,0.6,0.8,0.9c1.2,1,2.5,1.4,4.1,1.4h3c1.4,0,2.8-0.9,3.7-1.9c1-1.1,1.5-2.6,1.4-4.1c-0.1-1.4-0.8-2.8-1.9-3.7c-1.2-1-2.5-1.4-4.1-1.4h-2.4c0.1-0.1,0.2-0.3,0.3-0.4c2.1-2.3,3.6-4.6,4.5-7.3c2.3,2.2,5,4.1,8,5.6c-1,11.5-1.7,23-2.1,34.7c-6.7-4.4-11.7-10.7-13.4-19.5c-0.3-1.5-1.1-2.7-2.1-3.5C173.5,142.3,173.5,142,173.6,141.7z M165.6,245.4c-0.8-1.2-1.9-1.9-3-2.2c1.1-3.3,1.4-6.8,1.6-10.4c0.1-2.3-0.1-4.7,0.1-7c0.2-3.2,1.4-6.3,1.9-9.4c0.2-1.2,0.3-2.4,0.3-3.5c6.8,6.1,14.4,10.7,22.6,14c0.1,8.2,0.3,16.4,0.4,24.6c0,3.9,0,7.8-0.1,11.7C179.9,259.1,171.3,253.5,165.6,245.4z M188.9,274.6c-0.4,7.5-0.9,14.9-1.3,22.4c-0.3-0.7-0.5-1.4-0.8-2c-3.9-9.7-8.6-19.1-13.9-28.2C177.8,269.9,183.2,272.5,188.9,274.6z M161.9,192c0.6-2.6,1.7-5.1,2.8-7.6c0.7,1.2,1.7,2.2,2.7,3.1c2.1,2.1,5.9,1.6,7.8-0.5c1-1.1,1.5-2.6,1.4-4.1c-0.1-1-0.4-1.9-1-2.7c0-0.1,0-0.2,0-0.3c-0.2-3.1-2.9-5.1-5.9-5.1c-0.2,0-0.4,0-0.6,0.1c1.3-3.6,2.4-7.3,2.9-11.1c4.4,5.9,10.2,10.4,16.8,13.8c0,0.7,0,1.3,0,2c-0.1,11.7,0.1,23.5,0.2,35.2c-9.4-4.8-17.8-11.6-24.3-20.5c-0.8-1.1-1.8-1.7-2.8-2.1C161.8,192.2,161.8,192.1,161.9,192z M126.4,170.5c10.5-1.2,22.1,4.4,26.3,14.4c-1.4,4.1-2.3,8.2-2.6,12.6c-0.3,5.1,2.3,8.2,4.9,12.2c2.5,3.7-1.3,11.2-1.6,15.3c-0.3,4.5,0.3,9.2-0.8,13.5c-2.3-2.6-4.8-5.2-7.4-7.7c0.2-0.5,0.3-1.1,0.3-1.8C146.2,208.5,138.6,187.2,126.4,170.5z M197.2,387.6c-3.1-6.3-13.5-2.7-10.4,3.6c6.4,13,19.1,20,28.6,30.3c1.3,1.4,2.8,1.8,4.2,1.6c-0.6,3-1.2,6-1.7,9c-3.8-3.8-8.4-7-12.6-10.2c-5.9-4.4-14.5-10.1-15.8-17.9c-1.1-6.9-12.1-6.2-11,0.8c1.5,9.6,8.2,16.4,15.5,22.3c7,5.6,15.9,10.4,20.4,18.4c0.4,0.8,1,1.3,1.5,1.7c-0.3,3.2-0.4,6.5-0.5,9.7c-7.3-5.9-15.5-11-21.9-17.9c-10.8-11.7-20.6-25.6-26.4-40.4c-2.6-6.6-13-3-10.4,3.6c5.8,14.9,15.1,28.4,25.5,40.5c5.1,5.9,10.4,11,16.7,15.6c3.2,2.4,6.6,4.7,9.8,7.3c-7.6-4.3-15.1-8.9-21.7-14.3c-9.6-7.8-16.7-17.9-23.3-28.2c-7.3-11.4-14.4-22.8-19.1-35.5c-4.7-12.8-7.1-26.2-8.2-39.7c-1.2-13.6-0.9-27.3-0.2-40.8c0.6-13,1.2-26.2,2.7-39.1c1-8.6,1.9-18.3,0.7-27.2c5.6,5.7,10.6,12,15.2,18.4c10.8,15.1,19.2,31.9,25.3,49.4c6.7,19.1,11.5,38.7,18.1,57.9c4.8,14.2,13.7,27.5,28.1,32.8c-1.6,4.4-3,8.9-4.3,13.4C214.1,404.4,202.3,398.2,197.2,387.6z M224.9,499.6c2.3-5.5,4.1-11.1,3.6-17.5c0-0.3-0.1-0.5-0.1-0.7c2.9,0.2,6,0,8.6-0.1c4.5-0.2,9.1-0.7,13.6-1c1.3,5.2,3.4,10.1,5.1,15.1C245.3,496,235.1,497.9,224.9,499.6z M335.3,217.9c-0.4,14,3.1,28,6.2,41.5c3.6,15.4,7.9,30.6,10.6,46.1c2.6,15.2,2.6,30.4,2.1,45.8c-0.4,14.9-2.2,29.8-6.4,44.1c-7.4,25.3-25.3,48.2-48,61.4c-12.6,7.4-30.2,17.5-44.5,8.6c-0.1,0-0.1-0.1-0.2-0.1c3.5-6.1,8.7-10.8,15.1-15c9.4-6,19.2-11.2,28.2-17.7c18.7-13.5,39.4-31.8,41.8-56.2c0.7-6.9-8.2-8.8-10.6-2.7c-0.1-0.1-0.4,0.3-0.9,1c-2,2.1-1.8,4.6-0.5,6.4c-5.4,20.2-25,34.8-41.3,46.2c-9,6.3-19.1,10.9-28,17.4c-5.2,3.8-9.4,8.4-12.5,13.6c5.4-17.1,20.7-30.1,33.5-42.2c16.8-15.9,32-33.4,33.4-57.1c0.1-0.4,0.1-0.8,0.1-1.2v-3c-0.1-7.1-11-6.2-11,0.8c0.2,24.5-18.3,41.4-34.8,56.9c-16.9,16-33.3,33.2-34.2,57.6c-2.3,0.1-4.6,0-6.2-0.5c-0.2-0.5-0.4-1-0.8-1.6c0-0.1-0.1-0.1-0.1-0.2c-0.7-28.5,4.7-57.8,18.4-83c6.5-12,14.4-23.3,21.1-35.2c4.8-8.6,8.8-17.7,12.3-26.9c0.8-0.1,1.6-0.1,2.4-0.1c6.2,0,6.3-8.5,1.4-10.5c0.4-1.1,0.8-2.3,1.1-3.5c4.6-14.5,7.9-29.4,11.3-44.1c3.3-13.9,6.1-28,11.2-41.4c5-13.1,11.8-25.3,20.5-36.3c7.2-9.2,16.8-18.3,27.8-23C342.7,179.9,335.9,198,335.3,217.9z"></path><path d="M259.5 157c-.2-3.1-2.9-5.1-5.9-5.1-2.6 0-5.1.6-7.4 1.9-1.6.9-2.8 2.7-3.1 4.5-.5 2.5.7 4.5 2.3 6.3 2 2.2 5.9 1.6 7.8-.5.3-.3.5-.7.7-1.1.2 0 .4 0 .5 0C257.4 162.9 259.7 159.9 259.5 157zM221.6 146.3c-2.4-2.1-5.6-1.6-7.8.5-1.1 1.1-2.1 2.1-3 3.3-1.5 2.1-2.2 4.1-2.4 6.7-.2 3 3.2 5.3 5.9 5.1 2.8-.2 4.4-2.2 4.9-4.6 0 0 0-.1 0-.1.1-.1.1-.2.2-.4 0 0 .1-.1.1-.1.7-1 1.6-1.8 2.5-2.7C224.3 152 223.8 148.2 221.6 146.3zM260.6 105.3c-2.4-2.1-5.6-1.6-7.8.5-1.9 1.9-3.6 3.8-4.8 6.2-1.4 2.7-.2 6.1 2.5 7.4 2.7 1.3 6 .2 7.4-2.5.1-.3.3-.5.4-.7.1-.2.3-.4.4-.6.7-.9 1.6-1.7 2.4-2.5C263.3 111 262.8 107.2 260.6 105.3zM262.6 207.4c-2.1-3.8-6.9-5.3-11-5.4-3-.1-5.3 3.1-5.1 5.9.2 3.2 2.9 5 5.9 5.1-1.9 0-.5 0-.1.1.2 0 .3.1.5.1.1.1.3.1.4.2.1.1.1.1.1.2 1.5 2.6 5.3 3.1 7.6 1.5C263.7 213.2 264 210 262.6 207.4zM219.6 204.4c-.6-1.3-1.5-2.5-2.6-3.4-1.9-1.5-4-2-6.4-2-3-.1-5.3 3.1-5.1 5.9.1 1.4.8 2.8 1.9 3.7.8.7 1.7 1.1 2.7 1.2.1.2.3.5.4.7.6 1.2 2.2 2.1 3.5 2.3 1.4.3 2.9 0 4.1-.8 1.2-.8 2-2.1 2.3-3.5C220.7 206.9 220.3 205.8 219.6 204.4zM177.6 232.3c-.1-.1-.2-.1-.3-.2-.2-.3-.5-.6-.7-.8-1.1-1-2.6-1.5-4.1-1.4-1.4.1-2.8.8-3.7 1.9-1 1.2-1.4 2.5-1.4 4.1 0 1.7.6 3.5 2 4.6.8.7 1.7 1.2 2.8 1.4.7.1 1.4.1 2.1.1 1.4 0 2.8-.9 3.7-1.9 1-1.1 1.5-2.6 1.4-4.1C179.4 234.6 178.7 233.3 177.6 232.3zM266.6 244.3c-2.4-2.1-5.6-1.6-7.8.5l-6 6c-2.1 2.1-1.6 5.9.5 7.8 2.4 2.1 5.6 1.6 7.8-.5l6-6C269.3 250 268.8 246.2 266.6 244.3zM220.6 299.4c-1.4-2-3-3.6-5.1-4.9-2-1.3-4.6-1.5-6.9-1.5-3 0-5.3 3.1-5.1 5.9.2 3.1 2.8 4.9 5.7 5.1.2 0 .4 0 .5.1.1 0 .1 0 .2 0 .1 0 .2.1.3.1.2.1.3.3.5.4.2.3.5.6.7.9 1.7 2.5 5.1 3.2 7.6 1.5C221.5 305.4 222.3 301.9 220.6 299.4zM264.4 291.5c-2.7-1.4-6.1-.2-7.4 2.5-1.3 2.7-.2 6 2.5 7.4l0 0c.4 2.7 3.2 4.8 5.9 4.6 3.1-.2 5.1-2.9 5.1-5.9C270.4 296.1 267.8 293.2 264.4 291.5zM251.6 63c-1.4.1-2.8.8-3.7 1.9-1 1.2-1.4 2.5-1.4 4.1v4c0 3 3.1 5.3 5.9 5.1 1.4-.1 2.8-.8 3.7-1.9 1-1.2 1.4-2.5 1.4-4.1v-4C257.5 65 254.4 62.8 251.6 63zM223.2 248.6c-.8-2.2-1.7-4.2-3.3-5.9-1.9-2.1-4.6-2.7-7.3-2.7-3-.1-5.3 3.1-5.1 5.9.1 1.4.8 2.8 1.9 3.7.9.8 1.9 1.1 2.9 1.3.2.5.4.9.5 1.4 1 2.8 4.2 4.4 7 3.4C222.7 254.7 224.1 251.5 223.2 248.6zM220.6 101.3c-2.4-2.1-5.6-1.6-7.8.5-1.9 1.9-3.6 3.8-4.8 6.2-1.4 2.7-.2 6.1 2.5 7.4 2.7 1.3 6 .2 7.4-2.5.1-.3.3-.5.4-.7.1-.2.3-.4.4-.6.7-.9 1.6-1.7 2.4-2.5C223.3 107 222.8 103.2 220.6 101.3z"></path></svg>