<svg xmlns="http://www.w3.org/2000/svg" x="0px" y="0px"
width="48" height="48"
viewBox="0 0 48 48"
style=" fill:#000000;"><path fill="#fcbf95" d="M43.413,17.749c-0.049,6.411-0.032,12.981,0.025,19.392c0.013,1.505-0.103,3.259-1.34,4.117 c-0.645,0.448-1.464,0.541-2.246,0.615c-8.193,0.773-16.082,0.001-24.309,0.193c-1.952,0.046-4.022,0.168-5.961,0.393 c-1.15,0.133-2.473,0.211-3.297-0.602c-0.405-0.4-0.614-0.955-0.778-1.501c-0.875-2.9-0.83-5.549-0.777-8.577 c0.038-2.199,0.077-4.398,0.115-6.597c0.066-3.783-0.353-8.154-0.391-11.938C4.42,10,5.156,8.052,7.177,7.187 c0.838-0.358,1.761-0.461,2.67-0.523c1.936-0.132,3.88-0.1,5.819-0.019c1.56,0.065,2.977,0.08,3.709,1.459 c0.379,0.714,0.828,1.913,1.483,2.387c0.259,0.187,0.579,0.267,0.891,0.333c6.269,1.335,12.835-0.826,19.167,0.166 c0.571,0.089,1.171,0.22,1.593,0.616c0.436,0.408,0.602,1.022,0.717,1.607C43.51,14.648,43.424,16.286,43.413,17.749z"></path><path fill="#010101" d="M43.913,17.753l0.01-0.74c0.021-1.303,0.041-2.649-0.205-3.896c-0.133-0.677-0.33-1.373-0.866-1.876 c-0.512-0.479-1.195-0.641-1.857-0.744c-3.062-0.479-6.199-0.234-9.23,0.003c-3.288,0.256-6.686,0.522-9.91-0.164 c-0.268-0.057-0.522-0.118-0.702-0.249c-0.404-0.292-0.765-1.045-1.055-1.649c-0.099-0.205-0.191-0.398-0.281-0.566 c-0.843-1.59-2.438-1.655-3.981-1.718l-0.148-0.007c-1.613-0.066-3.738-0.125-5.874,0.02C8.937,6.226,7.923,6.323,6.98,6.727 C4.85,7.639,3.917,9.65,3.954,13.248c0.017,1.656,0.108,3.455,0.195,5.195c0.115,2.266,0.233,4.608,0.196,6.729L4.23,31.77 c-0.054,3.088-0.1,5.754,0.799,8.73c0.183,0.605,0.419,1.231,0.905,1.712c0.681,0.672,1.629,0.832,2.466,0.832 c0.471,0,0.907-0.051,1.239-0.089c1.786-0.207,3.832-0.342,5.916-0.39c3.157-0.074,6.314-0.004,9.368,0.063 c4.872,0.109,9.91,0.221,14.977-0.259c0.719-0.067,1.703-0.16,2.483-0.701c1.397-0.97,1.57-2.836,1.555-4.533 C43.876,30.143,43.867,23.621,43.913,17.753z M7.374,7.646c0.799-0.342,1.713-0.429,2.507-0.483 c0.947-0.064,1.895-0.088,2.796-0.088c1.084,0,2.101,0.033,2.968,0.07l0.149,0.006c1.59,0.065,2.593,0.157,3.14,1.188 c0.083,0.157,0.17,0.338,0.262,0.53c0.356,0.743,0.761,1.586,1.37,2.027c0.338,0.245,0.72,0.34,1.081,0.417 c3.366,0.716,6.84,0.445,10.196,0.183c2.976-0.232,6.052-0.475,8.998-0.012c0.47,0.073,0.998,0.177,1.328,0.486 c0.329,0.309,0.468,0.825,0.569,1.339c0.226,1.144,0.205,2.437,0.186,3.688l-0.007,0.522c-0.628-0.46-1.457-0.511-2.204-0.516 c-5.044-0.035-10.202-0.016-15.189,0.001c-4.985,0.017-10.142,0.036-15.178,0.001c-1.233-0.008-2.633-0.019-3.885,0.58 c-0.528,0.253-0.963,0.571-1.305,0.941c-0.002-0.044-0.004-0.089-0.007-0.133c-0.087-1.729-0.178-3.519-0.194-5.154 C4.921,10.059,5.645,8.387,7.374,7.646z M41.813,40.847c-0.522,0.363-1.218,0.454-2.007,0.527 c-5.009,0.475-10.018,0.364-14.86,0.255c-3.065-0.067-6.233-0.138-9.414-0.063c-2.114,0.049-4.191,0.186-6.007,0.396 c-1.048,0.123-2.221,0.196-2.887-0.46c-0.328-0.324-0.507-0.812-0.651-1.29c-0.854-2.827-0.808-5.421-0.756-8.424l0.115-6.597 c0.024-1.367-0.018-2.818-0.079-4.278c0-0.004,0.002-0.006,0.002-0.01c-0.045-1.331,0.858-2.048,1.625-2.415 c1.043-0.5,2.319-0.496,3.446-0.482c5.042,0.035,10.201,0.015,15.189-0.001c4.985-0.017,10.141-0.037,15.178-0.001 c0.688,0.005,1.39,0.043,1.762,0.446c0.311,0.337,0.36,0.909,0.389,1.515c0.003,0.063,0.019,0.121,0.042,0.175 c-0.027,5.237-0.014,10.944,0.04,17.007C42.951,38.653,42.824,40.146,41.813,40.847z"></path><path fill="#73a1b2" d="M13.501,23.748c1.936,1.835,4.75,3.938,6.467,5.966c-1.326,1.427-3.216,3.053-4.741,4.499 c-0.421,0.399-0.805,0.864-0.993,1.413c-0.189,0.549,1.349,1.76,1.765,1.524c0.416-0.236,0.689-0.652,1.033-0.984 c2.073-1.999,4.679-4.348,6.449-6.502c-2.251-2.607-5.425-5.202-7.793-7.703c-0.054-0.057-0.114-0.117-0.191-0.132 c-0.114-0.021-0.218,0.063-0.303,0.142c-0.576,0.532-1.152,1.063-1.728,1.595"></path><path fill="#010101" d="M15.871,37.679c-0.499,0-1.051-0.405-1.302-0.613c-0.395-0.327-1.025-0.971-0.808-1.602 c0.188-0.548,0.555-1.076,1.122-1.613c0.503-0.478,1.046-0.975,1.596-1.478c0.979-0.896,1.986-1.818,2.813-2.673 c-1.049-1.164-2.438-2.355-3.785-3.51c-0.847-0.727-1.646-1.412-2.35-2.079c-0.103-0.098-0.155-0.229-0.156-0.359 c-0.075-0.187-0.032-0.408,0.125-0.553l1.729-1.595c0.087-0.081,0.354-0.338,0.73-0.268c0.241,0.046,0.386,0.197,0.464,0.278 c1.009,1.065,2.143,2.127,3.343,3.251c1.557,1.458,3.166,2.965,4.467,4.471c0.159,0.185,0.163,0.456,0.008,0.645 c-1.422,1.73-3.398,3.605-5.142,5.261c-0.463,0.439-0.917,0.869-1.346,1.283c-0.103,0.1-0.199,0.207-0.294,0.314 c-0.228,0.255-0.487,0.544-0.839,0.744C16.128,37.65,16.001,37.679,15.871,37.679z M14.121,23.643 c0.619,0.571,1.311,1.165,2.038,1.788c1.506,1.293,3.064,2.629,4.191,3.96c0.163,0.193,0.157,0.479-0.016,0.664 c-0.904,0.972-2.061,2.031-3.181,3.056c-0.545,0.499-1.083,0.991-1.583,1.465c-0.447,0.425-0.73,0.821-0.865,1.213 c0.057,0.183,0.788,0.803,1.114,0.884c0.182-0.122,0.346-0.306,0.519-0.499c0.112-0.125,0.225-0.25,0.345-0.367 c0.432-0.416,0.887-0.848,1.352-1.289c1.612-1.53,3.426-3.251,4.785-4.845c-1.216-1.362-2.688-2.74-4.114-4.076 c-1.114-1.043-2.266-2.121-3.268-3.169L14.121,23.643z"></path><path fill="#73a1b2" d="M24.922,34.676c3.866-0.379,7.765-0.483,11.649-0.311c-0.032,0.68-0.063,1.36-0.095,2.04 c-3.312,0.085-6.623,0.171-9.935,0.248c-0.41,0.01-0.858,0.008-1.179-0.224S24.54,34.813,24.922,34.676z"></path><path fill="#010101" d="M26.322,37.156c-0.382,0-0.863-0.04-1.254-0.322c-0.431-0.312-0.857-1.427-0.772-2.021 c0.06-0.422,0.34-0.565,0.458-0.607c0.039-0.014,0.079-0.022,0.12-0.027c3.876-0.38,7.82-0.488,11.72-0.312 c0.133,0.006,0.258,0.063,0.347,0.162c0.09,0.098,0.137,0.228,0.13,0.36l-0.095,2.04c-0.012,0.262-0.225,0.47-0.487,0.477 l-0.992,0.025c-2.981,0.076-5.962,0.153-8.944,0.223C26.481,37.155,26.404,37.156,26.322,37.156z M25.297,35.142 c0.056,0.301,0.25,0.775,0.371,0.894c0.172,0.123,0.52,0.129,0.86,0.118c2.981-0.069,5.961-0.146,8.942-0.223l0.527-0.014 l0.05-1.073C32.468,34.709,28.855,34.808,25.297,35.142z"></path></svg>