<svg xmlns="http://www.w3.org/2000/svg"  viewBox="0 0 48 48" width="48px" height="48px"><ellipse cx="2.737" cy="23.384" fill="#febf10" rx="1.324" ry="1.229"/><ellipse cx="2.098" cy="30.629" fill="#febf10" rx="1.324" ry="1.229"/><ellipse cx="2.545" cy="37.076" fill="#febf10" rx="1.324" ry="1.229"/><ellipse cx="45.247" cy="23.48" fill="#febf10" rx="1.324" ry="1.229"/><ellipse cx="45.455" cy="30.054" fill="#febf10" rx="1.596" ry="1.229"/><ellipse cx="45.072" cy="35.863" fill="#febf10" rx="1.596" ry="1.229"/><path fill="#febf10" d="M30.851,37.211c-2.02,1.814-4.428,3.46-6.914,4.573c-3.879-1.885-7.298-4.619-9.998-7.984 c-2.998-3.737-5.304-8.391-5.628-13.22c-0.194-2.896-0.085-5.832,0.066-8.734c3.064,0.679,6.229,0.288,9.059-1.096 c2.476-1.211,5.055-2.744,6.702-5.016c0.721,1.044,1.724,1.86,2.705,2.663c1.224,1.001,2.485,1.989,3.915,2.681 c2.597,1.256,5.563,1.414,8.335,0.722C39.092,20.801,37.936,30.847,30.851,37.211z"/><path fill="#127274" d="M36.083,14.094c-0.44,0.116-0.905,0.175-1.381,0.175c-1.278,0-2.689-0.419-4.194-1.247 c-1.885-1.036-4.022-2.283-5.517-3.956l-0.314-0.352l-0.369,0.294c-3.896,3.096-8.567,4.953-13.506,5.368l-0.46,0.039l0.002,0.462 c0.008,1.901,0.066,4.406,0.452,6.923c0.67,4.365,2.135,7.946,4.354,10.645c1.29,1.568,2.897,2.784,4.451,3.959 c1.239,0.937,2.52,1.906,3.603,3.033l0.361,0.376l0.361-0.376c0.593-0.619,1.307-1.096,2.062-1.602l0.258-0.173 c0.705-0.475,1.632-1.109,2.542-1.799c1.778-1.349,3.079-2.595,4.095-3.921c1.172-1.531,1.985-3.333,2.485-5.51 c0.507-2.209,0.883-4.448,1.116-6.653c0.113-1.066,0.16-2.152,0.139-3.229c-0.011-0.581-0.015-1.255,0.085-1.892l0.119-0.757 L36.083,14.094z"/><path fill="#010101" d="M3.531,23.469C3.531,23.447,3.529,23.44,3.531,23.469L3.531,23.469z"/><path fill="#010101" d="M47.022,34.865c-0.014-0.106-0.053-0.21-0.131-0.292c-0.592-0.623-1.507-0.69-2.301-0.497 c-0.778,0.189-1.662,0.672-1.845,1.52c-0.016,0.072-0.016,0.142-0.022,0.212c-1.494,0.233-3.006,0.33-4.518,0.277 c-0.756-0.027-1.619-0.011-2.353-0.206c-0.335-0.089-0.515-0.346-0.726-0.608c-0.237-0.294-0.458-0.6-0.676-0.909 c0.235-0.325,0.471-0.648,0.689-0.985c0.44-0.682,0.829-1.389,1.197-2.106c0.082,0.02,0.168,0.028,0.257,0.016 c2.173-0.307,4.368-0.447,6.562-0.434c0.241,0.572,0.769,1.002,1.394,1.141c0.858,0.19,1.826-0.038,2.496-0.611 c0.583-0.499,0.811-1.41,0.457-2.086c-0.014-0.157-0.093-0.307-0.235-0.395c-0.76-0.474-1.692-0.621-2.564-0.43 c-0.741,0.162-1.488,0.63-1.654,1.383c-2.077-0.007-4.148,0.135-6.207,0.404c0.663-1.445,1.186-2.949,1.609-4.484 c0.028-0.012,0.056-0.014,0.085-0.032c0.839-0.534,1.667-1.163,2.55-1.619c0.382-0.197,0.898-0.166,1.319-0.203 c0.306-0.027,0.613-0.054,0.919-0.081c0.046,0.673,0.637,1.291,1.321,1.458c1.042,0.255,2.258-0.099,2.506-1.259 c0.227-1.062-0.51-2.011-1.489-2.347c-0.87-0.299-1.986,0.03-2.26,0.976c-0.017,0.06-0.016,0.114-0.014,0.167 c-0.354,0.031-0.707,0.062-1.061,0.094c-0.499,0.044-1.05,0.033-1.518,0.226c-0.448,0.184-0.854,0.5-1.26,0.759 c-0.249,0.159-0.498,0.317-0.747,0.475c0.328-1.414,0.581-2.846,0.756-4.284c0.347-2.856,0.425-5.736,0.414-8.61 c0.247-0.336-0.01-0.94-0.512-0.784c-2.751,0.856-5.797,0.814-8.399-0.509c-1.288-0.655-2.432-1.546-3.544-2.459 c-1.07-0.878-2.202-1.742-2.839-3.002c-0.174-0.344-0.679-0.305-0.863,0c-1.448,2.401-4.043,3.9-6.483,5.13 c-2.726,1.374-5.792,1.744-8.753,1.001c-0.272-0.229-0.826-0.107-0.852,0.368c-0.156,2.886-0.264,5.799-0.132,8.688 c0.068,1.485,0.307,2.913,0.675,4.313c-0.295-0.307-0.585-0.629-0.909-0.898c-0.411-0.34-0.913-0.282-1.415-0.287 c-0.475-0.005-0.951-0.01-1.426-0.015c-0.01-0.095-0.006-0.193-0.031-0.283c-0.107-0.391-0.375-0.71-0.728-0.904 c-0.352-0.194-0.769-0.309-1.167-0.357c-0.418-0.051-0.887,0.068-1.096,0.469c-0.025,0.047-0.037,0.099-0.047,0.151 c-0.504,0.408-0.74,1.119-0.548,1.748c0.258,0.843,1.073,1.221,1.89,1.317c0.783,0.092,1.374-0.447,1.622-1.143 c0.463,0.005,0.927,0.01,1.39,0.015c0.217,0.002,0.434,0.004,0.651,0.007c0.203,0.003,0.224,0.005,0.374,0.154 c0.636,0.637,1.269,1.277,1.904,1.916c0.052,0.053,0.109,0.087,0.166,0.111c0.163,0.448,0.325,0.896,0.516,1.339 c0.347,0.804,0.743,1.587,1.164,2.356c-2.227-0.053-4.454-0.042-6.68,0.038c-0.007-0.034,0-0.069-0.006-0.105 c-0.019-0.122-0.107-0.221-0.217-0.286c-0.24-0.457-0.732-0.777-1.281-0.838c-0.728-0.081-1.512,0.325-1.846,0.981 c-0.363,0.711-0.271,1.579,0.239,2.193c0.265,0.319,0.643,0.525,1.054,0.571c0.408,0.046,0.826-0.11,1.15-0.353 c0.4-0.3,0.663-0.708,0.806-1.159c2.45-0.09,4.902-0.103,7.352-0.033c0.547,0.912,1.142,1.795,1.785,2.643 c-0.484,0.441-1.048,0.783-1.606,1.127c-0.651,0.401-1.319,0.796-2.048,1.039c-0.753,0.251-1.519,0.281-2.305,0.258 c-0.875-0.025-1.75-0.064-2.624-0.096c-0.005,0-0.008,0.002-0.013,0.002c-0.101-0.08-0.227-0.11-0.354-0.093 C3.98,35.818,3.977,35.808,3.97,35.8c-0.491-0.598-1.369-0.847-2.108-0.635c-0.794,0.228-1.334,0.953-1.427,1.757 c-0.091,0.789,0.366,1.572,1.06,1.941c0.794,0.422,1.728,0.236,2.426-0.292c0.389-0.294,0.729-0.695,0.832-1.185 c0.032-0.151,0.039-0.301,0.032-0.449c1.629,0.087,3.369,0.287,4.914-0.272c0.806-0.292,1.548-0.722,2.273-1.173 c0.549-0.342,1.102-0.688,1.586-1.117c1.154,1.418,2.431,2.734,3.822,3.914c1.949,1.652,4.099,3.048,6.409,4.14 c0.195,0.092,0.378,0.05,0.518-0.05c0.033-0.008,4.47-2.478,6.39-4.025c1.154-0.93,2.184-1.998,3.108-3.152 c0.364,0.542,0.775,1.13,1.296,1.448c0.319,0.195,0.689,0.228,1.051,0.272c0.503,0.061,1.008,0.107,1.515,0.136 c1.765,0.102,3.531-0.008,5.275-0.281c0.257,0.442,0.696,0.788,1.196,0.961c0.851,0.294,1.823,0.077,2.509-0.487 c0.398-0.327,0.68-0.801,0.724-1.319C47.406,35.533,47.272,35.156,47.022,34.865z M46.674,29.925 C46.669,29.895,46.671,29.905,46.674,29.925L46.674,29.925z M44.034,30.026c0.003-0.013,0.014-0.042,0.019-0.056 c0.009-0.017,0.019-0.035,0.027-0.052c0.003-0.006,0.05-0.08,0.011-0.026c0.03-0.04,0.069-0.079,0.105-0.113 c0.075-0.071,0.168-0.128,0.31-0.196c0.008-0.004,0.107-0.047,0.06-0.028c-0.047,0.019,0.056-0.02,0.065-0.023 c0.085-0.03,0.171-0.056,0.258-0.078c0.553-0.138,1.141-0.057,1.667,0.209c0.001,0.001,0.001,0.001,0.002,0.002 c0.01,0.009,0.01,0.008,0.016,0.012c0.001,0.003-0.001,0.001,0.002,0.006c0.016,0.024,0.03,0.05,0.045,0.075 c0.005,0.009,0.012,0.025,0.017,0.039c0.015,0.047,0.027,0.093,0.037,0.141c0,0.004,0.001,0.009,0.001,0.013 c0.001,0.045,0.001,0.09,0.001,0.135c0,0.012,0,0.015,0,0.022c-0.004,0.023-0.008,0.046-0.013,0.069 c-0.009,0.037-0.019,0.073-0.031,0.109c-0.002,0.005-0.009,0.024-0.015,0.039c-0.012,0.021-0.037,0.07-0.036,0.068 c-0.017,0.029-0.036,0.057-0.054,0.086c-0.003,0.004-0.014,0.018-0.022,0.028c-0.03,0.035-0.062,0.069-0.095,0.101 c-0.168,0.163-0.401,0.281-0.64,0.354c-0.074,0.023-0.15,0.042-0.226,0.058c-0.035,0.007-0.069,0.014-0.104,0.02 c-0.102,0.019-0.048,0.007-0.025,0.005c-0.167,0.019-0.336,0.021-0.503,0.004c-0.007-0.001-0.005,0-0.009-0.001 c-0.004-0.001-0.003-0.001-0.014-0.003c-0.043-0.008-0.085-0.017-0.128-0.027c-0.063-0.016-0.125-0.035-0.186-0.058 c-0.013-0.005-0.032-0.013-0.036-0.015c-0.031-0.016-0.062-0.031-0.092-0.049c-0.038-0.022-0.074-0.046-0.11-0.07 c-0.05-0.034,0.036,0.041-0.027-0.023c-0.027-0.028-0.056-0.053-0.082-0.081c-0.004-0.005-0.022-0.025-0.034-0.039 c-0.011-0.015-0.027-0.037-0.03-0.042c-0.021-0.032-0.041-0.065-0.059-0.099c-0.013-0.024-0.025-0.048-0.036-0.073 c-0.002-0.008,0,0-0.006-0.019c-0.019-0.063-0.036-0.127-0.047-0.192c0.003-0.011-0.002-0.098-0.003-0.121 c-0.001-0.013-0.001-0.011-0.002-0.019c0.001-0.003,0.001,0,0.002-0.004C44.02,30.084,44.028,30.055,44.034,30.026z M45.337,22.635c0.446,0.146,0.882,0.541,0.858,1.044c-0.062,1.262-1.842,0.495-1.959-0.172c-0.038-0.215,0.251-0.384,0.114-0.546 c0.004-0.011,0.011-0.017,0.015-0.028C44.475,22.551,45.022,22.533,45.337,22.635z M1.885,23.657 C1.875,23.635,1.87,23.613,1.885,23.657L1.885,23.657z M3.453,23.778c0.005-0.014,0.011-0.03,0.013-0.029 C3.467,23.751,3.457,23.769,3.453,23.778z M3.541,23.427c-0.002,0.022-0.01,0.052-0.008,0.073 c-0.002-0.016-0.002-0.022-0.002-0.031c0,0.013,0,0.028-0.004,0.044c-0.011,0.055-0.025,0.109-0.042,0.163 c-0.009,0.03-0.02,0.059-0.029,0.089c-0.003,0.011-0.004,0.012-0.005,0.017c-0.017,0.039-0.057,0.11-0.06,0.116 c-0.015,0.026-0.031,0.052-0.047,0.078c-0.007,0.01-0.013,0.02-0.02,0.03c-0.015,0.021-0.021,0.029-0.02,0.028 c-0.022,0.023-0.048,0.045-0.063,0.06c-0.001,0.001-0.01,0.01-0.019,0.019c-0.01,0.007-0.02,0.014-0.03,0.02 c-0.025,0.013-0.05,0.028-0.075,0.043C3.11,24.18,3.109,24.18,3.105,24.183c-0.03,0.007-0.062,0.011-0.079,0.012 c-0.035,0.001-0.07,0.003-0.105,0.001c-0.012-0.001-0.057-0.005-0.071-0.006c-0.056-0.009-0.112-0.02-0.167-0.033 c-0.071-0.016-0.141-0.034-0.21-0.055c-0.028-0.008-0.055-0.017-0.083-0.026c-0.007-0.002-0.052-0.02-0.07-0.026 c-0.049-0.022-0.098-0.046-0.144-0.073c-0.031-0.018-0.06-0.038-0.09-0.057c-0.001,0-0.001-0.001-0.002-0.002 c-0.043-0.044-0.088-0.086-0.13-0.131c-0.003-0.006-0.001-0.004-0.006-0.013c-0.019-0.035-0.04-0.071-0.06-0.105 c-0.002-0.003-0.003-0.007-0.004-0.01c-0.011-0.032-0.023-0.064-0.031-0.097c-0.007-0.026-0.012-0.053-0.018-0.079 c-0.002-0.009-0.002-0.006-0.004-0.012c0.001-0.005,0.002-0.003,0.001-0.016c0-0.027-0.002-0.054-0.002-0.081 c0-0.022,0.002-0.042,0.003-0.055C1.846,23.258,1.862,23.2,1.88,23.14c0.003-0.004,0.002-0.002,0.005-0.007 c0.02-0.033,0.037-0.068,0.059-0.101c0.005-0.008,0.011-0.017,0.017-0.025c-0.004,0.008,0.04-0.046,0.05-0.057 c0.018-0.019,0.038-0.035,0.056-0.054c0.008-0.009,0.007-0.009,0.01-0.013c0.004-0.002,0.003,0,0.011-0.005 c0.068-0.041,0.132-0.08,0.205-0.111c0.112-0.048,0.183-0.157,0.219-0.277c0.008,0.001,0.016,0.001,0.024,0.002 c0.032,0.003,0.018,0.002-0.023-0.004l0,0c0.038,0,0.109,0.023,0.131,0.029c0.057,0.014,0.113,0.028,0.17,0.044 c0.052,0.014,0.103,0.029,0.154,0.044c0.032,0.01,0.064,0.02,0.095,0.031c0.006,0.002,0.03,0.011,0.052,0.019 c0.012,0.006,0.064,0.027,0.067,0.028c0.023,0.011,0.046,0.023,0.069,0.036c0.023,0.012,0.045,0.025,0.067,0.039 c0.001,0.001,0.02,0.013,0.036,0.025c0.016,0.014,0.042,0.035,0.043,0.036c0.017,0.016,0.033,0.034,0.049,0.051 c0.016,0.026,0.031,0.052,0.045,0.079c0.006,0.015,0.017,0.043,0.021,0.055c0.011,0.036,0.018,0.073,0.026,0.11 c-0.004-0.02-0.007-0.098,0,0.003c0.002,0.031,0.004,0.061,0.005,0.092C3.549,23.281,3.547,23.355,3.541,23.427z M2.922,30.084 C2.92,30.075,2.921,30.077,2.922,30.084L2.922,30.084z M2.844,30.757c-0.001,0.003-0.023,0.054-0.028,0.066 c-0.008,0.015-0.014,0.029-0.015,0.03c-0.012,0.023-0.024,0.046-0.037,0.069c-0.029,0.051-0.06,0.101-0.094,0.149 c-0.007,0.01-0.02,0.025-0.029,0.036c-0.017,0.02-0.035,0.041-0.053,0.061c-0.036,0.038-0.073,0.075-0.112,0.109 c-0.001,0.001-0.021,0.018-0.038,0.032c-0.018,0.013-0.045,0.033-0.046,0.034c-0.051,0.034-0.104,0.061-0.157,0.092 c-0.013,0.008-0.013,0.008-0.02,0.013c-0.003,0.001,0-0.001-0.007,0.001c-0.043,0.013-0.085,0.029-0.13,0.04 c-0.016,0.004-0.05,0.008-0.061,0.01C2,31.5,1.983,31.501,1.965,31.501c-0.014,0-0.041-0.001-0.064-0.003 c-0.009-0.003-0.018-0.006-0.025-0.008c-0.028-0.007-0.055-0.017-0.082-0.026c-0.001-0.001-0.001,0-0.002-0.001 c-0.05-0.027-0.097-0.057-0.144-0.089c-0.011-0.01-0.025-0.021-0.032-0.028c-0.025-0.023-0.048-0.047-0.071-0.071 c-0.009-0.01-0.018-0.021-0.027-0.031c-0.006-0.008-0.015-0.018-0.019-0.025c-0.034-0.058-0.068-0.114-0.099-0.174 c-0.011-0.035-0.025-0.07-0.035-0.105c-0.015-0.053-0.026-0.108-0.035-0.162c0-0.015-0.006-0.074-0.006-0.101 c-0.001-0.055-0.003-0.125,0.008-0.182c0-0.002,0-0.002,0.001-0.004c0.009-0.039,0.017-0.078,0.027-0.117 c0.007-0.026,0.015-0.051,0.024-0.076c0.001-0.003,0.024-0.055,0.029-0.068c0.009-0.016,0.017-0.032,0.017-0.032 c0.013-0.023,0.026-0.046,0.041-0.069c0.006-0.01,0.013-0.019,0.019-0.029c0.007-0.01,0.022-0.031,0.031-0.041 c0.04-0.044,0.083-0.084,0.128-0.123c0.012-0.008,0.056-0.041,0.079-0.055c0.045-0.027,0.092-0.051,0.14-0.073 c0.014-0.004,0.065-0.024,0.091-0.031c0.031-0.009,0.062-0.017,0.093-0.024c0.012-0.003,0.077-0.011,0.087-0.014 c0.013-0.001,0.025-0.001,0.027-0.001c0.038-0.002,0.076-0.002,0.115,0c0.006,0,0.034,0.002,0.054,0.004 c0.013,0.002,0.027,0.005,0.04,0.008c0.025,0.006,0.05,0.012,0.074,0.019c0.02,0.006,0.038,0.012,0.05,0.016 c0.057,0.028,0.111,0.061,0.166,0.095l0,0c0.004,0.004,0.002,0.003,0.007,0.009c0.027,0.029,0.056,0.057,0.084,0.085 c0.001,0.001,0.001,0.003,0.003,0.004c0.017,0.029,0.036,0.058,0.053,0.087c0.004,0.007,0,0,0.003,0.005 c0.009,0.029,0.017,0.058,0.026,0.087c0,0.001,0,0,0,0c-0.003,0.03-0.021,0.169,0.003,0.039c-0.024,0.128-0.006,0.265,0.052,0.379 c-0.009,0.037-0.017,0.074-0.028,0.11C2.862,30.708,2.853,30.733,2.844,30.757z M3.784,37.145 c-0.007,0.031-0.016,0.062-0.026,0.093c-0.003,0.011-0.016,0.042-0.022,0.057c-0.027,0.054-0.057,0.105-0.088,0.156 c-0.005,0.009-0.053,0.078-0.01,0.02c-0.02,0.026-0.043,0.052-0.065,0.076c-0.056,0.062-0.117,0.119-0.18,0.175 c-0.007,0.007-0.073,0.059-0.017,0.016c-0.027,0.02-0.055,0.04-0.082,0.058c-0.057,0.039-0.116,0.075-0.176,0.109 c-0.157,0.088-0.229,0.119-0.4,0.163C2.7,38.073,2.52,38.105,2.576,38.099c-0.078,0.008-0.158,0.009-0.237,0.003 c-0.008,0-0.036-0.005-0.054-0.007c-0.016-0.004-0.034-0.008-0.04-0.009c-0.037-0.009-0.074-0.019-0.11-0.03 c-0.007-0.002-0.049-0.018-0.07-0.025c-0.016-0.008-0.038-0.018-0.044-0.021c-0.027-0.014-0.054-0.029-0.081-0.044 c-0.033-0.019-0.065-0.041-0.097-0.062c-0.004-0.003-0.013-0.01-0.022-0.016c-0.043-0.036-0.084-0.073-0.123-0.113 c-0.021-0.022-0.042-0.045-0.062-0.068c-0.014-0.015-0.015-0.015-0.021-0.02c-0.003-0.006-0.003-0.008-0.013-0.025 c-0.032-0.052-0.063-0.104-0.094-0.158c-0.004-0.007-0.012-0.024-0.017-0.035c-0.007-0.019-0.014-0.038-0.021-0.057 c-0.018-0.055-0.028-0.111-0.042-0.166c-0.001-0.004-0.002-0.008-0.002-0.012c-0.002-0.045-0.005-0.089-0.005-0.134 c0-0.021,0.011-0.116,0.009-0.123c0.011-0.055,0.022-0.11,0.038-0.164c0.009-0.029,0.019-0.057,0.028-0.085 C1.5,36.722,1.499,36.724,1.5,36.721c0.031-0.067,0.066-0.132,0.106-0.195c0.016-0.025,0.032-0.049,0.05-0.073 c0.003-0.003,0.001-0.001,0.006-0.006c0.046-0.05,0.094-0.096,0.141-0.144c0.005-0.005,0.017-0.015,0.026-0.023 c0.017-0.012,0.033-0.024,0.05-0.035c0.025-0.016,0.051-0.032,0.077-0.046c0.011-0.006,0.053-0.026,0.07-0.035 c0.054-0.02,0.11-0.038,0.166-0.052c0.026-0.006,0.052-0.011,0.078-0.016c0.018-0.002,0.036-0.003,0.055-0.004 c0.068-0.004,0.134-0.001,0.202,0.002c0.008,0,0.008,0,0.014,0.001c0.04,0.007,0.08,0.015,0.12,0.024 c0.068,0.017,0.136,0.039,0.201,0.065c0.007,0.004,0,0,0.016,0.009c0.039,0.022,0.079,0.042,0.117,0.066 c0.019,0.011,0.036,0.024,0.054,0.036c0.01,0.007,0.028,0.02,0.042,0.032c0.062,0.055,0.118,0.115,0.17,0.179 c0.099,0.12,0.258,0.154,0.411,0.133c0.006,0.008,0.009,0.018,0.016,0.026c0.012,0.014,0.007,0.008,0.013,0.015 c0.021,0.032,0.04,0.065,0.057,0.099c0.001,0.001,0,0,0.001,0.002c0.001,0.004,0,0.002,0.002,0.011 c0.009,0.031,0.018,0.061,0.025,0.092C3.803,36.953,3.8,37.076,3.784,37.145z M30.845,36.924 c-1.991,1.789-4.365,3.411-6.816,4.508c-3.824-1.858-7.194-4.553-9.855-7.87c-2.955-3.684-5.229-8.272-5.548-13.032 c-0.192-2.855-0.085-5.75,0.064-8.61c3.02,0.669,6.14,0.284,8.93-1.08c2.441-1.194,4.983-2.705,6.607-4.944 c0.711,1.029,1.7,1.834,2.667,2.625c1.207,0.987,2.45,1.961,3.859,2.643c2.56,1.238,5.484,1.394,8.216,0.712 C38.968,20.747,37.828,30.651,30.845,36.924z M46.328,36.068c0.019-0.05-0.015,0.033-0.016,0.035 c-0.017,0.033-0.035,0.066-0.055,0.099c-0.07,0.115-0.151,0.2-0.272,0.306c-0.364,0.319-0.957,0.431-1.419,0.314 c-0.251-0.064-0.473-0.18-0.647-0.364c-0.071-0.075-0.119-0.159-0.156-0.247c-0.006-0.04-0.015-0.077-0.029-0.116 c-0.018-0.078-0.034-0.157-0.022-0.246c0.004-0.015,0.009-0.041,0.01-0.043c0.011-0.034,0.019-0.069,0.033-0.103 c-0.027,0.065,0.059-0.094,0.068-0.108c-0.037,0.056,0.054-0.061,0.069-0.077c0.024-0.025,0.049-0.049,0.075-0.072 c0.015-0.013,0.092-0.072,0.043-0.036c0.116-0.084,0.242-0.151,0.37-0.213c0.006-0.003,0.087-0.038,0.027-0.013 c0.032-0.014,0.066-0.026,0.099-0.038c0.073-0.027,0.148-0.051,0.223-0.073c0.076-0.022,0.153-0.041,0.231-0.057 c0.035-0.007,0.07-0.013,0.104-0.02c0.018-0.003,0.035-0.006,0.052-0.008c-0.037,0.005-0.037,0.005-0.002,0.001 c0.156-0.015,0.312-0.018,0.469-0.004c0.007,0.001,0.004,0,0.008,0c0.004,0.001,0.002,0.001,0.01,0.002 c0.041,0.008,0.082,0.016,0.123,0.026c0.032,0.008,0.064,0.017,0.096,0.027c0.008,0.002,0.062,0.024,0.082,0.03 c0.014,0.008,0.043,0.022,0.049,0.025c0.018,0.01,0.035,0.021,0.053,0.032c0.029,0.134,0.11,0.256,0.231,0.341 c-0.069-0.049,0.092,0.103,0.036,0.032c0.02,0.026,0.036,0.058,0.053,0.086c0.003,0.005,0.012,0.025,0.017,0.038 c0.009,0.027,0.016,0.054,0.024,0.081c0.002,0.005,0.005,0.024,0.008,0.037c0.006,0.056,0.006,0.114-0.001,0.17 c-0.004,0.014-0.01,0.042-0.011,0.047C46.35,35.996,46.341,36.033,46.328,36.068z"/><path fill="#010101" d="M24.868,26.447c-0.178-0.353,0.25-0.892,0.412-1.193c0.221-0.408,0.409-0.827,0.446-1.294 c0.07-0.885-0.464-1.679-1.384-1.747c-0.951-0.07-1.835,0.425-2.183,1.316c-0.38,0.973-0.007,1.978,0.479,2.839 c-0.316,0.455-0.604,0.93-0.833,1.435c-0.247,0.547-0.259,1.173,0.317,1.51c0.466,0.273,1.044,0.215,1.561,0.205 c0.702-0.014,1.404-0.028,2.106-0.042c0.291-0.006,0.471-0.226,0.5-0.5c0.053-0.512-0.264-0.92-0.548-1.31 C25.457,27.274,25.087,26.88,24.868,26.447z"/><path fill="#010101" d="M36.595,13.31c-2.174,1.018-4.552,0.022-6.46-1.105c-1.84-1.086-3.792-2.224-5.161-3.898 c-0.182-0.222-0.516-0.158-0.707,0c-3.885,3.22-8.747,5.171-13.779,5.535c-0.08,0.006-0.15,0.027-0.21,0.059 c-0.251-0.001-0.502,0.159-0.502,0.483C9.775,18.6,10.053,22.91,11.5,26.907c0.634,1.751,1.469,3.437,2.562,4.948 c1.11,1.536,2.463,2.802,3.958,3.957c1.708,1.32,3.507,2.529,4.979,4.124c0.157,0.17,0.309,0.362,0.484,0.363 c0.175,0,0.375-0.194,0.528-0.37c0.678-0.779,1.547-1.313,2.396-1.884c0.798-0.538,1.589-1.086,2.359-1.663 c1.479-1.108,2.901-2.316,4.078-3.747c1.197-1.455,2.082-3.087,2.618-4.896c0.626-2.112,0.947-4.349,1.261-6.526 c0.177-1.224,0.314-2.456,0.338-3.694c0.024-1.222-0.151-2.469,0.268-3.645C37.49,13.425,36.953,13.142,36.595,13.31z M35.92,19.659c-0.233,2.203-0.611,4.435-1.106,6.594c-0.445,1.936-1.182,3.734-2.395,5.318c-1.124,1.468-2.532,2.714-4,3.827 c-0.82,0.622-1.666,1.208-2.519,1.783c-0.839,0.565-1.699,1.111-2.401,1.844c-2.465-2.567-5.75-4.193-8.028-6.963 c-2.421-2.943-3.675-6.68-4.246-10.403c-0.348-2.264-0.437-4.56-0.446-6.849c5.033-0.423,9.824-2.335,13.775-5.475 c1.528,1.71,3.67,2.973,5.649,4.061c1.829,1.006,3.926,1.65,5.944,1.117c-0.102,0.65-0.104,1.313-0.091,1.979 C36.077,17.552,36.032,18.605,35.92,19.659z"/></svg>