<svg xmlns="http://www.w3.org/2000/svg" x="0px" y="0px"
width="5" height="5"
viewBox="0 0 230 230"
style=" fill:#000000;"><g fill="none" fill-rule="nonzero" stroke="none" stroke-width="1" stroke-linecap="butt" stroke-linejoin="miter" stroke-miterlimit="10" stroke-dasharray="" stroke-dashoffset="0" font-family="none" font-weight="none" font-size="none" text-anchor="none" style="mix-blend-mode: normal"><path d="M0,172v-172h172v172z" fill="none"></path><g><path d="M90.69775,10.76792c-2.5155,0 -13.31925,0.97467 -15.824,1.22192c-2.01383,0.19708 -3.9775,0.74175 -5.90892,1.3545c-16.29342,5.17792 -30.86325,15.64125 -40.97183,29.42992c-11.72825,15.99958 -17.31108,36.66108 -14.00367,56.21892c2.85592,16.89542 12.05433,32.28225 23.97608,44.58742c3.40058,3.50808 7.03408,6.80475 11.02592,9.62125c12.54167,8.85442 28.33342,12.63483 43.65575,11.64583c15.32233,-0.989 30.16092,-6.56108 43.07883,-14.86008c3.33967,-2.14642 6.57183,-4.48275 9.4385,-7.224c20.14192,-19.27475 27.08642,-54.40933 18.5115,-80.65367c-0.5805,-1.77375 -1.26133,-3.51525 -2.03892,-5.21375c-4.73358,-10.31283 -11.86442,-19.61158 -20.74033,-26.70658c-5.51117,-4.43258 -11.6315,-8.04458 -17.88442,-11.34483c-10.93992,-5.76917 -21.31008,-8.07683 -32.3145,-8.07683z" fill="#df6041"></path><path d="M90.69775,8.97625c-5.05967,0.04658 -10.17308,0.65933 -15.20408,1.161c-7.48558,0.74533 -14.9425,4.09933 -21.49642,7.66117c-14.28675,7.7615 -26.31958,19.74058 -33.83025,34.185c-7.71133,14.82783 -10.77508,32.07442 -7.71133,48.57208c3.03867,16.3615 11.91458,31.22517 23.22717,43.23292c6.0415,6.41417 12.8785,12.05792 20.82992,15.93508c7.53933,3.68008 15.70933,5.87308 24.04775,6.70442c17.49383,1.74508 35.12742,-3.00283 50.37092,-11.481c7.36017,-4.09217 14.25808,-8.96192 19.72983,-15.4155c4.60817,-5.43592 8.30258,-11.58492 11.12625,-18.12092c5.77633,-13.36583 8.2345,-28.29758 6.97317,-42.81367c-0.63783,-7.34942 -2.15358,-14.71675 -5.08833,-21.50717c-3.34683,-7.75075 -8.15925,-14.93533 -13.9105,-21.10942c-6.00567,-6.45 -13.20458,-11.58492 -20.8335,-15.93867c-7.96933,-4.54725 -16.30775,-8.299 -25.38792,-9.933c-4.24267,-0.76325 -8.5355,-1.11083 -12.84267,-1.13233c-2.30767,-0.01075 -2.30767,3.57258 0,3.58333c17.74467,0.08958 34.44658,7.55008 48.29258,18.38967c12.22275,9.5675 21.50358,23.23075 24.80383,38.47067c2.90608,13.42675 2.0425,27.69558 -1.78092,40.84642c-3.90583,13.42317 -11.25167,26.54533 -22.61083,35.0235c-26.34108,19.65817 -65.73983,25.90392 -92.70442,3.9345c-12.29083,-10.01542 -22.49975,-23.71092 -27.82817,-38.68925c-5.418,-15.23275 -5.17075,-31.691 0.14692,-46.92375c5.17433,-14.82067 15.06792,-27.82817 27.76008,-37.02658c6.21708,-4.50425 13.06125,-8.16642 20.30317,-10.72133c5.62583,-1.98517 11.15492,-2.42592 17.04592,-2.89533c2.18225,-0.172 4.37883,-0.387 6.57183,-0.4085c2.30408,-0.0215 2.31125,-3.60483 0,-3.58333z" fill="#010101"></path></g></g></svg>