<svg xmlns="http://www.w3.org/2000/svg" x="0px" y="0px"
width="48" height="48"
viewBox="0 0 48 48"
style=" fill:#000000;"><path fill="#d6e5e5" d="M10.55,40.22c-0.88,2.56,2.14,4.75,4.39,5.03c2.25,0.27,5.43,0.44,6.5,0.63 c2.699,0.484,4.529,0.5,7.65-0.26c1.55-0.38,3.163,0.47,5.753-0.63c2.58-1.11,1.76-4.77,0.95-6.44c-0.8-1.68-1.493-6.4-1.493-6.4 c1.33-1.2,0.8-0.56,2.41-1.82c2.21-1.74,3.4-4.53,3.77-7.32c0.36-2.79-0.02-5.62-0.43-8.4c-0.26-1.73-0.57-3.53-1.62-4.92 c-0.56-0.74-1.3-1.31-2.04-1.88C34.58,6.4,32.75,4.99,30.67,4c-2.07-1-4.39-1.49-6.82-1.55c-2.11-0.05-4.24,0.06-6.29,0.53 c-2.06,0.46-4.07,1.4-5.47,2.99C11.31,6.86,10.74,7.93,10.21,9c-1.78,3.53-3.35,7.32-3.26,11.27c0.06,3.27,1.26,6.41,2.78,9.3 c0.3,0.57,0.63,1.15,1.12,1.57c0.53,0.44,1.22,0.66,1.9,0.89C12.53,34.16,11.27,38.15,10.55,40.22z"></path><path fill="#f58420" d="M26.946,2.896L20.71,2.693c-0.455,0.222-0.666,0.839-0.441,1.293 c0.249,0.504,0.874,0.69,1.435,0.727c-0.237,0.195-0.268,0.566-0.139,0.845c0.129,0.279,0.385,0.478,0.651,0.632 c0.346,0.2,0.749,0.342,1.142,0.271c0.393-0.071,0.757-0.41,0.745-0.809c0.255,0.493,0.896,0.747,1.42,0.563 s0.864-0.783,0.755-1.327c0.483,0.076,1.001-0.152,1.27-0.56c0.127-0.192,0.114-0.425,0.126-0.655 C27.704,3.078,27.156,2.801,26.946,2.896z"></path><path fill="#4b7bb2" d="M40.497,18.196c-0.5-0.129-0.954-0.457-1.3-0.85c-0.747-0.848-1.094-2.035-0.92-3.152 c-0.372,0.801-0.751,1.612-1.319,2.288c-0.568,0.677-1.356,1.214-2.236,1.288s-1.832-0.408-2.127-1.241 c-0.316-0.892,0.161-1.864,0.718-2.629c0.668-0.916,2.013-2.225,2.922-2.902c-1.876,1.656-4.906,3.49-7.329,2.712 c-0.272-0.087-0.558-0.21-0.7-0.458c-0.096-0.167-0.111-0.369-0.093-0.561c0.09-0.951,0.916-1.656,1.745-2.131 c1.733-0.993,3.496-1.305,5.488-1.156c-0.636-0.162-1.906-0.471-2.542-0.633c-0.773-0.197-1.556-0.397-2.252-0.786 s-1.307-0.996-1.525-1.763c-0.037-0.13-0.063-0.268-0.032-0.4c0.076-0.321,0.438-0.472,0.759-0.547 c0.994-0.231,2.189-0.321,3.161-0.009c0,0,3.852,2.636,4.683,3.529c0.831,0.893,1.98,2.425,2.274,4.72 C40.167,15.813,40.497,18.196,40.497,18.196z"></path><path fill="#4b7bb2" d="M20.3,10.972c-0.12-0.259-0.353-0.447-0.584-0.614c-1.139-0.824-2.455-1.39-3.829-1.687 c0.252-0.026,0.503-0.055,0.75-0.117c1.242-0.313,2.415-1.271,2.566-2.543c0.035-0.295,0.008-0.613-0.166-0.853 c-0.216-0.298-0.603-0.409-0.963-0.486c-1.33-0.287-2.699-0.388-4.057-0.301c0,0-2.131,1.151-3.559,4.132 c-1.429,2.981-3.3,8.471-3.34,8.961s1.011,0.735,1.717,0c0.425-0.442,0.914-1.216,1.24-1.766c0.278,0.638,0.627,1.246,1.057,1.794 c0.306,0.39,0.669,0.768,1.141,0.92c1.093,0.352,2.206-0.697,2.463-1.816c0.475-2.064-0.931-4.044-2.256-5.698 c0.96,0.67,1.981,1.252,3.047,1.737c0.81,0.368,1.675,0.685,2.564,0.65c0.889-0.035,1.811-0.492,2.169-1.307 C20.4,11.66,20.445,11.285,20.3,10.972z"></path><path fill="#febf10" d="M22.259,2.513c0,1.005,0.968,1.667,1.669,1.688c0.701,0.022,1.707-0.519,1.894-1.6L22.259,2.513z"></path><path fill="#f58420" d="M36.39,7.81c-0.618,0.356-1.234,1.713-0.878,2.331c0.124,0.215,0.305,0.392,0.501,0.544 c0.777,0.601,2.206,1.065,3.113,0.196L36.39,7.81z"></path><path fill="#f58420" d="M12.335,8.095c-0.21-0.322-0.883-0.758-1.231-0.595l-1.841,4.094 c0.943,0.453,2.173,0.202,2.863-0.584C12.817,10.224,12.906,8.971,12.335,8.095z"></path><path fill="#373837" d="M18.809,20.202c-1.421-0.588-2.98-0.395-4.365,0.274c-1.385,0.669-2.313,2.317-1.906,3.801 c0.302,1.102,1.237,1.928,2.254,2.448c0.977,0.499,2.119,0.776,3.179,0.491c1.278-0.344,2.241-1.469,2.673-2.719 c0.344-0.993,0.352-2.211-0.372-2.973C19.805,21.031,19.436,20.461,18.809,20.202z"></path><path fill="#373837" d="M31.962,21.131c-0.807-0.389-2.183-0.152-2.995,0.224c-0.498,0.231-0.886,0.647-1.2,1.097 c-0.698,1.001-1.065,2.378-0.46,3.438c0.21,0.368,0.521,0.668,0.851,0.933c1.142,0.916,2.682,1.465,4.089,1.063 c1.843-0.527,2.944-2.607,2.788-4.518c-0.042-0.519-0.178-1.064-0.554-1.424C33.9,21.389,32.686,21.48,31.962,21.131z"></path><path fill="#373837" d="M23.34,28.802c-0.903,0.516-2.558,2.081-3.164,2.927c-0.359,0.502-0.663,1.142-0.443,1.719 c0.187,0.49,0.979,0.783,1.502,0.826c0.374,0.031,0.756-0.047,1.088-0.221c0.193-0.101,0.372-0.234,0.582-0.292 c0.692-0.191,1.368,0.497,2.08,0.407c0.715-0.091,1.169-0.28,1.41-0.96c0.136-0.383-0.063-1.473-0.792-2.375 C24.959,30.036,24.199,29.364,23.34,28.802z"></path><path fill="#febf10" d="M31.155,39.023c-4.325,0.531-8.692-0.169-13.041-0.456c-0.517-0.034-1.06-0.057-1.525,0.171 c-0.465,0.228-0.973,0.72-0.767,1.195c0.225,0.294-0.184,0.626-0.216,0.995c-0.071,0.828,0.893,1.317,1.694,1.536 c4.012,1.097,8.253,1.349,12.367,0.736c0.266-0.04,0.539-0.085,0.774-0.217c0.828-0.464,0.781-1.652,0.621-2.588 C31.239,40.204,31.312,39.232,31.155,39.023z"></path><path fill="#ed2224" d="M24.426,17.462c-0.428,0.519-1.162,1.428-1.59,1.947c-0.101,0.123-0.209,0.273-0.168,0.427 c0.024,0.089,0.094,0.158,0.161,0.221c0.508,0.481,1.015,0.961,1.523,1.442c0.135-0.42,0.501-0.714,0.812-1.027 c0.311-0.313,0.596-0.734,0.5-1.165c-0.045-0.204-0.171-0.379-0.294-0.547C25.055,18.327,24.741,17.895,24.426,17.462z"></path><path fill="#f58420" d="M16.967,29.535c-0.272-0.087-0.499-0.034-0.732,0.132c-0.434,0.309-0.533,0.992-0.214,1.418 c0.32,0.426,0.994,0.524,1.427,0.215c0.434-0.309,0.563-0.969,0.287-1.424C17.564,29.592,17.284,29.637,16.967,29.535z"></path><path fill="#f58420" d="M30.461,30.275c-0.614-0.14-1.28-0.118-1.49,0.475c-0.21,0.593,0.258,1.312,0.882,1.391 c0.624,0.08,1.245-0.459,1.289-1.087C31.172,30.626,30.88,30.371,30.461,30.275z"></path><path fill="#d03827" d="M24.051,24.845c-0.372-0.134-0.647-0.301-0.964-0.065c-0.318,0.236-0.479,0.631-0.551,1.02 c-0.046,0.249-0.058,0.523,0.073,0.739c0.081,0.135,0.211,0.234,0.35,0.308c0.468,0.249,1.087,0.21,1.491-0.132 c0.405-0.342,0.539-0.982,0.267-1.436C24.558,25.01,24.346,24.951,24.051,24.845z"></path><path fill="#010101" d="M40.542,14.534c-0.208-1.396-0.441-2.677-0.945-3.818c-0.004-0.011-0.009-0.02-0.013-0.031 c-0.204-0.457-0.448-0.893-0.759-1.301c-0.602-0.791-1.375-1.391-2.124-1.97c-1.106-0.857-2.244-1.72-3.441-2.503 c-0.041-0.04-0.091-0.07-0.146-0.095c-0.716-0.462-1.448-0.902-2.222-1.273c-1.504-0.721-3.167-1.193-4.955-1.426 c-0.01-0.002-0.018-0.009-0.028-0.011c-0.01-0.002-0.02,0.002-0.03,0.001c-0.655-0.083-1.325-0.138-2.014-0.154 c-2.461-0.063-4.563,0.116-6.419,0.536c-1.361,0.307-2.578,0.792-3.624,1.423c-0.029,0.013-0.053,0.03-0.079,0.048 c-0.777,0.479-1.461,1.037-2.023,1.675c-0.828,0.939-1.422,2.064-1.96,3.136c-1.301,2.594-2.608,5.568-3.103,8.698 c-0.029,0.075-0.038,0.153-0.03,0.231c-0.123,0.852-0.199,1.712-0.181,2.582c0.06,2.885,0.989,6,2.843,9.522 c0.321,0.609,0.681,1.243,1.24,1.714c0.429,0.362,0.922,0.584,1.425,0.765c0.131,1.32-0.245,2.855-0.692,4.331 c-0.124,0.41-0.275,0.822-0.426,1.234c-0.523,1.432-1.064,2.911-0.622,4.436c0.405,1.397,1.64,2.566,3.302,3.128 c1.433,0.484,2.988,0.493,4.361,0.501c0.953,0.005,1.875,0.229,2.851,0.467c0.988,0.241,2.012,0.49,3.082,0.496 c0.018,0,0.035,0,0.053,0c1.256,0,2.542-0.23,3.786-0.453c1.217-0.218,2.48-0.444,3.656-0.438c1.698,0.009,3.357-0.101,4.384-0.969 c0.939-0.795,1.421-2.181,1.289-3.709c-0.085-0.975-0.381-1.9-0.667-2.795c-0.083-0.263-0.167-0.524-0.245-0.787l-0.119-0.397 c-0.587-1.962-0.977-3.294-0.897-5.309c0.033-0.02,0.065-0.041,0.098-0.061c0.11-0.026,0.207-0.087,0.281-0.176 c0.536-0.329,1.084-0.669,1.585-1.061c2.128-1.667,3.534-4.382,3.959-7.646C41.337,20.28,40.977,17.44,40.542,14.534z M38.422,13.717c-0.243-0.071-0.494,0.043-0.599,0.268c-0.354,0.76-0.719,1.546-1.248,2.178c-0.546,0.65-1.236,1.056-1.896,1.111 c-0.703,0.051-1.413-0.34-1.613-0.909c-0.202-0.569,0.017-1.299,0.65-2.167c0.446-0.612,1.269-1.473,2.041-2.158 c0.271-0.208,0.485-0.388,0.663-0.54c0.442,0.208,0.949,0.363,1.466,0.363c0.341,0,0.679-0.075,1-0.226 c0.323,0.915,0.502,1.942,0.667,3.048c0.136,0.909,0.258,1.788,0.357,2.651c-0.118-0.094-0.232-0.197-0.339-0.317 c-0.653-0.742-0.953-1.769-0.802-2.745C38.809,14.025,38.66,13.789,38.422,13.717z M32.676,5.726 c1.016,0.662,1.992,1.386,2.945,2.121c-0.224,0.274-0.416,0.614-0.546,0.976c-0.271-0.068-0.582-0.145-0.897-0.222l-1.251-0.312 c-0.731-0.187-1.488-0.378-2.13-0.738c-0.387-0.217-1.069-0.694-1.288-1.463c-0.032-0.111-0.027-0.146-0.027-0.148 c0.004-0.014,0.089-0.106,0.387-0.175C30.919,5.519,31.931,5.511,32.676,5.726z M34.931,9.9c0.023,0.175,0.064,0.343,0.149,0.49 c0.109,0.188,0.266,0.361,0.451,0.528c-0.135,0.112-0.277,0.232-0.422,0.361c-1.855,1.423-4.225,2.543-6.05,1.956 c-0.087-0.027-0.351-0.111-0.419-0.23c-0.029-0.051-0.04-0.147-0.028-0.265c0.073-0.775,0.854-1.376,1.495-1.744 C31.563,10.16,33.109,9.821,34.931,9.9z M38.029,9.99c0.176,0.231,0.323,0.479,0.459,0.735c-0.705,0.351-1.665-0.048-2.169-0.436 c-0.175-0.135-0.297-0.265-0.373-0.398c-0.068-0.117-0.054-0.438,0.103-0.826c0.105-0.258,0.236-0.46,0.361-0.607 C37.001,8.921,37.586,9.409,38.029,9.99z M27.044,3.386c0.045,0.024,0.139,0.094,0.131,0.261l-0.005,0.11 c-0.004,0.122-0.009,0.248-0.04,0.296c-0.159,0.243-0.485,0.392-0.773,0.341c-0.159-0.021-0.324,0.029-0.439,0.148 c-0.113,0.118-0.161,0.284-0.129,0.444c0.061,0.301-0.142,0.654-0.432,0.757c-0.294,0.105-0.668-0.049-0.809-0.32 c-0.108-0.207-0.341-0.314-0.569-0.255c-0.226,0.059-0.381,0.265-0.375,0.498c0.004,0.122-0.162,0.272-0.335,0.303 c-0.282,0.056-0.588-0.088-0.804-0.213c-0.235-0.136-0.381-0.269-0.446-0.41c-0.047-0.101-0.03-0.219,0.003-0.247 c0.158-0.13,0.222-0.344,0.158-0.539c-0.063-0.195-0.238-0.332-0.442-0.346c-0.248-0.017-0.844-0.093-1.02-0.45 c-0.049-0.098-0.052-0.225-0.01-0.349s0.125-0.226,0.223-0.273c0.068-0.033,0.122-0.081,0.167-0.136 c0.235-0.014,0.469-0.029,0.713-0.037c0.233,1.01,1.211,1.706,2.101,1.733c0.02,0,0.038,0.001,0.057,0.001 c0.838,0,1.812-0.566,2.204-1.529c0.14,0.021,0.277,0.047,0.415,0.071C26.705,3.365,26.877,3.42,27.044,3.386z M25.117,3.045 c-0.287,0.433-0.782,0.657-1.147,0.657c-0.009,0-0.018,0-0.026-0.001c-0.363-0.011-0.865-0.3-1.079-0.748 c0.323,0,0.635-0.007,0.976,0.001C24.276,2.965,24.696,3.007,25.117,3.045z M12.47,6.298c0.512-0.582,1.101-1.048,1.713-1.434 c1.268-0.069,2.544,0.027,3.787,0.296c0.278,0.06,0.551,0.136,0.663,0.291c0.074,0.102,0.101,0.279,0.074,0.5 c-0.133,1.109-1.229,1.875-2.192,2.117c-0.179,0.045-0.36,0.078-0.544,0.102c-1.032-0.221-2.095-0.288-3.138-0.199 c-0.028-0.049-0.048-0.101-0.079-0.148c-0.155-0.238-0.506-0.541-0.901-0.715C12.044,6.826,12.245,6.553,12.47,6.298z M8.905,13.095c0.075,0.877,0.276,1.743,0.604,2.56c-0.148,0.622-0.772,1.392-1.362,1.638c-0.157,0.067-0.328,0.081-0.466,0.065 C7.934,15.898,8.374,14.468,8.905,13.095z M9.873,12.273c0.132,0.018,0.264,0.042,0.397,0.042c0.755,0,1.503-0.294,2.051-0.813 c1.19,1.515,2.328,3.243,1.929,4.98c-0.126,0.548-0.506,1.07-0.966,1.332c-0.295,0.167-0.582,0.207-0.857,0.12 c-0.369-0.12-0.675-0.465-0.9-0.753C10.439,15.794,9.854,14.034,9.873,12.273z M12.956,10.605c0.211-0.492,0.285-1.041,0.221-1.574 c0.874,0.132,1.809,0.245,2.744,0.152c1.258,0.291,2.46,0.827,3.501,1.579c0.167,0.122,0.352,0.265,0.424,0.419 c0.07,0.152,0.054,0.374-0.043,0.594c-0.29,0.661-1.078,0.983-1.73,1.009c-0.811,0.045-1.638-0.288-2.337-0.605 C14.767,11.738,13.836,11.204,12.956,10.605z M10.653,9.223c0.214-0.427,0.433-0.843,0.663-1.249 c0.154,0.024,0.492,0.228,0.6,0.394c0.445,0.685,0.373,1.7-0.166,2.313c-0.487,0.555-1.339,0.75-2.042,0.527 C10.016,10.526,10.333,9.86,10.653,9.223z M35.106,38.013c0.08,0.27,0.166,0.538,0.252,0.806c0.281,0.882,0.548,1.714,0.623,2.578 c0.104,1.205-0.247,2.273-0.939,2.858c-0.886,0.751-2.813,0.744-3.731,0.732c-1.283,0.003-2.577,0.228-3.839,0.453 c-1.201,0.215-2.442,0.438-3.609,0.438c-0.016,0-0.031,0-0.047,0c-0.954-0.005-1.876-0.229-2.852-0.468 c-0.988-0.24-2.011-0.489-3.081-0.495c-1.36-0.008-2.768-0.016-4.047-0.448c-1.353-0.457-2.348-1.376-2.661-2.46 c-0.352-1.209,0.111-2.474,0.601-3.813c0.157-0.431,0.313-0.86,0.443-1.288c0.397-1.309,0.746-2.673,0.769-3.954 c0.907,0.786,1.13,2.193,1.025,3.254c-0.015,0.143-0.033,0.285-0.052,0.429c-0.08,0.62-0.163,1.261,0.05,1.91 c0.208,0.635,0.665,1.14,1.334,1.521c0.008,0.022,0.009,0.043,0.019,0.065c0.004,0.008,0.007,0.016,0.011,0.022 c-0.018,0.04-0.044,0.092-0.063,0.131c-0.081,0.16-0.182,0.359-0.202,0.601c-0.08,0.93,0.671,1.681,2.061,2.062 c2.619,0.716,5.358,1.078,8.091,1.078c1.503,0,3.004-0.109,4.481-0.33c0.325-0.049,0.642-0.106,0.944-0.274 c0.803-0.45,1.101-1.418,0.901-2.866c0.184-0.117,0.361-0.246,0.528-0.394c1.371-1.212,1.631-3.014,1.883-4.757 c0.052-0.364,0.107-0.733,0.171-1.097c0.163,1.094,0.461,2.106,0.82,3.309L35.106,38.013z M30.198,42.548 c-0.155,0.086-0.366,0.123-0.604,0.159c-0.414,0.061-0.831,0.108-1.248,0.151l0.15-1.443c0.741-0.051,1.465-0.167,2.132-0.404 C30.696,41.817,30.56,42.345,30.198,42.548z M16.203,40.737c0.034-0.068,0.074-0.157,0.11-0.253 c0.43,0.135,0.915,0.245,1.483,0.325c0.387,0.054,0.776,0.095,1.165,0.143l-0.166,1.364c-0.457-0.101-0.912-0.211-1.362-0.334 c-0.638-0.175-1.368-0.544-1.328-1.012C16.108,40.923,16.163,40.815,16.203,40.737z M19.953,41.075 c0.549,0.059,1.099,0.104,1.649,0.149l-0.22,1.347c-0.012,0.075,0.003,0.138,0.03,0.197c-0.547-0.071-1.092-0.157-1.633-0.258 L19.953,41.075z M22.393,42.767c0.081-0.127,0.083-0.254,0.03-0.366l0.179-1.096c0.679,0.046,1.358,0.082,2.037,0.107 c-0.024,0.411-0.034,0.824-0.014,1.238c0.007,0.153,0.087,0.281,0.201,0.368c-0.849-0.012-1.697-0.063-2.542-0.147 C22.32,42.835,22.367,42.807,22.393,42.767z M25.623,42.601c-0.019-0.391-0.008-0.78,0.015-1.168c0.467,0.01,0.934,0.025,1.4,0.025 c0.087,0,0.175-0.001,0.263-0.001c0.062,0,0.124-0.003,0.187-0.003l-0.144,1.38c-0.004,0.038,0.006,0.072,0.01,0.108 c-0.643,0.045-1.288,0.072-1.934,0.075C25.547,42.92,25.632,42.772,25.623,42.601z M30.723,39.888 c-0.638,0.316-1.374,0.459-2.122,0.519l0.074-0.715c0.69-0.019,1.38-0.05,2.068-0.12C30.741,39.681,30.733,39.795,30.723,39.888z M27.591,40.452c-0.098,0.001-0.198,0.004-0.295,0.004c-0.516,0.002-1.034-0.012-1.551-0.022c0.04-0.257,0.09-0.511,0.149-0.765 c0.591,0.026,1.183,0.029,1.775,0.031L27.591,40.452z M24.74,40.411c-0.659-0.023-1.317-0.056-1.976-0.099l0.138-0.846 c0.659,0.055,1.319,0.099,1.983,0.141C24.827,39.874,24.779,40.142,24.74,40.411z M21.764,40.232 c-0.564-0.046-1.128-0.092-1.691-0.152l0.102-0.843c0.392,0.034,0.785,0.061,1.177,0.096c0.182,0.016,0.368,0.031,0.55,0.047 L21.764,40.232z M19.081,39.959c-0.382-0.047-0.765-0.086-1.146-0.14c-0.604-0.085-1.103-0.201-1.517-0.349 c0.094-0.098,0.229-0.203,0.392-0.284c0.34-0.166,0.775-0.154,1.271-0.12c0.366,0.024,0.732,0.061,1.098,0.09L19.081,39.959z M39.98,22.948c-0.101,0.773-0.262,1.509-0.475,2.205c-0.619-0.379-1.416-0.448-2.072-0.118c-0.814,0.412-1.291,1.363-1.132,2.261 l0.036,0.179c0.021,0.094,0.045,0.2,0.035,0.248c-0.002,0.011-0.018,0.068-0.132,0.176c-0.115,0.106-0.248,0.192-0.393,0.256 c-0.003-0.048-0.013-0.095-0.029-0.142c-0.095-0.261-0.384-0.39-0.642-0.298c-0.135,0.05-0.361,0.133-0.528,0.33 c-0.263,0.308-0.251,0.769,0.023,1.025c0.208,0.197,0.469,0.203,0.572,0.206c0.011,0,0.021,0,0.032,0 c0.604,0,1.201-0.234,1.645-0.646c0.241-0.225,0.383-0.459,0.433-0.714c0.051-0.253,0-0.479-0.04-0.659l-0.028-0.134 c-0.081-0.46,0.182-0.984,0.598-1.195c0.401-0.203,0.95-0.111,1.277,0.199c-0.637,1.571-1.576,2.878-2.764,3.809 c-0.491,0.385-1.056,0.731-1.605,1.066c-0.334,0.052-0.579,0.234-0.764,0.479c-0.982,0.63-1.916,1.342-2.492,2.409 c-0.132,0.242-0.041,0.546,0.202,0.677c0.075,0.041,0.156,0.061,0.237,0.061c0.178,0,0.35-0.095,0.439-0.263 c0.242-0.448,0.586-0.816,0.969-1.156c-0.17,0.672-0.279,1.372-0.377,2.053c-0.216,1.498-0.43,2.916-1.305,3.89 c-0.029-0.175-0.073-0.331-0.146-0.429c-0.107-0.144-0.291-0.221-0.461-0.196c-3.187,0.39-6.474,0.098-9.653-0.188 c-1.099-0.099-2.197-0.197-3.294-0.27c-0.617-0.041-1.218-0.055-1.778,0.222c-0.334,0.164-0.642,0.411-0.847,0.703 c-0.273-0.215-0.464-0.464-0.561-0.758c-0.142-0.434-0.077-0.938-0.008-1.47c0.02-0.153,0.039-0.307,0.054-0.458 c0.087-0.866-0.024-1.921-0.443-2.839c0.185,0.073,0.403,0.033,0.546-0.121c0.189-0.2,0.181-0.517-0.021-0.706 c-0.627-0.592-1.419-0.845-2.185-1.09c-0.653-0.208-1.27-0.405-1.731-0.795c-0.422-0.354-0.714-0.872-1-1.415 c-0.603-1.147-1.093-2.228-1.491-3.269c0.333-0.208,0.778-0.249,1.133-0.084c0.379,0.174,0.655,0.57,0.689,0.986 c0.009,0.11,0.003,0.222-0.001,0.333c-0.005,0.132-0.009,0.263-0.001,0.396c0.037,0.656,0.362,1.298,0.87,1.715 c0.2,0.164,0.395,0.262,0.597,0.299c0.063,0.012,0.128,0.018,0.194,0.018c0.104,0,0.209-0.015,0.315-0.044 c0.483-0.131,0.873-0.549,0.97-1.039c0.054-0.271-0.123-0.534-0.394-0.587c-0.276-0.058-0.534,0.122-0.587,0.394 c-0.024,0.12-0.132,0.235-0.318,0.274c-0.011-0.002-0.053-0.014-0.143-0.088c-0.296-0.242-0.485-0.615-0.507-0.997 c-0.006-0.102-0.001-0.203,0.003-0.304c0.005-0.15,0.01-0.3-0.003-0.449c-0.063-0.777-0.56-1.489-1.268-1.814 c-0.596-0.276-1.299-0.24-1.887,0.049c-0.569-1.709-0.868-3.308-0.9-4.865c-0.013-0.647,0.035-1.289,0.107-1.93 c0.073,0.009,0.143,0.033,0.217,0.033c0.273,0,0.543-0.058,0.765-0.151c0.28-0.117,0.553-0.303,0.807-0.525l-0.222,1.205 c-0.137,0.735-0.322,1.741,0.122,2.623c0.066,0.131,0.177,0.32,0.37,0.461c0.167,0.12,0.365,0.183,0.574,0.183 c0.072,0,0.146-0.007,0.22-0.022c0.328-0.067,0.626-0.277,0.797-0.562c0.208-0.347,0.264-0.782,0.171-1.332 c-0.046-0.272-0.309-0.457-0.576-0.41c-0.272,0.046-0.456,0.305-0.41,0.576c0.052,0.305,0.038,0.518-0.042,0.65 c-0.039,0.066-0.13,0.104-0.146,0.108c-0.003-0.003-0.024-0.022-0.066-0.104c-0.27-0.535-0.174-1.218-0.031-1.989l0.319-1.728 c0.104,0.152,0.205,0.305,0.318,0.45c0.313,0.399,0.752,0.884,1.381,1.087c0.195,0.063,0.395,0.095,0.595,0.095 c0.356,0,0.717-0.1,1.063-0.296c0.703-0.399,1.257-1.157,1.446-1.978c0.107-0.466,0.124-0.923,0.082-1.371 c0.017,0.025,0.03,0.054,0.047,0.078c0.751,1.063,2.035,1.676,3.32,1.675c0.47,0,0.94-0.082,1.384-0.254 c0.183-0.07,0.417-0.178,0.604-0.383c0.414-0.46,0.367-1.218-0.1-1.653c-0.395-0.371-1.032-0.457-1.549-0.21 c-0.25,0.119-0.355,0.417-0.236,0.666c0.119,0.25,0.417,0.354,0.666,0.236c0.148-0.07,0.338-0.055,0.436,0.038 c0.069,0.064,0.083,0.207,0.041,0.252c-0.049,0.055-0.175,0.104-0.223,0.122c-1.221,0.47-2.77,0.004-3.526-1.065 c-0.136-0.193-0.25-0.401-0.365-0.609c-0.178-0.321-0.361-0.653-0.621-0.956l-0.118-0.132c-0.069-0.077-0.133-0.158-0.19-0.27 c0.148,0.072,0.295,0.149,0.445,0.218c0.806,0.366,1.756,0.734,2.79,0.695c1.177-0.047,2.2-0.678,2.607-1.606 c0.213-0.485,0.226-1.001,0.034-1.416c-0.165-0.355-0.455-0.599-0.744-0.809c-0.545-0.393-1.138-0.715-1.75-0.998 c0.138-0.032,0.269-0.072,0.392-0.11c0.085-0.026,0.17-0.054,0.256-0.075c0.654-0.163,1.388-0.007,1.915,0.418 c0.092,0.074,0.203,0.11,0.313,0.11c0.146,0,0.291-0.063,0.39-0.187c0.173-0.215,0.139-0.529-0.076-0.703 c-0.705-0.567-1.66-0.791-2.549-0.638c0.417-0.464,0.719-1.032,0.799-1.699c0.058-0.479-0.031-0.896-0.257-1.205 c-0.352-0.487-0.968-0.619-1.263-0.682c-0.653-0.141-1.314-0.235-1.978-0.289c0.518-0.184,1.017-0.327,1.463-0.428 c0.667-0.151,1.367-0.257,2.092-0.342c-0.117,0.366-0.097,0.759,0.064,1.082c0.212,0.43,0.618,0.735,1.173,0.894 c-0.02,0.221,0.018,0.453,0.117,0.668c0.154,0.333,0.434,0.613,0.854,0.854c0.411,0.238,0.808,0.357,1.181,0.357 c0.102,0,0.201-0.009,0.3-0.026c0.319-0.057,0.603-0.22,0.809-0.441c0.425,0.26,0.961,0.342,1.435,0.175 c0.576-0.203,0.988-0.726,1.088-1.312c0.478-0.085,0.919-0.362,1.188-0.772c0.186-0.281,0.196-0.575,0.208-0.905 c0.002-0.031-0.006-0.06-0.007-0.09c0.797,0.227,1.571,0.494,2.293,0.84c0.1,0.048,0.195,0.109,0.294,0.159 c-0.439,0.044-0.827,0.118-1.11,0.184c-0.801,0.185-1.059,0.602-1.135,0.922c-0.059,0.255-0.006,0.492,0.039,0.649 c0.17,0.596,0.549,1.139,1.081,1.587c-0.732-0.084-1.471-0.075-2.068,0.066c-0.269,0.063-0.436,0.332-0.372,0.601 c0.063,0.269,0.331,0.443,0.601,0.372c0.978-0.226,2.58-0.021,3.482,0.409c-0.566,0.194-1.122,0.423-1.662,0.733 c-1.231,0.706-1.901,1.553-1.993,2.517c-0.032,0.331,0.021,0.619,0.157,0.857c0.231,0.403,0.646,0.578,0.981,0.686 c1.032,0.33,2.117,0.237,3.146-0.066c-1.075,0.927-2.745,1.91-3.677,2.085c-0.198,0.036-0.424,0.065-0.593,0.01 c-0.106-0.034-0.181-0.117-0.184-0.158c-0.002-0.035,0.045-0.113,0.125-0.158c0.109-0.061,0.268-0.084,0.477-0.068 c0.271,0.024,0.515-0.188,0.535-0.463c0.02-0.275-0.188-0.515-0.463-0.535c-0.402-0.024-0.75,0.035-1.033,0.192 c-0.416,0.23-0.667,0.661-0.639,1.096c0.029,0.465,0.379,0.885,0.871,1.046c0.18,0.059,0.362,0.08,0.536,0.08 c0.2,0,0.389-0.028,0.551-0.059c0.968-0.181,2.5-1.029,3.686-1.943c-0.131,0.516-0.128,1.003,0.031,1.452 c0.358,1.008,1.462,1.673,2.641,1.571c0.933-0.079,1.843-0.595,2.567-1.455c0.013,0.018,0.022,0.039,0.036,0.055l0.109,0.354 c0.39,1.255,0.792,2.553,0.811,3.861c0.003,0.242-0.027,0.304-0.039,0.318c-0.014,0.015-0.081,0.056-0.213,0.047 c-0.286-0.004-0.573-0.162-0.755-0.393c0.007-0.013,0.013-0.026,0.018-0.04c0.098-0.259-0.033-0.547-0.291-0.645 c-0.312-0.12-0.67,0.026-0.813,0.331c-0.052,0.111-0.06,0.238-0.024,0.356c0.243,0.795,1.022,1.379,1.852,1.39 c0.008,0,0.016,0,0.023,0c0.398,0,0.737-0.139,0.958-0.392c0.258-0.298,0.288-0.666,0.284-0.987 c-0.019-1.331-0.378-2.588-0.753-3.806c0.095,0.138,0.177,0.286,0.288,0.413c0.352,0.4,0.773,0.702,1.209,0.883 C40.153,20.049,40.169,21.496,39.98,22.948z"></path><path fill="#010101" d="M18.101,27.697c1.338-0.359,2.493-1.524,3.016-3.039c0.364-1.054,0.43-2.521-0.482-3.479 c-0.105-0.112-0.206-0.229-0.307-0.344c-0.364-0.419-0.74-0.853-1.327-1.095c-1.452-0.602-3.148-0.5-4.774,0.285 c-1.669,0.807-2.623,2.731-2.171,4.383c0.304,1.109,1.195,2.09,2.51,2.761c0.643,0.328,1.535,0.662,2.508,0.662 C17.407,27.831,17.753,27.791,18.101,27.697z M13.02,24.145c-0.323-1.182,0.413-2.625,1.642-3.219 c0.788-0.381,1.589-0.572,2.354-0.572c0.561,0,1.102,0.103,1.603,0.311c0,0,0,0,0.001,0c0.368,0.152,0.64,0.465,0.954,0.827 c0.11,0.126,0.221,0.253,0.337,0.376c0.603,0.634,0.53,1.688,0.262,2.465c-0.416,1.205-1.309,2.125-2.33,2.399 c-0.816,0.221-1.819,0.058-2.821-0.453C14.405,25.965,13.328,25.271,13.02,24.145z"></path><path fill="#010101" d="M34.827,21.583c-0.451-0.431-1.123-0.554-1.715-0.661c-0.359-0.065-0.697-0.127-0.934-0.24 c-0.936-0.453-2.463-0.226-3.423,0.221c-0.515,0.239-0.972,0.653-1.399,1.265c-0.73,1.05-1.242,2.644-0.484,3.972 c0.278,0.487,0.688,0.848,0.974,1.075c1.061,0.851,2.281,1.305,3.431,1.305c0.38,0,0.753-0.05,1.108-0.151 c2.177-0.622,3.311-3.051,3.148-5.039C35.471,22.549,35.239,21.979,34.827,21.583z M32.109,27.406 c-1.12,0.319-2.48-0.044-3.639-0.972c-0.351-0.282-0.582-0.533-0.729-0.792c-0.527-0.924-0.095-2.142,0.436-2.903 c0.323-0.463,0.65-0.768,1-0.93c0.484-0.225,1.162-0.377,1.745-0.377c0.318,0,0.607,0.046,0.822,0.149h0.001 c0.357,0.173,0.779,0.249,1.188,0.323c0.477,0.087,0.969,0.177,1.203,0.4c0.225,0.215,0.359,0.586,0.401,1.103 C34.666,24.995,33.793,26.925,32.109,27.406z"></path><path fill="#010101" d="M25.52,20.823c0.671-0.677,0.714-1.258,0.632-1.627c-0.069-0.309-0.247-0.553-0.377-0.73 l-0.944-1.298c-0.091-0.125-0.234-0.201-0.39-0.206c-0.153-0.008-0.303,0.063-0.4,0.183l-1.591,1.948 c-0.103,0.125-0.375,0.458-0.264,0.876c0.063,0.228,0.218,0.374,0.3,0.451l1.522,1.442c0.094,0.089,0.218,0.137,0.344,0.137 c0.041,0,0.083-0.005,0.124-0.016c0.167-0.043,0.3-0.168,0.353-0.332c0.072-0.227,0.288-0.436,0.518-0.657L25.52,20.823z M24.809,20.12l-0.159,0.155c-0.137,0.133-0.282,0.273-0.414,0.434l-1.034-0.956c0.006-0.008,0.013-0.016,0.021-0.025l1.182-1.447 l0.563,0.773c0.088,0.12,0.187,0.256,0.21,0.361C25.215,19.589,25.081,19.846,24.809,20.12z"></path><path fill="#010101" d="M22.438,11.063c0.095,0.004,0.189,0.006,0.284,0.006c0.408,0,0.808-0.037,1.203-0.08 c-0.002,1.218,0.024,2.449,0.059,3.577c0.009,0.271,0.23,0.484,0.5,0.484c0.005,0,0.011,0,0.016,0 c0.276-0.009,0.493-0.239,0.484-0.516c-0.036-1.151-0.063-2.409-0.059-3.648c0.355-0.033,0.706-0.056,1.052-0.04 c0.266,0.006,0.51-0.204,0.521-0.479c0.012-0.275-0.202-0.509-0.479-0.521c-0.365-0.015-0.727,0.005-1.086,0.036 c0.01-0.461,0.024-0.917,0.048-1.354c0.016-0.275-0.195-0.512-0.472-0.526c-0.266-0.038-0.511,0.196-0.526,0.472 c-0.027,0.488-0.044,0.994-0.054,1.509c-0.496,0.055-0.975,0.103-1.45,0.08c-0.281,0.009-0.51,0.203-0.521,0.479 S22.162,11.05,22.438,11.063z"></path><path fill="#010101" d="M16.865,31.978c0.309,0,0.618-0.088,0.874-0.271c0.641-0.456,0.836-1.414,0.424-2.091 c-0.238-0.392-0.601-0.463-0.841-0.51c-0.064-0.013-0.133-0.024-0.203-0.048c-0.404-0.129-0.802-0.063-1.174,0.202 c-0.313,0.223-0.529,0.584-0.592,0.989c-0.063,0.409,0.034,0.823,0.269,1.135C15.911,31.771,16.389,31.978,16.865,31.978z M16.525,30.075c0.087-0.062,0.145-0.082,0.196-0.082c0.031,0,0.061,0.008,0.093,0.019c0.109,0.035,0.216,0.057,0.316,0.076 c0.065,0.013,0.154,0.03,0.178,0.048c0.143,0.233,0.069,0.601-0.15,0.757c-0.214,0.154-0.579,0.102-0.736-0.108 c-0.072-0.097-0.103-0.239-0.081-0.382C16.363,30.263,16.43,30.144,16.525,30.075z"></path><path fill="#010101" d="M30.572,29.788c-1.494-0.344-1.948,0.442-2.073,0.795c-0.147,0.418-0.088,0.892,0.163,1.3 c0.255,0.415,0.677,0.697,1.127,0.755c0.062,0.008,0.123,0.012,0.186,0.012c0.366,0,0.736-0.136,1.04-0.384 c0.367-0.302,0.596-0.729,0.627-1.177C31.686,30.447,31.275,29.948,30.572,29.788z M30.381,31.492 c-0.144,0.117-0.309,0.177-0.465,0.153c-0.151-0.02-0.306-0.129-0.402-0.287c-0.091-0.146-0.117-0.313-0.071-0.441 c0.058-0.164,0.244-0.214,0.449-0.214c0.159,0,0.329,0.03,0.458,0.06c0.307,0.07,0.299,0.192,0.294,0.257 C30.632,31.19,30.533,31.366,30.381,31.492z"></path><path fill="#010101" d="M29.179,33.972c-0.337,0.082-0.565,0.355-0.57,0.682c-0.004,0.256,0.186,0.469,0.433,0.502 c-0.036,0.222-0.091,0.404-0.195,0.539c-0.163,0.21-0.476,0.311-0.708,0.357c-1.062,0.214-2.238-0.251-2.86-1.136 c-0.053-0.076-0.106-0.168-0.153-0.264c0.714-0.1,1.409-0.337,1.742-1.276c0.212-0.592-0.062-1.853-0.873-2.857 c-0.663-0.819-1.464-1.537-2.38-2.135c-0.156-0.101-0.357-0.109-0.521-0.016c-1.007,0.575-2.696,2.195-3.322,3.07 c-0.58,0.81-0.749,1.546-0.503,2.188c0.245,0.64,1.027,0.984,1.636,1.102c-0.049,0.142-0.112,0.28-0.188,0.408 c-0.109,0.183-0.234,0.329-0.369,0.436c-0.432,0.335-1.098,0.363-1.689,0.363c-0.481,0-0.981-0.015-1.362-0.214 c-0.28-0.146-0.537-0.481-0.464-0.766c0.022-0.086,0.073-0.174,0.129-0.264c0.176,0.124,0.416,0.124,0.594-0.012 c0.21-0.161,0.292-0.434,0.211-0.694c-0.089-0.282-0.351-0.489-0.637-0.502c-0.432-0.052-0.668,0.273-0.757,0.37 c-0.187,0.204-0.414,0.486-0.509,0.852c-0.208,0.808,0.33,1.567,0.97,1.902c0.572,0.298,1.197,0.327,1.791,0.327 c0.752-0.01,1.646-0.036,2.339-0.575c0.233-0.183,0.439-0.422,0.611-0.71c0.172-0.286,0.281-0.607,0.355-0.934 c0.217-0.047,0.428-0.116,0.626-0.22c0.067-0.034,0.133-0.072,0.197-0.11c0.105-0.063,0.205-0.12,0.287-0.143 c0.199-0.058,0.467,0.049,0.771,0.17c0.075,0.03,0.154,0.06,0.233,0.09c0.05,0.323,0.184,0.657,0.416,0.986 c0.706,1.005,1.938,1.612,3.165,1.612c0.239,0,0.478-0.022,0.713-0.07c0.579-0.118,1.017-0.361,1.297-0.724 c0.353-0.45,0.407-1.02,0.448-1.438c0.011-0.118,0.031-0.337-0.085-0.556C29.844,34.028,29.514,33.889,29.179,33.972z M22.773,33.279c-0.21,0.058-0.379,0.157-0.528,0.244l-0.153,0.087c-0.247,0.13-0.535,0.188-0.815,0.166 c-0.451-0.037-0.994-0.293-1.076-0.507c-0.147-0.386,0.126-0.892,0.382-1.249c0.502-0.7,1.854-2.015,2.748-2.621 c0.719,0.503,1.353,1.09,1.886,1.748c0.657,0.814,0.765,1.718,0.708,1.894c-0.146,0.414-0.362,0.55-1.002,0.631 c-0.04,0.006-0.089-0.012-0.132-0.016c-0.055-0.034-0.117-0.058-0.185-0.069c-0.045-0.007-0.088,0.001-0.131,0.007 c-0.096-0.033-0.192-0.067-0.294-0.108C23.767,33.321,23.297,33.138,22.773,33.279z"></path><path fill="#010101" d="M24.074,24.319c-0.335-0.128-0.794-0.307-1.285,0.06c-0.377,0.279-0.635,0.739-0.745,1.33 c-0.081,0.444-0.036,0.8,0.139,1.09c0.121,0.199,0.305,0.364,0.542,0.489c0.275,0.146,0.582,0.218,0.887,0.218 c0.424,0,0.844-0.139,1.163-0.408c0.602-0.51,0.765-1.422,0.373-2.074c-0.242-0.405-0.575-0.523-0.869-0.628L24.074,24.319z M24.289,25.536c0.14,0.234,0.064,0.606-0.16,0.798c-0.241,0.201-0.635,0.229-0.937,0.07c-0.076-0.04-0.131-0.084-0.155-0.124 c-0.023-0.038-0.056-0.141-0.01-0.389c0.044-0.235,0.142-0.55,0.358-0.71c0.014-0.011,0.024-0.019,0.046-0.019 c0.037,0,0.107,0.021,0.281,0.089l0.17,0.064c0.001,0,0.061,0.021,0.062,0.021C24.199,25.429,24.238,25.451,24.289,25.536z"></path></svg>