<svg xmlns="http://www.w3.org/2000/svg"  viewBox="0 0 512 512" width="48px" height="48px"><path fill="#EF4823" d="M148,286.4c-8.8,5.7-14.5,15.7-21.5,23.2c-10.2,10.9-20.2,21.7-28.8,33.9c-7.2,10.2-13.5,20.9-19.5,31.8c0.3,0.3,0.7,0.6,1,1c0.4,0.5,0.8,0.9,1.1,1.4c12.6-19.5,28.6-36.6,43.1-54.6c5.4-6.7,10.7-13.4,16.3-20c2.3-2.7,5.7-7.7,9.6-8.8C148.5,291.6,148,288.9,148,286.4z"/><path fill="#FEBF10" d="M153.4,303.4c-0.2,0.1-0.4,0.2-0.6,0.3c-0.1,0-0.1,0.1-0.2,0.1c-0.2,0.2-0.4,0.3-0.4,0.4c-0.9,1-1.9,1.9-2.8,3c-2.2,2.5-4.4,5.1-6.6,7.8c-4.8,5.8-9.5,11.8-14.3,17.6c-13.6,16.6-28.6,32.5-40.1,50.7c-0.5,0.9-1.2,1.5-2,1.9c3.2,3.7,6.6,7.3,10,10.7c0,0,0,0,0-0.1c2.6-7.6,10.9-12.9,16.4-18.3c6.3-6.3,12.3-13,18-19.9c10.9-13.2,20.6-27.5,32.4-39.9C160,313.6,156.3,308.6,153.4,303.4z"/><path fill="#F6851F" d="M170,325.1c-11.4,12.2-20.9,26.2-31.6,39c-5.7,6.9-11.6,13.6-18,19.9c-4.7,4.7-12.7,9.7-14.9,16.2c-0.4,1.2-1.1,2-1.9,2.4c2.7,2.5,5.5,5,8.3,7.4c5.8,5,11.2,11,17.2,16.1c0-0.4,0-0.7,0-1.1c0.5-5.7,4.4-9.1,7.5-13.5c4.1-5.7,8.8-11,13-16.7c5.8-8,11-16.2,17.7-23.4c5.6-6.1,11.1-12.3,16.4-18.7c2.4-2.9,4.8-5.8,7.1-8.9c0.5-0.7,1.1-1.5,1.6-2.2C183.7,337.6,175.4,330.5,170,325.1z"/><path fill="#FEBF10" d="M152.9,303.5c-0.1,0.1-0.2,0.2-0.3,0.3c0.1,0,0.1,0,0.2-0.1C153.3,303.4,153.4,303.2,152.9,303.5z"/><path fill="#F6851F" d="M103.9,416.4c-10.7-9.3-20.7-19.3-29.6-30.3c-1.8,6.6-2.6,13.8-0.9,20.3c2.1,7.9,6.6,13.6,13.1,18.6c12.7,9.8,29.6,18.6,46.1,18c1.4-0.1,2.5,0.3,3.3,1c0.2-0.2,0.4-0.4,0.7-0.7C124,437.2,114.4,425.5,103.9,416.4z"/><path fill="#74CCCF" d="M259.7,205.8c-7.5-6.3-14.6-13-21.6-19.8c-6.6-6.4-13.5-12.7-19.5-19.8c-11.7-13.8-22.2-29-37.8-38.7c-0.5-0.3-0.9-0.7-1.2-1c1.3-2.1,2.6-4.1,4-6.2c3.4-5.4,4.1-11.5,3.4-17.7c-0.5-4.7-1.6-9.7-3.2-14.5c-0.9-3.4-2.1-6.7-3.6-9.9c-0.4,0.1-0.8,0.1-1.1,0c-1.1-1.7-2.4-3.4-3.8-4.9c-0.1-0.3-0.3-0.6-0.5-0.8l-3-3c-0.3-0.3-0.6-0.5-0.9-0.6c-1.6-1.4-3.5-2.4-5.6-2.8c1.2,9.1,0,18.3,0,27.6c0,1.7-0.6,3.7-2.2,4.5c-12.4,6.5-21.4,19.6-35.4,23.2c-15.4,4.1-26.2-12.1-39.4-16.5c-2.2-0.7-3.8-2.1-4-4.5c-0.9-8.8-1.6-17.7-1.3-26.6c-2.9,0.5-5.6,1.4-7.9,3.5c-0.6,0.5-1.2,0.9-1.8,1.1c-0.2,1.3-0.9,2.4-2.3,3c0,0.1,0,0.2-0.1,0.2c-0.4,1.3-0.7,2.5-0.9,3.8c-0.5,2.6-0.9,5.1-1.2,7.7c-0.6,4.9-0.7,9.8-0.1,14.8c1.2,11.3,5.4,21.8,14.1,29.6c8.4,7.5,18.7,13.4,30,15.1c9.3,1.4,23.6,3.2,31.8-2.7c2.8-2,5.7-0.6,7,1.8c0.7,0.3,1.4,0.8,2,1.6c5.3,6.9,13.7,10.4,20.2,16c6.9,6.1,13.1,12.8,19.7,19.1c14.4,13.7,30.1,25.8,44.2,39.9c7.6-7.4,15.2-14.8,22.6-22.3C259.8,205.8,259.7,205.8,259.7,205.8z"/><path fill="#FEBF10" d="M150.8,304c0.8,0.1,1.4-0.1,1.8-0.2c0,0,0,0,0,0C152.1,304,151.5,304,150.8,304z"/><path fill="#74CCCF" d="M477.3,309.1c-0.5-0.1-1-0.3-1.5-0.6c-6.6-4.2-13.6-8.7-21.6-9.7c-5.8-0.7-11.9,0.3-17.7,1.2c-6.9,1-24.5,2.9-25.6,12c-0.4,3.7-3.8,4.6-6.5,3.5c-1.2,0.8-2.9,1-4.6,0c-21-12.3-41.3-26.5-59.4-42.9c-17.1-15.4-32.8-33-52.6-45.1c-0.8-0.5-1.3-1-1.7-1.7c-5.3,5.6-10.6,11.3-15.9,16.8c-2.6,2.7-5.3,5.4-8,7.9c2,1.1,3,3.5,2.7,5.6c1.2,1.5,3.5,3.1,4.4,3.9c2.3,2,4.8,3.8,7.2,5.7c6.1,4.8,11.6,10.5,17.4,15.7c10,9,21,16.6,32,24.4c9.6,6.8,19.3,13.6,29.4,19.7c4.7,2.8,9.5,5.7,14.5,7.9c1.5,0.7,3,1.3,4.7,1.7c0.2,0.1,2.2,0.3,1.2,0.3c0.3,0,0.5,0,0.6,0c3.7-1.3,7.1,2,7.1,5c1.4,1.3,2.2,3.4,1.3,5.7c-13.7,36.5,48.2,75,72.4,46.8c-6.9-0.5-13.8-1.8-20.8-2c-5.9-0.2-11.8-1-15.8-5.6c-3.9-4.6-4.2-11.2-4.2-16.9c-0.1-6.2-1.1-12.7,0.7-18.8c4.9-15.7,27.5-18.5,41.3-18.6c9.4-0.1,18.7,2.4,25.4,8C484.8,327.9,485.8,316.6,477.3,309.1z"/><path fill="#FEBF10" d="M410.3,82.7c-1.1-2.4-4.7-6.6-7.1-9.1c-3.2-3.4-7-7.8-11.5-9.5c-0.1,0-0.1,0-0.1-0.1c0,0.1-0.1,0.2-0.3,0.3c-1.3,1-2.4,2.1-3.4,3.3c-1.9,2.3-3.6,4.8-5.4,7.2c-2,2.9-4.5,5.1-7.2,7.3c-2.8,2.4-7,5.1-8.7,8.5c-3.2,6.9-2,14.8-2.7,22.2c-0.1,1.3-0.6,2.2-1.3,2.9c0,0.1-0.1,0.3-0.1,0.4c-0.3,0.7-0.8,1.3-1,2c-0.8,2.3-2.6,3.1-4.5,2.8c-11.2,9-20.3,20.6-30.6,30.5c-11.9,11.5-23.8,22.8-34.9,35.2c-22,24.6-46.2,47.2-69.6,70.5c0,0,0,0,0,0c3.8,3.5,7.4,7.1,11.1,10.7c6.9-12.1,18.8-20.6,28.3-30.5c12.2-12.8,24.3-25.8,36.4-38.6c12.3-13,24.2-26.3,36-39.8c5.8-6.6,11.4-13.6,17.6-19.9c5.5-5.6,11.3-11,16.9-16.5c1-1,2.1-1.4,3.3-1.5c5.3-3.3,11.8-4.3,16.5-8.8c4.7-4.5,8.7-9.8,13.2-14.5C403.9,95,412.4,87.4,410.3,82.7z"/><path fill="#EF4823" d="M202.2,344.8c-1.7,4-5.8,8-7.8,10.5c-5.3,6.6-10.9,13-16.6,19.2c-2.3,2.5-4.5,5-6.8,7.4c-3.8,3.9-6.5,9-9.6,13.5c-4.2,5.9-8.6,11.8-13.1,17.5c-3.1,3.9-8.9,8.8-9.3,14c-0.2,2.6-1.9,3.8-3.8,3.9c2,1.4,4,2.6,6.2,3.6c1,0.5,1.7,1.2,2.2,2c20.3-20.7,39.9-42.3,56.1-66.3c4.3-6.4,10.5-13.9,12.2-21.5c0.4-1.7,0.6-3.4,0.6-5.1C209.2,345,205.8,345.3,202.2,344.8z"/><path fill="#FEBF10" d="M240.6,292c-3.4-8.5-12.2-13.7-18.2-20.3c-4.9-5.4-10.6-10-15.6-15.3c-2.4-2.6-6.6-6.5-8.4-10.7c-0.3,0.1-0.7,0.2-1.1,0.2c-4,0.4-10.7,1.2-12.5,5.7c-1.2,3.2,0.7,6.8,2.5,9.4c3.6,5,7.6,9.7,11.7,14.3c5.5,6,11.3,11.8,17.7,16.9c4.8,3.8,10.7,8.3,17,9C238.2,301.6,242.5,296.9,240.6,292z"/><path fill="#F6851F" d="M217.2,304.7c-13.3-8.9-24.7-20.9-34.6-33.4c-0.4-0.5-0.7-0.9-1.1-1.4c-4,3.3-8.1,6.5-12.8,8.9c-2.7,1.4-5.6,2.2-8.5,2.9c-1.3,1.1-1.8,2.5-1.8,4c0,3.2,0.9,6.2,2.1,9.1c3.4,8.1,9,15.4,15.1,21.7c6.2,6.4,13.2,12.5,21.3,16.1c5.3,2.4,10.5,3.4,14-0.4c0,0,0,0,0,0c-1.1-6.3-1.7-12.9,0.9-18.9C213.1,310.1,215.1,307.3,217.2,304.7z"/><path d="M152.7,303.8C152.6,303.8,152.6,303.8,152.7,303.8c0.1,0,0.1,0,0.2-0.1C152.8,303.7,152.7,303.7,152.7,303.8z"/><path d="M494.3,322.1c-0.6-10.9-6.9-19.1-16-24.6c-0.9-0.5-1.7-0.7-2.4-0.7c-6.6-3.9-13.4-7-21.2-8c-7.2-0.9-14.8,0.5-21.9,1.6c-9.8,1.6-25.5,4.8-30.3,15c-20.2-11.9-39.3-25.8-56.7-41.5c-17.3-15.6-33.1-32.9-53.1-45.1c4.2-4.5,8.4-8.9,12.6-13.4c11.9-12.5,23.4-25.4,34.7-38.3c5.8-6.7,11.5-13.5,17.6-19.9c4.9-5.2,10.1-10,15.2-15c0.7-0.1,1.3-0.5,2-1c3.2-2.7,7.7-3.8,11.5-5.7c3.9-2,7.2-4.5,10.3-7.5c2.9-2.7,5.2-6,7.8-8.9c2.9-3.3,6-6.3,8.8-9.6c4.9-5.8,8.3-12.4,6.5-20.1c-1.2-5.2-7.3-10.5-10.7-14.1c-4.1-4.3-9-9.1-14.8-10.8c-7.1-2.1-12.6,4.8-16.4,9.8c-2.3,3-4.1,6.2-7,8.7c-3.6,3.1-7.3,6.1-10.6,9.6c-7.1,7.6-5.4,18.7-6.2,28.2c-12.2,9.1-21.9,21.2-32.7,31.8c-12.2,12-24.9,23.4-36.2,36.3c-6,6.8-12.1,13.5-18.4,20c-0.2-0.2-0.3-0.3-0.5-0.5c-15-12.6-30.1-26.4-42.6-41.5c-10.5-12.7-20.5-25.5-33.8-35.1c0.3-0.1,0.6-0.3,0.9-0.5c7.1-4.8,4.5-15.9,4.2-23.4c-2.8-9.2-2.5-19.6-8-27.5c-2.4-3.5-5.4-6.4-8.6-9.2c-0.4,0.1-0.7,0.2-1.1,0.3c-5-4.4-11.4-6.6-18.7-5.4c-3.3,0.5-5.2,3.3-4.3,6.6c2.5,9.2,1.2,18.9,0.8,28.4c-10.1,6.1-17.9,16.1-29,20.3c-6.1,2.3-12.8-2.7-17.6-5.8c-4.9-3.2-9.5-6.6-14.8-9C92.8,87.4,92,78.1,92.9,69c0.3-3-1.8-6.4-5.3-5.9c-7.9,1.1-14.4,2.1-20.4,7.7c-0.6,0.5-1,1.1-1.2,1.7c-4.6,1.3-5.6,8.4-6.4,12.2c-1.2,6.1-1.7,12.4-1.6,18.6c0.3,14.8,5.1,28.5,15.3,39.3c9.3,9.9,22.7,17.3,36,19.6c10.8,1.9,26,3.3,36.7-1.8c4.8,5.6,11,9.3,17,13.6c7.7,5.5,14.1,12.9,20.8,19.5c13.5,13.3,28.5,25,42.3,38c-0.1,1.9,0.9,4,2.7,5c-4.7,4.6-9.5,9.2-14.2,13.9c-0.7-0.7-1.4-1.4-2.1-2.1c-1.3-1.4-2.5-2.8-3.6-4.3c-0.4-0.6-0.8-1.1-1.1-1.7c1.4-4.4-4.3-7.6-7.8-5.2c-0.9-0.7-2-1.1-3.5-1c-9.5,0.9-20.1,4.8-21.9,15.4c-0.6,3.5,0.1,6.9,1.5,10c-4.1,3.4-8.3,6.9-13.1,9.1c-1.4,0.6-2.8,1.2-4.2,1.6c-1.1-0.2-2.4,0-3.6,0.8c-0.2,0.1-0.3,0.2-0.5,0.4c-3.3,0.9-6.6,1.7-9.7,3.3c-11,5.7-17.9,17.5-26,26.4c-10.4,11.5-20.8,22.5-29.7,35.2c-8.9,12.6-16.6,26-23.7,39.6c-0.8,1.5-0.7,2.9-0.2,4c-4.8,17.3-3,35.2,11.2,48c14.8,13.4,36.6,24,56.9,23.2c0.6,0,1.1-0.1,1.6-0.3c1.9,1.4,4.7,1.7,6.8-0.4c23.1-23.1,45.6-47.2,64.2-74.1c7.8-11.2,17.2-23.3,16.3-37.6c-0.4-6.7-3-13.2-2.3-19.9c0.5-4.4,3.4-7.9,6.1-11.3c3.4,1.3,6.9,2,10.4,1.7c7.3-0.6,12-6.5,14.1-13.1c2.8-8.5-4.4-16.9-10.2-22.8c0,0,0,0,0-0.1c3-6.2,7.7-11.3,12.6-16c0.5-0.5,1-0.9,1.5-1.4c1.7,5.1,6.9,8.9,10.9,12.1c6.6,5.3,12.8,11,19.1,16.8c11.3,10.4,23.6,19,36.1,27.8c11,7.8,22.1,15.5,33.7,22.3c5.2,3,13,8.2,20,8.6c-7,24.8,9.8,47.7,31.4,59.3c22.4,12.1,52.7,10.9,64.8-14.5c1.6-3.4-1-7.6-4.9-7.2c-7.4,0.7-14.7-0.4-22-1.3c-4.6-0.6-10.3,0-14.5-1.9c-2.8-1.3-2.8-5.6-3-8.2c-0.4-5.2-0.8-10.8-0.4-16c0.9-12.7,20.3-14.2,29.9-14.6c11-0.5,22.8,2.1,26.7,13.6c1.9,5.7,9.6,3.4,9.7-2C492.1,342.4,494.9,332.4,494.3,322.1z M193,188.3c-6.6-6.3-12.9-13-19.7-19.1c-6.4-5.7-14.9-9.1-20.2-16c-0.6-0.8-1.2-1.3-2-1.6c-1.3-2.3-4.2-3.8-7-1.8c-8.2,5.9-22.5,4.1-31.8,2.7c-11.3-1.7-21.6-7.6-30-15.1c-8.6-7.7-12.9-18.2-14.1-29.6c-0.5-5-0.4-9.8,0.1-14.8c0.3-2.6,0.7-5.1,1.2-7.7c0.2-1.3,0.6-2.5,0.9-3.8c0-0.1,0.1-0.2,0.1-0.2c1.4-0.6,2.1-1.7,2.3-3c0.6-0.2,1.2-0.6,1.8-1.1c2.3-2.1,5-3,7.9-3.5c-0.3,8.9,0.5,17.8,1.3,26.6c0.2,2.4,1.8,3.8,4,4.5c13.2,4.4,23.9,20.5,39.4,16.5c14-3.7,23-16.7,35.4-23.2c1.6-0.9,2.2-2.9,2.2-4.5c0.1-9.2,1.2-18.4,0-27.6c2.1,0.5,4,1.4,5.6,2.8c0.3,0.1,0.6,0.3,0.9,0.6l3,3c0.3,0.3,0.4,0.5,0.5,0.8c1.4,1.5,2.7,3.1,3.8,4.9c0.4,0,0.8,0,1.1,0c1.5,3.2,2.8,6.4,3.6,9.9c1.7,4.8,2.7,9.8,3.2,14.5c0.7,6.3,0,12.3-3.4,17.7c-1.3,2.1-2.7,4.2-4,6.2c0.3,0.4,0.7,0.7,1.2,1c15.6,9.8,26.2,24.9,37.8,38.7c6,7,12.9,13.4,19.5,19.8c7,6.8,14.1,13.5,21.6,19.8c0,0,0.1,0.1,0.1,0.1c-7.4,7.5-15,14.9-22.6,22.3C223.1,214.2,207.4,202,193,188.3z M150.8,304c0.7,0,1.3,0,1.9-0.2c0.1-0.1,0.2-0.2,0.3-0.3c0.5-0.3,0.4-0.1-0.1,0.2c0.2-0.1,0.4-0.2,0.6-0.3c2.9,5.3,6.6,10.2,9.9,14.3c-11.8,12.4-21.5,26.7-32.4,39.9c-5.7,6.9-11.7,13.6-18,19.9c-5.4,5.5-13.8,10.7-16.4,18.3c0,0,0,0,0,0.1c-3.5-3.5-6.8-7-10-10.7c0.8-0.4,1.5-1,2-1.9c11.5-18.2,26.5-34.1,40.1-50.7c4.8-5.9,9.5-11.8,14.3-17.6c2.2-2.6,4.3-5.2,6.6-7.8c0.9-1,1.8-2,2.8-3c0,0,0.2-0.2,0.4-0.4C152.2,303.9,151.6,304.1,150.8,304z M129.1,426.2c-5.9-5.2-11.4-11.2-17.2-16.1c-2.8-2.4-5.6-4.9-8.3-7.4c0.8-0.4,1.5-1.2,1.9-2.4c2.2-6.5,10.2-11.5,14.9-16.2c6.4-6.3,12.3-13,18-19.9c10.7-12.8,20.2-26.8,31.6-39c5.3,5.4,13.6,12.4,22.2,16.5c-0.5,0.8-1,1.5-1.6,2.2c-2.2,3-4.7,6-7.1,8.9c-5.3,6.4-10.8,12.5-16.4,18.7c-6.7,7.3-11.8,15.5-17.7,23.4c-4.2,5.7-8.8,11-13,16.7c-3.2,4.4-7,7.8-7.5,13.5C129.1,425.4,129.1,425.8,129.1,426.2z M97.7,343.4c8.6-12.2,18.6-23,28.8-33.9c7-7.5,12.8-17.4,21.5-23.2c0,2.5,0.5,5.2,1.4,7.9c-3.9,1.1-7.3,6.2-9.6,8.8c-5.6,6.5-10.9,13.3-16.3,20c-14.6,18-30.6,35.1-43.1,54.6c-0.4-0.5-0.8-0.9-1.1-1.4c-0.3-0.4-0.6-0.7-1-1C84.1,364.3,90.5,353.6,97.7,343.4z M135.9,444c-0.8-0.7-1.9-1.1-3.3-1c-16.5,0.7-33.4-8.1-46.1-18c-6.4-5-11-10.7-13.1-18.6c-1.7-6.5-0.9-13.7,0.9-20.3c9,11,19,21,29.6,30.3c10.4,9.1,20.1,20.8,32.6,27C136.3,443.6,136.1,443.8,135.9,444z M211.7,348.6c-1.8,7.6-7.9,15.1-12.2,21.5c-16.2,24-35.8,45.6-56.1,66.3c-0.4-0.8-1.1-1.5-2.2-2c-2.2-1-4.2-2.3-6.2-3.6c1.9-0.1,3.6-1.4,3.8-3.9c0.5-5.2,6.2-10.1,9.3-14c4.6-5.7,8.9-11.6,13.1-17.5c3.2-4.4,5.9-9.5,9.6-13.5c2.3-2.4,4.6-4.9,6.8-7.4c5.7-6.3,11.3-12.7,16.6-19.2c2-2.5,6.1-6.6,7.8-10.5c3.5,0.5,6.9,0.2,10-1.2C212.3,345.3,212.1,346.9,211.7,348.6z M211.8,313.2c-2.6,6-2.1,12.7-0.9,18.9c0,0,0,0,0,0c-3.5,3.9-8.7,2.8-14,0.4c-8.2-3.6-15.2-9.8-21.3-16.1c-6.1-6.3-11.6-13.6-15.1-21.7c-1.2-2.9-2.1-5.9-2.1-9.1c0-1.6,0.5-2.9,1.8-4c2.9-0.7,5.8-1.5,8.5-2.9c4.7-2.4,8.8-5.6,12.8-8.9c0.4,0.5,0.7,1,1.1,1.4c9.9,12.5,21.2,24.5,34.6,33.4C215.1,307.3,213.1,310.1,211.8,313.2z M240.6,292c1.9,4.8-2.3,9.6-6.7,9.1c-6.3-0.7-12.2-5.2-17-9c-6.4-5-12.2-10.9-17.7-16.9c-4.2-4.5-8.1-9.3-11.7-14.3c-1.8-2.6-3.8-6.2-2.5-9.4c1.7-4.5,8.5-5.3,12.5-5.7c0.4,0,0.7-0.1,1.1-0.2c1.8,4.2,5.9,8.1,8.4,10.7c5,5.3,10.7,9.9,15.6,15.3C228.3,278.3,237.1,283.5,240.6,292z M233,267.9c-3.7-3.6-7.3-7.2-11.1-10.7c0,0,0,0,0,0c23.4-23.3,47.6-45.9,69.6-70.5c11-12.3,22.9-23.7,34.9-35.2c10.3-9.9,19.5-21.5,30.6-30.5c1.8,0.3,3.6-0.5,4.5-2.8c0.2-0.7,0.7-1.3,1-2c0-0.1,0.1-0.3,0.1-0.4c0.7-0.6,1.2-1.6,1.3-2.9c0.7-7.4-0.5-15.3,2.7-22.2c1.6-3.4,5.8-6.2,8.7-8.5c2.7-2.3,5.2-4.4,7.2-7.3c1.7-2.5,3.5-4.9,5.4-7.2c1-1.2,2.1-2.4,3.4-3.3c0.2-0.1,0.3-0.3,0.3-0.3c0,0,0.1,0,0.1,0.1c4.5,1.7,8.3,6.1,11.5,9.5c2.4,2.5,6,6.7,7.1,9.1c2.1,4.7-6.4,12.4-9,15.2c-4.5,4.8-8.5,10-13.2,14.5c-4.7,4.5-11.3,5.5-16.5,8.8c-1.1,0.1-2.3,0.5-3.3,1.5c-5.6,5.5-11.4,10.9-16.9,16.5c-6.2,6.3-11.8,13.2-17.6,19.9c-11.8,13.5-23.7,26.8-36,39.8c-12.2,12.8-24.2,25.8-36.4,38.6C251.9,247.3,239.9,255.9,233,267.9z M483.4,339.1c-6.7-5.7-16-8.1-25.4-8c-13.8,0.1-36.4,2.9-41.3,18.6c-1.9,6-0.8,12.6-0.7,18.8c0.1,5.7,0.3,12.4,4.2,16.9c4.1,4.7,10,5.4,15.8,5.6c7,0.3,13.9,1.6,20.8,2c-24.2,28.2-86.1-10.3-72.4-46.8c0.9-2.3,0.1-4.4-1.3-5.7c0-3.1-3.4-6.3-7.1-5c-0.1,0-0.3,0-0.6,0c1.1,0-0.9-0.2-1.2-0.3c-1.6-0.4-3.1-1-4.7-1.7c-5-2.2-9.8-5-14.5-7.9c-10.1-6.1-19.8-12.9-29.4-19.7c-11-7.8-21.9-15.4-32-24.4c-5.8-5.2-11.2-10.9-17.4-15.7c-2.4-1.9-4.8-3.7-7.2-5.7c-0.9-0.8-3.2-2.4-4.4-3.9c0.3-2.1-0.7-4.5-2.7-5.6c2.7-2.6,5.4-5.2,8-7.9c5.3-5.6,10.6-11.2,15.9-16.8c0.4,0.6,1,1.2,1.7,1.7c19.8,12.1,35.5,29.7,52.6,45.1c18.1,16.3,38.3,30.6,59.4,42.9c1.7,1,3.4,0.8,4.6,0c2.7,1,6.1,0.1,6.5-3.5c1.1-9.1,18.7-10.9,25.6-12c5.8-0.9,11.9-1.9,17.7-1.2c7.9,1,15,5.5,21.6,9.7c0.5,0.3,1,0.5,1.5,0.6C485.8,316.6,484.8,327.9,483.4,339.1z"/></svg>