<svg xmlns="http://www.w3.org/2000/svg" x="0px" y="0px"
width="48" height="48"
viewBox="0 0 512 512"
style=" fill:#000000;"><path fill="#FEBF10" d="M355 210.5C355 210.5 355 210.5 355 210.5c-9.1.5-17.8-1.6-26.8-2.5-9-.9-18.8.6-27.7 2.2-17.4 3-34.3 8.5-50.7 14.8-24.1 9.3-48.9 21.5-66.7 40.6 6.9-2.9 13.8-6.1 20.6-9.4 12.5-6 25-12.8 38.1-17.5 5.8-2 11.4-4.4 17.2-6.5 6.1-2.2 12.3-3.4 18.5-5.2 4.6-1.3 9.6-1.1 14.4-.6 2.3.3 4.7.6 7 .9 1.1.2 2.4.2 2.4.3 2.5-.4 4.3.7 5.2 2.3 2.4-.9 4.9-1.6 7.4-2.3 6.9-1.7 8.2 9.2 1.4 10.9-25.6 6.5-44.6 29-59.1 49.8-11.8 16.9-21.7 35-31.8 53l4.9-1.6c.3-.1.5-.1.8-.2 14.8-5.4 28.1-14.4 40.2-24.4 14.3-11.9 27.3-25.4 38.8-40.1 5.2-6.7 10.4-13.4 14-21.1 2.9-6.2 5.4-12.9 9.4-18.6 4.4-6.3 10.7-11.2 18.1-13.5 7-2.1 14.4-2.3 21.5-3.5C366 216.5 360 214.2 355 210.5zM347.3 124.6c-26.3-.1-52.6-1-78.8.9-24.8 1.9-48.9 6.6-72.1 15.3 17.9 13.1 40.8 12.2 62.4 7.7 23.7-5 46.6-14.5 70.8-17 5.8-.6 7.6 6.8 3.5 10-8.5 6.6-13.7 16.9-18.1 26.6-3.1 6.9-5.8 14-8.6 21 10.1-5.1 20.1-10.2 30.4-14.9-.3-1.1-.3-2.3.3-3.6C343.3 156 343.4 139.9 347.3 124.6z"></path><path fill="#71C598" d="M182.4,143.3c-0.1-0.1-0.3-0.3-0.4-0.5c-15.1,10.8-30.5,21.1-46.3,31c-20.2,12.6-40.7,25.6-57.7,42.4c-15.4,15.2-27.9,33.4-29.4,55.5c-1.3,18.5,3.2,40.3,17.9,52.7c7.5-6.1,15.4-11.7,22.7-16.6c23.6-15.8,50.4-28.8,74-43c2.1-1.3,4.3-1,6,0c18.6-23.9,47.4-39,75.1-49.7c13.2-5.1,26.7-9.8,40.6-13.1c0.3-1.6,1.2-3,3.1-3.9c1.5-0.7,3.1-1.5,4.6-2.2c0-0.2-0.1-0.4-0.1-0.5v-6c0-2.9,1.9-4.8,4.1-5.5c5.3-13.3,10.2-27.4,18.5-39C270.7,154.6,219.1,181,182.4,143.3z"></path><path fill="#71C598" d="M435.4,121.6c-6.7-21.1-20.5-41.4-40.4-52c-21-11.2-46.6-12.4-69.6-7.7c-45.1,9.2-84.3,37.4-121.1,64.5c20-6.4,40.7-10.2,61.7-11.8c27.8-2.1,55.7-1.1,83.6-1.1c2.1,0,3.6,1,4.6,2.3c3.3-0.1,6.5,2.2,5.2,6.2c-4.9,15.2-5.2,31.3-9.9,46.5c28.1-12,60.3-21.5,89.6-14.4C440,143.3,438.7,132.1,435.4,121.6z"></path><path fill="#3AB37C" d="M436.2,329.2c-24.2,15.4-52.8,25.1-79.9,33.9c-50.3,16.3-102.9,25.8-151.7,46.3c-18.7,7.8-37.3,16.1-56.7,22c-18.4,5.6-38,9.9-57.3,7.3c-9.5-1.3-19.4-4.7-28.3-10c4,5.5,8.7,10.4,14.2,14.2c16.6,11.6,36.9,11,55.9,6.8c21.2-4.6,41.2-13,61.5-20.3c21.5-7.7,43.9-12.6,66-17.9c28.6-6.8,57.4-13.3,85.1-23.4c27-9.8,51.6-22.9,73.5-41.5c7.3-6.2,15.1-13.3,22.5-20.9C439.6,326.9,437.9,328.1,436.2,329.2z"></path><path fill="#71C598" d="M474.1,189.5c-13.9-17.8-35.5-27.5-58-26.8c-36,1.1-68.7,18-100.6,34.2c3.7-0.3,7.3-0.4,10.8-0.1c9.6,0.7,19.2,3.6,28.9,2.6c1.8-0.2,3.2,0.4,4.2,1.3c0.8,0.1,1.6,0.5,2.4,1c6.7,4.9,16,6.9,23.9,9.1c2.9,0.8,5.1,3,4.7,6.2c-0.3,2.1-2.2,4.3-4.4,4.7c0.4,2.2-0.5,4.4-3.3,5.2c-9.5,2.9-20.1,1.8-29.3,5.5c-7.1,2.8-11.6,7.7-14.9,14.4c-3.4,7-6.2,14.3-10.5,20.8c-4.5,6.9-9.7,13.5-15,19.8c-22.2,26.6-50.9,54.6-85.1,64.2c-2.7,0.7-5-0.4-6.4-2.1c0.1,1.2-0.2,2.4-0.9,3.6c-1.8,2.8-4.2,4.4-7.3,5.5c-4,1.4-9.8-2.7-7.2-7.2c14.4-24.7,27.2-50.4,44.1-73.5c11.3-15.5,24.6-30.5,40.9-40.5c-4-0.4-7.7-0.4-11.8,0.4c-11.8,2.2-23.6,6.9-34.7,11.5c-25.4,10.5-49.3,24.5-75.4,33.3c-3.9,1.3-6.9-1.1-7.4-4.3c-21.8,12.5-44.3,23.7-65.2,37.7c-12.8,8.6-25.7,18-36.2,29.4c-8.3,9-16.4,19.8-17.8,32.4c-0.5,4.8,0.1,9.6,1.6,14.2c1.5,0.7,2.9,1.9,3.4,3.9c0.6,2.3,1.3,4.6,2,6.9c2.4,3.6,5.4,6.8,8.6,9.6c14,12.2,31.7,17,50.1,15.7c39.6-2.8,75.1-23.3,111.6-36.9c24.8-9.2,50.8-15,76.3-22c30.1-8.3,60.1-16.9,89.2-28.3c23.4-9.2,47-19.2,64.8-37.6c11.7-12,21.9-26.3,28.4-41.9c1.5-8.6,1.4-17.4-0.6-26.5c-1.1-5,4.3-7.1,7.9-5.3C486.6,215.5,483.3,201.2,474.1,189.5z"></path><path d="M497,220.5c-1.4-22-13.5-41.1-31.1-53.9c-5.2-3.8-10.6-6.7-16.2-8.9c4.9-43.5-22.1-90.7-64.6-103.9c-49.4-15.4-99.1,6-140.8,31.9c-21.8,13.6-42.4,29.1-63.1,44.3c-18.3,13.4-37.2,25.7-56.4,37.8c-36.4,22.9-81.6,52.8-86.8,99.5c-2.5,22.2,2.6,49.3,20.1,64.7c-12.6,11.8-22.9,25.8-26,42.3c-2.4,12.9,1.2,24.8,8.1,34.7c6.2,17.5,16,33.8,31.8,44.2c20.8,13.8,46.3,11.6,69.4,5.7c24.8-6.3,47.9-17.3,72.4-24.3c28.2-8.1,57-14,85.4-21.3c26.3-6.7,52.5-14.5,77.1-26.1c23-10.8,43-25.6,61.5-42.9c22.3-21,45.8-49.1,51.5-80.3C494.9,250.1,497.9,235.4,497,220.5z M325.4,62c23-4.7,48.6-3.5,69.6,7.7c19.9,10.6,33.7,30.9,40.4,52c3.3,10.5,4.7,21.7,3.7,32.6c-29.2-7.1-61.5,2.4-89.6,14.4c4.8-15.2,5.1-31.2,9.9-46.5c1.3-4-1.9-6.3-5.2-6.2c-1-1.4-2.5-2.3-4.6-2.3c-27.9,0-55.8-1-83.6,1.1c-21,1.6-41.7,5.4-61.7,11.8C241,99.3,280.2,71.2,325.4,62z M268.5,125.6c26.2-2,52.5-1,78.8-0.9c-3.9,15.3-4,31.4-10.2,46.1c-0.6,1.3-0.6,2.5-0.3,3.6c-10.2,4.8-20.3,9.9-30.4,14.9c2.8-7,5.5-14.1,8.6-21c4.3-9.7,9.5-20,18.1-26.6c4.1-3.2,2.3-10.6-3.5-10c-24.2,2.5-47.1,12-70.8,17c-21.6,4.5-44.5,5.4-62.4-7.7C219.6,132.2,243.7,127.4,268.5,125.6z M314,227.7c-2.5,0.6-5,1.4-7.4,2.3c-0.9-1.7-2.7-2.8-5.2-2.3c0.1,0-1.3-0.1-2.4-0.3c-2.3-0.3-4.7-0.7-7-0.9c-4.7-0.5-9.7-0.7-14.4,0.6c-6.2,1.7-12.4,3-18.5,5.2c-5.8,2.1-11.4,4.5-17.2,6.5c-13.1,4.6-25.6,11.4-38.1,17.5c-6.8,3.3-13.6,6.4-20.6,9.4c17.8-19.1,42.6-31.3,66.7-40.6c16.4-6.3,33.3-11.8,50.7-14.8c8.9-1.5,18.6-3.1,27.7-2.2c9,0.9,17.6,3,26.7,2.5c0,0,0,0,0.1,0c5,3.7,10.9,6,17,7.9c-7.1,1.2-14.5,1.4-21.5,3.5c-7.4,2.2-13.7,7.2-18.1,13.5c-4,5.7-6.4,12.3-9.4,18.6c-3.6,7.7-8.8,14.4-14,21.1c-11.5,14.7-24.5,28.2-38.8,40.1c-12,10-25.4,19.1-40.2,24.4c-0.3,0.1-0.5,0.1-0.8,0.2l-4.9,1.6c10.1-18,20-36,31.8-53c14.5-20.8,33.5-43.3,59.1-49.8C322.1,236.9,320.8,226,314,227.7z M48.5,271.8c1.5-22.1,14-40.3,29.4-55.5c17-16.8,37.6-29.8,57.7-42.4c15.8-9.9,31.2-20.2,46.3-31c0.1,0.2,0.3,0.3,0.4,0.5c36.7,37.8,88.3,11.3,132.7,1.8c-8.2,11.6-13.2,25.7-18.5,39c-2.2,0.7-4.1,2.5-4.1,5.5v6c0,0.2,0,0.4,0.1,0.5c-1.5,0.7-3,1.5-4.6,2.2c-1.8,0.9-2.8,2.3-3.1,3.9c-13.8,3.3-27.4,8-40.6,13.1c-27.7,10.7-56.5,25.8-75.1,49.7c-1.7-1-3.9-1.3-6,0c-23.7,14.2-50.4,27.1-74,43c-7.4,4.9-15.2,10.4-22.7,16.6C51.7,312.1,47.3,290.3,48.5,271.8z M418.7,346.7c-21.9,18.6-46.5,31.7-73.5,41.5c-27.7,10.1-56.5,16.6-85.1,23.4c-22.1,5.2-44.6,10.2-66,17.9c-20.3,7.3-40.4,15.7-61.5,20.3c-19,4.2-39.3,4.8-55.9-6.8c-5.6-3.9-10.3-8.8-14.2-14.2c9,5.2,18.9,8.7,28.3,10c19.3,2.6,38.9-1.7,57.3-7.3c19.4-5.9,38-14.2,56.7-22c48.8-20.4,101.4-30,151.7-46.3c27.1-8.8,55.7-18.5,79.9-33.9c1.7-1.1,3.4-2.2,5.1-3.4C433.8,333.4,426.1,340.4,418.7,346.7z M486,229.8c-3.7-1.8-9,0.3-7.9,5.3c2,9,2.1,17.9,0.6,26.5c-6.5,15.7-16.8,30-28.4,41.9c-17.8,18.4-41.4,28.3-64.8,37.6c-29,11.4-59.1,20-89.2,28.3c-25.4,7-51.5,12.8-76.3,22c-36.5,13.5-72.1,34.1-111.6,36.9c-18.4,1.3-36.1-3.5-50.1-15.7c-3.2-2.8-6.1-6.1-8.6-9.6c-0.8-2.3-1.4-4.6-2-6.9c-0.5-2-1.8-3.3-3.4-3.9c-1.5-4.5-2.1-9.3-1.6-14.2c1.4-12.6,9.5-23.4,17.8-32.4c10.5-11.4,23.4-20.8,36.2-29.4c20.9-14,43.4-25.2,65.2-37.7c0.5,3.2,3.5,5.5,7.4,4.3c26.1-8.8,50-22.7,75.4-33.3c11.1-4.6,22.9-9.3,34.7-11.5c4.1-0.8,7.8-0.8,11.8-0.4c-16.3,10-29.6,25-40.9,40.5c-16.9,23.1-29.7,48.8-44.1,73.5c-2.7,4.6,3.2,8.6,7.2,7.2c3.1-1.1,5.5-2.7,7.3-5.5c0.8-1.2,1-2.4,0.9-3.6c1.4,1.8,3.7,2.9,6.4,2.1c34.3-9.5,63-37.6,85.1-64.2c5.3-6.3,10.5-12.9,15-19.8c4.3-6.6,7.1-13.8,10.5-20.8c3.3-6.8,7.9-11.6,14.9-14.4c9.2-3.6,19.8-2.6,29.3-5.5c2.8-0.8,3.7-3.1,3.3-5.2c2.2-0.4,4.1-2.6,4.4-4.7c0.5-3.3-1.8-5.4-4.7-6.2c-7.9-2.2-17.2-4.2-23.9-9.1c-0.8-0.6-1.6-0.9-2.4-1c-1-0.9-2.4-1.5-4.2-1.3c-9.7,1-19.2-1.9-28.9-2.6c-3.5-0.3-7.1-0.2-10.8,0.1c31.9-16.2,64.6-33.2,100.6-34.2c22.5-0.7,44,9,58,26.8C483.3,201.2,486.6,215.5,486,229.8z"></path></svg>