<svg xmlns="http://www.w3.org/2000/svg" x="0px" y="0px"
width="48" height="48"
viewBox="0 0 512 512"
style=" fill:#000000;"><path fill="#EF4754" d="M397.4,129.1c-4.2-14.1-15.2-24.5-28.3-30.8c-14.6-7.2-31.1-9.9-47.4-10.1c-0.6,0-1.2,0-1.8,0v0.3c-3.7,0-7.3,0.4-10.9,1.2c0-0.3,0-0.6,0-0.9c-5.2,0.6-10.4,1.7-15.2,3.9c-6.3,2.8-15.7,9-16.2,16.5c-0.2,3.5-3,4.7-5.7,4.2c0.5,7,0.4,14,0,20.9c0.9,1.7,1.1,3.8,0.3,5.5c4.7,0.7,9.1,2,13.2,4.1c0.2-11.2,9.1-20.1,20.1-24.5c12.5-5,29.2-6.4,41,1.2c5.6,3.6,10.5,9.9,10.5,16.9c0,10.1-7.3,14.9-16.5,16.2c-7,1.1-7.8-9.9-0.8-11c2-0.3,6-0.9,6.3-3.6c0.2-2.1-0.6-4.4-1.9-6.1c-2.2-2.9-5.6-4.7-9.1-5.6c-9.1-2.2-19.9-1.2-28.2,3.3c-8.2,4.4-14.2,12.1-8,21.2c6.2,9.2,18.6,16.2,29.9,15.7c2.9-0.1,4.8,1.7,5.5,3.8c2.3-0.4,4.6-0.7,6.9-1c12.6-1.5,25.3-3.1,38-3.2c0.3,0,0.7,0,1,0c0.5-1.9,2.1-3.5,4.7-3.6c6.5-0.3,10.2-8.4,12.2-13.7C399.4,143.1,399.4,135.8,397.4,129.1z"></path><path fill="#3AB37C" d="M307 58.3c-1.3-5.3-4.8-20.2-12.5-17.9-7.7 2.3-13.9 8.8-18.9 14.7-4.2 5-9.5 11.7-10.6 17.8-.4 2.3-1.9 3.6-3.7 4.1 4.2 6.2 7 13.4 8.7 21.1 3.8-6.1 10.6-11.1 16.3-14.2 7-3.8 14.9-5.7 22.9-6.5C308.9 71 308.4 64.6 307 58.3zM239.1 71.8c-7.5 16.5-14.8 40.4-.2 53.9.7.7 1.2 1.4 1.5 2.1 4-.4 8.1-.2 11.9.9.5-.2 1.1-.4 1.8-.3 2.6.1 4.9.7 7.3 1.5C262.3 108.1 260.3 81.6 239.1 71.8zM407.3 153.5c-1.8 5.8-4.6 11.2-8.5 15 6.7 1.2 13.2 3.3 19.2 6.8 1.6.9 3.2 2 4.8 3.1.7-1.5 2.1-2.7 4.3-2.9 1.3-.1 3.7-6.1 4.2-7.4 1-2.5 2-5.3 2.5-8.1C425.4 155.3 416.8 153.8 407.3 153.5zM208.4 115.6c-5.4-4.2-10.7-8.4-17.1-11-6-2.4-12.4-4.3-18.9-5-2.8-.3-5.8-.5-8.6 0-.3.1-.7.3-1.1.4.5 4.3 2.7 8.5 4.6 12.3 2.4 4.8 5.1 9.5 7.8 14.1 2.2 3.8 4.3 8.7 7.3 11.9 4.8 4.9 10.7 7 17.5 7.1.4 0 .8.1 1.2.1 6.2-5.7 13.7-10 21.7-13.1 1.5-.6 3.1-1.2 4.7-1.7C221.1 125.8 214.8 120.6 208.4 115.6z"></path><path fill="#BCBCBC" d="M127.7,327.6c-1.3-6.4-3.6-13.4-6.2-19.4c-0.8-1.9-1.7-3.7-2.6-5.5c-0.3,0.5-0.7,1-1,1.5c-2.9,4.3-5.1,8.4-6.9,13.3c-3.3,8.9-5.4,18.6-2.7,27.9c2.3,7.9,6.5,15,14.6,18c1.4,0.5,2.8,0.8,4.3,1c0-1.6,0.5-3.2,1.6-4.4C125.5,349.5,130,338.4,127.7,327.6z"></path><path fill="#EF4754" d="M425.8,196c-8.7-11.1-22.1-16.6-35.9-17.7c-13.4-1.1-26.8,0.7-40.1,2.1c-12.8,1.3-26,2.7-36.4,11.1c-0.2,0.2-0.4,0.3-0.7,0.5c0.1,2.8-0.1,5.6-0.6,8.5c18.8-10.9,41.3-17.9,62.9-17.5c10.2,0.2,19.8,1.8,28.4,7.7c7.2,4.9,13.7,13.6,10.7,22.7c-4.9,14.8-27,17.2-40.2,17.2c-7.8,0-19-0.3-23.9-7.7c-6-9.2,0.6-19.4,11.3-18.2c7.1,0.8,4.9,11.6-2.1,10.8c-2.1-0.2,2.6,2.8,3.5,3.1c2.8,0.7,5.6,1,8.4,1c4.8,0.1,9.6-0.2,14.3-0.9c6.7-1.1,25.6-5.8,15.5-15.7c-10.6-10.5-26.9-9.9-40.7-7.8c-16.6,2.6-32.8,8.5-47,17.5c-1.8,1.2-3.7,1.1-5.2,0.4c-0.4,0.8-0.8,1.6-1.2,2.4c1.9,1,3.3,3,2.7,5.7c-0.3,1.5-0.4,2.9,0.2,4.3c2.9,8.1,12.1,13.4,19.3,17.2c8.2,4.4,16.8,8.2,26.1,9.5c13.4,1.9,27.3,0,40-4.7c11.6-4.3,25.2-10.8,31.9-21.8C433,215.9,433,205.1,425.8,196z"></path><path fill="#3AB37C" d="M304.6 239c-1.5-1.1-2.1-2.4-2.1-3.8-1.8-2.7-3.1-5.5-3.7-8.6-4.2 4.5-9.1 8.1-14.5 10.8-.5 1.2-1.6 2.2-3.2 2.7-17.2 5.2-27 22.1-27.5 39.3 14.3-.5 28.3-4.7 40-13C300 261.9 315.1 246.4 304.6 239zM318.5 249.2c-.6 3.5-1.9 7.1-3.6 10.3 4.3-2.1 9-3.7 13.8-4.9C325.4 253.1 321.9 251.3 318.5 249.2z"></path><path fill="#EF4754" d="M295.8,172.1c-4.1-8.3-10.1-18-19.7-20.5c-7.1-1.9-14.6-2-21.9-1.3c-13.1,1.3-33.7,5.4-39.9,19c-7.9,17.4,15,32.3,29.7,33.5c7.7,0.6,20.6-1.9,23.7-10.2c2.2-6-1.4-14.8-8.6-11.6c-6.5,2.9-10-7.5-3.6-10.4c17.7-8,29.5,15.6,20.7,29.4c-10.3,16.2-35.2,16.7-50.6,8.9c-15.4-7.8-29.9-26.8-21.1-44.5c7.4-14.8,25.4-21.3,40.7-24c1.7-0.3,3.5-0.6,5.4-0.8c-9-3.8-21.6,1.6-29.7,5.5c-9.8,4.7-18.7,12.6-22.4,23c-7.2,20.1,8,41.1,23.9,52c16.2,11.1,40.5,17.3,58.7,6.9c9.7-5.5,17.3-15.3,19.8-26.3C303.2,190.4,300.5,181.5,295.8,172.1z"></path><path fill="#3AB37C" d="M308.6 173.8c.4 1.1.9 2.2 1.3 3.3.3.9.6 1.8.9 2.7 1.8-1.2 3.7-2.2 5.6-3.1C313.7 175.9 311.1 174.9 308.6 173.8zM447.1 267.8c-9.1-7.7-19.6-10.5-30.9-13.5-1.7-.5-2.8-1.5-3.5-2.7-3.1 1.7-6.2 3.1-9.3 4.4-4.1 1.7-8.3 3.1-12.6 4.2 5.2 5 9.5 11.2 12.9 17.1.8 1.4 1.6 2.8 2.4 4.3 2.7.4 5.2 1.3 7.8 2 1.5.2 3 .6 4.5 1.1 4.9 1 9.8 1.7 14.7 2.2 9.9.9 19.7.5 29.5-.7C459.9 279 452.4 272.3 447.1 267.8zM472.9 221.5c-11.4 1-22.5 4.3-33.9 4.8-3.4 7.2-9.1 13.4-15.8 18.5 10 2.8 19.3 6 27.7 12 .8-.8 1.8-1.3 3.2-1.5 11.1-1.3 20.5-9 28.7-16 5.7-4.8 11.2-9.9 17.2-14.4C491.2 222.4 482.3 220.6 472.9 221.5zM448.8 326.4c-3.3-4.5-6.8-8.9-10.8-12.8-3.4-3.3-7.8-8.2-12.5-9.3-3.2-.7-4.5-3.5-4.2-6-1.4-1-2.8-1.9-4.4-2.6-.5-.1-1-.2-1.5-.3-1.1-.2-2.2-.6-3.3-1 0 0-.1 0-.1 0-.2 0-.4 0-.6-.1 1.2 4.2 2 8.6 2 13.1.1 15.1-6.6 28.4-17.3 38.1 8.9 5.4 20.4 6.7 30.4 8.2 12.7 1.9 24.9 4.9 37.7 4.9C463.4 347 455.2 335.2 448.8 326.4z"></path><path fill="#BCBCBC" d="M257.6,392.6c-4.1-3.6-8.6-7.2-13.5-9.8c-0.3-0.1-0.5-0.3-0.7-0.5c-17.2,0.7-34.4,0.6-51.5-1.3c-10.7-1.2-21.5-2.7-32.1-5.3c-0.9-0.2-1.8-0.4-2.7-0.7c11.1,10.3,27.4,15.8,41.3,20c19.2,5.8,40.1,10.5,60.3,11.2c0.3-2.3,0.8-4.6,1.1-7C260.3,395.8,260.2,395,257.6,392.6z"></path><path fill="#D6E5E5" d="M127.3,382.7c-0.9-2.4-0.1-4.4,1.3-5.7c-0.1-0.5-0.2-1-0.3-1.5c-4.1-0.1-8.1-1-11.9-3c-8.6-4.7-14.7-11.4-17.8-20.9c-3.3-10.1-3.5-20.7-0.3-30.8c1.3-4.3,2.7-9,4.7-13.2c-2.1,0.9-4.2,1.9-6.3,2.8c-5.8,2.7-11.4,5.2-17.7,6.4c-12.6,2.5-25,0.4-37.5-1.5c0.7,8.6,1.5,17.3,1.3,25.9c-0.1,4.8-0.4,9.5-1.1,14.2c-0.5,3.3-1.9,7.2-1.2,10.6c1.6,7.6,10.5,13,14.7,19.1c2.5,3.7,4.4,7.7,5.5,12.1c1.1,4.5,1.6,9.3,3.5,13.6c2.4,5.5,7,9.8,11.2,13.9c3.4,3.3,7.2,7.9,11.7,9.8c8.6,3.8,17.4-2.4,24-7.6c7-5.5,14.4-10.9,17.5-19.6C131.4,399.3,130.3,390.6,127.3,382.7z"></path><path fill="#EF4754" d="M397.3,288.4c-4.9-9.2-11.5-20.4-21.1-25.3c-8.5,1-17.1,0.7-25.5-0.8c-0.3,0.1-0.7,0.2-1.1,0.2c-13.3,1.3-35,3.8-41.7,17.5c-6.9,14.3,4.2,24.3,16.6,28.8c10.7,3.9,27.3,6.6,37.8,0.4c3.7-2.2,7-5.9,4.9-10.5c-2.9-6.7-13.3-8.4-19.7-7.2c-7,1.3-7.7-9.7-0.8-11c10.9-2.1,25.8,2.8,30.5,13.6c6.8,15.5-8.2,26.4-21.7,28.6c-14.9,2.4-32.8-0.4-45.5-8.8c-5.8-3.8-11.5-8.8-13.6-15.8c-2.1-6.9-1.9-14.4,0.8-20.9c-0.9,0.6-1.8,1.1-2.7,1.7c0.6,2.5-0.3,5.2-3.4,6.3c-1.8,0.6-2.7,2-3.5,3.7c-3,7.3-2.7,16.8-1.2,24.3c2.3,10.8,8.6,20,17.7,26.7c14,10.5,30.9,15.1,47.8,13.1c1.2-0.5,2.4-1,3.5-1.7c2-1.1,4-0.9,5.6,0c0.5-0.1,1-0.3,1.5-0.4c16.7-4.7,35-15.7,38.9-34C403.6,307.2,401.9,297.1,397.3,288.4z"></path><path fill="#BCBCBC" d="M188.3,414.3c-17.3-10-33.7-21.8-45.4-38.3c-0.4-0.6-0.7-1.2-0.9-1.8c-1,0.2-2,0.4-3,0.6c1.2,6.8,6.5,13.8,10.1,18.7c5.8,7.9,12.4,15.2,19.4,22c15.3,14.9,33.6,30.8,54.9,36c0.5-0.3,1-0.5,1.6-0.7c0.6-5.6,3.4-10.7,7.1-15C216.3,431.9,202.4,422.4,188.3,414.3z"></path><path fill="#D6E5E5" d="M277.4,322.1c-2.7-8.8-4.9-24.2-1.2-35.3c-8.9,2.7-18.2,3.9-27.5,3.6c-3-0.1-5.6-1.8-5.9-5.1c-1.2-15.2,3.8-31,13.8-42.2c-0.3,0-0.6,0-0.8,0c-21.9-1.1-43.4-12.7-56.9-29.9c-13.1-16.7-17.9-39.3-6.3-57.6c-6.2-1.1-12.1-3.5-16.5-8.1c-0.6-0.6-1.2-1.3-1.7-1.9c-0.3,0.2-0.6,0.4-0.9,0.5c-3.1,1.4-5.3,6.8-6.6,9.5c-2.2,4.5-4.2,9.1-6.3,13.7c-5,11.1-11.1,21.5-16,32.7c-12.2,27.8-16.3,60.3-16.4,90.5c0,0.9-0.2,1.8-0.5,2.5c1.1,4.1,3.9,8.2,5.3,12.1c2,5.9,4.4,11.7,5.6,17.9c1.2,5.6,1.2,10.9,0.7,16.6c-0.5,5.5-1.4,11.2,0.7,16.5c0.2,0.6,0.3,1.1,0.4,1.7c2.8,0.6,5.6,1.3,8.4,2c0.5-0.1,1.1-0.2,1.6-0.3c2.3-0.4,3.9,0.5,4.8,1.9c2.3,0.6,4.6,1.2,6.9,1.7c9.9,2.3,20,3.9,30.1,5c19.9,2.2,39.9,2.1,59.8,0.9c19.9-1.3,40.1-3.2,59.5-8.2c3-0.8,5.9-1.5,8.9-2.2C301.6,354,283.3,341.2,277.4,322.1z"></path><path fill="#010101" d="M512.6,217.5c-12.3-4.1-23.9-7.4-36.9-7.2c-11.3,0.2-22.2,3.5-33.4,4.7c0.4-3.7,0.2-7.7-0.7-11.8c-1.5-6.7-5.3-12.7-10.2-17.7c8.8-3.8,13-18.5,13.6-26.8c0.6-8-10.5-11.5-16.8-13.4c-6.1-1.9-12.3-2.6-18.6-2.8c0.3-3.4,0.3-6.6-0.1-9.5c-2.4-19.1-15.8-33.7-31.9-42.9c-17.4-9.9-37.9-12.7-57.6-13c-0.3-9-1.1-17.9-3.6-26.6c-3-10.4-10-22.9-22.5-21.1c-10,1.4-18.5,9.6-25,16.8c-5.7,6.3-12,14.5-14.2,23c-4.6-4.1-10.2-7.5-17.1-9.8c-2.3-0.7-5,1-6,3c-6.8,13.8-13.2,31.9-11.3,48c-9-7.3-18.4-14-29.4-17.7c-7.6-2.6-15.5-4.4-23.6-4.5c-5.8-0.1-13.7,1.7-15.2,8.2c-1.3,5.5,1.3,11.5,3.5,16.5c2.9,6.5,6.4,12.7,10,18.8c0.9,1.6,1.8,3.1,2.7,4.7c-8.2,4.6-12,15.4-15.6,23.5c-5.3,12.1-11.8,23.6-17.3,35.6c-12.6,27.6-17.3,59.5-18.1,90c-2.5-0.2-4.8,1.1-5,4.3c-0.1,1.6-0.5,3.1-1.2,4.5c-10.6,0.4-20,7.5-29.8,10.7c-14.5,4.7-30,0.3-44.6-1.6c-3.5-0.5-6.8,2.1-6.5,5.8c0.9,12,2.2,24,1.7,36.1c-0.4,10.2-4.6,19.2,0.4,28.9c4.5,8.8,13.9,13.9,17.1,23.4c1.8,5.5,2.5,11.3,4.5,16.8c2.1,5.8,6.5,10.3,10.6,14.8c7.3,7.8,16,17.4,27.5,17.6c11.1,0.2,20.7-6.8,28.9-13.6c8.1-6.6,15.3-13.3,18.5-23.6c0.9-2.9,1.4-5.8,1.7-8.8c5.4,7.4,11.7,14.2,18.1,20.7c18.1,18.3,41.1,37.6,67.3,41.8c3.2,0.5,6-1.7,6.5-4.6c1.8-0.8,3.2-2.6,3-5.2c-0.3-4.7,2.7-8.6,5.7-11.8c3.2-3.6,7.3-4.7,7.3-10.2c0-2.2-2.2-4.8-4.4-5c-18.4-1.2-33.9-11.7-49.3-20.9c21.9,6.9,45.8,11.6,68.7,11.8c3.2,0,5-3.1,5.1-5.9c0.3-9.1,5-17.3-1.9-25c-1.6-1.8-3.5-3.6-5.6-5.3c18-1.4,35.9-3.8,53.4-8.1c8-2,15.8-3.8,23.9-5.3c4.8-0.9,9.6-2,14.2-3.5c11.6-1.6,23-5.7,32.5-11.1c0.4-0.2,0.8-0.5,1.2-0.7c10.3,7.8,23.8,10,36.3,11.8c15.7,2.4,30.9,6.2,46.9,5.1c2.3-0.2,4.7-2,5-4.4c1.7-16.3-7.9-32-17-44.7c-4.1-5.6-8.6-11-13.6-15.8c-2.2-2.1-4.5-4.3-7.1-6.2c10.8,0.6,21.7-0.3,32.5-1.9c3-0.5,5.2-2.7,5.1-5.9c-0.4-9.6-7.3-18.3-14.2-25.1c21.4-5.5,35.3-26.2,54-36.9c1.8-1,2.4-3.1,2.4-5v-1C517,219.8,514.8,218.2,512.6,217.5z M427.1,225.6c-6.7,11-20.3,17.5-31.9,21.8c-12.7,4.7-26.6,6.5-40,4.7c-9.3-1.3-17.9-5.1-26.1-9.5c-7.2-3.8-16.4-9.2-19.3-17.2c-0.5-1.4-0.4-2.9-0.2-4.3c0.5-2.7-0.8-4.7-2.7-5.7c0.4-0.8,0.8-1.6,1.2-2.4c1.5,0.7,3.4,0.8,5.2-0.4c14.2-9.1,30.4-15,47-17.5c13.7-2.1,30-2.7,40.7,7.8c10.1,9.9-8.9,14.7-15.5,15.7c-4.7,0.8-9.5,1-14.3,0.9c-2.8,0-5.6-0.4-8.4-1c-0.9-0.2-5.6-3.3-3.5-3.1c7,0.8,9.2-10,2.1-10.8c-10.7-1.1-17.4,9-11.3,18.2c4.9,7.4,16,7.6,23.9,7.7c13.2,0.1,35.2-2.4,40.2-17.2c3-9.1-3.5-17.8-10.7-22.7c-8.6-5.8-18.2-7.5-28.4-7.7c-21.6-0.4-44.1,6.6-62.9,17.5c0.5-2.8,0.7-5.6,0.6-8.5c0.2-0.1,0.4-0.3,0.7-0.5c10.4-8.4,23.6-9.8,36.4-11.1c13.3-1.4,26.8-3.2,40.1-2.1c13.8,1.2,27.2,6.6,35.9,17.7C433,205.1,433,215.9,427.1,225.6z M328.6,254.6c-4.8,1.2-9.5,2.8-13.8,4.9c1.7-3.3,3-6.8,3.6-10.3C321.9,251.3,325.4,253.1,328.6,254.6z M225.6,209c15.4,7.8,40.3,7.3,50.6-8.9c8.8-13.8-3-37.4-20.7-29.4c-6.4,2.9-2.8,13.3,3.6,10.4c7.2-3.3,10.8,5.5,8.6,11.6c-3.1,8.3-16,10.8-23.7,10.2c-14.7-1.1-37.6-16-29.7-33.5c6.2-13.6,26.7-17.7,39.9-19c7.3-0.7,14.8-0.6,21.9,1.3c9.5,2.5,15.6,12.2,19.7,20.5c4.7,9.4,7.4,18.3,5,28.8c-2.5,11-10,20.8-19.8,26.3c-18.2,10.3-42.5,4.2-58.7-6.9c-15.9-10.9-31.1-31.8-23.9-52c3.7-10.4,12.6-18.4,22.4-23c8.1-3.9,20.7-9.3,29.7-5.5c-1.8,0.2-3.6,0.5-5.4,0.8c-15.3,2.7-33.3,9.1-40.7,24C195.7,182.2,210.2,201.2,225.6,209z M281.1,240.1c1.6-0.5,2.7-1.5,3.2-2.7c5.4-2.7,10.4-6.3,14.5-10.8c0.6,3.1,1.9,6,3.7,8.6c0,1.3,0.6,2.7,2.1,3.8c10.4,7.3-4.6,22.9-11,27.4c-11.7,8.3-25.8,12.6-40,13C254.1,262.2,263.9,245.3,281.1,240.1z M308.6,173.8c2.5,1.2,5.1,2.2,7.8,2.9c-1.9,0.9-3.8,2-5.6,3.1c-0.3-0.9-0.6-1.8-0.9-2.7C309.4,176,309,174.9,308.6,173.8z M433.8,159.9c-0.5,2.8-1.5,5.6-2.5,8.1c-0.5,1.3-2.9,7.3-4.2,7.4c-2.2,0.2-3.6,1.4-4.3,2.9c-1.6-1.1-3.2-2.2-4.8-3.1c-5.9-3.5-12.5-5.5-19.2-6.8c3.9-3.9,6.8-9.3,8.5-15C416.8,153.8,425.4,155.3,433.8,159.9z M320,88.4v-0.3c0.6,0,1.2,0,1.8,0c16.2,0.2,32.7,2.9,47.4,10.1c13,6.4,24,16.7,28.3,30.8c2,6.8,2,14-0.4,20.6c-1.9,5.3-5.6,13.4-12.2,13.7c-2.6,0.1-4.1,1.7-4.7,3.6c-0.3,0-0.7,0-1,0c-12.7,0.1-25.4,1.7-38,3.2c-2.3,0.3-4.6,0.6-6.9,1c-0.7-2.2-2.5-3.9-5.5-3.8c-11.2,0.5-23.6-6.5-29.9-15.7c-6.2-9.1-0.2-16.8,8-21.2c8.3-4.4,19.1-5.5,28.2-3.3c3.5,0.8,6.9,2.7,9.1,5.6c1.3,1.7,2.1,4,1.9,6.1c-0.3,2.7-4.3,3.3-6.3,3.6c-7,1-6.2,12,0.8,11c9.2-1.4,16.5-6.2,16.5-16.2c0-6.9-5-13.3-10.5-16.9c-11.8-7.6-28.5-6.1-41-1.2c-11,4.4-19.9,13.3-20.1,24.5c-4-2.1-8.5-3.4-13.2-4.1c0.8-1.7,0.6-3.8-0.3-5.5c0.4-6.8,0.4-13.9,0-20.9c2.7,0.5,5.4-0.7,5.7-4.2c0.5-7.5,9.9-13.7,16.2-16.5c4.8-2.2,10-3.3,15.2-3.9c0,0.3,0,0.6,0,0.9C312.7,88.8,316.4,88.3,320,88.4z M264.9,73c1.2-6.1,6.5-12.7,10.6-17.8c5-6,11.2-12.4,18.9-14.7c7.7-2.3,11.3,12.5,12.5,17.9c1.5,6.2,2,12.7,2.1,19.2c-8,0.8-15.9,2.7-22.9,6.5c-5.7,3.1-12.4,8-16.3,14.2c-1.7-7.7-4.4-14.9-8.7-21.1C263,76.6,264.5,75.3,264.9,73z M239.1,71.8c21.2,9.7,23.2,36.3,22.3,58c-2.4-0.8-4.7-1.4-7.3-1.5c-0.6,0-1.2,0.1-1.8,0.3c-3.9-1.1-7.9-1.3-11.9-0.9c-0.3-0.7-0.8-1.4-1.5-2.1C224.3,112.2,231.5,88.3,239.1,71.8z M167.2,112.3c-1.9-3.8-4.1-8-4.6-12.3c0.4-0.2,0.8-0.4,1.1-0.4c2.8-0.5,5.8-0.3,8.6,0c6.5,0.8,12.9,2.6,18.9,5c6.4,2.6,11.7,6.8,17.1,11c6.4,5,12.7,10.2,19.1,15.2c-1.6,0.5-3.2,1.1-4.7,1.7c-8,3-15.5,7.3-21.7,13.1c-0.4-0.1-0.8-0.1-1.2-0.1c-6.8-0.1-12.7-2.2-17.5-7.1c-3.1-3.1-5.1-8.1-7.3-11.9C172.3,121.8,169.6,117.1,167.2,112.3z M111,317.5c1.8-4.9,4-9,6.9-13.3c0.3-0.5,0.7-1,1-1.5c0.9,1.8,1.8,3.6,2.6,5.5c2.6,6,4.9,13,6.2,19.4c2.2,10.8-2.2,21.9,1,32.5c-1.1,1.2-1.6,2.8-1.6,4.4c-1.5-0.2-2.9-0.5-4.3-1c-8.1-3-12.3-10-14.6-18C105.6,336.1,107.7,326.4,111,317.5z M128.5,407.5c-3.1,8.7-10.5,14.1-17.5,19.6c-6.6,5.2-15.4,11.3-24,7.6c-4.4-1.9-8.3-6.5-11.7-9.8c-4.2-4.1-8.8-8.4-11.2-13.9c-1.9-4.3-2.3-9.1-3.5-13.6c-1.1-4.3-3-8.4-5.5-12.1c-4.2-6.1-13.1-11.5-14.7-19.1c-0.7-3.4,0.7-7.3,1.2-10.6c0.7-4.7,1-9.5,1.1-14.2c0.2-8.6-0.6-17.3-1.3-25.9c12.5,1.9,24.9,4,37.5,1.5c6.3-1.2,11.9-3.7,17.7-6.4c2.1-1,4.1-2,6.3-2.8c-1.9,4.2-3.3,8.9-4.7,13.2c-3.1,10.2-2.9,20.7,0.3,30.8c3.1,9.5,9.2,16.2,17.8,20.9c3.7,2,7.7,2.9,11.9,3c0.1,0.5,0.2,1,0.3,1.5c-1.5,1.3-2.2,3.3-1.3,5.7C130.3,390.6,131.4,399.3,128.5,407.5z M232.2,435.7c-3.7,4.3-6.5,9.5-7.1,15c-0.6,0.2-1.1,0.4-1.6,0.7c-21.3-5.2-39.6-21.1-54.9-36c-7-6.8-13.6-14.2-19.4-22c-3.6-4.9-9-12-10.1-18.7c1-0.2,2-0.4,3-0.6c0.2,0.6,0.5,1.2,0.9,1.8c11.7,16.5,28.1,28.3,45.4,38.3C202.4,422.4,216.3,431.9,232.2,435.7z M259.7,399.4c-0.4,2.3-0.8,4.6-1.1,7c-20.2-0.8-41.1-5.4-60.3-11.2c-13.9-4.2-30.2-9.7-41.3-20c0.9,0.2,1.8,0.5,2.7,0.7c10.5,2.5,21.3,4.1,32.1,5.3c17.1,1.9,34.4,2,51.5,1.3c0.2,0.2,0.5,0.3,0.7,0.5c4.9,2.6,9.4,6.2,13.5,9.8C260.2,395,260.3,395.8,259.7,399.4z M311.3,362.7c-19.4,5-39.6,6.9-59.5,8.2c-19.9,1.3-40,1.3-59.8-0.9c-10.1-1.1-20.2-2.8-30.1-5c-2.3-0.5-4.6-1.1-6.9-1.7c-0.9-1.4-2.5-2.3-4.8-1.9c-0.5,0.1-1,0.2-1.6,0.3c-2.8-0.7-5.6-1.4-8.4-2c0-0.5-0.2-1.1-0.4-1.7c-2.1-5.3-1.2-11-0.7-16.5c0.5-5.7,0.5-10.9-0.7-16.6c-1.3-6.2-3.6-12-5.6-17.9c-1.3-3.9-4.1-8-5.3-12.1c0.3-0.7,0.5-1.5,0.5-2.5c0.1-30.2,4.2-62.7,16.4-90.5c4.9-11.1,11-21.6,16-32.7c2.1-4.6,4-9.2,6.3-13.7c1.4-2.8,3.5-8.2,6.6-9.5c0.3-0.2,0.7-0.3,0.9-0.5c0.6,0.7,1.1,1.3,1.7,1.9c4.5,4.6,10.4,7,16.5,8.1c-11.6,18.3-6.8,40.9,6.3,57.6c13.5,17.2,35,28.8,56.9,29.9c0.3,0,0.6,0,0.8,0c-10,11.2-15.1,26.9-13.8,42.2c0.3,3.2,2.9,4.9,5.9,5.1c9.3,0.4,18.7-0.9,27.5-3.6c-3.7,11.1-1.5,26.5,1.2,35.3c5.8,19.1,24.2,31.9,42.7,38.5C317.2,361.3,314.2,362,311.3,362.7z M362.6,350.9c-0.5,0.1-1,0.3-1.5,0.4c-1.6-0.9-3.6-1.1-5.6,0c-1.1,0.6-2.3,1.2-3.5,1.7c-16.9,2-33.8-2.7-47.8-13.1c-9.1-6.8-15.4-15.9-17.7-26.7c-1.6-7.6-1.9-17.1,1.2-24.3c0.7-1.7,1.6-3.1,3.5-3.7c3.1-1,4-3.8,3.4-6.3c0.9-0.5,1.8-1.1,2.7-1.7c-2.6,6.6-2.8,14.1-0.8,20.9c2.1,6.9,7.8,12,13.6,15.8c12.7,8.3,30.7,11.2,45.5,8.8c13.5-2.2,28.5-13.1,21.7-28.6c-4.7-10.8-19.6-15.7-30.5-13.6c-6.9,1.3-6.1,12.3,0.8,11c6.4-1.2,16.7,0.5,19.7,7.2c2,4.6-1.2,8.3-4.9,10.5c-10.5,6.2-27,3.5-37.8-0.4c-12.4-4.5-23.5-14.6-16.6-28.8c6.7-13.8,28.4-16.2,41.7-17.5c0.4,0,0.7-0.1,1.1-0.2c8.4,1.6,17,1.8,25.5,0.8c9.6,4.9,16.2,16.1,21.1,25.3c4.6,8.8,6.3,18.9,4.2,28.6C397.6,335.3,379.3,346.2,362.6,350.9z M438,313.6c4,3.9,7.5,8.3,10.8,12.8c6.4,8.7,14.6,20.6,15.4,32.2c-12.8,0.1-25-3-37.7-4.9c-10-1.5-21.5-2.7-30.4-8.2c10.7-9.7,17.4-23.1,17.3-38.1c0-4.5-0.8-8.9-2-13.1c0.2,0,0.4,0.1,0.6,0.1c0,0,0.1,0,0.1,0c1.1,0.4,2.2,0.7,3.3,1c0.5,0.1,1,0.2,1.5,0.3c1.5,0.7,3,1.6,4.4,2.6c-0.3,2.6,1,5.3,4.2,6C430.2,305.4,434.6,310.4,438,313.6z M462.7,286.2c-9.8,1.2-19.7,1.7-29.5,0.7c-4.9-0.5-9.9-1.3-14.7-2.2c-1.4-0.5-2.9-0.8-4.5-1.1c-2.6-0.7-5.1-1.6-7.8-2c-0.8-1.4-1.6-2.9-2.4-4.3c-3.5-5.9-7.7-12.1-12.9-17.1c4.3-1.1,8.5-2.6,12.6-4.2c3.1-1.3,6.3-2.8,9.3-4.4c0.7,1.2,1.8,2.3,3.5,2.7c11.3,3.1,21.8,5.8,30.9,13.5C452.4,272.3,459.9,279,462.7,286.2z M482.8,239.4c-8.2,7-17.6,14.7-28.7,16c-1.4,0.2-2.4,0.7-3.2,1.5c-8.4-6-17.7-9.2-27.7-12c6.7-5.1,12.4-11.3,15.8-18.5c11.4-0.5,22.5-3.8,33.9-4.8c9.4-0.9,18.3,0.9,27.1,3.5C494,229.5,488.5,234.6,482.8,239.4z"></path></svg>