<svg xmlns="http://www.w3.org/2000/svg" x="0px" y="0px"
width="48" height="48"
viewBox="0 0 48 48"
style=" fill:#000000;"><path fill="#f3ad20" d="M24.075,1.227c-0.368-0.242-0.885-0.203-1.241,0.057c-0.356,0.259-0.55,0.709-0.545,1.15 c-0.271-0.441-0.655-0.811-1.106-1.066c-0.237-0.134-0.513-0.238-0.777-0.173c-0.169,0.041-0.315,0.148-0.441,0.267 c-0.539,0.509-0.79,1.304-0.641,2.029c-0.28-0.771-1.056-1.336-1.876-1.364c-0.345-0.012-0.722,0.083-0.926,0.361 c-0.135,0.184-0.174,0.42-0.201,0.647c-0.07,0.577-0.336,2.083,0.101,3.473l7.953-1.719C25.328,2.891,24.443,1.469,24.075,1.227z"></path><path fill="#fcbf95" d="M13.02,17.189c0,0-1.818,4.158-2.242,6.372s-0.862,2.778,0,4.265 c0.274,1.783,0.229,3.987,0.229,3.987s1.58,6.744,2.667,8.992s1.044,3.226,3.683,3.325l0.239,2.566c0,0,5.599,1.193,9.84,0.389 s5.751-1.132,5.673-1.929c-0.078-0.797-1.166-9.812-1.166-9.812s3.684,0.062,4.308-3.954c0.624-4.016,0.085-4.527-1.583-4.709 C33,26.5,29.989,27.804,29.989,27.804s0.554-6.656-0.967-8.121c-1.522-1.464-1.965-4.437-1.965-4.437S25.5,16.615,22,15.933 S14.165,15.909,13.02,17.189z"></path><path fill="#febf10" d="M33.529,35.429l-1.796,0.212c-0.556,1.837-0.963,3.719-1.218,5.622 c0.488-0.607,0.949-1.236,1.381-1.884c0.174,1.035,0.527,2.049,1.118,2.916c0.114-0.761,0.228-1.523,0.342-2.284 c0.317,0.73,0.75,1.409,1.28,2.004C34.863,39.789,33.794,37.649,33.529,35.429z"></path><path fill="#373837" d="M13.342,16.486c-0.001,0.065-0.113,0.061-0.067,0.107c0.046,0.046,0.123,0.034,0.186,0.018 c2.136-0.538,4.295-1.25,6.487-1.043c1.254,0.118,2.467,0.536,3.723,0.632c1.256,0.096,2.656-0.21,3.404-1.223 c-0.183,1.54,0.736,2.974,1.627,4.244c0.599,0.854,1.224,1.754,1.339,2.791c0.061,0.555-0.029,1.113-0.092,1.668 c-0.148,1.306-0.147,2.629,0.005,3.934c0.026,0.219,0.093,0.484,0.307,0.541c0.13,0.034,1.931-0.053,2.051-0.112 c1.071-0.523,0.476-1.019,1.547-1.541c0,0,1.641-0.002,2.641,0.998c0,0,0.716-1.487,2.239-3.829 c1.523-2.342,0.434-5.231-0.144-5.067c0.648-2.341,1.483-4.222-0.699-6.559c0.638-2.171-0.073-7.81-8.016-7.225 S18.568,7.396,16.925,9.113S13.372,15.097,13.342,16.486z"></path><path fill="#010101" d="M34.725,28.854c-0.14-0.241-0.446-0.32-0.683-0.187c-0.239,0.138-0.323,0.442-0.187,0.683 c0.214,0.374,0.504,1.165,0.235,1.76c-0.183,0.403-0.623,0.679-1.305,0.822l-0.101-0.093c0.01-0.09,0.142-0.226,0.27-0.356 c0.188-0.193,0.423-0.434,0.521-0.774c0.146-0.498-0.067-1.061-0.506-1.336c-0.233-0.147-0.542-0.077-0.689,0.156 c-0.147,0.234-0.077,0.543,0.156,0.689c0.062,0.039,0.1,0.141,0.079,0.21c-0.029,0.102-0.149,0.226-0.277,0.356 c-0.225,0.229-0.504,0.517-0.548,0.955c-0.033,0.321,0.098,0.654,0.35,0.89c0.209,0.196,0.48,0.305,0.749,0.305 c0.055,0,0.109-0.005,0.163-0.014c0.002,0,0.003-0.001,0.004-0.002c0.004-0.001,0.009,0,0.013-0.001 c1.024-0.211,1.707-0.68,2.031-1.396C35.408,30.623,35.106,29.523,34.725,28.854z"></path><path fill="#010101" d="M23.448,27.457c-0.827-0.246-1.767-0.529-2.734-0.445c-0.845,0.066-1.665,0.408-2.309,0.963 c-0.209,0.181-0.232,0.496-0.053,0.705c0.099,0.115,0.238,0.174,0.379,0.174c0.116,0,0.231-0.04,0.326-0.121 c0.458-0.394,1.035-0.639,1.633-0.708c-0.082,0.173-0.062,0.386,0.071,0.54c0.146,0.168,0.446,0.519,0.914,0.55 c0.017,0.001,0.034,0.002,0.052,0.002c0.303,0,0.603-0.177,0.757-0.45c0.074-0.132,0.106-0.276,0.098-0.416 c0.075,0.02,0.15,0.039,0.224,0.061c0.028,0.034,0.062,0.064,0.099,0.091c0.166,0.115,0.385,0.133,0.571,0.045 c0.162-0.077,0.313-0.293,0.327-0.472C23.822,27.74,23.674,27.524,23.448,27.457z"></path><path fill="#010101" d="M17.999,34.064c-0.113,0-0.227-0.038-0.319-0.115c-0.063-0.053-0.209-0.199-0.209-0.432 c-0.309-0.016-0.631,0.029-0.924,0.137c-0.262,0.095-0.547-0.039-0.642-0.298c-0.095-0.26,0.039-0.547,0.298-0.642 c0.604-0.222,1.282-0.261,1.908-0.111c0.17,0.038,0.306,0.124,0.396,0.253c0.149,0.211,0.146,0.451-0.009,0.715 c-0.002,0.11-0.039,0.222-0.115,0.313C18.284,34.003,18.143,34.064,17.999,34.064z"></path><path fill="#010101" d="M39.92,19.33c-0.08-0.36-0.29-0.8-0.63-1.05c0.69-1.71,0.76-3.75,0.16-5.25 c-0.25-0.61-0.55-0.98-0.85-1.2c0.6-1.3-0.01-2.74-0.51-3.93c-0.75-1.77-3.26-3.14-4.81-3.55c-0.95-0.25-1.93-0.19-2.84-0.1 c-0.49,0.05-0.98,0.12-1.47,0.2c-0.04,0.31-0.03,0.65,0.04,1c0.51-0.08,1.03-0.15,1.54-0.2c0.81-0.09,1.68-0.14,2.48,0.07 c1.57,0.41,3.6,1.71,4.14,2.97c0.61,1.46,1,2.56,0.32,3.46c-0.1,0.13-0.12,0.31-0.06,0.47c0.06,0.16,0.19,0.28,0.36,0.32 c0.35,0.07,0.59,0.5,0.73,0.86c0.56,1.4,0.41,3.45-0.37,4.98c-0.09,0.18-0.09,0.39,0.04,0.55c0.13,0.15,0.31,0.21,0.51,0.15 c0.05,0.03,0.18,0.21,0.24,0.46c0.24,1.11-0.11,2.33-0.5,3.49c-0.17,0.52-0.6,1.06-1.06,1.64c-0.51,0.65-1.04,1.32-1.26,2.06 c-0.52-0.44-1.25-0.65-1.96-0.5c-0.7,0.14-1.36,0.6-1.83,1.27c-0.51,0.21-0.93,0.29-1.34,0.23c-0.05-0.01-0.15-0.02-0.26-0.02 c-0.08-0.01-0.18-0.02-0.26-0.03c0-0.02-0.01-0.07-0.02-0.12c-0.15-1.27-0.15-2.55,0-3.82l0.03-0.26c0.06-0.49,0.12-1,0.06-1.52 c-0.13-1.18-0.82-2.16-1.43-3.03c-0.87-1.23-1.7-2.55-1.54-3.89c0.03-0.23-0.1-0.45-0.31-0.53c-0.21-0.08-0.45-0.01-0.59,0.17 c-0.54,0.74-1.64,1.11-2.96,1.02c-0.62-0.05-1.22-0.17-1.86-0.31c-0.6-0.13-1.22-0.26-1.85-0.32c-1.95-0.18-3.85,0.32-5.68,0.8 c-0.24,0.07-0.48,0.13-0.72,0.19c-0.21-0.12-0.51-0.09-0.67,0.08c-0.14,0.14-0.18,0.33-0.15,0.5c-0.01,0.01-0.01,0.01-0.02,0.02 c-1.11,1.69-1.63,3.63-2.14,5.51c-0.36,1.36-0.74,2.77-0.82,4.23c-0.03,0.54,0.2,1,0.41,1.4c0.14,0.28,0.27,0.54,0.3,0.78 c0.06,0.52,0.04,1.05,0.03,1.62c-0.03,0.79-0.06,1.6,0.14,2.39l0.97,3.95c0.14,0.55,0.28,1.11,0.45,1.65 c0.26,0.8,0.59,1.57,0.9,2.32l0.75,1.75c0.16,0.36,0.33,0.77,0.63,1.12c0.51,0.59,1.33,0.93,2.48,1.08l0.01,1.88 c0.01,0.12,0.01,0.38,0.19,0.59c0.18,0.22,0.43,0.26,0.55,0.28c2.07,0.37,4.16,0.56,6.25,0.56c1.98,0,3.97-0.17,5.93-0.5 c1.05-0.18,2.24-0.43,3.23-1.14c0.18-0.13,0.37-0.29,0.46-0.55c0.08-0.23,0.05-0.45,0.04-0.59c-0.05-0.35-0.09-0.96-0.14-1.56 c-0.02-0.26-0.04-0.52-0.05-0.76c0.09-0.08,0.16-0.18,0.18-0.3l0.12-0.83c0.2,0.28,0.41,0.55,0.63,0.81 c0.13,0.14,0.34,0.2,0.53,0.14s0.32-0.23,0.34-0.43c0.15-1.45-0.22-2.86-0.57-4.22c-0.21-0.77-0.41-1.58-0.52-2.36 c0.02-0.01,0.03-0.01,0.05-0.02c0.57-0.34,1.08-0.84,1.55-1.52c1.12-1.64,1.58-3.71,1.25-5.67c-0.03-0.13-0.06-0.28-0.1-0.43 c0.12-0.09,0.21-0.23,0.21-0.4c0.01-0.69,0.57-1.4,1.17-2.15c0.49-0.62,0.99-1.26,1.22-1.95C39.82,22.06,40.21,20.69,39.92,19.33z M34.1,40.38c-0.11-0.18-0.2-0.37-0.28-0.57c-0.09-0.2-0.31-0.33-0.53-0.3c-0.22,0.03-0.39,0.2-0.43,0.43l-0.11,0.74 c-0.16-0.43-0.28-0.89-0.36-1.38c-0.03-0.21-0.19-0.37-0.39-0.41c-0.2-0.04-0.41,0.04-0.52,0.21c-0.05,0.07-0.09,0.14-0.14,0.21 c0.23-1.16,0.51-2.31,0.85-3.44c0.09,0.02,0.19,0.04,0.28,0.04c0.21,0,0.42-0.03,0.63-0.07c0.11,0.76,0.3,1.52,0.49,2.25 C33.79,38.88,33.99,39.63,34.1,40.38z M34.81,33.37c-0.38,0.56-0.78,0.96-1.23,1.22c-0.45,0.27-0.96,0.37-1.4,0.29 c0-0.09-0.03-0.18-0.08-0.27c-0.15-0.23-0.46-0.3-0.69-0.16c-0.22,0.14-0.34,0.39-0.3,0.65c0.02,0.13,0.09,0.25,0.17,0.35 c-0.01,0.02-0.02,0.03-0.03,0.05c-0.56,1.86-0.97,3.78-1.23,5.7c-0.03,0.22,0.09,0.43,0.3,0.52c0.21,0.09,0.45,0.03,0.59-0.15 c0.26-0.32,0.51-0.65,0.76-0.99c0.15,0.5,0.35,0.96,0.59,1.39c0.04,0.35,0.08,0.94,0.13,1.53c0.04,0.63,0.09,1.25,0.13,1.62 c0.01,0.04,0.02,0.11,0.02,0.11c0,0.01-0.02,0.03-0.1,0.09c-0.82,0.59-1.88,0.8-2.81,0.96c-3.89,0.66-7.83,0.65-11.76-0.04 l-0.01-1.73c2.97-0.22,5.79-1.27,7.96-2.97c2.3-1.8,4.05-4.32,4.92-7.11c0.09-0.26-0.06-0.55-0.32-0.63 c-0.27-0.09-0.55,0.07-0.63,0.33c-0.82,2.6-2.45,4.95-4.59,6.63c-2.06,1.61-4.76,2.6-7.56,2.77c-1.25-0.04-2.07-0.31-2.5-0.8 c-0.2-0.24-0.34-0.56-0.47-0.86l-0.75-1.75c-0.3-0.73-0.63-1.48-0.87-2.23c-0.16-0.53-0.29-1.06-0.43-1.6l-0.97-3.94 c-0.16-0.66-0.14-1.36-0.11-2.11c0.01-0.59,0.04-1.19-0.04-1.78c-0.01-0.08-0.04-0.15-0.06-0.23c0.13-0.11,0.32-0.18,0.57-0.22 c-0.02,0.09-0.03,0.19,0,0.28c0.03,0.11,0.11,0.2,0.2,0.26c0.06,0.26,0.22,0.48,0.44,0.59c0.14,0.07,0.28,0.11,0.43,0.11 c0.31,0,0.61-0.15,0.8-0.41c0.09-0.11,0.14-0.24,0.16-0.37c0.5,1.29,0.04,2.76-0.56,3.69c-0.02,0.03-0.03,0.06-0.04,0.09 c-0.16,0.42-0.15,0.82,0.04,1.18c0.37,0.7,1.3,1.05,2.01,1.21c0.03,0.01,0.07,0.02,0.11,0.02c0.16,0,0.31-0.08,0.41-0.22 c0.11-0.16,0.12-0.38,0.01-0.55l-0.1-0.16c-0.14-0.22-0.41-0.29-0.63-0.18c-0.47-0.16-0.81-0.37-0.92-0.58 c-0.04-0.07-0.07-0.16-0.01-0.31c1.03-1.66,1.19-3.64,0.38-5.08c-0.01-0.02-0.03-0.03-0.05-0.05c-0.01-0.02-0.03-0.04-0.05-0.06 c-0.04-0.03-0.07-0.06-0.12-0.08c-0.01-0.01-0.02-0.02-0.04-0.03c-0.01,0-0.02,0-0.03-0.01c-0.01,0-0.02,0-0.02,0 c-0.54-0.2-1.08-0.31-1.74-0.35c-0.48-0.03-1.11-0.02-1.63,0.27c-0.15-0.29-0.28-0.57-0.26-0.81c0.02-0.5,0.1-0.99,0.19-1.48 c0.97,0.1,2.04,0.67,3,1.19c0.31,0.16,0.61,0.33,0.97,0.5c0.23,0.12,0.5,0.26,0.83,0.29c0.06,0.01,0.12,0.01,0.18,0.01 c0.45,0,0.86-0.19,1.24-0.36c3.62-1.71,6.51-2.1,7.93-1.08c0.22,0.16,0.54,0.11,0.7-0.11c0.16-0.23,0.11-0.54-0.12-0.7 c-2.24-1.62-6.1-0.36-8.98,1c-0.31,0.14-0.6,0.28-0.84,0.25c-0.15-0.02-0.32-0.1-0.56-0.22c-0.28-0.14-0.58-0.3-0.88-0.46 c-1.01-0.54-2.15-1.16-3.27-1.3c0.13-0.52,0.26-1.04,0.4-1.56c0.48-1.8,0.98-3.66,2.01-5.22c0.03-0.04,0.04-0.09,0.05-0.13 c0.31-0.08,0.61-0.16,0.92-0.24c1.75-0.46,3.57-0.94,5.33-0.77c0.58,0.05,1.14,0.17,1.74,0.3c0.64,0.13,1.31,0.28,1.99,0.33 c1.17,0.09,2.2-0.14,2.98-0.63c0.21,1.24,0.93,2.37,1.68,3.44c0.57,0.8,1.15,1.63,1.25,2.56c0.05,0.41,0,0.84-0.06,1.29l-0.03,0.26 c-0.15,1.35-0.15,2.71,0.01,4.05c0.08,0.67,0.41,0.9,0.67,0.97c0.1,0.02,0.33,0.05,0.53,0.06c0.08,0.01,0.15,0.01,0.19,0.02 c0.14,0.02,0.28,0.03,0.41,0.03c0.5,0,1.01-0.13,1.59-0.38l0.03-0.03c0.03-0.01,0.06-0.04,0.09-0.06c0.02-0.02,0.04-0.04,0.06-0.07 c0.01-0.01,0.03-0.02,0.03-0.03c0.33-0.52,0.8-0.87,1.3-0.97c0.5-0.11,1.05,0.1,1.29,0.47c0.14,0.22,0.21,0.51,0.25,0.76 C36.19,30.15,35.79,31.94,34.81,33.37z"></path><path fill="#010101" d="M18.609,38.424c-0.09,0-0.181-0.023-0.262-0.074c-0.097-0.06-0.166-0.146-0.204-0.244 c-0.398-0.111-0.81-0.327-1.243-0.652c-0.039,0.033-0.08,0.07-0.118,0.105c-0.14,0.128-0.298,0.272-0.489,0.362 c-0.454,0.215-0.938,0.181-1.265-0.083c-0.002-0.001-0.078-0.063-0.08-0.064c-0.059-0.049-0.205-0.171-0.316-0.248 c-0.205,0.177-0.307,0.251-0.407,0.325c-0.092,0.068-0.185,0.136-0.338,0.272c-0.208,0.183-0.522,0.165-0.706-0.04 c-0.184-0.206-0.166-0.522,0.04-0.706c0.187-0.166,0.299-0.249,0.411-0.331c0.093-0.068,0.185-0.137,0.339-0.274 c0.107-0.097,0.368-0.31,0.72-0.29c0.257,0.026,0.504,0.196,0.896,0.522c0.087,0.063,0.176,0.062,0.279,0.013 c0.055-0.025,0.163-0.124,0.241-0.196c0.124-0.113,0.265-0.242,0.428-0.33c0.062-0.033,0.217-0.125,0.438-0.104 c0.204,0.02,0.342,0.125,0.416,0.182c0.534,0.42,0.978,0.621,1.368,0.627c0.181,0.003,0.345,0.102,0.432,0.259 c0.086,0.158,0.082,0.35-0.013,0.503l-0.142,0.229C18.94,38.339,18.776,38.424,18.609,38.424z"></path><path fill="#febf10" d="M12.95,2.063c-0.225,0.01-0.459,0.037-0.645,0.163c-0.425,0.287-0.403,0.909-0.333,1.417 c0.019,0.138,0.06,0.29,0.124,0.418c-0.559-0.265-1.351-0.071-1.62,0.508c-0.112,0.24-0.139,0.511-0.139,0.776 c0,0.421,0.076,0.865,0.341,1.192c-0.456-0.382-1.228-0.43-1.602,0.032C8.71,7.018,8.883,7.724,9.284,8.141 c0.401,0.417,0.774,0.624,1.307,0.85l7.329-3.607C16.341,2.603,14.026,2.018,12.95,2.063z"></path><path fill="#010101" d="M16.567,39.653c-0.018,0-0.035-0.001-0.053-0.003c-0.319-0.034-0.643-0.04-0.96-0.018 c-0.245,0.019-0.464-0.146-0.52-0.383c-0.057-0.238,0.066-0.481,0.291-0.576c0.297-0.126,0.64-0.142,0.943-0.045 c0.116,0.006,0.232,0.015,0.349,0.027c0.274,0.028,0.475,0.274,0.445,0.549C17.037,39.462,16.82,39.653,16.567,39.653z"></path><path fill="#f58420" d="M16.796,6.129c0.547-0.554,1.165-0.804,1.916-1.011c0.235-0.065,0.491-0.109,0.717-0.02 c0.446,0.177,0.549,0.807,0.329,1.233s-0.653,0.692-1.065,0.938c1.114-0.065,2.233,0.63,2.67,1.657 c0.06,0.141,0.109,0.295,0.082,0.445c-0.049,0.277-0.327,0.448-0.589,0.549c-0.533,0.207-1.117,0.279-1.684,0.208 c0.799,0.425,1.325,1.321,1.305,2.226c-0.008,0.36-0.108,0.738-0.369,0.986c-0.572,0.542-1.502,0.197-2.197-0.173 c0.256-0.114,0.374,0.331,0.275,0.593c-0.417,1.108-1.557,1.903-2.74,1.91c-0.065,0-0.138-0.005-0.18-0.054 c-0.04-0.046-0.038-0.115-0.034-0.176c0.021-0.291,0.042-0.582,0.063-0.873c-0.271,0.905-0.669,1.943-1.577,2.204 c-0.957,0.275-1.957-0.581-2.15-1.557c-0.081-0.407,0.019-0.938,0.42-1.049c-0.693,0.576-1.661,0.859-2.524,0.598 c-0.862-0.261-1.543-1.129-1.456-2.025c0.087-0.896,1.052-1.644,1.916-1.389c-0.035-0.621-0.049-1.274,0.23-1.831 c0.279-0.557,0.948-0.968,1.53-0.749c-0.256-0.529-0.199-1.196,0.143-1.674c0.342-0.478,0.954-0.747,1.538-0.676 c0.106,0.013,0.215,0.036,0.319,0.011c0.133-0.032,0.234-0.138,0.322-0.244c0.273-0.33,0.496-0.71,0.834-0.971 c0.339-0.261,0.852-0.37,1.185-0.101C16.345,5.376,16.384,6.093,16.796,6.129z"></path><path fill="#38b47b" d="M31.772,8.809c0.639,0.064,1.403,0.075,1.781-0.444c0.372-0.51,0.125-1.26-0.316-1.712 c-0.779-0.797-2.123-0.963-3.073-0.379l-2.562,6.69c-0.202,0.588,1.417,1.622,2.012,1.801c0.685,0.206,1.511,0.133,1.996-0.393 c0.485-0.526,0.376-1.548-0.297-1.79c1.046,0.254,2.221-0.56,2.351-1.629S32.849,8.814,31.772,8.809z"></path><path fill="#d6e5e5" d="M16.758,8.35c-0.463-0.246-1.047-0.294-1.571-0.284c-0.755,0.014-1.493,0.363-2.002,0.921 c-0.509,0.558-0.786,1.315-0.783,2.07c0.001,0.274,0.042,0.559,0.194,0.787c0.254,0.379,0.744,0.506,1.191,0.601 c0.796,0.17,1.661,0.322,2.396-0.027c0.352-0.167,0.643-0.437,0.928-0.703c0.224-0.209,0.454-0.426,0.57-0.709 c0.09-0.218,0.105-0.459,0.09-0.694C17.723,9.564,17.42,8.703,16.758,8.35z"></path><path fill="#010101" d="M15.154,13.128c-0.489,0-0.987-0.091-1.47-0.193c-0.419-0.09-1.118-0.24-1.503-0.812 c-0.187-0.279-0.277-0.627-0.279-1.064c-0.004-0.89,0.329-1.768,0.913-2.409c0.614-0.672,1.475-1.066,2.363-1.083 c0.763-0.017,1.349,0.095,1.814,0.343c0.728,0.387,1.205,1.272,1.278,2.37c0.023,0.354-0.018,0.654-0.127,0.918 c-0.159,0.387-0.454,0.662-0.69,0.884c-0.296,0.275-0.631,0.587-1.057,0.789C15.999,13.06,15.579,13.128,15.154,13.128z M15.309,8.565c-0.037,0-0.074,0-0.111,0.001c-0.606,0.011-1.22,0.294-1.643,0.757c-0.417,0.458-0.655,1.089-0.652,1.731 c0.001,0.234,0.037,0.401,0.109,0.511c0.146,0.218,0.516,0.313,0.881,0.391c0.764,0.163,1.499,0.284,2.076,0.011 c0.287-0.136,0.549-0.381,0.803-0.617c0.183-0.171,0.372-0.348,0.449-0.533c0.049-0.119,0.066-0.272,0.053-0.471 c-0.037-0.553-0.255-1.291-0.75-1.554h-0.001C16.237,8.64,15.84,8.565,15.309,8.565z"></path><path fill="#f26322" d="M22.929,10.566c-0.577,0.472-0.898,1.269-0.725,1.995c0.173,0.725,0.877,1.312,1.622,1.273 s1.405-0.767,1.301-1.505c0.168,0.795,1.044,1.409,1.822,1.175s1.136-1.379,0.552-1.943c0.475,0.272,1.023,0.467,1.564,0.386 c0.712-0.107,1.313-0.734,1.388-1.451c0.075-0.716-0.382-1.455-1.057-1.707c0.268,0.201,0.678,0.113,0.909-0.129 c0.231-0.242,0.311-0.595,0.307-0.93c-0.012-1.212-1.126-2.304-2.338-2.293c0.418,0.094,0.792-0.383,0.746-0.81 c-0.046-0.426-0.368-0.769-0.706-1.033c-0.441-0.345-0.961-0.623-1.521-0.651c-0.56-0.027-1.158,0.245-1.393,0.753 c0.352-0.377,0.017-1.029-0.452-1.245c-0.919-0.424-2.15,0.362-2.152,1.374c-0.001,0.357,0.214,0.776,0.571,0.772 c-0.161-0.363-0.596-0.553-0.991-0.51c-0.395,0.043-0.748,0.278-1.022,0.565c-0.532,0.556-0.815,1.298-1.085,2.018 c-0.222-0.206-0.548,0.118-0.637,0.408c-0.143,0.466-0.162,0.985,0.04,1.429c0.201,0.443,0.651,0.789,1.138,0.78 C20.81,9.288,19.274,12.423,22.929,10.566z"></path><path fill="#010101" d="M33.481,9.081c0.178-0.1,0.341-0.236,0.476-0.421c0.544-0.746,0.229-1.75-0.362-2.356 c-0.877-0.895-2.291-1.122-3.412-0.594c-0.225-0.209-0.479-0.387-0.758-0.517c0.081-0.195,0.115-0.409,0.093-0.618 c-0.054-0.496-0.347-0.945-0.896-1.374c-0.604-0.472-1.212-0.727-1.803-0.755c-0.342-0.015-0.679,0.048-0.973,0.18 c-0.16-0.27-0.403-0.496-0.688-0.628c-0.014-0.007-0.03-0.007-0.045-0.014c-0.21-0.606-0.539-1.026-0.764-1.173 c-0.53-0.35-1.27-0.32-1.81,0.07c-0.19,0.14-0.35,0.31-0.47,0.52c-0.19-0.18-0.41-0.34-0.64-0.47c-0.42-0.23-0.79-0.31-1.14-0.22 c-0.23,0.05-0.45,0.18-0.67,0.39c-0.31,0.29-0.54,0.66-0.68,1.07C18.52,1.84,18,1.65,17.46,1.63c-0.57-0.02-1.06,0.18-1.34,0.56 c-0.077,0.107-0.118,0.22-0.16,0.332c-1.083-0.715-2.187-0.995-3.029-0.959c-0.266,0.011-0.609,0.049-0.906,0.249 c-0.603,0.407-0.622,1.159-0.58,1.629c-0.032,0.003-0.065,0.006-0.099,0.01c-0.598,0.071-1.093,0.41-1.325,0.908 C9.855,4.717,9.836,5.093,9.836,5.345c0,0.137,0.007,0.267,0.021,0.392C9.796,5.737,9.732,5.738,9.671,5.744 c-0.4,0.039-0.75,0.22-0.983,0.509C8.139,6.928,8.376,7.919,8.923,8.488c0.286,0.297,0.564,0.497,0.87,0.669 C9.763,9.206,9.726,9.25,9.7,9.3c-0.24,0.48-0.3,0.99-0.3,1.51c-0.32,0.03-0.65,0.14-0.94,0.34c-0.54,0.36-0.89,0.94-0.95,1.54 C7.4,13.78,8.2,14.9,9.32,15.24c0.55,0.17,1.16,0.16,1.74-0.02c0,0.03,0.01,0.06,0.02,0.09c0.13,0.69,0.58,1.33,1.18,1.7 c0.35,0.21,0.72,0.31,1.09,0.31c0.17,0,0.34-0.02,0.5-0.07c0.61-0.17,1.03-0.59,1.34-1.11c0.11,0.03,0.24,0.01,0.26,0.03 c1.37-0.01,2.66-0.89,3.17-2.16c0.77,0.22,1.38,0.12,1.83-0.31c0.33-0.31,0.51-0.78,0.53-1.33c0.004-0.252-0.035-0.503-0.096-0.748 c0.26,0.046,0.547,0.026,0.847-0.045c-0.09,0.363-0.098,0.741-0.013,1.1c0.226,0.946,1.111,1.659,2.042,1.659 c0.031,0,0.062-0.001,0.093-0.003c0.516-0.026,1.011-0.285,1.359-0.708c0.026-0.031,0.052-0.064,0.075-0.098 c0.104,0.094,0.218,0.177,0.339,0.249c0.466,0.275,0.986,0.352,1.467,0.206c0.11-0.033,0.212-0.088,0.311-0.144 c0.517,0.64,1.575,1.259,2.066,1.406c0.286,0.086,0.575,0.128,0.854,0.128c0.656,0,1.259-0.231,1.654-0.661 c0.369-0.399,0.519-1.02,0.381-1.578c-0.008-0.03-0.016-0.061-0.024-0.089c0.273-0.075,0.539-0.199,0.784-0.369 c0.583-0.405,0.963-1.01,1.042-1.66c0.079-0.651-0.145-1.33-0.615-1.863C33.524,9.128,33.503,9.104,33.481,9.081z M23.13,1.69 c0.2-0.15,0.49-0.17,0.67-0.05c0.035,0.025,0.111,0.111,0.192,0.252c-0.251,0.053-0.499,0.139-0.731,0.288 c-0.225,0.144-0.408,0.325-0.559,0.522c0.052-0.08,0.088-0.172,0.088-0.272C22.79,2.13,22.92,1.84,23.13,1.69z M16.93,2.79 c0.07-0.11,0.27-0.18,0.5-0.16c0.62,0.02,1.21,0.45,1.42,1.03c0.09,0.25,0.36,0.38,0.61,0.31s0.41-0.32,0.35-0.58 c-0.11-0.56,0.08-1.17,0.5-1.57c0.11-0.1,0.18-0.13,0.21-0.14c0.06-0.01,0.18-0.01,0.42,0.12c0.38,0.22,0.7,0.53,0.92,0.9 c0.12,0.19,0.35,0.27,0.57,0.21c0.096-0.026,0.168-0.088,0.229-0.157c-0.182,0.254-0.305,0.539-0.345,0.839 c-0.468,0.054-0.924,0.301-1.32,0.715c-0.3,0.313-0.523,0.673-0.708,1.043c-0.002-0.006-0.002-0.013-0.005-0.02 c-0.13-0.33-0.36-0.58-0.67-0.7c-0.37-0.15-0.75-0.07-1.03,0.01c-0.152,0.041-0.307,0.087-0.462,0.138 c-0.399-0.629-0.837-1.153-1.298-1.579C16.84,3.039,16.86,2.87,16.93,2.79z M9.464,6.883C9.547,6.78,9.675,6.749,9.768,6.739 c0.199-0.019,0.433,0.052,0.588,0.182c0.198,0.162,0.488,0.154,0.672-0.027c0.184-0.181,0.2-0.472,0.037-0.672 c-0.151-0.187-0.229-0.482-0.229-0.877c0-0.25,0.029-0.43,0.092-0.564c0.1-0.213,0.343-0.313,0.537-0.336 c0.087-0.011,0.186-0.009,0.282,0.014c0.199,0.272,0.472,0.377,0.719,0.374c0.19-0.004,0.361-0.116,0.442-0.288 c0.08-0.173,0.057-0.375-0.063-0.524c-0.101-0.126-0.221-0.233-0.355-0.32c-0.009-0.036-0.017-0.077-0.023-0.123 c-0.07-0.521-0.031-0.835,0.118-0.936c0.087-0.059,0.251-0.072,0.387-0.077c0.935-0.057,2.816,0.5,4.223,2.627 c-0.13,0.077-0.26,0.161-0.385,0.259c-0.01-0.02-0.02-0.04-0.03-0.06c-0.1-0.22-0.22-0.48-0.44-0.66C15.77,4.27,15,4.46,14.53,4.82 c-0.29,0.23-0.49,0.5-0.69,0.76c-0.07,0.1-0.15,0.2-0.22,0.29c-0.04,0.04-0.06,0.07-0.06,0.07c-0.03,0-0.07-0.01-0.14-0.02 c-0.76-0.09-1.55,0.26-2,0.89c-0.3,0.41-0.43,0.93-0.39,1.43c-0.167,0.035-0.325,0.103-0.476,0.186 c-0.358-0.166-0.625-0.335-0.91-0.631C9.408,7.55,9.275,7.114,9.464,6.883z M19.76,12.98c-0.27,0.25-0.78,0.13-1.25-0.07 c-0.02-0.03-0.04-0.05-0.07-0.08c-0.2-0.19-0.48-0.23-0.73-0.12c-0.18,0.08-0.29,0.25-0.3,0.44c-0.01,0.19,0.1,0.37,0.26,0.46 c0.01,0,0.02,0.01,0.03,0.01c-0.32,0.8-1.1,1.4-1.95,1.53l0.04-0.54c0.02-0.26-0.15-0.49-0.41-0.53c-0.25-0.05-0.49,0.1-0.56,0.35 c-0.25,0.81-0.59,1.67-1.24,1.86c-0.32,0.1-0.61-0.02-0.79-0.14c-0.37-0.22-0.65-0.62-0.73-1.03c-0.03-0.16-0.02-0.31,0.01-0.39 c0.08-0.06,0.16-0.12,0.23-0.18c0.19-0.15,0.24-0.41,0.13-0.62s-0.35-0.31-0.58-0.25c-0.21,0.06-0.38,0.18-0.51,0.33 c-0.55,0.33-1.2,0.44-1.73,0.28c-0.67-0.21-1.17-0.88-1.11-1.5c0.03-0.31,0.23-0.62,0.52-0.81c0.24-0.16,0.52-0.22,0.76-0.15 c0.15,0.04,0.32,0.01,0.45-0.09s0.2-0.26,0.19-0.42c-0.03-0.58-0.04-1.13,0.18-1.58c0.17-0.33,0.58-0.62,0.91-0.5 c0.19,0.07,0.4,0.02,0.54-0.13s0.17-0.37,0.08-0.56c-0.18-0.36-0.14-0.83,0.1-1.16c0.24-0.33,0.67-0.53,1.11-0.47 c0.12,0.02,0.28,0.04,0.46,0c0.28-0.07,0.46-0.26,0.59-0.41c0.08-0.11,0.17-0.22,0.25-0.33c0.16-0.22,0.32-0.43,0.5-0.57 c0.19-0.14,0.46-0.19,0.57-0.11c0.04,0.04,0.12,0.21,0.16,0.3c0.14,0.31,0.35,0.78,0.88,0.83c0.15,0.01,0.3-0.04,0.4-0.15 c0.47-0.47,1-0.69,1.7-0.88c0.19-0.05,0.32-0.07,0.39-0.04c0.05,0.02,0.08,0.06,0.1,0.12c0.05,0.13,0.04,0.3-0.03,0.42 c-0.16,0.31-0.54,0.54-0.87,0.74c-0.2,0.12-0.29,0.36-0.22,0.58c0.06,0.22,0.27,0.36,0.5,0.35c0.103-0.007,0.206,0.006,0.308,0.016 c0.001,0.332,0.06,0.649,0.188,0.929c0.18,0.397,0.495,0.703,0.859,0.887c-0.28,0.046-0.565,0.066-0.846,0.029 c-0.25-0.03-0.46,0.12-0.54,0.35c-0.07,0.23,0.03,0.48,0.25,0.59c0.62,0.33,1.05,1.06,1.04,1.77 C19.97,12.51,19.94,12.81,19.76,12.98z M26.136,12.916c-0.268-0.158-0.461-0.417-0.52-0.691c-0.057-0.265-0.318-0.445-0.576-0.389 c-0.266,0.047-0.446,0.295-0.408,0.563c0.027,0.194-0.042,0.41-0.192,0.591c-0.167,0.204-0.406,0.333-0.639,0.346 c-0.441-0.003-0.989-0.382-1.11-0.891c-0.122-0.511,0.106-1.125,0.555-1.492c0.198-0.162,0.242-0.446,0.103-0.66 c-0.096-0.146-0.255-0.227-0.419-0.227c-0.077,0-0.154,0.018-0.227,0.055c-1.367,0.694-1.687,0.513-1.687,0.514 c-0.083-0.111,0.013-0.652,0.243-1.127c0.076-0.156,0.065-0.341-0.027-0.487C21.14,8.876,20.98,8.788,20.81,8.788 c-0.006,0-0.012,0-0.016,0c-0.259,0-0.538-0.203-0.667-0.487c-0.134-0.293-0.14-0.675-0.017-1.075 c0.007-0.023,0.02-0.048,0.034-0.07c0.075,0.021,0.159,0.022,0.238,0.002c0.163-0.038,0.295-0.154,0.354-0.311 c0.251-0.668,0.511-1.359,0.979-1.849c0.23-0.241,0.484-0.388,0.715-0.413c0.025-0.003,0.049-0.004,0.075-0.003 c0.052,0.084,0.111,0.161,0.18,0.229c0.189,0.188,0.437,0.295,0.688,0.287c0.168-0.002,0.324-0.088,0.415-0.229 s0.104-0.319,0.036-0.474c-0.109-0.246-0.296-0.448-0.527-0.59c0.01-0.292,0.2-0.59,0.501-0.782 c0.309-0.198,0.669-0.242,0.94-0.117c0.137,0.063,0.265,0.215,0.294,0.422c-0.032,0.052-0.061,0.105-0.086,0.161 c-0.103,0.223-0.028,0.487,0.175,0.624c0.204,0.136,0.477,0.105,0.645-0.073c0.081-0.087,0.145-0.184,0.191-0.287 c0.179-0.2,0.496-0.331,0.812-0.309c0.382,0.019,0.798,0.202,1.237,0.546c0.32,0.25,0.494,0.482,0.517,0.692 c0.012,0.108-0.069,0.224-0.119,0.258c-0.045-0.001-0.089-0.001-0.135-0.002c-0.254,0.002-0.466,0.194-0.492,0.447 c-0.027,0.253,0.14,0.485,0.388,0.541c0.095,0.021,0.19,0.028,0.291,0.021c0.866,0.094,1.647,0.916,1.656,1.79 c0.003,0.253-0.058,0.464-0.168,0.578c-0.054,0.057-0.133,0.083-0.189,0.086c-0.06-0.029-0.121-0.057-0.184-0.08 c-0.234-0.087-0.494,0.01-0.613,0.229c-0.119,0.218-0.061,0.49,0.138,0.64c0.095,0.071,0.198,0.124,0.308,0.159 c0.363,0.225,0.597,0.672,0.553,1.097c-0.052,0.491-0.476,0.935-0.965,1.008c-0.352,0.054-0.771-0.057-1.241-0.324 c-0.218-0.124-0.496-0.068-0.648,0.134c-0.151,0.201-0.128,0.484,0.053,0.659c0.187,0.18,0.134,0.469,0.113,0.553 c-0.064,0.267-0.25,0.487-0.462,0.552C26.595,13.089,26.36,13.048,26.136,12.916z M31.723,9.307 c0.074,0.008,0.162,0.017,0.261,0.023c0.297,0.056,0.585,0.226,0.812,0.482c0.281,0.319,0.418,0.713,0.373,1.081 c-0.045,0.367-0.271,0.717-0.62,0.959s-0.755,0.333-1.117,0.244c-0.255-0.06-0.52,0.088-0.597,0.343 c-0.076,0.255,0.061,0.524,0.311,0.614c0.157,0.057,0.22,0.223,0.242,0.317c0.059,0.235-0.001,0.507-0.145,0.662 c-0.348,0.38-0.997,0.398-1.483,0.254c-0.539-0.163-1.53-0.884-1.662-1.198c0.058-0.12,0.11-0.245,0.143-0.38 c0.024-0.101,0.04-0.202,0.047-0.302c0.294,0.063,0.578,0.076,0.853,0.033c0.934-0.14,1.712-0.953,1.811-1.893 c0.054-0.511-0.097-1.026-0.388-1.444c0.036-0.03,0.071-0.063,0.104-0.098c0.298-0.31,0.452-0.753,0.446-1.28 c-0.004-0.416-0.11-0.816-0.292-1.177c0.705-0.23,1.539-0.076,2.059,0.455c0.288,0.295,0.474,0.788,0.269,1.068 c-0.186,0.256-0.63,0.291-1.065,0.262C31.98,8.318,31.878,8.31,31.774,8.31c-0.001,0-0.001,0-0.002,0 c-0.266,0-0.485,0.208-0.499,0.475S31.457,9.28,31.723,9.307z"></path><path fill="#cbdb2d" d="M23.903,6.748c-0.392,0.364-0.692,0.887-0.503,1.388c0.084,0.224,0.235,0.416,0.389,0.6 c0.206,0.247,0.422,0.486,0.645,0.717c0.188,0.194,0.401,0.391,0.668,0.428c0.223,0.03,0.443-0.058,0.65-0.145 c0.447-0.186,0.912-0.386,1.219-0.761c0.153-0.186,0.258-0.407,0.345-0.631c0.173-0.448,0.274-0.968,0.056-1.396 c-0.139-0.274-0.394-0.474-0.67-0.61C25.826,5.905,24.573,6.039,23.903,6.748z"></path><path fill="#010101" d="M25.193,10.386c-0.052,0-0.105-0.003-0.159-0.011c-0.463-0.063-0.786-0.396-0.96-0.575 c-0.231-0.239-0.456-0.487-0.67-0.744c-0.179-0.214-0.361-0.447-0.474-0.745c-0.232-0.618-0.001-1.334,0.62-1.918 c0.793-0.825,2.271-1.049,3.372-0.504c0.411,0.202,0.721,0.489,0.895,0.83c0.249,0.49,0.237,1.097-0.035,1.804 c-0.086,0.223-0.212,0.511-0.425,0.77c-0.394,0.479-0.959,0.716-1.413,0.905C25.747,10.278,25.488,10.386,25.193,10.386z M25.6,6.592c-0.515,0-1.027,0.176-1.334,0.5c-0.008,0.008-0.015,0.015-0.022,0.022c-0.249,0.231-0.478,0.574-0.376,0.845 c0.057,0.152,0.177,0.303,0.305,0.456c0.198,0.237,0.405,0.468,0.62,0.688c0.084,0.086,0.257,0.265,0.377,0.281 c0.094,0.013,0.259-0.056,0.392-0.111c0.369-0.154,0.788-0.329,1.023-0.616c0.096-0.116,0.178-0.27,0.265-0.495 c0.114-0.296,0.221-0.708,0.078-0.989c-0.095-0.186-0.295-0.313-0.445-0.388C26.215,6.654,25.907,6.592,25.6,6.592z"></path></svg>