<svg xmlns="http://www.w3.org/2000/svg" x="0px" y="0px"
width="48" height="48"
viewBox="0 0 48 48"
style=" fill:#000000;"><path fill="#bcbcbc" d="M40.292,19.398c-1.771-2.258-7.351-2.852-7.351-2.852s-0.149-1.63-0.15-3.356 c-0.001-1.727-1.547-5.614-2.443-6.974s-1.786-1.821-5.003-2.087c-0.003,0.004-0.007,0.006-0.01,0.01 c-0.012-0.116-0.036-0.232-0.066-0.343c-0.152-0.542-0.466-1.167-1.028-1.196c-0.142-0.007-0.296,0.025-0.418-0.049 c-0.193-0.116-0.17-0.394-0.16-0.619c0.017-0.372-0.025-1.004-0.205-1.33l-3.029,0.01c0.167,0.377-0.354,1.053-0.331,1.464 c0.004,0.082,0.005,0.169-0.032,0.242c-0.086,0.173-0.318,0.194-0.511,0.211c-0.471,0.042-0.939,0.21-1.289,0.527 c-0.327,0.296-0.588,0.891-0.583,1.352c-0.001-0.001-0.011-0.005-0.011-0.005c-0.886,0.126-2.247,0.714-2.993,1.208 c-0.992,0.657-1.998,1.338-2.727,2.279c-0.945,1.221-1.344,2.784-1.473,4.322c-0.128,1.538-0.009,3.085-0.035,4.629 c-0.048,2.872-0.597,5.718-0.646,8.589c-0.032,1.862,0.147,3.719,0.266,5.577c0.267,4.186,0.445,8.519,0.405,12.714 c1.179,0.662,1.889,1.43,3.093,2.045c0.895,0.457,2.506,0.909,3.481,1.154c0.719,0.18,1.461,0.247,2.199,0.304 c4.66,0.361,9.67,0.272,13.558-2.322c0.125-0.084,0.256-0.178,0.31-0.319c0.058-0.153,0.013-0.323-0.024-0.482 c-0.216-0.928-0.125-1.925,0.257-2.797c-0.456-0.162-1.55-0.31-2.034-0.293c0,0-0.167,1.089-0.167,1.797 c-1.065,0.563-4.3,1.016-9.33,1.037c-5.031,0.021-7.414-1.554-8.384-2.145c-0.969-0.591-1.898-2.61-0.519-5.92 s5.121-2.003,7.327-1.34c2.206,0.663,9.232,0.65,12.09-0.073c2.858-0.723,2.777-1.663,2.761-2.915 c3.775,0.102,5.475-2.602,5.883-3.896S42.063,21.656,40.292,19.398z"></path><path fill="#d4e2a9" d="M18.724,34.134c-6.505-1.759-6.5,3.772-6.5,3.772s-1.051,4.078,4.019,5.148 c5.07,1.07,12.422,1.746,14.762,0l0.473-8.648C31.478,34.406,25.229,35.893,18.724,34.134z"></path><path fill="#d4e2a9" d="M23.312,20.604l3.75,2.037l4.248-2.246h2.034c0,0,3.459,1.451,2.948,5.23s-2.125,3.572-2.125,3.572 l-12.917-0.33c0,0-3.073,0.532-2.948-1.961c0.126-2.493,0.523-4.914,0.523-4.914S19.219,19.99,23.312,20.604z"></path><polygon fill="#373837" points="24.271,20.719 27.501,22.854 30.375,20.604"></polygon><path fill="#373837" d="M34,20.396c0,0,4.375,3.692,0.771,8.804c2.294-0.322,4.804-0.45,4.454-4.784 S36.042,20.167,34,20.396z"></path><path fill="#010101" d="M39.717,25.08c-0.048-1.792-0.282-3.581-1.67-4.536c-0.809-0.555-1.765-0.644-2.757-0.691 c-2.049-0.1-4.107-0.031-6.097,0.033l-0.331,0.011c-1.25,0.034-2.49,0.092-3.73,0.149c-1.246,0.058-2.492,0.116-3.748,0.149 c-0.698,0.02-2.149,0.06-2.807,1.126c-0.203,0.33-0.284,0.694-0.351,1.038c-0.27,1.406-0.414,2.851-0.428,4.293 c-0.004,0.572,0.023,1.228,0.413,1.766c0.639,0.885,1.857,0.918,2.512,0.937l9.968,0.277c1.206,0.033,2.412,0.066,3.618,0.066 c0.055-0.001,0.108-0.002,0.162-0.003c0.004,0,0.008,0.003,0.012,0.003c0.006,0,0.012-0.003,0.019-0.003 c0.876-0.011,1.727-0.034,2.566-0.293c1.046-0.32,1.879-0.978,2.285-1.803C39.76,26.779,39.735,25.837,39.717,25.08z M28.89,20.896 c0.001,0,0.002,0,0.003,0l0.333-0.011c0.107-0.004,0.211-0.006,0.318-0.01l-1.069,0.691c-0.343,0.22-0.671,0.419-1.013,0.548 c-0.145-0.091-0.287-0.173-0.417-0.247l-1.058-0.602c-0.04-0.023-0.225-0.114-0.469-0.233c-0.001,0-0.002-0.001-0.003-0.002 C26.636,20.979,27.759,20.928,28.89,20.896z M19.022,27.832c-0.213-0.294-0.227-0.74-0.224-1.171 c0.014-1.382,0.151-2.766,0.41-4.113c0.051-0.264,0.105-0.517,0.22-0.702c0.329-0.534,1.187-0.629,1.982-0.65 c0.706-0.019,1.406-0.054,2.107-0.084c0.124,0.103,0.411,0.259,1.56,0.82c0.207,0.101,0.367,0.179,0.413,0.204l1.059,0.602 c0.52,0.296,0.933,0.553,1.123,0.934c0.188,0.377,0.145,0.88,0.084,1.361c-0.093,0.741-0.407,2.519-1.281,3.482l-5.725-0.16 C20.035,28.335,19.33,28.258,19.022,27.832z M30.623,28.63l-2.935-0.082c0.674-1.109,0.953-2.532,1.061-3.391 c0.076-0.606,0.131-1.306-0.182-1.933c-0.073-0.145-0.167-0.271-0.265-0.392c0.248-0.132,0.485-0.278,0.714-0.426l2.139-1.383 c0.078-0.05,0.129-0.122,0.167-0.199c0.577-0.013,1.151-0.024,1.723-0.024c0.095,0,0.192,0.006,0.287,0.006 c0.011,0.008,0.018,0.019,0.03,0.026c1.259,0.692,2.313,2.313,2.451,3.768c0.139,1.441-0.516,3.163-1.531,4.096 C33.094,28.697,31.904,28.665,30.623,28.63z M38.458,27.158c-0.285,0.578-0.898,1.048-1.683,1.289 c-0.359,0.111-0.744,0.176-1.134,0.214c0.833-1.165,1.305-2.749,1.169-4.155c-0.125-1.308-0.833-2.683-1.81-3.661 c0.081,0.003,0.161,0.002,0.242,0.005c0.842,0.041,1.646,0.111,2.238,0.518c1.019,0.701,1.196,2.211,1.236,3.737 C38.734,25.786,38.754,26.558,38.458,27.158z"></path><path fill="#010101" d="M41.983,22.23c-0.252-1.741-1.092-3.241-2.305-4.113c-0.958-0.691-2.119-0.99-3.143-1.254 l-3.111-0.802c-0.002,0-0.003,0-0.005,0c0.036-2.115-0.219-4.217-0.795-6.259c-0.557-1.975-1.293-3.362-2.319-4.369 c-1.138-1.115-2.978-1.992-4.552-1.758c-0.001-0.003-0.002-0.009-0.003-0.012c0,0,0,0,0-0.001c-0.272-0.97-0.8-1.524-1.485-1.56 C24.231,2.1,24.2,2.1,24.157,2.107c0.001-0.047,0.003-0.101,0.005-0.15c0.005-0.105,0.038-1.047-0.267-1.596 c-0.089-0.158-0.256-0.257-0.438-0.257h-0.001l-3.028,0.009c-0.169,0.001-0.331,0.07-0.423,0.211 c-0.092,0.142-0.111,0.304-0.044,0.458c0.007,0.082-0.091,0.323-0.149,0.468c-0.103,0.253-0.209,0.514-0.2,0.773 c-0.035,0.005-0.072,0.008-0.101,0.011c-0.615,0.055-1.176,0.287-1.581,0.654c-0.343,0.31-0.599,0.811-0.703,1.294 c-0.951,0.221-2.149,0.767-2.826,1.216c-0.91,0.604-2.044,1.354-2.847,2.391c-0.887,1.146-1.417,2.689-1.574,4.586 c-0.084,0.997-0.065,2.002-0.048,2.974c0.01,0.563,0.021,1.126,0.011,1.688c-0.023,1.416-0.174,2.859-0.32,4.256 c-0.147,1.415-0.301,2.878-0.325,4.334C9.274,26.893,9.379,28.37,9.48,29.8l0.085,1.244c0.307,4.8,0.439,8.946,0.404,12.677 c-0.002,0.183,0.096,0.352,0.255,0.44c0.521,0.293,0.942,0.604,1.387,0.935c0.513,0.38,1.044,0.773,1.724,1.12 c0.979,0.501,2.668,0.963,3.588,1.194c0.757,0.189,1.543,0.26,2.281,0.316c1.192,0.093,2.429,0.16,3.68,0.16 c3.523,0,7.155-0.536,10.194-2.563c0.135-0.09,0.386-0.257,0.501-0.559c0.108-0.287,0.046-0.554-0.005-0.772 c-0.193-0.824-0.112-1.706,0.228-2.483c0.056-0.127,0.056-0.271,0.001-0.399c-0.056-0.127-0.161-0.226-0.292-0.272 c-0.431-0.152-1.278-0.284-1.864-0.315c0.01-1.856,0.115-3.72,0.315-5.564c0.374-0.084,0.75-0.165,1.113-0.267 c0.697-0.196,1.411-0.457,1.904-1.027c0.485-0.56,0.676-1.162,0.58-1.745c0.635-0.058,1.279-0.154,1.913-0.337 c1.449-0.418,2.824-1.476,3.503-2.694c0.374-0.67,0.553-1.421,0.691-2.071C41.955,25.461,42.22,23.856,41.983,22.23z M20.739,1.626 c0.066-0.164,0.137-0.337,0.181-0.514l2.185-0.007c0.047,0.227,0.071,0.54,0.058,0.838c-0.005,0.117-0.006,0.28,0.023,0.446 c-0.842,0.323-1.789,0.357-2.654,0.096c0.062-0.155,0.073-0.307,0.066-0.433C20.596,1.979,20.686,1.758,20.739,1.626z M18.603,3.43 c0.216-0.195,0.524-0.315,0.867-0.368c0.051,0.086,0.121,0.162,0.22,0.205c0.642,0.282,1.335,0.422,2.028,0.422 c0.799,0,1.597-0.186,2.313-0.556c0.018-0.009,0.029-0.025,0.045-0.036c0.046,0,0.092,0.005,0.139,0.004 c0.254,0.014,0.468,0.456,0.573,0.832c0.087,0.31,0.053,0.382,0.043,0.396s-0.045,0.045-0.158,0.108 c-0.954,0.538-2.133,0.775-3.383,0.704c-1.037-0.063-2.01-0.481-3.039-0.926l-0.055-0.023C18.257,3.916,18.42,3.596,18.603,3.43z M28.019,35.507c0.046,0.619,0.086,1.25,0.118,1.891c-1.831,0.22-3.682,0.27-5.526,0.153c0.017-0.747,0.026-1.495,0.057-2.238 C24.534,35.533,26.321,35.601,28.019,35.507z M30.658,39.956c-0.473,0.139-0.95,0.256-1.429,0.357 c-0.011-0.676-0.03-1.353-0.057-2.038c0.52-0.078,1.036-0.172,1.551-0.277C30.689,38.651,30.668,39.303,30.658,39.956z M28.232,40.487c-1.87,0.299-3.765,0.358-5.651,0.263c-0.004-0.731-0.006-1.458,0.004-2.19c0.652,0.041,1.305,0.068,1.959,0.068 c1.215,0,2.429-0.077,3.633-0.219C28.203,39.107,28.222,39.798,28.232,40.487z M21.579,40.683 c-1.458-0.111-2.907-0.288-4.325-0.498c-0.235-0.035-0.465-0.076-0.697-0.114c-0.048-0.834-0.076-1.669-0.092-2.504 c1.676,0.446,3.39,0.759,5.12,0.922C21.575,39.222,21.576,39.95,21.579,40.683z M21.612,37.476 c-1.746-0.168-3.473-0.495-5.161-0.961c-0.002-0.759,0.007-1.518,0.031-2.274c0.585,0.04,1.186,0.166,1.779,0.302l0.138,0.031 c1.118,0.255,2.204,0.446,3.272,0.602C21.638,35.938,21.63,36.708,21.612,37.476z M15.447,36.239 c-0.618-0.194-1.225-0.417-1.828-0.651c0.392-0.575,0.91-1.031,1.576-1.238c0.092-0.029,0.191-0.031,0.286-0.049 C15.461,34.945,15.448,35.592,15.447,36.239z M12.73,38.421c0.027-0.643,0.165-1.32,0.411-1.94c0.761,0.3,1.536,0.567,2.32,0.804 c0.012,0.863,0.04,1.726,0.086,2.587c-1.005-0.223-1.95-0.537-2.742-1.112c-0.022-0.016-0.048-0.021-0.071-0.033 C12.734,38.625,12.726,38.529,12.73,38.421z M15.61,40.919c0.031,0.443,0.065,0.885,0.105,1.327 c-0.953-0.29-1.889-0.668-2.429-1.411c-0.171-0.236-0.294-0.524-0.387-0.842C13.736,40.452,14.652,40.725,15.61,40.919z M16.74,42.518c-0.045-0.471-0.077-0.944-0.112-1.417c0.16,0.025,0.32,0.05,0.481,0.074c1.427,0.21,2.938,0.392,4.482,0.504 c0.007,0.55,0.003,1.101,0.019,1.649C19.96,43.21,18.33,42.928,16.74,42.518z M22.61,43.366c-0.015-0.538-0.011-1.081-0.018-1.621 c0.555,0.026,1.112,0.045,1.672,0.045c1.326,0,2.659-0.096,3.981-0.295c0.001,0.518-0.005,1.02-0.014,1.511 C26.379,43.315,24.492,43.435,22.61,43.366z M29.246,41.331c0.471-0.094,0.938-0.213,1.404-0.341 c0.002,0.499,0.007,0.998,0.022,1.495c-0.477,0.126-0.954,0.248-1.438,0.348C29.241,42.34,29.248,41.846,29.246,41.331z M30.781,36.969c-0.546,0.117-1.097,0.209-1.649,0.295c-0.032-0.626-0.072-1.241-0.116-1.845c0.654-0.062,1.296-0.146,1.922-0.256 C30.876,35.763,30.823,36.365,30.781,36.969z M34.223,33.009c-0.337,0.39-0.909,0.575-1.42,0.719 c-4.039,1.14-8.811,1.095-14.181-0.129l-0.138-0.031c-1.116-0.255-2.383-0.545-3.584-0.173c-2.069,0.641-3.083,2.965-3.17,4.983 c-0.054,1.264,0.197,2.288,0.747,3.045c0.746,1.027,1.99,1.503,3.108,1.832c2.595,0.765,5.323,1.146,8.052,1.146 c2.67,0,5.34-0.366,7.883-1.099c0.265-0.076,0.418-0.354,0.342-0.619c-0.033-0.112-0.104-0.198-0.192-0.261 c-0.009-0.299-0.009-0.599-0.013-0.898c0.311,0.02,0.701,0.072,1.026,0.134c-0.249,0.829-0.279,1.724-0.078,2.587 c0.015,0.059,0.035,0.146,0.047,0.146h0.001c-0.013,0.018-0.057,0.051-0.13,0.1c-3.865,2.578-8.864,2.578-13.242,2.238 c-0.726-0.055-1.434-0.119-2.115-0.29c-0.707-0.177-2.452-0.642-3.376-1.114c-0.606-0.31-1.081-0.661-1.583-1.033 c-0.382-0.282-0.773-0.573-1.235-0.853c0.026-3.68-0.107-7.759-0.408-12.459l-0.086-1.252c-0.1-1.407-0.203-2.862-0.179-4.285 c0.024-1.413,0.175-2.854,0.32-4.248c0.147-1.417,0.301-2.883,0.325-4.343c0.01-0.573-0.001-1.147-0.011-1.722 c-0.018-0.947-0.035-1.926,0.044-2.873c0.142-1.701,0.603-3.066,1.369-4.057c0.702-0.906,1.715-1.577,2.608-2.169 c0.614-0.407,1.701-0.886,2.516-1.067c0.004,0.002,0.006,0.006,0.01,0.008l0.373,0.16c1.063,0.459,2.163,0.933,3.375,1.006 c0.172,0.011,0.343,0.016,0.512,0.016c1.259,0,2.433-0.289,3.421-0.846c0.179-0.101,0.363-0.221,0.497-0.42 c0.041-0.061,0.056-0.124,0.082-0.187c1.214-0.275,2.879,0.479,3.864,1.445c0.896,0.879,1.55,2.127,2.057,3.927 c0.583,2.068,0.828,4.2,0.755,6.344c-5,1.768-10.518,1.98-15.628,0.557c-0.11-0.03-0.219-0.014-0.317,0.026 c-0.089-0.013-0.182-0.011-0.271,0.027c-1.733,0.764-2.379,2.388-2.849,3.85c-0.457,1.422-0.543,3.056-0.263,4.996 c0.04,0.273,0.052,0.552,0.064,0.827c0.038,0.785,0.076,1.599,0.642,2.291c0.842,1.031,2.102,1.507,3.223,1.835 c0.317,0.093,0.628,0.195,0.938,0.298c0.752,0.247,1.53,0.504,2.37,0.61c1.42,0.18,2.865,0.218,4.344,0.244 c1.761,0.031,3.54,0.047,5.321,0.047c1.148,0,2.297-0.007,3.44-0.02c0.362-0.004,0.74-0.012,1.125-0.026 C34.62,32.2,34.621,32.548,34.223,33.009z M40.688,26.607c-0.129,0.605-0.28,1.244-0.586,1.793 c-0.549,0.984-1.718,1.877-2.907,2.22c-1.234,0.356-2.584,0.373-3.774,0.387c-2.906,0.032-5.846,0.024-8.732-0.027 c-1.506-0.026-2.863-0.063-4.236-0.236c-0.743-0.094-1.442-0.324-2.183-0.568c-0.319-0.105-0.641-0.211-0.969-0.307 c-0.974-0.286-2.06-0.688-2.729-1.509c-0.356-0.437-0.385-1.025-0.417-1.706c-0.014-0.307-0.029-0.616-0.073-0.922 c-0.258-1.787-0.185-3.274,0.224-4.547c0.512-1.594,1.074-2.69,2.282-3.231c2.329,0.643,4.739,0.965,7.15,0.965 c3.102,0,6.198-0.55,9.124-1.599c0.009,0.001,0.016,0.006,0.025,0.007c0.009,0.001,0.018,0.001,0.026,0.001 c0.133,0,0.255-0.053,0.345-0.139c0.057-0.021,0.116-0.035,0.172-0.057c0.015-0.006,0.025-0.018,0.039-0.025l2.818,0.726 c0.984,0.253,2.002,0.516,2.809,1.097c0.993,0.715,1.686,1.971,1.898,3.445C41.207,23.844,40.959,25.339,40.688,26.607z"></path><rect width="2" height="2" x="30" y="24" fill="#010101"></rect><rect width="2" height="2" x="20" y="24" fill="#010101"></rect></svg>