<svg xmlns="http://www.w3.org/2000/svg"  viewBox="0 0 512 512" width="48px" height="48px"><path fill="#74CCCF" d="M318.4 421.7c-2.4-8.8-5.6-18-15.2-20.6-14.7-4-30.4-3.1-45.5-3.4-8.4-.1-20-1.3-27.6 3.1-4.3 2.5-5.1 5.9-4.1 10.7 1.3 6.4 4.4 12.2 4.7 18.8 0 .3 0 .6 0 .9 13.4-.1 26.8-.4 40.2-.8 15.6-.5 31.3-1.1 46.9-2.1C316.3 426.2 316.5 423.2 318.4 421.7zM347.7 171.1c1.3 1.6 2.8 2.8 4.4 3.7 1.5-.3 3.2.2 4.4 1.7 9 2.2 20.3-2 29.2-2.9 6.2-.6 12.9-.5 18.8-2.3 4.8-1.5 8.1-4.2 10.9-8C392.8 165.6 370.3 168.6 347.7 171.1z"/><path fill="#D6E5E5" d="M294.2,339.9c-2.6-17.8-3.7-35.5-5.2-53.4c-1.5-17.1-3.5-34.1-3.2-51.4c0.2-11.2,1.7-23.7-0.8-34.7c-0.2-0.8-0.2-1.6,0-2.3c-11,2.7-25,1.8-33.2,1.9c-3.9,0-15.3,0.4-26.1-1c-0.1,12.8-0.7,25.5-0.4,38.3c0.4,16.7,3.9,33,5,49.6c1.2,17.3,0.4,34.8,1.3,52.1c0.8,15.1,2.3,30.3,4.9,45.2c0.7,0.7,1.1,1.8,1.1,3.1v1c6.3-0.9,12.9-0.8,19.2-0.7c8.6,0.1,17.1,0,25.7,0.5c5.5,0.3,11.4,0.6,17,1.6C299,373,296.6,356.5,294.2,339.9z"/><path fill="#74CCCF" d="M134.2 182.7c-12.8-.5-25.5-1.2-38.3-1.9 2.9 3.4 9.6 5.4 12.9 6.3 8.2 2 16.3-.1 24.6-.3 5.7-.1 11.7 0 17.4-.8 2.9-.4 5.4-1 6.8-2.8C149.8 183.2 142 183 134.2 182.7zM190.2 415.7c-1.8-4-4-8.3-7.1-11.5-3.6-3.8-10.1-4.9-15-5.5-6.3-.9-12.6-1-18.9-1-9.6.1-19.6.4-28.7 3.9-3.6 1.4-7.9 3.4-9.6 7.1-2.6 5.3-1.2 12.8-1.2 18.6 0 1.5-.5 2.6-1.3 3.5 27.6.2 55.2.5 82.9.5-.6-1.5-.5-3.3.7-4.9C193.8 423.8 191.2 418.1 190.2 415.7zM291 176.4c-19.5 1.6-38.9 2.9-58.4 4.2-6.1.4-12.2.7-18.4 1.1.7 1.2.8 2.7-.1 4.3.4.2 1 .6 1.5.8 3.1 1.3 6.6 1.8 9.9 2.2 9 1.1 18 1.2 27 1.1 6.4-.1 12.9-.1 19.3-.3 7-.3 20.2-.7 18.7-10.5C290.5 178 290.6 177.1 291 176.4z"/><path fill="#D6E5E5" d="M167.9,348.6c-2.2-16.5-4-33.1-5-49.7c-2.1-34.6-8.8-68.9-9.2-103.6c-6.3,1.2-13.6,1.1-19.5,1.4c-11.4,0.6-22,2.5-33-1.7c-0.5-0.2-1-0.4-1.5-0.6c0.9,30.4,8.5,60.2,11.2,90.4c1.5,16.5,2,33.1,3.3,49.7c1.1,15,2.2,30,2.4,45.1c0,0.2,0,0.4,0,0.7v12.1c11.5-4.4,24.2-4.9,36.3-4.7c6,0.1,12.5,0.2,18.8,1.3C169.1,375.7,169.7,362.1,167.9,348.6z"/><path fill="#73A1B2" d="M344.7,117c-12.4-4.5-24-10.8-35.5-17.3c-11.2-6.4-22.4-12.9-33.9-18.6c-11.2-5.6-24.1-10.8-36.8-9.4c-13.4,1.5-26,10.6-36.7,18.3c-10.7,7.7-20.7,16.5-31.6,23.8c-16.2,10.9-34.9,17.1-52.2,25.9c19.6-2.2,38.8-7.5,58.5-8.8c25-1.7,50.1-1,75.2-1.4c25.5-0.4,51-0.8,76.5-0.8c10.5,0,21-0.3,31.5,0.3c4.1,0.2,10.6,1.2,15.7,0.1C366,123.3,355.3,120.9,344.7,117z"/><path fill="#D6E5E5" d="M459,143.8c-0.1-0.1-0.2-0.3-0.3-0.4c-0.4-0.6-0.8-1.4-1.4-1.9c-2.6-2.4-5.5-4-8.7-5.3c-7-3-13.9-6-20.7-9.2c-15.5-7.2-30.2-15.3-44.4-24.7C356,84.1,329.1,64.8,299.7,50c-12.9-6.5-26.9-14-41.4-15.9c-15-1.9-28.4,2.8-40.9,10.8C204.4,53.1,192,62,179.1,70.4c-12.9,8.4-26.7,15.1-39.8,23.1c-22.5,13.5-43.8,29-66.2,42.9c-8.5,5.2-17,10.6-24.5,17.1c-4.4,3.8-10.5,9.1-11.8,15.3c11.3,0,22.5,0.3,33.8,0.8c32.7,1.4,65.4,4.1,98.1,3.9c32.9-0.2,65.8-2.9,98.6-5.3c32.6-2.4,65.3-4.9,97.8-8.9c29.9-3.7,59.8-7.8,89.9-9.2C454.6,147.5,455.9,144.5,459,143.8z M388.4,133c-5.9,6.1-15.1,6.6-23.2,6.3c-10.3-0.4-20.4-0.6-30.7-0.6c-26.1,0-52.1,0.4-78.2,0.8c-25.7,0.4-51.6-0.4-77.3,1.3c-25.6,1.7-50.4,9.7-76,10c-1.2,0-2.2-0.3-3-0.9c-4.3,0.3-7.6-6.1-3.1-9.2c22.3-15.7,49.9-21.6,71.7-38c11.5-8.7,22.6-17.9,34.7-25.8c10.7-7,22.9-14.7,36-15.2c13.6-0.5,26.9,3.8,39,9.8c12,6,23.7,12.7,35.4,19.3c12.5,7.1,25.4,14.4,39.2,18.6c12.7,3.8,24.8,7.9,35.1,16.7C389.9,127.7,390.3,131.1,388.4,133z"/><path fill="#73A1B2" d="M408.4,429.2c-15.6,2.3-31.2,4.2-46.8,5.8c-30.6,3-61.3,4.7-92,5.5c-58.9,1.6-117.8,0.4-176.7,0.3c0.5,0.7,1.6,1.5,2.8,2c3.3,1.5,6.9,2.2,10.5,2.8c8.2,1.2,16.5,1.5,24.8,2c9.1,0.5,17.9,2.4,27,3.5c15.5,1.8,31.1,2.4,46.8,2.1c31-0.6,61.6-4.5,92.5-6.3c31.8-1.9,63.9-0.5,95.6-3.1c7.5-0.6,15-1.2,22.4-2.5c5-0.9,10.6-1.9,15-4.6c4.3-2.6,8.4-5.7,12-9.2c0.9-0.9,1.9-1.9,3-2.9C432.9,424.5,420.7,427.4,408.4,429.2z"/><path fill="#D6E5E5" d="M424.2,276.4c-0.9-17.1-1.9-34.3-4.8-51.3c-2.7-15.4-5.9-30.8-6.5-46.5c-1.3,0.7-2.6,1.2-4,1.7c-7.7,2.4-15.8,2.2-23.8,3.3c-8.5,1.2-17.4,3.3-25.6,2.9c0.3,3.3,0.4,6.7,1.1,9.6c2.3,9.3,4.7,18.5,5.3,28c0.5,10.2,1.1,20.4,2.1,30.5c1,10.1,2.7,20.1,3.6,30.2c1.9,20.4,3.2,40.8,4.5,61.2c0.5,7.1,0.5,14.3,1.1,21.4c0.3,3.2,1.4,8,0.7,11.8c3.8,0,7.7,0.3,11.2,0.4c8.8,0.1,17.9,0.3,26.5-1.7c5.8-1.3,11.5-1.9,17-0.3C432.1,343.8,426,310.2,424.2,276.4z"/><path fill="#74CCCF" d="M430.8,387.7c-7.2-2.6-13.8,0.7-21,1.4c-6.6,0.6-13.3,0.7-19.9,0.6c-6.1-0.1-21-3.3-24.2,4.1c-4.5,10.7,6,19.5,6.9,29.9c13-1.4,26-3.1,39-5.1c9.8-1.5,19.3-3.3,29-3.9c-0.1-1.6,0.7-3.3,2-4.5C442.3,401,440.5,391.2,430.8,387.7z"/><path fill="#010101" d="M387.9,126c-10.2-8.8-22.3-12.8-35.1-16.7c-13.9-4.2-26.7-11.5-39.2-18.6c-11.7-6.6-23.4-13.4-35.4-19.3c-12.1-6-25.3-10.3-39-9.8c-13.1,0.5-25.3,8.2-36,15.2c-12.1,7.9-23.2,17.1-34.7,25.8c-21.8,16.4-49.4,22.4-71.7,38c-4.5,3.1-1.2,9.5,3.1,9.2c0.8,0.6,1.8,0.9,3,0.9c25.6-0.2,50.5-8.2,76-10c25.7-1.7,51.5-0.9,77.3-1.3c26.1-0.4,52.1-0.8,78.2-0.8c10.3,0,20.5,0.2,30.7,0.6c8,0.3,17.2-0.1,23.2-6.3C390.3,131.1,389.9,127.7,387.9,126z M359.6,129.1c-10.5-0.6-21-0.3-31.5-0.3c-25.5,0-51,0.5-76.5,0.8c-25.1,0.3-50.2-0.3-75.2,1.4c-19.7,1.3-39,6.6-58.5,8.8c17.3-8.8,36-14.9,52.2-25.9C181,106.4,191,97.7,201.7,90c10.7-7.7,23.3-16.8,36.7-18.3c12.8-1.4,25.7,3.8,36.8,9.4c11.5,5.7,22.7,12.2,33.9,18.6c11.5,6.5,23.1,12.8,35.5,17.3c10.6,3.9,21.3,6.3,30.7,12.1C370.3,130.2,363.7,129.3,359.6,129.1z"/><path fill="#010101" d="M466.1,151.1c4.8-4.1,3.1-11.5-2.1-17.1c-3.9-4.2-9.8-6.4-14.9-8.5c-6.8-2.8-13.4-5.9-20-9.1c-27.4-12.9-51.8-30.5-77-47.1c-24.6-16.1-50.7-32.6-78.7-41.9c-13.1-4.3-26.3-5-39.6-1.4c-14.3,3.9-26.7,13.5-38.8,21.7c-9.1,6.2-18.2,12.5-27.5,18.4c-9.4,5.9-19.3,10.8-28.9,16.3c-19.8,11.3-38.3,24.8-57.4,37.2c-11.5,7.4-23.4,14.2-34.2,22.5c-9.2,7.1-21.8,17.9-20.1,31c0.4,3.3,3.4,4.7,6,4.4c0.9,0.8,2,1.2,3.4,1.2c16.3,0,32.6,0.7,48.9,1.5c0.9,3.3,2.7,6,5,8.2c-0.2,0.5-0.3,1.1-0.2,1.7c0.2,31.6,8,62.4,11.1,93.7c1.7,16.5,2,33.1,3.3,49.6c1.3,16.9,2.5,33.8,2.6,50.7v13c0,0.4,0,0.8,0.1,1.1c-1.9,1.7-3.6,3.7-4.9,6c-3.9,6.8-2.2,16.4-2.2,23.8c0,1.1,0.3,2,0.8,2.7c-6.1,0-12.1,0-18.2,0c-6.3,0-5.7,9.7,0.5,10c1.4,14.1,22.9,15.2,33.8,15.9c7.5,0.5,15,0.5,22.4,1.5c12.9,1.7,25.6,3.7,38.6,4.5c31.1,1.7,62.3-0.9,93.2-3.5c31.6-2.7,63-3.4,94.6-4.2c21.3-0.5,44.5-0.3,64.9-7.4c6.3-2.2,11.9-6.6,16.9-11c4.7-4.2,10.1-9.3,11.4-15.7c0.5-2.5-1.2-5.6-4-5.9c-0.7-0.1-1.3-0.1-2-0.1c0-0.1,0-0.2,0-0.3c0-11.9-1.6-23.6-10.6-31.5c0.4-0.7,0.6-1.6,0.6-2.5c-0.1-35-6.7-69.7-8.5-104.7c-0.9-17.1-2-34.3-4.8-51.3c-2.9-17-6.5-33.8-6.7-51.1c0-1-0.2-1.7-0.6-2.4c1.5-1.9,2.9-3.9,4.1-6c0.6-1,0.8-2,0.7-2.9c0.3,0,0.6-0.1,1-0.1c11.7-1.1,23.5-1.9,35.3-2.3C467.1,159.6,469.3,153.7,466.1,151.1z M95.9,180.8c12.8,0.7,25.5,1.4,38.3,1.9c7.8,0.3,15.6,0.5,23.4,0.5c-1.4,1.7-3.9,2.4-6.8,2.8c-5.7,0.8-11.6,0.7-17.4,0.8c-8.3,0.1-16.4,2.3-24.6,0.3C105.5,186.2,98.7,184.2,95.9,180.8z M99.7,194.5c0.5,0.2,1,0.4,1.5,0.6c11,4.2,21.6,2.3,33,1.7c5.9-0.3,13.2-0.1,19.5-1.4c0.4,34.7,7.1,69,9.2,103.6c1,16.6,2.8,33.2,5,49.7c1.8,13.4,1.2,27,3.8,40.4c-6.3-1.1-12.8-1.2-18.8-1.3c-12.1-0.2-24.8,0.3-36.3,4.7v-12.1c0-0.2,0-0.4,0-0.7c-0.2-15.1-1.2-30.1-2.4-45.1c-1.3-16.5-1.8-33.2-3.3-49.7C108.3,254.6,100.7,224.9,99.7,194.5z M216,197.2c-0.2,0.6-0.3,1.2-0.3,1.9c0,13-0.6,26-0.4,38.9c0.4,16.7,3.7,33,5,49.6c1.4,17.3,0.4,34.8,1.3,52.1c0.9,17.2,2.7,34.3,6,51.2c-1.4,0.6-2.7,1.2-4,2c-4.8,2.8-7.6,7.9-8,13.4c-0.6,8.8,4.7,16.2,5,24.8c0,0.1,0,0.1,0,0.2c-6.7,0-13.5,0.1-20.2,0.1c5.4-9.6-1.7-22.6-7.4-30.6c-2.8-3.9-6.4-6.6-10.5-8.5c-0.1-0.5-0.2-0.9-0.3-1.3c-3.9-14.5-2.7-29.8-4.7-44.6c-2.2-16.6-3.9-33.4-4.9-50.1c-2.1-34.7-9-69.1-9.1-103.9c0-0.4,0-0.7-0.1-1.1c2.3-1.9,4-4.5,4.8-8.1c12.2-0.1,24.4-0.5,36.6-1.1C200.9,190.3,207,194.8,216,197.2z M214.2,181.6c6.1-0.3,12.2-0.7,18.4-1.1c19.5-1.2,39-2.6,58.4-4.2c-0.4,0.7-0.5,1.7-0.3,2.7c1.5,9.9-11.8,10.2-18.7,10.5c-6.4,0.3-12.9,0.3-19.3,0.3c-9,0.1-18.1,0-27-1.1c-3.3-0.4-6.8-0.9-9.9-2.2c-0.6-0.2-1.2-0.6-1.5-0.8C215,184.3,214.9,182.8,214.2,181.6z M300.6,178.3c-0.2-1.1-0.6-2-1.2-2.6c10.5-0.9,21-1.8,31.5-2.8c2.2-0.2,4.5-0.5,6.7-0.7c-0.1,1,0.1,2.2,0.9,3.3c3.1,4.3,6.6,7.1,10.4,8.8c0.2,1.4,0.4,3.3,0.5,4.3c0.4,3.8,0.8,7.2,1.7,10.9c2.2,9.2,4.3,18,4.8,27.4c1,19.1,3.6,37.9,5.5,56.8c1.9,19.1,2.6,38.4,4.3,57.5c0.7,7.5,0.6,15.1,1.2,22.7c0.2,3,0.5,5.9,0.8,8.9c0.1,1.3,0.2,2.7,0.2,4c0.1,1.3-0.5,1.9,0.2,0.6c-0.6,1.1-0.7,2.1-0.6,3c-3.5,1-6.7,2.8-9.1,6.1c-3.9,5.2-4.8,13.1-3.2,19.2c1.8,6.5,6.8,12.2,7.3,19c-11.1,1.1-22.3,2.1-33.4,2.8c0.4-1.1,0.5-2.4,0.2-3.6c-3.6-12.6-6.9-25.3-19.7-31.2v-1.5c0-0.3,0-0.5-0.1-0.8c-0.4-17.3-2.9-34.4-5.4-51.4c-2.7-18.5-3.8-36.8-5.4-55.4c-1.5-17-3.3-33.7-3-50.7c0.2-11.8,1.3-24.4-1.4-36c-0.2-1-0.6-1.7-1.1-2.2C298.7,191.6,301.9,186.5,300.6,178.3z M347.7,171.1c22.6-2.5,45.1-5.5,67.6-7.9c-2.7,3.8-6.1,6.5-10.9,8c-6,1.9-12.7,1.7-18.8,2.3c-8.9,0.9-20.2,5.1-29.2,2.9c-1.2-1.5-2.8-2-4.4-1.7C350.5,173.9,349,172.7,347.7,171.1z M317.7,428.4c-15.6,0.9-31.3,1.6-46.9,2.1c-13.4,0.4-26.8,0.6-40.2,0.8c0-0.3,0-0.6,0-0.9c-0.3-6.6-3.4-12.4-4.7-18.8c-1-4.9-0.2-8.2,4.1-10.7c7.6-4.5,19.1-3.2,27.6-3.1c15.1,0.2,30.8-0.7,45.5,3.4c9.6,2.6,12.8,11.9,15.2,20.6C316.5,423.2,316.3,426.2,317.7,428.4z M294.2,339.9c2.4,16.6,4.8,33.2,5.3,49.9c-5.6-1.1-11.5-1.3-17-1.6c-8.6-0.5-17.1-0.3-25.7-0.5c-6.3-0.1-12.9-0.2-19.2,0.7v-1c0-1.3-0.4-2.4-1.1-3.1c-2.6-14.9-4.1-30-4.9-45.2c-1-17.4-0.2-34.8-1.3-52.1c-1.1-16.6-4.5-32.9-5-49.6c-0.3-12.8,0.3-25.5,0.4-38.3c10.7,1.3,22.2,1,26.1,1c8.2-0.1,22.2,0.8,33.2-1.9c-0.1,0.7-0.2,1.5,0,2.3c2.5,11,1,23.6,0.8,34.7c-0.3,17.2,1.7,34.2,3.2,51.4C290.5,304.4,291.6,322.1,294.2,339.9z M191.2,431.3c-27.6-0.1-55.2-0.4-82.9-0.5c0.8-0.9,1.3-2,1.3-3.5c0-5.8-1.4-13.3,1.2-18.6c1.8-3.7,6.1-5.7,9.6-7.1c9-3.5,19.1-3.9,28.7-3.9c6.3,0,12.6,0.1,18.9,1c5,0.7,11.4,1.8,15,5.5c3,3.2,5.3,7.5,7.1,11.5c1.1,2.4,3.7,8.1,1.7,10.7C190.7,428,190.6,429.8,191.2,431.3z M445.3,424.4c-1,1.1-2.1,2.1-3,2.9c-3.6,3.5-7.7,6.6-12,9.2c-4.4,2.6-10.1,3.6-15,4.6c-7.4,1.4-14.9,1.9-22.4,2.5c-31.8,2.6-63.8,1.2-95.6,3.1c-30.9,1.9-61.5,5.8-92.5,6.3c-15.6,0.3-31.2-0.3-46.8-2.1c-9.1-1.1-17.8-2.9-27-3.5c-8.3-0.5-16.6-0.7-24.8-2c-3.6-0.5-7.2-1.3-10.5-2.8c-1.2-0.6-2.3-1.3-2.8-2c58.9,0.1,117.8,1.4,176.7-0.3c30.7-0.8,61.4-2.5,92-5.5c15.7-1.5,31.3-3.5,46.8-5.8C420.7,427.4,432.9,424.5,445.3,424.4z M442.6,410.2c-1.3,1.1-2.1,2.9-2,4.5c-9.7,0.6-19.2,2.4-29,3.9c-13,2-26,3.7-39,5.1c-0.9-10.4-11.4-19.2-6.9-29.9c3.1-7.4,18.1-4.2,24.2-4.1c6.6,0.1,13.3,0,19.9-0.6c7.3-0.7,13.9-4,21-1.4C440.5,391.2,442.3,401,442.6,410.2z M424.2,276.4c1.8,33.8,7.9,67.4,8.4,101.2c-5.4-1.6-11.1-1-17,0.3c-8.6,2-17.7,1.8-26.5,1.7c-3.5,0-7.3-0.3-11.2-0.4c0.6-3.7-0.4-8.5-0.7-11.8c-0.6-7.1-0.6-14.2-1.1-21.4c-1.3-20.4-2.7-40.9-4.5-61.2c-0.9-10.1-2.6-20.1-3.6-30.2c-1-10.2-1.6-20.4-2.1-30.5c-0.5-9.6-3-18.8-5.3-28c-0.7-2.9-0.8-6.3-1.1-9.6c8.2,0.4,17-1.7,25.6-2.9c7.9-1.1,16-0.9,23.8-3.3c1.4-0.4,2.7-1,4-1.7c0.7,15.7,3.9,31,6.5,46.5C422.2,242.1,423.2,259.3,424.2,276.4z M455,150c-30.1,1.4-60,5.5-89.9,9.2c-32.5,4-65.2,6.5-97.8,8.9c-32.8,2.4-65.7,5.1-98.6,5.3c-32.8,0.2-65.4-2.5-98.1-3.9c-11.3-0.5-22.5-0.8-33.8-0.8c1.3-6.2,7.4-11.6,11.8-15.3c7.6-6.5,16.1-11.9,24.5-17.1c22.4-13.8,43.6-29.3,66.2-42.9c13.2-7.9,26.9-14.7,39.8-23.1c12.8-8.3,25.3-17.3,38.2-25.6c12.6-8,25.9-12.7,40.9-10.8c14.5,1.9,28.5,9.4,41.4,15.9c29.4,14.8,56.3,34.1,83.8,52.2c14.2,9.4,29,17.5,44.4,24.7c6.9,3.2,13.8,6.2,20.7,9.2c3.2,1.4,6.2,2.9,8.7,5.3c0.6,0.5,1,1.2,1.4,1.9c0.1,0.2,0.2,0.3,0.3,0.4C455.9,144.5,454.6,147.5,455,150z"/></svg>