<svg xmlns="http://www.w3.org/2000/svg"  viewBox="0 0 512 512" width="48px" height="48px"><path fill="#BCBCBC" d="M113.3,368c-0.6-4.9-1.5-9.8-2.4-14.7c-5,6.2-15.9,9-24.5,10.4c0.6,6.6,1.7,13.5,5.6,18.8c3,4,12.2,13.3,17.4,7C114.5,383.6,114.2,375.3,113.3,368z"/><path fill="#BCBCBC" d="M145.8,387.1c-4.9-20.2-13.7-38.7-25.4-55.9c-1.8-2.7-3.8-5.4-5.7-8.1c0.6,2.1,1.2,4.1,1.8,6.2c3.4,12.3,6.5,25.2,7.9,37.9c1.1,10.6,0.7,24.3-8.6,31.5c-9.6,7.5-21.6,2.4-29-5.5c-8.8-9.4-10.6-21.3-11.7-33.6c-0.3-3.1,2.1-5.5,5.1-5.9c4.5-0.6,24.6-2.6,22.2-9.7c-1.3-3.9,1.7-6.8,4.8-7.2c-4-15.9-9.7-31.7-20.2-44.1c-6.7-5.8-14-11-21.7-15.4c-4.2-0.9-8.5-0.3-12,3.4c-8.1,8.5-7.4,21.1-5.9,32c1.6,11.6,4.4,23,5.9,34.7c1.7,13.8,3.4,27.7,7.8,40.9c4.4,13,11.2,24.2,19.6,35c7.2,9.3,15.8,19,26.9,23.6c15,6.3,33.7,2.7,39.5-13.7C152.1,418.9,149.3,401.5,145.8,387.1z"/><path fill="#D6E5E5" d="M247.3 205.3c-.7.3-1.3.4-1.9.4-6.4 2.5-12.3 6-18.3 9.5-7.2 4.2-14.7 7.9-22 12-14.5 7.9-28.9 15.3-44.2 21.6-15.5 6.3-31.5 10.2-47.6 14.2-11.3 2.8-22.7 6.9-34.4 8.2.5.3 1 .6 1.4.9 5.3 3.5 9.9 7.7 14 12.2 3.4 2.9 6.6 5.9 9.7 9-1.8-3-.6-8.1 4-8.8 13.8-1.9 27.9-7.3 40.8-12.3 14.3-5.4 28-12 41.3-19.6 23.7-13.6 45.7-29.8 67-46.9C254.1 204.3 250.8 203.9 247.3 205.3zM410.5 67c-.5-.6-2.6-2.1-3.9-2.7-4.7-2.5-9.7-4-14.9-5-5.3-1-10.8-1.5-16.1-.7-1.7.3-3.8.6-5.3 1.5-.9.5-1.5.9-1.9 1.4-.2.2-.6 1-.5.6-.1.3-.2.5-.3.7.4 1.5.2 3.3-1 4.9 1.1-1.4-.8 2.1-1 2.7-.7 1.7-1.4 3.4-2 5.2-1.3 3.5-2.3 7.7-4.2 10.9-6.1 10.8-12.7 21.4-19.8 31.6-6.7 9.7-13.6 19.2-22.5 27-7.1 6.2-14.8 11.8-20.8 19.1 3.8 0 7.7.4 11.1 1.7 10.3-4.1 19.4-11.4 27.6-18.8 9.6-8.6 18.6-17.8 27.6-27 10.7-10.9 21.1-22.1 31.9-32.9 5.4-5.4 11-10.7 16.2-16.2 0-.6 0-1.2.3-1.9.1-.5.2-.7.2-.8C411.2 68 411.1 67.7 410.5 67zM276.4 230.6c-2.2-4.5-6-11.8-10.7-17.5-23.3 18.9-47.6 36.9-73.9 51.4-13.7 7.5-27.8 14.3-42.5 19.5-8.2 2.9-16.6 6-25.1 8.4 17.7 9 31.4 28.2 36.6 46.3 4.2 14.8 5.7 30.2 6.1 45.6.2 10.2.2 20.4-.4 30.5.3 0 .5 0 .8.1.5-1.3 1-2.7 1.6-4 2.9-7.3 6.5-14 10.5-20.7 8.4-14.2 17.3-28.2 27.1-41.5 9.8-13.3 20.3-26.1 32.2-37.5 11.4-10.9 24.6-20.2 37.4-29.4-.2-1.4.2-2.8 1.4-4.1C288.8 265.4 283 243.7 276.4 230.6z"/><path fill="#EF4823" d="M312.7 178.9c.1.1.3.2.5.3.2-.3.4-.6.7-.9C313.5 178.5 313.1 178.7 312.7 178.9zM301.4 185.4c-2.3-1-5.8-2.6-8.3-1.4-2.3 1.2-2.6 4.3-1 6.1 2 2.3 1.8 5.1.5 7.2 4.4 3.3 15.7 2.6 17.8-1.3C313.1 190.9 305.2 187 301.4 185.4zM274.6 179c2.4.6 4.7 1.5 6.7 2.6.2-.6.5-1.2.9-1.8.8-1.4 1.9-2.7 3.1-3.7C281.7 176.7 277.8 177.5 274.6 179z"/><path fill="#D6E5E5" d="M151.3,345.7c-5.3-19.9-20.5-42.9-42.2-47c14.8,16,27,34.7,36.2,53.9c4.1,8.6,7.7,18,10.4,27.7C155.3,368.6,154.3,356.9,151.3,345.7z"/><path fill="#EF4823" d="M300.3,211c-0.1-0.3-0.1-0.6-0.2-0.9c-9.3-0.6-18.3-5.6-20.1-14.5c-0.1-0.5-0.1-1-0.1-1.4c-5.1-6.7-19.9-7.5-25.3-0.6c14.2,2.2,25.1,19.4,31.1,31.2c8.8,17.4,14.9,43.9,0.1,59.8c0,0,0,0.1,0,0.1c1-0.7,2.3-1.1,3.7-1c12.7,1,20.5-13.3,22.1-24.1C314.1,243,304.6,226.6,300.3,211z"/><path fill="#D6E5E5" d="M458.1,113.9c-3.5-10-8.2-19.9-15-28.2c-4.9-5.9-10.9-10.7-16.3-16.1c-8.1,9.8-17.6,18.5-26.5,27.5c-11.2,11.3-22.1,23-33.3,34.3c-15,15.1-30.9,33.2-50.7,42.7c0,1.2-0.5,2.4-1.4,3.3c0.2-0.2,0.5-0.3,0.8-0.4c11.2-4.9,23.9,0,35,2.5c13.2,2.9,26.7,6.2,38.7,12.7c5.4,2.9,10.9,6.5,15.9,10.7c0.4-0.3,0.8-0.6,1.3-0.9c4.8-2.3,8.8-6,13.5-8.6c4.5-2.5,9.7-4.5,14.6-6.1c8.9-2.9,18-4.5,27.1-6.5C461.7,158.4,465.8,135.5,458.1,113.9z"/><path fill="#EF4823" d="M416.1 237.5c-.2-2.5-1.1-4.9-2.3-7.1-7.4-13.7-18.6-23.6-32.2-29.9-10.5-4.9-21.7-7.8-33-10.3-8.8-1.9-19.5-6.5-28.4-3.2.1.2.3.5.4.7 1.8-1.3 4.3-1.5 6.5.3 1.5 1.2 2.9 2.5 4.3 3.7 1.8-1.4 4.4-1.7 6.7.3 9.3 8.3 20 14.7 30.1 21.9 7.6 5.4 14.3 11.9 21.8 17.5 6 4.5 15.5 11.6 23.6 8.9C415.6 239.7 416.2 239.1 416.1 237.5zM365.5 225.5c-3.2-2.4-6.4-4.7-9.7-7 3.2 4.5 6.1 9.2 8.6 14.1 1.7-1.4 3.4-2.7 5.2-3.9C368.2 227.7 366.9 226.6 365.5 225.5zM327.5 230c-2-9-4.1-18.5-8.8-26.5-1.9 2.3-4.6 4.1-7.6 5.2 4.7 16.2 13.5 33.3 11.8 50.5 3.5-3 6.9-6.4 8.4-10.6C330.2 242.4 328.9 236.2 327.5 230zM365 275.6c-.7-10.5-2.9-20.7-6.9-30.4-5.8-13.9-14.6-26-25-36.7 1.3 3.5 2.3 7.1 3.1 10.7 1.7 6.8 3.5 13.6 4.9 20.5 1.1.8 1.9 2.1 1.8 4 0 1.3-.2 2.5-.4 3.7.2 1 .3 2 .4 2.9 1.6 11.6 1.7 23.7 4.8 35.1.9 3.2 6.7 23.1 12 16.4C365.4 294.7 365.6 284.2 365 275.6z"/><path d="M469,111.9c-3.4-10.6-8.5-20.7-15-29.8c-6.5-9.1-16-15.3-23-24c-2-2.5-6.4-3.6-8.7-0.6c-0.8,1.1-1.7,2.2-2.5,3.2c-5.5-7-18.4-10.6-25.1-12c-12.5-2.6-32.7-3.5-37.7,11.4c-0.3,1-0.4,1.9-0.2,2.7c-2.9,5-4.4,11.4-6.4,16.6c-4,10.6-11.7,20.8-18.1,30.1c-6.7,9.8-13.6,19.8-22.6,27.6c-8.5,7.4-18,14.1-24.5,23.4c-1.1,1.5-1.3,3.2-0.9,4.6c-8,1.1-16.7,3.7-22.1,9.4c-1.1,1.2-1.6,2.5-1.5,3.8c-7.5,1.2-14.2,5.2-17.3,12.4c-0.6,1.5-0.6,2.9-0.2,4c-13.9,5-26.7,13.8-39.6,20.7c-14.8,7.9-29.4,15.6-44.8,22.2c-14.9,6.4-30.6,10.5-46.3,14.3c-14.7,3.5-29.3,9.4-44.6,8.7c-3.2-0.2-4.7,2-4.9,4.4c-0.5,0.2-0.9,0.5-1.3,0.9c-2.7,0-5.3,0.4-8,1.4c-10.3,3.8-16,14.6-17.8,24.8c-2,11.9,0.5,24.3,2.7,35.9c2.4,12.2,3.7,24.5,5.6,36.8c2.1,13.5,5.3,26.9,11.1,39.4c5.4,11.7,13.2,22.2,21.5,32c7.7,9,16.8,17.3,28.1,21.6c9.5,3.6,20.4,3.8,30.1,1c5.1-1.4,9.4-4,12.9-7.4c1.1,0.1,2.3-0.1,3.5-0.8c4.8-2.8,9.2-6.8,12.6-11.4c2.3,0.7,5,0.1,6.2-2.8c5.7-12.9,9.7-26.2,16.9-38.5c8.1-14,16.8-27.6,26.2-40.8c9.3-12.9,19.5-25.2,30.8-36.5c11.6-11.6,25.5-21.1,38.8-30.8c0,2.2,1.4,4.3,4.3,4.5c15,1.2,25.5-8.4,31.3-21c1.4,0.7,3.2,0.6,4.8-0.9c3.4-2.9,6.8-5.8,9.9-8.9c0.2,1.4,0.3,2.7,0.5,4.1c1.4,13.1,3.5,26.5,10.6,37.9c5.5,8.8,15.2,11.5,22.9,4c7.3-7.1,8.6-19.3,8.7-28.9c0.2-12-2.1-24-6.1-35.3c-0.3-0.9-0.7-1.8-1-2.7c0.6-0.3,1.1-0.7,1.6-1.2c2.3-2.2,5-4,7.7-5.8c4.4,3.6,8.9,7.1,13.8,10.1c8.7,5.2,19.3,7.9,28.7,3c7.2-3.7,7-12.8,4.6-19.4c-2.5-7-6.7-13.4-11.9-19.1c3-1.7,5.9-3.7,8.8-5.7c4.3-3,9.5-4.9,14.5-6.8c10.5-3.8,21.7-5.4,32.5-7.8c2.4-0.5,3.8-3.4,3.7-5.6C472,160.2,476.8,135.8,469,111.9z M317.2,145.2c8.9-7.8,15.8-17.3,22.5-27c7.1-10.2,13.6-20.8,19.8-31.6c1.9-3.3,2.8-7.4,4.2-10.9c0.7-1.7,1.3-3.4,2-5.2c0.3-0.7,2.1-4.1,1-2.7c1.2-1.6,1.4-3.3,1-4.9c0.1-0.2,0.2-0.5,0.3-0.7c-0.1,0.4,0.3-0.4,0.5-0.6c0.4-0.5,1-0.9,1.9-1.4c1.4-0.9,3.6-1.2,5.3-1.5c5.4-0.8,10.8-0.3,16.1,0.7c5.2,0.9,10.2,2.5,14.9,5c1.3,0.7,3.4,2.1,3.9,2.7c0.6,0.7,0.7,1,0.8,1.3c0,0.1-0.1,0.3-0.2,0.8c-0.2,0.7-0.3,1.3-0.3,1.9c-5.3,5.6-10.8,10.9-16.2,16.2c-10.9,10.7-21.2,21.9-31.9,32.9c-9,9.2-18.1,18.4-27.6,27c-8.2,7.4-17.3,14.7-27.6,18.8c-3.5-1.2-7.3-1.7-11.1-1.7C302.3,157,310.1,151.4,317.2,145.2z M313.8,178.3c-0.3,0.3-0.5,0.6-0.7,0.9c-0.1-0.1-0.3-0.2-0.5-0.3C313.1,178.7,313.5,178.5,313.8,178.3z M293.1,184c2.5-1.2,6,0.4,8.3,1.4c3.7,1.6,11.7,5.5,9,10.5c-2.1,3.9-13.4,4.6-17.8,1.3c1.3-2.1,1.5-4.9-0.5-7.2C290.5,188.2,290.8,185.1,293.1,184z M285.3,176.2c-1.2,1-2.3,2.3-3.1,3.7c-0.3,0.6-0.6,1.2-0.9,1.8c-2.1-1.1-4.4-2-6.7-2.6C277.8,177.5,281.7,176.7,285.3,176.2z M113.3,263c16.2-4,32.2-7.9,47.6-14.2c15.3-6.3,29.8-13.7,44.2-21.6c7.3-4,14.8-7.7,22-12c5.9-3.5,11.9-6.9,18.3-9.5c0.6,0,1.2-0.2,1.9-0.4c3.5-1.4,6.8-1,9.8,0.5c-21.3,17.1-43.3,33.3-67,46.9c-13.2,7.6-27,14.2-41.3,19.6c-13,4.9-27.1,10.3-40.8,12.3c-4.7,0.7-5.8,5.7-4,8.8c-3.1-3.1-6.4-6.1-9.7-9c-4-4.6-8.6-8.7-14-12.2c-0.5-0.3-1-0.6-1.4-0.9C90.6,270,101.9,265.9,113.3,263z M147,433.3c-5.8,16.4-24.6,20-39.5,13.7c-11.1-4.7-19.6-14.4-26.9-23.6c-8.4-10.8-15.2-22-19.6-35c-4.4-13.2-6.1-27.1-7.8-40.9c-1.4-11.7-4.3-23.1-5.9-34.7c-1.5-10.9-2.1-23.5,5.9-32c3.5-3.7,7.8-4.3,12-3.4c7.8,4.4,15,9.6,21.7,15.4c10.5,12.4,16.1,28.2,20.2,44.1c-3.2,0.4-6.2,3.2-4.8,7.2c2.4,7.1-17.8,9.1-22.2,9.7c-2.9,0.4-5.3,2.8-5.1,5.9c1.1,12.4,2.9,24.3,11.7,33.6c7.4,7.9,19.4,13,29,5.5c9.3-7.2,9.7-20.9,8.6-31.5c-1.4-12.7-4.5-25.6-7.9-37.9c-0.6-2.1-1.2-4.1-1.8-6.2c2,2.7,3.9,5.4,5.7,8.1c11.7,17.2,20.5,35.7,25.4,55.9C149.3,401.5,152.1,418.9,147,433.3z M110.9,353.3c1,4.9,1.8,9.8,2.4,14.7c0.9,7.3,1.1,15.6-3.9,21.6c-5.3,6.3-14.4-3-17.4-7c-3.9-5.3-5-12.2-5.6-18.8C95,362.3,105.9,359.5,110.9,353.3z M145.3,352.6c-9.2-19.2-21.4-37.9-36.2-53.9c21.7,4.1,36.9,27.1,42.2,47c3,11.2,4,22.9,4.4,34.6C153,370.6,149.4,361.2,145.3,352.6z M277.4,277.5c-1.3,1.3-1.6,2.8-1.4,4.1c-12.8,9.3-26,18.5-37.4,29.4c-11.9,11.4-22.5,24.2-32.2,37.5c-9.8,13.3-18.7,27.3-27.1,41.5c-4,6.7-7.6,13.4-10.5,20.7c-0.5,1.3-1,2.7-1.6,4c-0.3-0.1-0.5-0.1-0.8-0.1c0.6-10.1,0.7-20.3,0.4-30.5c-0.4-15.4-1.8-30.7-6.1-45.6c-5.2-18.1-18.9-37.3-36.6-46.3c8.5-2.4,16.9-5.5,25.1-8.4c14.7-5.2,28.8-12,42.5-19.5c26.3-14.5,50.6-32.5,73.9-51.4c4.8,5.7,8.5,13,10.7,17.5C283,243.7,288.8,265.4,277.4,277.5z M311.6,259.7c-1.6,10.8-9.4,25.1-22.1,24.1c-1.5-0.1-2.7,0.3-3.7,1c0,0,0-0.1,0-0.1c14.8-15.9,8.7-42.5-0.1-59.8c-6-11.8-16.8-29-31.1-31.2c5.4-6.9,20.2-6.1,25.3,0.6c0,0.4,0,0.9,0.1,1.4c1.8,8.9,10.9,13.9,20.1,14.5c0,0.3,0.1,0.6,0.2,0.9C304.6,226.6,314.1,243,311.6,259.7z M322.8,259.1c1.7-17.2-7.1-34.3-11.8-50.5c3-1.1,5.7-2.8,7.6-5.2c4.8,8,6.8,17.5,8.8,26.5c1.4,6.2,2.6,12.4,3.7,18.6C329.7,252.7,326.4,256.1,322.8,259.1z M359.8,301.8c-5.3,6.7-11.1-13.1-12-16.4c-3.1-11.4-3.2-23.5-4.8-35.1c-0.1-1-0.3-2-0.4-2.9c0.2-1.2,0.4-2.4,0.4-3.7c0.1-1.9-0.7-3.3-1.8-4c-1.4-6.9-3.2-13.7-4.9-20.5c-0.9-3.6-1.9-7.2-3.1-10.7c10.4,10.7,19.2,22.8,25,36.7c4,9.7,6.2,19.9,6.9,30.4C365.6,284.2,365.4,294.7,359.8,301.8z M364.4,232.7c-2.5-4.9-5.4-9.6-8.6-14.1c3.3,2.3,6.5,4.5,9.7,7c1.4,1,2.7,2.1,4,3.2C367.8,230,366.1,231.3,364.4,232.7z M413.8,230.4c1.2,2.2,2.1,4.6,2.3,7.1c0.1,1.6-0.5,2.2-2.4,2.9c-8.1,2.8-17.6-4.4-23.6-8.9c-7.5-5.6-14.2-12.1-21.8-17.5c-10.1-7.2-20.8-13.7-30.1-21.9c-2.2-2-4.8-1.7-6.7-0.3c-1.4-1.3-2.9-2.5-4.3-3.7c-2.2-1.8-4.7-1.6-6.5-0.3c-0.1-0.2-0.2-0.5-0.4-0.7c8.9-3.3,19.6,1.3,28.4,3.2c11.3,2.4,22.5,5.4,33,10.3C395.2,206.9,406.4,216.7,413.8,230.4z M461.9,180.8c-9.1,1.9-18.3,3.6-27.1,6.5c-4.9,1.6-10.2,3.6-14.6,6.1c-4.6,2.6-8.6,6.3-13.5,8.6c-0.5,0.2-1,0.5-1.3,0.9c-5.1-4.2-10.5-7.8-15.9-10.7c-12-6.4-25.5-9.8-38.7-12.7c-11.1-2.4-23.9-7.4-35-2.5c-0.3,0.1-0.5,0.3-0.8,0.4c0.9-0.9,1.4-2,1.4-3.3c19.7-9.4,35.6-27.6,50.7-42.7c11.3-11.3,22.1-23,33.3-34.3c9-9,18.4-17.7,26.5-27.5c5.4,5.4,11.4,10.2,16.3,16.1c6.7,8.2,11.4,18.2,15,28.2C465.8,135.5,461.7,158.4,461.9,180.8z"/></svg>