<svg xmlns="http://www.w3.org/2000/svg" x="0px" y="0px"
width="48" height="48"
viewBox="0 0 48 48"
style=" fill:#000000;"><path fill="#9fdadf" d="M11.583,7.567C9.549,7.695,7.291,7.566,5.276,7.878C4.142,8.054,2.928,8.358,2.205,9.25 c-0.857,1.058-0.747,2.572-0.619,3.927c0.521,5.543,0.584,11.128,0.189,16.681c-0.085,1.19-0.134,2.542,0.703,3.392 c0.639,0.648,1.615,0.801,2.52,0.896c10.524,1.099,21.161-1.068,31.712-0.264c1.853,0.141,3.703,0.374,5.561,0.381 c0.538,0.002,1.098-0.021,1.571-0.277c1.077-0.584,1.228-2.04,1.246-3.264c0.101-6.673,0.202-13.345,0.304-20.018 c0.01-0.649,0.009-1.338-0.333-1.889c-0.771-1.245-2.584-0.837-4.046-0.752C31.911,8.588,21.35,6.95,11.583,7.567z"></path><path fill="#bcbcbc" d="M34.186,40.441c-1.336,0.02-2.655,0.025-3.976,0.031c0.049-1.832,0.109-5.799-0.245-6.941 c-2.487,0.25-12.964,0.969-12.964,0.969s-0.447,4.04-0.174,5.978c-1.385,0.005-2.77,0.011-4.171,0.032 c-0.537-0.069-0.837,1.678-0.428,2.034c0.409,0.355,1.019,0.304,1.556,0.236c2.565-0.324,5.225-0.181,7.81-0.124 c3.831,0.085,8.879,0.849,12.594-0.094C34.598,42.458,34.476,40.75,34.186,40.441z"></path><path fill="#010101" d="M45.485,8.551c-0.813-1.312-2.47-1.163-3.804-1.043c-0.237,0.021-0.471,0.042-0.696,0.056 c-4.39,0.251-9.043,0.004-13.97-0.259c-5.117-0.273-10.407-0.557-15.463-0.237c0,0,0,0,0,0c-0.746,0.047-1.522,0.06-2.305,0.071 C7.897,7.16,6.502,7.183,5.2,7.384C3.997,7.57,2.655,7.9,1.817,8.936c-1.014,1.25-0.849,3.006-0.729,4.288 c0.518,5.503,0.581,11.087,0.189,16.6c-0.077,1.084-0.194,2.724,0.846,3.777c0.758,0.77,1.855,0.941,2.825,1.043 c2.227,0.232,4.47,0.319,6.712,0.319c1.588,0,3.174-0.045,4.754-0.111l-0.228,2.817c-0.076,0.839-0.124,1.405-0.023,2.314 C15,39.99,13.841,39.992,12.673,40.01c-0.206-0.017-0.617,0.05-0.896,0.672c-0.233,0.518-0.444,1.746,0.123,2.238 c0.602,0.525,1.442,0.418,1.946,0.356c2.132-0.271,4.369-0.21,6.533-0.15l1.203,0.03c1.026,0.022,2.132,0.094,3.304,0.17 c1.511,0.098,3.12,0.201,4.695,0.201c1.667,0,3.296-0.116,4.729-0.48c0.185-0.047,0.431-0.192,0.554-0.615 c0.167-0.575,0.089-1.903-0.315-2.333c-0.097-0.103-0.244-0.161-0.372-0.157c-1.108,0.017-2.208,0.019-3.311,0.025 c0.086-2.234-0.038-3.676-0.347-5.757c2.058-0.023,4.115,0.016,6.152,0.171c0.529,0.04,1.059,0.088,1.588,0.136 c1.309,0.118,2.663,0.241,4.009,0.246c0.574-0.002,1.23-0.022,1.812-0.338c1.297-0.702,1.487-2.344,1.508-3.695l0.304-20.019 C45.902,10.092,45.915,9.245,45.485,8.551z M33.918,42.114c-2.614,0.624-5.985,0.406-8.968,0.214 c-1.183-0.076-2.299-0.148-3.346-0.172l-1.198-0.03c-0.93-0.025-1.874-0.051-2.819-0.051c-1.293,0-2.591,0.048-3.865,0.209 c-0.456,0.056-0.921,0.095-1.137-0.087c-0.116-0.203-0.018-0.947,0.144-1.188c1.323-0.02,2.639-0.024,3.954-0.03c0,0,0,0,0.001,0 l0.265,0.027c0.018,0.002,0.036,0.003,0.054,0.003c0.063,0,0.124-0.012,0.179-0.034c2.111-0.007,4.207-0.006,6.258,0 c3.397,0.01,6.907,0.02,10.432-0.029C33.952,41.274,33.98,41.859,33.918,42.114z M29.867,39.974 c-2.167,0.008-4.319,0.007-6.424,0.001c-2.056-0.006-4.158-0.007-6.275,0c-0.105-0.866-0.064-1.36,0.012-2.217l0.24-2.953 c1.409-0.067,2.812-0.145,4.202-0.225c2.597-0.15,5.241-0.3,7.89-0.356C29.828,36.33,29.956,37.744,29.867,39.974z M44.589,30.714 c-0.016,1.079-0.143,2.376-0.985,2.832c-0.374,0.203-0.866,0.229-1.331,0.217c-1.304-0.005-2.635-0.125-3.923-0.242 c-0.534-0.048-1.068-0.097-1.602-0.138c-5.06-0.384-10.208-0.087-15.184,0.199c-5.429,0.314-11.043,0.639-16.513,0.067 c-0.833-0.087-1.691-0.217-2.217-0.75c-0.667-0.677-0.646-1.808-0.561-3.006c0.396-5.566,0.332-11.206-0.19-16.764 c-0.135-1.439-0.19-2.702,0.51-3.565c0.624-0.771,1.745-1.035,2.758-1.192c1.235-0.19,2.595-0.212,3.91-0.233 c0.799-0.013,1.591-0.025,2.352-0.073c5-0.316,10.26-0.033,15.347,0.238c4.954,0.265,9.634,0.515,14.081,0.258 c0.236-0.014,0.48-0.035,0.728-0.058c1.437-0.129,2.411-0.157,2.864,0.574c0.256,0.412,0.269,0.953,0.258,1.617L44.589,30.714z"></path><path fill="#8a4581" d="M17.621,22.956c-0.303,1.256,0.029,3.442,0.968,4.33c0.715,0.676,1.674,1.041,2.639,1.228 c1.297,0.251,2.283,0.16,3.256-0.734c0.847,0.641,1.964,0.779,3.025,0.834c0.726,0.038,1.485,0.04,2.142-0.272 c0.741-0.352,1.256-1.07,1.541-1.839c0.285-0.769,0.16-2.549,0.241-3.365L17.621,22.956z"></path><path fill="#010101" d="M22.482,26.304c-0.083,0-0.167-0.021-0.245-0.064c-0.089-0.05-0.237-0.067-0.394-0.085l-1.926-0.224 c-0.274-0.032-0.471-0.28-0.439-0.555s0.281-0.462,0.554-0.439l1.927,0.224c0.225,0.026,0.504,0.06,0.768,0.208 c0.241,0.135,0.326,0.44,0.19,0.681C22.826,26.212,22.657,26.304,22.482,26.304z"></path><path fill="#010101" d="M26.608,26.36c-0.252,0-0.469-0.189-0.497-0.445c-0.03-0.275,0.168-0.521,0.443-0.552l2.551-0.28 c0.273-0.029,0.521,0.168,0.552,0.442s-0.168,0.521-0.442,0.552l-2.552,0.28C26.645,26.359,26.626,26.36,26.608,26.36z"></path><path fill="#a37b57" d="M37.802,20.004c-1.006-1.217-2.75-1.471-4.328-1.541c-0.652-0.029-1.708-0.063-2.6-0.083 c-0.015-0.108-0.028-0.211-0.038-0.295c-0.139-1.195-0.387-2.091-0.739-3.241c-0.23-0.752-0.537-1.535-1.175-1.995 c-0.738-0.533-1.783-0.495-2.595-0.085c-0.813,0.41-1.493,0.853-1.972,1.627c-0.819-1.017-1.797-1.852-3.097-1.725 c-0.742,0.073-1.389,0.563-1.839,1.157C18.603,14.901,18.34,16,18.101,17.33c-0.057,0.314-0.102,0.755-0.147,1.193 c-2.104,0.535-4.677,1.411-6.515,2.3c-0.383,0.185-0.817,0.464-0.812,0.889c0.006,0.553,0.709,0.774,1.259,0.831 c4.8,0.501,9.634,0.554,14.459,0.589c3.616,0.026,7.332,0.023,10.705-1.282c0.494-0.191,1.051-0.508,1.086-1.037 C38.155,20.514,37.992,20.234,37.802,20.004z"></path><path fill="#010101" d="M38.187,19.686c-1.152-1.395-3.112-1.652-4.691-1.722c-0.369-0.017-0.677-0.035-0.954-0.051 c-0.448-0.026-0.828-0.043-1.233-0.047c-0.153-1.194-0.411-2.114-0.734-3.169c-0.247-0.808-0.602-1.706-1.36-2.254 c-0.841-0.608-2.063-0.658-3.113-0.126c-0.623,0.314-1.257,0.688-1.774,1.274c-0.723-0.78-1.752-1.552-3.118-1.424 c-0.811,0.079-1.588,0.56-2.189,1.354c-0.9,1.188-1.172,2.388-1.412,3.72c-0.044,0.245-0.081,0.57-0.117,0.905 c-2.163,0.515-4.272,1.26-6.271,2.227c-0.273,0.132-1.104,0.533-1.095,1.345c0.008,0.718,0.646,1.213,1.707,1.323 c1.724,0.18,3.475,0.3,5.206,0.384c-0.141,1.434,0.282,3.349,1.206,4.223c0.702,0.664,1.673,1.12,2.888,1.356 c0.394,0.076,0.796,0.133,1.204,0.133c0.718,0,1.453-0.177,2.182-0.734c0.891,0.529,1.946,0.656,2.964,0.709 c0.746,0.04,1.607,0.05,2.382-0.319c0.792-0.376,1.429-1.127,1.796-2.116c0.219-0.592,0.229-1.58,0.237-2.453 c0.003-0.278,0.008-0.526,0.017-0.749c1.797-0.167,3.6-0.496,5.315-1.16c0.891-0.345,1.363-0.839,1.404-1.47 C38.659,20.465,38.509,20.074,38.187,19.686z M18.455,18.538c0.043-0.412,0.085-0.824,0.138-1.119 c0.224-1.246,0.457-2.28,1.224-3.294c0.425-0.56,0.968-0.91,1.49-0.961c0.91-0.102,1.729,0.387,2.659,1.54 c0.102,0.126,0.249,0.198,0.42,0.186c0.162-0.01,0.309-0.098,0.394-0.236c0.41-0.662,1.005-1.056,1.771-1.443 c0.71-0.358,1.545-0.341,2.078,0.044c0.517,0.373,0.781,1.055,0.989,1.736c0.323,1.056,0.581,1.958,0.72,3.152 c0.043,0.369,0.108,0.924,0.309,1.369c-3.536,1.35-7.327,1.404-11.28,0.16c-0.145-0.046-0.313-0.08-0.487-0.114 c-0.161-0.032-0.378-0.074-0.526-0.134C18.39,19.158,18.423,18.848,18.455,18.538z M30.898,24.215 c-0.007,0.751-0.016,1.687-0.174,2.114c-0.16,0.43-0.539,1.205-1.288,1.561c-0.564,0.269-1.276,0.256-1.9,0.225 c-0.992-0.052-2.011-0.176-2.749-0.733c-0.193-0.147-0.463-0.135-0.64,0.03c-0.759,0.697-1.522,0.864-2.823,0.611 c-1.024-0.198-1.829-0.569-2.391-1.101c-0.686-0.649-1.017-2.302-0.89-3.452c2.949,0.121,5.804,0.144,8.297,0.161 c0.462,0.003,0.932,0.007,1.408,0.007c1.031,0,2.092-0.02,3.161-0.085C30.903,23.757,30.9,23.978,30.898,24.215z M36.869,21.384 c-3.354,1.298-7.164,1.268-10.521,1.248c-5.352-0.038-9.811-0.105-14.41-0.585c-0.483-0.051-0.81-0.217-0.811-0.341 c0-0.029,0.023-0.188,0.53-0.433c1.824-0.883,3.746-1.569,5.714-2.062c-0.016,0.12-0.031,0.245-0.048,0.343 c-0.025,0.141,0.011,0.286,0.099,0.398c0.315,0.399,0.843,0.503,1.267,0.587c0.135,0.026,0.266,0.051,0.378,0.086 c1.997,0.63,3.956,0.944,5.867,0.944c2.324,0,4.578-0.466,6.74-1.396c0.192-0.082,0.325-0.271,0.314-0.479 c-0.011-0.209-0.139-0.384-0.339-0.445c-0.041-0.032-0.104-0.129-0.17-0.379c0.326,0.007,0.641,0.02,1.005,0.041 c0.282,0.017,0.594,0.035,0.969,0.052c1.372,0.06,3.063,0.269,3.964,1.359c0.151,0.184,0.228,0.342,0.22,0.458 C37.623,20.982,37.351,21.196,36.869,21.384z"></path></svg>