<svg xmlns="http://www.w3.org/2000/svg" x="0px" y="0px"
width="48" height="48"
viewBox="0 0 512 512"
style=" fill:#000000;"><path fill="#FEBF10" d="M167.4,364.4c-1.4-13.3-3.9-26.4-4.5-39.8c-0.6-12.8-0.7-26-4.1-38.4c-0.8-2.9-1.6-7.2-4.2-9c-2.2-1.5-6.8,1.7-8.7,2.9c0,0.4,0,0.9,0,1.3c0.3,4.3,0.8,8.5,1.5,12.8c1.4,9.5,3.2,18.9,5,28.4c2,10.3,3.3,20.7,4.3,31.1c0.7,7.5,1.3,14.9,2,22.4c0.3,2.8,0,7,0.5,10.5c1.2-0.4,2.5-0.4,4,0.2c4,1.7,4.5,1.1,4.9-3.4C168.6,377,168,370.6,167.4,364.4z"></path><path fill="#127274" d="M147.9 379.1c-.6-7.6-1.3-15.3-2-22.9-1-11.7-2.6-23.2-4.8-34.7-2-10.5-4.1-21-5.4-31.6-.3-2.3-.9-5.9-1.1-9.5-1.8-.6-3.2-2.1-3.5-4.5-1-9.1-4.9-24.6-15.2-27.2-4.8-1.2-9.7-1.9-14.6-2.3-1.9-.2-3.8-.3-5.7-.2-.4 0-.7 0-1.1 0-1.8.8-4 .6-5.8-.4-2.3 1.8-4.3 3.8-6.5 5.4 1.1.8 1.8 2.1 1.8 3.9.1 24.2 3.9 48 7.5 71.9 1.7 11.5 3.5 22.9 5.9 34.3 2.2 10.6 4.9 21.2 6.6 31.9 2.3 13.7 3.7 28.3 19.6 32 15.8 3.7 20.7-14.4 21.6-26.7.2-3.1 2.4-4.4 4.7-4.3C148.3 389.4 148.3 384 147.9 379.1zM95.3 406.3c-4.7-23.5-10-47.1-13.5-70.9-3.9-26.4-8.5-52.8-8.6-79.5 0-.4 0-.8.1-1.1-5.8.6-11.4-1.1-17.2-.8-8.1.5-13.9 4.1-16.9 11.8-3 7.6-3.4 16.1-3.8 24.1-.6 12.7-.2 25.2 1.7 37.8 2 13.2 4.9 26.2 7.4 39.3 2.2 11.4 4.4 23.7 10.2 33.9 8.6 15.2 27.5 18.6 43.9 16.6C97.1 413.9 96.1 410.2 95.3 406.3z"></path><path fill="#FEBF10" d="M392.7,353.5c0-13.4,0.6-27-0.8-40.4c-1.2-12.3-2.9-24.7-5-36.9c-0.4-2.3-0.7-6-2.8-7.6c-1.8-1.3-5.1-0.8-7.4-0.5c0.4,18.7,3.6,37.1,5.6,55.6c1.1,10.3,1.9,20.5,2.9,30.8c0.6,7,2.1,13.9,2.5,20.9c0,0.3,0.1,0.6,0.1,0.9v1.7c0,0.1,0,0.3,0,0.4c1.5,0.3,2.9,1,3.9,2.3c0.6-0.7,1-1.3,1.1-2.3c0.3-2.1,0-4.2,0-6.3V353.5z"></path><path fill="#127274" d="M485.2,369.5c-0.8-4.9-0.5-9.9-0.5-14.8c0-10.9-0.5-21.6-1.3-32.4c-0.8-11.7-1.8-23.4-2.4-35.2c-0.4-8-1-16-4.4-23.4c-2.3-5.1-5.9-10-11.4-12c-6.4-2.3-13.4,0.5-19,3.6c-1.4,0.8-2.8,0.9-4.1,0.6c-3.1,2.1-8.1,1.3-8.4-3c0,0,0,0,0,0c-1.1-0.5-2.2-0.8-4-1.1c-4.2-0.7-8.5-0.7-12.7-0.2c-6.4,0.8-18.1,3.4-18.3,11.7c-0.1,2.1-1.1,3.6-2.5,4.6c0.4,1.2,0.7,2.5,1,3.8c1.6,7.8,2.4,15.8,3.5,23.7c1.3,9.3,2.6,18.7,2.8,28.1c0.2,9.7,0.1,19.4,0.1,29.1c0,8.4,0.4,16.9,0,25.3c-0.1,2.5-0.8,5-1.9,7.2c1.1,0.5,2,1.5,2.6,2.8c3.3,7.6,12.7,12.6,20.1,15.3c7.4,2.7,17.2,4.6,23.7-1c0.8-0.7,1.5-1,2.3-1.2c-0.2-0.5-0.3-0.9-0.3-1.4c-1.6-0.7-2.9-2.1-3.4-4.4c-4.5-24.4-4.7-49.1-6.6-73.7c-0.9-11.4-1.5-22.9-2.6-34.3c-0.7-6.9-3.1-16.6,0.8-22.9c3.7-6,13.6-1.2,9.9,4.9c-1.6,2.6-0.7,6.8-0.5,9.7c0.4,3.8,0.7,7.6,1,11.5c0.9,12,1.9,24,2.9,36.1c1.5,19.8,1.9,39.7,4.7,59.4c0.9,0.8,1.4,2,1.4,3.6v4.3c0.4,0.3,0.8,0.6,1.1,1c4.6,5,10.9,7.4,17.5,4.7c5.8-2.3,10.7-7.9,10.7-14.4C486.9,379.7,486,374.6,485.2,369.5z"></path><path fill="#14B6B9" d="M436.2,174.1c-6.9-22.1-18.9-41.2-34.3-58.4c-30.5-34-69.8-61.4-115.8-67.9c-27.7-3.9-56.6-2.3-83.6,5.2c-26.3,7.3-50,21-70.6,38.8c-20.7,17.9-38.9,40.2-49.7,65.5c-11.5,27-13.7,56.6-12.9,85.7c0,0.4,0,0.7-0.1,1c2.7,0,5.6-0.3,7.6-2.1c2.3-2,4.3-4.3,6.8-6.1c2.3-1.7,4.6-1.2,6.3,0.2c4.5-1.7,12.1-1.1,18.4-0.1c-0.7-56.6,36-107.6,85.9-132.3c23.3-11.6,49.7-19.9,75.9-20.2c26.1-0.3,49.3,8.4,68.8,25.8c18.8,16.8,33.8,38,46.8,59.5c13.5,22.4,22.5,46.9,24.3,73c2-0.5,4-0.8,6-1c5.7-0.6,20.2-1.1,26.1,4.4c1.9-1,4-2,6.1-2.8C445.3,219.5,443.1,196.2,436.2,174.1z"></path><path d="M495.6,365.4c-1-6.7,0-14.3,0-21c0-7-0.7-14-1.2-21c-0.9-13.7-2-27.3-2.7-41c-0.5-9.7-2.7-19.1-7.5-27.6c-3.8-6.8-10-11.7-17.5-13.9c-2.5-0.8-5.2-1-7.8-0.9c-3.5-27.2-6.4-54.8-16.4-80.6c-10.1-26.3-28.9-48.6-49.2-67.8c-20.5-19.4-44.6-36-71.1-45.8c-25.7-9.5-53.7-12-80.9-10.2c-24.8,1.7-50.1,7.4-72.4,18.5c-23,11.4-43.6,27.3-61.2,45.9C90.5,118.1,76.1,140,68,163.9c-8.7,25.5-10.4,52.7-9.7,79.4c-3.5-0.1-7,0-10.7,0.8c-9,2.1-15.5,9.4-18.7,17.6c-3.5,8.8-4,18.4-4.5,27.8c-0.8,14.4-0.1,28.4,2.2,42.6c2.2,14,5.3,28,8.1,41.9c2.6,12.6,5.8,25.7,13.1,36.5c12,17.7,37.7,20.3,57.3,16.7c5.9,6.3,15.9,9.4,24.3,9.4c18.1,0,25.6-21.5,26.6-36.2c0-0.5,0-1-0.1-1.5c1.3-0.2,2.6-1,3.5-2.1c5,1.9,10.3,2.5,14.7-1.4c4.3-3.7,4.7-10,4.9-15.3c0.7-19-4.4-37.7-5.3-56.6c-0.7-15.5-0.7-31.9-6.4-46.5c-1.9-4.8-5.2-9.3-10.4-10.8c-4.7-1.3-9.3,0.1-13.5,2.3c-0.8-0.3-1.6-0.5-2.5-0.4c-2.7-12.7-9.1-25.8-21.7-29.9c-1.8-48.6,26.9-92.5,67.2-117.9c21.7-13.6,47.5-22.5,72.9-25.3c13.3-1.5,26.7-0.8,39.6,2.9c11.8,3.4,22.3,10.6,31.5,18.5c18.1,15.4,31.7,35.6,44.3,55.5c14.2,22.3,23.2,47.3,24.4,73.8c-5,2.9-9,7.1-10.7,12.8c-4.2-2-9.2-1.9-13.8-1.3c-2.3,0.3-3.7,1.6-4.4,3.3c-2.4,0.5-4.7,2.4-4.6,5.6c0.1,19.6,3.4,38.9,5.6,58.4c1.1,9.6,1.8,19.3,2.7,28.9c0.8,8.5,2.7,16.9,2.7,25.5c0,3.3,2.4,4.9,5,4.9c-0.1,6.2,5,9.9,11.3,8.3c0.4-0.1,0.8-0.2,1.1-0.3c4.8,10.8,15.8,17.8,26.6,21.7c10.5,3.8,24.4,5.7,33.6-2.2c1.4-1.2,2-2.8,2-4.3c12.7,8.6,30.4,3.5,38.4-10.1C500.4,387.3,497.2,375.6,495.6,365.4z M392.6,378.5c-0.1,1-0.5,1.6-1.1,2.3c-0.9-1.2-2.4-2-3.9-2.3c0-0.1,0-0.3,0-0.4v-1.7c0-0.3,0-0.6-0.1-0.9c-0.3-7-1.8-13.9-2.5-20.9c-0.9-10.3-1.7-20.6-2.9-30.8c-2-18.5-5.2-36.9-5.6-55.6c2.4-0.3,5.6-0.8,7.4,0.5c2.1,1.5,2.4,5.2,2.8,7.6c2.1,12.2,3.7,24.6,5,36.9c1.4,13.4,0.8,26.9,0.8,40.4v18.7C392.7,374.3,392.9,376.4,392.6,378.5z M54.7,400.8c-5.8-10.2-8.1-22.5-10.2-33.9C42,353.9,39,340.8,37,327.7c-1.9-12.6-2.3-25.1-1.7-37.8c0.4-8,0.8-16.5,3.8-24.1c3-7.6,8.9-11.3,16.9-11.8c5.8-0.3,11.4,1.4,17.2,0.8c-0.1,0.4-0.1,0.7-0.1,1.1c0.1,26.8,4.7,53.1,8.6,79.5c3.5,23.7,8.8,47.3,13.5,70.9c0.8,3.9,1.8,7.6,3.3,11C82.2,419.4,63.3,416,54.7,400.8z M154.6,277.1c2.6,1.8,3.5,6.1,4.2,9c3.4,12.4,3.5,25.6,4.1,38.4c0.6,13.4,3.1,26.5,4.5,39.8c0.6,6.2,1.3,12.6,0.7,18.8c-0.4,4.5-0.9,5.1-4.9,3.4c-1.4-0.6-2.8-0.6-4-0.2c-0.4-3.5-0.2-7.7-0.5-10.5c-0.7-7.5-1.3-14.9-2-22.4c-0.9-10.5-2.3-20.8-4.3-31.1c-1.8-9.4-3.6-18.9-5-28.4c-0.6-4.2-1.2-8.5-1.5-12.8c0-0.4,0-0.9,0-1.3C147.7,278.8,152.3,275.6,154.6,277.1z M131.2,276c0.3,2.4,1.7,3.9,3.5,4.5c0.2,3.6,0.8,7.2,1.1,9.5c1.3,10.6,3.4,21.1,5.4,31.6c2.2,11.5,3.7,23,4.8,34.7c0.7,7.6,1.4,15.3,2,22.9c0.4,4.9,0.4,10.3,2.1,15c-2.3-0.1-4.5,1.3-4.7,4.3c-0.9,12.2-5.8,30.4-21.6,26.7c-15.8-3.7-17.3-18.3-19.6-32c-1.8-10.7-4.4-21.3-6.6-31.9c-2.4-11.4-4.1-22.8-5.9-34.3c-3.6-23.8-7.4-47.7-7.5-71.9c0-1.8-0.7-3.1-1.8-3.9c2.2-1.6,4.1-3.5,6.5-5.4c1.8,1.1,4,1.2,5.8,0.4c0.4,0,0.7,0,1.1,0c1.9,0,3.8,0.1,5.7,0.2c4.9,0.4,9.8,1.1,14.6,2.3C126.3,251.3,130.1,266.9,131.2,276z M385.7,168.7c-12.9-21.5-28-42.7-46.8-59.5c-19.5-17.4-42.7-26.1-68.8-25.8c-26.2,0.3-52.6,8.7-75.9,20.2c-49.9,24.7-86.7,75.7-85.9,132.3c-6.3-1-13.9-1.6-18.4,0.1c-1.6-1.4-4-1.8-6.3-0.2c-2.5,1.8-4.5,4.1-6.8,6.1c-2,1.7-4.9,2.1-7.6,2.1c0-0.3,0.1-0.7,0.1-1c-0.8-29,1.4-58.7,12.9-85.7c10.8-25.4,29-47.6,49.7-65.5c20.6-17.8,44.3-31.5,70.6-38.8c27-7.5,55.9-9.1,83.6-5.2c46,6.5,85.3,33.9,115.8,67.9c15.4,17.2,27.4,36.3,34.3,58.4c6.9,22.1,9.1,45.4,12.1,68.2c-2.1,0.8-4.2,1.7-6.1,2.8c-5.8-5.6-20.4-5.1-26.1-4.4c-2,0.2-4,0.6-6,1C408.3,215.6,399.2,191.1,385.7,168.7z M476.3,399.3c-6.6,2.7-12.9,0.3-17.5-4.7c-0.4-0.4-0.8-0.7-1.1-1v-4.3c0-1.6-0.6-2.8-1.4-3.6c-2.8-19.7-3.2-39.5-4.7-59.4c-0.9-12-1.9-24-2.9-36.1c-0.3-3.8-0.6-7.6-1-11.5c-0.3-2.9-1.1-7.1,0.5-9.7c3.7-6.1-6.2-10.9-9.9-4.9c-3.9,6.3-1.5,16-0.8,22.9c1.1,11.4,1.7,22.9,2.6,34.3c1.9,24.6,2.1,49.3,6.6,73.7c0.4,2.3,1.8,3.7,3.4,4.4c0,0.5,0.2,1,0.3,1.4c-0.8,0.2-1.5,0.5-2.3,1.2c-6.5,5.6-16.3,3.7-23.7,1c-7.4-2.7-16.8-7.7-20.1-15.3c-0.6-1.4-1.5-2.3-2.6-2.8c1.1-2.2,1.8-4.6,1.9-7.2c0.4-8.4,0-16.9,0-25.3c0-9.7,0.2-19.4-0.1-29.1c-0.2-9.4-1.5-18.8-2.8-28.1c-1.1-7.9-1.9-15.9-3.5-23.7c-0.3-1.3-0.6-2.5-1-3.8c1.4-1,2.4-2.5,2.5-4.6c0.2-8.3,11.9-10.9,18.3-11.7c4.2-0.5,8.5-0.5,12.7,0.2c1.8,0.3,2.9,0.6,4,1.1c0,0,0,0,0,0c0.3,4.3,5.3,5.1,8.4,3c1.3,0.3,2.7,0.2,4.1-0.6c5.5-3.1,12.6-5.8,19-3.6c5.5,1.9,9.1,6.9,11.4,12c3.3,7.4,3.9,15.4,4.4,23.4c0.6,11.7,1.6,23.4,2.4,35.2c0.8,10.8,1.3,21.6,1.3,32.4c0,4.9-0.3,9.9,0.5,14.8c0.8,5.1,1.7,10.2,1.7,15.4C486.9,391.4,482,397,476.3,399.3z"></path></svg>