<svg xmlns="http://www.w3.org/2000/svg" x="0px" y="0px"
width="48" height="48"
viewBox="0 0 512 512"
style=" fill:#000000;"><path fill="#74CCCF" d="M168.1,321c-4.1-8.2-11.5-12.6-20.4-14.2c-14.7-2.7-30.4-2.5-45.4-2.2c-12.6,0.2-25.2,0.9-37.7,1.8c-7.2,11.6-3.4,26.1-2.4,39c0.6,7.9,0.8,15.7,0.9,23.6c0.1,6.9-0.2,14.2,1.5,20.9c4.9,18.4,22.1,23.5,39.1,25.8c9.4,1.3,18.9,1.8,28.3,3.3c9,1.4,24.9,3.3,30.9-5.6c7.6-11.4,4.1-27.3,5.8-40.1c1.1-9.1,2.3-18.3,2.7-27.4C171.7,337.7,171.8,328.5,168.1,321z"></path><path fill="#127274" d="M263.2,213.4c0.8-7.1,3.2-16.2,0.6-23.2c-1.8-4.9-9.2-5-13.9-5.2c0.5,15.4,2.6,30.9,1.6,46.3c-0.7,10.6-2.4,22.2-0.2,32.8c0.6,0.4,1.1,0.8,1.5,1.4c0.3,0,0.6,0,1,0c3.4,0.2,6.6,0.4,9.9-0.1c0.3-8.5,0.1-17-0.3-25.5C263,231.1,262.2,222.1,263.2,213.4z"></path><path fill="#14B6B9" d="M333.1,104.4c-1.4-9.8-1.5-19.8-3.3-29.5c-2.2-11.8-7.5-20.9-19.9-24c-13.7-3.5-28.3-1-42.2-1.3c-26.6-0.5-54.7-5.1-79.7,6c-1,23,0.8,46-0.5,68.9c0.2,0.9,0.2,1.9-0.3,3c-2.7,6.9-4.4,14.9,2.2,20c5.4,4.2,13.3,5.5,19.9,6.1c9.7,0.8,19.1-0.4,28.8-0.2c14.9,0.2,29.5,2.7,44.3,3.8c13,1,30.1,2.6,41.9-4.2c7.4-4.3,10.6-11.9,11-20.2C335.9,123.2,334.5,113.8,333.1,104.4z"></path><path fill="#127274" d="M182.2 201.8c-4.2-7.2-10.7.2-14.2 4.5-3.2 3.9-5.9 8-9.1 11.9-3.2 4-7.4 7.3-11.4 10.6-8.8 7.2-17.4 14.4-25.2 22.7-1.4 1.5-2.9 3.6-4.6 5.6 5.2 7.3 11.7 11.6 20 5.7 9.2-6.5 15.1-16.7 23.1-24.6 3.9-3.8 8.2-6.7 12.7-9.9 3.2-2.3 8.6-5.6 9.9-9.6C185.1 213.6 185.1 206.7 182.2 201.8zM392.3 243.8c-7.3-4.7-14-9.8-21.1-14.8-14.7-10.4-31-20-41.5-35-.9.2-1.8.2-2.9-.2-3.6-1.2-9.4.6-9 5.3.3 3.2 2.9 5.6 5.2 7.5 6.8 5.6 14.2 10.6 21 16.2 9.4 7.6 19.4 15 28.1 23.4 6.1 5.9 11.6 8.5 20.1 5.8 1.8-.6 3.7-1.1 5.3-2.2.4-.3.9-.6 1.3-1C397.3 246.8 394.6 245.2 392.3 243.8z"></path><path fill="#74CCCF" d="M467.9 335.4c-.2-8.5-.8-17.8-5.5-25.2-5.9-9.2-16.5-11.8-26.9-11.7-14.3.2-28.6 3.8-42.9 2.8-10.5-.7-23.8-3.8-31.7 5.1-1.1 1.2-2.4 1.8-3.6 1.8 0 14.4 3.5 28.6 2.8 43-.6 13.5-3.6 28.8 1.2 41.8 6.5 17.3 28.4 18.5 44.1 18.7 9.4.1 18.8 0 28.2.5 11.8.6 24.4-.2 30.1-12.4 5.4-11.5 3.3-25 3.3-37.2C467 353.5 468 344.5 467.9 335.4zM323 325.9c-1-8.9-5.2-16.2-14.2-18.6-8.7-2.4-17.9-1.8-26.9-1.6-25 .5-51.8-6-73.9 9-.6.4-1.3.7-1.9.8-1.2 10 .1 20.3 1.6 30.2 1.4 9.5 2.7 19.1 3.9 28.6 1.1 8.4 2.4 16.7 3.1 25.1.3 3.8.7 7.8.5 11.8 6.1 6.3 15.4 7.1 23.8 6.7 10.1-.4 20-2.3 29.9-3.7 9.1-1.3 17.7-.5 26.8 0 6.9.3 16.6 1.1 21.7-4.8 3.3-3.8 4-9.2 4.2-14.1.2-7.4-.2-14.7-.2-22.1C321.4 357.6 324.8 341.7 323 325.9z"></path><path d="M343.9 102.5c-2-13.8-1.3-28.7-6.7-41.8-7.3-17.4-25.2-22.4-42.7-22.6-9.5-.1-19 .6-28.5.4-9.9-.2-19.8-.9-29.8-1.2-19.4-.6-38.6 1.3-56.3 9.9-1.8.9-2.6 2.9-2.7 4.8-1.5 24.3.7 48.7-.7 73-3.1 8.1-4.1 17.2.5 25 4.1 6.8 11.8 10.4 19.1 12.4 8.2 2.3 17 2.7 25.4 2.6 13.1-.2 25.8-.5 38.9.9 15.3 1.6 30.5 3.7 45.9 2.5 11.3-.9 23.2-3.5 31.3-12.1C350.8 142.2 346.4 119.7 343.9 102.5zM335.4 132.7c-.5 8.4-3.6 15.9-11 20.2-11.8 6.8-28.9 5.2-41.9 4.2-14.8-1.2-29.5-3.6-44.3-3.8-9.6-.1-19.1 1-28.8.2-6.6-.6-14.5-1.9-19.9-6.1-6.6-5.2-4.8-13.1-2.2-20 .4-1.1.5-2.1.3-3 1.2-23-.6-46 .5-68.9 25-11.1 53.2-6.5 79.7-6 14 .3 28.5-2.2 42.2 1.3 12.3 3.1 17.6 12.2 19.9 24 1.8 9.7 1.9 19.7 3.3 29.5C334.5 113.8 335.9 123.2 335.4 132.7zM330.5 312c-3.5-8.3-11.5-13.3-19.9-15.6-15.1-4.1-32-1.3-47.4-2-21.2-1-42.4-1.6-60.7 10.8-.5.3-.9.7-1.2 1.1-2.4-.3-4.9.8-5.4 4-3.3 20.4 2.3 40.6 4.4 60.9.8 8.2 2.2 16.3 3.1 24.4.7 6.4 2.1 14.2-.2 20.4-1.8 5 3.6 7.7 7.5 6.1 15 11.8 39.1 6.3 56.2 3.6 9.1-1.4 17.6-1.1 26.8-.5 8.6.6 17.4.5 25.4-3.3 9-4.2 12.3-14 13.4-23.2.8-7.2.1-14.6 0-21.8-.1-8.1.4-16.1 1.1-24.2C334.6 339.2 336 324.7 330.5 312zM321.5 395.4c-.1 4.9-.8 10.3-4.2 14.1-5.1 5.9-14.8 5.1-21.7 4.8-9.1-.4-17.7-1.3-26.8 0-10 1.4-19.9 3.3-29.9 3.7-8.4.3-17.7-.4-23.8-6.7.2-4-.1-8.1-.5-11.8-.7-8.4-2.1-16.8-3.1-25.1-1.2-9.6-2.4-19.1-3.9-28.6-1.5-9.9-2.8-20.2-1.6-30.2.6-.1 1.3-.4 1.9-.8 22.1-15 48.9-8.5 73.9-9 9-.2 18.1-.7 26.9 1.6 9 2.4 13.2 9.7 14.2 18.6 1.8 15.8-1.6 31.7-1.7 47.4C321.3 380.7 321.7 388.1 321.5 395.4zM478.1 360c.6-23.6 5.2-56-20.7-68.3-17.5-8.3-38.2-2.3-56.6-1.3-16.2.8-35.1-5.7-47.6 8.3-.1.1-.2.2-.2.3-3-.3-6.3 1.5-6.5 5.3-.8 15.8 3.3 31.3 2.7 47.1-.5 14.2-2.7 28.3.9 42.3 5.2 19.8 24.7 26.6 43 28.4 9.3.9 18.6.6 27.9.6 10.8 0 21.4 1.8 32.1-.8 12.1-2.9 20.1-13.2 23.3-24.7C479.8 385.2 477.8 372.4 478.1 360zM463.8 399.9c-5.7 12.2-18.3 13-30.1 12.4-9.4-.5-18.7-.4-28.2-.5-15.7-.2-37.6-1.4-44.1-18.7-4.9-13-1.8-28.3-1.2-41.8.7-14.4-2.8-28.6-2.8-43 1.2 0 2.5-.5 3.6-1.8 7.9-8.9 21.2-5.9 31.7-5.1 14.3 1 28.6-2.6 42.9-2.8 10.4-.1 21 2.4 26.9 11.7 4.7 7.3 5.3 16.7 5.5 25.2.2 9.1-.9 18.1-.8 27.2C467.1 374.8 469.1 388.4 463.8 399.9zM168.9 304.5c-13-10.8-32.2-10.3-48.2-10.8-21.4-.7-42.9.7-64.3 2.2-5.3.4-6.6 6.7-3.8 9.6-4.3 10.1-3.3 21.6-2.2 32.5.8 7.7 1.4 15.4 1.6 23.2.2 8.3-.2 16.7.9 25 1.2 9.8 5.1 19 12.2 26 6.5 6.2 15.1 9.7 23.7 11.8 9.3 2.3 19 3.1 28.5 4.1 10.4 1.1 20.6 2.8 31.1 2.5 11.8-.4 22.4-6 26.8-17.4 4.9-12.8 3.1-26.9 4.4-40.2C181.9 351 188.6 320.8 168.9 304.5zM171.3 345.8c-.4 9.1-1.5 18.3-2.7 27.4-1.6 12.8 1.8 28.7-5.8 40.1-5.9 8.9-21.9 7-30.9 5.6-9.4-1.4-18.9-2-28.3-3.3-17-2.3-34.2-7.4-39.1-25.8-1.8-6.7-1.4-14-1.5-20.9-.1-7.9-.2-15.7-.9-23.6-1.1-12.8-4.9-27.3 2.4-39 12.6-.9 25.1-1.5 37.7-1.8 14.9-.3 30.6-.5 45.4 2.2 8.9 1.6 16.3 6 20.4 14.2C171.8 328.5 171.7 337.7 171.3 345.8zM270.7 180.8c-5.1-6.1-14.9-6.4-22.1-6.9-3.5-.2-5.2 2.3-5.2 5-2.4.4-4.6 2.1-4.5 5.3.4 16.2 2.6 32.5 1.5 48.7-.8 13.1-2.9 27.6 2.1 40.1 1.6 4.1 6.2 4.8 8.8 2.6.7.4 1.6.7 2.6.8 5.6.3 11 .3 16.5-1.2 2.5-.7 3.9-2.9 4-5.4.7-11.3.2-22.5-.2-33.8-.4-10.4-.3-20.3.9-30.7C276 196.9 276.4 187.7 270.7 180.8zM263.4 239.9c.3 8.5.6 17 .3 25.5-3.3.4-6.5.3-9.9.1-.3 0-.7 0-1 0-.4-.6-.9-1.1-1.5-1.4-2.2-10.6-.5-22.2.2-32.8 1-15.4-1.1-30.9-1.6-46.3 4.7.2 12.2.4 13.9 5.2 2.5 6.9.2 16.1-.6 23.2C262.2 222.1 263 231.1 263.4 239.9zM194.3 203c-1.9-8-7.5-14.9-16.1-15.4-11-.7-18.9 11.8-24.5 19.4-8 10.8-19.6 18.2-29.5 27.1-5.1 4.7-9.9 9.8-14.5 15-.7.8-1.4 1.7-2.1 2.5-1.2 1.4-3.2 2.6-1.7 2-.5.3-1 .8-1.4 1.3-.2.2-.3.4-.4.6-1.7 2.7-.1 6.6 2.5 7.9.5 2.5 2.7 3.7 5 3.7 5.8 6.6 13.1 10.9 22.6 9.2 11.6-2.1 19.8-13.9 26.9-22.2 4.6-5.4 9.4-10.5 15.3-14.5 5.2-3.5 10.3-7.1 14.3-12C196.3 221 196.3 211.1 194.3 203zM183.5 218.9c-1.2 4-6.7 7.3-9.9 9.6-4.5 3.1-8.8 6-12.7 9.9-8 7.8-13.8 18.1-23.1 24.6-8.3 5.9-14.8 1.6-20-5.7 1.6-2 3.2-4.1 4.6-5.6 7.7-8.3 16.4-15.5 25.2-22.7 4-3.3 8.2-6.6 11.4-10.6 3.1-3.9 5.9-8.1 9.1-11.9 3.5-4.3 9.9-11.7 14.2-4.5C185.1 206.7 185.1 213.6 183.5 218.9zM395 232.5c-10.6-6.5-20.5-14.4-30.7-21.5-10.2-7.1-20.8-15.2-27.3-26-1.8-3-5.1-3.2-7.4-1.8-10.6-3.5-21.6 4.1-22.7 14.9-1 10.2 9.1 17.1 16.2 22.2 11.8 8.6 22.9 18.2 34.1 27.6 9.2 7.7 17.3 17.2 30.3 16.3 7.3-.5 20.6-3.9 22.3-12.5C411.7 242.2 402 236.8 395 232.5zM397.6 250c-1.6 1.1-3.4 1.6-5.3 2.2-8.5 2.6-13.9.1-20.1-5.8-8.7-8.3-18.8-15.8-28.1-23.4-6.9-5.6-14.2-10.6-21-16.2-2.3-1.9-4.9-4.4-5.2-7.5-.5-4.7 5.3-6.5 9-5.3 1.1.4 2.1.4 2.9.2 10.5 15 26.8 24.6 41.5 35 7 5 13.8 10.1 21.1 14.8 2.2 1.4 4.9 3.1 6.6 5.2C398.6 249.4 398.1 249.7 397.6 250z"></path></svg>