<svg xmlns="http://www.w3.org/2000/svg" x="0px" y="0px"
width="48" height="48"
viewBox="0 0 512 512"
style=" fill:#000000;"><path fill="#C56528" d="M241.3 419c-4.9-7.8-9.4-15.8-13.6-23.8-.8.7-1.5 1.4-2.3 2-.6.5-1.3.9-1.9 1.1 2.4 7.5 5 14.9 7.7 22.3 3.5 9.7 6.7 19.4 10 29.1 4.3-3 8.4-6.2 12.5-9.5C249.6 433.2 245.6 426 241.3 419zM275.7 472.8c-.4-.4-.7-.8-1.1-1.3-.1 0-.4-.2-.9-.7-1-.8-1.6-1.7-1.9-2.6-4.6-5.8-8.7-12-12.6-18.4-4.5 3.6-9.1 7.1-13.9 10.4-.2.1-.4.3-.6.4.6 1.8 1.2 3.6 1.9 5.5 1.3 3.7 8.7 29.7 16.1 24.8 6.1-4 11.1-10.2 15.3-16.7C277.2 474.1 276.4 473.6 275.7 472.8zM300.5 416.1c-2.6 2-5.2 4-7.7 6 .3.4.5.9.8 1.3 2.1 3.3 4.4 6.5 6.3 9.9.2.3.3.6.5.9 1.7-3 3.4-5.9 5.2-8.9 4.7-7.7 9.2-15.5 13.7-23.3C313.1 407 306.5 411.6 300.5 416.1zM291.7 441.1c-2.4-4.1-4.8-8.1-7.3-12.1-5.6 4.6-11.1 9.4-16.6 14 4.2 7.1 8.8 14 14.2 20.3.6.5 1.2 1.1 1.7 1.7.8-1.5 1.6-3 2.4-4.4 2.9-5.2 5.7-10.5 8.5-15.7C293.4 443.7 292.4 442.3 291.7 441.1zM249.5 365.6c-5-15.6-9.2-31.5-13.1-47.5-6.7 7.4-14.1 14.2-22.1 20.1 2.4 8.2 4.6 16.4 7.4 24.5 2.9 8.4 6.1 16.5 9.7 24.4 6.5-6.1 12.8-12.3 19.1-18.6C250.1 367.4 249.8 366.5 249.5 365.6zM231.7 298.9c-3.2-13.1-6-26.3-7.8-39.7-.7 1.1-1.4 2.3-2.1 3.4-6.2 9.7-14.7 18.1-22.7 26.5.7 2.7 1.4 5.5 2.2 8.2 2.8 10 6.1 19.8 9.4 29.7 7.9-6.1 15.1-13.2 21.6-20.9.3-.4.6-.7.9-1.1C232.7 303 232.2 300.9 231.7 298.9zM314.5 301c-4.5 6.1-12.8 13.1-20.6 8.1-1.8-1.2-3.3-2.5-4.6-3.9 1.3 7 2.9 13.9 4.6 20.9 1.7-1.6 3.3-3.3 5-4.9 5.6-5.6 11-11.3 16.1-17.4C314.7 302.9 314.6 302 314.5 301zM277.3 239.7c-8.3-9.6-23.3-9.2-36.4-7.9-.3.8-.8 1.5-1.5 2.3.1 2.2-.9 4.4-3.3 5.6-.8.4-1.8 1.8-2.9 3.4 1.1 17 4.3 33.8 8.3 50.3.1.3.1.6.2.9 2.2-2.7 4.4-5.4 6.7-8 6.1-6.7 12.2-13.4 18-20.5 2.3-2.9 4.8-5.8 6.7-8.9.2-.4.4-.7.7-1.1-.1-3.6-.1-7.3-.1-10.9C273.9 242.3 275.4 240.5 277.3 239.7zM276.2 293.4c-.8-6.7-1.3-13.3-1.7-20-5.1 6.2-10.4 12.1-15.8 18-4.8 5.3-9.1 10.9-13.6 16.4 3.6 14.7 7.4 29.3 11.6 43.8.8 2.7 1.6 5.3 2.4 8 .3-.3.6-.6.9-.9 8.1-8.1 16.5-16 24.8-23.9C281.1 321.2 277.9 307.4 276.2 293.4zM276.9 426.4c-8.8-14.9-16.3-30.5-22.5-46.6-6 5.9-12.1 11.8-18.3 17.5 4.3 8.6 9 17 14.2 25.3 4.1 6.6 7.9 13.5 11.7 20.4 5.5-4.6 10.9-9.3 16.4-13.8C278 428.3 277.5 427.4 276.9 426.4zM308.8 394.2c-3.6-5.5-6.7-11.3-9.5-17.3-4.5-9.7-8.2-19.8-11.3-30.1-8 7.7-15.9 15.3-23.8 23.2-.4.4-.8.8-1.3 1.3 4.5 12.5 9.7 24.7 15.9 36.4 2.6 4.9 5.3 9.8 8.1 14.7 1.7-1.3 3.4-2.7 5.1-4 7-5.3 14.9-10.5 21.9-16.5C311.9 399.3 310.2 396.2 308.8 394.2z"></path><path fill="#FCBF95" d="M353.9,60.9c0.4-10.3-8.3-19.6-15.4-26c-6.1-5.5-12.6-9.3-20.4-12c-14.6-5-30.9-5.6-46.1-3.3c-29.2,4.4-60.6,22.2-62,54.6c15-0.2,30.3,2.5,43.3,9.9c20,11.4,34.7,32.9,40,55.2c8.5-3.3,17.6-5.5,26.7-6.3c6.4-0.6,13-0.6,19.5,0.1c0.5-7,3.4-13.8,5.1-20.5c2.9-11,5.4-22.1,8-33.2c1.2-4.8,2.3-9.6,3.4-14.4C354.7,64.4,353.8,63,353.9,60.9z"></path><path fill="#C56528" d="M387.7 49c-2.3-1.3-4.7-2.1-7.4-2.6-4.9-.8-8-1-9.8 4.2-1.8 5.1-2 10.7-3.3 15.9-2.2 8.8-4.4 17.5-6.5 26.3-2 8.7-3.9 17.5-6.6 26-1.6 5.2-3.7 10.7-3.7 16.2 2.6.6 5.1 1.4 7.6 2.2-.2-1-.1-2.1.4-3.3 4.9-11.1 13.1-20.1 20.2-29.8-.7-1-1-2.3-.7-3.8 1.4-8.7 2.3-17.5 3.8-26.2 1.3-7.1 3.4-13.3 5.9-20C388.3 52.5 389.6 50.1 387.7 49zM200.7 331.9c-3.8-11.4-7.7-22.9-10.8-34.5-.1-.5-.3-1-.4-1.6-1-.2-2-.8-2.8-1.5 4.3 11.6 8.5 23.2 12.4 34.9.5 1.6 1 3.2 1.6 4.9.2-.1.4-.3.7-.4C201.1 333.1 200.9 332.5 200.7 331.9zM221.9 231.9c-7.9 0-15.8-.3-23.6.1-3.5.2-6.9.4-10.4.7 0 .1 0 .2 0 .4.1 11.2 2.6 22.1 5.3 32.8.9 3.6 1.8 7.1 2.7 10.7 7-7.4 13.9-14.9 18.9-23.6 2.3-3.9 4.5-8.7 7.3-13.1C222 237.2 221.9 234.6 221.9 231.9zM176.9 233.9c0-.1 0-.1 0-.2-1.6.2-3.1.4-4.7.6-.4.1-2.3.4-2 .4-.4.1-.7.2-.9.3-.4.2-.5.2 0 0 .6-.3 1.8-1.3 2.5-3.5-1.1 3.3-4.2 4.4-6.9 4 6.2 18.2 13.2 36 20 54 .2-.9.6-1.8 1.4-2.7.2-.2.4-.4.6-.7C182 269.1 177.1 251.4 176.9 233.9zM353.6 299.3c-3.2-6.3-6.1-12.5-8.6-19.1-.1-.3-.2-.6-.3-.9-3 5.7-6.3 11.2-10 16.5-2.5 3.7-5.2 7.3-8 10.8 2.1 8.4 5.4 16.6 8.3 24.6 3 8.3 7.8 15.7 11.9 23.3.5-1.3 1.1-2.7 1.6-4 4.3-11.4 8.4-23 12.4-34.5C359.3 310.2 356.3 304.7 353.6 299.3z"></path><path fill="#FCBF95" d="M391.3,218.5c-2.5-1.5-4.2-5-2.3-8.2c0.1-1,0.5-1.8,1-2.5c-1.7-2.3-1-5.5,0.9-7.3c-0.2-8.6-1.1-17.5-5.3-25c-4.3-7.6-9.2-14.6-16.3-19.9c-13.7-10.2-31.6-13.3-48.3-11.6c-18.5,2-37.4,9.3-50.9,22.4c-5.4,5.2-10.1,11.3-14.4,17.5c-3.4,5-8.5,12.4-6,18.7c2.6,6.6-7.8,10.2-10.4,3.6c-3.4-8.5,0.6-17.8,5.2-25.1c4.9-7.8,10.6-15.7,17.3-22c6.4-6,13.7-11.1,21.5-15.2c-0.1-0.3-0.2-0.7-0.3-1c-4.7-23.5-23-47-46.4-54.1c-35.5-10.7-81.7,2.5-104.2,32.6c-22.8,30.5-11.7,87.6,27.2,99.6c2.5,0.8,3.8,2.8,4.1,4.8c3.9-3.1,11-3,15.5-3.5c6.9-0.7,14-1.5,21-1.5c10.7,0,22-1,32.6,0.2c1,0.1,2,0.3,2.9,0.6c0.7-0.4,1.5-0.8,2.5-0.9c11.8-1.2,24.8-2.1,36,2.6c10.5,4.4,16.8,13.6,19.3,24.4c3.3,13.9-1.3,27.7,1,41.7c0.4,2.2,2.7,12.3,6.8,9.6c4.1-2.7,6.8-7.5,8.9-11.8c4.9-10,8.3-21.1,9.8-32.1c1.5-10.6,0.5-22.3,10-29.5c7.8-5.9,17.4-3.5,22.1,5c1.5,2.7,2.2,5.4,2.3,8.5c0.1,2.1-0.2,4.7,0.6,6.6c1.4,3,6.1-5.5,6.5-6.3c3-6.6,3-20.2,14.1-17.9c10.2,2.2,12.9,13.4,11.8,22.5c-0.3,2.4-0.9,4.8-1.9,7c-0.7,1.7-2.5,4.5-2.1,6.5c0.5,2.5,3.9,1.3,4.9,0.3c1.7-1.8,3.2-3.7,4-6.1C396,241.2,394.6,229.4,391.3,218.5z"></path><path fill="#C56528" d="M335.9 238.9c.1-2.8 2-4.6 4.1-5.4 0 0 0 0-.1 0-2.3-1-5.1 2.1-6.1 3.9-2.8 5.1-2.2 11.1-2.9 16.8-.8 6.3-2 12.6-3.8 18.7-1.6 5.3-3.4 10.5-5.6 15.6 1.4.4 2.5 1.4 3 2.9 2.3-3.3 4.5-6.8 6.6-10.3 3-5.3 5.4-11.1 8.5-16.5C337.1 256.2 335.4 247.6 335.9 238.9zM211.2 366.3c-2.4-7.2-4.5-14.5-6.6-21.8-.2.1-.4.2-.7.2 5.4 17.5 10.6 35.1 16.1 52.6.9-.8 1.8-1.6 2.7-2.4C218.4 385.6 214.5 376.1 211.2 366.3z"></path><path fill="#FEBF10" d="M408.5,75.6c-6.4,9.6-11,20.3-17.3,30c-7.4,11.2-17.5,21-22.9,33.3c-0.4,1-1,1.7-1.6,2.1c3.4,1.8,6.7,3.8,9.8,6.2c4.1,3.2,7.8,6.9,11.1,11c0,0,0,0,0.1,0c7.8-9.4,11.3-22,17-32.7c6.9-12.8,16.7-24,22.9-37.1C420.9,84.4,413.5,81.2,408.5,75.6z"></path><path fill="#C56528" d="M373.9 250c1.9-4.7 4.4-12 .8-16.6 0-.1-.1-.1-.2-.2-.2.8-.4 1.7-.5 2.6-.5 2.7-1.2 5.4-2.4 7.9-2.7 5.9-6.8 12.4-13.6 13.6 0 0-.1 0-.1 0 0 .1 0 .1 0 .2-.4 1.7-1.4 2.8-2.6 3.5-.3.3-.9.8-1.4 1.4-.6.8-1.1 1.6-1.6 2.5-.2.4-.5.9-.7 1.3 1.7 5 3.6 10 5.5 14.9 2.6 6.8 6.2 13.1 9.3 19.6 3.9-10.9 7.9-21.8 12.3-32.5C372.3 263.7 370.7 257.6 373.9 250zM332.5 351.2c-3.5-6.3-6.4-12.5-8.9-19.3-1.8-5-3.8-10.1-5.4-15.2-5.1 5.8-10.5 11.3-16.1 16.6-1.7 1.6-3.4 3.3-5.2 4.9 5.4 19.5 12.4 39.6 25 55.5.2 0 .3 0 .5.1 2.2-2.5 4.2-5.1 5.9-7.9-1-3.1.4-6.9 4.6-6.9h2c.5 0 .9.1 1.3.1 1.7-3.6 3.4-7.3 5-11C338.9 362.2 335.7 356.7 332.5 351.2z"></path><path d="M169.2,235C168.8,235.1,168.9,235.2,169.2,235L169.2,235z"></path><path d="M438,82.3c-7.2-5.2-20.3-8.7-23.4-17.7c-0.9-2.5-3.1-3.7-5.6-3.7c-6.1,0-10.1,9.2-12.8,13.7c-1.6,2.6-3,5.2-4.4,7.8c0.6-3.7,1.2-7.4,1.9-11.1c1.5-7.4,5.9-14.2,6.1-21.8c0.3-13.6-24-17.7-32.9-12c-2.8,1.8-4.6,4.5-5.9,7.6c-2.9-5.4-7.1-10.3-11.1-14.6c-6.6-7-14.3-12.5-23.2-16.2c-16.4-6.7-34.8-8.2-52.3-6.2c-34.2,3.8-71.3,24.2-75.1,61.7c-0.2,1.7-0.3,3.3-0.3,5c-0.7,0.1-1.3,0.1-2,0.2c-37.4,4.8-77.9,28.3-85.7,67.7c-6.8,34.4,8.6,74.9,42.6,87.8c-0.8,1.2-1.2,2.8-0.6,4.7c10,29.7,22.6,58.4,32.4,88.2c10.3,31.2,19.5,62.8,29.6,94c5,15.3,10.5,30.4,15.6,45.6c4.4,13.2,8.2,27,15.3,39.1c5.8,9.9,15.9,13.2,25.3,5.8c9.8-7.6,16.8-19.3,22.9-30c3.8-6.7,7.3-13.6,10.9-20.5c4.3-8.3,9.4-16.1,14.2-24.2c10.4-17.6,21-35.4,29.3-54.1c1.2-2.7,2.4-5.5,3.5-8.2c0.2-0.4,0.4-0.8,0.5-1.2c6.2-14.9,11.6-30.1,16.9-45.4c2.1-0.7,3.7-2.5,3.2-5.4c-0.1-0.8-0.3-1.6-0.5-2.3c5.5-15.8,11.1-31.6,17.6-47.1c3.9-1.6,7.4-5.1,9.6-8.3c9.7-15,6.1-35.8,0.3-51.7c1.3-1.1,2-2.6,2-4.5c0-11.3-1-22.7-5.8-33c-0.7-1.4-1.4-2.8-2.2-4.2c9.6-9.8,14-23.8,19.9-35.8c7.3-15.1,19.4-27.3,25.6-43C440.1,86.8,440.1,83.8,438,82.3z M367.3,66.5c1.3-5.2,1.5-10.8,3.3-15.9c1.8-5.1,4.9-5,9.8-4.2c2.6,0.5,5,1.3,7.4,2.6c1.9,1.1,0.6,3.5,0,5.2c-2.5,6.7-4.6,12.9-5.9,20c-1.6,8.7-2.4,17.5-3.8,26.2c-0.2,1.5,0.1,2.8,0.7,3.8c-7.1,9.7-15.4,18.7-20.2,29.8c-0.5,1.2-0.6,2.3-0.4,3.3c-2.5-0.9-5-1.6-7.6-2.2c0-5.5,2.1-11,3.7-16.2c2.7-8.5,4.6-17.3,6.6-26C362.9,84.1,365.1,75.3,367.3,66.5z M271.9,19.6c15.2-2.3,31.5-1.6,46.1,3.3c7.8,2.6,14.3,6.5,20.4,12c7.1,6.4,15.8,15.7,15.4,26c-0.1,2.1,0.9,3.5,2.2,4.3c-1.1,4.8-2.2,9.6-3.4,14.4c-2.7,11.1-5.1,22.2-8,33.2c-1.8,6.7-4.7,13.5-5.1,20.5c-6.5-0.7-13.1-0.7-19.5-0.1c-9.2,0.8-18.2,3-26.7,6.3c-5.3-22.3-20-43.8-40-55.2c-13-7.4-28.3-10.2-43.3-9.9C211.3,41.8,242.7,23.9,271.9,19.6z M184.9,289.5c-6.8-18-13.8-35.8-20-54c2.7,0.4,5.8-0.7,6.9-4c-0.7,2.2-1.9,3.1-2.5,3.5c0.2-0.1,0.5-0.2,0.9-0.3c-0.3,0.1,1.6-0.3,2-0.4c1.6-0.3,3.1-0.5,4.7-0.6c0,0.1,0,0.1,0,0.2c0.2,17.5,5.2,35.2,10,52.3c-0.2,0.2-0.4,0.4-0.6,0.7C185.4,287.7,185,288.6,184.9,289.5z M200.6,334.1c-0.5-1.6-1-3.2-1.6-4.9c-3.8-11.8-8-23.4-12.4-34.9c0.8,0.7,1.8,1.2,2.8,1.5c0.1,0.5,0.3,1,0.4,1.6c3.1,11.7,7,23.1,10.8,34.5c0.2,0.6,0.4,1.2,0.6,1.8C201,333.8,200.8,333.9,200.6,334.1z M187.8,232.7c3.5-0.3,6.9-0.5,10.4-0.7c7.9-0.4,15.8,0,23.6-0.1c0,2.7,0.1,5.3,0.2,7.9c-2.8,4.4-5,9.2-7.3,13.1c-5,8.7-11.9,16.2-18.9,23.6c-0.9-3.6-1.8-7.1-2.7-10.7c-2.8-10.8-5.2-21.7-5.3-32.8C187.8,232.9,187.8,232.8,187.8,232.7z M199,289.2c8-8.4,16.5-16.8,22.7-26.5c0.7-1.1,1.4-2.3,2.1-3.4c1.8,13.4,4.6,26.6,7.8,39.7c0.5,2,1,4.1,1.5,6.1c-0.3,0.4-0.6,0.7-0.9,1.1c-6.5,7.7-13.7,14.7-21.6,20.9c-3.3-9.8-6.6-19.7-9.4-29.7C200.5,294.6,199.8,291.9,199,289.2z M299.3,376.9c2.8,6,5.9,11.8,9.5,17.3c1.3,2,3.1,5.1,5.2,7.8c-7,6-14.9,11.2-21.9,16.5c-1.7,1.3-3.4,2.6-5.1,4c-2.8-4.9-5.5-9.8-8.1-14.7c-6.2-11.7-11.4-23.9-15.9-36.4c0.4-0.4,0.8-0.8,1.3-1.3c7.8-7.9,15.8-15.5,23.8-23.2C291.1,357.1,294.8,367.1,299.3,376.9z M289.2,305.3c1.3,1.4,2.8,2.7,4.6,3.9c7.8,5,16.1-2,20.6-8.1c0.1,0.9,0.3,1.9,0.4,2.8c-5.1,6-10.5,11.8-16.1,17.4c-1.7,1.7-3.3,3.3-5,4.9C292.1,319.2,290.5,312.3,289.2,305.3z M278.6,429.2c-5.5,4.6-10.9,9.2-16.4,13.8c-3.9-6.9-7.6-13.8-11.7-20.4c-5.2-8.3-9.9-16.7-14.2-25.3c6.2-5.7,12.3-11.6,18.3-17.5c6.1,16.2,13.7,31.8,22.5,46.6C277.5,427.4,278,428.3,278.6,429.2z M260,358.7c-0.3,0.3-0.6,0.6-0.9,0.9c-0.8-2.7-1.7-5.3-2.4-8c-4.2-14.5-7.9-29.1-11.6-43.8c4.5-5.5,8.8-11.1,13.6-16.4c5.3-5.9,10.7-11.8,15.8-18c0.4,6.7,0.9,13.4,1.7,20c1.7,14,5,27.8,8.6,41.5C276.5,342.8,268.1,350.6,260,358.7z M273.9,244.9c0,3.6,0,7.3,0.1,10.9c-0.2,0.4-0.4,0.7-0.7,1.1c-1.9,3.2-4.4,6-6.7,8.9c-5.7,7-11.9,13.7-18,20.5c-2.3,2.6-4.6,5.3-6.7,8c-0.1-0.3-0.1-0.6-0.2-0.9c-4-16.6-7.2-33.3-8.3-50.3c1.1-1.6,2.1-3,2.9-3.4c2.4-1.2,3.4-3.5,3.3-5.6c0.6-0.8,1.1-1.5,1.5-2.3c13.1-1.3,28-1.7,36.4,7.9C275.4,240.5,273.9,242.3,273.9,244.9z M236.4,318.1c3.9,16,8.1,31.9,13.1,47.5c0.3,0.9,0.6,1.9,0.9,2.8c-6.3,6.3-12.6,12.5-19.1,18.6c-3.6-7.9-6.8-16-9.7-24.4c-2.8-8.1-4.9-16.3-7.4-24.5C222.3,332.3,229.6,325.4,236.4,318.1z M220,397.2c-5.5-17.5-10.7-35.1-16.1-52.6c0.2-0.1,0.4-0.1,0.7-0.2c2.2,7.3,4.2,14.6,6.6,21.8c3.3,9.8,7.2,19.3,11.5,28.5C221.8,395.6,220.9,396.4,220,397.2z M231.2,430.4c-2.7-7.4-5.2-14.8-7.7-22.3c0.6-0.2,1.3-0.5,1.9-1.1c0.8-0.7,1.5-1.4,2.3-2c4.2,8.1,8.7,16,13.6,23.8c4.3,6.9,8.3,14.1,12.4,21.3c-4.1,3.3-8.2,6.5-12.5,9.5C237.9,449.8,234.7,440.1,231.2,430.4z M262.8,500.7c-7.3,4.9-14.8-21.1-16.1-24.8c-0.6-1.8-1.3-3.6-1.9-5.5c0.2-0.1,0.4-0.2,0.6-0.4c4.8-3.3,9.3-6.8,13.9-10.4c3.8,6.4,7.9,12.5,12.6,18.4c0.3,0.9,0.9,1.8,1.9,2.6c0.5,0.5,0.8,0.7,0.9,0.7c0.4,0.4,0.7,0.8,1.1,1.3c0.7,0.8,1.5,1.2,2.4,1.4C273.8,490.5,268.9,496.6,262.8,500.7z M286,470.4c-0.8,1.4-1.6,2.9-2.4,4.4c-0.5-0.6-1-1.2-1.7-1.7c-5.4-6.2-9.9-13.1-14.2-20.3c5.6-4.6,11.1-9.4,16.6-14c2.5,4,4.9,8.1,7.3,12.1c0.7,1.2,1.7,2.6,2.8,3.8C291.7,459.9,288.9,465.1,286,470.4z M305.5,435.1c-1.8,2.9-3.5,5.9-5.2,8.9c-0.2-0.3-0.3-0.6-0.5-0.9c-1.9-3.4-4.2-6.6-6.3-9.9c-0.3-0.4-0.5-0.9-0.8-1.3c2.5-2,5.1-4,7.7-6c6.1-4.5,12.6-9.1,18.7-14.1C314.8,419.6,310.2,427.4,305.5,435.1z M336.3,379.1c-0.4-0.1-0.9-0.1-1.3-0.1h-2c-4.2,0-5.6,3.8-4.6,6.9c-1.7,2.8-3.7,5.4-5.9,7.9c-0.2,0-0.3-0.1-0.5-0.1c-12.5-15.9-19.6-36-25-55.5c1.7-1.6,3.4-3.3,5.2-4.9c5.6-5.3,11-10.9,16.1-16.6c1.7,5.2,3.6,10.2,5.4,15.2c2.5,6.7,5.4,13,8.9,19.3c3.1,5.6,6.4,11,8.8,16.9C339.7,371.8,338,375.5,336.3,379.1z M339.6,264.6c-3,5.4-5.4,11.2-8.5,16.5c-2,3.5-4.2,6.9-6.6,10.3c-0.5-1.5-1.7-2.5-3-2.9c2.2-5.1,4-10.3,5.6-15.6c1.9-6.1,3-12.4,3.8-18.7c0.7-5.6,0.1-11.7,2.9-16.8c1-1.8,3.8-4.8,6.1-3.9c0,0,0,0,0.1,0c-2.1,0.7-4,2.6-4.1,5.4C335.4,247.6,337.1,256.2,339.6,264.6z M348.5,350.5c-0.5,1.3-1,2.7-1.6,4c-4.2-7.7-8.9-15.1-11.9-23.3c-2.9-8-6.3-16.2-8.3-24.6c2.8-3.5,5.4-7.1,8-10.8c3.6-5.3,7-10.8,10-16.5c0.1,0.3,0.2,0.6,0.3,0.9c2.5,6.6,5.3,12.9,8.6,19.1c2.8,5.4,5.7,10.9,7.4,16.7C356.9,327.6,352.9,339.1,348.5,350.5z M366.4,300.7c-3.1-6.5-6.7-12.8-9.3-19.6c-1.9-4.9-3.8-9.8-5.5-14.9c0.2-0.4,0.5-0.9,0.7-1.3c0.5-0.9,1-1.7,1.6-2.5c0.4-0.6,1-1.1,1.4-1.4c1.2-0.7,2.1-1.8,2.6-3.5c0-0.1,0-0.1,0-0.2c0,0,0.1,0,0.1,0c6.8-1.3,10.9-7.8,13.6-13.6c1.2-2.5,1.9-5.2,2.4-7.9c0.2-0.8,0.3-1.7,0.5-2.6c0.1,0.1,0.2,0.2,0.2,0.2c3.6,4.6,1.1,12-0.8,16.6c-3.2,7.6-1.6,13.7,4.8,18.2C374.3,278.9,370.3,289.8,366.4,300.7z M392,252c-0.9,2.3-2.3,4.3-4,6.1c-1,1.1-4.4,2.2-4.9-0.3c-0.4-2,1.4-4.8,2.1-6.5c0.9-2.2,1.6-4.6,1.9-7c1.1-9.1-1.6-20.4-11.8-22.5c-11.1-2.4-11,11.3-14.1,17.9c-0.4,0.8-5.1,9.3-6.5,6.3c-0.9-1.9-0.6-4.6-0.6-6.6c-0.1-3.1-0.8-5.8-2.3-8.5c-4.7-8.5-14.3-11-22.1-5c-9.5,7.2-8.5,18.9-10,29.5c-1.5,11-4.9,22.1-9.8,32.1c-2.1,4.3-4.8,9.1-8.9,11.8c-4.1,2.7-6.4-7.3-6.8-9.6c-2.2-13.9,2.3-27.8-1-41.7c-2.6-10.9-8.9-20-19.3-24.4c-11.2-4.7-24.2-3.8-36-2.6c-1,0.1-1.8,0.4-2.5,0.9c-0.9-0.3-1.8-0.5-2.9-0.6c-10.7-1.2-21.9-0.2-32.6-0.2c-7,0-14.1,0.8-21,1.5c-4.5,0.5-11.5,0.4-15.5,3.5c-0.3-2.1-1.6-4.1-4.1-4.8c-38.8-12-49.9-69.1-27.2-99.6c22.5-30.1,68.8-43.3,104.2-32.6c23.4,7.1,41.7,30.6,46.4,54.1c0.1,0.4,0.2,0.7,0.3,1c-7.8,4.1-15.1,9.2-21.5,15.2c-6.8,6.3-12.4,14.3-17.3,22c-4.6,7.2-8.5,16.6-5.2,25.1c2.6,6.6,13,3,10.4-3.6c-2.5-6.2,2.6-13.7,6-18.7c4.2-6.2,9-12.3,14.4-17.5c13.5-13.1,32.4-20.5,50.9-22.4c16.7-1.8,34.6,1.4,48.3,11.6c7.1,5.3,12.1,12.2,16.3,19.9c4.2,7.5,5.1,16.4,5.3,25c-1.9,1.9-2.6,5.1-0.9,7.3c-0.5,0.7-0.8,1.6-1,2.5c-1.9,3.2-0.2,6.7,2.3,8.2C394.6,229.4,396,241.2,392,252z M404.6,125.5c-5.7,10.7-9.2,23.3-17,32.7c0,0,0,0-0.1,0c-3.3-4.1-7-7.8-11.1-11c-3.1-2.4-6.4-4.5-9.8-6.2c0.7-0.5,1.2-1.2,1.6-2.1c5.4-12.4,15.5-22.1,22.9-33.3c6.3-9.7,10.9-20.4,17.3-30c5,5.7,12.4,8.8,19,12.9C421.3,101.6,411.4,112.7,404.6,125.5z"></path></svg>