<svg xmlns="http://www.w3.org/2000/svg" x="0px" y="0px"
width="48" height="48"
viewBox="0 0 512 512"
style=" fill:#000000;"><path fill="#EF4823" d="M405,213.4c-5.2,1.9-7.5,9.7-9.5,14.3c-2.2,5.1-10,3.2-10.4-2c-0.3-4-1.8-9-6.5-9.4c-3.7-0.4-6.5,3-7.1,6.4c-1.3,6.8,0.8,15,3.3,21.3c2.7,6.8,6.9,12.6,13.2,16.4c0.2,0.1,0.3,0.2,0.4,0.3c5.3-4.7,9.8-10.4,13.8-16.2c3.7-5.4,7.6-11.6,8.2-18.2C410.7,223.4,411,211.2,405,213.4z"></path><path fill="#74CCCF" d="M411.9,315.4c0.1,0.5,0.2,1,0.2,1.5c0,14,0.9,27.9,4.7,41.4c5.2-2.5,10.3-5.1,15.4-7.7c0-15.1,0.1-30.2,0.6-45.2C425.8,308.9,418.9,312.2,411.9,315.4z"></path><path fill="#14B6B9" d="M414.3,29.4c-9-3.5-19.9-1.6-29.3-0.6c-13.6,1.4-25.9,6.9-38.5,11.7c-10.3,3.9-20.5,6.1-31.2,8c-7.3,1.3-14.8,2.7-21.5,5.9c-4.2,2-6.2,4-5.8,6.8c0.3-0.1,0.7-0.3,1.1-0.3c12.1-2.7,24.2-2.1,36.6-1.2c26.5,2,56.7,3.2,79.8-12.2C410.3,44.2,425.2,33.6,414.3,29.4z"></path><path fill="#74CCCF" d="M446.8 253.1c-.5-10.8-2.5-20.8-5.8-31.1-6.5-20.1-15.5-39.5-19.9-60.3-2.3-10.7-2.6-21.2-2.7-32-.1-11.3-.2-22.5 0-33.8.3-16.1 1.1-32.3 4.1-48.2-2.7 2.9-5.8 5.3-8.7 7.3-10.8 7.4-23.2 12-36 14.3-13.3 2.4-26.8 2.6-40.2 1.9-14.8-.8-30.1-3.3-44.7-.1-.6.1-1.2.2-1.8.1-.8 1.3-2.1 2.3-3.6 2.7 0 4.1-.1 8.2-.2 12.2 8.6-2.1 19.2-4.2 27.8-1.3 1.4-1 3.2-1.6 5.3-1.5 4.9.3 12.1 2 12.1 8 0 2.8-1.9 5.9-5.1 5.9-2 0-3.8-.1-5.7-.5-.6.5-1.2 1-1.9 1.2-2.3.8-4.4 0-5.8-1.6-7.2-4.1-17.7-1.3-25.2.6-.7.2-1.3.2-1.9.2-.3 8.1-.9 16.2-1.8 24.2 9.1-5.2 22-7 31.9-3.3.9-1 2.1-1.6 3.5-1.7.1 0 .1 0 .2 0 2.2-1 4.6-1.4 7.3-.9 3.8.6 5.1 4.6 3.9 7.8-1.3 3.2-4.4 5.2-7.6 5.6-.4.4-.8.8-1.2 1.1-.1.1-.1.2-.2.3-1.3 2.7-4.7 3.8-7.4 2.5-1.9-.9-3-2.9-3-4.8-8-2.7-19.7.8-25.4 5.5-1.2 1-2.5 1.3-3.7 1.2-.3 2-.7 4-1 6-1 5.5-2.3 10.9-3.9 16.1 5.4-2.9 12-3.2 18.1-3 7.5.3 15.9 1.3 22.1 6 1.7 1.3 2.2 3 2 4.6 1.1 1.3 2 2.8 2.6 4.4 1.4 3.4 1.3 7.8-1.4 10.6-3.4 3.6-8.3 3.7-12.9 3-3-.5-4.9-3.6-4.3-6.4.3-1.7 1.4-3 2.8-3.8-1.8-1.5-2.3-4-1.5-6.3-3-.7-6.3-.9-8.8-1.1-3.6-.2-11.1-.8-14 1.8-2.5 2.3-5.8 1.7-7.9 0-2.3 6.3-5.1 12.3-8.4 18.1.3.1.6.2.9.3 10.3 3.1 20.6 6.3 29.2 13.2 2.8 0 5.5.6 8.2 1.3 2.6.7 3.9 2.4 4.4 5 1.4 6.9-4.2 13.6-11.1 13.9-3.9.2-5.9-3-5.7-6-.2 0-.5 0-.7-.1-2.8-.5-5.1-3.5-4.3-6.4.1-.3.1-.5.2-.8-6.3-4.4-13.7-6.7-21-8.9-2.1.4-4.3-.3-5.5-2.4 0 0-.1-.1-.1-.1-3 4.4-6.4 8.6-10.1 12.7-1 1.1-2 2.1-3 3.2 10.8 6.1 19.9 13.2 27.4 23.4 1.1 1.6 1.3 3.1.8 4.5.9 5.1-1.9 10.4-6.8 12.2-5.7 2.1-11.2-.4-13.8-5.8-.4-.8-.4-1.6-.3-2.4-.7-.3-1.4-.8-2.1-1.3-2.3-2-2.4-5.5-.5-7.8 1.2-1.4 2.7-2.5 4.4-3.2-4.3-3.8-9.1-7-14.4-9.9-.5-.1-.9-.2-1.4-.3-.7-.3-1.3-.7-1.9-1.1-5.7 5.3-11.8 10.3-17.9 15.1 2.2 1.5 4.2 3.5 5.8 5.9 2 2.9 3.5 6.4 5.6 9.3 3 .5 5.4 2.1 7.3 4.8 1.7 2.5 2.6 5.8 1.7 8.7-1.6 5.5-7.3 9.5-13 9.7-2.8.1-5.8-.6-7.9-2.7-2.6-2.7-3.2-6-2.7-9.6.1-1 .6-1.8 1.2-2.5-.1-1.8.6-3.7 1.9-5 .1-.1.3-.3.5-.4-.6-1-1.2-2-1.8-3-1.8-3.1-3.8-6.4-7.4-7.6-.3-.1-.5-.2-.8-.3-3.7 2.7-7.4 5.4-11.1 8-14.1 10-28.1 20.3-40.4 32.5-10.4 10.2-25.4 25.5-23.9 41.6 2 21.4 29.5 24.8 46.3 25.3 29.4.8 58.8-2.7 87.9-6.6 56.5-7.4 112.2-21.1 162.5-48.4.5-1.5 1.5-2.6 3.2-3.3.2-.1.4-.2.6-.3.8-.4 1.6-.4 2.4-.3-1-2.3.3-5.3 2.6-6.8C444.2 272.1 447.3 263.2 446.8 253.1zM414.3 245.9c-4.9 7.9-10.6 15.8-17.6 22-2.2 1.9-4.9 1.8-6.9.7-1.3 2.1-3.9 3.3-6.7 1.6-10-6-16.9-15.4-20.1-26.7-2.7-9.4-5.2-21.1.4-29.9 4.1-6.5 12.1-10 19.5-7.6 3.4 1.1 6.2 3.1 8.2 5.6 2.7-4.2 6.2-7.6 11.1-8.9 10.6-2.6 18.1 6.2 19 16C422.3 228.8 419.5 237.5 414.3 245.9zM208.1 358.7c0-.2 0-.3 0-.5-6.3.3-12.6.4-18.9.3-.2.6-.5 1.2-.9 1.7 0 .4-.1 1.7-.2 1.6-.1 2.3-.1 4.6 0 6.8.2 6.7.6 13.4 1.1 20.1.5 6.6 1.1 13.2 1.9 19.7.3 2.2.5 4.4.9 6.6.1.3.1.7.2 1 0 0 0 .1 0 .1 0 0 0 0 0 0 .3.3.4.7.6 1.1.7-.1 1.4-.1 2.1-.2 4.7-.4 9.5-.7 14.2-1C209 397 208.1 377.9 208.1 358.7z"></path><path fill="#74CCCF" d="M455.3,352.4c-13.7,4.8-26,12.5-39.3,18.3c-15.1,6.6-30.8,11.9-45.9,18.6c-28.5,12.6-56.5,24.7-87.2,30.6c-29.9,5.8-60.3,6.1-90.6,8.5c-26.1,2.1-57.3,3.8-79.5-12.9c-14.4-10.9-21.1-27.5-23.4-44.9c-5.5,8.1-9.6,17.1-10.9,26.8c-2,14.5,2.9,28.8,12.9,39.5c17.8,19.1,45,23.2,70,21.6c26.8-1.7,53.6-8.4,79.4-15.6c30-8.4,59.4-18.5,88.9-28.5c14.8-5,29.7-10,44.6-14.7c14.6-4.6,29.4-9.7,44.4-12.6c10.7-2.1,22.8-3.9,31.8-10.4c4.4-3.2,9.2-8.2,9.9-14C461,358.4,458.5,355,455.3,352.4z"></path><path d="M461.5,343.3c-1.2-2-3.5-3.3-6.3-2.4c-4.1,1.3-8.1,2.8-12.1,4.5c0-15.4,0.1-30.7,0.8-46.1c0.4-0.2,0.8-0.5,1.2-0.7c2.4-1.3,2.8-4,2.1-6.2c2.5-0.1,4.8-1.4,5.3-4.3c1.6-11,5.5-21.1,5.5-32.4c0-10.5-1.7-20.7-4.5-30.8c-5.7-20.4-15-39.6-20.3-60.2c-5.5-21.2-3.9-44.2-3.7-66c0.2-22.1,1.6-44.4,8-65.6c1.7-5.5-5.1-7.9-8.8-5c-3.3-8.4-15-10.9-23-11.4c-10.7-0.6-22.1,0.7-32.5,2.9c-13,2.8-25.1,8.9-37.7,13.1c-8.7,2.9-17.7,4-26.7,5.8c-8.7,1.8-18.3,3.9-25.4,9.5c-6.1,4.8-7.5,11.3-5.4,17.6c-0.9,0.9-1.4,2.2-1.4,3.8c0,30.4-0.5,62.8-10.5,91.8c-7.8,22.4-23.5,40.2-41.4,55.2c-28.5,23.8-62.7,41.9-85.6,72c-9.6,12.6-17.5,29.4-10.3,45c8.6,18.6,29.9,23.3,48.8,24.6c-0.5,2.8-0.2,6.1-0.2,8.3c0,7.4,0.5,14.8,1,22.2c0.5,7.4,1.2,14.9,2.1,22.2c0.3,2,0.4,4.8,0.9,7.4c-22.8,1.5-48,1.1-65.3-14.3c-13.3-11.9-16.4-31.3-16.5-48.3c0-4.9-6.6-6.5-9.6-3.2c-16.9,18.7-27.8,43.7-20.2,68.9c7.1,23.5,28.7,38.9,51.5,45c21.8,5.8,45.6,4.1,67.6,0c29.8-5.6,59-13.3,87.9-22.4c44.2-13.9,87.6-30.3,132.2-42.7c16.7-4.6,35.9-5.7,50-16.7c6.3-5,11.6-12.5,12.5-20.7C472.4,355.4,467.8,348.2,461.5,343.3z M293.8,54.3c6.7-3.2,14.2-4.7,21.5-5.9c10.7-1.9,21-4.1,31.2-8c12.6-4.8,24.9-10.3,38.5-11.7c9.3-1,20.3-2.9,29.3,0.6c10.9,4.2-4,14.8-8.7,18c-23.2,15.4-53.3,14.2-79.8,12.2c-12.3-0.9-24.4-1.4-36.6,1.2c-0.4,0.1-0.7,0.2-1.1,0.3C287.6,58.4,289.6,56.4,293.8,54.3z M136.8,322.1c-1.5-16,13.5-31.3,23.9-41.6c12.3-12.2,26.3-22.5,40.4-32.5c3.7-2.6,7.4-5.3,11.1-8c0.2,0.1,0.5,0.2,0.8,0.3c3.6,1.2,5.6,4.5,7.4,7.6c0.6,1,1.2,2,1.8,3c-0.2,0.1-0.3,0.3-0.5,0.4c-1.4,1.3-2,3.2-1.9,5c-0.6,0.7-1,1.5-1.2,2.5c-0.5,3.6,0.1,7,2.7,9.6c2,2.1,5.1,2.7,7.9,2.7c5.7-0.1,11.4-4.2,13-9.7c0.9-3,0-6.3-1.7-8.7c-1.9-2.7-4.3-4.3-7.3-4.8c-2.1-2.9-3.6-6.3-5.6-9.3c-1.6-2.4-3.6-4.3-5.8-5.9c6.2-4.8,12.2-9.8,17.9-15.1c0.5,0.5,1.1,0.9,1.9,1.1c0.5,0.2,0.9,0.3,1.4,0.3c5.2,3,10,6.1,14.4,9.9c-1.7,0.7-3.3,1.8-4.4,3.2c-1.9,2.3-1.8,5.8,0.5,7.8c0.7,0.6,1.4,1,2.1,1.3c-0.1,0.8,0,1.6,0.3,2.4c2.6,5.4,8,7.9,13.8,5.8c4.9-1.8,7.8-7.1,6.8-12.2c0.5-1.4,0.3-3-0.8-4.5c-7.5-10.2-16.7-17.2-27.4-23.4c1-1,2-2.1,3-3.2c3.7-4.1,7.1-8.3,10.1-12.7c0,0,0.1,0.1,0.1,0.1c1.2,2.1,3.5,2.8,5.5,2.4c7.3,2.2,14.7,4.6,21,8.9c-0.1,0.2-0.2,0.5-0.2,0.8c-0.7,2.9,1.5,5.9,4.3,6.4c0.2,0,0.5,0.1,0.7,0.1c-0.1,3,1.9,6.2,5.7,6c6.9-0.3,12.4-7,11.1-13.9c-0.5-2.6-1.8-4.3-4.4-5c-2.7-0.7-5.4-1.4-8.2-1.3c-8.5-6.8-18.8-10.1-29.2-13.2c-0.3-0.1-0.6-0.2-0.9-0.3c3.3-5.8,6-11.9,8.4-18.1c2.1,1.7,5.4,2.2,7.9,0c2.9-2.6,10.4-2,14-1.8c2.5,0.2,5.8,0.4,8.8,1.1c-0.8,2.3-0.3,4.8,1.5,6.3c-1.4,0.7-2.5,2.1-2.8,3.8c-0.6,2.9,1.4,6,4.3,6.4c4.6,0.8,9.5,0.6,12.9-3c2.7-2.8,2.7-7.2,1.4-10.6c-0.6-1.5-1.5-3-2.6-4.4c0.3-1.6-0.2-3.3-2-4.6c-6.1-4.7-14.6-5.7-22.1-6c-6.1-0.2-12.7,0.1-18.1,3c1.5-5.2,2.8-10.6,3.9-16.1c0.4-2,0.7-4,1-6c1.2,0.2,2.4-0.1,3.7-1.2c5.7-4.7,17.4-8.2,25.4-5.5c0,2,1.2,3.9,3,4.8c2.7,1.3,6,0.2,7.4-2.5c0.1-0.1,0.1-0.2,0.2-0.3c0.5-0.3,0.9-0.7,1.2-1.1c3.2-0.5,6.3-2.4,7.6-5.6c1.3-3.2-0.1-7.2-3.9-7.8c-2.7-0.4-5.1-0.1-7.3,0.9c-0.1,0-0.1,0-0.2,0c-1.4,0.1-2.6,0.8-3.5,1.7c-9.9-3.7-22.8-1.9-31.9,3.3c0.9-8,1.4-16.1,1.8-24.2c0.6,0,1.2,0,1.9-0.2c7.5-1.8,18-4.7,25.2-0.6c1.4,1.6,3.5,2.4,5.8,1.6c0.7-0.2,1.4-0.7,1.9-1.2c1.8,0.4,3.7,0.5,5.7,0.5c3.2,0,5.1-3.1,5.1-5.9c0-6-7.2-7.8-12.1-8c-2.1-0.1-3.9,0.5-5.3,1.5c-8.6-3-19.2-0.8-27.8,1.3c0.1-4.1,0.1-8.2,0.2-12.2c1.5-0.4,2.8-1.4,3.6-2.7c0.6,0,1.2,0,1.8-0.1c14.6-3.2,30-0.7,44.7,0.1c13.4,0.7,26.9,0.5,40.2-1.9c12.9-2.4,25.2-6.9,36-14.3c2.9-2,6-4.5,8.7-7.3c-3,15.8-3.8,32.1-4.1,48.2c-0.2,11.3,0,22.5,0,33.8c0.1,10.9,0.4,21.4,2.7,32c4.4,20.8,13.3,40.1,19.9,60.3c3.3,10.3,5.3,20.3,5.8,31.1c0.5,10-2.6,19-4.5,28.5c-2.3,1.5-3.6,4.5-2.6,6.8c-0.8-0.1-1.6,0-2.4,0.3c-0.2,0.1-0.4,0.2-0.6,0.3c-1.7,0.8-2.7,1.9-3.2,3.3c-50.3,27.3-106,41-162.5,48.4c-29.1,3.8-58.5,7.4-87.9,6.6C166.3,347,138.8,343.6,136.8,322.1z M432.7,305.3c-0.5,15.1-0.6,30.2-0.6,45.2c-5.1,2.6-10.2,5.2-15.4,7.7c-3.7-13.5-4.6-27.4-4.7-41.4c0-0.6-0.1-1.1-0.2-1.5C418.9,312.2,425.8,308.9,432.7,305.3z M406.6,362.8c-11,4.6-22.4,8.4-33.4,13.1c-28.6,12.4-56.5,25.5-87.2,32.2c-21.8,4.8-43.9,6.1-66,7.4c-0.1-19.2-1-38.4-1-57.6c0-0.1,0-0.2,0-0.2c17.7-1.2,35.3-3.5,52.8-5.8c29.4-3.8,58.5-9.3,87-17.3c14.3-4,28.4-8.9,42.2-14.6c0.2,14.3,1.5,28.3,5.3,42.1C406.4,362.3,406.5,362.6,406.6,362.8z M209.1,416.1c-4.7,0.3-9.5,0.6-14.2,1c-0.7,0.1-1.4,0.1-2.1,0.2c-0.1-0.4-0.3-0.7-0.6-1.1c0,0,0,0,0,0c0-0.1,0-0.1,0-0.1c-0.1-0.3-0.1-0.7-0.2-1c-0.4-2.2-0.7-4.4-0.9-6.6c-0.8-6.5-1.4-13.1-1.9-19.7c-0.5-6.7-0.9-13.4-1.1-20.1c-0.1-2.3-0.1-4.6,0-6.8c0,0.1,0.1-1.2,0.2-1.6c0.5-0.6,0.8-1.1,0.9-1.7c6.3,0.1,12.6,0,18.9-0.3c0,0.2,0,0.3,0,0.5C208.1,377.9,209,397,209.1,416.1z M460.5,362.9c-0.7,5.7-5.4,10.8-9.9,14c-9.1,6.5-21.1,8.3-31.8,10.4c-15,2.9-29.8,8-44.4,12.6c-15,4.7-29.8,9.7-44.6,14.7c-29.5,10-58.9,20.1-88.9,28.5c-25.8,7.2-52.6,13.9-79.4,15.6c-25,1.5-52.1-2.5-70-21.6c-10-10.7-14.9-25-12.9-39.5c1.3-9.7,5.4-18.7,10.9-26.8c2.3,17.3,9,34,23.4,44.9c22.2,16.7,53.3,14.9,79.5,12.9c30.3-2.4,60.6-2.8,90.6-8.5c30.7-5.9,58.8-18.1,87.2-30.6c15.1-6.7,30.8-12,45.9-18.6c13.3-5.8,25.6-13.5,39.3-18.3C458.5,355,461,358.4,460.5,362.9z"></path><path d="M421.3,218.8c-0.9-9.8-8.3-18.6-19-16c-5,1.2-8.4,4.7-11.1,8.9c-2-2.5-4.8-4.5-8.2-5.6c-7.5-2.4-15.4,1.2-19.5,7.6c-5.6,8.8-3.1,20.5-0.4,29.9c3.2,11.2,10.1,20.7,20.1,26.7c2.8,1.7,5.3,0.5,6.7-1.6c2,1.1,4.7,1.2,6.9-0.7c7-6.2,12.7-14.1,17.6-22C419.5,237.5,422.3,228.8,421.3,218.8z M410.4,226.2c-0.6,6.6-4.5,12.9-8.2,18.2c-3.9,5.8-8.5,11.5-13.8,16.2c-0.1-0.1-0.3-0.2-0.4-0.3c-6.3-3.8-10.5-9.6-13.2-16.4c-2.5-6.3-4.6-14.6-3.3-21.3c0.6-3.3,3.4-6.7,7.1-6.4c4.7,0.5,6.2,5.4,6.5,9.4c0.4,5.2,8.2,7.2,10.4,2c2-4.7,4.3-12.4,9.5-14.3C411,211.2,410.7,223.4,410.4,226.2z"></path></svg>