<svg xmlns="http://www.w3.org/2000/svg" x="0px" y="0px"
width="48" height="48"
viewBox="0 0 512 512"
style=" fill:#000000;"><path fill="#FEBF10" d="M313.1 375.2c0 0 0 .1 0 .1-.1.3-.1.6-.2.9.3-.2.5-.4.8-.5C313.6 375.5 313.3 375.4 313.1 375.2zM321.3 414.6c-3.4-10.7-7.5-21.1-9.7-32.1-4.8 19.6-14.4 38-22 56.6-3.3 8.1-7.7 18-6.8 26.9.7 7.2 8.5 9.4 14.7 10.1 7.3.8 15.4-.1 20.3-6.2 5.5-6.9 7.1-16.3 7.6-24.8C326 434.6 324.5 424.6 321.3 414.6zM295.2 361.7c1.5 3.3.3 7.3-4.3 9.6-6.2 3.2-12.9 5-19.7 6.6-11.5 2.7-23.1 6-34.1 10.2-7 2.7-14.2 5.6-20.4 9.8-3.8 2.6-7.9 6.3-7.8 11.4.1 10.6 7.7 20.6 14.9 27.7 4 3.9 9.1 8.2 15.1 7.6 4.8-.5 8.9-2.9 12.6-6 9.9-8.3 17.1-19.7 24.3-30.2 8.7-12.9 17.5-25.9 27.7-37.7.5-.6 1.1-1 1.7-1.3C301.9 366.8 298.5 364.3 295.2 361.7zM381.8 423c-.7-2.6-1.6-2.1.3-2.2-4.7.3-6.6-4.4-5.4-7.8-16.7-8.6-33.5-16.9-49.1-27.5-1.5-1-3-2.1-4.5-3.2 4.6 14.2 11.3 27.7 16.1 41.8 3.2 9.3 5.9 23.5 14.5 29.5 3.5 2.5 9.6-.5 12.8-2.4 4.9-3 9.6-6.7 13-11.4 2.4-3.3 2.9-5.9 2.8-10.2C382.3 427.5 382.4 425.1 381.8 423zM237.5 326.7c-7-3.8-17.3-8.4-25.3-5.1-6.7 2.7-8.9 10.9-9.7 17.4-.6 5.8-1.2 17 3.4 21.5 5.3 5.2 13.8 4.2 20.6 3.4 10.9-1.3 21.5-3.8 32.2-6 8.2-1.7 17.4-3.4 25.9-2.1C266.7 350.1 253.8 335.6 237.5 326.7z"></path><path fill="#F6851F" d="M407.1,427.3c-4.6-1.1-9.8-3.5-14.2-5.7c1.2,6.1,0.6,13.1-0.6,17.3c-3.6,12.6-19.6,24.5-32.2,26.4c-12.1,1.8-19.2-7.5-23.9-17.6c-0.2,2-0.4,3.9-0.7,5.9c-1.5,10-5,20.4-12.9,27.2c-7.2,6.1-17,7.4-26.1,6.4c-8.9-1-19-4.5-23-13.2c-4.2-9-0.7-20.5,2.3-29.3c4.8-14.4,11.8-28.1,17.6-42.2c-5.5,8-10.7,16.1-16.4,23.9c-6.7,9.2-14.3,19.7-24.5,25.3c-9.8,5.4-20.3,5.6-29.7-1c-9.2-6.4-17.6-17-22-27.4c-3.9-9.4-4.3-20.9,3.2-28.8c9.2-9.6,23.7-14.8,36.1-18.9c7.1-2.3,14.3-4.4,21.5-6.4c1.6-0.4,3.1-0.9,4.7-1.2c-1.7,0.3,0,0,0.3-0.1c0.7-0.2,1.4-0.3,2-0.5c-6.1,0.9-12.1,2.4-18.1,3.7c-10.3,2.3-21.4,4.7-32.1,4.5c-9.2-0.2-18.2-2.6-23.1-11.1c-4.4-7.8-4.8-18.8-3.7-27.5c1.1-8.6,4.5-18.3,12.1-23.2c8.7-5.6,19.9-4.5,29.2-1.1c2.2,0.8,4.4,1.7,6.4,2.8c-2.5-2-4.9-3.9-7.4-5.8c-8.4-6.3-15.2-15-24.4-20.1c-4.4,2.6-6.7,7.9-8.9,12.3c-3.5,7.2-6.8,14.5-9.5,22c-5.2,14.7-8.5,30.3-10.3,45.8c-3.2,27.5-0.9,57.8,15.1,81.3c23.5,34.4,67.6,51,108.2,50.1c21.4-0.5,43-5.5,61.4-16.9c19-11.7,32.8-28.6,41.8-48.7C403.7,432.7,404.1,428.6,407.1,427.3z"></path><path fill="#FEBF10" d="M472.1,160.7c-11-6.8-30.3-5.9-36.5,7.1c-3.1,6.4-12.9,1.5-9.9-4.9c1.7-3.5,4-6.4,6.8-8.8c-17.3-27.9-46.1-46.3-77-56.4c-31.6-10.3-65.7-15.8-98.9-15.3c-49.1,0.9-98.4,15.9-133.6,51.4c-20.2,20.3-36.9,43.5-49.7,69.1c-6.3,12.6-12.1,25.6-16.7,38.9c-3.8,11.2-9.2,21.9-12.9,33.1c2.8-1,5.7-1.7,8.6-2.1c7.1-0.9,7.8,10,0.8,11c-11,1.5-22.7,9.9-27.3,20.1c-3.6,7.9-2.1,17.5,7,20.2c5,1.5,10.3,2,15.6,2c1.1-0.6,2.4-0.8,3.9-0.1c3.2-0.2,6.5-0.6,9.6-1.1c6.9-1.2,17-3.2,21.7-8.1c4.9-5.1,13.2,2.1,8.3,7.3c-6.3,6.6-16.3,9.6-25.6,11.3c15.3,10.8,29.9,22.5,44.3,34.6c14.8,12.4,30.9,26.7,50.6,29.5c1.5-1.5,3.7-2.2,5.7-1.2c-0.9-16.1,0.8-32.5,4.1-48.2c3.1-14.8,7-29.2,13.1-43.1c4.7-10.6,9.9-24.6,21.8-28.8c1.6-0.6,3-0.4,4.2,0.2c0,0,0.1,0,0.1,0c10.5,5,17.1,14.1,26.2,20.8c10,7.3,19.2,15.5,28.7,23.4c19.3,16.2,38.6,32.5,59.1,47.1c1.5,1,2.9,2.1,4.4,3.1c6.8-4,14.6-5.7,22.1-7.7c9.4-2.5,17-6.4,24.5-12.7c8-6.7,15-14.4,22-22.1c6.9-7.5,14.3-14.5,20.9-22.2c14.2-16.6,23.8-35.6,31.3-56c3.8-10.3,6.7-20.7,10.1-31.1c0.9-2.7,1.8-5.4,2.3-8.2c0.3-1.8,0.4-3.7,1.3-5.3c0.1-0.5,0.1-0.9,0.2-1.4c0.1-0.7,0.1-1.3,0.1-2c0.1-1.8,1.2-3,2.5-3.7c0.5-0.5,1.2-1,2.1-1.3c7.5-2.8,9.9-13.9,10.6-20.9C479.2,171.6,478.4,164.5,472.1,160.7z M160.2,155.9c0.1,1.5-0.4,3-1.4,4.1c-0.9,1-2.3,1.9-3.7,1.9c-1.3,0-2.8,0-3.9-0.7c-1.3-0.8-1.2-0.7-2.2-1.9c-0.3-0.3-0.8-1.7-0.7-1.4c-0.4-1.1-0.4-1.9-0.2-3c0.3-1.6,1.3-3,2.4-4.1c1-1,2.2-1.7,3.7-1.9c1.5-0.1,2.9,0.4,4.1,1.4c1.4,1.3,2.1,3.4,1.8,5.3C160.1,155.6,160.2,155.7,160.2,155.9z M207.2,118.6c-0.1,1.3-0.4,2.4-1.3,3.4c-0.9,1.1-2.3,1.7-3.7,1.9c-1.5,0.1-3-0.4-4.1-1.4c-1-0.9-1.9-2.3-1.9-3.7c0-1,0-2.1,0.3-3.1c0.4-1.5,1-2.8,2.1-3.9c2.1-2.2,5.5-2.5,7.8-0.5C208.4,113,208.9,116.3,207.2,118.6z M229.2,101.7c-0.1-1.5,0.4-3,1.4-4.1c0.9-1,2.3-1.9,3.7-1.9h1c1.5,0,2.9,0.3,4.1,1.4c1.1,0.9,1.7,2.3,1.9,3.7c0.1,1.5-0.4,3-1.4,4.1c-0.9,1-2.3,1.9-3.7,1.9h-1c-1.5,0-2.9-0.3-4.1-1.4C230,104.5,229.3,103.2,229.2,101.7z M238.1,154.8c-7.1,0-7.9-11-0.8-11C244.3,143.8,245.2,154.8,238.1,154.8z M280.8,108.9c-0.9,1-2.3,1.9-3.7,1.9h-1c-1.5,0-2.9-0.3-4.1-1.4c-1.1-0.9-1.7-2.3-1.9-3.7c-0.1-1.5,0.4-3,1.4-4.1c0.9-1,2.3-1.9,3.7-1.9h1c1.5,0,2.9,0.3,4.1,1.4c1.1,0.9,1.7,2.3,1.9,3.7C282.3,106.4,281.8,107.8,280.8,108.9z M287.3,291.8c7.1,0,7.9,11,0.8,11C281.1,302.8,280.2,291.8,287.3,291.8z M291.1,336.8c-7.1,0-7.9-11-0.8-11C297.3,325.8,298.2,336.8,291.1,336.8z M321.8,146.9c-0.9,1-2.3,1.9-3.7,1.9h-1c-1.5,0-2.9-0.3-4.1-1.4c-1.1-0.9-1.7-2.3-1.9-3.7c-0.1-1.5,0.4-3,1.4-4.1c0.9-1,2.3-1.9,3.7-1.9h1c1.5,0,2.9,0.3,4.1,1.4c1.1,0.9,1.7,2.3,1.9,3.7C323.3,144.4,322.8,145.8,321.8,146.9z M336.6,107.7c0.9-1,2.3-1.9,3.7-1.9c0.7,0,1.4,0,2.1,0.1c1.1,0.2,2,0.7,2.8,1.4c1.3,1.1,2,2.9,2,4.6c0,1.5-0.3,2.9-1.4,4.1c-0.9,1.1-2.3,1.7-3.7,1.9c-1.5,0.1-3-0.4-4.1-1.4c-0.3-0.2-0.5-0.5-0.7-0.8c-0.1-0.1-0.2-0.1-0.3-0.2c-1.1-0.9-1.7-2.3-1.9-3.7C335.1,110.3,335.6,108.8,336.6,107.7z M337.6,352.7c-0.3,0.1-0.6,0.3-0.9,0.4c-0.8,0.4-1.7,0.6-2.6,0.6c-3,0.2-5.7-2-5.9-5.1c-0.2-2.8,1.8-5.4,4.6-5.9c0.3-0.1,0.6-0.3,0.9-0.4c0.8-0.4,1.7-0.6,2.6-0.6c3-0.2,5.7,2,5.9,5.1C342.4,349.7,340.4,352.3,337.6,352.7z M348.8,318.9c-0.9,1-2.3,1.9-3.7,1.9h-1c-1.5,0-2.9-0.3-4.1-1.4c-1.1-0.9-1.7-2.3-1.9-3.7c-0.1-1.5,0.4-3,1.4-4.1c0.9-1,2.3-1.9,3.7-1.9h1c1.5,0,2.9,0.3,4.1,1.4c1.1,0.9,1.7,2.3,1.9,3.7C350.3,316.4,349.8,317.8,348.8,318.9z M381.6,130.7c0.9-1,2.3-1.9,3.7-1.9c1,0,2,0,2.9,0.1c0.8,0.1,1.4,0.3,2.3,0.6c2.1,0.7,3.6,3.2,3.7,5.3c0.1,3-2,5.7-5.1,5.9c-1.3,0.1-2.6-0.3-3.6-1c-1.3-0.1-2.4-0.4-3.5-1.3c-1.1-0.9-1.7-2.3-1.9-3.7C380.1,133.3,380.6,131.8,381.6,130.7z M366.7,157.1c-1.1-0.6-1.5-1-2.3-2c-0.3-0.4-0.6-1.1-0.7-1.4c-0.4-0.9-0.5-2-0.5-3c0-1.5,0.3-2.9,1.4-4.1c0.9-1.1,2.3-1.7,3.7-1.9c1.5-0.1,2.9,0.4,4.1,1.4c0.8,0.7,1.5,1.7,1.7,2.8c0.6,0.8,1,1.9,1.1,2.9c0.1,1.5-0.4,3-1.4,4.1c-0.8,1-2.4,1.9-3.7,1.9C368.9,157.7,367.8,157.7,366.7,157.1z M375.1,310.4c-1.1-0.9-1.7-2.3-1.9-3.7c-0.1-1.5,0.4-3,1.4-4.1c0.9-1,2.3-1.9,3.7-1.9h1c1.5,0,2.9,0.3,4.1,1.4c1.1,0.9,1.7,2.3,1.9,3.7c0.1,1.5-0.4,3-1.4,4.1c-0.9,1-2.3,1.9-3.7,1.9h-1C377.6,311.8,376.3,311.5,375.1,310.4z M381.1,337.8c-7.1,0-7.9-11-0.8-11C387.3,326.8,388.2,337.8,381.1,337.8z M393.1,206.8c-7.1,0-7.9-11-0.8-11C399.3,195.8,400.2,206.8,393.1,206.8z M400.2,172.7v-1c0-1.5,0.3-2.9,1.4-4.1c0.9-1.1,2.3-1.7,3.7-1.9c1.5-0.1,2.9,0.4,4.1,1.4c1,0.9,1.9,2.3,1.9,3.7v1c0,1.5-0.3,2.9-1.4,4.1c-0.9,1.1-2.3,1.7-3.7,1.9c-1.5,0.1-3-0.4-4.1-1.4C401.1,175.6,400.2,174.1,400.2,172.7z M414.2,294.9c0,1.5-0.3,2.9-1.4,4.1c-0.9,1.1-2.3,1.7-3.7,1.9c-1.5,0.1-3-0.4-4.1-1.4c-1-0.9-1.9-2.3-1.9-3.7v-2c0-1.5,0.3-2.9,1.4-4.1c0.9-1.1,2.3-1.7,3.7-1.9c1.5-0.1,2.9,0.4,4.1,1.4c1,0.9,1.9,2.3,1.9,3.7V294.9z M423.3,193.8c7.1,0,7.9,11,0.8,11C417.1,204.8,416.2,193.8,423.3,193.8z M430.2,217.9v1c0,1.5-0.3,2.9-1.4,4.1c-0.9,1.1-2.3,1.7-3.7,1.9c-1.5,0.1-3-0.4-4.1-1.4c-1-0.9-1.9-2.3-1.9-3.7v-1c0-1.5,0.3-2.9,1.4-4.1c0.9-1.1,2.3-1.7,3.7-1.9c1.5-0.1,2.9,0.4,4.1,1.4C429.3,215.1,430.2,216.5,430.2,217.9z M427.8,273.9c-0.9,1.1-2.3,1.7-3.7,1.9c-1.5,0.1-3-0.4-4.1-1.4c-0.3-0.2-0.5-0.5-0.7-0.8c-0.1-0.1-0.2-0.1-0.3-0.2c-1.1-0.9-1.7-2.3-1.9-3.7c-0.1-1.5,0.4-3,1.4-4.1c0.9-1,2.3-1.9,3.7-1.9c0.7,0,1.4,0,2.1,0.1c1.1,0.2,2,0.7,2.8,1.4c1.3,1.1,2,2.9,2,4.6C429.2,271.4,428.9,272.8,427.8,273.9z M439.8,249.9c-0.9,1.1-2.3,1.7-3.7,1.9c-1.5,0.1-3-0.4-4.1-1.4c-0.3-0.2-0.5-0.5-0.7-0.8c-0.1-0.1-0.2-0.1-0.3-0.2c-1.1-0.9-1.7-2.3-1.9-3.7c-0.1-1.5,0.4-3,1.4-4.1c0.9-1,2.3-1.9,3.7-1.9c0.7,0,1.4,0,2.1,0.1c1.1,0.2,2,0.7,2.8,1.4c1.3,1.1,2,2.9,2,4.6C441.2,247.4,440.9,248.8,439.8,249.9z"></path><path d="M480.5,153.3c-10-8.6-25.9-10.1-38.5-5c-25.8-42.6-74.5-61.6-121.5-70.9c-47.7-9.4-98.7-9-144.4,8.9c-37.8,14.8-67.9,42.3-91,75.2c-12.4,17.6-22.6,36.7-31,56.4c-4.3,10.1-7.7,20.6-11.9,30.8c-4.5,10.9-9.4,21.7-11.9,33.3c-5.6,4.3-10.4,9.7-13.8,15.8c-6.6,11.9-4.2,27.7,8,34.6c7.2,4.1,16.3,5,25,4.6c20.4,13.2,39.4,28.5,57.7,44.4c17.2,15,37.2,28.9,60.8,29.3c1.2,9,3.3,17.8,6.4,26.3c14.5,40.1,55.7,64.3,95.7,72.1c27.4,5.3,56.6,3.3,82.5-7.4c30.2-12.4,53-36.8,64.9-67.1c1.2-3.1,0-6.1-2.6-7.3c1.7-0.6,2.9-1.7,3.6-3.7c1.9-5.5-4.7-9.9-8.2-7.3c-0.7-0.2-1.4-0.4-2.1-0.6c-3.1-1.1-6-2.4-9-3.8c-5.3-2.5-10.6-5.2-15.8-8c-9.1-4.8-18.5-9.1-27.6-14.1c-5.8-3.2-11.4-6.6-16.9-10.1c4.9-2,10.2-3.1,15.2-4.4c9.2-2.4,16.8-6.1,24.4-11.8c7.6-5.8,14.4-12.8,21-19.8c7-7.4,14.1-14.8,21.1-22.2c13.8-14.8,24.2-31.1,32.4-49.5c4.4-9.8,8-19.9,11.3-30.1c3.1-9.6,6.9-19.6,8.5-29.6c0.6-1.2,0.8-2.6,1-4c9.6-5.1,13.7-16.7,15.2-26.9C490.7,170.9,489,160.5,480.5,153.3z M392.3,438.8c1.2-4.2,1.8-11.2,0.6-17.3c4.4,2.3,9.6,4.6,14.2,5.7c-3,1.3-3.4,5.4-1.6,8.1c-9,20.1-22.9,37-41.8,48.7c-18.4,11.4-40,16.4-61.4,16.9c-40.6,0.9-84.7-15.7-108.2-50.1c-16.1-23.5-18.3-53.7-15.1-81.3c1.8-15.5,5.1-31.1,10.3-45.8c2.7-7.5,5.9-14.9,9.5-22c2.2-4.4,4.5-9.7,8.9-12.3c9.2,5.2,16,13.8,24.4,20.1c2.5,1.9,5,3.8,7.4,5.8c-2.1-1.1-4.2-2-6.4-2.8c-9.3-3.3-20.5-4.5-29.2,1.1c-7.6,5-10.9,14.7-12.1,23.2c-1.2,8.7-0.8,19.7,3.7,27.5c4.9,8.5,13.9,10.9,23.1,11.1c10.7,0.2,21.7-2.2,32.1-4.5c6-1.4,12-2.8,18.1-3.7c-0.7,0.2-1.4,0.3-2,0.5c-0.3,0.1-1.9,0.4-0.3,0.1c-1.6,0.3-3.1,0.8-4.7,1.2c-7.2,2-14.4,4-21.5,6.4c-12.4,4.1-26.9,9.3-36.1,18.9c-7.5,7.9-7.1,19.4-3.2,28.8c4.3,10.4,12.8,21,22,27.4c9.4,6.5,19.9,6.3,29.7,1c10.2-5.6,17.8-16,24.5-25.3c5.7-7.8,11-15.9,16.4-23.9c-5.8,14.1-12.7,27.8-17.6,42.2c-3,8.8-6.5,20.3-2.3,29.3c4,8.7,14.1,12.2,23,13.2c9.1,1,18.9-0.3,26.1-6.4c8-6.8,11.4-17.1,12.9-27.2c0.3-2,0.5-3.9,0.7-5.9c4.7,10.1,11.8,19.4,23.9,17.6C372.7,463.3,388.7,451.5,392.3,438.8z M295.2,361.7c3.3,2.6,6.7,5.2,10,7.7c-0.6,0.3-1.2,0.7-1.7,1.3c-10.2,11.9-19,24.8-27.7,37.7c-7.1,10.6-14.4,22-24.3,30.2c-3.6,3-7.8,5.5-12.6,6c-6,0.6-11.2-3.7-15.1-7.6c-7.2-7.2-14.9-17.1-14.9-27.7c0-5,4-8.8,7.8-11.4c6.3-4.2,13.4-7.1,20.4-9.8c11-4.2,22.6-7.5,34.1-10.2c6.7-1.6,13.5-3.4,19.7-6.6C295.5,369,296.7,365,295.2,361.7z M321.3,414.6c3.2,10,4.7,20,4,30.5c-0.5,8.6-2.1,18-7.6,24.8c-4.9,6.1-13,7-20.3,6.2c-6.2-0.7-14-2.9-14.7-10.1c-0.9-8.9,3.5-18.9,6.8-26.9c7.6-18.6,17.3-36.9,22-56.6C313.9,393.5,317.9,403.9,321.3,414.6z M312.9,376.2c0.1-0.3,0.1-0.6,0.2-0.9c0,0,0-0.1,0-0.1c0.2,0.2,0.4,0.3,0.6,0.5C313.5,375.8,313.2,376,312.9,376.2z M258.7,357.9c-10.7,2.3-21.3,4.7-32.2,6c-6.8,0.8-15.3,1.8-20.6-3.4c-4.6-4.5-4.1-15.7-3.4-21.5c0.7-6.5,3-14.7,9.7-17.4c8-3.3,18.4,1.3,25.3,5.1c16.3,8.9,29.3,23.4,47.2,29.1C276.1,354.5,267,356.2,258.7,357.9z M376.7,413c-1.2,3.3,0.7,8,5.4,7.8c-1.9,0.1-1.1-0.5-0.3,2.2c0.6,2.1,0.5,4.5,0.6,6.7c0.1,4.3-0.4,6.9-2.8,10.2c-3.4,4.7-8.1,8.4-13,11.4c-3.2,1.9-9.2,4.9-12.8,2.4c-8.6-6-11.3-20.2-14.5-29.5c-4.9-14.1-11.5-27.6-16.1-41.8c1.5,1.1,3,2.1,4.5,3.2C343.3,396.2,360,404.5,376.7,413z M478.5,178.2c-0.7,7-3.1,18-10.6,20.9c-0.9,0.3-1.5,0.8-2.1,1.3c-1.4,0.7-2.4,1.9-2.5,3.7c0,0.7-0.1,1.3-0.1,2c0,0.5-0.1,1-0.2,1.4c-0.9,1.6-0.9,3.5-1.3,5.3c-0.5,2.8-1.4,5.5-2.3,8.2c-3.3,10.4-6.3,20.9-10.1,31.1c-7.6,20.4-17.1,39.4-31.3,56c-6.6,7.7-14,14.7-20.9,22.2c-7,7.7-14.1,15.4-22,22.1c-7.5,6.3-15.1,10.2-24.5,12.7c-7.5,2-15.4,3.7-22.1,7.7c-1.5-1-2.9-2.1-4.4-3.1c-20.5-14.7-39.8-31-59.1-47.1c-9.5-7.9-18.7-16.1-28.7-23.4c-9.1-6.7-15.7-15.8-26.2-20.8c0,0-0.1,0-0.1,0c-1.1-0.6-2.6-0.8-4.2-0.2c-12,4.1-17.1,18.2-21.8,28.8c-6.1,13.9-10,28.3-13.1,43.1c-3.3,15.7-4.9,32-4.1,48.2c-2.1-1-4.3-0.3-5.7,1.2c-19.7-2.8-35.8-17.1-50.6-29.5c-14.4-12.1-29-23.9-44.3-34.6c9.2-1.6,19.2-4.7,25.6-11.3c4.9-5.1-3.4-12.4-8.3-7.3c-4.7,4.9-14.7,6.9-21.7,8.1c-3.2,0.5-6.4,0.9-9.6,1.1c-1.4-0.6-2.8-0.5-3.9,0.1c-5.3,0.1-10.5-0.5-15.6-2c-9.2-2.7-10.6-12.3-7-20.2c4.6-10.1,16.3-18.6,27.3-20.1c7-0.9,6.2-11.9-0.8-11c-2.9,0.4-5.8,1.1-8.6,2.1c3.7-11.2,9.1-21.9,12.9-33.1c4.6-13.3,10.3-26.3,16.7-38.9c12.9-25.6,29.5-48.8,49.7-69.1c35.3-35.5,84.6-50.5,133.6-51.4c33.2-0.6,67.3,5,98.9,15.3c30.9,10.1,59.8,28.4,77,56.4c-2.8,2.4-5.1,5.4-6.8,8.8c-3.1,6.4,6.8,11.3,9.9,4.9c6.2-13,25.5-13.8,36.5-7.1C478.4,164.5,479.2,171.6,478.5,178.2z"></path><path d="M374.1 149c-.3-1.1-.9-2.1-1.7-2.8-1.1-1-2.6-1.5-4.1-1.4-1.4.1-2.8.8-3.7 1.9-1 1.2-1.4 2.5-1.4 4.1 0 1 .1 2.1.5 3 .2.3.4 1 .7 1.4.8 1 1.2 1.3 2.3 2 1.1.7 2.2.6 3.4.7 1.3.1 2.9-.9 3.7-1.9 1-1.1 1.5-2.6 1.4-4.1C375.1 150.8 374.7 149.8 374.1 149zM390.5 129.5c-.9-.3-1.4-.5-2.3-.6-1-.1-2-.1-2.9-.1-1.4 0-2.8.9-3.7 1.9-1 1.1-1.5 2.6-1.4 4.1.1 1.4.8 2.8 1.9 3.7 1 .9 2.2 1.3 3.5 1.3 1 .7 2.3 1.1 3.6 1 3.1-.2 5.2-2.9 5.1-5.9C394.1 132.7 392.6 130.3 390.5 129.5zM321.3 139.2c-1.2-1-2.5-1.4-4.1-1.4h-1c-1.4 0-2.8.9-3.7 1.9-1 1.1-1.5 2.6-1.4 4.1.1 1.4.8 2.8 1.9 3.7 1.2 1 2.5 1.4 4.1 1.4h1c1.4 0 2.8-.9 3.7-1.9 1-1.1 1.5-2.6 1.4-4.1C323.1 141.5 322.4 140.1 321.3 139.2zM345.2 107.3c-.8-.7-1.7-1.2-2.8-1.4-.7-.1-1.4-.1-2.1-.1-1.4 0-2.8.9-3.7 1.9-1 1.1-1.5 2.6-1.4 4.1.1 1.4.8 2.8 1.9 3.7.1.1.2.1.3.2.2.3.5.6.7.8 1.1 1 2.6 1.5 4.1 1.4 1.4-.1 2.8-.8 3.7-1.9 1-1.2 1.4-2.5 1.4-4.1C347.2 110.2 346.5 108.4 345.2 107.3zM280.3 101.2c-1.2-1-2.5-1.4-4.1-1.4h-1c-1.4 0-2.8.9-3.7 1.9-1 1.1-1.5 2.6-1.4 4.1.1 1.4.8 2.8 1.9 3.7 1.2 1 2.5 1.4 4.1 1.4h1c1.4 0 2.8-.9 3.7-1.9 1-1.1 1.5-2.6 1.4-4.1C282.1 103.5 281.4 102.1 280.3 101.2zM336.3 341.8c-.9 0-1.8.3-2.6.6-.3.1-.6.3-.9.4-2.7.4-4.8 3.1-4.6 5.9.2 3 2.9 5.2 5.9 5.1.9 0 1.8-.3 2.6-.6.3-.1.6-.3.9-.4 2.7-.4 4.8-3.1 4.6-5.9C342 343.8 339.3 341.7 336.3 341.8zM380.3 326.8c-7.1 0-6.2 11 .8 11C388.2 337.8 387.3 326.8 380.3 326.8zM412.3 289.2c-1.1-1-2.6-1.5-4.1-1.4-1.4.1-2.8.8-3.7 1.9-1 1.2-1.4 2.5-1.4 4.1v2c0 1.4.9 2.8 1.9 3.7 1.1 1 2.6 1.5 4.1 1.4 1.4-.1 2.8-.8 3.7-1.9 1-1.2 1.4-2.5 1.4-4.1v-2C414.2 291.5 413.3 290.1 412.3 289.2zM439.2 241.3c-.8-.7-1.7-1.2-2.8-1.4-.7-.1-1.4-.1-2.1-.1-1.4 0-2.8.9-3.7 1.9-1 1.1-1.5 2.6-1.4 4.1.1 1.4.8 2.8 1.9 3.7.1.1.2.1.3.2.2.3.5.6.7.8 1.1 1 2.6 1.5 4.1 1.4 1.4-.1 2.8-.8 3.7-1.9 1-1.2 1.4-2.5 1.4-4.1C441.2 244.2 440.5 242.4 439.2 241.3zM428.3 214.2c-1.1-1-2.6-1.5-4.1-1.4-1.4.1-2.8.8-3.7 1.9-1 1.2-1.4 2.5-1.4 4.1v1c0 1.4.9 2.8 1.9 3.7 1.1 1 2.6 1.5 4.1 1.4 1.4-.1 2.8-.8 3.7-1.9 1-1.2 1.4-2.5 1.4-4.1v-1C430.2 216.5 429.3 215.1 428.3 214.2zM427.2 265.3c-.8-.7-1.7-1.2-2.8-1.4-.7-.1-1.4-.1-2.1-.1-1.4 0-2.8.9-3.7 1.9-1 1.1-1.5 2.6-1.4 4.1.1 1.4.8 2.8 1.9 3.7.1.1.2.1.3.2.2.3.5.6.7.8 1.1 1 2.6 1.5 4.1 1.4 1.4-.1 2.8-.8 3.7-1.9 1-1.2 1.4-2.5 1.4-4.1C429.2 268.2 428.5 266.4 427.2 265.3zM383.3 302.2c-1.2-1-2.5-1.4-4.1-1.4h-1c-1.4 0-2.8.9-3.7 1.9-1 1.1-1.5 2.6-1.4 4.1.1 1.4.8 2.8 1.9 3.7 1.2 1 2.5 1.4 4.1 1.4h1c1.4 0 2.8-.9 3.7-1.9 1-1.1 1.5-2.6 1.4-4.1C385.1 304.5 384.4 303.1 383.3 302.2zM348.3 311.2c-1.2-1-2.5-1.4-4.1-1.4h-1c-1.4 0-2.8.9-3.7 1.9-1 1.1-1.5 2.6-1.4 4.1.1 1.4.8 2.8 1.9 3.7 1.2 1 2.5 1.4 4.1 1.4h1c1.4 0 2.8-.9 3.7-1.9 1-1.1 1.5-2.6 1.4-4.1C350.1 313.5 349.4 312.1 348.3 311.2zM290.3 325.8c-7.1 0-6.2 11 .8 11C298.2 336.8 297.3 325.8 290.3 325.8zM287.3 291.8c-7.1 0-6.2 11 .8 11C295.2 302.8 294.3 291.8 287.3 291.8zM158.3 150.2c-1.1-1-2.6-1.5-4.1-1.4-1.5.1-2.7.8-3.7 1.9-1.1 1.1-2.2 2.5-2.4 4.1-.2 1.1-.1 2 .2 3-.1-.3.4 1 .7 1.4 1 1.2.8 1.1 2.2 1.9 1.1.7 2.6.7 3.9.7 1.4 0 2.8-.9 3.7-1.9 1-1.1 1.5-2.6 1.4-4.1 0-.1-.1-.3-.1-.4C160.5 153.6 159.8 151.4 158.3 150.2zM206.3 111.2c-2.3-2-5.7-1.7-7.8.5-1.1 1.1-1.7 2.4-2.1 3.9-.3 1-.3 2.1-.3 3.1 0 1.4.9 2.8 1.9 3.7 1.1 1 2.6 1.5 4.1 1.4 1.4-.1 2.8-.8 3.7-1.9.9-1 1.2-2.1 1.3-3.4C208.9 116.3 208.4 113 206.3 111.2zM239.3 97.2c-1.2-1-2.5-1.4-4.1-1.4h-1c-1.4 0-2.8.9-3.7 1.9-1 1.1-1.5 2.6-1.4 4.1.1 1.4.8 2.8 1.9 3.7 1.2 1 2.5 1.4 4.1 1.4h1c1.4 0 2.8-.9 3.7-1.9 1-1.1 1.5-2.6 1.4-4.1C241.1 99.5 240.4 98.1 239.3 97.2zM237.3 143.8c-7.1 0-6.2 11 .8 11C245.2 154.8 244.3 143.8 237.3 143.8zM392.3 195.8c-7.1 0-6.2 11 .8 11C400.2 206.8 399.3 195.8 392.3 195.8zM409.3 167.2c-1.1-1-2.6-1.5-4.1-1.4-1.4.1-2.8.8-3.7 1.9-1 1.2-1.4 2.5-1.4 4.1v1c0 1.4.9 2.8 1.9 3.7 1.1 1 2.6 1.5 4.1 1.4 1.4-.1 2.8-.8 3.7-1.9 1-1.2 1.4-2.5 1.4-4.1v-1C411.2 169.5 410.3 168.1 409.3 167.2zM423.3 193.8c-7.1 0-6.2 11 .8 11C431.2 204.8 430.3 193.8 423.3 193.8z"></path></svg>