<svg xmlns="http://www.w3.org/2000/svg" x="0px" y="0px"
width="48" height="48"
viewBox="0 0 512 512"
style=" fill:#000000;"><path fill="#3AB37C" d="M372.6,197.8c-14.5,3.3-27.1,13.8-40.8,19.6c5,4,10.1,7.8,15.4,11.3c7.9,5.3,16.3,10.1,25.1,14C369,228,372.4,212.8,372.6,197.8z"></path><path fill="#FEBF10" d="M421.8,265.2c-11.4,0.3-23.7-2.9-34.1-5.7c-16.2-4.4-31.2-11.5-45.2-20.8c-25.2-16.8-47.4-38.2-65.1-62.8c-1.2,4.6-1.8,9.3-2,14.1c2.7-0.2,5.3,1.4,5.2,4.9c-0.5,12.1,10.3,23.2,18.6,30.9c5.5,5.1,10.6,10.5,16.7,15c6.2,4.6,12.7,8.7,19.2,12.7c7.2,4.4,15.1,8.2,22.8,11.6c5.2,2.3,10.3,4.6,15.9,5.5c4.3,0.7,8.7,1.3,13.1,1.7c2.1,0.2,4.1,0.4,6.2,0.3c0.3,0,0.7,0,1,0c2.9-2.7,9-1.8,9.5,3.4c0.1,0.6,0,1.2,0,1.7C410.2,274.2,416.3,270.1,421.8,265.2z"></path><path fill="#127274" d="M334.8 169c-.3 12.1-3.2 24.2-2.9 36.3 11.7-5.5 22.6-13.4 34.8-17.3C355.7 182.4 345 176.1 334.8 169zM383.6 195.9c-.2 13.2-3.3 27.1-1.4 40.2 10.4-10.1 19.6-21.4 31.3-30.1C403.2 203.2 393.3 199.9 383.6 195.9zM299.5 138.6c-5.9 6.6-11.4 13.5-15.7 21.4-.6 1.2-1.2 2.3-1.8 3.5.2.2.4.5.6.8 2.2 3.2 4.4 6.3 6.8 9.4 1.3-.8 2.9-1.1 4.7-.4.2 0 .5-.1.9-.3 1.3-.7 2.6-1.5 3.8-2.4 3.3-2.3 6.4-4.9 9.6-7.2 3.3-2.4 6.9-4.7 10.8-6.1C312.3 151.4 305.7 145.2 299.5 138.6z"></path><path fill="#3AB37C" d="M377.3 282.3c-15.2-2.1-29-9-42.5-16.3-16.3-8.8-30.6-19.9-43.9-32.8-4-3.9-8.4-8.4-12.2-13.4 1.7 8.1 3.9 16.1 6.4 23.9 4.2 12.8 9.1 25.4 19.5 34.5 2.4 2.1 2.2 5 .8 7.1.1.6.1 1.3 0 2.1-6.1 29.8-17.8 57.9-27.3 86.7-8.2 24.8-15.6 50.3-29.5 72.7 0 3.5-3.7 7.2-8 5.5-5.2-2-19.3-.6-18.2 7.4 1.4 10.1 13.4 16.5 22.1 19.1 10 3 25.2 7.3 34.4 0 10.1-8-2.1-18.5-8.6-24.3-3.1-2.7-1.9-6.7.6-8.6.2-.4.5-.8.9-1.2 3.6-3.8 6.3-8.5 8.9-13.1 2.9-5 6.1-9.8 9-14.9 6.9-11.9 12.5-24.5 17.6-37.3 5.7-14.2 11.7-28.2 16.9-42.6 5-13.7 9.7-27.4 14.8-41 .5-1.4 1.4-2.3 2.4-2.7.8-1.3 2.1-2.2 4.2-2.3 14.6-.5 29.3-2.5 43.2-7.2C384.1 283.4 379.6 282.6 377.3 282.3zM323.8 167c-5.7 1.4-11.5 7.1-15.6 10.2-3.2 2.4-6.9 5.3-10.9 6.5 7.3 8.7 15.2 16.9 23.6 24.5C320.2 194.4 324.1 180.8 323.8 167zM423.9 245.2c-.9-3.9-1.8-7.9-2.5-11.9-1-5.7-2-11.4-3.4-17-11.8 9.2-21.3 21.1-32.2 31.3 1.3.4 2.7.8 4 1.1 6.6 1.7 13.4 3.1 20.1 4.2 4.2.7 8.7 1.4 13 1.2.4-1.4 1.3-2.7 2.5-3.5C424.9 248.8 424.3 247 423.9 245.2z"></path><path fill="#FEBF10" d="M434.3,125.9C422,111,404.7,101,385.7,97.8c-0.7,1.5-2.1,2.8-4.3,3c-5.1,0.7-8.9,1.7-5.9,6.8c3,5.1,7.3,9.4,12,13c14.6,11.2,35.9,14.9,54,15.2C439.4,132.4,437,129.1,434.3,125.9z"></path><path fill="#14B6B9" d="M446.8,145.7c-0.8,0.7-1.9,1.2-3.3,1.1c-23.5-0.2-51.3-5.3-68.6-22.6c-4.9-4.9-11.9-12.3-11.5-19.9c0.2-3.1,1.1-5.6,2.6-7.6c-6.2,0.4-12.4,1.4-18.2,3.3c-0.4,0.7-0.9,1.3-1.6,1.8c-9.6,7.1-6.8,20.3-1.9,29.5c5.9,10.9,13.7,19.1,25.2,24.1c14,6.1,29.4,8.2,44.4,10.1c9.3,1.2,26.8,6.2,32.2-4.6c1.2-2.3,3.3-3.2,5.3-2.9C450.2,153.8,448.6,149.7,446.8,145.7z"></path><path fill="#EF4823" d="M454,169c-8.7,12.1-25.5,9.4-39,7.7c-18.4-2.3-38.1-4.5-54.7-13.4c-16.7-8.9-35.2-33.6-31.4-53.6c-6.9,4.9-13.1,10.7-18.7,17c-1.1,1.3-2.3,2.5-3.4,3.7c19.7,21.1,43.5,37.7,69.5,50.2c14.4,6.9,29.2,12.3,44.7,16c6.5,1.6,12.7,2.7,19.4,3c4.7,0.2,9.7,0.3,14.1,2C456,190.7,455.9,179.7,454,169z"></path><path fill="#127274" d="M451.6,212.3c-4.9-2.6-11.7-1.8-17.1-2.1c-2.3-0.1-4.7-0.5-7-0.9c2.2,7.6,3.5,15.4,4.9,23.2c1,5.3,2.9,10.7,4.1,16.1c2.5-3.6,4.8-7.4,6.8-11.3c4-7.8,7.1-16.1,9.2-24.6C452.2,212.5,451.9,212.4,451.6,212.3z"></path><path d="M415.2,96.3c-20.1-11-44.2-13-66.3-8c-25.7,5.8-45.4,27.6-61.5,47.1c-8.5,10.3-16.1,21.9-20.2,34.7c-4.3,13.8-3.4,28.5-1,42.5c2.4,13.8,6,27.5,10.6,40.8c4,11.4,9.5,22.2,18.1,30.7c-0.1,0.3-0.3,0.7-0.3,1.1c-5.9,28.7-17,55.8-26.3,83.5c-8.2,24.6-15.5,49.9-29,72.1c-10.9-1.5-24.6,2.3-27.4,13.4c-4,15.7,12.8,29,25.7,33.6c15.1,5.4,35.1,9.7,48.9-1.1c14.4-11.3,5.4-26.3-4.7-36.7c6.4-7.5,10.9-17.1,16.1-25.4c7.6-12.2,13.4-25.5,18.8-38.7c11.4-27.9,21.5-56.1,32-84.3c23.9-1.1,48-6.6,68.5-19.2c21.9-13.5,36.5-36.6,44.3-60.7C476.4,175.4,459.1,120.2,415.2,96.3z M381.5,100.8c2.1-0.3,3.5-1.5,4.3-3c18.9,3.2,36.2,13.2,48.6,28.1c2.7,3.2,5,6.5,7.2,10c-18.1-0.3-39.3-4-54-15.2c-4.7-3.6-9-7.9-12-13C372.6,102.5,376.3,101.5,381.5,100.8z M346.1,101.9c0.7-0.5,1.3-1.2,1.6-1.8c5.9-1.9,12-2.9,18.2-3.3c-1.5,2-2.4,4.4-2.6,7.6c-0.4,7.6,6.6,15,11.5,19.9c17.3,17.2,45.1,22.4,68.6,22.6c1.4,0,2.5-0.4,3.3-1.1c1.8,4,3.4,8.1,4.6,12.3c-2-0.2-4.1,0.6-5.3,2.9c-5.4,10.8-22.9,5.8-32.2,4.6c-15.1-1.9-30.4-4-44.4-10.1c-11.5-5-19.4-13.2-25.2-24.1C339.3,122.2,336.5,109,346.1,101.9z M283.7,160c4.3-7.9,9.9-14.8,15.7-21.4c6.2,6.7,12.8,12.8,19.7,18.6c-3.8,1.4-7.5,3.8-10.8,6.1c-3.3,2.3-6.4,4.9-9.6,7.2c-1.2,0.9-2.5,1.7-3.8,2.4c-0.4,0.2-0.7,0.3-0.9,0.3c-1.8-0.7-3.4-0.4-4.7,0.4c-2.3-3.1-4.6-6.2-6.8-9.4c-0.2-0.3-0.4-0.6-0.6-0.8C282.5,162.3,283.1,161.2,283.7,160z M321,208.2c-8.4-7.6-16.3-15.8-23.6-24.5c4-1.2,7.8-4.2,10.9-6.5c4-3.1,9.8-8.7,15.6-10.2C324.1,180.8,320.2,194.4,321,208.2z M345.6,290.9c-2,0.1-3.4,1-4.2,2.3c-1,0.5-1.8,1.3-2.4,2.7c-5,13.6-9.8,27.3-14.8,41c-5.2,14.4-11.2,28.4-16.9,42.6c-5.1,12.8-10.7,25.3-17.6,37.3c-2.9,5-6.1,9.9-9,14.9c-2.7,4.5-5.3,9.2-8.9,13.1c-0.4,0.4-0.7,0.8-0.9,1.2c-2.5,1.9-3.7,5.8-0.6,8.6c6.5,5.8,18.7,16.4,8.6,24.3c-9.2,7.2-24.4,3-34.4,0c-8.7-2.6-20.7-9.1-22.1-19.1c-1.1-8,12.9-9.4,18.2-7.4c4.4,1.7,8-2.1,8-5.5c13.8-22.4,21.3-47.9,29.5-72.7c9.6-28.8,21.3-56.8,27.3-86.7c0.2-0.8,0.2-1.5,0-2.1c1.4-2.1,1.6-4.9-0.8-7.1c-10.4-9.1-15.3-21.7-19.5-34.5c-2.5-7.8-4.7-15.8-6.4-23.9c3.8,5,8.2,9.5,12.2,13.4c13.2,12.9,27.5,24,43.9,32.8c13.5,7.2,27.3,14.1,42.5,16.3c2.3,0.3,6.9,1.2,11.5,1.5C374.9,288.3,360.2,290.4,345.6,290.9z M403.5,277.6c0.1-0.5,0.1-1.1,0-1.7c-0.4-5.2-6.6-6.1-9.5-3.4c-0.3,0-0.7,0-1,0c-2.1,0.1-4.2-0.1-6.2-0.3c-4.4-0.4-8.7-1-13.1-1.7c-5.6-0.9-10.8-3.3-15.9-5.5c-7.8-3.4-15.6-7.1-22.8-11.6c-6.6-4-13.1-8.1-19.2-12.7c-6.1-4.5-11.2-9.8-16.7-15c-8.2-7.7-19-18.8-18.6-30.9c0.1-3.5-2.5-5-5.2-4.9c0.2-4.8,0.8-9.5,2-14.1c17.8,24.6,39.9,46,65.1,62.8c14,9.3,28.9,16.4,45.2,20.8c10.4,2.8,22.6,6,34.1,5.7C416.3,270.1,410.2,274.2,403.5,277.6z M372.6,197.8c-0.3,15-3.6,30.2-0.3,44.9c-8.8-3.8-17.2-8.6-25.1-14c-5.3-3.6-10.4-7.4-15.4-11.3C345.5,211.6,358.1,201.1,372.6,197.8z M334.8,169c10.2,7.1,20.9,13.4,31.9,19.1c-12.3,3.9-23.1,11.7-34.8,17.3C331.6,193.2,334.5,181.2,334.8,169z M383.6,195.9c9.7,4,19.6,7.4,29.9,10.1c-11.7,8.6-20.9,19.9-31.3,30.1C380.3,222.9,383.4,209.1,383.6,195.9z M422.9,254.2c-4.4,0.2-8.8-0.5-13-1.2c-6.7-1.1-13.5-2.6-20.1-4.2c-1.3-0.3-2.7-0.7-4-1.1c10.9-10.2,20.4-22.1,32.2-31.3c1.4,5.6,2.4,11.3,3.4,17c0.7,4,1.5,7.9,2.5,11.9c0.4,1.8,1,3.6,1.5,5.4C424.2,251.4,423.3,252.7,422.9,254.2z M443.3,237.3c-2,4-4.3,7.7-6.8,11.3c-1.2-5.4-3.1-10.8-4.1-16.1c-1.4-7.8-2.7-15.6-4.9-23.2c2.3,0.4,4.7,0.7,7,0.9c5.4,0.3,12.2-0.5,17.1,2.1c0.3,0.1,0.6,0.3,0.8,0.4C450.4,221.2,447.3,229.5,443.3,237.3z M454.5,201.6c-4.4-1.7-9.4-1.8-14.1-2c-6.7-0.3-12.9-1.4-19.4-3c-15.6-3.7-30.3-9-44.7-16c-26-12.5-49.8-29-69.5-50.2c1.1-1.2,2.3-2.5,3.4-3.7c5.6-6.3,11.8-12.1,18.7-17c-3.8,20,14.7,44.7,31.4,53.6c16.7,8.9,36.3,11.1,54.7,13.4c13.5,1.7,30.2,4.4,39-7.7C455.9,179.7,456,190.7,454.5,201.6z"></path><g><path fill="#3AB37C" d="M148.2,141.4c-11.3,9.7-17.7,24.8-27.1,36.3c6.3,1.2,12.6,2.2,18.9,2.9c9.5,1.1,19.1,1.4,28.7,0.8C159,169.9,154.9,154.8,148.2,141.4z"></path><path fill="#FEBF10" d="M190.2,189.1c-16.4,3.7-33,4.3-49.6,2.5c-30.1-3.2-59.7-11.9-86.8-25.4c1.1,4.6,2.7,9.1,4.7,13.4c2.3-1.4,5.3-1.2,6.8,1.9c5.2,10.9,19.9,15.8,30.8,18.8c7.2,2,14.2,4.4,21.7,5.5c7.6,1.2,15.3,1.8,22.9,2.3c8.5,0.6,17.2,0.3,25.6-0.3c5.6-0.4,11.3-0.7,16.7-2.5c4.2-1.4,8.3-2.8,12.4-4.5c1.9-0.8,3.8-1.6,5.6-2.6c0.3-0.2,0.6-0.3,0.9-0.5c1.3-3.8,7.1-5.8,10-1.4c0.3,0.5,0.6,1,0.8,1.5c4.4-6.1,7.8-12.6,10.4-19.5C213,184,200.7,186.8,190.2,189.1z"></path><path fill="#127274" d="M101.4 133.4c5.4 10.9 8.4 22.9 14.3 33.5 7.8-10.3 13.8-22.3 22.9-31.4C126.1 135.7 113.7 135 101.4 133.4zM157.1 134.6c5.9 11.8 9.6 25.5 17.4 36.2 4.5-13.8 7.4-28.1 13.8-41.1C177.9 132 167.5 133.7 157.1 134.6zM56 122.8c-2.1 8.6-3.9 17.3-4 26.3 0 1.3 0 2.6 0 3.9.3.1.6.2.9.4 3.4 1.8 6.9 3.5 10.3 5.2.8-1.3 2.1-2.3 3.9-2.6.2-.1.4-.3.7-.7.8-1.3 1.6-2.6 2.3-3.9 1.8-3.6 3.4-7.3 5.2-10.8 1.9-3.6 4-7.4 6.7-10.4C73.3 128.3 64.6 125.8 56 122.8z"></path><path fill="#3AB37C" d="M176.6 416.3c-4-1-4.8-5-3.4-7.9 0-.5.1-1 .2-1.5 1.4-5.1 1.6-10.5 1.9-15.7.3-5.8.9-11.6 1.1-17.3.6-13.8-.3-27.5-1.7-41.2-1.5-15.2-2.7-30.4-4.8-45.6-1.9-14.4-4.1-28.8-5.9-43.2-.2-1.5.2-2.7.8-3.5.1-1.5.9-3 2.6-4 12.7-7.2 24.8-15.8 35-26.4-4.3 1.9-8.7 3.3-10.9 4.1-14.5 5.2-29.9 5.5-45.2 5.3-18.5-.2-36.4-3.4-54-8.7-5.4-1.6-11.3-3.6-17-6.2 5.3 6.4 10.9 12.5 16.8 18.2 9.6 9.4 19.8 18.3 33.3 21.6 3.1.8 4.3 3.4 4 5.9.4.5.7 1.1.9 1.9 8.4 29.3 11 59.5 15.9 89.5 4.2 25.8 9.4 51.8 7.5 78.1 1.6 3.1.1 8.1-4.5 8.6-5.6.6-17.4 8.4-12.7 14.9 5.9 8.3 19.5 8.4 28.5 6.7 10.2-1.9 25.7-5.2 30.5-15.9C200.7 422.1 185 418.4 176.6 416.3zM90.7 136.7c-4.4 3.9-6.9 11.6-9.1 16.2-1.7 3.6-3.7 7.9-6.6 10.9 10.5 4.3 21.3 7.9 32.3 10.7C100.2 162.7 97.3 148.8 90.7 136.7zM219.5 163.8c-1.3-1.4-2.6-2.7-3.9-4.1-2.7-3-5.2-6.2-7.7-9.4-3.6-4.6-7.1-9.2-10.9-13.5-6.2 13.6-9.1 28.5-14 42.6 1.4-.3 2.7-.6 4.1-.9 6.6-1.6 13.3-3.4 19.8-5.6 4.1-1.3 8.3-2.8 12.1-5C218.6 166.6 218.8 165.1 219.5 163.8z"></path><path fill="#FEBF10" d="M169.6,49.1c-17.9-7.4-37.8-8.3-56.1-2.4c0.1,1.7-0.6,3.4-2.4,4.7c-4.2,3-7.1,5.6-2.1,8.8c5,3.2,10.8,5,16.6,6c18.2,3.1,38.7-3.4,54.9-11.6C177.1,52.6,173.5,50.7,169.6,49.1z"></path><path fill="#14B6B9" d="M189.9,60.9c-0.4,1-1.1,1.9-2.4,2.6c-20.9,10.8-47.9,19-71.2,11.8c-6.6-2.1-16.2-5.4-19.4-12.3c-1.3-2.8-1.6-5.5-1.2-7.9c-5.3,3.2-10.3,7-14.6,11.4c0,0.8-0.2,1.5-0.6,2.4c-5.2,10.8,3.4,21.1,12,27c10.3,7,21.1,10.6,33.5,9.7c15.3-1.1,29.8-6.4,44-11.7c8.8-3.3,26.6-6.9,26.4-19c0-2.6,1.5-4.3,3.3-5C196.6,66.5,193.3,63.6,189.9,60.9z"></path><path fill="#EF4823" d="M207.1,78.2c-2.1,14.8-18.2,20.1-31,24.9c-17.4,6.5-35.8,13.6-54.7,13.4c-18.9-0.2-46.7-13.5-52.6-33c-3.9,7.5-6.6,15.6-8.7,23.7c-0.4,1.6-0.8,3.3-1.3,4.9c27.3,9.6,56,13.2,84.8,12.3c16-0.5,31.5-2.6,47-6.6c6.5-1.6,12.5-3.5,18.6-6.3c4.3-2,8.7-4.2,13.4-4.7C218.9,96.5,213.7,86.8,207.1,78.2z"></path><path fill="#127274" d="M225.8,117.6c-0.3,0-0.6,0.1-0.9,0.1c-5.6,0-11.2,3.9-16.2,6.1c-2.1,1-4.4,1.8-6.6,2.5c5.5,5.7,10.2,12.1,15.1,18.3c3.3,4.3,7.6,8.2,11.1,12.4c0.5-4.3,0.8-8.7,0.8-13.2C229.1,134.9,228,126.1,225.8,117.6z"></path><path d="M227,195.9c13.2-22.1,15.4-49.3,11.1-74.3c-8.3-48.1-49.2-89-99.1-89.8c-22.9-0.4-45.2,8.9-62.5,23.6c-20,17.1-27.4,45.5-32.7,70.2c-2.8,13.1-4.1,26.9-1.8,40.1c2.5,14.2,10.1,26.8,18.8,38.2c8.5,11.2,18.1,21.6,28.3,31.2c8.8,8.3,18.7,15.3,30.3,18.8c0,0.4,0.1,0.7,0.2,1.1c8.1,28.2,10.8,57.3,15.4,86.1c4.1,25.6,9.4,51.4,7.7,77.4c-10.3,3.7-20.7,13.5-18.1,24.6c3.7,15.8,24.8,19.8,38.4,17.9c15.9-2.2,35.6-7.6,42.8-23.6c7.5-16.7-7.4-25.8-21.1-30.3c2.2-9.6,1.8-20.2,2.5-30c1-14.3,0.1-28.8-1.3-43c-2.8-30-6.9-59.7-10.7-89.5C195.8,232.6,214.6,216.6,227,195.9z M225.8,117.6c2.1,8.5,3.2,17.3,3.3,26.1c0,4.4-0.2,8.8-0.8,13.2c-3.6-4.2-7.8-8.1-11.1-12.4c-4.9-6.2-9.6-12.6-15.1-18.3c2.3-0.7,4.5-1.5,6.6-2.5c4.9-2.2,10.6-6.1,16.2-6.1C225.3,117.7,225.6,117.7,225.8,117.6z M218.9,168.1c-3.8,2.2-8,3.6-12.1,5c-6.5,2.1-13.1,4-19.8,5.6c-1.4,0.3-2.7,0.6-4.1,0.9c4.9-14.1,7.8-29.1,14-42.6c3.8,4.3,7.3,8.9,10.9,13.5c2.5,3.2,5,6.3,7.7,9.4c1.2,1.4,2.6,2.7,3.9,4.1C218.8,165.1,218.6,166.6,218.9,168.1z M101.4,133.4c12.3,1.6,24.7,2.2,37.1,2.1c-9.1,9.1-15.1,21.1-22.9,31.4C109.8,156.4,106.8,144.3,101.4,133.4z M107.3,174.5c-11-2.8-21.8-6.4-32.3-10.7c3-2.9,4.9-7.3,6.6-10.9c2.2-4.6,4.7-12.3,9.1-16.2C97.3,148.8,100.2,162.7,107.3,174.5z M148.2,141.4c6.7,13.4,10.8,28.5,20.5,40c-9.6,0.7-19.2,0.3-28.7-0.8c-6.3-0.7-12.6-1.7-18.9-2.9C130.6,166.2,136.9,151.1,148.2,141.4z M157.1,134.6c10.5-0.9,20.8-2.6,31.1-4.9c-6.3,13.1-9.3,27.4-13.8,41.1C166.7,160.1,163,146.5,157.1,134.6z M111.2,51.4c1.8-1.2,2.4-3,2.4-4.7c18.3-5.9,38.2-5,56.1,2.4c3.8,1.6,7.5,3.4,11,5.5c-16.2,8.2-36.7,14.7-54.9,11.6c-5.8-1-11.6-2.8-16.6-6C104.1,57,106.9,54.4,111.2,51.4z M80.4,68.7c0.4-0.8,0.6-1.6,0.6-2.4c4.3-4.4,9.3-8.2,14.6-11.4c-0.4,2.4-0.1,5.1,1.2,7.9c3.2,6.9,12.8,10.3,19.4,12.3c23.3,7.2,50.3-1,71.2-11.8c1.3-0.7,2-1.6,2.4-2.6c3.5,2.7,6.7,5.6,9.8,8.8c-1.9,0.7-3.4,2.4-3.3,5c0.2,12.1-17.6,15.8-26.4,19c-14.2,5.3-28.8,10.5-44,11.7c-12.5,0.9-23.3-2.7-33.5-9.7C83.7,89.9,75.1,79.5,80.4,68.7z M60,107.3c2.1-8.2,4.9-16.2,8.7-23.7c5.9,19.5,33.7,32.8,52.6,33c18.9,0.2,37.3-6.9,54.7-13.4c12.7-4.8,28.8-10.1,31-24.9c6.6,8.6,11.8,18.3,15.5,28.6c-4.7,0.5-9.2,2.8-13.4,4.7c-6.1,2.8-12.1,4.7-18.6,6.3c-15.5,3.9-31.1,6-47,6.6c-28.8,1-57.5-2.7-84.8-12.3C59.2,110.5,59.6,108.9,60,107.3z M52,153c0-1.3-0.1-2.6,0-3.9c0.2-9,1.9-17.7,4-26.3c8.6,3,17.3,5.5,26.1,7.4c-2.7,3.1-4.9,6.8-6.7,10.4c-1.8,3.6-3.4,7.3-5.2,10.8c-0.7,1.3-1.4,2.7-2.3,3.9c-0.3,0.4-0.5,0.6-0.7,0.7c-1.9,0.2-3.2,1.2-3.9,2.6c-3.5-1.7-6.9-3.4-10.3-5.2C52.6,153.2,52.3,153.1,52,153z M167.4,236.4c-1.7,1-2.5,2.5-2.6,4c-0.7,0.9-1,2-0.8,3.5c1.9,14.4,4,28.8,5.9,43.2c2,15.2,3.2,30.4,4.8,45.6c1.4,13.7,2.2,27.4,1.7,41.2c-0.2,5.8-0.8,11.6-1.1,17.3c-0.3,5.3-0.4,10.6-1.9,15.7c-0.1,0.5-0.2,1-0.2,1.5c-1.4,2.9-0.6,6.9,3.4,7.9c8.4,2.1,24.1,5.9,18.8,17.6c-4.8,10.7-20.3,14-30.5,15.9c-9,1.7-22.6,1.6-28.5-6.7c-4.7-6.6,7.1-14.3,12.7-14.9c4.6-0.5,6.1-5.5,4.5-8.6c1.9-26.2-3.3-52.3-7.5-78.1c-4.9-29.9-7.5-60.2-15.9-89.5c-0.2-0.8-0.5-1.4-0.9-1.9c0.3-2.5-0.9-5.1-4-5.9c-13.4-3.2-23.6-12.1-33.3-21.6c-5.9-5.7-11.5-11.8-16.8-18.2c5.6,2.7,11.6,4.6,17,6.2c17.7,5.3,35.5,8.5,54,8.7c15.3,0.2,30.7-0.1,45.2-5.3c2.2-0.8,6.6-2.1,10.9-4.1C192.2,220.6,180.1,229.2,167.4,236.4z M201.9,197.8c-0.3,0.2-0.6,0.3-0.9,0.5c-1.8,1-3.7,1.9-5.6,2.6c-4.1,1.7-8.2,3.1-12.4,4.5c-5.4,1.8-11,2.1-16.7,2.5c-8.4,0.6-17.2,0.9-25.6,0.3c-7.7-0.5-15.3-1.2-22.9-2.3c-7.4-1.2-14.5-3.5-21.7-5.5c-10.8-3-25.6-7.9-30.8-18.8c-1.5-3.2-4.5-3.3-6.8-1.9c-2.1-4.4-3.7-8.8-4.7-13.4c27.1,13.5,56.7,22.2,86.8,25.4c16.7,1.8,33.3,1.2,49.6-2.5c10.5-2.3,22.9-5.1,32.8-10.7c-2.6,6.8-6.1,13.4-10.4,19.5c-0.2-0.5-0.4-1-0.8-1.5C209,191.9,203.2,194,201.9,197.8z"></path></g></svg>