<svg xmlns="http://www.w3.org/2000/svg"  viewBox="0 0 512 512" width="48px" height="48px"><path fill="#D6E5E5" d="M296.8,402.8c-3.1,9.5-8.5,18-17.9,22.2c-9.8,4.4-21.2,3.4-31.4,1.1c-10.7-2.5-21-7-28.4-15.3c-7.3-8.3-10.5-18.9-10.7-29.9c0-0.2,0-0.3,0-0.5c-3.9-0.8-7.9-1.4-11.8-2.1c-4,16.2-11.5,35.3,3.6,46.7c11.8,8.9,28.8,10.4,43,12.6c14.4,2.2,30.6,4.5,44.9,0.2c14.5-4.4,21.1-15.1,22.4-29.8c0-0.5,0.1-0.9,0.2-1.2C306.2,405.4,301.5,404.1,296.8,402.8z"/><path fill="#BCBCBC" d="M422.5 231c-2.4-29.5-5.6-59.7-14.2-88.1-4.2-14.2-9.5-28.2-16.4-41.3-3.6-6.7-7.3-20.6-15.2-24.1-11.6 3.8-22.5 9.3-33.3 15-11.9 6.3-23.9 11.9-36.3 17-12.9 5.4-25.8 11.1-38.5 16.9-6.3 2.9-12.6 5.8-18.9 8.8-6.2 2.9-12.4 6.5-18.8 8.9-25.4 9.4-50 20.6-74.3 32.7-21.9 10.9-46 17.6-66.6 31 .9 1.1 1.7 2.3 2.4 3.6 6.4 10.9 7.1 23.1 8.3 35.4 2.4 25.8 4.4 52 2.3 77.9-.6 6.8-1.2 14.7-3.4 21.8 25.4.6 48.7 9.7 73 15.7 5.2 1.3 10.5 2.3 15.7 3.3.9-1.5 2.6-2.6 4.3-2.6h3c3.3 0 5.2 2.3 5.6 4.9 3.2.6 6.5 1.2 9.7 1.8 12.9 2.5 25.7 5.7 38.6 8.4 26.1 5.6 51 15.3 77 21.3 24.3 5.6 49.3 8.4 72.9 16.7 1.2.4 1.9 1.2 2.4 2.1 2.1-3.7 4.2-7.5 6-11.3 12.5-26.2 14.5-55.1 15.9-83.7C425.3 292.4 425 261.6 422.5 231zM54.2 297.9c-2.1-15.2-3.4-30.6-5.6-45.8-1.6-11-3.4-22-5.4-32.9-.4 1.7-.7 3.4-1 5.1-1.3 7.6-1 14.8-.2 22.4 1.4 14 3.6 27.8 4.2 41.8.5 11.8 1.1 23.7 3.3 35.2 1 5.1 2.3 11.6 5.3 16.6C52.3 326.8 56.1 311.4 54.2 297.9z"/><path fill="#D6E5E5" d="M91.7,274.4c-0.7-12-1.9-24-3-36c-0.8-8.5-2.3-17.3-7.8-24c-5.9-7.3-20.5-14.4-27-3.9c-0.3,0.5-0.7,0.9-1.1,1.3c3.4,18.1,6.3,36.3,8.7,54.6c2.1,16.1,4.5,32.1,3.7,48.3c-0.5,10.4-3,27.3,5.7,35.3c2.8,2.6,5.7,4.3,9,4.7c0.1,0,1.1,0,1.3-0.1c0.1,0,0.2,0,0.3,0c0.1,0,0.2-0.1,0.5-0.2c-0.5,0.2,1.9-1.3,1.4-0.8c2.9-2.9,4.5-7.1,5.7-11.5c1.7-6.6,2.5-13.4,3-20.2C93.3,306,92.7,290.1,91.7,274.4z"/><path d="M435.2 259.6c-1.1-30.1-4-60.3-9.3-90-2.5-14.3-6.2-28.5-11-42.3-2.3-6.7-5-13.3-7.9-19.7-2.8-6.3-6.4-12.2-9.1-18.5-3.5-8.4-8.5-18-17.1-21.9-1-.9-2.4-1.4-3.9-1.3-2-.4-3.5.2-4.6 1.3-11.1 3.7-21.5 8.9-31.8 14.4-12.2 6.4-24.3 12.2-37 17.5-13 5.4-25.8 11.1-38.5 16.9-13.1 6-26 13.4-39.5 18.4-25.4 9.4-49.9 20.8-74.2 32.8-22.3 11.1-46.8 17.9-67.8 31.6-.7.4-1.2.9-1.5 1.5-10.4-7.1-24.2-8.7-33.5-.1-3.1-1.5-7.3-.2-7.8 4-2.1.6-4 2.1-5.3 4.4-3.1 5.4-3.7 12.2-4.7 18.3-1.6 10.1.3 21.1 1.6 31.2 1.1 8.5 2.3 16.9 2.8 25.4.7 14.1 1.1 28.2 3.8 42 2.2 11.5 6.4 26.2 18.4 31.2 1.9.8 3.7.5 5.1-.4 7.8 8.9 21.9 12.9 30.6 3.1.9-1.1 1.8-2.2 2.6-3.4.9.8 2.1 1.3 3.6 1.3 24.7.2 47.9 9.5 71.6 15.6 5.1 1.3 10.3 2.4 15.5 3.3-2 8.8-5 17.4-5.6 26.5-.7 10.7 2.6 20.5 10.1 28.1 12.4 12.5 33.1 14.5 49.6 17.2 17.3 2.8 35.8 4.8 52.8-.3 17.4-5.2 27.1-20.2 28.5-37.8 0-.2 0-.4 0-.6 22.7 5.6 46.3 7.9 68.6 15 1 1.2 2.5 2.1 4.4 2.1h2.9c-.9 5.1 7.3 8.3 10.6 3 7.2-11.8 13.2-24 17.5-37.1 4.5-13.5 6-27.6 7.3-41.8C435.6 320.4 436.2 289.9 435.2 259.6zM49.5 323.8c-2.3-11.6-2.8-23.5-3.3-35.2-.6-14-2.8-27.8-4.2-41.8-.8-7.7-1-14.9.2-22.4.3-1.7.6-3.4 1-5.1 2 10.9 3.8 21.9 5.4 32.9 2.2 15.2 3.5 30.6 5.6 45.8 1.9 13.5-1.9 28.8.6 42.4C51.8 335.4 50.4 328.8 49.5 323.8zM92.2 321.7c-.5 6.8-1.3 13.6-3 20.2-1.1 4.4-2.8 8.7-5.7 11.5.5-.5-2 1.1-1.4.8-.3.1-.4.2-.5.2 0 0-.1 0-.3 0-.2 0-1.2 0-1.3.1-3.3-.3-6.2-2.1-9-4.7-8.6-8-6.1-24.9-5.7-35.3.7-16.2-1.7-32.2-3.7-48.3-2.4-18.3-5.2-36.5-8.7-54.6.4-.4.7-.8 1.1-1.3 6.5-10.5 21.1-3.4 27 3.9 5.5 6.8 7.1 15.6 7.8 24 1.1 12 2.2 24 3 36C92.7 290.1 93.3 306 92.2 321.7zM310.6 407.9c-1.2 14.7-7.9 25.5-22.4 29.8-14.3 4.3-30.5 2-44.9-.2-14.2-2.2-31.2-3.7-43-12.6-15.1-11.4-7.6-30.5-3.6-46.7 4 .7 7.9 1.4 11.8 2.1 0 .2 0 .3 0 .5.1 10.9 3.3 21.6 10.7 29.9 7.4 8.3 17.7 12.9 28.4 15.3 10.2 2.4 21.6 3.3 31.4-1.1 9.5-4.2 14.8-12.8 17.9-22.2 4.7 1.3 9.3 2.7 14 3.9C310.7 407.1 310.6 407.5 310.6 407.9zM219.9 385.9c1.7-.3 2.8-1.2 3.4-2.5 8.1 1.7 16.1 3.5 24.1 5.5 13.1 3.2 26 7.1 38.9 10.8-2.2 6.8-6.1 13-13 15.7-7.9 3.1-17.1 1.4-25.1-.5-8-1.9-15.4-5.6-21.1-11.6C222.7 398.6 220.6 392.3 219.9 385.9zM423.8 323.1c-1.4 28.6-3.4 57.5-15.9 83.7-1.8 3.9-3.9 7.6-6 11.3-.5-.9-1.3-1.7-2.4-2.1-23.7-8.3-48.6-11.1-72.9-16.7-26-6-50.9-15.7-77-21.3-12.9-2.8-25.7-5.9-38.6-8.4-3.2-.6-6.5-1.2-9.7-1.8-.4-2.5-2.4-4.9-5.6-4.9h-3c-1.6 0-3.3 1.1-4.3 2.6-5.3-1-10.5-2-15.7-3.3-24.4-6-47.7-15.1-73-15.7 2.1-7.2 2.8-15.1 3.4-21.8 2.1-25.9.1-52.1-2.3-77.9-1.1-12.3-1.9-24.4-8.3-35.4-.7-1.2-1.5-2.4-2.4-3.6 20.6-13.4 44.7-20.2 66.6-31 24.3-12 48.9-23.3 74.3-32.7 6.4-2.4 12.6-6 18.8-8.9 6.3-3 12.6-5.9 18.9-8.8 12.7-5.9 25.6-11.5 38.5-16.9 12.4-5.2 24.4-10.8 36.3-17 10.8-5.7 21.7-11.3 33.3-15 7.9 3.5 11.6 17.4 15.2 24.1 7 13.1 12.2 27.1 16.4 41.3 8.5 28.5 11.8 58.6 14.2 88.1C425 261.6 425.3 292.4 423.8 323.1zM467.4 164.4c-8.5 5-17.1 9.7-23.6 17.4-4.6 5.4 3.7 12.7 8.3 7.3 5.8-6.9 13.8-11 21.4-15.6C479.7 169.9 473.5 160.8 467.4 164.4zM495.1 242.9c-8-9-21.8-7.1-32.6-8.8-7-1.1-9.1 9.7-2.1 10.8 8.4 1.3 21.2-.8 27.4 6.2C492.6 256.4 499.8 248.1 495.1 242.9zM486.4 327.6c-7.4-4.3-15.6-6.3-23.9-8-7-1.4-9.1 9.4-2.1 10.8 7.4 1.5 14.5 3.2 21.1 7C487.7 340.9 492.6 331.1 486.4 327.6z"/></svg>