<svg xmlns="http://www.w3.org/2000/svg" x="0px" y="0px"
width="48" height="48"
viewBox="0 0 48 48"
style=" fill:#000000;"><path fill="#71c598" d="M41.051,9.895c-0.189-0.047-0.379-0.094-0.525-0.14l-4.533-1.494 c-1.614-0.535-3.229-1.07-4.85-1.587c-0.555-0.178-1.109-0.352-1.664-0.525c-0.565-0.176-1.131-0.353-1.7-0.536 C27.42,5.5,27.061,5.375,26.7,5.25c-0.719-0.249-1.463-0.506-2.22-0.678c-0.985-0.221-2.027,0.135-2.948,0.449 c-0.266,0.09-0.523,0.179-0.766,0.247c-0.505,0.141-1.011,0.285-1.517,0.43c-0.575,0.165-1.152,0.33-1.734,0.49 c-0.727,0.205-1.458,0.395-2.189,0.584c-1.253,0.325-2.548,0.662-3.808,1.071C10.366,8.212,9.386,8.597,8.52,9.021l-0.144,0.07 C7.911,9.318,7.383,9.575,6.921,9.919l-0.703,0.524l0.809,0.338c1.035,0.433,2.098,0.822,3.126,1.199 c1.726,0.632,3.511,1.285,5.166,2.153c0.605,0.316,1.191,0.704,1.757,1.08c0.865,0.573,1.76,1.166,2.789,1.555 c0.37,0.139,0.746,0.268,1.122,0.396c0.981,0.335,1.908,0.652,2.747,1.155l0.271,0.162l0.263-0.175 c1.344-0.896,2.773-1.712,4.247-2.425c0.893-0.425,1.824-0.809,2.724-1.181c0.558-0.23,1.116-0.46,1.671-0.702l1.064-0.466 c2.288-1.005,4.654-2.045,7.082-2.668l1.208-0.468L41.051,9.895z"></path><path fill="#71c598" d="M24.01,18.77c0-0.176-0.092-0.338-0.243-0.429c-0.892-0.535-1.864-0.866-2.804-1.186 c-0.489-0.167-0.978-0.333-1.452-0.527c-0.843-0.35-1.595-0.851-2.392-1.38c-0.586-0.389-1.192-0.792-1.838-1.131 c-1.728-0.901-3.557-1.574-5.326-2.225c-1.07-0.394-2.176-0.801-3.24-1.252c-0.235-0.1-0.511-0.004-0.634,0.222 c-0.309,0.566-0.501,1.249-0.588,2.087c-0.016,0.15,0.037,0.299,0.144,0.405s0.257,0.159,0.406,0.144 c0.222-0.022,0.526,0.068,0.798,0.148L7.14,13.73c0.329,0.086,0.669,0.176,0.909,0.345l-0.041,0.198 c-0.095,0.455-0.237,1.142-0.218,1.657c0.005,0.148,0.077,0.287,0.194,0.377s0.27,0.124,0.414,0.092 c0.149-0.033,0.295-0.026,0.574,0.096c0.173,0.08,0.411,0.244,0.471,0.749c0.018,0.165,0.008,0.348,0,0.532 c-0.014,0.341-0.03,0.728,0.082,1.079c0.179,0.55,0.749,0.847,1.461,0.751c0.242-0.032,0.425-0.233,0.434-0.477 c0.03-0.787,0.07-1.554,0.195-2.264c0.122,0.04,0.263,0.075,0.411,0.112c0.341,0.084,0.807,0.199,0.86,0.39 c0.035,0.132,0.026,0.274-0.015,0.555c-0.027,0.119-0.068,0.298-0.01,0.491c0.07,0.238,0.298,0.43,0.547,0.395 c0.11-0.016,0.207-0.059,0.28-0.124c0.152,0.046,0.414,0.287,0.526,0.532c0.104,0.229,0.106,0.416,0.011,0.711 c-0.047,0.144-0.025,0.302,0.058,0.428c0.083,0.127,0.22,0.209,0.371,0.223l0.63,0.06c0.188,0.022,0.376-0.074,0.475-0.238 l0.197-0.319c0.14-0.226,0.281-0.452,0.383-0.681c0.966,0.041,1.286,0.662,1.222,2.372c-0.009,0.23,0.141,0.436,0.362,0.499 c0.11,0.032,0.218,0.066,0.326,0.101c0.172,0.055,0.344,0.109,0.52,0.153c0.13,0.033,0.271,0.011,0.386-0.061 s0.196-0.188,0.225-0.32c0.087-0.41,0.118-0.813,0.147-1.204l0.035-0.439c0.026-0.354,0.055-0.519,0.145-0.557 c0.454-0.184,1.265,0.084,1.608,0.427c0.201,0.204,0.173,0.49,0.107,0.979c-0.054,0.403-0.116,0.859,0.053,1.312 c0.297,0.764,1.106,0.889,1.667,0.889c0.182,0,0.338-0.013,0.441-0.022c0.262-0.022,0.461-0.243,0.458-0.505 C24.02,21.605,24.01,20.188,24.01,18.77z"></path><path fill="#2b8c5e" d="M42.415,13.442c-0.036-0.535-0.07-1.04-0.056-1.538c0.003-0.077,0.016-0.161,0.028-0.249 c0.022-0.159,0.043-0.326,0.043-0.486c0-0.151-0.069-0.295-0.187-0.39s-0.275-0.133-0.42-0.099 c-2.709,0.594-5.277,1.717-7.761,2.804l-1.23,0.535c-0.478,0.206-0.959,0.405-1.441,0.604c-0.957,0.396-1.946,0.805-2.898,1.264 c-1.439,0.69-2.874,1.513-4.263,2.446c-0.138,0.093-0.221,0.249-0.221,0.415c0,1.309,0.019,2.617,0.038,3.917l0.002,0.16 c0.002,0.161,0.082,0.31,0.213,0.402c0.131,0.091,0.299,0.115,0.451,0.062c0.223-0.077,0.449-0.146,0.675-0.216 c0.508-0.157,1.034-0.318,1.561-0.618c0.056,0.279,0.093,0.566,0.111,0.854c0.012,0.179,0.118,0.337,0.278,0.417 c0.07,0.034,0.146,0.051,0.221,0.051c0.098,0,0.195-0.029,0.279-0.085c0.503-0.339,0.969-0.724,1.443-1.123 c0.817-0.688,0.576-1.49,0.4-2.076c-0.037-0.124-0.076-0.25-0.105-0.376c-0.073-0.323,0.01-0.605,0.251-0.863 c0.411-0.438,1.228-0.699,1.774-0.641c0.007,0.009,0.024,0.045,0.029,0.068c0.029,0.325,0.028,0.64,0.028,0.956 c0,0.181,0.098,0.347,0.255,0.436c0.158,0.088,0.351,0.085,0.505-0.009c0.298-0.182,0.563-0.322,0.809-0.429 c0.179-0.078,0.296-0.252,0.301-0.447c0.01-0.423,0.199-0.829,0.534-1.141c0.397-0.37,0.96-0.575,1.536-0.55 c0,0.32-0.017,0.64-0.033,0.96l-0.017,0.338c-0.008,0.182,0.083,0.354,0.238,0.449s0.351,0.099,0.508,0.009 c0.518-0.292,0.984-0.815,1.247-1.394c0.264-0.563,0.209-1.118,0.16-1.606c-0.031-0.315-0.061-0.613-0.004-0.879 c0.069-0.316,0.349-0.623,0.73-0.801c0.383-0.179,0.8-0.196,1.071-0.081c-0.021,0.417-0.01,0.823,0.01,1.239 c0.009,0.183,0.117,0.346,0.282,0.426c0.164,0.079,0.36,0.063,0.508-0.043c0.366-0.261,0.688-0.594,1-0.915 c0.263-0.271,0.511-0.527,0.758-0.704c0.238-0.053,0.405-0.271,0.391-0.517L42.415,13.442z"></path><path fill="#a37b57" d="M24.104,26.867l-0.051-3.357l-0.514,0.021c-1.095,0.043-1.739-0.202-2.019-0.778 c-0.176-0.366-0.135-0.875-0.095-1.368l0.027-0.355c0.03-0.418-0.046-0.688-0.531-0.912c-0.072-0.034-0.449-0.203-0.784-0.235 l-0.478-0.046l-0.065,0.476c-0.035,0.254-0.058,0.509-0.08,0.764c-0.047,0.536-0.091,1.041-0.198,1.549 c-0.251-0.034-0.503-0.118-0.77-0.206c-0.293-0.097-0.596-0.198-0.922-0.243c-0.036-0.006-0.062-0.016-0.075-0.009l0.018-0.275 c0.04-0.565,0.089-1.268-0.148-1.855c-0.137-0.323-0.373-0.521-0.703-0.586l-0.347-0.069l-0.415,0.69 c-0.122,0.199-0.244,0.399-0.309,0.601l-1.662-0.109l0.068-0.152c0.146-0.313,0.365-0.787,0.174-1.218 c-0.071-0.161-0.228-0.375-0.568-0.48c-0.208-0.065-0.388-0.059-0.52-0.054c-0.143,0.005-0.147,0.003-0.184-0.027 c-0.1-0.081-0.117-0.132-0.073-0.49c0.02-0.16,0.042-0.341,0.025-0.535l-0.104-0.355l-0.314-0.103 c-0.085-0.028-0.173-0.056-0.256-0.091l-0.591-0.248l-0.096,0.634c-0.104,0.685-0.125,1.366-0.208,2.084 c-0.504,0.21-1.332,0.104-1.681-0.352c-0.201-0.263-0.194-0.684-0.187-1.129c0.004-0.266,0.007-0.528-0.025-0.778 c-0.043-0.306-0.166-0.537-0.365-0.686c-0.307-0.229-0.666-0.178-0.928-0.139c-0.089,0.012-0.239,0.035-0.284-0.029 c-0.18-0.592,0.009-1.497,0.111-1.983l0.086-0.41l-0.39-0.156c-0.18-0.072-1.114-0.432-1.726-0.366h-0.5V14 c0,0.399,0.02,0.789,0.041,1.171l0.054,0.817c0.035,0.512,0.069,1.022,0.096,1.543c0.107,1.69,0.218,3.438,0.11,5.153 c-0.064,0.91-0.146,1.819-0.229,2.729c-0.123,1.357-0.251,2.761-0.312,4.155C5.16,30.754,5.13,31.95,5.12,33.14 c0,0.164-0.011,0.343-0.021,0.528c-0.026,0.446-0.055,0.952,0.044,1.398c0.181,0.752,0.96,0.888,1.426,0.968 c0.093,0.016,0.183,0.031,0.261,0.05c1.955,0.484,3.993,1.164,6.415,2.139c2,0.798,3.953,1.588,5.867,2.48 c0.79,0.363,1.45,0.747,2.017,1.174c0.357,0.271,0.696,0.551,1.023,0.85c0.051,0.047,0.102,0.099,0.154,0.152 c0.229,0.234,0.515,0.526,0.916,0.606c0.079,0.02,0.145,0.02,0.129,0.009l0.572,0.142l0.046-0.588 c0.122-1.563,0.167-3.102,0.192-4.268v-0.001C24.233,34.801,24.167,30.767,24.104,26.867z"></path><path fill="#373837" d="M42.566,21.671C42.518,20.113,42.47,18.556,42.46,17l0.01-1.8c0-0.196-0.115-0.375-0.293-0.456 c-0.18-0.081-0.389-0.05-0.536,0.08c-0.2,0.176-0.394,0.368-0.588,0.561c-0.493,0.491-0.958,0.955-1.533,1.144 c0.013-0.33,0.003-0.661-0.007-0.989c-0.006-0.205-0.013-0.408-0.013-0.61c0-0.142-0.06-0.276-0.165-0.371s-0.244-0.14-0.386-0.126 c-0.327,0.034-0.643,0.2-0.805,0.325c-0.516,0.377-0.486,0.893-0.463,1.282l0.021,0.31c0.039,0.535,0.07,0.958-0.115,1.402 c-0.394,0.963-1.228,1.651-2.067,1.75c0-0.311,0.018-0.622,0.035-0.932l0.025-0.487c0.007-0.158-0.062-0.31-0.185-0.41 c-0.123-0.099-0.285-0.133-0.439-0.096c-1.016,0.262-1.593,1.051-1.39,1.95c-0.532,0.137-0.957,0.409-1.367,0.672 c-0.165,0.105-0.329,0.21-0.511,0.259c-0.031-0.288-0.028-0.571-0.026-0.856c0.001-0.156,0.002-0.312-0.001-0.47 c-0.003-0.145-0.068-0.28-0.18-0.373c-0.111-0.093-0.256-0.133-0.399-0.11c-0.789,0.125-1.589,0.646-1.52,1.353 c0.021,0.264,0.108,0.494,0.185,0.697c0.058,0.153,0.113,0.297,0.128,0.438c0.02,0.155,0.009,0.325-0.035,0.526 c-0.108,0.535-0.436,0.792-0.984,1.223c-0.142,0.109-0.282,0.221-0.422,0.333c-0.447,0.357-0.87,0.695-1.375,0.976 c0.021-0.326,0.014-0.666-0.021-1.038c-0.015-0.154-0.1-0.293-0.23-0.376s-0.292-0.101-0.438-0.047 c-0.246,0.089-0.495,0.168-0.743,0.248c-0.417,0.133-0.847,0.271-1.267,0.454c-0.184,0.081-0.302,0.264-0.299,0.465l0.041,2.664 c0.041,2.62,0.082,5.24,0.089,7.858c0,2.788,0,5.67-0.219,8.481c-0.012,0.153,0.047,0.303,0.161,0.407 c0.093,0.085,0.214,0.131,0.338,0.131c0.027,0,0.055-0.002,0.082-0.007c0.261-0.043,0.516-0.108,0.739-0.165l0.128-0.032 c0.688-0.168,1.301-0.493,1.894-0.808c0.206-0.109,0.411-0.218,0.619-0.319c1.863-0.918,3.733-1.804,5.598-2.686l0.614-0.291 c1.979-0.932,4.102-1.944,6.265-3.057c0.417-0.208,0.889-0.443,1.26-0.826c0.472-0.484,0.6-1.094,0.668-1.678 c0.146-1.179,0.218-2.392,0.273-3.435c0-0.001,0-0.002,0-0.003C42.739,27.3,42.651,24.438,42.566,21.671z"></path><path d="M43,19.37c-0.05-2.09,0.01-4.17-0.1-6.26c-0.03-0.39-0.05-0.77-0.04-1.16c0.01-0.37,0.12-0.74,0.09-1.11 c-0.11-1.02-1.2-1.21-2.01-1.47c-4.65-1.53-9.3-3.05-13.97-4.53C25.94,4.51,24.78,3.93,23.68,4c-1.17,0.08-2.38,0.6-3.51,0.91 c-2.24,0.62-4.48,1.23-6.72,1.84C11.33,7.33,9.22,8.01,7.3,9.1c-0.72,0.41-1.33,0.83-1.7,1.59c-0.36,0.72-0.5,1.52-0.58,2.32 c-0.07,0.71-0.07,1.42-0.03,2.13c0.12,1.85,0.26,3.7,0.29,5.55c0.04,2.16-0.28,4.29-0.43,6.44c-0.18,2.55-0.35,5.16-0.22,7.71 c0.06,1.12,0.73,1.41,1.71,1.64c1.19,0.28,2.36,0.63,3.51,1.01c2.42,0.82,4.77,1.82,7.12,2.82c1.77,0.75,3.46,1.49,4.88,2.82 c0.6,0.56,1.05,0.91,1.89,0.87c0.73-0.04,1.49-0.16,2.18-0.38c0.95-0.3,1.84-0.88,2.73-1.31c1.09-0.54,2.18-1.06,3.28-1.58 c2.25-1.07,4.51-2.12,6.74-3.22c0.98-0.49,2.07-0.92,2.96-1.57c0.79-0.59,1.08-1.38,1.2-2.33C43.41,28.88,43.12,24.11,43,19.37z M41.93,11.17c0,0.24-0.06,0.5-0.07,0.71c-0.02,0.71,0.05,1.42,0.09,2.13c-0.06,0.01-0.12,0.04-0.19,0.08 c-0.58,0.43-1.12,1.17-1.75,1.62c-0.02-0.4-0.03-0.79-0.01-1.19c0-0.16-0.1-0.35-0.25-0.43c-0.91-0.48-2.32,0.17-2.54,1.18 c-0.17,0.8,0.24,1.61-0.12,2.38c-0.2,0.44-0.58,0.91-1.04,1.17c0.02-0.44,0.05-0.88,0.05-1.32c0-0.28-0.23-0.49-0.5-0.5 c-1.3-0.06-2.54,0.89-2.57,2.18c-0.3,0.13-0.59,0.29-0.87,0.46c0-0.33,0-0.66-0.03-1c-0.03-0.2-0.14-0.44-0.37-0.48 c-1.2-0.19-2.99,0.65-2.67,2.07c0.17,0.73,0.57,1.37-0.13,1.96c-0.44,0.37-0.91,0.76-1.4,1.09c-0.02-0.31-0.06-0.62-0.12-0.92 c-0.08-0.33-0.47-0.43-0.74-0.3c-0.68,0.34-1.43,0.51-2.15,0.76c-0.02-1.35-0.04-2.71-0.04-4.07c1.34-0.9,2.74-1.71,4.2-2.41 c1.41-0.68,2.88-1.24,4.32-1.86C35.93,13.23,38.83,11.85,41.93,11.17z M6.52,11.1c2.83,1.2,5.79,2.03,8.53,3.46 c1.47,0.77,2.73,1.89,4.27,2.53c1.39,0.57,2.89,0.9,4.19,1.68c0,1.42,0.01,2.84,0.03,4.26c-0.59,0.05-1.37,0.04-1.6-0.55 c-0.29-0.78,0.39-1.79-0.27-2.46c-0.48-0.48-1.5-0.8-2.15-0.54c-0.45,0.19-0.43,0.71-0.47,1.14c-0.04,0.48-0.06,0.95-0.16,1.42 c-0.28-0.07-0.55-0.17-0.83-0.25c0.05-1.33-0.06-2.82-1.7-2.89c-0.17-0.01-0.35,0.1-0.43,0.25c-0.19,0.34-0.4,0.66-0.6,0.99 c-0.21-0.02-0.42-0.04-0.63-0.06c0.11-0.34,0.15-0.67-0.03-1.07c-0.17-0.37-0.68-0.93-1.16-0.82c-0.06,0-0.11,0.01-0.16,0.01 c0,0.03-0.01,0.05-0.01,0.07c-0.03-0.1,0.03-0.25,0.04-0.35c0.03-0.23,0.05-0.45-0.01-0.68c-0.17-0.61-1.08-0.68-1.6-0.85 c-0.24-0.08-0.56,0.09-0.61,0.35c-0.17,0.78-0.21,1.58-0.24,2.37c-0.38,0.05-0.8-0.04-0.92-0.41c-0.14-0.44-0.01-1.04-0.06-1.51 c-0.06-0.51-0.28-0.93-0.76-1.15c-0.36-0.16-0.62-0.19-0.89-0.13c-0.02-0.54,0.18-1.38,0.25-1.74c0.04-0.21-0.02-0.47-0.23-0.57 c-0.35-0.18-0.76-0.28-1.14-0.38c-0.36-0.1-0.8-0.26-1.18-0.22C6.06,12.33,6.21,11.67,6.52,11.1z M23.66,38.77 c-0.03,1.41-0.08,2.83-0.19,4.24c-0.04-0.01-0.09,0-0.13-0.01c-0.35-0.07-0.6-0.41-0.85-0.64c-0.34-0.31-0.69-0.6-1.06-0.88 c-0.65-0.49-1.37-0.89-2.11-1.23c-1.93-0.9-3.91-1.7-5.89-2.49c-2.11-0.85-4.26-1.61-6.48-2.16c-0.45-0.11-1.19-0.11-1.32-0.65 c-0.12-0.54-0.01-1.26-0.01-1.81c0.01-1.18,0.04-2.37,0.09-3.55c0.1-2.3,0.38-4.58,0.54-6.87c0.11-1.74,0-3.49-0.11-5.22 c-0.04-0.79-0.1-1.57-0.15-2.36C5.97,14.77,5.95,14.39,5.95,14h0.04c0.39-0.04,1.05,0.15,1.5,0.33c-0.15,0.72-0.3,1.57-0.1,2.23 c0.29,0.96,1.42-0.21,1.56,0.78c0.09,0.69-0.14,1.55,0.31,2.14c0.49,0.64,1.55,0.81,2.27,0.51c0.22-0.09,0.36-0.24,0.37-0.49 c0.02-0.65,0.04-1.32,0.14-1.98c0.12,0.05,0.25,0.09,0.37,0.13c0.04,0.47-0.25,0.98,0.23,1.37c0.31,0.25,0.55,0.07,0.87,0.17 c0.58,0.18,0.14,0.86,0.01,1.19c-0.13,0.32,0.2,0.6,0.48,0.63c0.54,0.05,1.07,0.11,1.6,0.16c0.17,0.02,0.36-0.1,0.43-0.25 c0.19-0.33,0.4-0.66,0.59-0.98c0.15,0.03,0.26,0.1,0.34,0.29c0.23,0.57,0.12,1.35,0.09,1.94c-0.02,0.29,0.24,0.46,0.5,0.5 c0.58,0.08,1.11,0.37,1.7,0.45c0.22,0.03,0.42-0.18,0.48-0.37c0.27-0.76,0.25-1.57,0.36-2.37c0.21,0.02,0.49,0.13,0.62,0.19 c0.28,0.13,0.26,0.18,0.24,0.47c-0.04,0.63-0.16,1.35,0.12,1.93c0.46,0.95,1.53,1.1,2.49,1.06C23.63,28.94,23.75,33.85,23.66,38.77 z M20.04,16.3c-1.64-0.62-2.94-1.8-4.49-2.61c-2.67-1.4-5.56-2.21-8.33-3.37c0.47-0.35,1.03-0.61,1.52-0.85 c0.94-0.46,1.93-0.83,2.93-1.15c1.97-0.64,3.99-1.09,5.98-1.65c1.09-0.3,2.17-0.62,3.25-0.92c1.06-0.3,2.36-0.94,3.47-0.69 c1.1,0.25,2.18,0.69,3.26,1.03c1.12,0.36,2.24,0.7,3.36,1.06c2.1,0.67,4.19,1.37,6.28,2.06c1.03,0.34,2.06,0.68,3.1,1.02 c0.16,0.05,0.36,0.1,0.56,0.15c-2.84,0.73-5.53,1.99-8.22,3.16c-1.47,0.64-2.96,1.2-4.41,1.89c-1.49,0.72-2.93,1.54-4.31,2.46 C22.77,17.16,21.37,16.8,20.04,16.3z M42.11,30.11c-0.06,1.13-0.13,2.27-0.27,3.4c-0.06,0.51-0.16,1.01-0.53,1.39 c-0.33,0.34-0.77,0.55-1.19,0.76c-2.04,1.05-4.11,2.04-6.19,3.02c-2.07,0.98-4.15,1.96-6.22,2.98c-0.78,0.38-1.55,0.88-2.41,1.09 c-0.24,0.06-0.53,0.14-0.83,0.19c0.22-2.83,0.22-5.68,0.22-8.52c-0.01-3.51-0.08-7.02-0.13-10.53c0.64-0.28,1.32-0.45,1.98-0.69 c0.03,0.32,0.04,0.64,0.02,0.96c-0.03,0.4,0.43,0.58,0.75,0.43c0.68-0.33,1.25-0.85,1.85-1.31c0.56-0.44,1.02-0.78,1.17-1.52 c0.05-0.23,0.07-0.46,0.04-0.69c-0.04-0.39-0.28-0.73-0.31-1.11c-0.04-0.41,0.6-0.74,1.1-0.82c0.01,0.46-0.02,0.91,0.03,1.37 c0.04,0.37,0.39,0.63,0.75,0.43c0.58-0.32,1.09-0.76,1.75-0.93c0.27-0.07,0.4-0.36,0.35-0.62c-0.15-0.69,0.42-1.17,1.04-1.33 c-0.02,0.48-0.06,0.96-0.06,1.44c0,0.25,0.23,0.54,0.5,0.5c1.15-0.13,2.1-1.01,2.53-2.06c0.27-0.65,0.17-1.25,0.13-1.93 c-0.02-0.35-0.04-0.63,0.26-0.85c0.13-0.1,0.36-0.21,0.56-0.23c0,0.52,0.04,1.05,0.02,1.58c-0.02,0.32,0.33,0.57,0.63,0.48 c0.96-0.28,1.59-1.15,2.32-1.79c0,0.6-0.01,1.2-0.01,1.8C41.99,21.37,42.31,25.73,42.11,30.11z"></path><g><path d="M17.246,10.026c0.037-0.019,0.106-0.034,0.027-0.015c-0.004,0.001-0.008,0.004-0.013,0.006 c0.058-0.027-0.012,0-0.042,0.001c-0.026,0.001-0.051,0.002-0.077,0.001c-0.066,0-0.133-0.004-0.199-0.009 c-0.026-0.002-0.052-0.005-0.078-0.007c-0.006-0.001-0.023-0.003-0.039-0.005c-0.024-0.005-0.083-0.015-0.101-0.016 c0.014,0.008,0.028,0.016,0.041,0.024c-0.048-0.021-0.097-0.041-0.145-0.061c-0.034-0.014-0.069-0.029-0.103-0.043 c-0.164-0.067-0.329-0.131-0.495-0.191c-0.115-0.042-0.231-0.08-0.348-0.118c0.134-0.055,0.264-0.111,0.41-0.166 c0.46-0.173,0.929-0.321,1.405-0.447c0.253-0.067,0.432-0.36,0.349-0.615c-0.084-0.26-0.344-0.421-0.615-0.349 c-0.948,0.251-1.865,0.605-2.747,1.032c-0.131,0.028-0.251,0.106-0.336,0.228c-0.007,0.01-0.014,0.02-0.021,0.029 c-0.122,0.173-0.075,0.466,0.078,0.606c0.006,0.005,0.013,0.004,0.019,0.009c0.023,0.033,0.03,0.071,0.061,0.102 c0.108,0.108,0.245,0.191,0.383,0.256c0.303,0.143,0.623,0.232,0.939,0.343c0.193,0.068,0.385,0.14,0.575,0.216 c0.131,0.052,0.156,0.082,0.285,0.112c0.095,0.022,0.198,0.031,0.294,0.043c0.337,0.044,0.687,0.057,0.999-0.1 c0.234-0.118,0.319-0.467,0.179-0.684C17.776,9.966,17.497,9.9,17.246,10.026z"></path><path d="M24.43,14.854c-0.041-0.045-0.048-0.047-0.037-0.034c0.012,0.01,0.023,0.02,0.033,0.031 C24.427,14.852,24.428,14.853,24.43,14.854z"></path><path d="M25.136,13.174c-0.038,0.033-0.077,0.065-0.115,0.098c-0.002,0.002,0,0-0.001,0.001c-0.012,0.009-0.024,0.018-0.036,0.026 c-0.073,0.051-0.148,0.099-0.225,0.143c-0.073,0.041-0.149,0.079-0.226,0.114c-0.002,0.001-0.008,0.004-0.014,0.006 c-0.008,0.003-0.016,0.006-0.019,0.008c-0.038,0.015-0.077,0.03-0.116,0.045c-0.376,0.14-0.755,0.261-1.123,0.422 c-0.139,0.061-0.22,0.225-0.239,0.365c-0.023,0.17,0.036,0.289,0.138,0.42c-0.104-0.133,0.017,0.029,0.043,0.068 c0.032,0.048,0.063,0.097,0.095,0.146c0.078,0.121,0.16,0.238,0.251,0.349c0.21,0.256,0.49,0.416,0.796,0.53 c0.246,0.091,0.559-0.102,0.615-0.349c0.065-0.284-0.086-0.517-0.349-0.615c-0.009-0.003-0.018-0.007-0.027-0.01 c-0.024-0.012-0.05-0.024-0.073-0.038c-0.027-0.015-0.055-0.032-0.081-0.049c0.004,0.005,0.005,0.005,0.01,0.011 c-0.004-0.005-0.01-0.009-0.015-0.014c0,0,0,0,0,0c-0.015-0.01-0.026-0.022-0.033-0.031c-0.022-0.019-0.044-0.038-0.063-0.059 c-0.016-0.017-0.032-0.035-0.047-0.053c0.15-0.051,0.3-0.101,0.448-0.159c0.416-0.163,0.781-0.371,1.116-0.668 c0.196-0.174,0.191-0.532,0-0.707C25.634,12.981,25.346,12.988,25.136,13.174z"></path><path d="M28.104,8.939c0.206-0.175,0.18-0.527,0-0.707c-0.204-0.204-0.5-0.175-0.707,0c-0.185,0.157-0.319,0.269-0.514,0.398 C26.8,8.684,26.716,8.734,26.63,8.779c0,0-0.001,0-0.001,0.001c-0.014-0.01-0.028-0.02-0.042-0.031 c0.065,0.05-0.017-0.015-0.029-0.025c-0.092-0.079-0.182-0.161-0.269-0.246c-0.175-0.172-0.34-0.354-0.521-0.52 c-0.468-0.43-0.99-0.664-1.619-0.742c-0.268-0.033-0.5,0.254-0.5,0.5c0,0.297,0.231,0.466,0.5,0.499 c-0.067-0.008,0.073,0.014,0.086,0.017c0.051,0.01,0.101,0.023,0.151,0.037c0.047,0.013,0.093,0.03,0.14,0.045 c0.022,0.007,0.025,0.007,0.032,0.009c0.006,0.004,0.005,0.004,0.021,0.012c0.079,0.041,0.157,0.081,0.232,0.13 c0.011,0.008,0.023,0.015,0.034,0.023c-0.043,0.022-0.084,0.048-0.127,0.069C24.5,8.662,24.274,8.748,24.061,8.86 c-0.625,0.33-1.186,0.74-1.746,1.167c-0.207,0.158-0.338,0.438-0.179,0.684c0.131,0.205,0.461,0.35,0.684,0.18 c0.571-0.436,1.146-0.87,1.793-1.191c0.242-0.121,0.495-0.218,0.736-0.343c0.085-0.044,0.173-0.094,0.259-0.149 c0.019,0.018,0.037,0.036,0.056,0.054c0.15,0.142,0.31,0.272,0.478,0.393c0.093,0.066,0.195,0.143,0.307,0.174 c0.19,0.052,0.35-0.03,0.518-0.105C27.39,9.535,27.753,9.236,28.104,8.939z"></path><path d="M10.929,24.749c-0.002-0.011-0.011-0.057-0.016-0.079c-0.016-0.119-0.018-0.241-0.015-0.36 c0.006-0.276,0.042-0.552,0.073-0.826c0.023-0.201-0.171-0.444-0.367-0.482c-0.545-0.105-1.061-0.317-1.616-0.376 c-0.3-0.032-0.684-0.036-0.853,0.262c-0.089,0.157-0.088,0.35-0.089,0.526c-0.003,0.476-0.023,0.944-0.079,1.407 c-0.068,0.558-0.045,1.114,0.017,1.671c0.03,0.268,0.209,0.5,0.5,0.5c0.247-0.001,0.53-0.231,0.5-0.501 c-0.036-0.33-0.064-0.66-0.061-0.992c0.002-0.33,0.046-0.648,0.082-0.971c0.032-0.288,0.042-0.578,0.042-0.867 c0-0.006,0-0.013,0-0.019c0.123,0.023,0.245,0.051,0.366,0.083c0.173,0.047,0.345,0.096,0.517,0.143 c-0.042,0.451-0.053,0.901,0.089,1.342c0.083,0.257,0.347,0.423,0.615,0.349c0.253-0.069,0.432-0.357,0.349-0.615 C10.962,24.88,10.943,24.815,10.929,24.749z"></path><path d="M16.041,34.27c-0.002,0.006-0.003,0.01-0.004,0.018c0.001-0.005,0.002-0.009,0.004-0.013 C16.041,34.273,16.041,34.271,16.041,34.27z"></path><path d="M16.937,31.834c-0.003-0.229-0.154-0.413-0.367-0.482c-0.317-0.103-0.508-0.208-0.852-0.344 c-0.225-0.089-0.464-0.146-0.707-0.169c-0.032-0.295-0.053-0.58-0.324-0.76c-0.64-0.424-1.34-1.135-2.167-1.077 c-0.253,0.018-0.523,0.215-0.5,0.5c0.067,0.822,0.089,1.649,0.099,2.474c0.01,0.821,0.022,1.654-0.071,2.471 c-0.031,0.269,0.252,0.5,0.5,0.5c0.296,0.001,0.469-0.229,0.5-0.499c0.093-0.817,0.081-1.65,0.071-2.471 c-0.007-0.602-0.028-1.204-0.061-1.806c0.091,0.053,0.182,0.111,0.268,0.171c0.225,0.155,0.443,0.321,0.67,0.474 c0.075,0.595,0.011,1.175,0,1.775c-0.011,0.644,0.989,0.644,1,0c0.005-0.253,0.021-0.504,0.036-0.756 c0.02,0.005,0.039,0.009,0.059,0.014c0.14,0.037,0.275,0.088,0.41,0.142c0.017,0.007,0.074,0.031,0.026,0.01 c0.032,0.014,0.064,0.028,0.097,0.041c0.064,0.027,0.127,0.055,0.191,0.082c0.047,0.02,0.094,0.036,0.141,0.055 c0.019,0.333,0.047,0.665,0.068,0.998c0.015,0.243,0.028,0.486,0.029,0.73c0,0.108-0.001,0.216-0.009,0.324 c-0.001,0.013-0.002,0.026-0.003,0.039c0.002-0.006,0.003-0.013,0.005-0.016c-0.003,0.003-0.004,0.014-0.006,0.02 c0,0.006-0.001,0.011-0.001,0.017c-0.004,0.068-0.006,0.031-0.002-0.003c-0.006,0.029-0.01,0.066-0.014,0.082 c-0.064,0.253,0.082,0.554,0.349,0.615c0.259,0.059,0.547-0.078,0.615-0.349c0.114-0.454,0.067-0.955,0.039-1.416 C16.998,32.758,16.944,32.296,16.937,31.834z"></path><path d="M21.675,26.192c-0.141-0.144-0.414-0.264-0.603-0.321c-0.055-0.017-0.115-0.02-0.172-0.035 c-0.033-0.009-0.065-0.021-0.098-0.031c-0.005-0.002-0.023-0.009-0.035-0.013c-0.115-0.052-0.225-0.115-0.339-0.169 c-0.301-0.142-0.666-0.26-1-0.17c-0.421,0.112-0.492,0.577-0.545,0.948c-0.048,0.333-0.059,0.665-0.042,1.001 c0.035,0.688,0.176,1.375,0.144,2.066c-0.013,0.27,0.239,0.5,0.5,0.5c0.278,0,0.484-0.229,0.497-0.5 c0.026-0.562-0.067-1.123-0.116-1.681c-0.026-0.293-0.043-0.588-0.033-0.882c0.002-0.067,0.006-0.134,0.012-0.201 c0.003-0.036,0.007-0.073,0.011-0.108c0.002-0.009,0.003-0.017,0.006-0.04c0.005-0.029,0.012-0.057,0.018-0.086 c0.004,0.001,0.007,0.002,0.011,0.003c0.012,0.004,0.013,0.004,0.019,0.006c-0.001,0.001,0.001,0.002,0.011,0.007 c0.172,0.085,0.341,0.176,0.52,0.248c0.079,0.032,0.159,0.061,0.243,0.079c0.01,0.002,0.094,0.026,0.115,0.022 c0.038,0.019,0.076,0.037,0.114,0.055c0.014,0.04,0.026,0.081,0.037,0.121c0.01,0.035,0.019,0.07,0.028,0.105 c-0.001,0.006-0.002,0.017-0.004,0.046c-0.003,0.048-0.001,0.097-0.002,0.145c-0.013,0.368-0.075,0.728-0.066,1.098 c0.006,0.27,0.225,0.5,0.5,0.5c0.266,0,0.507-0.229,0.5-0.5c-0.013-0.526,0.161-1.096,0.022-1.611 C21.874,26.593,21.824,26.345,21.675,26.192z M20.938,26.902c0.024,0.012,0.046,0.027,0.071,0.038 C21.12,26.992,21.026,27.026,20.938,26.902z"></path><path d="M29.495,28.966c-0.459-0.03-0.92,0.06-1.369,0.146c-0.199,0.038-0.401,0.064-0.6,0.105 c-0.285,0.058-0.48,0.279-0.532,0.561c-0.176,0.949-0.139,1.925,0.101,2.859c0.065,0.253,0.361,0.431,0.615,0.349 c0.263-0.082,0.42-0.341,0.35-0.613c-0.099-0.386-0.148-0.683-0.169-1.058c-0.011-0.191-0.012-0.383-0.005-0.575 c0.004-0.096,0.01-0.191,0.018-0.287c0.005-0.057,0.011-0.114,0.017-0.172c0.002-0.019,0.005-0.038,0.007-0.057 c-0.004,0.028-0.003,0.025,0.002-0.009c0.003-0.018,0.006-0.037,0.009-0.056c0,0,0.001,0,0.001,0 c0.178-0.029,0.356-0.064,0.533-0.098c0.202-0.038,0.372-0.067,0.543-0.085c0.003,0.245,0.005,0.489,0.031,0.733 c0.027,0.259,0.21,0.513,0.5,0.5c0.247-0.011,0.529-0.221,0.5-0.5c-0.044-0.413-0.008-0.83-0.052-1.243 C29.965,29.183,29.789,28.985,29.495,28.966z"></path><path d="M37.368,31.013c-0.518,0.089-1.033,0.383-1.462,0.732c-0.006-0.274-0.012-0.549-0.018-0.823 c-0.007-0.299,0.012-0.627-0.243-0.833c-0.231-0.187-0.554-0.167-0.829-0.106c-0.509,0.113-0.925,0.469-1.434,0.575 c-0.219,0.045-0.36,0.272-0.367,0.482c-0.066,1.826-0.04,3.65,0.001,5.476c0.014,0.641,1.014,0.644,0.999-0.001 c-0.039-1.705-0.057-3.408-0.006-5.112c0.174-0.069,0.345-0.148,0.511-0.231c0.122-0.061,0.246-0.125,0.374-0.171 c0.025,0.569,0.021,1.143,0.034,1.709c0.016,0.735,0.033,1.47,0.049,2.206c0.014,0.643,1.014,0.645,1,0 c-0.015-0.654-0.029-1.308-0.044-1.962c0.1-0.014,0.197-0.05,0.275-0.129c0.101-0.104,0.21-0.199,0.321-0.291 c0.009-0.008,0.01-0.009,0.01-0.009c0.005-0.003,0.006-0.004,0.015-0.011c0.031-0.023,0.063-0.046,0.094-0.068 c0.071-0.05,0.143-0.098,0.217-0.144c0.067-0.042,0.137-0.074,0.206-0.111c0.016,0.275,0.023,0.551,0.023,0.826 c0,0.272-0.006,0.544-0.022,0.816c-0.007,0.125-0.017,0.249-0.03,0.373c-0.002,0.021-0.005,0.042-0.007,0.063 c-0.008,0.044-0.015,0.089-0.023,0.133c-0.05,0.256,0.072,0.552,0.349,0.615c0.248,0.056,0.561-0.075,0.615-0.349 c0.106-0.54,0.118-1.103,0.117-1.652c0-0.551-0.018-1.109-0.11-1.654C37.935,31.078,37.611,30.971,37.368,31.013z"></path><path d="M39.466,21.432c-0.44-0.128-0.877,0.12-1.237,0.348c-0.179,0.113-0.353,0.234-0.531,0.349 c-0.077,0.05-0.154,0.099-0.233,0.144c-0.042,0.024-0.084,0.047-0.127,0.069c-0.008,0.004-0.006,0.004-0.011,0.006 c-0.005,0.001-0.004,0-0.018,0.005c-0.196,0.066-0.385,0.257-0.367,0.482c0.049,0.617,0.11,1.235,0.115,1.855 c0.005,0.619-0.058,1.235-0.137,1.848c-0.035,0.268,0.255,0.5,0.5,0.5c0.299,0,0.465-0.231,0.5-0.5 c0.079-0.613,0.142-1.229,0.137-1.848c-0.004-0.521-0.048-1.042-0.092-1.563c0.193-0.109,0.379-0.23,0.564-0.352 c0.152-0.1,0.304-0.2,0.464-0.286c0.002,0.039,0.006,0.078,0.008,0.117c0.01,0.213,0.012,0.427,0.01,0.641 c-0.004,0.415-0.023,0.829-0.046,1.243c-0.014,0.27,0.24,0.5,0.5,0.5c0.284,0.002,0.487-0.227,0.501-0.498 c0.028-0.516,0.052-1.033,0.045-1.55C40.004,22.446,40.07,21.608,39.466,21.432z M38.976,22.208 C38.975,22.195,38.976,22.195,38.976,22.208L38.976,22.208z"></path></g></svg>