<svg xmlns="http://www.w3.org/2000/svg" x="0px" y="0px"
width="48" height="48"
viewBox="0 0 48 48"
style=" fill:#000000;"><path fill="#38b47b" d="M3.706,17.236c0.291-2.205,0.446-3.308,0.39-5.531c-0.008-0.318-0.012-0.653,0.146-0.929 c0.178-0.312,0.525-0.483,0.857-0.622c4.065-1.701,8.651-1.316,13.053-1.138C24.474,9.271,30.814,9.038,37.1,8.319 c1.205-0.138,2.432-0.293,3.622-0.058c1.19,0.235,2.359,0.936,2.821,2.058c0.201,0.489,0.257,1.023,0.307,1.549 c0.828,8.611,0.785,17.306-0.128,25.908c-0.057,0.536-0.125,1.094-0.42,1.544c-0.598,0.914-1.858,1.065-2.949,1.095 c-11.499,0.314-21.83,0.241-33.29-0.606c-0.718-0.053-1.475-0.122-2.063-0.537c-0.697-0.492-1.007-1.362-1.215-2.19 c-0.553-2.205-0.67-4.497-0.637-6.77C3.216,25.505,3.076,22.003,3.706,17.236z"></path><path fill="#4b7bb2" d="M38.845,28.922c-5.616,0.182-10.709-0.446-16.059-0.175c-0.377,0.019-0.791,0.056-1.055,0.326 c-0.471,0.481-0.081,1.36,0.533,1.636c0.614,0.276,1.322,0.16,1.994,0.118c0.818-0.051,1.639,0.016,2.457,0.063 c4.073,0.235,8.156-0.019,12.227-0.272c0.097-0.006,0.196-0.012,0.288-0.046c0.244-0.091,0.285-0.379,0.295-0.64 C39.552,29.208,39.106,28.914,38.845,28.922z"></path><path d="M30.127,31.482c-1.147,0-2.295-0.027-3.441-0.094l-0.363-0.021c-0.704-0.043-1.367-0.081-2.034-0.042l-0.31,0.022 c-0.602,0.048-1.285,0.104-1.92-0.183c-0.511-0.229-0.908-0.735-1.012-1.289c-0.084-0.443,0.032-0.854,0.326-1.152 c0.417-0.426,1.023-0.457,1.386-0.476c2.817-0.146,5.494-0.042,8.33,0.067c2.495,0.095,5.077,0.192,7.738,0.106 c0.006-0.001,0.018,0,0.027,0c0.267,0,0.54,0.122,0.755,0.338c0.285,0.287,0.433,0.71,0.415,1.19 c-0.01,0.218-0.036,0.872-0.62,1.09c-0.162,0.06-0.312,0.069-0.433,0.076C36.074,31.297,33.104,31.482,30.127,31.482z M24.877,30.309c0.509,0,1.014,0.03,1.507,0.061l0.36,0.021c4.056,0.233,8.18-0.024,12.167-0.272 c0.033-0.002,0.077-0.005,0.109-0.009c-0.01-0.018,0-0.081,0.005-0.198c0.013-0.348-0.132-0.469-0.184-0.489 c-2.692,0.087-5.284-0.011-7.79-0.107c-2.813-0.107-5.469-0.209-8.241-0.068c-0.293,0.016-0.591,0.042-0.724,0.177 c-0.022,0.023-0.09,0.093-0.057,0.269c0.043,0.23,0.228,0.467,0.439,0.562c0.402,0.181,0.902,0.141,1.431,0.099l0.327-0.024 C24.444,30.313,24.661,30.309,24.877,30.309z"></path><path fill="#4b7bb2" d="M38.372,33.371c-5.241-0.114-9.943-0.273-15.183-0.133c-0.453,0.012-0.993,0.377-1.074,0.823 c-0.103,0.564,0.679,0.815,1.252,0.83c5.153,0.134,10.307,0.269,15.46,0.403c0.427,0.011,0.94-0.023,1.151-0.394 c0.203-0.356-0.063-1.085-0.415-1.295C39.212,33.394,38.782,33.38,38.372,33.371z"></path><path d="M38.969,35.796c-0.06,0-0.111-0.001-0.154-0.002l-15.46-0.403c-0.509-0.014-1.176-0.179-1.521-0.603 c-0.189-0.232-0.263-0.522-0.209-0.817c0.13-0.717,0.908-1.216,1.553-1.232c4.436-0.118,8.496-0.024,12.795,0.078l2.41,0.055 c0.429,0.01,0.962,0.021,1.438,0.304c0.56,0.335,0.947,1.351,0.593,1.973C40.078,35.736,39.366,35.796,38.969,35.796z M27.478,33.684c-1.399,0-2.817,0.016-4.274,0.055c-0.245,0.006-0.562,0.226-0.596,0.412c0.036,0.075,0.345,0.229,0.773,0.24 l15.459,0.403c0.551,0.019,0.671-0.084,0.704-0.142c0.051-0.131-0.103-0.539-0.236-0.618c-0.248-0.148-0.619-0.156-0.946-0.163l0,0 l-2.412-0.056C33.079,33.748,30.315,33.684,27.478,33.684z"></path><path fill="#bcbcbc" d="M29.494,14.896c-0.198,3.327-0.387,6.632-0.47,9.964c-0.003,0.113-0.001,0.239,0.076,0.322 c0.074,0.079,0.192,0.092,0.3,0.101c2.736,0.211,5.481,0.317,8.225,0.318c0.172,0,0.35-0.001,0.509-0.068 c0.427-0.178,0.541-0.723,0.573-1.185c0.198-2.836-0.448-5.694-0.117-8.518c0.053-0.456,0.07-1.037-0.342-1.24 c-0.128-0.063-0.274-0.072-0.416-0.08C35.058,14.351,32.178,14.171,29.494,14.896z"></path><path d="M37.625,26.101c-2.743-0.001-5.522-0.108-8.263-0.32c-0.137-0.011-0.418-0.033-0.627-0.258 c-0.22-0.235-0.214-0.531-0.211-0.674c0.083-3.288,0.262-6.467,0.471-9.982c0.013-0.215,0.161-0.397,0.369-0.453 c2.72-0.734,5.588-0.571,8.365-0.41l0.133,0.008c0.161,0.009,0.385,0.021,0.607,0.13c0.779,0.383,0.658,1.409,0.618,1.747 c-0.172,1.469-0.068,2.997,0.032,4.475c0.089,1.313,0.182,2.672,0.088,4.021c-0.06,0.851-0.355,1.393-0.88,1.611 C38.071,26.101,37.813,26.101,37.625,26.101z M29.526,24.788c2.732,0.209,5.434,0.312,8.099,0.313c0.109,0,0.246,0,0.317-0.03 c0.14-0.058,0.237-0.334,0.267-0.758c0.089-1.279-0.001-2.603-0.088-3.882c-0.103-1.523-0.21-3.099-0.027-4.66 c0.076-0.643-0.05-0.725-0.064-0.731c-0.041-0.02-0.151-0.026-0.224-0.03l-0.134-0.008c-2.574-0.147-5.233-0.301-7.699,0.289 C29.774,18.623,29.606,21.66,29.526,24.788z"></path><path fill="#373837" d="M35.619,17.638c-1.085-0.017-2.228-0.092-3.313-0.11c-0.327-0.005-0.66-0.01-0.976,0.075 c-0.161,1.33-0.185,2.677-0.071,4.013c1.552,0.189,3.121,0.249,4.683,0.179c-0.07-0.669,0.046-1.344,0.031-2.016 C35.956,19.036,35.794,18.36,35.619,17.638C35.646,17.693,35.591,17.584,35.619,17.638z"></path><path d="M34.685,22.323c-1.167,0-2.335-0.07-3.487-0.211c-0.235-0.028-0.417-0.218-0.438-0.453 c-0.117-1.367-0.093-2.752,0.072-4.116c0.025-0.202,0.17-0.369,0.367-0.422c0.384-0.104,0.772-0.098,1.113-0.093 c0.548,0.009,1.109,0.032,1.67,0.056c0.507,0.021,1.015,0.042,1.512,0.053c0.213-0.054,0.443,0.045,0.554,0.246h0l0,0.001 c0,0.001,0,0.001,0,0.001c0.001,0.002,0.001,0.003,0.001,0.002c0.001,0.003,0.001,0.002,0.001,0.002 c0,0.002,0.001,0.001,0.001,0.003c0,0,0,0,0,0.001c0,0,0.004-0.008,0.001,0.002c0,0,0,0.003,0.002,0.003v0.001 c0,0,0,0.001,0.001,0.001c0,0,0.001,0.001,0.002,0.005c0.001,0.002,0.003,0.005,0.004,0.008c0.021,0.04,0.035,0.082,0.044,0.125 c0.171,0.704,0.347,1.434,0.364,2.231c0.006,0.291-0.01,0.583-0.027,0.875c-0.022,0.385-0.043,0.748-0.007,1.101 c0.015,0.137-0.028,0.273-0.118,0.378s-0.219,0.167-0.357,0.173C35.538,22.314,35.112,22.323,34.685,22.323z M31.726,21.166 c1.221,0.131,2.46,0.179,3.692,0.148c0-0.248,0.015-0.491,0.029-0.729c0.016-0.265,0.031-0.529,0.025-0.794 c-0.012-0.569-0.12-1.107-0.25-1.661c-0.423-0.011-0.852-0.029-1.282-0.047c-0.553-0.023-1.105-0.046-1.644-0.055 c-0.178-0.002-0.351-0.005-0.513,0.007C31.679,19.075,31.66,20.125,31.726,21.166z"></path><path fill="#bcbcbc" d="M8.667,14.833c-0.453,0.038-0.871,0.016-1.168,0.36s-0.408,0.812-0.44,1.266 C6.976,17.6,7.32,18.722,7.474,19.856c0.227,1.668,0.043,3.361-0.008,5.044c-0.012,0.379-0.014,0.771,0.134,1.119 s0.488,0.644,0.867,0.621c0.606-0.037,0.879-0.771,0.961-1.372c0.208-1.526,0.137-3.074,0.066-4.612 c-0.075-1.621-0.15-3.242-0.225-4.863C9.256,15.501,8.958,14.809,8.667,14.833z"></path><path d="M8.427,27.142c-0.538,0-1.048-0.364-1.287-0.926c-0.185-0.436-0.188-0.896-0.174-1.331 c0.013-0.414,0.033-0.828,0.054-1.243c0.061-1.23,0.124-2.503-0.042-3.719c-0.046-0.34-0.11-0.679-0.174-1.018 c-0.15-0.8-0.307-1.628-0.244-2.482c0.048-0.666,0.231-1.175,0.561-1.557c0.393-0.456,0.914-0.491,1.332-0.519l0.172-0.013 c0,0,0.001,0,0.002,0c0.138-0.019,0.352,0.015,0.568,0.206c0.317,0.279,0.558,0.872,0.574,1.229l0.225,4.863 c0.071,1.539,0.144,3.129-0.07,4.703c-0.148,1.084-0.681,1.758-1.426,1.804C8.474,27.141,8.451,27.142,8.427,27.142z M8.577,15.341 L8.52,15.345c-0.371,0.025-0.532,0.048-0.642,0.175c-0.181,0.21-0.289,0.538-0.321,0.976c-0.053,0.726,0.084,1.454,0.23,2.226 c0.067,0.355,0.134,0.711,0.183,1.067c0.178,1.308,0.112,2.627,0.049,3.903c-0.02,0.408-0.041,0.816-0.053,1.225 c-0.011,0.35-0.011,0.659,0.094,0.907c0.079,0.185,0.263,0.32,0.377,0.318c0.243-0.015,0.433-0.484,0.495-0.94 c0.202-1.484,0.131-3.028,0.063-4.521L8.77,15.816C8.765,15.713,8.663,15.461,8.577,15.341z M8.707,15.331L8.7,15.332 C8.702,15.332,8.705,15.332,8.707,15.331L8.707,15.331z"></path><path fill="#bcbcbc" d="M14.212,15.039c-0.664-0.112-1.486-0.217-1.739,0.407c-0.072,0.178-0.073,0.377-0.073,0.569 c0.003,3.03,0.006,6.06,0.008,9.09c0.001,0.697,0.147,1.589,0.827,1.741c0.431,0.097,0.874-0.202,1.086-0.59 c0.212-0.388,0.246-0.845,0.269-1.287C14.766,21.69,14.672,18.291,14.212,15.039z"></path><path d="M13.4,27.364c-0.092,0-0.183-0.01-0.273-0.029c-0.455-0.102-1.216-0.526-1.219-2.229L11.9,16.033 c0-0.233,0-0.503,0.11-0.774c0.417-1.026,1.679-0.814,2.285-0.713c0.215,0.036,0.382,0.207,0.413,0.423 c0.442,3.123,0.571,6.497,0.384,10.027c-0.029,0.524-0.075,1.034-0.33,1.501C14.466,27.035,13.933,27.364,13.4,27.364z M13.41,15.454c-0.24,0-0.419,0.047-0.473,0.181c-0.037,0.09-0.037,0.238-0.037,0.381l0.008,9.09 c0.001,0.559,0.116,1.182,0.437,1.253c0.171,0.042,0.414-0.115,0.539-0.342c0.154-0.283,0.186-0.653,0.208-1.074 c0.177-3.326,0.068-6.508-0.324-9.464C13.64,15.464,13.519,15.454,13.41,15.454z"></path><path fill="#bcbcbc" d="M19.049,15.194c-0.52-0.106-1.135-0.212-1.373,0.262s-0.154,1.037-0.096,1.565 c0.295,2.655-0.211,5.345,0.004,8.008c0.05,0.621,0.253,1.373,0.86,1.517c0.433,0.103,0.883-0.191,1.102-0.579 c0.219-0.388,0.259-0.848,0.285-1.292c0.176-2.925-0.005-5.858-0.185-8.782C19.626,15.564,19.371,15.26,19.049,15.194z"></path><path d="M18.622,27.066c-0.098,0-0.196-0.011-0.292-0.034c-0.713-0.168-1.154-0.866-1.243-1.964 c-0.104-1.293-0.042-2.597,0.017-3.858c0.064-1.364,0.131-2.774-0.02-4.133l-0.011-0.101c-0.062-0.547-0.133-1.168,0.157-1.744 c0.418-0.833,1.395-0.634,1.92-0.528l0,0c0.543,0.11,0.962,0.598,0.997,1.158c0.179,2.89,0.363,5.878,0.185,8.843 c-0.032,0.525-0.083,1.035-0.35,1.508C19.682,26.743,19.151,27.066,18.622,27.066z M18.364,15.604 c-0.119,0-0.212,0.021-0.242,0.078c-0.156,0.311-0.108,0.733-0.057,1.182l0.012,0.103c0.16,1.438,0.091,2.889,0.025,4.291 c-0.058,1.23-0.118,2.502-0.019,3.731c0.038,0.473,0.183,1.002,0.477,1.071c0.174,0.036,0.422-0.11,0.551-0.339 c0.163-0.287,0.197-0.657,0.222-1.076c0.174-2.903-0.008-5.86-0.185-8.721c-0.006-0.106-0.101-0.22-0.198-0.239 C18.8,15.654,18.552,15.604,18.364,15.604z"></path><path d="M6.647,37.016c-0.148,0-0.298-0.044-0.431-0.132c-0.225-0.146-0.357-0.388-0.354-0.644c0-0.001,0-0.001,0-0.002 c-0.079-0.152-0.077-0.343,0.021-0.498c0.116-0.184,0.329-0.27,0.533-0.22c0.182-0.06,0.379-0.047,0.55,0.038 c0.144,0.069,0.246,0.204,0.273,0.362c0.002,0.01,0.003,0.021,0.005,0.031c0.099,0.146,0.14,0.322,0.106,0.501 c-0.043,0.219-0.194,0.404-0.404,0.498C6.853,36.994,6.75,37.016,6.647,37.016z"></path><path d="M6.682,12.693c-0.076,0-0.151-0.017-0.221-0.052c-0.097-0.016-0.189-0.054-0.258-0.112 c-0.147-0.125-0.222-0.368-0.172-0.555c0.05-0.188,0.237-0.364,0.429-0.397c0.154-0.023,0.31,0.019,0.424,0.123L6.9,11.715 c0.026,0.02,0.05,0.042,0.072,0.065l0.05,0.046c0.203,0.188,0.215,0.504,0.028,0.707C6.951,12.64,6.816,12.693,6.682,12.693z"></path><path d="M41.058,12.07c-0.176,0-0.354-0.075-0.484-0.207c-0.132-0.133-0.206-0.314-0.202-0.497c0.005-0.272,0.229-0.49,0.5-0.49 c0.046,0.001,0.114,0.01,0.166,0.028c0.095-0.029,0.197-0.038,0.292-0.024c0.241,0.036,0.421,0.24,0.426,0.484 c0.003,0.183-0.069,0.363-0.2,0.497C41.423,11.995,41.266,12.049,41.058,12.07z M41.371,11.385 C41.371,11.385,41.371,11.385,41.371,11.385S41.371,11.385,41.371,11.385z"></path><path d="M41.304,38.445c-0.107,0-0.215-0.023-0.313-0.068c-0.122-0.057-0.217-0.161-0.262-0.288 c-0.054-0.153-0.058-0.323-0.011-0.479c0.045-0.147,0.156-0.267,0.301-0.321c0.038-0.015,0.077-0.025,0.117-0.033 c0.094-0.047,0.215-0.047,0.309-0.073c0.216,0,0.417,0.101,0.54,0.271c0.089,0.122,0.117,0.279,0.077,0.425 c-0.06,0.216-0.213,0.395-0.423,0.492C41.531,38.42,41.417,38.445,41.304,38.445z"></path><path fill="#373837" d="M25.448,15.698c-0.625,0.02-1.207,0.044-1.832,0.064c-0.279,0.009-0.631,0.073-0.696,0.345 c-0.014,0.058-0.011,0.119-0.008,0.179c0.05,1.056,0.101,2.112,0.151,3.168c0.568-0.011,1.137,0.048,1.691,0.174 c0.234,0.054,0.513,0.108,0.685-0.058c0.132-0.127,0.142-0.333,0.141-0.516C25.578,17.931,25.562,16.814,25.448,15.698z"></path><path d="M25.118,20.181c-0.188,0-0.359-0.039-0.474-0.065c-0.515-0.118-1.05-0.171-1.569-0.161 c-0.266-0.003-0.497-0.206-0.51-0.477l-0.151-3.167c-0.003-0.07-0.009-0.188,0.021-0.317c0.062-0.263,0.296-0.704,1.167-0.731 l1.832-0.063c0.285,0.003,0.486,0.188,0.513,0.449c0.118,1.158,0.132,2.316,0.136,3.403c0,0.193,0.001,0.596-0.296,0.88 C25.584,20.126,25.339,20.181,25.118,20.181z M23.541,18.96c0.446,0.021,0.891,0.081,1.327,0.181 c0.042,0.01,0.147,0.033,0.219,0.04c-0.006-0.022-0.004-0.064-0.004-0.127c-0.003-0.913-0.014-1.878-0.089-2.84l-1.36,0.048 c-0.108,0.003-0.179,0.016-0.222,0.026L23.541,18.96z"></path><path fill="#f58420" d="M16.965,31.314c-0.259-0.3-0.836-0.334-1.201-0.18c-0.365,0.154-0.634,0.493-0.757,0.87 c-0.077,0.235-0.1,0.5,0.006,0.723c0.114,0.241,0.359,0.394,0.61,0.483c0.32,0.113,0.679,0.139,0.998,0.023 c0.319-0.115,0.59-0.385,0.66-0.717c0.047-0.222,0.005-0.452-0.036-0.675C17.209,31.656,17.088,31.457,16.965,31.314z"></path><path d="M16.174,33.809c-0.237,0-0.48-0.043-0.719-0.127c-0.426-0.149-0.736-0.405-0.895-0.74c-0.15-0.315-0.16-0.693-0.029-1.092 c0.177-0.543,0.555-0.972,1.038-1.176c0.541-0.228,1.353-0.174,1.774,0.313c0.096,0.111,0.326,0.407,0.393,0.762 c0.045,0.245,0.102,0.55,0.034,0.87c-0.104,0.489-0.48,0.904-0.98,1.085C16.597,33.773,16.388,33.809,16.174,33.809z M16.24,31.545 c-0.097,0-0.199,0.016-0.282,0.051c-0.212,0.089-0.39,0.3-0.476,0.564c-0.047,0.145-0.054,0.276-0.018,0.354 c0.04,0.083,0.161,0.167,0.323,0.225c0.239,0.084,0.473,0.095,0.663,0.024c0.173-0.062,0.31-0.203,0.342-0.351 c0.026-0.126-0.006-0.298-0.04-0.48c-0.011-0.061-0.068-0.177-0.166-0.29c0,0,0-0.001-0.001-0.001 C16.535,31.582,16.393,31.545,16.24,31.545z"></path><path fill="#bcbcbc" d="M23.145,10.253c-0.15-1.059-0.272-2.396-0.169-3.46c4.766-0.211,9.529-1.72,14.233-0.922 c0.089,0.015,0.185,0.035,0.247,0.101c0.081,0.087,0.075,0.221,0.065,0.339c-0.085,0.935-0.17,1.87-0.255,2.805 c-0.012,0.135-0.028,0.28-0.116,0.384c-0.104,0.124-0.279,0.156-0.439,0.179c-0.459,0.068-0.918,0.137-1.376,0.205 C31.327,10.481,27.157,10.818,23.145,10.253z"></path><path fill="#bcbcbc" d="M14.379,6.89c-0.028,1.112,0.143,2.146,0.115,3.258c1.513,0.007,3.025-0.031,4.536-0.112 c0.049-0.003,0.101-0.006,0.14-0.036c0.056-0.043,0.064-0.124,0.067-0.195c0.037-0.984-0.015-1.972-0.157-2.947 c-0.004-0.028-0.009-0.057-0.026-0.078c-0.023-0.028-0.061-0.038-0.097-0.045c-0.851-0.171-1.73-0.082-2.594,0.007 C15.635,6.816,15.107,6.815,14.379,6.89z"></path><path d="M44.35,11.82c-0.05-0.5-0.11-1.11-0.35-1.69c-0.48-1.18-1.67-2.06-3.18-2.36c-0.983-0.19-1.964-0.138-2.927-0.038 l0.125-1.376c0.013-0.14,0.043-0.468-0.197-0.725c-0.183-0.196-0.418-0.234-0.528-0.253C34.21,4.854,31.085,5.3,28.063,5.731 c-1.678,0.239-3.414,0.487-5.109,0.563c-0.249,0.011-0.452,0.203-0.476,0.451c-0.057,0.586-0.048,1.237-0.008,1.866 c-0.912-0.006-1.827-0.024-2.744-0.052c-0.022-0.594-0.067-1.186-0.152-1.77c-0.012-0.09-0.075-0.255-0.132-0.325 c-0.134-0.165-0.312-0.204-0.387-0.221c-0.935-0.188-1.896-0.088-2.744,0.001c-0.356,0.036-0.663,0.055-0.969,0.072 c-0.321,0.019-0.642,0.037-1.014,0.076c-0.25,0.025-0.442,0.233-0.449,0.484c-0.013,0.512,0.016,1.005,0.047,1.486 C10.85,8.31,7.767,8.494,4.91,9.69c-0.43,0.18-0.85,0.4-1.1,0.84c-0.23,0.4-0.22,0.86-0.21,1.19c0.05,2.13-0.09,3.19-0.37,5.3 l-0.02,0.15c-0.5,3.8-0.52,6.8-0.54,10.27c0,0.91-0.01,1.86-0.02,2.87c-0.04,2.77,0.16,4.96,0.65,6.89 c0.21,0.84,0.56,1.88,1.41,2.48c0.72,0.51,1.6,0.57,2.32,0.63c7.11,0.52,13.98,0.78,21.65,0.78c3.67,0,7.53-0.06,11.69-0.17 c1.18-0.04,2.63-0.22,3.35-1.33c0.37-0.57,0.45-1.26,0.5-1.76C45.13,29.2,45.18,20.45,44.35,11.82z M23.445,7.269 c1.598-0.096,3.203-0.325,4.759-0.547c3.023-0.432,5.884-0.841,8.81-0.374l-0.248,2.724c-0.002,0.026-0.007,0.081,0.012,0.086 c-0.041,0.013-0.113,0.023-0.142,0.028L35.26,9.391c-2.972,0.441-7.378,0.958-11.67,0.417C23.494,9.044,23.412,8.105,23.445,7.269z M15.4,7.314c0.321-0.019,0.642-0.037,1.014-0.076c0.733-0.077,1.489-0.157,2.205-0.055c0.101,0.778,0.142,1.567,0.125,2.366 c-1.251,0.063-2.509,0.096-3.749,0.099c-0.008-0.397-0.034-0.784-0.059-1.162c-0.026-0.389-0.051-0.762-0.058-1.139 C15.058,7.335,15.229,7.324,15.4,7.314z M43.22,37.72c-0.05,0.54-0.11,0.99-0.34,1.33c-0.47,0.71-1.55,0.84-2.54,0.87 c-12.81,0.35-22.75,0.16-33.24-0.61c-0.75-0.06-1.35-0.12-1.81-0.45c-0.58-0.4-0.84-1.19-1.02-1.9C3.81,35.11,3.61,33,3.65,30.32 c0.01-1.01,0.02-1.96,0.02-2.88c0.02-3.43,0.04-6.4,0.53-10.14l0.02-0.15c0.28-2.09,0.43-3.25,0.38-5.46 c-0.01-0.23-0.02-0.5,0.08-0.67c0.1-0.17,0.35-0.3,0.61-0.4c2.709-1.135,5.7-1.312,8.695-1.257 c0.011,0.256,0.016,0.511,0.009,0.771c-0.003,0.135,0.047,0.265,0.141,0.361c0.174,0.178,0.451,0.152,0.7,0.152 c1.395,0,2.813-0.038,4.214-0.113c0.078-0.004,0.261-0.011,0.422-0.138c0.251-0.19,0.261-0.481,0.264-0.574 c0.003-0.088-0.004-0.176-0.002-0.264c0.939,0.028,1.882,0.049,2.827,0.053c0.028,0.251,0.058,0.494,0.089,0.711 c0.031,0.221,0.205,0.394,0.425,0.425c1.486,0.21,2.987,0.292,4.443,0.292c2.99,0,5.791-0.349,7.89-0.661l1.378-0.205 c0.181-0.027,0.517-0.079,0.747-0.354c0.191-0.228,0.216-0.498,0.23-0.659l0.038-0.42c0.946-0.101,1.917-0.168,2.819,0.009 c0.92,0.18,2.04,0.74,2.46,1.76c0.17,0.41,0.22,0.86,0.27,1.41C44.18,20.48,44.13,29.16,43.22,37.72z"></path></svg>