<svg xmlns="http://www.w3.org/2000/svg" x="0px" y="0px"
width="48" height="48"
viewBox="0 0 512 512"
style=" fill:#000000;"><path fill="#127274" d="M215.5,283.9c-13.1-6.4-29,4.3-31.6,17.7c-0.2,1.2-0.8,2.2-1.5,2.9c0,5.3,0,10.5,0.4,15.7c0.6,7.4,1.4,16.1,5.7,22.5c5.2,7.7,14.9,10,22.8,5.1c6.5-4.1,14.4-11.8,16.1-19.6C230.5,314.2,230.9,291.5,215.5,283.9z"></path><path fill="#D6E5E5" d="M253.7,337c-1-10.8-1.1-21.5-1.9-32.2c-0.7-10-1.1-21.1-4.3-30.7c-1.9-5.9-4.9-9.3-11.2-10c-7.7-0.8-15.6,0.1-23.3,0.6c-11.9,0.7-23.8,0.9-35.6,0.9c-6,0-11.9,0.2-17.8,0.5c-2.8,0.2-5.6,0.3-8.4,0.5c0,0-0.1,0-0.1,0c0.3,31.2,3.8,62.2,4.4,93.4c1.2-0.7,2.4-1.4,3.4-2c6-3.6,13.5-8.6,20.8-8.9c0,0,0,0,0,0c-10-14.3-8.1-36.2-8.1-52.6c0-3.2,2.2-5.1,4.6-5.6c7.8-15.1,27.1-25.3,43.2-17.4c20.5,10.1,23.6,36.9,18.9,56.8c-1.1,4.4-3.4,9-6.3,13.2c5.9,0.3,11.8,4.6,15.8,8.4c2.6,2.5,5.3,5.2,7.6,8.2C255,352.4,254.4,344.7,253.7,337z"></path><path fill="#EF4823" d="M416.3,280.9c-21.8,1.3-43.6,2.6-65.5,2.7c-19.6,0.1-39.2,0-58.7,0c0.5,6.2,0.8,13,2.7,19.1c0.1,0,0.2,0,0.3,0c28.6-1.7,57.2-1.3,85.8-1.5c11.8-0.1,24.3,0.1,36-2.1c0.3-1.8,0.7-3.7,0.6-5.5C417.2,289.3,416.7,285.1,416.3,280.9z"></path><path fill="#FEBF10" d="M255.6 85.8c-6.5-8-12.8-16.2-15.6-26.1-10.3-.8-20.6-1.6-31-1.5-7.5.1-15.1.3-22.5 1.8 15.7 15.2 27 34.7 38.6 53 6 9.5 12.6 18.5 18.7 28 2 3.2 4.1 6.5 5.9 10 3.7-8.2 8.8-15.9 13.4-22.8 3.3-4.9 6.5-9.9 9.7-14.8C270.7 102.7 262.3 94 255.6 85.8zM306.9 215.7c-.2-9.7-.4-20.5-4.7-29.5-7.2-15.1-32.6-12.1-44.2-4.6-.3.2-.6.4-.9.5-.7 10.4-1.1 20.9-.4 31.3.6 10 1.6 21.1 7.3 29.6.5.7.8 1.5.9 2.2 4.8 3.8 16.4 1.3 21.8.4 6.6-1.1 13.4-2.5 19.8-4.8C306.7 232.3 307.1 224 306.9 215.7z"></path><path fill="#127274" d="M254.2,390.4c-0.3-4.1-0.5-8.6-1.5-12.8c-0.8-0.8-1.5-1.8-1.8-3.1c-1-4.8-6.2-10.2-9.7-13.5c-1.8-1.7-8.3-7.6-10.2-6.3c-3.1,2.1-6.2,0.6-7.7-1.9c-1.9,1.6-3.9,3.1-6,4.2c-10.1,5.7-21.6,6.3-31.2-0.9c-0.3-0.2-0.6-0.5-1-0.8c-0.2,2.4-1.8,4.6-4.9,4.8c-3.8,0.2-9.1,3.4-12.7,5.5c-2.6,1.5-5.2,3-7.6,4.7c-0.8,0.5-1.6,1.1-2.3,1.7c-0.1,0.1-0.1,0.1-0.2,0.2c-0.4,0.5-0.5,0.5-0.3,0.1c-1.1,1.8-2.9,3-4.8,3c0.2,10.2,1,20.5,1.3,30.7c33.6-1,68.6-8.8,101.3,1.9C254.7,402.1,254.6,396.2,254.2,390.4z"></path><path fill="#FEBF10" d="M358.6,57.1c-4.4-0.3-8.9-0.1-13.4,0.1c-7.2,0.4-14.4,1.2-21.6,1.3c-14.8,18-26.4,38.1-39.1,57.6c0,2.5-1.4,4.1-3.2,4.8c-0.1,0.2-0.3,0.4-0.4,0.6c-5.6,8.3-11.4,16.5-16.3,25.2c-3.9,7.1-8.3,15.1-8.6,23.4c13.3-6.5,33.4-8.5,46.3-0.3c1-8.6,4.2-16.8,8.5-24.5c5.7-10.1,11.7-20.2,18.1-29.9c12.5-18.8,26.5-37,35.8-57.7C362.7,57.3,360.3,57.2,358.6,57.1z"></path><path fill="#EF4823" d="M389.2,333.1c-28.9,0-57.8,0.2-86.6,2.7c0.3,5,0.9,9.9,1.2,14.9c0.1,0,0.2,0,0.3,0h87.4C390.4,344.8,389.6,338.9,389.2,333.1z"></path><path fill="#FEBF10" d="M423.9 394.2c-1.5-4.2-3.2-8.3-7.4-10.5-10.7-5.5-26.4-5.6-36.2 1.9.1.5.1 1 .1 1.6-.8 9 2 16.7 11.4 19 8.5 2 17.2 1.6 25.9 1.5.3-2.3 1.8-4.4 4.9-4.5 1.6-.1 2.6.1 2.6-1.9C425.1 398.8 424.7 396.5 423.9 394.2zM345.6 391.9c-1.8-3.7-6.1-4.9-9.8-5.5-8.9-1.3-18.4.1-26.9 3 .9 6.5 1 13.7 4.7 19.1 1.2 1.8 1.2 3.6.5 5.1 6.7-.1 13.5-.3 20.1-1.7 4.4-.9 12.5-3 13.7-8.3C348.8 399.5 347.4 395.5 345.6 391.9z"></path><path fill="#BCBCBC" d="M463.9,400.6c-1.5-29.5-13-57.6-13.7-87.1c-0.5-21.9,8-43.7,4.4-65.6c-4.2-25.9-29.7-34-52.9-35.6c-27.9-1.9-56.6,4.1-83.9-2.8c0,0.4,0,0.7,0,1.1c0.4,11.2-0.3,22.3-0.3,33.5c0,2.6-1.2,4.6-3.7,5.6c-9.3,3.9-19.8,6.1-29.9,7.3c-8.3,1-19.8,2.3-26.6-3.9c-1.1-1-1.6-2.1-1.8-3.3c-0.2-0.2-0.4-0.5-0.6-0.8c-6.7-10.1-8.5-23-9.2-34.9c0-0.5,0-1.1-0.1-1.6c-19.4,4.4-39.6,4.1-59.4,4.3c-18.9,0.2-41.2-0.5-58.4,8.8c-13.4,7.2-20.4,19.7-22.5,34.6c-1.8,12.7-0.5,25.7,0,38.5c0.6,16.2,1.3,32.3,1.9,48.5c0.6,15.7,0.9,31.4,1.9,47.1c0.6,10.1,2.2,20.3,6.2,29.7c8.3,19,25,26.5,44.7,28.6c32.2,3.4,64.5-0.6,96.7-1.6c32.5-1,64.6,4.4,97,6.1c25.7,1.4,54,2.5,78.3-7.6c9-3.7,17.5-9.2,23.3-17.2C462,423.3,464.4,411.9,463.9,400.6z M257.8,415.9c-1.5,1.9-3.9,3.1-6.7,2.1c-16.1-5.4-34-5-50.7-4c-16.1,0.9-32.2,2.8-48.3,3c-3.2,2.6-9,1.7-9-3.5c-0.1-14-1.4-28-1.5-42c0-2.4,1.3-4.1,3-5c-0.2-33.9-4.4-67.6-4.5-101.5c0-1.3,0.4-2.4,0.9-3.2c-0.2-1.8,0.5-3.7,2.4-4.8c3.9-2.2,10-1.5,14.3-1.8c7-0.4,13.8-0.6,20.8-0.6c13.2,0,26.4-0.2,39.6-1.3c7.2-0.6,16-1.3,23.1,0.5c19.2,4.8,19.7,28.7,21.1,44.9c1,11.9,1.1,23.8,2.2,35.6c1,11.6,1.9,23.2,1.9,34.9c0,2.6-1.5,4.3-3.3,5.2c3.1,11.8,1.9,24.8,3.3,36.8C267.1,416.4,261.2,418.2,257.8,415.9z M285.8,309.9c-3.7-8-4.1-18.2-4.8-26.9c0-0.5,0-1,0.1-1.4c-2.6-3.2-1.7-9,3.5-9c22.4,0,44.9,0.2,67.4,0c23.1-0.2,46.1-1.6,69.1-3c2.9-0.2,5.8,2,5.9,5.1c0.1,7.4,2.2,14.9,1.2,22.3c-0.4,3.4-0.5,7.5-3.1,10c-2.9,2.9-7.1,2.9-10.9,3.4c-7.7,1.1-15.5,1.3-23.2,1.5c-31.7,0.7-63.4-0.3-95.1,1.7c-1.1,0.1-2.1-0.2-2.9-0.6C290.4,313.7,287.2,313,285.8,309.9z M293,355c-0.2-7.5-1.4-15-1.5-22.5c0-2.1,0.9-3.6,2.3-4.6c0.7-1.5,2.1-2.6,4.3-2.8c31.9-3,64-3,96-3c2.8,0,5.9,1.9,5.9,5.1c0.1,8.6,1.4,17.1,3,25.5c0,0,0,0,0,0c2.5,3.2,1.6,8.9-3.6,8.9h-94.5c-2,0-3.5-0.9-4.4-2.1C297.3,360.7,293.1,359.3,293,355z M359.1,403.2c-2.1,20.7-31.2,21.3-46.7,21.3c-4.6,0-6.6-4.6-5.4-7.8c-0.9-0.4-1.8-1-2.5-2.1c-5.3-7.8-5.2-17.6-6.9-26.7c-0.6-3,1.2-4.9,3.4-5.4c0.5-1.4,1.5-2.5,3.2-3.2c11.1-4,25.5-6.5,37-3.1c6.2,1.8,11.2,4.8,14.1,10.7C357.8,392,359.6,397.6,359.1,403.2z M425.3,413.9c-0.1,2.4-1.7,4.7-4.9,4.7c-11.7,0-24.6,1.3-35.7-3.3c-12.8-5.2-16.2-17.4-15.1-30.3c0.1-1.6,0.8-2.7,1.7-3.4c-0.1-1.6,0.5-3.3,2.1-4.6c13.2-11,40.6-11.9,53.4,0.6C435.8,386.3,442.6,411.5,425.3,413.9z"></path><path fill="#010101" d="M472.7,380.4c-2.3-14.5-6.1-28.8-8.8-43.3c-2.2-11.8-4-24.7-2.4-36.7c1.3-9.2,2.9-18.4,3.9-27.7c1.9-17.2,1.3-36-10.3-49.9c-14.8-17.8-40.1-21.2-61.7-21.8c-25.5-0.7-51.7,4.1-76.7-3.1c-0.8-5.9-2.3-11.8-4.9-17c0.8-0.9,1.2-2.2,1.1-3.7c-0.7-10.8,3.8-20.4,9.1-29.6c5.6-9.7,11.4-19.3,17.5-28.6c12.8-19.3,27.1-37.8,36.2-59.3c0.3-0.2,1.3-2.1,1.5-2.5c1.4-3.5-0.3-6.8-3.9-7.8c-0.1,0-0.3-0.1-0.4-0.1c-0.4-0.1-0.8-0.1-1.2-0.1c-4.5-2.4-9.7-2.7-14.9-3c-7.6-0.4-15.2,0.3-22.8,0.8c-3.4,0.2-6.7,0.5-10.1,0.6c-4.6,0.2-6.4,0.9-9.5,4.6c-6.7,8.2-12.8,17-18.6,25.8c-5.3,7.9-10.4,15.9-15.5,23.9c-3-6.1-7.2-11.7-11.5-17c-7.3-9-17.1-18.7-19-30.7c-0.3-2.2-1.9-4.8-4.4-5c-23.2-1.8-49.7-5.6-71.9,3.2c-3.7,1.5-5.2,6.6-1.8,9.3c18.6,14.9,30.8,36.2,43.4,56.1c5.5,8.7,11.3,17.1,17.1,25.6c5.5,8.1,12,17.5,12.6,27.6c0,0.8,0,1.7,0.1,2.5c0.1,1.5,0.7,2.7,1.5,3.5c-0.6,8.1-1,16.2-1,24.4c-31.3,8.1-64.6,2.1-96.3,6.8c-14.6,2.2-28.9,6.9-39.6,17.4C97,237.8,93.7,256.2,93.4,273c-0.2,15.3,1.1,30.7,1.7,45.9c0.6,16.2,1.3,32.4,1.9,48.5c0.9,23.2,0.1,47.5,12,68.3c10.2,17.6,29.3,26,48.9,27.7c32.1,2.7,63.7,0,95.8-1.3c32.7-1.3,64.9,3.8,97.4,5.8c26.5,1.6,54.3,2.3,79.8-6.2c20-6.7,36-20.6,41.9-41.2C476.5,407.6,474.8,393.5,472.7,380.4z M280.9,121.5c0.1-0.2,0.3-0.4,0.4-0.6c1.8-0.7,3.2-2.4,3.2-4.8c12.7-19.4,24.4-39.6,39.1-57.6c7.2-0.2,14.4-1,21.6-1.3c4.4-0.2,8.9-0.4,13.4-0.1c1.7,0.1,4.1,0.2,6,0.7c-9.3,20.7-23.3,38.9-35.8,57.7c-6.4,9.7-12.4,19.7-18.1,29.9c-4.3,7.7-7.5,15.9-8.5,24.5c-12.9-8.2-33-6.2-46.3,0.3c0.3-8.3,4.7-16.4,8.6-23.4C269.5,138,275.3,129.8,280.9,121.5z M306.5,240.7c-6.4,2.3-13.1,3.7-19.8,4.8c-5.5,0.9-17.1,3.4-21.8-0.4c-0.1-0.7-0.4-1.5-0.9-2.2c-5.7-8.5-6.7-19.6-7.3-29.6c-0.7-10.4-0.3-20.9,0.4-31.3c0.3-0.1,0.6-0.3,0.9-0.5c11.6-7.4,37.1-10.5,44.2,4.6c4.2,9,4.5,19.8,4.7,29.5C307.1,224,306.7,232.3,306.5,240.7z M243.9,141c-6-9.4-12.6-18.5-18.7-28c-11.7-18.3-22.9-37.8-38.6-53c7.4-1.5,15-1.8,22.5-1.8c10.3-0.1,20.7,0.7,31,1.5c2.8,9.9,9,18.2,15.6,26.1c6.7,8.1,15.1,16.9,17.4,27.5c-3.2,5-6.5,9.9-9.7,14.8c-4.6,6.9-9.8,14.6-13.4,22.8C248,147.5,245.9,144.2,243.9,141z M455.3,432.5c-5.8,8-14.3,13.4-23.3,17.2c-24.3,10.1-52.6,8.9-78.3,7.6c-32.4-1.7-64.5-7.1-97-6.1c-32.2,1-64.5,5-96.7,1.6c-19.6-2.1-36.4-9.7-44.7-28.6c-4.1-9.4-5.6-19.6-6.2-29.7c-1-15.7-1.3-31.4-1.9-47.1c-0.6-16.2-1.3-32.3-1.9-48.5c-0.5-12.8-1.8-25.8,0-38.5c2.1-14.9,9.1-27.4,22.5-34.6c17.2-9.3,39.5-8.5,58.4-8.8c19.8-0.3,40,0.1,59.4-4.3c0,0.5,0,1.1,0.1,1.6c0.6,11.9,2.4,24.8,9.2,34.9c0.2,0.3,0.4,0.6,0.6,0.8c0.1,1.1,0.7,2.3,1.8,3.3c6.8,6.1,18.3,4.9,26.6,3.9c10-1.2,20.5-3.4,29.9-7.3c2.4-1,3.7-3,3.7-5.6c0-11.2,0.7-22.3,0.3-33.5c0-0.4,0-0.7,0-1.1c27.3,6.8,56.1,0.8,83.9,2.8c23.2,1.6,48.7,9.7,52.9,35.6c3.6,21.9-4.9,43.7-4.4,65.6c0.7,29.6,12.2,57.6,13.7,87.1C464.4,411.9,462,423.3,455.3,432.5z"></path><path fill="#010101" d="M266.5 411.1c-1.4-12-.2-25-3.3-36.8 1.9-.8 3.3-2.6 3.3-5.2 0-11.7-.9-23.3-1.9-34.9-1-11.9-1.1-23.8-2.2-35.6-1.4-16.1-1.9-40.1-21.1-44.9-7.1-1.8-15.9-1.1-23.1-.5-13.2 1.1-26.4 1.3-39.6 1.3-7 0-13.9.2-20.8.6-4.3.3-10.4-.4-14.3 1.8-1.9 1.1-2.6 3-2.4 4.8-.6.9-1 1.9-.9 3.2.1 33.9 4.3 67.6 4.5 101.5-1.7.9-3 2.6-3 5 .1 14 1.4 28 1.5 42 0 5.2 5.8 6.1 9 3.5 16.1-.3 32.2-2.1 48.3-3 16.7-.9 34.6-1.4 50.7 4 2.8.9 5.3-.3 6.7-2.1C261.2 418.2 267.1 416.4 266.5 411.1zM153.8 406c-.3-10.2-1.1-20.5-1.3-30.7 1.8-.1 3.7-1.3 4.8-3-.2.4-.1.4.3-.1.1-.1.2-.1.2-.2.7-.6 1.5-1.2 2.3-1.7 2.4-1.7 5-3.2 7.6-4.7 3.7-2.1 8.9-5.3 12.7-5.5 3.1-.2 4.7-2.4 4.9-4.8.3.3.6.5 1 .8 9.6 7.2 21.1 6.6 31.2.9 2-1.1 4-2.6 6-4.2 1.5 2.5 4.6 4 7.7 1.9 1.9-1.3 8.4 4.6 10.2 6.3 3.5 3.3 8.7 8.8 9.7 13.5.3 1.3.9 2.4 1.8 3.1 1 4.2 1.2 8.7 1.5 12.8.4 5.8.4 11.7.9 17.5C222.5 397.2 187.5 405 153.8 406zM182.4 304.5c.7-.7 1.2-1.6 1.5-2.9 2.6-13.4 18.6-24.1 31.6-17.7 15.4 7.6 15 30.3 11.9 44.3-1.7 7.8-9.6 15.6-16.1 19.6-7.9 4.9-17.7 2.5-22.8-5.1-4.3-6.4-5.1-15-5.7-22.5C182.4 315 182.4 309.7 182.4 304.5zM247.7 351.9c-4-3.8-10-8.1-15.8-8.4 3-4.2 5.3-8.8 6.3-13.2 4.8-19.9 1.7-46.7-18.9-56.8-16.2-7.9-35.4 2.3-43.2 17.4-2.4.5-4.6 2.4-4.6 5.6 0 16.4-1.9 38.3 8.1 52.6 0 0 0 0 0 0-7.2.4-14.8 5.4-20.8 8.9-1 .6-2.2 1.3-3.4 2-.6-31.2-4.1-62.2-4.4-93.4 0 0 .1 0 .1 0 2.8-.2 5.6-.4 8.4-.5 6-.4 11.9-.5 17.8-.5 11.9 0 23.8-.2 35.6-.9 7.7-.5 15.6-1.4 23.3-.6 6.4.6 9.3 4.1 11.2 10 3.1 9.6 3.5 20.7 4.3 30.7.8 10.8 1 21.5 1.9 32.2.7 7.7 1.2 15.4 1.5 23.1C253 357.1 250.3 354.4 247.7 351.9zM427 274.6c-.1-3-3-5.2-5.9-5.1-23 1.4-46.1 2.7-69.1 3-22.4.2-44.9 0-67.4 0-5.2 0-6.1 5.8-3.5 9-.1.4-.1.9-.1 1.4.7 8.7 1.1 18.9 4.8 26.9 1.4 3.1 4.6 3.9 7.2 3.1.8.4 1.8.7 2.9.6 31.7-1.9 63.4-1 95.1-1.7 7.7-.2 15.6-.5 23.2-1.5 3.8-.5 8-.6 10.9-3.4 2.6-2.6 2.7-6.7 3.1-10C429.2 289.6 427.1 282 427 274.6zM416.8 299c-11.7 2.2-24.1 2-36 2.1-28.6.2-57.2-.2-85.8 1.5-.1 0-.2 0-.3 0-1.9-6-2.3-12.9-2.7-19.1 19.6 0 39.2.1 58.7 0 21.9-.1 43.7-1.4 65.5-2.7.4 4.2.9 8.4 1.2 12.6C417.6 295.3 417.2 297.2 416.8 299zM403 352.7C403 352.6 403 352.6 403 352.7c-1.6-8.4-2.9-16.9-3-25.5 0-3.2-3.1-5.1-5.9-5.1-32 0-64.1 0-96 3-2.1.2-3.5 1.3-4.3 2.8-1.4 1-2.3 2.5-2.3 4.6.1 7.5 1.3 15 1.5 22.5.1 4.4 4.3 5.7 7.5 4.5 1 1.2 2.5 2.1 4.4 2.1h94.5C404.5 361.6 405.5 355.8 403 352.7zM304.1 350.6c-.1 0-.2 0-.3 0-.3-5-.9-9.9-1.2-14.9 28.8-2.5 57.7-2.7 86.6-2.7.4 5.9 1.2 11.7 2.2 17.5H304.1zM355.3 387c-2.9-5.9-8-8.8-14.1-10.7-11.6-3.5-25.9-1-37 3.1-1.7.6-2.8 1.8-3.2 3.2-2.3.6-4 2.4-3.4 5.4 1.7 9 1.6 18.8 6.9 26.7.7 1.1 1.6 1.7 2.5 2.1-1.1 3.2.9 7.9 5.4 7.8 15.4 0 44.5-.6 46.7-21.3C359.6 397.6 357.8 392 355.3 387zM347.9 403.5c-1.2 5.3-9.3 7.4-13.7 8.3-6.6 1.4-13.4 1.7-20.1 1.7.7-1.5.7-3.3-.5-5.1-3.7-5.4-3.8-12.6-4.7-19.1 8.5-2.9 18-4.3 26.9-3 3.8.6 8 1.8 9.8 5.5C347.4 395.5 348.8 399.5 347.9 403.5zM426.8 377.6c-12.8-12.4-40.2-11.5-53.4-.6-1.6 1.3-2.2 3-2.1 4.6-.9.7-1.6 1.8-1.7 3.4-1.1 12.8 2.4 25 15.1 30.3 11.1 4.5 23.9 3.3 35.7 3.3 3.2 0 4.8-2.2 4.9-4.7C442.6 411.5 435.8 386.3 426.8 377.6zM422.6 403.1c-3 .1-4.6 2.2-4.9 4.5-8.7.1-17.4.5-25.9-1.5-9.4-2.3-12.2-9.9-11.4-19 0-.5 0-1.1-.1-1.6 9.8-7.5 25.5-7.4 36.2-1.9 4.2 2.2 5.9 6.2 7.4 10.5.8 2.3 1.2 4.6 1.3 7.1C425.2 403.2 424.1 403 422.6 403.1z"></path></svg>