<svg xmlns="http://www.w3.org/2000/svg" x="0px" y="0px"
width="60" height="60"
viewBox="0 0 48 48"
style=" fill:#000000;"><path fill="#fcbf95" d="M47.233,20.9c-0.158-1.221,0.032-2.493-1.046-3.088c-0.609-0.336-1.591-0.407-2.498-0.377 c-0.098-1.456-0.196-2.911-0.294-4.367c-0.033-0.496-0.072-1.009-0.311-1.445c-0.393-0.717-1.217-1.107-2.017-1.273 c-6.109-1.267-11.472,0.588-17.598,0.308c-1.386-0.063-2.933-0.589-3.721-1.73c-0.262-0.38-0.417-0.828-0.702-1.191 c-0.666-0.852-1.859-1.048-2.938-1.133c-2.759-0.218-5.921,0.097-8.421,0.222C6.722,6.874,5.731,7.494,5.258,8.338 s-0.481,2.097-0.478,3.064c0.027,7.438,0.053,14.876,0.08,22.314c0.005,1.396,0.012,2.81,0.368,4.159 c0.355,1.35,1.083,3.149,2.272,3.88c1.351,0.832,3.039,0.817,4.625,0.776c8.563-0.219,17.146-0.935,25.709-1.154 c1.517-0.039,3.117-0.102,4.4-0.912c1.283-0.81,2.046-2.267,2.349-3.753c0.006-0.031,0.007-0.062,0.013-0.093 c0.934-3.642,0.992-5.45,1.939-9.425C47.027,25.129,47.505,23.006,47.233,20.9z"></path><path d="M47.728,20.622c-0.021-1.198-0.047-2.557-1.299-3.247c-0.603-0.333-1.465-0.437-2.277-0.445l-0.262-3.9 c-0.03-0.52-0.07-1.11-0.37-1.65c-0.41-0.75-1.24-1.29-2.35-1.52c-3.69-0.76-7.16-0.41-10.52-0.07c-2.3,0.24-4.69,0.48-7.16,0.37 c-1.14-0.05-2.61-0.48-3.33-1.52c-0.11-0.15-0.19-0.32-0.28-0.48c-0.13-0.25-0.26-0.49-0.44-0.73c-0.78-1-2.1-1.23-3.29-1.32 c-2.17-0.18-4.59-0.02-6.71,0.11C8.82,6.26,8.23,6.3,7.66,6.33C6.52,6.38,5.38,7.09,4.82,8.09c-0.55,0.98-0.54,2.39-0.54,3.31 l0.08,22.32c0.01,1.4,0.01,2.86,0.39,4.28c0.102,0.389,0.256,0.882,0.46,1.396c0.16,0.569,0.402,1.094,0.78,1.515 c0.001,0.001,0.003,0.002,0.004,0.003c0.34,0.506,0.748,0.96,1.245,1.266c1.21,0.74,2.63,0.87,3.92,0.87 c0.34,0,0.67-0.01,0.98-0.02c4.29-0.11,8.65-0.35,12.87-0.58c4.21-0.23,8.56-0.46,12.84-0.57c1.43-0.04,3.21-0.09,4.65-0.99 c1.03-0.647,1.812-1.707,2.276-3.033c0.005-0.015,0.016-0.026,0.02-0.041c0.008-0.03,0.015-0.058,0.023-0.088 c0.097-0.295,0.185-0.599,0.25-0.919c0.007-0.034,0.01-0.068,0.017-0.102c0.458-1.819,0.714-3.232,0.981-4.707 c0.249-1.383,0.507-2.813,0.954-4.691c0.521-2.188,0.76-4.348,0.712-6.421L47.728,20.622z M5.7,8.58c0.39-0.7,1.22-1.21,2.01-1.25 C8.28,7.3,8.88,7.26,9.5,7.22c1.44-0.09,3-0.19,4.52-0.19c0.7,0,1.39,0.02,2.05,0.07c0.97,0.08,2.04,0.25,2.58,0.94 c0.13,0.17,0.23,0.37,0.34,0.58c0.11,0.2,0.22,0.4,0.35,0.59c0.78,1.14,2.32,1.87,4.11,1.95c2.54,0.12,4.96-0.13,7.31-0.37 c3.43-0.35,6.67-0.68,10.21,0.05c0.47,0.1,1.31,0.36,1.68,1.03c0.18,0.34,0.22,0.79,0.25,1.23l0.263,3.862 c-0.354,0.026-0.663,0.061-0.885,0.091c-1.172,0.159-9.551,0.955-10.829,0.865c-2.084-0.131-4.144-0.139-6.131-0.13 c-1.962,0.005-4.015,0.001-6.069-0.128c-1.096-0.068-2.229-0.14-3.322-0.307c-0.325-0.05-0.649-0.108-0.975-0.166 c-0.767-0.139-1.56-0.28-2.367-0.31c-0.979-0.031-2.372,0.102-3.466,0.955c-1.464,1.141-1.854,3.061-2.128,4.929L5.362,33.886 c0-0.058-0.001-0.118-0.002-0.176L5.28,11.4C5.28,10.58,5.27,9.33,5.7,8.58z M46.049,27.078c-0.454,1.905-0.714,3.349-0.966,4.745 c-0.225,1.244-0.442,2.442-0.78,3.878L44.2,35.9c-0.017,0.206-0.054,0.409-0.094,0.608c-0.035,0.14-0.072,0.283-0.11,0.428 c-0.349,1.375-1.063,2.503-2.026,3.104c-1.21,0.76-2.77,0.8-4.15,0.84c-4.29,0.11-8.65,0.35-12.87,0.58 c-4.21,0.22-8.56,0.46-12.84,0.57c-1.37,0.04-3.08,0.08-4.35-0.7c-0.731-0.449-1.253-1.384-1.599-2.231 c-0.299-1.096-0.192-2.45-0.066-3.309L7.98,22.906c0.254-1.736,0.58-3.37,1.753-4.284c0.856-0.668,1.997-0.775,2.814-0.744 c0.737,0.025,1.461,0.155,2.227,0.293c0.333,0.061,0.667,0.12,1,0.171c1.137,0.174,2.293,0.246,3.413,0.316 c2.084,0.13,4.115,0.123,6.131,0.13c1.975-0.007,4.016-0.001,6.067,0.128c1.372,0.098,9.664-0.688,11.026-0.873 c1.226-0.166,2.797-0.199,3.534,0.207c0.695,0.384,0.759,1.159,0.782,2.391l0.005,0.271C46.779,22.899,46.549,24.974,46.049,27.078 z"></path></svg>