<svg xmlns="http://www.w3.org/2000/svg" x="0px" y="0px"
width="48" height="48"
viewBox="0 0 512 512"
style=" fill:#000000;"><path fill="#14B6B9" d="M183.7,203.8c-0.2-5.3-0.1-10.7,0.5-16.1c-0.3,0-0.6,0-0.9-0.1c-2.8-0.2-7.8-0.5-12.1-1.8 c0,0.3,0,0.6-0.1,1c-1.3,9-1.2,18.2,0.3,27.2c0.3,1.8,0.7,3.6,1.1,5.3c0.4-0.1,0.8-0.1,1.3,0c5.2,0.4,9.7,3.4,14.5,5.6 C185.7,218,184,210.9,183.7,203.8z"></path><path fill="#14B6B9" d="M172.3,173c1.2,0.5,2.2,1.3,2.7,2.5c0.5,0.1,1,0.2,0.8,0.2c1.8,0.4,3.6,0.6,5.5,0.8 c1.5,0.2,3,0.3,4.4,0.4c1.7-9.2,4.5-18.3,8.3-26.8c1.5-3.2,3.1-6.4,4.9-9.5C188.6,149,177.5,160.3,172.3,173z"></path><path fill="#14B6B9" d="M280.2,230c-7.1,2-14.3,3.9-21.5,5.4c-4,0.9-8,1.6-12,2.2c5,9.1,10.9,17.6,17.8,25.1 c2-0.5,4.2-0.1,5.9,1.9c2,2.5,2.8,5.2,2.9,8.4c1.8-0.4,3.5-0.9,5.2-1.4c-1.1-2.4,0-4.7,1.9-6C280.5,253.8,280.7,241.8,280.2,230z"></path><path fill="#14B6B9" d="M176.1,372.8c-0.6-2.3-1.2-4.6-2-6.8c-1.5-4.5-3.3-8.9-4.9-13.4c0.1,5.5,0.5,11,0.8,16.5 c0.1,2,0.2,4,0.3,5.9c2-0.6,4.1-0.8,6.1-1.1C176.4,373.8,176.3,373.4,176.1,372.8z"></path><path fill="#14B6B9" d="M141.7,354c-1.1-2.6-2.6-5-4.4-7.2c-0.7,1.2-1.8,1.9-3.1,2.2c0.3,6.9,1.6,13.6,3.1,20.3 C143.2,368.2,143.3,357.5,141.7,354z"></path><path fill="#14B6B9" d="M258.8,118.4c-3.4-0.3-6.8-0.2-10.1,0c8.1,10.8,15.9,22,22.3,33.7c8.9-5.6,17.3-11.8,25.7-18.1 C286.2,125.3,273.4,119.5,258.8,118.4z"></path><path fill="#14B6B9" d="M325.4,186c-2.7-16.3-9.9-31.9-20.7-44.1c-9.4,6.9-18.8,14-28.7,20.2c2.9,6.1,5.4,12.4,7.4,19 c3.5,11.5,5.5,23.1,6.6,34.7c12.9-4,25.2-9.1,35.6-17.5c0.3-0.2,0.6-0.4,0.9-0.6C326.4,193.7,326.1,189.8,325.4,186z"></path><path fill="#14B6B9" d="M296.3,225.1c-1.8,0.6-3.6,1.2-5.5,1.7c0.7,13.1,0.5,26.3,0.4,39.6c11.5-6.2,20.6-15.5,26.8-28.3 c4.1-8.4,6.7-17.3,7.8-26.4C316.8,217.7,306.5,221.8,296.3,225.1z"></path><path fill="#14B6B9" d="M219.7,198.8c-1.1-4.4-2-8.9-2.8-13.4c-0.3,0.1-0.6,0.1-0.9,0.2c-6.1,1.4-12,2.8-18.3,2.7 c-0.9,0-1.8,0-2.6,0c-0.5,4.6-0.6,9.1-0.5,13.7c0.4,9.1,3.2,18.3,7.3,26.8c3.7,0.5,7.3,0.7,11.1,0.6c5.6-0.1,11.2-0.2,16.8-0.6 C225.6,218.9,222.2,208.8,219.7,198.8z"></path><path fill="#14B6B9" d="M236.4,120.5c-0.2,0.1-0.4,0.1-0.6,0.2c-9.2,14.9-11.4,33.1-9.8,50.9c0.2-0.1,0.4-0.1,0.7-0.2 c12.1-3.6,23.8-7.6,34.8-13.5C254.3,144.7,245.6,132.5,236.4,120.5z"></path><path fill="#14B6B9" d="M218.6,133c-6.8,6.3-11.7,14.8-15.2,23.2c-2.8,6.7-5,13.8-6.6,21c6.3-0.2,12.5-1.3,18.6-2.8 C214,160.4,214.7,146.2,218.6,133z"></path><path fill="#14B6B9" d="M315.6,42.1c-17.4,3.5-33.4,12.3-51,15.2c-9.8,1.6-19.8,2.3-29.6,4.4c-9.5,2-19,3.6-28.6,5.1 c-1.8,0.3-3.5,0.5-5.3,0.8c3.8-0.4,7.6-0.8,11.4-1.1c13.4-1.1,26.9-2.4,40.4-2.9c13.6-0.5,27.2-0.1,40.9-0.4 c9.1-0.2,18.1-1.1,27.1-2C319.3,54.8,317.2,48.5,315.6,42.1z"></path><path fill="#14B6B9" d="M315.3,342.9c0-2.1,0.1-4.3,0.1-6.5c-0.6,0.6-1.4,1.1-2.3,1.5c-0.9,11.4-0.7,23,1.2,34.1 c0.5,2.7,0.6,5.4,0.9,8C316.5,367.8,315.5,355.2,315.3,342.9z"></path><path fill="#14B6B9" d="M341.6,334c-0.1-2.1-0.1-4.3-0.9-6.3c-0.5-1.2-1.1-2.5-2-3.5c0,0-0.1,0.1-0.1,0.1 c-0.4,0.7-0.9,1.2-1.4,1.7c0.2,6.8,0.8,13.7,1.4,20.5c0.7-0.1,1.3,0,2.1,0.1C341.7,342.4,341.8,338,341.6,334z"></path><path fill="#14B6B9" d="M208,257.5c-4.8-5.5-9.4-11.9-13.3-18.8c-1.2-0.3-2.5-0.6-3.7-1c-3.6-1.1-7.4-2.2-10.7-4 c-1.5-0.8-2.8-1.6-4.2-2.3c2.2,5.9,5.1,11.5,8.8,16.6c6.5,9,14.8,14.6,24.9,18.8c4.6,1.9,9.4,3.6,14.3,4.9 C218.2,267.8,212.8,263,208,257.5z"></path><path fill="#14B6B9" d="M398.8,405.9c-1.1-22.2-3.1-44.3-5.3-66.4c-2.9-29.1-7-58.2-8.2-87.4c-2.4-61.2-0.9-123.3-15.9-183.1 c-12.6-0.7-25.3,0.7-37.8,2.3c-13.6,1.7-27.1,2.9-40.8,3c-13.6,0.1-27.3-0.2-40.9,0.5c-12.8,0.7-25.6,1.8-38.4,2.9 c-23.3,2-46.6,6.2-70,6.3c-18.7,0.1-39.7-1.8-57.5,4.9c0.5,2.5,1,5,1.5,7.5c5.8,31,8.4,62.5,10.4,93.9c1,15.9,1.9,31.7,3.1,47.6 c1.1,15.8,3.3,31.6,4.3,47.5c2.2,32.9,7.8,65.4,11.6,98.1c3.2,26.9-0.5,54.7,7.4,81c0.3,0,0.6-0.1,0.9-0.1 c47-0.1,94.6-3.4,141.3-8.7c23.1-2.7,45.7-7.6,68.6-11.5c21.2-3.6,42-5.5,63.5-5.7c0.2,0,0.4,0,0.5,0c0.3-0.4,0.6-0.7,1.1-1 c0.1-0.2,0.1-0.5,0.2-0.8c0.2-1.1,0.4-2.2,0.5-3.3c0.2-1.8,0.2-2.1,0.2-3.3C399.4,421.9,399.2,413.9,398.8,405.9z M173.6,150.7 c9.7-12.2,22-22.8,35.5-30.7c6.3-3.7,13-6.7,19.8-8.8c0.2-0.3,0.5-0.7,0.7-1c1.9-2.7,4.8-2.5,6.8-1c9.7-2.1,19.7-2.6,29.8-0.9 c17.3,2.9,33.5,11.6,45.3,24.6c24.5,26.9,32.7,66.7,20.2,100.9c-6.8,18.7-19.2,34.9-37.5,43.7c-1.6,0.8-3.3,1.5-4.9,2.1 c-1.1,1-2.6,1.5-4.1,1.5c-17.3,5.9-36.5,6.5-54.4,3.3c-20.8-3.8-42.7-12.2-55.1-30.2c-12.2-17.6-17.5-39.5-16.3-60.8 c-0.7-0.8-1.1-1.8-1.2-3.2C157.5,175.6,164.7,161.9,173.6,150.7z M140.1,379.8c3.2,12.3,6.5,24.7,6.1,37.5 c-0.2,7-11.2,7.9-11,0.8c0.7-25.3-12.7-48.6-12-74c0.1-3.5,2.9-5.5,5.6-5.7c2.2-3.9,6.1-6.4,10.9-3.9c5.2,2.8,8.7,8.2,11.3,13.3 C156.6,359.2,153,376.2,140.1,379.8z M185.3,411.7c-3.8-2.3-3.9-7.3-4.6-11.3c-0.9-5.2-1.7-10.4-2.5-15.6 c-0.7,0.1-1.4,0.2-2.1,0.3c-1.9,0.3-2.1,0.2-3.5,0.8c-0.6,0.3-1.2,0.4-1.8,0.4c0.3,8.6,0.4,17.1,0.5,25.6c0,0.1,0,0.2,0,0.4v2 c0,7.1-10.9,7.9-11,0.8c-0.1-16.4-0.5-32.9-1.5-49.2c-0.4-6.1-0.8-12.2-0.6-18.3c0.2-4.6,0.3-9.8,3.4-13.5 c1.5-1.8,3.5-2.2,5.3-1.7c2.8-1.9,7-1.6,8.1,2.5c3.8,14.6,10.9,28.1,13.3,43.1c0.9,5.6,1.7,11.3,2.6,16.9c0.4,2.3,0.8,4.7,1.2,7 c0.2,1,0.2,1.1,0.3,1.6c0.1,0.2,0.1,0.4,0.2,0.6c0.3,0.5,0.2,0.6,0,0c-0.3-0.5-1-1.4-2.4-2.3 C196.2,405.5,191.4,415.4,185.3,411.7z M219.1,402.2c-5.4,3.9-16.5,8.6-19.6-0.6c-1.9-5.7,5.3-9.2,8.9-6c0.1,0,0.1,0,0.2-0.1 c0.9-0.4,1.7-0.8,2.6-1.3c1-0.7,3.1-1.7,3.6-2.9c2-4.6-2.6-9.5-5.6-12.6c-7.5-7.6-14.1-13.9-16.7-24.8c-2.2-9.2-0.8-21,8-26.4 c7.6-4.5,17.3-1,16.7,8.7c-0.4,7-11.4,7.9-11,0.8c0-0.1,0-0.1,0-0.1c-1,0.5-1.8,1.3-2.3,2.4c-2.1,4.8-1.7,10.3,0.1,15.1 c3.7,9.9,13.1,14.5,18.5,23.3C227.7,386.3,227.7,396.1,219.1,402.2z M256.4,398.4c-3.6,9.8-14.4,14.7-23.3,8.6 c-5.8-4.1,1.5-12.3,7.3-8.3c1.8,1.2,4.5-1.4,5.2-2.9c1.2-2.3,1.5-5.2,1.1-7.8c-0.5-4.5-3.1-7.8-6.4-10.9 c-3.4-3.3-8.1-6.6-10.3-10.8c-2.5-4.5-3.9-9.6-4.1-14.7c-0.5-9.2,0.9-21.1,10.7-24.9c8.1-3.2,17.8-0.5,20.4,8.4 c1.9,6.8-8.4,10.5-10.4,3.6c-0.9-3-4.3-3.1-6.7-1.4c-2.9,2-3.1,7.5-3,10.7c0.1,4.4,0.3,10.4,3.5,13.8c3.2,3.3,6.7,6.2,9.8,9.6 C256.7,378.7,260,388.5,256.4,398.4z M294.6,356.1c-1.6,2.7-4.1,4.5-6.9,5.8c-2.1,1-5.3,1.7-6.8,3.5c-0.8,1-1.7,1.5-2.7,1.8 c0,0.1,0,0.1,0,0.2c0.5,3.8,1.1,7.5,1.5,11.3c0.2,1.8,0.4,3.6,0.4,5.3c0.5,1.8,0.3,2.2-0.6,1.1c0.8,1.3,1.1,2.7,1.3,4.2 c0.3,0.6,0.4,1.3,0.4,2.1c0,0.5,0,1.1,0,1.6c-0.3,6.9-10,8-11,0.8c-0.1-1.1-0.1-2.2-0.3-3.2c0,0-0.7-3.2-0.7-4.1 c-0.3-6.8-1.5-13.4-2.1-20.1c-1.1-12.7-2.8-25.4-2.9-38.2c0-4.7,4.8-6.7,8.1-5.3c3.8-1.9,8.1-2.4,12.3-0.3 c5.4,2.6,9.4,7.5,11,13.3C297.5,342.2,298.2,350.2,294.6,356.1z M325.9,383.7c-0.8,6.3-3.9,14-11.6,13.3c-7.3-0.7-9-7.8-9.8-14 c-2.3-18.8-3.8-37.3-1.2-56.3c0.4-2.9,2.5-4.3,4.8-4.3c1.3-2.5,3.3-4.5,6-5.4c7.8-2.6,11.7,4.3,12.1,11.1 c0.5,9.1,0.2,18.3,0.3,27.3C326.7,364.8,327.1,374.5,325.9,383.7z M359.2,391.9c-5.1-8.1-7-17.7-12.1-25.8 c-1-1.6-2.1-3.4-3.4-4.8c-1.1,0.5-2.4,0.9-3.6,0.9c0.2,3.5,0.4,6.9,1,10.3c0.4,2.6,0.8,5.1,1,7.6c0.1,0.4,0.1,0.8,0.1,1.2v1.7 c0,7.1-11,7.9-11,0.8c0-4.2-0.9-8.1-1.4-12.2c-0.6-4.8-0.7-9.6-1.1-14.4c-1.1-11-2.4-22-2.5-33.1c0-2.2,1-3.8,2.5-4.7 c0,0,0-0.1,0.1-0.1c3.4-6,10.7-10.1,16.6-4.2c4,4,6.6,9.3,7.1,14.9c0.5,6.3,0.8,15.2-1.7,22.2c8.7,8.6,11.4,23.6,17.5,33.4 C372,391.7,362.9,397.9,359.2,391.9z M387.2,375.4c-0.2,7-10.1,8-11,0.8c-0.2-1.3-0.7-2.7-1-4c-0.3-1.5,0-2.7,0.6-3.7 c-2.3-18.8-13.5-36-12.6-55.5c-1.4,0.1-2.8,0.2-4.1,0.2c-7.1,0.1-7.9-10.9-0.8-11c8.6-0.1,18.1-2.1,25.9,2.6 c6.1,3.6,1.2,13.5-4.9,9.9c-1.6-0.9-3.3-1.5-5.2-1.8c0,0.3,0,0.6,0,0.9C372.6,335.1,387.8,353.9,387.2,375.4z"></path><path fill="#14B6B9" d="M234.9,239.1c-7.6,0.8-15.2,1.1-22.9,1.1c-1.2,0-2.3,0-3.5,0c2.1,3.2,4.4,6.2,6.7,9 c10.5,12.4,24.8,21.9,41.3,21.3C248.1,261.2,240.8,250.5,234.9,239.1z"></path><path fill="#14B6B9" d="M272.5,183.2c-1.8-5.4-3.8-10.5-6.2-15.5c-0.7,0.4-1.3,0.7-2,1.1c-11.7,6-24.2,10.4-37,13.9 c0.9,5.2,2,10.3,3.4,15.1c2.7,10,6.3,20,10.8,29.7c5.6-0.7,11.2-1.8,16.7-3.3c6.9-1.9,14.1-3.6,21.2-5.5 C278.4,206.8,276.4,194.9,272.5,183.2z"></path><path fill="#14B6B9" d="M286.1,345.7c-0.3-3.5-0.4-7.6-2.7-10.5c-1.9-2.4-4.8-4.2-7.5-1.8c-0.2,0.2-0.3,0.3-0.5,0.4 c0.2,7.1,0.7,14.2,1.4,21.3C281.3,352.8,286.6,351.6,286.1,345.7z"></path><path d="M410.2,424.7c0.2-14.6-0.9-29.2-2-43.8c-2.4-32.1-5.9-64-9.5-96c-3.4-30.3-3.2-60.9-4.2-91.4 c-1.4-44.2-4.3-88.6-15.6-131.6c-0.4-1.7-2.4-3.4-4.1-3.6c-14.3-1.3-28.6,0-42.8,1.5c-2.2-8.7-5.2-17.2-7.1-26 c-0.5-2.3-3.4-4-5.6-3.7c-18.7,2.6-35.3,12.1-53.7,15.6c-9.2,1.8-18.6,2.5-27.9,4.1c-10.1,1.7-20,3.9-30.1,5.5 c-35.4,5.6-70.9,10.4-106.3,16.1c-1-0.8-2.3-1.3-4-1.3c-2.7,0-4.5,1-6.4,2.6c-0.9,0.3-1.8,0.6-2.7,0.9c-1,0.2-2,0.3-3,0.5 c-2.5,0.4-4.1,2.1-4.6,4c-0.3,0.1-0.5,0.2-0.8,0.3c-1.1,0.4-1.9,1-2.5,1.8c-2.9,0.6-5.7,3.4-4.9,7.2 c13.4,62.1,12,126.1,18.8,189.1c1.8,16.2,2.8,32.5,4.9,48.7c2,16.4,4.4,32.7,6.6,49c3.6,28.1,0.9,56.9,6.9,84.7 c0.2,0.9,0.4,1.8,0.6,2.7c-0.2,0.7-0.3,1.5-0.1,2.4c0.5,3.1,1.7,5.4,3.9,7.7c1.6,1.8,3.7,1.9,5.5,1c1,1.3,2.5,2.3,4.6,2.3 c46.5-0.1,93.2-3.8,139.5-8.5c23-2.4,45.8-7.4,68.5-11.4c22.9-4,45.3-6.1,68.5-6.1c2.5,0,4-1.3,4.6-3.1 C411.1,442.6,410.1,429.9,410.2,424.7z M206.5,66.8c9.6-1.5,19.1-3.2,28.6-5.1c9.7-2,19.7-2.8,29.6-4.4 c17.6-2.9,33.6-11.7,51-15.2c1.6,6.4,3.7,12.7,5.4,19.1c-9,1-18.1,1.9-27.1,2c-13.6,0.3-27.2-0.1-40.9,0.4 c-13.5,0.5-27,1.8-40.4,2.9c-3.8,0.3-7.6,0.7-11.4,1.1C203,67.3,204.7,67,206.5,66.8z M399.1,429.9c0,1.2-0.1,1.5-0.2,3.3 c-0.1,1.1-0.3,2.2-0.5,3.3c0,0.3-0.1,0.5-0.2,0.8c-0.4,0.3-0.8,0.6-1.1,1c-0.2,0-0.4,0-0.5,0c-21.4,0.2-42.3,2.1-63.5,5.7 c-22.9,3.9-45.5,8.9-68.6,11.5c-46.7,5.4-94.2,8.7-141.3,8.7c-0.3,0-0.6,0-0.9,0.1c-8-26.3-4.2-54.1-7.4-81 c-3.9-32.7-9.5-65.2-11.6-98.1c-1-15.8-3.2-31.6-4.3-47.5c-1.1-15.9-2.1-31.7-3.1-47.6c-2-31.4-4.6-62.9-10.4-93.9 c-0.5-2.5-1-5-1.5-7.5c17.9-6.7,38.8-4.8,57.5-4.9c23.4-0.1,46.7-4.3,70-6.3c12.8-1.1,25.6-2.2,38.4-2.9 c13.6-0.7,27.2-0.4,40.9-0.5c13.7-0.1,27.2-1.3,40.8-3c12.5-1.6,25.2-3,37.8-2.3c15,59.8,13.5,122,15.9,183.1 c1.1,29.3,5.3,58.3,8.2,87.4c2.2,22.1,4.2,44.2,5.3,66.4C399.2,413.9,399.4,421.9,399.1,429.9z"></path><path d="M311.6,132.9c-11.8-13-28-21.7-45.3-24.6c-10.1-1.7-20.1-1.2-29.8,0.9c-2-1.5-4.9-1.7-6.8,1c-0.2,0.3-0.5,0.7-0.7,1 c-6.9,2.2-13.5,5.2-19.8,8.8c-13.5,7.9-25.7,18.5-35.5,30.7c-8.9,11.1-16.1,24.9-15.3,39.5c0.1,1.4,0.5,2.4,1.2,3.2 c-1.3,21.3,4.1,43.2,16.3,60.8c12.5,18,34.3,26.4,55.1,30.2c17.8,3.2,37.1,2.6,54.4-3.3c1.5,0,3-0.5,4.1-1.5 c1.7-0.7,3.3-1.4,4.9-2.1c18.2-8.7,30.6-24.9,37.5-43.7C344.2,199.5,336,159.8,311.6,132.9z M258.8,118.4 c14.6,1.1,27.5,6.9,38,15.7c-8.4,6.2-16.9,12.4-25.7,18.1c-6.5-11.8-14.2-22.9-22.3-33.7C252,118.2,255.3,118.2,258.8,118.4z M272.5,183.2c3.9,11.7,5.9,23.6,6.9,35.6c-7.2,1.9-14.3,3.6-21.2,5.5c-5.5,1.5-11.1,2.5-16.7,3.3c-4.5-9.7-8-19.8-10.8-29.7 c-1.3-4.9-2.5-9.9-3.4-15.1c12.7-3.5,25.3-7.9,37-13.9c0.7-0.3,1.3-0.7,2-1.1C268.7,172.7,270.8,177.8,272.5,183.2z M235.8,120.6 c0.2-0.1,0.4-0.1,0.6-0.2c9.2,12.1,17.9,24.3,25.1,37.4c-11.1,5.9-22.7,9.8-34.8,13.5c-0.2,0.1-0.4,0.1-0.7,0.2 C224.4,153.8,226.5,135.5,235.8,120.6z M229.9,228.7c-5.6,0.4-11.2,0.6-16.8,0.6c-3.8,0-7.5-0.1-11.1-0.6 c-4.2-8.6-6.9-17.8-7.3-26.8c-0.2-4.5,0-9.1,0.5-13.7c0.9,0,1.8,0,2.6,0c6.2,0.1,12.2-1.3,18.3-2.7c0.3-0.1,0.6-0.1,0.9-0.2 c0.8,4.5,1.7,9,2.8,13.4C222.2,208.8,225.6,218.9,229.9,228.7z M218.6,133c-3.9,13.2-4.6,27.4-3.2,41.4 c-6.1,1.5-12.3,2.6-18.6,2.8c1.5-7.2,3.8-14.3,6.6-21C206.9,147.8,211.8,139.3,218.6,133z M198.9,140.6c-1.8,3.1-3.5,6.3-4.9,9.5 c-3.8,8.5-6.6,17.5-8.3,26.8c-1.5-0.1-3-0.2-4.4-0.4c-1.8-0.2-3.7-0.5-5.5-0.8c0.2,0-0.3-0.1-0.8-0.2c-0.5-1.1-1.5-2-2.7-2.5 C177.5,160.3,188.6,149,198.9,140.6z M173.8,219.4c-0.5,0-0.9,0-1.3,0c-0.4-1.8-0.8-3.6-1.1-5.3c-1.5-9-1.6-18.2-0.3-27.2 c0.1-0.3,0.1-0.7,0.1-1c4.2,1.3,9.3,1.6,12.1,1.8c0.3,0,0.6,0,0.9,0.1c-0.5,5.4-0.7,10.8-0.5,16.1c0.3,7.1,2,14.2,4.6,21.2 C183.5,222.7,179,219.8,173.8,219.4z M209.8,266.9c-10.1-4.3-18.4-9.8-24.9-18.8c-3.7-5.1-6.6-10.7-8.8-16.6 c1.4,0.7,2.8,1.5,4.2,2.3c3.3,1.8,7.1,2.8,10.7,4c1.2,0.4,2.5,0.7,3.7,1c3.9,6.9,8.5,13.3,13.3,18.8c4.7,5.5,10.2,10.3,16.1,14.2 C219.2,270.4,214.4,268.8,209.8,266.9z M215.3,249.2c-2.3-2.8-4.6-5.8-6.7-9c1.2,0,2.3,0,3.5,0c7.7,0,15.3-0.4,22.9-1.1 c5.9,11.4,13.2,22.1,21.7,31.3C240.1,271.1,225.7,261.6,215.3,249.2z M280.3,265.7c-1.9,1.3-3,3.6-1.9,6c-1.7,0.5-3.4,1-5.2,1.4 c-0.1-3.2-0.9-5.9-2.9-8.4c-1.6-2-3.9-2.4-5.9-1.9c-6.9-7.5-12.8-16-17.8-25.1c4-0.6,8-1.4,12-2.2c7.2-1.6,14.4-3.4,21.5-5.4 C280.7,241.8,280.5,253.8,280.3,265.7z M318,238.1c-6.2,12.7-15.3,22.1-26.8,28.3c0.1-13.3,0.3-26.5-0.4-39.6 c1.8-0.6,3.7-1.1,5.5-1.7c10.2-3.3,20.5-7.4,29.5-13.4C324.7,220.8,322.1,229.7,318,238.1z M325.7,198.2 c-10.4,8.4-22.8,13.6-35.6,17.5c-1.1-11.6-3.1-23.2-6.6-34.7c-2-6.6-4.5-12.9-7.4-19c9.9-6.2,19.3-13.2,28.7-20.2 c10.8,12.1,18.1,27.8,20.7,44.1c0.6,3.9,1,7.8,1.1,11.7C326.2,197.8,325.9,198,325.7,198.2z"></path><path d="M151,347.9c-2.6-5.1-6-10.6-11.3-13.3c-4.8-2.5-8.7,0-10.9,3.9c-2.7,0.2-5.5,2.2-5.6,5.7c-0.7,25.4,12.7,48.7,12,74 c-0.2,7.1,10.8,6.2,11-0.8c0.4-12.9-2.9-25.2-6.1-37.5C153,376.2,156.6,359.2,151,347.9z M137.4,369.3 c-1.6-6.7-2.8-13.4-3.1-20.3c1.2-0.3,2.3-1,3.1-2.2c1.8,2.2,3.3,4.6,4.4,7.2C143.3,357.5,143.2,368.2,137.4,369.3z"></path><path d="M190.2,401.9c1.4,0.8,2.1,1.8,2.4,2.3c-0.1-0.2-0.1-0.3-0.2-0.6c-0.1-0.5-0.1-0.5-0.3-1.6c-0.4-2.3-0.8-4.7-1.2-7 c-0.9-5.6-1.7-11.2-2.6-16.9c-2.4-15.1-9.5-28.5-13.3-43.1c-1.1-4.1-5.3-4.4-8.1-2.5c-1.7-0.5-3.7-0.1-5.3,1.7 c-3.1,3.7-3.2,8.9-3.4,13.5c-0.3,6.1,0.2,12.2,0.6,18.3c1,16.3,1.4,32.9,1.5,49.2c0,7.1,11,6.2,11-0.8v-2c0-0.1,0-0.3,0-0.4 c0-8.5-0.2-17.1-0.5-25.6c0.6,0,1.2-0.1,1.8-0.4c1.4-0.6,1.6-0.5,3.5-0.8c0.7-0.1,1.4-0.2,2.1-0.3c0.8,5.2,1.6,10.4,2.5,15.6 c0.7,4,0.8,9,4.6,11.3C191.4,415.4,196.2,405.5,190.2,401.9z M170.3,375.1c-0.1-2-0.2-4-0.3-5.9c-0.3-5.5-0.7-11-0.8-16.5 c1.7,4.5,3.4,8.9,4.9,13.4c0.8,2.2,1.4,4.5,2,6.8c0.1,0.5,0.2,0.9,0.3,1.2C174.4,374.3,172.3,374.5,170.3,375.1z"></path><path d="M192.6,404.1C192.8,404.7,192.8,404.6,192.6,404.1L192.6,404.1z"></path><path d="M222.6,377.9c-5.4-8.7-14.8-13.4-18.5-23.3c-1.8-4.8-2.2-10.3-0.1-15.1c0.5-1.1,1.3-1.8,2.3-2.4c0,0,0,0.1,0,0.1 c-0.4,7.1,10.6,6.1,11-0.8c0.6-9.7-9.1-13.2-16.7-8.7c-8.8,5.3-10.2,17.1-8,26.4c2.5,10.8,9.2,17.2,16.7,24.8c3,3,7.6,8,5.6,12.6 c-0.5,1.2-2.6,2.3-3.6,2.9c-0.8,0.5-1.7,0.9-2.6,1.3c-0.1,0-0.1,0-0.2,0.1c-3.6-3.3-10.9,0.2-8.9,6c3.1,9.2,14.1,4.5,19.6,0.6 C227.7,396.1,227.7,386.3,222.6,377.9z"></path><path d="M250.1,371.3c-3-3.4-6.6-6.3-9.8-9.6c-3.3-3.4-3.5-9.4-3.5-13.8c-0.1-3.2,0.2-8.6,3-10.7c2.4-1.7,5.9-1.6,6.7,1.4 c2,6.8,12.3,3.2,10.4-3.6c-2.6-9-12.3-11.6-20.4-8.4c-9.8,3.8-11.2,15.7-10.7,24.9c0.3,5.2,1.7,10.2,4.1,14.7 c2.3,4.2,6.9,7.6,10.3,10.8c3.2,3.1,5.8,6.3,6.4,10.9c0.3,2.6,0,5.5-1.1,7.8c-0.7,1.5-3.4,4.2-5.2,2.9c-5.8-4-13.1,4.2-7.3,8.3 c8.9,6.2,19.7,1.3,23.3-8.6C260,388.5,256.7,378.7,250.1,371.3z"></path><path d="M295.7,335.8c-1.6-5.8-5.6-10.6-11-13.3c-4.3-2.1-8.5-1.6-12.3,0.3c-3.3-1.3-8.1,0.6-8.1,5.3c0.1,12.8,1.8,25.5,2.9,38.2 c0.6,6.7,1.8,13.3,2.1,20.1c0,0.8,0.7,4.1,0.7,4.1c0.2,1.1,0.2,2.2,0.3,3.2c1,7.2,10.6,6.1,11-0.8c0-0.5,0-1.1,0-1.6 c0-0.8-0.2-1.5-0.4-2.1c-0.2-1.5-0.5-2.9-1.3-4.2c0.9,1.1,1.1,0.8,0.6-1.1c-0.1-1.8-0.3-3.6-0.4-5.3c-0.4-3.8-0.9-7.5-1.5-11.3 c0-0.1,0-0.1,0-0.2c0.9-0.2,1.9-0.8,2.7-1.8c1.5-1.8,4.7-2.5,6.8-3.5c2.8-1.3,5.3-3.1,6.9-5.8 C298.2,350.2,297.5,342.2,295.7,335.8z M276.7,355.1c-0.7-7.1-1.2-14.2-1.4-21.3c0.2-0.1,0.4-0.3,0.5-0.4 c2.7-2.4,5.6-0.7,7.5,1.8c2.3,2.9,2.4,7,2.7,10.5C286.6,351.6,281.3,352.8,276.7,355.1z"></path><path d="M326.6,355.5c-0.2-9.1,0.2-18.3-0.3-27.3c-0.4-6.8-4.3-13.7-12.1-11.1c-2.7,0.9-4.7,2.9-6,5.4c-2.3,0.1-4.4,1.4-4.8,4.3 c-2.6,19-1.1,37.5,1.2,56.3c0.8,6.1,2.4,13.3,9.8,14c7.7,0.7,10.7-7,11.6-13.3C327.1,374.5,326.7,364.8,326.6,355.5z M315.3,380 c-0.3-2.7-0.5-5.4-0.9-8c-1.9-11.2-2.1-22.8-1.2-34.1c0.8-0.3,1.6-0.8,2.3-1.5c-0.1,2.2-0.1,4.4-0.1,6.5 C315.5,355.2,316.5,367.8,315.3,380z"></path><path d="M368.3,385.7c-6.2-9.9-8.9-24.8-17.5-33.4c2.5-7,2.2-15.9,1.7-22.2c-0.5-5.7-3.1-10.9-7.1-14.9 c-5.9-5.9-13.1-1.9-16.6,4.2c0,0,0,0.1-0.1,0.1c-1.5,0.9-2.5,2.5-2.5,4.7c0.1,11.1,1.4,22.1,2.5,33.1c0.5,4.8,0.5,9.6,1.1,14.4 c0.5,4.1,1.4,8,1.4,12.2c0,7.1,11,6.2,11-0.8v-1.7c0-0.4,0-0.9-0.1-1.2c-0.2-2.5-0.6-5-1-7.6c-0.5-3.4-0.8-6.9-1-10.3 c1.2-0.1,2.4-0.4,3.6-0.9c1.3,1.5,2.4,3.2,3.4,4.8c5.1,8.1,7,17.7,12.1,25.8C362.9,397.9,372,391.7,368.3,385.7z M340.8,346.4 c-0.7-0.1-1.4-0.2-2.1-0.1c-0.7-6.8-1.3-13.6-1.4-20.5c0.5-0.4,1-1,1.4-1.7c0,0,0.1-0.1,0.1-0.1c0.8,1.1,1.4,2.3,2,3.5 c0.8,2,0.8,4.2,0.9,6.3C341.8,338,341.7,342.4,340.8,346.4z"></path><path d="M374.1,313.8c0-0.3,0-0.6,0-0.9c1.8,0.3,3.6,0.8,5.2,1.8c6.1,3.6,11-6.3,4.9-9.9c-7.8-4.6-17.3-2.7-25.9-2.6 c-7.1,0.1-6.2,11.1,0.8,11c1.3,0,2.7-0.1,4.1-0.2c-0.9,19.6,10.4,36.7,12.6,55.5c-0.6,0.9-0.9,2.1-0.6,3.7c0.3,1.3,0.8,2.7,1,4 c0.8,7.2,10.8,6.1,11-0.8C387.8,353.9,372.6,335.1,374.1,313.8z"></path></svg>