<svg xmlns="http://www.w3.org/2000/svg" x="0px" y="0px"
width="48" height="48"
viewBox="0 0 512 512"
style=" fill:#000000;"><path fill="#3AB37C" d="M402.7 69.3c-.4-.4-.8-.8-1.3-1.1-1.2-.9-2.4-1.7-3.7-2.4-1.5-.8-3-1.6-4.6-2.3-1.1-.4-.8-.4-1.4-.5-.3-.1-1.8-.3-.2-.2-1.6-.1-3.1-.6-4.2-1.6-4.5 2-9.1 3.7-13.8 4.9 6.7 5.4 13.7 10.6 18.1 18.1 3.6 6.1-5.5 12.3-9.1 6.2-5.4-9-15-14.4-22.5-21.4-6.1.9-12.2 1.5-18.4 2 6 5.3 11.6 11 17.8 16.1 2.1 1.7 1.8 1.6 3.6 2.7 1.6 1 3 2 3.7 3.8 1.3 3.8-1.3 6.8-4.7 7.9-3.5 1.2-6.2-1.1-7-3.8-.8-.5-1.5-1.1-2-1.7-2.2-2.9-6.2-5.3-8.8-7.8-5.3-5.2-10.9-10.1-16.7-14.7-.4-.3-.8-.7-1.1-1.1-4.3.5-8.7 1-13 1.8 2 1.4 3.1 3.9 1.6 6.7 0 0 0 0 0 .1 0 0 0 .1 0 .2-.1-.7.4 1.3.4 1.2.6 1.4 1.2 2.7 2.1 3.9 2.2 3.4 4.8 6.6 7.5 9.5 3 3.2 6.1 6.4 9.4 9.3 1.2 1 2.3 2.1 3.6 3.1.4.3 3 2.2 1.6 1.3 5.9 3.7 1.1 13.6-4.9 9.9-7.7-4.8-14.2-12-20.1-18.8-5.1-5.9-13.9-16.1-9.4-24.6 0-.1.1-.1.1-.2-3.3.7-6.6 1.5-9.8 2.5-9.7 2.8-21.2 7-30.7 13.2-.1.5-.2 1.1-.2 1.6 15.6 1.7 28.1 12.2 40.9 20.9 14.5 9.9 33.8 16.2 51.5 13.7 19.6-2.8 29.8-24.5 39.2-39.7 3.1-5 5.9-10.1 8.8-15.2C403.8 71.8 402.9 70.7 402.7 69.3zM226.4 80.4c-2.4-5.8-5-11.6-6.7-17.6-.7-2.5-1.5-5.2-1.5-7.9-4.4-1.7-11.5-3.1-16.9-3.1-1.7 0-3.4 0-5 .3-.1 0-.2.1-.4.1.1.3.2.7.4 1.1.6 1.5 1.9 2.6 3.1 3.6 4.1 3.4 8.7 6 13 9.1 4 3 7 6.6 10.1 10.6 1.7 2.2 3.4 4.4 5.1 6.7C227.2 82.4 226.8 81.4 226.4 80.4z"></path><path fill="#3AB37C" d="M424.8,44.5c-5-0.6-10.2-0.4-15.1-0.9c-8.8-0.8-17.5-2.8-26.1-4.5c-18.9-3.6-37.2-5.2-56,0C312.5,43.4,298,50.7,286.2,61c-4.3,3.7-9.1,8.3-13,13.4c5.2-2.3,10.4-4.2,15.3-5.7c14.7-4.6,29.8-7,45.2-8.2c15.9-1.3,31.9-2.4,46.7-8.3c0.7-1.4,2.1-2.4,4.3-2.4h2c2.1,0,3.6,0.8,4.6,2.1c5,0.4,9.7,3,13.9,5.7c2,1.3,4.3,2.9,6,4.8c3.9-6.1,8.2-11.9,13.6-17.1C424.8,44.9,424.8,44.7,424.8,44.5z"></path><path fill="#FEBF10" d="M362.7,311.6c-15.3-26.7-31.8-53.6-43.3-82.2c-15.7-39-26.5-87.1-68.2-106.1c-0.6,0.2-1.1,0.3-1.7,0.4c-2.3,0.4-4-0.5-4.8-2c0,0-0.1,0.1-0.1,0.1c0,0.9,0,1.8,0,2.6c0,0.1,0,0.2,0,0.3v2c0,7.1-10.9,7.9-11,0.8c0-2.2,0-4.4-0.1-6.6c-9.4,1.1-18.3,4.6-26.9,10.4c-10.8,7.2-19.9,16.6-25.7,28.3c-6.2,12.6-9.5,26.4-12.1,40.1c-1.7,8.8-2.8,17.8-4.9,26.5c-1.6,6.6-5.1,13.6-5.4,20.4c-0.2,4.4-4.7,6.4-7.8,5.5c-7.7,7.6-15.5,15.1-22.9,23.1c-35.6,38.4-68.1,93.5-46.8,147c16.1,40.4,57.1,62.9,97.7,72c14.5,3.3,29.2,5.1,43.9,5.4c-0.3-0.2-0.7-0.4-1-0.6c-1-0.6-1.7-1.4-2.2-2.3c-2.2-1.3-3.6-3.9-2.3-7.1c0.6-1.4,1.5-2.7,2.5-3.8c0.4-0.5,0.8-1,1.3-1.4c1.4-1.4,3.1-1.9,4.6-1.6c1.6-0.2,3.2,0.1,4.9,0.9c0.4,0.2,0.8,0.4,1.1,0.6c1.4-0.8,3.2-1,4.9-0.2c1.6,0.7,3.3,1.3,5.1,1.4c3,0.2,5.7,1.8,5.9,5.1c0.2,2.1-1.2,4.7-3.3,5.6c0,0,0,0,0,0c0.3,0.9,0.4,1.8,0.2,2.7c20-1.7,39.7-6.3,58.6-14.2c39.1-16.3,76.1-47.1,83.2-91C391.1,363.9,377.1,336.7,362.7,311.6z M111.2,346.8c-1.2,1.7-2,5.5-2.6,8c-0.3,1.5-0.6,3.1-0.9,4.6c-0.1,0.5-0.3,3.4-0.2,1.3c-0.1,3-1.8,5.7-5.1,5.9c-2.7,0.2-6-2.1-5.9-5.1c0.2-7.4,2.1-15.9,6.4-22.1c1.7-2.5,5.7-2.3,7.8-0.5C113.2,341.2,112.9,344.4,111.2,346.8z M126,306.6c-1,2.8-5,3.7-7.4,2.5c-2.9-1.5-3.4-4.5-2.5-7.4c0.3-0.7,0.5-1.5,0.8-2.2c0-0.1,0.1-0.2,0.1-0.3c0-0.1,0-0.2,0.1-0.3c0.1-0.5,0.3-1,0.4-1.5c0-0.1,0.1-1.8,0.1-0.8c0.1-3,1.9-5.7,5.1-5.9c2.8-0.2,6,2.1,5.9,5.1C128.5,299.7,127.3,303,126,306.6z M159.2,289.8c-2.1,2.1-4.3,4.2-6.2,6.6c-1.5,1.8-2.3,3.4-3.7,5.2c-1.2,1.5-3.3,2.1-5.2,1.8c-2.1-0.4-3.2-1.8-4.1-3.6c-0.3-0.7-0.3-1.5-0.3-2.2c0-2,0.9-3.9,2.4-5c0.1-0.2,0.2-0.3,0.4-0.5c0.9-0.9,1.5-2,2.3-3c1.9-2.3,4.1-4.5,6.2-6.6c2.1-2.1,5.4-2.6,7.8-0.5C160.9,283.9,161.3,287.7,159.2,289.8z M187,251.6c-1.1,2.3-1.9,4.7-3,7c-1.3,2.7-4.7,3.8-7.4,2.5c-2.7-1.3-3.8-4.7-2.5-7.4c1.1-2.3,1.9-4.7,3-7c1.3-2.7,4.7-3.8,7.4-2.5C187.2,245.6,188.3,248.9,187,251.6z M194.5,192.2c-1.1,7.5-3,14.8-5,22c-1.9,6.8-12.7,4.7-10.8-2.1c2-7.2,3.9-14.5,5-22C184.8,183.1,195.5,185.2,194.5,192.2z M215.6,281.8c0,7.1-11,7.9-11,0.8v-17c0-7.1,11-7.9,11-0.8V281.8z M234.5,240.3c-3.7-6.5-5.8-14.1-5.9-21.7c-0.1-7.1,10.8-7.9,11-0.8c0.1,5.6,1.3,11.5,4.1,16.3C247.1,240.2,238,246.4,234.5,240.3z M287,205.6c2.3-1.5,6.2-1.2,7.6,1.5c3.5,6.7,9.3,11.9,11.6,19.3c2.1,6.8-8.2,10.4-10.4,3.6c-2-6.4-7.3-10.9-10.4-16.7C284.1,210.6,284.3,207.4,287,205.6z M297.5,284.3c-2.4-4.3-4.4-8.8-7-13c-4.2-6.7-8.4-12.7-9.9-20.7c-1.3-7,9.7-7.7,11-0.8c1.3,6.7,6.3,12.1,9.5,18c1.8,3.5,3.7,6.9,5.6,10.3C310.1,284.3,301,290.5,297.5,284.3z M309.5,315.3c-1.3-2.5-2.8-4.7-2.9-7.7c-0.1-3,2-5.7,5.1-5.9c2.9-0.2,5.8,2.1,5.9,5.1c0,0.1,0,0.2,0,0.4c0.1,0.2,0.2,0.5,0.3,0.6c0.3,0.5,0.5,0.9,0.8,1.4c0.7,1.4,1.1,2.6,0.8,4.1c-0.3,1.4-1.1,2.7-2.3,3.5C314.9,318.3,310.9,317.9,309.5,315.3z M332.2,451.8c-0.4,0.4-0.7,0.8-1.1,1.3c-0.2,0.3-0.7,1.1-0.8,1.3c-0.9,1.4-1.7,2.8-2.7,4.1c-2.3,3-5.7,4.8-9.6,4.1c-6.6-1.3-5.1-10.9,0.9-10.9c0.2-0.3,0.4-0.5,0.6-0.8c0,0,0,0,0-0.1c0-0.1,0.1-0.1,0.1-0.2c1.3-2.1,2.5-4.3,4.2-6.1c2.1-2.2,5.4-2.5,7.8-0.5C333.9,446,334.3,449.7,332.2,451.8z M326.6,369.6c-1.2-9.6-3.7-18.8-1.9-28.5c1.3-7,12.1-4.9,10.8,2.1c-1.6,8.6,1,17.1,2.1,25.5C338.5,375.8,327.5,376.6,326.6,369.6z M339.9,315c-2.8-6.5,7.6-10.1,10.4-3.6c5.4,12.6,13,24.2,12.3,38.4c-0.3,7-11.3,7.9-11,0.8C352.2,337.5,344.9,326.7,339.9,315z M371.5,403.2c-3.5,11.4-1.3,23.7-9.3,33.6c-4.4,5.5-12.7-1.7-8.3-7.3c6.2-7.7,4-19.4,6.7-28.4C362.7,394.4,373.6,396.5,371.5,403.2z"></path><path d="M63.8,377.7c-0.6,8.2-0.3,16.4,0.8,24.5v-31.8C64.2,372.8,63.9,375.2,63.8,377.7z"></path><path d="M436.3,40.9c0.2-2.5-1.1-5.2-4.1-6.1c-6.9-2-14.6-1.4-21.8-2c-9.5-0.8-19-3.3-28.3-5c-10.1-1.9-20.3-3.2-30.6-3.2c-9.7,0-19.7,2.1-29,4.7c-16.2,4.5-31.9,13.2-44.4,24.4c-9,8-19.4,19-23.1,31.3c-4.8,3.6-9,7.7-12.3,12.4c-0.9-5.7-2.3-11.2-4.3-16.5c-2-5.1-4.2-10.1-6.1-15.3c-0.9-2.4-1.8-4.9-2.5-7.4c-0.3-1-0.5-1.9-0.6-2.9c-0.1-0.6,0.2-1.3-0.1-0.6c1.6-3.4-0.4-6.4-3.1-7.4c-0.5-0.8-1.3-1.5-2.4-1.9c-10-4.1-38.3-10.7-39,6.7c-0.4,10.8,13.4,17.3,20.5,22.4c5,3.6,8.5,8.6,12.1,13.4c4.5,5.9,8.6,12.3,9.4,19.8c0.1,1.3,0.6,2.3,1.3,3.1c-8.1,1.4-15.9,4.4-23.4,9c-12.7,7.8-23.4,17.8-31,30.7c-7.7,12.8-10.8,27.4-14.2,41.7c-2.4,10-3.5,20.3-5.7,30.3c-1.2,5.5-3.2,10.9-4.6,16.4c-0.4,0.2-0.7,0.5-1.1,0.8c-20,20-40.1,39.4-55.9,63.1c-13.6,20.4-24.1,43.3-27.5,67.7v31.8c2.3,16.1,8.2,31.6,17.4,45.2c11.8,17.5,28.8,30.8,47.3,40.6c36.7,19.5,82.4,26.7,123.6,21.5c42.6-5.3,85.8-23.9,115.2-55.7c14.6-15.8,24.8-35.4,28.8-56.6c5.4-28.6-5.2-55.9-18.7-80.6c-15.2-27.9-31.9-54.8-45.3-83.7c-9.6-20.7-15.6-42.8-25.3-63.5c-10.8-23.1-26.2-43.7-49.3-54.9c-0.5-1.7-1.8-3.2-4.1-3.6c-1.9-0.3-3.8-0.6-5.7-0.8c1.2-3.2,3-6.2,5.2-8.9c0.9,1.6,2.6,2.7,4.9,2.5c18-1.1,32.5,14.1,46.7,23c15.2,9.5,36.3,14.1,54,11.5c20.4-3,32.1-21.8,42.2-38c10.6-17.1,18.4-37.9,34.7-50.5C439.5,47.2,439,42.9,436.3,40.9z M222.5,76.7c-3.1-3.9-6.1-7.5-10.1-10.6c-4.2-3.2-8.9-5.8-13-9.1c-1.2-1-2.4-2.2-3.1-3.6c-0.2-0.5-0.3-0.9-0.4-1.1c0.2-0.1,0.3-0.1,0.4-0.1c1.6-0.3,3.3-0.3,5-0.3c5.4,0,12.5,1.4,16.9,3.1c0.1,2.7,0.8,5.4,1.5,7.9c1.7,6,4.3,11.8,6.7,17.6c0.4,1,0.8,2,1.1,3C225.9,81.1,224.2,78.9,222.5,76.7z M249.5,123.7c0.6-0.1,1.2-0.2,1.7-0.4c41.6,19,52.5,67.1,68.2,106.1c11.5,28.7,28,55.5,43.3,82.2c14.4,25.1,28.4,52.3,23.6,82.2c-7.1,43.9-44.1,74.7-83.2,91c-18.9,7.9-38.6,12.5-58.6,14.2c0.1-0.8,0.1-1.7-0.2-2.7c0,0,0,0,0,0c2.1-0.9,3.5-3.4,3.3-5.6c-0.2-3.3-2.9-4.9-5.9-5.1c-1.8-0.1-3.5-0.7-5.1-1.4c-1.7-0.8-3.5-0.6-4.9,0.2c-0.4-0.2-0.7-0.5-1.1-0.6c-1.7-0.8-3.3-1.1-4.9-0.9c-1.6-0.2-3.2,0.2-4.6,1.6c-0.5,0.5-0.9,0.9-1.3,1.4c-1,1.1-1.9,2.3-2.5,3.8c-1.4,3.1,0.1,5.8,2.3,7.1c0.5,0.9,1.2,1.7,2.2,2.3c0.3,0.2,0.7,0.4,1,0.6c-14.7-0.3-29.3-2.2-43.9-5.4c-40.6-9.1-81.6-31.6-97.7-72c-21.3-53.4,11.2-108.6,46.8-147c7.4-7.9,15.2-15.5,22.9-23.1c3.2,0.9,7.6-1.1,7.8-5.5c0.3-6.8,3.8-13.8,5.4-20.4c2.1-8.7,3.2-17.7,4.9-26.5c2.6-13.7,5.9-27.6,12.1-40.1c5.8-11.8,14.8-21.1,25.7-28.3c8.7-5.8,17.5-9.2,26.9-10.4c0.1,2.2,0.1,4.4,0.1,6.6c0,7.1,11,6.2,11-0.8v-2c0-0.1,0-0.2,0-0.3c0-0.9,0-1.8,0-2.6c0,0,0.1-0.1,0.1-0.1C245.6,123.2,247.2,124.1,249.5,123.7z M396.2,87.7c-9.4,15.2-19.6,36.9-39.2,39.7c-17.7,2.6-37.1-3.8-51.5-13.7c-12.8-8.8-25.4-19.2-40.9-20.9c0.1-0.5,0.1-1.1,0.2-1.6c9.5-6.3,21-10.4,30.7-13.2c3.3-1,6.5-1.8,9.8-2.5c0,0.1-0.1,0.1-0.1,0.2c-4.5,8.4,4.3,18.6,9.4,24.6c5.8,6.8,12.4,14,20.1,18.8c6,3.8,10.8-6.1,4.9-9.9c1.4,0.9-1.2-1-1.6-1.3c-1.2-1-2.4-2-3.6-3.1c-3.3-3-6.4-6.1-9.4-9.3c-2.8-3-5.3-6.2-7.5-9.5c-0.8-1.3-1.5-2.5-2.1-3.9c0.1,0.1-0.5-1.9-0.4-1.2c0-0.1,0-0.1,0-0.2c0,0,0,0,0-0.1c1.5-2.8,0.4-5.3-1.6-6.7c4.3-0.7,8.6-1.3,13-1.8c0.3,0.4,0.6,0.8,1.1,1.1c5.9,4.5,11.4,9.5,16.7,14.7c2.6,2.6,6.6,5,8.8,7.8c0.5,0.6,1.2,1.2,2,1.7c0.8,2.7,3.5,5,7,3.8c3.4-1.1,6-4.2,4.7-7.9c-0.6-1.8-2.1-2.8-3.7-3.8c-1.8-1.1-1.5-1-3.6-2.7c-6.2-5.1-11.8-10.8-17.8-16.1c6.2-0.5,12.3-1.1,18.4-2c7.5,7.1,17.2,12.4,22.5,21.4c3.6,6.1,12.7-0.1,9.1-6.2c-4.4-7.5-11.4-12.7-18.1-18.1c4.7-1.3,9.3-2.9,13.8-4.9c1.1,1,2.6,1.5,4.2,1.6c-1.6-0.1-0.1,0.1,0.2,0.2c0.6,0.1,0.3,0.1,1.4,0.5c1.6,0.7,3.1,1.5,4.6,2.3c1.3,0.7,2.5,1.5,3.7,2.4c0.5,0.3,0.9,0.7,1.3,1.1c0.3,1.5,1.2,2.6,2.3,3.3C402.1,77.6,399.3,82.7,396.2,87.7z M411.2,62.2c-1.7-1.9-4-3.5-6-4.8c-4.2-2.7-8.9-5.2-13.9-5.7c-1-1.2-2.5-2.1-4.6-2.1h-2c-2.2,0-3.6,1-4.3,2.4c-14.9,5.9-30.8,7-46.7,8.3c-15.4,1.2-30.4,3.6-45.2,8.2c-4.9,1.5-10.1,3.4-15.3,5.7c4-5.1,8.8-9.7,13-13.4c11.8-10.3,26.3-17.7,41.4-21.8c18.8-5.2,37.1-3.6,56,0c8.6,1.6,17.3,3.7,26.1,4.5c4.9,0.4,10.1,0.2,15.1,0.9c0,0.2,0,0.4,0,0.6C419.4,50.3,415.1,56.1,411.2,62.2z"></path><path d="M184.5 244.3c-2.7-1.3-6.1-.2-7.4 2.5-1.1 2.3-1.9 4.7-3 7-1.3 2.7-.2 6 2.5 7.4 2.7 1.3 6.1.2 7.4-2.5 1.1-2.3 1.9-4.7 3-7C188.3 248.9 187.2 245.6 184.5 244.3zM158.7 282.1c-2.4-2.1-5.6-1.6-7.8.5-2.1 2.1-4.3 4.3-6.2 6.6-.8 1-1.5 2.1-2.3 3-.1.1-.3.3-.4.5-1.6 1.1-2.4 3-2.4 5 0 .7 0 1.5.3 2.2.9 1.8 2.1 3.2 4.1 3.6 1.8.4 4-.3 5.2-1.8 1.4-1.8 2.3-3.4 3.7-5.2 1.9-2.4 4.1-4.5 6.2-6.6C161.3 287.7 160.9 283.9 158.7 282.1zM183.7 190.1c-1.1 7.5-3 14.8-5 22-1.9 6.8 8.9 8.9 10.8 2.1 2-7.2 3.9-14.5 5-22C195.5 185.2 184.8 183.1 183.7 190.1zM204.6 265.6v17c0 7.1 11 6.2 11-.8v-17C215.6 257.7 204.6 258.6 204.6 265.6zM243.7 234.1c-2.8-4.9-4-10.8-4.1-16.3-.1-7.1-11.1-6.2-11 .8.1 7.5 2.2 15.1 5.9 21.7C238 246.4 247.1 240.2 243.7 234.1zM306.7 278.1c-1.9-3.4-3.8-6.9-5.6-10.3-3.1-5.9-8.2-11.3-9.5-18-1.3-6.9-12.3-6.1-11 .8 1.5 7.9 5.8 13.9 9.9 20.7 2.6 4.2 4.6 8.7 7 13C301 290.5 310.1 284.3 306.7 278.1zM306.3 226.4c-2.3-7.4-8.1-12.5-11.6-19.3-1.4-2.7-5.3-3-7.6-1.5-2.7 1.8-2.9 5-1.5 7.6 3.1 5.8 8.3 10.4 10.4 16.7C298 236.8 308.4 233.1 306.3 226.4zM350.3 311.4c-2.8-6.5-13.2-2.9-10.4 3.6 5 11.6 12.3 22.4 11.7 35.6-.3 7.1 10.6 6.2 11-.8C363.2 335.6 355.7 323.9 350.3 311.4zM337.6 368.8c-1.1-8.5-3.7-17-2.1-25.5 1.3-7-9.5-9.1-10.8-2.1-1.8 9.7.7 18.9 1.9 28.5C327.5 376.6 338.5 375.8 337.6 368.8zM360.7 401.1c-2.7 9-.6 20.8-6.7 28.4-4.4 5.5 3.8 12.8 8.3 7.3 7.9-9.9 5.8-22.2 9.3-33.6C373.6 396.5 362.7 394.4 360.7 401.1zM331.7 444.1c-2.3-2-5.7-1.7-7.8.5-1.7 1.8-2.9 4-4.2 6.1-.1.1-.1.2-.1.2 0 0 0 0 0 .1-.2.3-.4.5-.6.8-6 0-7.5 9.6-.9 10.9 3.8.8 7.2-1.1 9.6-4.1 1-1.3 1.9-2.7 2.7-4.1.1-.2.7-1 .8-1.3.3-.4.7-.9 1.1-1.3C334.3 449.7 333.9 446 331.7 444.1zM318.7 309.1c-.2-.5-.5-.9-.8-1.4-.1-.1-.2-.4-.3-.6 0-.1 0-.2 0-.4-.1-3-3-5.3-5.9-5.1-3.1.2-5.2 2.9-5.1 5.9.1 2.9 1.6 5.1 2.9 7.7 1.4 2.7 5.4 3 7.6 1.5 1.2-.8 2-2.1 2.3-3.5C319.8 311.7 319.3 310.5 318.7 309.1zM110.7 339.1c-2-1.8-6.1-2-7.8.5-4.2 6.1-6.1 14.7-6.4 22.1-.1 3 3.2 5.3 5.9 5.1 3.2-.2 5-2.9 5.1-5.9-.1 2.1.2-.8.2-1.3.2-1.6.5-3.1.9-4.6.5-2.5 1.4-6.4 2.6-8C112.9 344.4 113.2 341.2 110.7 339.1zM122.7 290.7c-3.2.2-5 2.9-5.1 5.9 0-1-.1.7-.1.8-.1.5-.2 1-.4 1.5 0 .1-.1.2-.1.3 0 .1-.1.2-.1.3-.3.7-.5 1.5-.8 2.2-1 2.8-.5 5.9 2.5 7.4 2.4 1.2 6.4.4 7.4-2.5 1.2-3.7 2.5-7 2.6-10.9C128.6 292.8 125.4 290.5 122.7 290.7z"></path></svg>