<svg xmlns="http://www.w3.org/2000/svg" x="0px" y="0px"
width="48" height="48"
viewBox="0 0 512 512"
style=" fill:#000000;"><path fill="#3AB37C" d="M405.7,373c0-0.1,0-0.2-0.1-0.3c-0.1-0.1-0.1-0.2-0.2-0.3c-0.1-0.2-1-1.1-1.3-1.3c-0.2-0.2-0.7-0.4-1-0.6c-0.1,0-0.2,0-0.2,0c-0.1,0.1-0.3,0.1-0.4,0.2c0,0.1-0.8,1-0.8,0.9c-0.6,0.9-1,2.1-1.2,3.3c0.3,0.1,0.6,0.2,0.9,0.3c1.7,0.8,2.8,0.3,3.9-1.2c-0.1,0.1,0.2-0.2,0.2-0.6C405.6,373.2,405.7,373.1,405.7,373z"></path><path fill="#EF4823" d="M435.7,386.7c-6.7-9.9-16.1-17.2-21.3-28.2c-5-10.7-3.6-26-12.9-34.4c-8.9-8-21.7-6.2-27.7,4.4c-5.9,10.5-8.6,22.6-17.5,31.3c-7.7,7.4-16.4,14.1-22.8,22.8c-6.9,9.3-6.7,18.3,0.1,27.7c0.5,0.6,0.7,1.3,0.9,1.9c7.7,7.5,21.6,5,31.7,7.1c13.6,2.9,27.6,10.3,41.7,7.8C424.9,424,448.4,405.7,435.7,386.7z M363.1,384.9c-1.4-0.7-2.5-2.1-2.6-4.3c-0.4-6.9,2.9-14.7,10-17c6.7-2.2,13.8,1.2,16,8.1c2.3,7.3,0.2,14.5-6.7,18.3C373.5,393.5,365.6,392,363.1,384.9z M413.6,381.4c-2.1,2.6-5,4.3-8,4.9c1.4,1.8,2.3,4.1,2.3,6.6c0,11.5-14.2,16.7-23.9,13.8c-2.9-0.9-5-3.3-4.3-6.4c0.3-1.3,1.1-2.6,2.2-3.4c-1.4-1.7-2-4.1-0.8-6c2.4-3.6,6.1-7,10.3-8.5c-1-0.8-1.7-2-1.9-3.7c-0.6-6.1,1.6-12.5,6.2-16.6c5.2-4.6,12.5-2.8,16.9,2C417.2,369.1,418,376,413.6,381.4z"></path><path fill="#EF4823" d="M443.8,367.1c-8.5-11.4-14.9-23-20.4-36.1c-5.2-12.3-10.3-26.9-23.8-32.4c-12.9-5.3-24.5,2.2-32.7,11.9c-7.9,9.4-13.9,20.2-21.7,29.7c-5.9,7.2-12.4,14-18.3,21.3c-11.1,13.6-26.3,34.1-12.2,50.7c1.7,2,1.5,4.1,0.3,5.7c6.9,10,21.9,14.2,32.5,18.2c9.6,3.6,18.8,8,28.5,11.6c7.9,2.9,16.7,5.9,25.3,5.4c14.2-0.8,27.8-8.1,38.4-17.2c9.5-8.1,20.3-20.9,20-34.2C459.3,388.4,451.5,377.4,443.8,367.1z M393,437.7c-14.5-3.5-28.1-8.4-43.1-9.4c-11.2-0.8-21.7-3.4-27.4-14c-0.4-0.7-0.6-1.5-0.7-2.2c-4.8-8.5-6.4-18.2-2.2-27.6c4.5-10.2,13-17.8,21-25.2c4.1-3.8,9.2-7.6,12.1-12.4c3.3-5.4,5.5-11.3,8.1-17c4.9-10.9,12.9-21.1,25.9-21.9c11.5-0.8,23.1,5.4,28.3,15.8c5.6,11.1,5.2,24.2,11.9,34.8c6.2,9.8,16.7,16.9,21,27.9c3.7,9.6,2.1,20.4-3.3,29C434.6,431.6,411.8,442.1,393,437.7z"></path><path fill="#3AB37C" d="M376.4 376.1c0 .1-.8-1.7-.4-1.1-.4-.6-.4-.7-.5-.8 0 0-.2-.1-.4-.2l0 0c-.1 0-.1 0-.2 0-.1 0-.2 0-.3 0 .2.1-1.2.6-.7.2-.8.5-1.3 1-1.7 1.8-.2.5-.4 1.1-.5 1.8.7.6 1.3 1.5 1.6 2.6.1.2.1.4.2.5.6-.1 1.3-.5 2.2-1.3.4-.3.8-1.1 1-1.6C376.5 377.9 376.4 376.4 376.4 376.1zM58.7 224.1c-1.8-4.3-2.6-8.5-2.8-13.1-.1-4.1-.1-8.3-.7-12.4-.1-.5-.2-1.2-.3-1.8-1.7.2-3.5-.2-4.7-1.4-2.6 1.1-5.2 2.9-5.1 5.2.2 4.8 1.1 9.2.3 14-.5 3-3.5 4.8-6.4 4.3-4.5-.7-8.6-2.9-13-4.2-4.2-1.2-6.6-2.1-7.5 2.3 7.7.1 17.3.7 22.1 6.4 1.9 2.3 1.4 4.7-.2 6.3 1.2 2.3.9 5.4-1 7 .2 1 .1 2.1-.4 3.3-1.3 3 4.3 3.3 6.3 3.2 4.3-.3 7.3-3 10.3-5.9 1.7-1.6 4-3.4 5.1-5.5C61.9 229.6 59.5 226 58.7 224.1zM396.8 392.8c-.1-.1-.1-.1-.2-.2-.3 0-1.1 0-1.2 0-1.5.3-3.9 2.1-4.5 3.1-.2.2-.3.5-.5.7.8-.1 1.5-.2 2.3-.4 1.1-.3 2.3-.7 3.1-1.2.5-.3 1.2-1.5 1-.6C396.9 393.8 397.2 393.1 396.8 392.8z"></path><path fill="#EF4823" d="M259.4,183.9c-10.9,0.1-21.9,0.4-32.7-1.5c-10.7-1.9-21-5-31.5-7.5c-10.9-2.6-22-4.2-33.1-5.5c-11.5-1.4-23-2.4-34.6-2.5c-9.7-0.1-19.5-1.1-29.2-0.9c-8.8,0.2-18.7,0.8-26.3,5.6c-5.1,3.2-10.2,7.8-11.9,13.6c8,5.3,6.4,18.8,7.1,27.3c0.6,7.6,8.5,16.6,3.5,24c-2.8,4.1-6.5,8.4-10.7,11.7c7.6,13.4,28.6,16.6,42.2,19.1c6.5,1.2,13,2.8,19.6,3c6.6,0.1,13.1-1.3,19.7-1.3c3.9,0,7.8-0.1,11.7-0.5c2.6-0.3,7.2-0.3,8.9-2.7c3.2-4.4,8.8-1.1,9.3,3.2c8.2-4.1,16.3-8.5,24.3-12.9c26.4-14.6,51.6-31.1,73.4-52.2c7.3-7.1,14.3-14.3,21.3-21.7C279.9,183.5,269.6,183.8,259.4,183.9z"></path><path fill="#3AB37C" d="M120.1,400.8c-1.4-3.5-1.9-7.2-1.2-11c0.6-3,1.7-6.2,1.1-9.2c-1.1-5.4-6-11.1-11.5-12.4c-11.2-2.5-22.9,2.5-34,3.8c-0.2,0-0.3,0-0.5,0c-0.1,0.2-0.2,0.5-0.3,0.7c2.1,1.5,4.1,3.5,5.7,4.9c2,1.7,4,3.4,6.1,5c0.4,0.3,2.8,2,1.6,1.3c0.2,0.1,0.3,0.2,0.4,0.3c1.6,0.3,2.7,1.2,3.3,2.4c1.1-2.2,1.7-4.5,1.7-7c0-6.2,8.4-7.6,10.5-3.1c2.4,0.2,4.5,1.8,4.5,4.9v1.8c0,0.2,0,0.5,0,0.7c0,1-0.1,2.1-0.1,3.1c6.3,3.7,9.1,14.3,11.2,21c1,3,4.9,14.1,7.9,5.9C127.8,409.6,121.6,404.5,120.1,400.8z"></path><path fill="#EF4823" d="M397.1 63.2c-.1-.8-.2-2.1-.6-3.2-2.3 2.6-4 5.8-5.5 9 .8 1.4 1 3.1 0 4.9-18.8 34.2-45.2 63.3-71.3 92.1-19.8 21.7-39.1 44.1-62 62.7-23.3 19-49.9 34-76.7 47.6-12.5 6.3-25.1 12.2-38.1 17.6-11.9 4.9-23.9 9.9-35 16.5-11.3 6.8-22.2 15.2-30.3 25.7-5.2 6.6-11 18.1-7.3 26.6.8-.9 1.9-1.5 3.4-1.6 13.3-1.6 28.4-8.2 41.4-2.1 7.4 3.4 12.9 10.2 15.3 18 2.2 7.3-3.3 15.5 1.2 21.8 3.4 4.9 6.7 9.9 6 15.6 13.9 2.5 28.4 2.5 41.8-2.4 13.9-5.1 25.4-14.1 35.2-25.1 21.3-23.9 35.7-52.6 53-79.4 7.8-12.2 15.8-24.3 24.1-36.1 8.8-12.5 18.6-24.3 28.3-36.2 9.9-12.1 20.6-23.9 29.1-37.1 8.2-12.7 16-25.7 22.7-39.2 12.2-24.6 20.2-51.1 24.4-78.3C397 74.9 397.8 68.9 397.1 63.2zM489.3 172.3c-3.9-1.3-8.5-.2-12.9 1.6-.5.3-1 .6-1.6.8-.2.1-.5.2-.7.2-2.9 1.4-5.7 3-8 4.1-1.9 1-3.8.8-5.3 0-30.7 8.9-62.2 13.8-94.3 13.9-.4 0-.8 0-1.2-.1-1.8 2.9-3.6 5.8-5.4 8.6-15.3 23.7-35.2 44.1-52.2 66.5 3.8-1.2 7.3-3.1 10.9-4.6 4.7-2 9.6-3.5 14.5-5.1 11.5-3.7 23.1-6.9 34.6-10.6 22.5-7.2 44.8-15.1 65.7-26.2 17-9 34.9-18.2 49.6-30.7C487.2 187.2 500.2 176 489.3 172.3z"></path><path fill="#3AB37C" d="M61.5,420.4c1.8,4,3.8,8.5,6.8,11.4c2.7,2.5,10.7-4.6,12.9-6.3c5.9-4.5,10.1-14.7,12.1-21.6c0.3-1,0.6-2.1,0.8-3.1C85.6,409.9,72.7,416.3,61.5,420.4z"></path><path d="M489.1 161.1c-5.9-.9-11.8.7-17.4 3.1-.2 0-.4.1-.6.2-32.3 10.7-65.4 16.9-99.4 17.6 7.4-12.8 14-26 19.4-39.7 7.2-18.1 11.7-37.5 15.2-56.6 1.8-10.1 6.5-37.1-10-37.7-5.4-.2-9.4 6-11.8 9.9-2.7 4.4-4.8 9.3-6.5 14.2-.3 1-.4 1.9-.3 2.7-13.7 23.3-30.9 44-48.8 64.2-10.6 11.9-21.1 23.9-31.9 35.7-.6-2.3-2.5-4.1-5.5-3.7-11.6 1.5-23.3 1.8-34.9 2-12.5.1-24.4-.3-36.6-3.1-11.3-2.5-22.3-6.3-33.8-8.1-12.4-2-24.8-3.7-37.4-4.8-11-1-22.1-.8-33.1-1.4-11.1-.5-22.2-1.2-33.2.8C68.3 159 51.9 169.1 48.9 184c-4.8 1.5-9.3 4.9-11.9 8.2-3.5 4.5-2.6 9.2-2.3 14.1-4-1.4-7.8-3.1-12.1-3.5-8.3-.7-13.8 4.5-15 12.6-.4 2.4.6 4.2 2.2 5.3-.7 3.2 1.4 7.2 5.6 7.2 3.2 0 6.3.3 9.5.6 1.7.2 3.4.5 5.1.9.3.1.5.2.8.3-.3 1-.4 2.1-.2 3.2-.6.5-1.1 1.2-1.5 2.1-6.2 14 9.3 21.1 21 18.4 9.3 16.7 32.4 21.6 49.8 24.8 6.9 1.3 13.6 2.8 20.7 3.1 7.6.3 14.9-1.3 22.4-1.3 1.4 0 2.9 0 4.5 0-9.4 4-18.9 7.8-28.2 12.1-18.3 8.5-35 19.5-48.4 34.8-11 12.6-18.3 32.5-6.5 46.6-.1.2-.2.3-.3.5 0 0 0 0 0 0-1.4 3 0 5.6 2.2 7 .1.1.2.1.4.3 0 0 .1 0 .1.1 0 0 0 0 0 0 0 0 0 0 0 0 .7.5 1.4 1.1 2.1 1.7 1.8 1.5 3.6 3 5.4 4.6 2.7 2.3 6.4 6.3 10.2 7.1-1.9 1.7-3.9 3.3-5.8 4.6-7.4 5.2-15.8 9-24.3 11.9-2.4.8-3.5 2.7-3.6 4.7-1.3 1.2-1.9 3.1-.8 5.4 3.3 6.7 6.4 14.1 11.8 19.3 6.5 6.2 16.2.6 22.1-3.4 11.5-7.8 18.2-21.1 21.3-34.9 1 2.6 1.8 5.4 2.6 8.1 2 6.5 4.5 13 10.7 16.4 4.8 2.6 9.9.8 13.6-2.6.5.3 1.1.6 1.9.7 25.2 4.9 50.2.8 71.2-14.4 22.1-16.1 37.4-41 51.4-64 14-23 27.9-46 43.5-68 1 1.1 2.4 1.8 4.4 1.5 5.8-.9 11-3.1 16.4-5.6 5.7-2.6 11.8-4.4 17.7-6.3 14-4.5 28.2-8.4 42.1-13.1 12.8-4.4 25.6-8.8 38-14.2 11.9-5.2 23.2-11.4 34.5-17.7 9.8-5.5 19.6-11.1 28.8-17.6 8.3-5.9 19.1-13.6 22-23.9C506.8 171.2 499.4 162.6 489.1 161.1zM55.6 237.2c-3 2.9-6.1 5.6-10.3 5.9-2.1.1-7.7-.1-6.3-3.2.5-1.2.6-2.3.4-3.3 2-1.6 2.3-4.6 1-7 1.6-1.6 2.1-4 .2-6.3-4.8-5.7-14.4-6.3-22.1-6.4.9-4.4 3.3-3.5 7.5-2.3 4.4 1.2 8.4 3.4 13 4.2 2.9.5 5.9-1.3 6.4-4.3.8-4.8-.1-9.2-.3-14-.1-2.2 2.5-4.1 5.1-5.2 1.3 1.2 3 1.6 4.7 1.4.1.6.3 1.3.3 1.8.6 4.1.6 8.3.7 12.4.2 4.6 1 8.8 2.8 13.1.8 1.9 3.2 5.5 2 7.7C59.5 233.8 57.3 235.6 55.6 237.2zM141.3 269c-6.5 0-13 1.5-19.7 1.3-6.7-.1-13.1-1.8-19.6-3-13.6-2.4-34.6-5.7-42.2-19.1 4.2-3.3 8-7.5 10.7-11.7 5-7.5-2.9-16.5-3.5-24-.7-8.5.9-22-7.1-27.3 1.7-5.8 6.7-10.3 11.9-13.6 7.6-4.8 17.6-5.4 26.3-5.6 9.8-.2 19.5.8 29.2.9 11.6.1 23.1 1.1 34.6 2.5 11.1 1.4 22.2 2.9 33.1 5.5 10.5 2.5 20.9 5.6 31.5 7.5 10.8 1.9 21.8 1.6 32.7 1.5 10.3-.1 20.5-.5 30.7-1.7-6.9 7.4-14 14.7-21.3 21.7-21.7 21.1-47 37.6-73.4 52.2-8 4.4-16.1 8.8-24.3 12.9-.6-4.3-6.2-7.6-9.3-3.2-1.7 2.3-6.3 2.4-8.9 2.7C149.1 269 145.2 269 141.3 269zM93.3 403.9c-2 6.9-6.2 17.2-12.1 21.6-2.2 1.7-10.3 8.8-12.9 6.3-3-2.9-5-7.4-6.8-11.4 11.2-4.1 24.2-10.5 32.7-19.7C93.9 401.8 93.6 402.8 93.3 403.9zM126.4 413.8c-2.9 8.2-6.9-2.9-7.9-5.9-2.1-6.7-4.8-17.3-11.2-21 .1-1 .1-2.1.1-3.1 0-.2 0-.4 0-.7v-1.8c0-3.1-2.1-4.7-4.5-4.9-2.1-4.5-10.5-3-10.5 3.1 0 2.5-.6 4.9-1.7 7-.6-1.1-1.7-2-3.3-2.4-.1-.1-.2-.1-.4-.3 1.2.7-1.2-1-1.6-1.3-2.1-1.6-4.1-3.3-6.1-5-1.6-1.4-3.6-3.4-5.7-4.9.1-.2.2-.5.3-.7.2 0 .3 0 .5 0 11.1-1.3 22.8-6.4 34-3.8 5.5 1.3 10.4 7 11.5 12.4.6 3-.5 6.3-1.1 9.2-.7 3.7-.2 7.5 1.2 11C121.6 404.5 127.8 409.6 126.4 413.8zM291.6 271.4c-8.3 11.8-16.3 24-24.1 36.1-17.3 26.8-31.6 55.5-53 79.4-9.8 11-21.3 20-35.2 25.1-13.4 4.9-27.9 4.9-41.8 2.4.7-5.7-2.6-10.8-6-15.6-4.5-6.4 1-14.6-1.2-21.8-2.3-7.8-7.9-14.6-15.3-18-13.1-6.1-28.1.5-41.4 2.1-1.5.2-2.6.8-3.4 1.6-3.7-8.5 2.2-20 7.3-26.6 8.2-10.5 19-18.9 30.3-25.7 11.1-6.6 23.1-11.6 35-16.5 13-5.4 25.6-11.2 38.1-17.6 26.7-13.6 53.3-28.6 76.7-47.6 22.9-18.6 42.3-41 62-62.7 26.1-28.7 52.5-57.8 71.3-92.1 1-1.8.9-3.6 0-4.9 1.5-3.3 3.2-6.4 5.5-9 .4 1 .5 2.3.6 3.2.8 5.8-.1 11.7-1 17.5-4.2 27.2-12.1 53.7-24.4 78.3-6.7 13.5-14.5 26.5-22.7 39.2-8.5 13.1-19.2 24.9-29.1 37.1C310.3 247 300.4 258.9 291.6 271.4zM483 190.9c-14.7 12.5-32.6 21.6-49.6 30.7-20.9 11.1-43.2 19-65.7 26.2-11.5 3.7-23.1 6.9-34.6 10.6-4.9 1.6-9.8 3.1-14.5 5.1-3.6 1.6-7.2 3.4-10.9 4.6 17-22.4 36.9-42.9 52.2-66.5 1.8-2.9 3.7-5.7 5.4-8.6.4.1.8.1 1.2.1 32.1-.1 63.6-5 94.3-13.9 1.5.8 3.4 1 5.3 0 2.3-1.2 5.1-2.7 8-4.1.2-.1.5-.2.7-.2.6-.2 1.1-.5 1.6-.8 4.4-1.8 8.9-3 12.9-1.6C500.2 176 487.2 187.2 483 190.9zM448 386.6c-4.3-11.1-14.8-18.1-21-27.9-6.7-10.6-6.3-23.7-11.9-34.8-5.3-10.4-16.9-16.5-28.3-15.8-13 .8-21 11-25.9 21.9-2.6 5.8-4.7 11.7-8.1 17-3 4.8-8 8.6-12.1 12.4-8.1 7.4-16.5 15-21 25.2-4.2 9.4-2.6 19.1 2.2 27.6.1.7.3 1.4.7 2.2 5.7 10.6 16.2 13.2 27.4 14 15 1 28.6 5.9 43.1 9.4 18.8 4.5 41.6-6 51.7-22.1C450.1 406.9 451.7 396.2 448 386.6zM408 427c-14.1 2.5-28.2-4.9-41.7-7.8-10.1-2.1-24 .4-31.7-7.1-.2-.6-.5-1.2-.9-1.9-6.8-9.3-7-18.3-.1-27.7 6.4-8.7 15.2-15.3 22.8-22.8 8.9-8.7 11.6-20.7 17.5-31.3 6-10.6 18.8-12.4 27.7-4.4 9.3 8.4 7.9 23.7 12.9 34.4 5.1 11 14.6 18.3 21.3 28.2C448.4 405.7 424.9 424 408 427z"></path><path d="M386.5,371.8c-2.2-6.8-9.3-10.2-16-8.1c-7.1,2.3-10.3,10-10,17c0.1,2.1,1.2,3.5,2.6,4.3c2.5,7.1,10.4,8.5,16.6,5.1C386.7,386.3,388.8,379,386.5,371.8z M375.6,379.6c-1,0.8-1.6,1.2-2.2,1.3c-0.1-0.1-0.1-0.3-0.2-0.5c-0.3-1.2-0.9-2-1.6-2.6c0.1-0.7,0.3-1.3,0.5-1.8c0.4-0.8,0.9-1.3,1.7-1.8c-0.4,0.3,0.9-0.2,0.7-0.2c0.1,0,0.2,0,0.3,0c0.1,0,0.1,0,0.2,0l0,0c0.2,0.1,0.4,0.2,0.4,0.2c0.1,0.1,0.1,0.2,0.5,0.8c-0.4-0.6,0.4,1.2,0.4,1.1c0.1,0.3,0.1,1.9,0.2,2C376.4,378.6,376,379.3,375.6,379.6z"></path><path d="M412.7,364.1c-4.4-4.8-11.6-6.6-16.9-2c-4.7,4.1-6.8,10.5-6.2,16.6c0.2,1.6,0.9,2.9,1.9,3.7c-4.3,1.5-8,4.8-10.3,8.5c-1.2,1.9-0.6,4.3,0.8,6c-1.1,0.9-2,2.1-2.2,3.4c-0.6,3.2,1.5,5.6,4.3,6.4c9.7,2.9,24-2.2,23.9-13.8c0-2.6-0.9-4.8-2.3-6.6c3-0.6,5.8-2.2,8-4.9C418,376,417.2,369.1,412.7,364.1z M396.9,394.1c0.2-0.9-0.5,0.3-1,0.6c-0.8,0.6-2,0.9-3.1,1.2c-0.8,0.2-1.6,0.4-2.3,0.4c0.2-0.2,0.3-0.4,0.5-0.7c0.6-0.9,3-2.8,4.5-3.1c0,0,0.9,0,1.2,0c0.1,0.1,0.1,0.1,0.2,0.2C397.2,393.1,396.9,393.8,396.9,394.1z M405.6,373.5c-0.1,0.4-0.3,0.8-0.2,0.6c-1,1.5-2.2,2-3.9,1.2c-0.3-0.1-0.6-0.2-0.9-0.3c0.2-1.3,0.6-2.5,1.2-3.3c0,0.1,0.7-0.8,0.8-0.9c0.1-0.1,0.2-0.1,0.4-0.2c0.1,0,0.2,0,0.2,0c0.3,0.2,0.8,0.4,1,0.6c0.3,0.2,1.1,1.1,1.3,1.3c0.1,0.1,0.2,0.2,0.2,0.3c0,0.1,0.1,0.3,0.1,0.3C405.7,373.1,405.6,373.2,405.6,373.5z"></path><path d="M441.1,343.5c-6.4-11.7-10.4-24.6-16.7-36.3c-5.5-10.2-15.5-17.9-26.7-20.7c-25.6-6.3-42,20.1-54.2,37.7c-10.6,15.3-24.5,27.9-34.7,43.5c-8.9,13.7-14.9,30.7-6.9,45.2c-0.3,0.9-0.3,2,0.1,3.1c3.4,10.7,12.4,17.3,22,22.1c11.4,5.7,23.7,9.6,35.4,14.5c12.5,5.3,25.7,10.9,39.5,11.3c10.2,0.3,20.2-2.8,29.2-7.3c18.7-9.4,36.4-25.9,41.7-46.7C476.2,383.5,452.4,364.3,441.1,343.5z M439.5,435.9c-10.6,9.1-24.2,16.5-38.4,17.2c-8.5,0.5-17.4-2.5-25.3-5.4c-9.6-3.5-18.9-7.9-28.5-11.6c-10.6-4-25.6-8.2-32.5-18.2c1.2-1.6,1.4-3.7-0.3-5.7c-14.1-16.6,1.1-37,12.2-50.7c5.9-7.3,12.4-14,18.3-21.3c7.8-9.5,13.8-20.3,21.7-29.7c8.2-9.7,19.8-17.2,32.7-11.9c13.4,5.5,18.6,20.1,23.8,32.4c5.5,13.1,11.9,24.7,20.4,36.1c7.7,10.3,15.5,21.3,15.8,34.6C459.9,415,449,427.7,439.5,435.9z"></path></svg>