<svg xmlns="http://www.w3.org/2000/svg" x="0px" y="0px"
width="60" height="60"
viewBox="0 0 48 48"
style=" fill:#000000;"><path fill="#4b7bb2" d="M7.345,17.524c1.117-0.063,2.137-0.399,2.957-1.161c0.82-0.762,1.53-1.646,2.427-2.315 c1.591-1.189,3.688-1.549,5.609-1.042c-0.124,3.178-0.339,6.423-0.945,9.545c-0.606,3.122-1.667,6.193-3.454,8.824 c-0.468,0.689-0.988,1.349-1.616,1.896c-0.777,0.676-1.699,1.16-2.626,1.608c-0.345,0.167-0.71,0.345-0.915,0.668 c-0.302,0.475-0.163,1.094-0.011,1.636c0.318,1.131,0.813,2.113,1.787,2.769c0.443,0.299,0.969,0.451,1.497,0.535 c1.533,0.241,3.167-0.1,4.426-1.007c0.77-0.555,1.29-1.067,1.797-1.87c0.544-0.862,0.972-1.798,1.267-2.774 c0.434-1.434,0.58-2.936,0.723-4.427c0.552-5.732,1.113-11.439,1.666-17.171c0.023,0.075-0.023-0.075,0,0 c2.405,0.244,4.846,0.407,7.256,0.223c-0.758,6.084-1.45,12.486-1.647,18.613c-0.027,0.83-0.043,1.663,0.049,2.488 c0.146,1.309,0.544,2.766,1.206,3.905c0.191,0.328,0.403,0.647,0.673,0.913c0.647,0.637,1.565,0.914,2.463,1.046 c1.874,0.274,3.846-0.012,5.505-0.926s3.224-2.632,3.73-4.457c0.498-1.795,0.208-3.703-0.085-5.543 c-0.543-0.079-0.88,0.552-1.094,1.058c-0.693,1.641-2.073,3.065-3.527,4.094c-0.425,0.301-0.96,0.576-1.445,0.387 c-0.348-0.136-0.567-0.477-0.743-0.807c-1.626-3.058-1.479-6.728-1.094-10.17c0.385-3.442,0.539-7.247,0.079-10.677 c2.314-0.499,4.558-1.178,6.907-0.885c0.08,0.01,0.17,0.018,0.234-0.032c0.069-0.054,0.079-0.153,0.084-0.24 c0.087-1.69-0.009-3.184,0.078-4.874c-1.873-0.816-3.782-0.997-5.804-0.703c-4.966,0.723-9.976,1.226-14.994,1.183 c-1.095-0.009-2.199-0.044-3.278,0.144c-2.331,0.407-4.39,1.847-5.92,3.652S8.252,15.339,7.345,17.524z"></path><path fill="#010101" d="M13.026,41.063c-0.35,0-0.701-0.027-1.051-0.082c-0.692-0.109-1.248-0.31-1.698-0.614 c-1.252-0.843-1.734-2.144-1.988-3.049c-0.131-0.467-0.376-1.337,0.07-2.039c0.283-0.445,0.746-0.67,1.119-0.851 c0.818-0.396,1.754-0.873,2.516-1.535c0.513-0.446,1-1.019,1.53-1.8c1.58-2.326,2.716-5.232,3.377-8.638 c0.595-3.063,0.804-6.271,0.919-9.056c-1.689-0.331-3.455,0.048-4.793,1.049c-0.536,0.4-1.001,0.882-1.495,1.392 c-0.292,0.303-0.584,0.604-0.891,0.89c-0.842,0.783-1.942,1.219-3.269,1.294c-0.169,0.018-0.337-0.069-0.436-0.21 c-0.1-0.141-0.12-0.322-0.054-0.48l0.462,0.191l-0.443-0.236c0.92-2.215,1.715-4.129,3.285-5.98c1.755-2.07,3.962-3.427,6.215-3.82 c1.018-0.179,2.045-0.169,3.045-0.155l0.323,0.003c4.396,0.046,9.135-0.337,14.918-1.179c2.209-0.319,4.195-0.08,6.075,0.74 c0.191,0.083,0.311,0.275,0.3,0.483c-0.043,0.836-0.041,1.623-0.039,2.41c0.002,0.789,0.004,1.605-0.04,2.464 c-0.007,0.115-0.023,0.413-0.277,0.61c-0.231,0.176-0.489,0.146-0.6,0.132c-1.876-0.237-3.684,0.181-5.598,0.62 c-0.231,0.054-0.463,0.106-0.696,0.159c0.348,2.955,0.303,6.432-0.135,10.343c-0.381,3.401-0.519,6.952,1.038,9.88 c0.128,0.241,0.287,0.498,0.483,0.575c0.216,0.085,0.545-0.025,0.974-0.329c1.58-1.118,2.771-2.496,3.356-3.881 c0.157-0.372,0.635-1.492,1.626-1.358c0.217,0.032,0.388,0.2,0.422,0.417c0.285,1.793,0.608,3.824,0.073,5.755 c-0.512,1.847-2.071,3.715-3.971,4.762c-1.698,0.934-3.764,1.282-5.818,0.982c-1.217-0.179-2.114-0.566-2.742-1.185 c-0.337-0.333-0.581-0.719-0.754-1.019c-0.639-1.099-1.103-2.593-1.271-4.1c-0.096-0.864-0.078-1.738-0.051-2.561 c0.199-6.196,0.898-12.569,1.577-18.059c-2.184,0.116-4.341-0.032-6.236-0.215l-1.618,16.672c-0.144,1.492-0.292,3.036-0.742,4.523 c-0.309,1.021-0.754,1.994-1.323,2.896c-0.516,0.817-1.057,1.381-1.928,2.009C15.706,40.653,14.382,41.063,13.026,41.063z M16.618,12.283c0.617,0,1.239,0.078,1.847,0.239c0.226,0.06,0.381,0.269,0.372,0.503c-0.114,2.916-0.316,6.339-0.954,9.621 c-0.687,3.538-1.875,6.569-3.531,9.009c-0.581,0.854-1.122,1.487-1.701,1.991c-0.854,0.744-1.861,1.258-2.736,1.682 c-0.285,0.138-0.58,0.281-0.71,0.486c-0.191,0.3-0.075,0.794,0.048,1.232c0.34,1.214,0.829,1.981,1.584,2.49 c0.327,0.221,0.75,0.369,1.295,0.455c1.453,0.232,2.928-0.106,4.055-0.918c0.768-0.554,1.22-1.023,1.667-1.731 c0.521-0.826,0.929-1.719,1.212-2.652c0.421-1.394,0.565-2.887,0.704-4.33l1.663-17.139c0.004-0.214,0.136-0.419,0.346-0.483 c0.105-0.035,0.215-0.025,0.314,0.013c2.114,0.213,4.595,0.397,7.058,0.211c0.152-0.013,0.296,0.046,0.4,0.154 s0.153,0.258,0.134,0.406c-0.697,5.6-1.438,12.185-1.644,18.567c-0.025,0.786-0.042,1.619,0.046,2.417 c0.153,1.374,0.569,2.726,1.141,3.709c0.143,0.245,0.339,0.559,0.592,0.808c0.471,0.464,1.186,0.761,2.185,0.907 c1.841,0.271,3.683-0.038,5.191-0.869c1.65-0.908,3.053-2.577,3.49-4.152c0.414-1.491,0.24-3.131,0.011-4.644 c-0.072,0.111-0.154,0.268-0.247,0.486c-0.656,1.554-1.969,3.084-3.699,4.309c-0.269,0.189-1.087,0.767-1.916,0.444 c-0.5-0.195-0.788-0.634-1.002-1.037c-1.685-3.168-1.548-6.9-1.149-10.461c0.452-4.033,0.479-7.584,0.081-10.556 c-0.035-0.259,0.135-0.5,0.39-0.555c0.378-0.082,0.755-0.169,1.13-0.255c1.842-0.422,3.742-0.86,5.71-0.664 c0.033-0.77,0.031-1.477,0.029-2.185c-0.002-0.681-0.004-1.381,0.024-2.111c-1.612-0.637-3.323-0.813-5.216-0.535 C28.995,7.995,24.207,8.372,19.76,8.335l-0.325-0.003c-0.953-0.012-1.935-0.021-2.862,0.14c-2.023,0.354-4.02,1.591-5.624,3.482 c-1.293,1.526-2.043,3.141-2.81,4.964c0.723-0.153,1.323-0.457,1.822-0.921c0.294-0.273,0.574-0.563,0.853-0.852 c0.499-0.517,1.015-1.05,1.615-1.498C13.624,12.754,15.107,12.283,16.618,12.283z"></path></svg>