<svg xmlns="http://www.w3.org/2000/svg"  viewBox="0 0 512 512" width="48px" height="48px"><path fill="#FEBF10" d="M369.6 214.6c-3.9.1-7.8.6-11.7 1.1.4.7.6 1.4.7 2.3.7 6.5 3 12.6 3.7 19 .2.4.3.9.3 1.4 3.9-1.3 8-.8 12-.5C373.5 230.1 371.9 222.2 369.6 214.6zM367 162.9c-4.9-.5-11.1-.9-13.3 1.9-.1.2-.3.3-.4.5.4 3 .8 6 1.4 8.9.6 2.5 1 6 2.7 8.1.4.5.7 1 1 1.6 4-.7 8-.1 12-.3C370.3 176.6 368.2 169.7 367 162.9zM376.5 288.9c-.1-2.6-.2-5.2-.4-7.7-.1-1.1-.2-2.3-.5-3.4-3.6-.2-7.7 1.7-11.2 3.2.7 5.5 2.1 11 2.9 16.5.5.8.8 1.8.8 3l-.1 2c0 .3-.1.6-.1 1 3 .2 7.8.2 8.4-2C377.5 297.4 376.6 293 376.5 288.9z"/><path fill="#BCBCBC" d="M415.7,317.9c-1.6-8.4-2.6-16.9-3.5-25.4c-1.9-18.4-2.7-36.9-3.9-55.3c-2.5-36.1-8.5-71.7-5.6-108c-0.6,0.2-1.2,0.4-1.8,0.5c-9.3,2.4-18.5,2.5-28.1,2.5c-32.5,0-64.9-0.6-97.3,0.9c-32.6,1.5-65.1,2-97.8,2c-15.3,0-30.7,0-46,0c-13.1,0-26.5,0.8-39.5-1c-1.7,38.7-4,77.7-1.4,116.4c1.3,19.9,3.7,39.8,4,59.8c0.2,9.5-0.7,19,0.1,28.5c0.5,6.3,1.4,12.6,1.8,18.9c24.2,0.6,48.5,1.1,72.7,1.3c32.5,0.3,65.3,1.1,97.8-0.6c16.3-0.9,32.7-2.2,48.9-4.3c15.7-2.1,31.2-5.3,46.9-7.8c15.7-2.5,31.6-4.4,47.5-4.5c2.3,0,4.6,0,7,0.2c0-1.6,0.7-3.2,1.8-4.4C418.8,330.8,416.9,324.3,415.7,317.9z M205.2,283.3c3.9-7.2,10.7-11.6,16.8-16.8c7.6-6.4,15.1-12.7,22.1-19.7c11.3-11.3,23.5-21.6,35.3-32.4c-4.4-0.3-8.6-1.4-11.5-4.8c-2.9-3.3-1.7-7.5,2.2-9.2c9.3-4,27.6-9.3,34.3,1.6c5.7,9.3-0.5,23.4-2.6,33c-1.3,6-11.1,5.2-10.8-1.1l0.1-2c0.1-1.1,0.4-2.1,0.9-2.9c0.8-3.2,1.7-6.3,2.3-9.5c0.3-1.4,0.8-3.2,1.1-5c-13.7,13.2-28.5,25.3-42.1,38.8c-7.1,7.1-14.7,13.6-22.4,20.1c-5.5,4.7-12.5,8.7-16,15.3C211.5,294.8,201.9,289.5,205.2,283.3z M328.7,314.4c-28.7,5.5-58.1,5.5-87.3,5.2c-22.5-0.2-45.1-0.4-67.6-1c0.1,0.4,0.1,0.9,0.1,1.4l-0.2,4c-0.3,7.1-10.2,7.4-11,0.4c-0.2-2-0.4-4-0.6-6.1c-5.1-0.2-10.1-0.3-15.2-0.6c-7.1-0.3-7.4-11.3-0.4-11c5,0.2,9.9,0.4,14.9,0.6c-0.4-7.8-0.5-15.6-0.6-23.4c-0.2-12.8-1.1-25.5-2.4-38.3c-0.7-7-1.3-14-1.9-21c-0.6-6.5-0.7-13.2-1.9-19.6c-2.1-11.3-5.3-22.2-4-33.8c0.8-7,11.4-4.4,10.7,2.6c-1.3,11.7,3.8,23.2,4.8,34.7c1.1,12.9,2.3,25.7,3.5,38.6c1.9,20.1,1.6,40.4,2.7,60.5c22.9,0.6,45.8,0.8,68.7,1c26.4,0.3,53.3,0.5,79.4-3.8c0.8-1.4,2.2-2.4,4.5-2.2c2.5,0.2,4.2,0.8,5.9,2.6C333.6,307.9,333,313.6,328.7,314.4z M344.7,159.1c0.2-0.7,0.5-1.3,1.1-2c5.8-7.2,17.9-5.1,25.9-4.7c3.1,0.2,5.4,2.1,5.7,5.3c0.8,10.8,4.7,20.7,3.5,31.7c-0.2,1.8-2.1,3.5-3.8,4c-5.7,1.5-11.5-0.3-17.1,1.2c-2.9,0.8-5.1-0.7-6.2-2.7c-1.4,0.2-2.8-0.3-4-1.8c-5.8-7.1-6.6-17.2-7.7-26.1C341.8,161.6,343,159.9,344.7,159.1z M347.7,218.4c-0.3-3.1,1.6-4.9,4-5.4c-1.2-3.1,0.3-7.6,4.7-8.2c5.7-0.7,11.3-1.4,17.1-1.2c2.6,0.1,4.6,1.5,5.4,3.9c3.9,11.6,6,23.7,7.7,35.8c0.4,3.1-2.6,5.4-5.3,5.7c-2.6,0.3-5.2,0.1-7.8-0.2c-1.5-0.1-5.3-0.9-6.5-0.4c-3.1,1.4-6-0.1-7.5-2.3c-3.3,1.5-7.8,0.1-7.8-4.5C351.8,233.7,348.5,226.2,347.7,218.4z M385.5,307.4c-4.6,6.3-11.7,7.2-19.1,6.9c-3.9-0.1-5.8-3.6-5.5-6.6c-2-0.5-3.7-2.2-4-4.9c-0.8-8.1-3.1-16-3.9-24.2c-0.3-2.7,1.2-4.4,3.1-5.1c0.6-1,1.5-1.8,2.8-2.2c6.9-2.5,16.4-7.2,23.4-2.7c5.5,3.6,5,14.2,5,19.9C387.6,294.4,389.3,302.3,385.5,307.4z"/><path fill="#FEBF10" d="M408.6 107.6c-5.6-7.2-18.1-6.8-26.6-7.7-.8.6-1.8.9-3.1.8-9.9-.4-19.9.5-29.8.8-11.1.4-22.2 0-33.2-.2-25.9-.4-51.8-.4-77.8-.3-51.8.1-103.7.6-155.5-.4-.4 0-.9-.1-1.2-.1-.2 0-.5.1-.8.1-4.6.1-8.5 6.9-7 11.2 1.6 4.6 6.5 8.2 11.1 9.5 13.3 3.9 27.7 2.8 41.4 2.8 31.4-.2 62.8.8 94.1.1 32.7-.7 65.3-3.1 97.9-3.2 16.1 0 32.3.2 48.4.3 10.8 0 21.7.8 32.1-2.3C403.9 117.3 413.8 114.4 408.6 107.6zM425.5 354.1c-12.3-2.8-25.2-1.5-37.6-.3-31.8 3.2-63 10.8-94.9 13.6-32.5 2.8-65.1 2.6-97.7 2.5-32.9-.1-65.7-.6-98.6-1.4-.1 0-.1 0-.2 0-1.2 3.6-2.8 8.6.6 11.5 2.9 2.5 7.2 3.3 10.9 3.8 14.2 2 28.9 2.1 43.2 2.5 31.9.8 63.6.7 95.4-2.2 32.2-2.9 64.3-7.4 96.6-9.4 26.7-1.7 56.1.1 80.8-12.1 2.9-1.4 6.5-2.8 8.9-5.2.2-.2.4-.4.5-.5C431.6 355.4 427.5 354.6 425.5 354.1zM286.3 412.8c-1.1-7.3-1.9-14.4-1.3-21.7-11.5 1.3-23 2.5-34.5 3.6.1.5.2 1.1.2 1.7-.5 13.8 1.9 27.2 2.6 40.9.6 11.5-.1 23.2 1.7 34.5 5.7-.8 11.4-1.9 17-3.2 4.1-.9 8.3-1.9 12.3-3.3 1-.4 2.1-.7 3.1-1.1-1.2-8.5.3-18 .4-26.3C287.9 429.5 287.6 421.2 286.3 412.8zM203.9 397.6c-.1.8-.4 1.7-1 2.6-7.4 10.6-10.4 24.3-15.3 36.2-2.9 7.1-5.4 14.5-8.9 21.4-2.4 4.8-5.7 9.2-7.9 14.1 6.3.8 12.7.7 19.1.9.3-.5.7-.9 1.1-1.2.2-.6.4-1.2.5-1.8.3-1.1.6-2.2.8-3.3 0-.2.4-2.4.2-.7.4-4 2.8-8 4.3-11.7 1.8-4.2 3.6-8.4 5-12.8 4.6-14.8 12.5-28.6 14.8-44.1C212.4 397.3 208.2 397.5 203.9 397.6zM362.4 445.5c-9.4-18.8-20.2-36.6-30.4-55-.8-1.4-.9-2.8-.6-4-4.1.3-8.2.7-12.3 1.1 0 .1.1.1.1.2 11.3 23.2 22.8 46.3 32.5 70.1.7 0 1.5.2 2.3.6 2.4 1.2 5.6 1.5 8.2 1.8 1.8.2 3.6.3 5.4.2.8 0 1.4-.3 1.6-.3C369.7 457.4 363.7 448 362.4 445.5z"/><path d="M437.8,346.9c-2.3-1.3-4.9-2.3-7.6-3.1c0.3-6.9-0.7-13.6-2.1-20.4c-1.9-9.1-3.4-18.2-4.4-27.4c-2.1-18.4-2.9-36.9-4.1-55.3c-2.4-37.5-8.9-74.6-5.8-112.3c0.1-1.5-0.3-2.7-1-3.5c3.1-1.9,5.7-4.4,7.3-7.6c4.1-8.3-1.9-16.8-8.5-21.5c-8.1-5.7-19.2-5.4-28.6-6.8c-1.5-0.2-2.8,0.1-3.9,0.8c-0.2,0-0.4,0-0.7-0.1c-9.4-0.3-18.8,0.4-28.1,0.8c-11.6,0.5-23.2,0.1-34.9-0.1c-25.9-0.4-51.8-0.4-77.7-0.3c-51.8,0.1-103.7,0.6-155.5-0.4c-0.2,0-0.5,0-0.7,0c-0.4-0.1-0.8-0.1-1.3-0.1c-11.3,0.1-20.2,13.4-17.5,24.2c2.3,9.2,10,14.8,18.6,17.8c-1.7,39-4,78.3-1.7,117.3c1.2,19.9,3.5,39.8,4.1,59.8c0.3,9.5-0.5,19,0.1,28.5c0.6,9.6,2.3,19.2,2.1,28.8c-3.1,9.5-1.8,18.8,7.1,24.4c8.9,5.7,21.9,5,32,5.7c22,1.5,44.2,2.1,66.4,1.8c-6.1,10.2-8.8,22.3-13.4,33.2c-3.2,7.7-5.9,15.5-9.7,22.9c-3.5,7-8.4,13-10.1,20.8c-0.6,2.9,1.1,5.9,4.1,6.6c9.6,2.4,19.6,2,29.4,2.4c2,0.1,3.3-0.7,4.2-1.9c0.2,0,0.3,0,0.5-0.1c4.2-0.8,5.2-7.1,6.1-10.4c0.3-1,0.5-2.1,0.8-3.1c0.1-0.5,1-3.2,0.5-2.1c1.8-4.6,3.9-9.2,5.7-13.8c3.6-8.8,6.4-17.9,10-26.8c3.5-8.6,6.8-17.4,8-26.7c0.1-0.8,0.1-1.6-0.1-2.3c4.2-0.3,8.3-0.6,12.5-0.9c-0.1,0.4-0.1,0.7-0.1,1.1c-0.5,13.8,1.7,27.2,2.6,40.9c0.9,14-0.1,28,3,41.8c0.5,2.3,3.1,4.1,5.4,3.9c8.6-0.9,17.1-2.5,25.5-4.4c6.7-1.5,19.2-3.4,22.7-10.5c1-2.1,0.6-4.1-0.4-5.6c0-0.1,0-0.1-0.1-0.2c0-0.5-0.1-0.9-0.1-1.1c-0.1-1.9-0.1-3.8-0.1-5.7c-0.1-5.5,0.3-11,0.5-16.5c0.2-7.7,0-15.5-0.9-23.2c-1-8-2.9-16.2-2-24.3c0.1-0.7,0-1.3-0.1-1.9c4.7-0.5,9.4-1,14-1.5c-0.7,1.5-0.9,3.2,0,5c11.9,24.5,24.2,48.9,34.1,74.3c1.7,4.3,6.8,4.8,9.3,2.1c6,1.9,13.2,2.4,18.8,1.2c10-2.1,8.2-13.8,5.2-20.8c-9.9-22.5-23.3-43.2-35.3-64.6c7-0.5,14.1-0.8,21.1-1.1c13.6-0.6,27.1-1.6,40.5-4.1c12.2-2.4,26.8-6.5,36.4-14.8C447,359.6,445.6,351.3,437.8,346.9z M84.7,121.3c-4.6-1.4-9.5-4.9-11.1-9.5c-1.5-4.3,2.4-11.2,7-11.2c0.3,0,0.5,0,0.8-0.1c0.4,0.1,0.8,0.1,1.2,0.1c51.8,1,103.7,0.5,155.5,0.4c25.9-0.1,51.8,0,77.8,0.3c11.1,0.2,22.2,0.6,33.2,0.2c9.9-0.3,19.9-1.2,29.8-0.8c1.3,0,2.3-0.3,3.1-0.8c8.6,1,21.1,0.6,26.6,7.7c5.2,6.8-4.6,9.7-9.9,11.2c-10.4,3.1-21.4,2.3-32.1,2.3c-16.1,0-32.3-0.3-48.4-0.3c-32.7,0.1-65.3,2.5-97.9,3.2c-31.4,0.7-62.8-0.3-94.1-0.1C112.4,124.1,98,125.1,84.7,121.3z M94.8,310.1c-0.4-20-2.7-39.8-4-59.8c-2.6-38.7-0.3-77.7,1.4-116.4c13,1.8,26.4,1,39.5,1c15.3,0,30.7,0,46,0c32.7,0,65.2-0.5,97.8-2c32.5-1.5,64.9-0.9,97.3-0.9c9.6,0,18.7-0.1,28.1-2.5c0.6-0.2,1.2-0.3,1.8-0.5c-2.9,36.3,3.1,71.9,5.6,108c1.3,18.4,2.1,36.9,3.9,55.3c0.9,8.5,1.9,17,3.5,25.4c1.2,6.4,3.1,12.9,3.6,19.5c-1.1,1.1-1.8,2.7-1.8,4.4c-2.4-0.2-4.8-0.2-7-0.2c-15.9,0.1-31.8,2-47.5,4.5c-15.7,2.5-31.2,5.7-46.9,7.8c-16.2,2.2-32.5,3.5-48.9,4.3c-32.5,1.7-65.3,0.9-97.8,0.6c-24.2-0.2-48.5-0.6-72.7-1.3c-0.4-6.3-1.2-12.6-1.8-18.9C94.1,329.2,94.9,319.6,94.8,310.1z M201.9,441.3c-1.4,4.4-3.2,8.6-5,12.8c-1.5,3.7-3.9,7.7-4.3,11.7c0.2-1.7-0.2,0.5-0.2,0.7c-0.2,1.1-0.5,2.2-0.8,3.3c-0.2,0.6-0.3,1.2-0.5,1.8c-0.4,0.4-0.8,0.8-1.1,1.2c-6.4-0.2-12.8-0.1-19.1-0.9c2.2-4.9,5.5-9.3,7.9-14.1c3.5-6.9,6-14.3,8.9-21.4c4.9-11.9,7.9-25.6,15.3-36.2c0.6-0.9,0.9-1.7,1-2.6c4.3-0.1,8.5-0.3,12.8-0.5C214.4,412.6,206.5,426.4,201.9,441.3z M287.8,437.9c-0.1,8.3-1.6,17.8-0.4,26.3c-1,0.4-2,0.8-3.1,1.1c-4,1.4-8.2,2.4-12.3,3.3c-5.6,1.3-11.3,2.4-17,3.2c-1.8-11.4-1.1-23.1-1.7-34.5c-0.7-13.7-3.1-27.1-2.6-40.9c0-0.6,0-1.2-0.2-1.7c11.5-1.1,23-2.3,34.5-3.6c-0.6,7.3,0.2,14.4,1.3,21.7C287.6,421.2,287.9,429.5,287.8,437.9z M362.4,445.5c1.3,2.5,7.2,11.9,6.8,14.8c-0.2,0-0.8,0.2-1.6,0.3c-1.8,0.1-3.6,0-5.4-0.2c-2.7-0.3-5.8-0.6-8.2-1.8c-0.8-0.4-1.5-0.6-2.3-0.6c-9.7-23.9-21.3-47-32.5-70.1c0-0.1-0.1-0.1-0.1-0.2c4.1-0.4,8.2-0.7,12.3-1.1c-0.3,1.2-0.2,2.6,0.6,4C342.2,408.9,353.1,426.6,362.4,445.5z M432.8,357.3c-2.3,2.3-5.9,3.7-8.9,5.2c-24.6,12.2-54.1,10.4-80.8,12.1c-32.3,2.1-64.4,6.5-96.6,9.4c-31.8,2.9-63.5,3-95.4,2.2c-14.3-0.4-29-0.5-43.2-2.5c-3.7-0.5-8-1.3-10.9-3.8c-3.4-2.9-1.8-7.9-0.6-11.5c0.1,0,0.1,0,0.2,0c32.9,0.8,65.7,1.3,98.6,1.4c32.6,0.1,65.2,0.4,97.7-2.5c31.9-2.8,63.1-10.4,94.9-13.6c12.4-1.3,25.3-2.5,37.6,0.3c2,0.5,6.1,1.3,7.9,2.7C433.2,356.9,433.1,357.1,432.8,357.3z"/><path d="M331,305.2c-1.8-1.8-3.4-2.4-5.9-2.6c-2.2-0.2-3.7,0.8-4.5,2.2c-26.2,4.3-53,4.1-79.4,3.8c-22.9-0.2-45.8-0.4-68.7-1c-1.2-20.2-0.8-40.4-2.7-60.5c-1.2-12.8-2.4-25.7-3.5-38.6c-1-11.5-6.1-23-4.8-34.7c0.8-7-9.9-9.6-10.7-2.6c-1.3,11.6,1.9,22.5,4,33.8c1.2,6.4,1.3,13.1,1.9,19.6c0.6,7,1.3,14,1.9,21c1.2,12.8,2.1,25.5,2.4,38.3c0.1,7.8,0.3,15.6,0.6,23.4c-5-0.2-9.9-0.3-14.9-0.6c-7.1-0.3-6.7,10.7,0.4,11c5.1,0.2,10.1,0.4,15.2,0.6c0.2,2,0.4,4.1,0.6,6.1c0.8,7,10.7,6.8,11-0.4l0.2-4c0-0.5,0-1-0.1-1.4c22.5,0.6,45.1,0.8,67.6,1c29.1,0.3,58.5,0.3,87.3-5.2C333,313.6,333.6,307.9,331,305.2z"/><path d="M304.4 201.9c-6.7-10.9-25.1-5.6-34.3-1.6-3.9 1.7-5.1 5.9-2.2 9.2 3 3.4 7.1 4.6 11.5 4.8-11.8 10.8-23.9 21.2-35.3 32.4-7 7-14.6 13.3-22.1 19.7-6.1 5.2-12.9 9.5-16.8 16.8-3.3 6.3 6.3 11.6 9.6 5.3 3.5-6.5 10.5-10.6 16-15.3 7.7-6.5 15.3-13 22.4-20.1 13.5-13.5 28.3-25.5 42.1-38.8-.3 1.8-.8 3.6-1.1 5-.7 3.2-1.5 6.4-2.3 9.5-.5.8-.8 1.7-.9 2.9l-.1 2c-.3 6.3 9.5 7.1 10.8 1.1C304 225.4 310.2 211.3 304.4 201.9zM377.4 157.8c-.2-3.2-2.6-5.2-5.7-5.3-8-.4-20.2-2.5-25.9 4.7-.5.6-.8 1.3-1.1 2-1.7.8-2.9 2.4-2.6 4.9 1.1 8.8 1.9 19 7.7 26.1 1.2 1.5 2.7 2 4 1.8 1.1 2.1 3.3 3.5 6.2 2.7 5.5-1.5 11.4.3 17.1-1.2 1.7-.5 3.6-2.2 3.8-4C382.1 178.5 378.2 168.6 377.4 157.8zM358.4 183.8c-.2-.5-.5-1.1-1-1.6-1.7-2-2.1-5.6-2.7-8.1-.7-2.9-1.1-5.9-1.4-8.9.1-.1.3-.3.4-.5 2.2-2.8 8.4-2.4 13.3-1.9 1.2 6.8 3.3 13.7 3.4 20.5C366.4 183.7 362.4 183.1 358.4 183.8zM386.6 243.3c-1.7-12.1-3.8-24.2-7.7-35.8-.8-2.5-2.9-3.8-5.4-3.9-5.7-.2-11.4.5-17.1 1.2-4.4.5-5.9 5.1-4.7 8.2-2.4.4-4.3 2.2-4 5.4.8 7.8 4.1 15.3 4 23.2-.1 4.6 4.5 6.1 7.8 4.5 1.5 2.2 4.4 3.7 7.5 2.3 1.2-.6 5 .3 6.5.4 2.6.2 5.2.4 7.8.2C384 248.7 387 246.4 386.6 243.3zM362.7 238.4c0-.5-.1-1-.3-1.4-.7-6.4-3.1-12.6-3.7-19-.1-.9-.4-1.7-.7-2.3 3.9-.5 7.8-.9 11.7-1.1 2.3 7.6 3.9 15.5 5.1 23.3C370.7 237.6 366.7 237.2 362.7 238.4zM387.5 288.5c-.1-5.7.5-16.3-5-19.9-7-4.5-16.5.2-23.4 2.7-1.3.5-2.3 1.3-2.8 2.2-1.9.7-3.4 2.4-3.1 5.1.8 8.2 3.1 16 3.9 24.2.3 2.8 2 4.4 4 4.9-.3 3 1.5 6.4 5.5 6.6 7.4.2 14.5-.6 19.1-6.9C389.3 302.3 387.6 294.4 387.5 288.5zM376.3 301.5c-.6 2.2-5.5 2.1-8.4 2 .1-.3.1-.6.1-1l.1-2c.1-1.2-.2-2.2-.8-3-.9-5.5-2.2-10.9-2.9-16.5 3.5-1.5 7.6-3.4 11.2-3.2.3 1.1.3 2.2.5 3.4.3 2.6.4 5.1.4 7.7C376.6 293 377.5 297.4 376.3 301.5z"/></svg>