<svg xmlns="http://www.w3.org/2000/svg" x="0px" y="0px"
width="48" height="48"
viewBox="0 0 48 48"
style=" fill:#000000;"><path fill="#fcbf95" d="M29.269,30.74c-1.447-0.227-1.44-1.596-1.205-2.397c0.286-0.976,0.788-2.078,0.886-3.171 c0.193-2.168,0.14-3.144,0.48-5.076c0.189-1.077,1.207-8.128,2.76-5.245c0.87,1.615,0.387,2.44,0.121,3.942 c-0.229,1.291-0.533,2.796-0.583,4.082c-0.06,1.547-0.511,2.552-0.583,4.082c-0.055,1.173-0.498,2.514-0.749,3.653 c-0.458,0.072-0.934,0.107-1.399,0.166C29.204,30.681,29.417,30.582,29.269,30.74z"></path><path fill="#010101" d="M28.997,31.275c-0.166,0-0.319-0.083-0.411-0.216c-0.418-0.187-0.668-0.462-0.815-0.693 c-0.521-0.822-0.273-1.864-0.186-2.163c0.088-0.3,0.195-0.612,0.306-0.932c0.245-0.708,0.499-1.439,0.562-2.144 c0.064-0.73,0.102-1.324,0.135-1.866c0.067-1.088,0.121-1.948,0.351-3.252l0.05-0.298c0.692-4.181,1.344-5.873,2.322-6.036 c0.494-0.085,0.94,0.234,1.32,0.938c0.79,1.466,0.58,2.398,0.338,3.479c-0.056,0.245-0.113,0.503-0.164,0.787l-0.103,0.572 c-0.203,1.114-0.433,2.377-0.473,3.442c-0.032,0.827-0.171,1.503-0.304,2.158c-0.127,0.624-0.247,1.214-0.281,1.928 c-0.041,0.887-0.28,1.823-0.513,2.729c-0.088,0.347-0.175,0.686-0.246,1.008c-0.044,0.201-0.207,0.354-0.41,0.387 c-0.285,0.045-0.577,0.076-0.868,0.106c-0.183,0.02-0.365,0.039-0.546,0.063C29.039,31.274,29.018,31.275,28.997,31.275z M29.328,30.159c0.075,0,0.148,0.015,0.218,0.051c0.147-0.016,0.295-0.031,0.441-0.05c0.055-0.228,0.114-0.462,0.175-0.7 c0.22-0.856,0.446-1.743,0.483-2.527c0.037-0.791,0.17-1.446,0.3-2.081c0.131-0.644,0.255-1.252,0.283-1.997 c0.044-1.136,0.28-2.436,0.488-3.582l0.103-0.567c0.053-0.3,0.114-0.574,0.173-0.833c0.23-1.027,0.37-1.647-0.243-2.784 c-0.201-0.374-0.323-0.429-0.325-0.43c-0.101,0.074-0.697,0.671-1.45,5.216l-0.052,0.308c-0.22,1.249-0.271,2.084-0.337,3.141 c-0.033,0.549-0.071,1.152-0.137,1.893c-0.074,0.826-0.348,1.617-0.612,2.382c-0.105,0.304-0.208,0.601-0.292,0.886 c-0.119,0.407-0.164,0.976,0.071,1.347c0.108,0.171,0.272,0.29,0.498,0.361C29.185,30.171,29.257,30.159,29.328,30.159z"></path><path fill="#fcbf95" d="M32.032,34.854c-0.111,1.615-0.096,3.251-0.096,4.883c0,0.742,0.013,1.47-0.096,2.184 c-0.134,0.879-0.769,1.393-0.938,2.232c-0.36,1.787,1.992,1.689,2.856,0.699c0.898-1.029,0.668-2.969,0.668-4.321 c0-0.987-0.052-1.994,0.093-2.957c0.132-0.874,0.646-1.824,0.568-2.706c-0.794-0.04-1.804-0.235-2.559-0.091 C32.515,34.96,32.415,34.915,32.032,34.854z"></path><path fill="#010101" d="M32.094,46.056c-0.328,0-0.644-0.063-0.912-0.195c-0.655-0.323-0.936-0.981-0.77-1.806 c0.097-0.481,0.318-0.867,0.514-1.208s0.364-0.636,0.421-1.002c0.092-0.608,0.091-1.233,0.09-1.896v-0.748 c-0.002-1.438-0.004-2.927,0.097-4.382c0.01-0.141,0.078-0.27,0.188-0.357c0.109-0.087,0.252-0.121,0.39-0.103l0.114,0.02 c0.06-0.046,0.13-0.078,0.208-0.093c0.602-0.115,1.285-0.047,1.947,0.021c0.254,0.025,0.501,0.051,0.73,0.063 c0.249,0.013,0.45,0.206,0.473,0.454c0.058,0.641-0.135,1.262-0.32,1.862c-0.105,0.341-0.205,0.663-0.251,0.963 c-0.108,0.722-0.1,1.5-0.092,2.254l0.005,0.629c0,0.216,0.006,0.447,0.013,0.688c0.033,1.316,0.075,2.955-0.804,3.963 C33.652,45.734,32.839,46.056,32.094,46.056z M32.5,35.402c-0.066,1.259-0.065,2.548-0.063,3.799v0.747 c0.001,0.671,0.003,1.364-0.102,2.049c-0.084,0.551-0.327,0.975-0.542,1.348c-0.173,0.302-0.336,0.586-0.4,0.908 c-0.109,0.543,0.138,0.666,0.231,0.712c0.475,0.233,1.361,0.013,1.757-0.44c0.624-0.714,0.587-2.137,0.558-3.279 c-0.007-0.249-0.013-0.489-0.013-0.713l-0.005-0.618c-0.009-0.793-0.018-1.613,0.104-2.413c0.057-0.375,0.172-0.748,0.283-1.11 c0.115-0.37,0.226-0.727,0.268-1.06c-0.097-0.009-0.195-0.019-0.295-0.028c-0.5-0.051-1.014-0.104-1.438-0.063 c-0.014,0.014-0.029,0.027-0.045,0.04C32.702,35.354,32.603,35.389,32.5,35.402z"></path><path fill="#fcbf95" d="M36.828,35.136c0,1.521,0.07,3.06-0.028,4.574c-0.078,1.205,0.095,3.063,1.121,4.1 c0.678,0.685,3.553,1.484,3.51,0.109c-0.015-0.481-1.128-1.099-1.355-1.599c-0.286-0.631-0.389-1.395-0.573-2.054 c-0.249-0.894-0.185-2.028-0.121-2.946c0.054-0.776,0.498-1.567,0.376-2.353C38.868,34.865,37.763,35.045,36.828,35.136z"></path><path fill="#010101" d="M40.414,45.167c-1.039,0-2.356-0.508-2.85-1.006c-1.354-1.368-1.311-3.777-1.265-4.483 c0.068-1.05,0.054-2.139,0.039-3.192c-0.006-0.451-0.012-0.901-0.012-1.35c0-0.258,0.195-0.473,0.452-0.498l0.615-0.066 c0.818-0.092,1.663-0.186,2.421-0.102c0.223,0.026,0.402,0.198,0.437,0.42c0.089,0.572-0.061,1.123-0.193,1.609 c-0.082,0.303-0.159,0.59-0.178,0.855c-0.068,0.974-0.117,1.989,0.104,2.776c0.063,0.225,0.116,0.46,0.17,0.698 c0.102,0.446,0.206,0.907,0.377,1.285c0.057,0.125,0.33,0.367,0.529,0.545c0.439,0.392,0.855,0.762,0.87,1.244 c0.016,0.514-0.243,0.923-0.711,1.123C40.993,45.124,40.715,45.167,40.414,45.167z M37.329,35.585 c0.002,0.296,0.006,0.591,0.01,0.887c0.015,1.072,0.03,2.182-0.041,3.271c-0.08,1.237,0.135,2.863,0.978,3.716 c0.391,0.395,1.961,0.902,2.551,0.649c0.084-0.036,0.108-0.063,0.104-0.173c-0.036-0.084-0.349-0.362-0.535-0.528 c-0.324-0.289-0.631-0.562-0.775-0.88c-0.213-0.47-0.328-0.981-0.44-1.476c-0.051-0.223-0.101-0.442-0.158-0.651 c-0.264-0.94-0.213-2.054-0.139-3.114c0.025-0.364,0.12-0.712,0.211-1.048c0.076-0.278,0.148-0.547,0.175-0.801 c-0.537,0.003-1.162,0.061-1.762,0.129C37.447,35.573,37.388,35.579,37.329,35.585z"></path><path fill="#ed2224" d="M13.036,42.649c0.728,0.331,2.337,0.47,2.389,1.565c0.044,0.921-1.577,1.135-2.278,1.188 c-1.122,0.084-2.522,0.176-3.561-0.247C9.03,44.93,8.717,44.783,8.727,44.14c0.016-1.07,0.336-1.2,1.226-1.199 c0.581,0.001,1.034-0.152,1.585-0.221C11.932,42.671,12.614,42.452,13.036,42.649z"></path><path fill="#010101" d="M11.665,45.973c-0.768,0-1.583-0.076-2.268-0.354c-0.528-0.214-1.187-0.481-1.171-1.486 c0.021-1.411,0.644-1.69,1.714-1.69c0.007-0.001,0.01-0.001,0.019,0c0.318,0,0.605-0.056,0.909-0.114 c0.196-0.038,0.395-0.077,0.607-0.104c0.085-0.011,0.184-0.03,0.291-0.051c0.45-0.086,1.01-0.195,1.477,0.021 c0.16,0.072,0.367,0.133,0.589,0.199c0.811,0.244,2.035,0.614,2.092,1.796c0.027,0.561-0.293,1.526-2.739,1.711 C12.749,45.933,12.22,45.973,11.665,45.973z M9.86,43.442c-0.624,0-0.624,0.03-0.634,0.705c-0.005,0.291-0.005,0.321,0.548,0.546 c0.961,0.389,2.39,0.282,3.335,0.21c1.209-0.091,1.828-0.403,1.816-0.665c-0.021-0.441-0.612-0.654-1.383-0.887 c-0.271-0.081-0.521-0.159-0.715-0.247c-0.001-0.001-0.003-0.001-0.004-0.002c-0.177-0.081-0.592,0-0.868,0.053 c-0.131,0.025-0.253,0.049-0.356,0.062c-0.188,0.023-0.366,0.059-0.541,0.093c-0.337,0.065-0.686,0.133-1.1,0.133 C9.92,43.441,9.892,43.442,9.86,43.442z"></path><path fill="#bcbcbc" d="M12.489,25.422c0.007,3.388,0.258,6.545,0.676,9.889c0.182,1.456-0.095,2.899-0.059,4.366 c0.023,0.958,0.618,2.056,0.591,3.02c-0.847,0.112-1.699-0.013-2.547-0.041c-0.882-0.029-1.38,0.172-2.174,0.429 c-1.55,0.502-3.321,0.217-4.905,0.063c-0.121-1.045,0.25-2.145,0.249-3.199c-0.002-1.342,0.003-2.685,0-4.027 c-0.002-1.017,0.017-2.082,0.126-3.085c0.173-1.597,0.193-6.117,0.193-7.745L12.489,25.422z"></path><path fill="#74cccf" d="M4.457,26.672l-0.766-0.574c0,0-0.328-9.987,0.383-11.489s2.824-3.734,4.739-3.638 c1.915,0.096,4.021,1.053,4.596,2.394s2.011,4.883,3.782,5.266s2.92,0.383,2.92,0.383l0.67,2.441c0,0-6.798-0.431-8.473-3.064 c0.351,2.457,0.431,7.42,0.431,7.42l-6.223-0.718l-0.335,1.436L4.457,26.672z"></path><path fill="#010101" d="M3.984,27.29c-0.249,0-0.463-0.185-0.496-0.435L3.446,26.54C3.178,24.53,2.9,22.45,3.355,17.567 c0.031-0.328,0.048-0.661,0.065-0.996c0.067-1.308,0.137-2.66,0.964-3.766c1.187-1.587,3.219-2.037,5.237-2.286 c0.282-0.038,0.523,0.161,0.558,0.435c0.034,0.274-0.161,0.523-0.435,0.557c-1.8,0.222-3.597,0.605-4.56,1.892 c-0.645,0.862-0.704,2.007-0.767,3.219c-0.018,0.348-0.036,0.696-0.067,1.037c-0.434,4.648-0.188,6.688,0.066,8.598l1.511-0.107 c0.002-0.224,0.021-0.502,0.05-0.856c0.021-0.248,0.048-0.587,0.037-0.679C5.874,24.235,6,21.483,6.002,21.458 c0.113-1.375,0.078-1.808,0.041-2.267c-0.039-0.479-0.079-0.974,0.042-2.431c0.022-0.276,0.293-0.473,0.539-0.458 c0.275,0.023,0.48,0.265,0.457,0.54c-0.113,1.375-0.078,1.809-0.041,2.268c0.039,0.479,0.079,0.974-0.042,2.43 c-0.03,0.364-0.076,2.523-0.017,2.825c0.06,0.162,0.041,0.427-0.006,1.009c-0.021,0.257-0.058,0.704-0.046,0.916 c0.064,0.079,0.105,0.179,0.111,0.288c0.016,0.273-0.191,0.508-0.464,0.527l-2.557,0.183C4.008,27.29,3.996,27.29,3.984,27.29z M6.522,26.108c-0.001,0-0.001,0-0.002,0C6.521,26.108,6.521,26.108,6.522,26.108z"></path><path fill="#010101" d="M12.915,26.199c-0.035,0-0.07-0.004-0.105-0.012c-1.497-0.323-3.2-0.447-4.203-0.456l-0.304-0.005 c-0.258-0.005-0.518-0.011-0.771,0.001c-0.192,0.009-0.467,0.029-0.642,0.049c-0.108,0.071-0.246,0.103-0.385,0.069 c-0.244-0.056-0.454-0.305-0.432-0.554c0.045-0.5,0.531-0.523,1.413-0.564c0.277-0.013,0.557-0.008,0.835-0.001l0.293,0.005 c0.922,0.008,2.41,0.109,3.822,0.364c0.003-0.691-0.068-1.412-0.138-2.114c-0.069-0.703-0.141-1.429-0.141-2.133 c0-0.498-0.086-0.827-0.186-1.208c-0.063-0.247-0.128-0.494-0.17-0.783c-0.027-0.181-0.067-0.368-0.106-0.557 c-0.023-0.108-0.046-0.218-0.067-0.328c-0.025-0.051-0.048-0.101-0.068-0.152c-0.184-0.469-0.09-0.828,0.021-1.047 c0.106-0.208,0.343-0.317,0.569-0.258c0.228,0.058,0.384,0.265,0.377,0.5c-0.006,0.194,0.02,0.405,0.057,0.621 c0.584,0.947,2.844,2.266,3.55,2.526c0.952,0.351,2.349,0.743,3.844,0.747c-0.102-0.466-0.205-0.969-0.213-1.44 c-0.144-0.001-0.274,0.001-0.409,0.002c-0.628,0-1.244-0.023-1.949-0.201c-2.153-0.54-2.745-1.874-3.345-3.699 c-0.184-0.556-0.542-1.276-0.915-1.835l-0.15-0.231c-0.184-0.286-0.413-0.643-0.618-0.819c-0.127-0.11-0.413-0.221-0.623-0.303 c-0.281-0.11-0.567-0.237-0.855-0.366c-0.457-0.204-0.929-0.415-1.357-0.538c-0.266-0.076-0.419-0.353-0.343-0.618 c0.075-0.265,0.348-0.421,0.618-0.343c0.497,0.142,1.002,0.368,1.49,0.586c0.273,0.122,0.544,0.243,0.805,0.345 c0.298,0.116,0.661,0.257,0.919,0.479c0.314,0.271,0.575,0.677,0.807,1.036l0.141,0.217c0.425,0.636,0.82,1.432,1.032,2.077 c0.58,1.763,1.029,2.638,2.64,3.042c0.71,0.178,1.33,0.174,2.042,0.169c0.203-0.001,0.41-0.001,0.622,0 c0.15,0.002,0.292,0.072,0.386,0.19s0.128,0.273,0.095,0.42c-0.099,0.436,0.057,1.144,0.182,1.713 c0.039,0.18,0.076,0.351,0.104,0.506c0.026,0.14-0.009,0.285-0.097,0.397c-0.087,0.113-0.219,0.183-0.36,0.192 c-1.883,0.13-3.671-0.358-4.836-0.788c-0.37-0.137-1.743-0.832-2.844-1.696c0.106,0.406,0.214,0.828,0.214,1.445 c0,0.655,0.066,1.325,0.136,2.035c0.093,0.939,0.188,1.91,0.119,2.853c-0.011,0.145-0.084,0.276-0.199,0.363 C13.127,26.164,13.022,26.199,12.915,26.199z"></path><path fill="#fcbf95" d="M4.064,26.762c-0.11,0.994,1.055,1.8,1.952,1.723c1.413-0.12,0.723-1.177,0.592-1.973 C5.805,26.482,4.836,26.481,4.064,26.762z"></path><path fill="#010101" d="M5.897,28.991c-0.619,0-1.296-0.292-1.763-0.771c-0.426-0.437-0.628-0.974-0.568-1.513 c0.021-0.189,0.147-0.351,0.326-0.415c0.846-0.307,1.855-0.313,2.734-0.279c0.237,0.01,0.435,0.185,0.474,0.418 c0.024,0.147,0.071,0.305,0.118,0.463c0.139,0.477,0.312,1.069-0.016,1.547c-0.219,0.318-0.593,0.496-1.146,0.543 C6.005,28.989,5.951,28.991,5.897,28.991z M4.596,27.126c0.056,0.163,0.159,0.298,0.255,0.395c0.298,0.307,0.762,0.491,1.123,0.467 c0.339-0.029,0.404-0.111,0.404-0.112c0.06-0.087-0.062-0.502-0.119-0.701c-0.018-0.058-0.034-0.115-0.05-0.173 C5.669,26.997,5.096,27.011,4.596,27.126z"></path><path fill="#fcbf95" d="M20.34,18.867c1.06-0.096,2.056-0.499,3.18-0.46c0.345,1.071-0.701,0.79-0.868,1.565 c-0.058,0.271,0.184,0.655-0.025,0.936c-0.154,0.207-0.955,0.433-1.203,0.466c-0.865,0.116-0.85-0.445-1.098-1.064 C20.142,19.85,19.562,18.893,20.34,18.867z"></path><path fill="#010101" d="M21.218,21.89c-0.89,0-1.113-0.677-1.251-1.096c-0.031-0.095-0.064-0.195-0.104-0.297 c-0.026-0.065-0.061-0.14-0.098-0.221c-0.215-0.471-0.481-1.056-0.195-1.519c0.104-0.167,0.316-0.37,0.739-0.389 c0.396-0.037,0.786-0.12,1.198-0.208c0.641-0.137,1.297-0.284,2.031-0.252c0.21,0.007,0.394,0.146,0.458,0.346 c0.32,0.994-0.261,1.354-0.573,1.548c-0.205,0.126-0.26,0.172-0.281,0.276c0,0.017,0.016,0.103,0.026,0.16 c0.044,0.232,0.118,0.622-0.14,0.968c-0.338,0.455-1.526,0.663-1.538,0.664C21.394,21.884,21.303,21.89,21.218,21.89z M20.47,19.357c0.047,0.158,0.148,0.379,0.205,0.503c0.044,0.097,0.085,0.188,0.116,0.265c0.048,0.122,0.088,0.242,0.126,0.356 c0.144,0.44,0.15,0.437,0.44,0.398c0.226-0.03,0.783-0.211,0.9-0.305c-0.037,0.026-0.06-0.08-0.072-0.15 c-0.029-0.157-0.066-0.352-0.021-0.557c0.114-0.533,0.486-0.763,0.731-0.915c0.014-0.008,0.027-0.017,0.043-0.026 c-0.406,0.038-0.807,0.124-1.223,0.212C21.314,19.223,20.899,19.312,20.47,19.357z M20.341,18.867h0.01H20.341z"></path><path fill="#010101" d="M6.914,43.869c-0.78,0-1.558-0.083-2.285-0.16l-0.607-0.063c-0.234-0.023-0.421-0.206-0.448-0.44 c-0.076-0.659,0.021-1.315,0.115-1.949c0.067-0.457,0.132-0.89,0.131-1.307v-4.027c-0.003-0.888,0.01-2.048,0.129-3.141 c0.176-1.613,0.19-3.228,0.19-4.743c0-0.276,0.224-0.5,0.5-0.5s0.5,0.224,0.5,0.5c0,1.543-0.016,3.188-0.196,4.852 c-0.114,1.044-0.126,2.167-0.123,3.03v4.027c0.001,0.492-0.071,0.981-0.142,1.455c-0.067,0.45-0.131,0.881-0.132,1.292l0.188,0.02 c1.394,0.147,2.836,0.301,4.087-0.104l0.23-0.075c0.689-0.228,1.233-0.404,2.113-0.379c0.252,0.009,0.503,0.025,0.755,0.042 c0.43,0.028,0.842,0.056,1.244,0.041c-0.049-0.311-0.145-0.644-0.245-0.989c-0.147-0.512-0.3-1.04-0.313-1.561 c-0.015-0.618,0.023-1.229,0.061-1.821c0.054-0.862,0.104-1.677,0.002-2.495c-0.457-3.659-0.674-6.821-0.68-9.95 c-0.001-0.276,0.223-0.5,0.499-0.501h0.001c0.275,0,0.499,0.224,0.5,0.499c0.006,3.087,0.22,6.21,0.672,9.827 c0.114,0.912,0.058,1.812,0.004,2.683c-0.036,0.57-0.073,1.16-0.059,1.733c0.01,0.393,0.138,0.838,0.273,1.309 c0.164,0.568,0.334,1.155,0.317,1.739c-0.007,0.245-0.191,0.449-0.435,0.481c-0.65,0.086-1.291,0.045-1.909,0.003 c-0.24-0.017-0.48-0.032-0.721-0.04c-0.706-0.028-1.128,0.117-1.768,0.328L9.13,43.562C8.417,43.792,7.664,43.869,6.914,43.869z M13.697,42.698h0.01H13.697z"></path><path fill="#010101" d="M8.935,43.539c-0.276,0-0.5-0.224-0.5-0.5c0-0.884-0.02-1.771-0.038-2.654 c-0.013-0.616-0.026-1.232-0.033-1.846c-0.009-0.784,0.139-1.558,0.281-2.307c0.265-1.387,0.1-2.805-0.059-4.176 c-0.056-0.478-0.11-0.953-0.149-1.424c-0.023-0.275,0.182-0.517,0.457-0.539c0.246-0.022,0.517,0.18,0.539,0.457 c0.038,0.46,0.092,0.924,0.146,1.391c0.167,1.446,0.341,2.941,0.06,4.415c-0.146,0.764-0.283,1.487-0.275,2.171 c0.007,0.61,0.02,1.223,0.033,1.836c0.019,0.892,0.038,1.784,0.038,2.676C9.435,43.316,9.211,43.539,8.935,43.539z"></path><g><path fill="#ed2224" d="M4,43.587c0.391,1.06-0.335,2.08,0.957,2.571c0.754,0.286,1.819,0.228,2.616,0.227 c0.648-0.001,1.818,0.059,2.299-0.546c0.493-0.62-0.179-0.954-0.625-1.42c-0.345-0.36-0.653-0.968-1.162-0.983 c-1.433,0.022-2.789-0.15-4.203-0.064c-0.025,0.096-0.007,0.184,0,0.28C3.937,43.667,3.951,43.566,4,43.587z"></path><path fill="#010101" d="M6.819,46.89c-0.675,0-1.43-0.033-2.039-0.265c-1.156-0.439-1.15-1.31-1.146-1.944 c0.001-0.211,0.003-0.414-0.026-0.611c-0.129-0.084-0.214-0.225-0.226-0.384c-0.014-0.14-0.027-0.278,0.016-0.441 c0.055-0.209,0.237-0.359,0.453-0.372c0.83-0.049,1.647-0.015,2.437,0.021c0.59,0.026,1.186,0.049,1.789,0.043 c0.633,0.018,1.018,0.504,1.298,0.858c0.078,0.099,0.154,0.196,0.232,0.278c0.081,0.084,0.171,0.163,0.258,0.241 c0.353,0.314,1.086,0.971,0.398,1.836c-0.596,0.749-1.755,0.737-2.533,0.735l-0.157-0.001l-0.339,0.003 C7.102,46.888,6.962,46.89,6.819,46.89z M4.585,43.848c0.054,0.306,0.052,0.594,0.05,0.84c-0.005,0.643,0.014,0.817,0.5,1.002 c0.562,0.213,1.41,0.204,2.089,0.197l0.349-0.003l0.165,0.001c0.508,0.003,1.451,0.01,1.743-0.358 c0.059-0.073,0.064-0.107,0.065-0.107c-0.019-0.066-0.225-0.25-0.348-0.36c-0.105-0.095-0.214-0.192-0.313-0.295 c-0.099-0.104-0.196-0.225-0.295-0.349c-0.167-0.212-0.376-0.476-0.521-0.479c-0.6,0.008-1.218-0.018-1.826-0.044 C5.677,43.866,5.13,43.834,4.585,43.848z"></path></g><g><path fill="#1e4384" d="M36.268,12.262c-2.018,0-2.994,0.584-4.877,1.238c0.17,1.32,1.067,2.591,0.926,4 c-0.142,1.417-0.736,4.559-0.926,6c-0.379,2.878-1.102,4.146-1.529,7.052c-0.118,0.8-0.09,1.701-0.269,2.487 c-0.158,0.698-0.667,1.35-0.494,2.094c1.085-0.133,1.792,0.411,2.868,0.77c1.051,0.351,2.235,0.474,3.335,0.487 c1.313,0.015,2.615,0.076,3.912,0.096c0.74,0.011,1.502,0.059,2.206-0.216c0.431-0.168,0.625-0.539,1.148-0.576 c-0.093-0.038-0.028-0.02-0.182-0.034c-0.694-1.292-0.705-4.646-0.808-6.16c-0.12-1.767-0.614-3.281-0.926-5 c-0.337-1.854-0.35-3.205-0.926-5c-0.259-0.806-0.083-1.769,0.066-2.592c0.149-0.824,0.737-2.238,1.176-2.913 c-0.904-0.108-1.619-1.055-2.483-1.352C37.869,12.432,36.666,12.141,36.268,12.262z"></path><path fill="#010101" d="M39.905,36.996c-0.157,0-0.313-0.004-0.469-0.007l-0.229-0.004c-0.613-0.01-1.227-0.027-1.841-0.046 c-0.688-0.021-1.377-0.042-2.07-0.05c-1.343-0.016-2.517-0.188-3.487-0.513c-0.325-0.109-0.617-0.233-0.896-0.352 c-0.622-0.267-1.118-0.479-1.751-0.396c-0.275,0.036-0.49-0.135-0.549-0.383c-0.15-0.646,0.076-1.205,0.276-1.698 c0.084-0.205,0.17-0.41,0.218-0.621c0.095-0.42,0.126-0.882,0.159-1.371c0.025-0.366,0.051-0.73,0.102-1.077 c0.213-1.443,0.497-2.494,0.772-3.511c0.291-1.074,0.565-2.089,0.756-3.534c0.081-0.613,0.234-1.534,0.396-2.5 c0.22-1.319,0.448-2.683,0.528-3.484c0.072-0.724-0.182-1.433-0.45-2.184c-0.196-0.547-0.398-1.112-0.475-1.702 c-0.03-0.235,0.108-0.458,0.332-0.536c0.407-0.142,0.771-0.279,1.113-0.409c1.248-0.473,2.236-0.848,3.868-0.856 c0.776-0.152,2.421,0.402,2.438,0.407c0.449,0.154,0.835,0.435,1.208,0.707c0.408,0.296,0.793,0.577,1.172,0.622 c0.172,0.021,0.32,0.128,0.394,0.285c0.073,0.157,0.061,0.34-0.034,0.484c-0.426,0.655-0.972,2.007-1.103,2.73 c-0.143,0.788-0.301,1.667-0.082,2.35c0.396,1.231,0.534,2.258,0.682,3.345c0.072,0.54,0.148,1.101,0.261,1.718 c0.106,0.587,0.235,1.15,0.362,1.708c0.24,1.059,0.49,2.153,0.571,3.348c0.019,0.283,0.035,0.63,0.053,1.016 c0.068,1.485,0.17,3.681,0.602,4.738l0,0c0.213,0.091,0.352,0.322,0.313,0.55c-0.039,0.228-0.212,0.406-0.442,0.423 c-0.164,0.012-0.263,0.079-0.452,0.219c-0.142,0.104-0.317,0.233-0.55,0.324C41.038,36.956,40.467,36.996,39.905,36.996z M29.584,34.616c0.641,0.03,1.168,0.255,1.72,0.49c0.256,0.108,0.524,0.224,0.821,0.322c0.873,0.292,1.943,0.447,3.183,0.462 c0.699,0.008,1.395,0.029,2.089,0.05c0.609,0.019,1.218,0.037,1.825,0.046l0.234,0.004c0.64,0.014,1.244,0.026,1.781-0.186 c0.109-0.042,0.208-0.114,0.321-0.198c0.062-0.045,0.127-0.094,0.198-0.141c-0.455-1.257-0.552-3.356-0.625-4.938 c-0.018-0.377-0.033-0.717-0.052-0.993c-0.076-1.117-0.306-2.126-0.549-3.194c-0.13-0.571-0.262-1.148-0.371-1.751 c-0.115-0.633-0.192-1.209-0.268-1.763c-0.141-1.042-0.273-2.026-0.642-3.173c-0.296-0.92-0.106-1.974,0.047-2.82 c0.133-0.735,0.541-1.785,0.928-2.542c-0.343-0.159-0.654-0.385-0.958-0.606c-0.328-0.238-0.638-0.464-0.944-0.569 c-0.762-0.261-1.708-0.426-1.911-0.375c-0.04,0.01-0.103,0.021-0.144,0.021c-1.484,0-2.361,0.332-3.574,0.792 c-0.232,0.088-0.475,0.18-0.734,0.274c0.085,0.357,0.216,0.722,0.352,1.101c0.294,0.822,0.598,1.672,0.503,2.621 c-0.083,0.833-0.313,2.214-0.536,3.549c-0.159,0.953-0.312,1.861-0.391,2.466c-0.2,1.51-0.496,2.605-0.782,3.664 c-0.268,0.989-0.545,2.011-0.748,3.396c-0.048,0.321-0.07,0.659-0.094,0.999c-0.034,0.506-0.07,1.028-0.183,1.524 c-0.06,0.263-0.161,0.52-0.266,0.776C29.715,34.172,29.622,34.4,29.584,34.616z"></path></g><g><path fill="#fcbf95" d="M40.657,14.397c0.791,0.387,1.491,2.43,1.651,3.259c0.189,0.984-0.12,2.18-0.066,3.235 c0.109,2.149-0.271,4.326-0.772,6.477c-0.385,1.651-0.4,2.566-2.486,1.867c-0.046-0.634-0.324-2.318,0.7-2.195 c-0.182-2.011-0.003-3.339,0.023-5.452c0.016-1.268-0.708-3.284-0.648-4.568C39.12,15.688,40.127,15.321,40.657,14.397z"></path><path fill="#010101" d="M40.132,29.971c-0.358,0-0.785-0.087-1.308-0.263c-0.191-0.063-0.325-0.236-0.34-0.438l-0.02-0.222 c-0.063-0.679-0.161-1.704,0.374-2.226c0.075-0.072,0.177-0.149,0.309-0.206c-0.079-1.173-0.041-2.124,0.003-3.205 c0.023-0.562,0.047-1.156,0.056-1.832c0.007-0.554-0.154-1.326-0.31-2.073c-0.184-0.876-0.372-1.781-0.338-2.512 c0.049-1.052,0.589-1.615,1.064-2.112c0.229-0.239,0.445-0.464,0.601-0.736c0.131-0.23,0.417-0.315,0.653-0.201 c1.114,0.545,1.81,3.028,1.922,3.614c0.122,0.637,0.062,1.325,0.002,1.989c-0.041,0.465-0.08,0.904-0.06,1.314 c0.119,2.35-0.33,4.663-0.784,6.615l-0.083,0.367c-0.199,0.889-0.355,1.591-0.973,1.938C40.685,29.91,40.433,29.971,40.132,29.971z M39.452,28.856c0.578,0.163,0.84,0.127,0.958,0.06c0.229-0.129,0.349-0.665,0.487-1.286l0.085-0.375 c0.439-1.885,0.873-4.112,0.761-6.338c-0.024-0.48,0.02-0.975,0.062-1.454c0.056-0.623,0.108-1.212,0.012-1.711 c-0.15-0.783-0.628-2.03-1.07-2.614c-0.13,0.157-0.267,0.299-0.4,0.439c-0.423,0.441-0.757,0.79-0.789,1.467 c-0.027,0.604,0.148,1.446,0.318,2.261c0.167,0.799,0.339,1.625,0.331,2.29c-0.009,0.685-0.033,1.289-0.056,1.859 c-0.049,1.186-0.09,2.21,0.03,3.541c0.014,0.15-0.042,0.299-0.149,0.403c-0.108,0.106-0.259,0.161-0.408,0.138 C39.47,27.585,39.361,27.823,39.452,28.856z"></path></g><g><path fill="#fcbf95" d="M5.585,9.303c0.009,0.713,0.108,1.465,0.524,2.028c0.612,0.828,1.774,1.019,2.733,0.726 c1.809-0.554,3.01-2.734,2.566-4.659c-0.371-1.608-2.101-3.17-3.751-2.984C5.771,4.627,5.564,7.674,5.585,9.303z"></path><path fill="#010101" d="M7.972,12.685c-0.836,0-1.705-0.301-2.265-1.057c-0.541-0.731-0.614-1.674-0.622-2.319l0,0 C5.044,6.02,5.937,4.105,7.6,3.916c1.973-0.215,3.886,1.596,4.295,3.369c0.501,2.17-0.857,4.623-2.906,5.25 C8.673,12.632,8.325,12.685,7.972,12.685z M7.937,4.898c-0.074,0-0.149,0.004-0.225,0.013C6.196,5.082,6.069,8.035,6.085,9.296l0,0 c0.01,0.806,0.146,1.357,0.427,1.737c0.502,0.679,1.485,0.758,2.184,0.545c1.547-0.473,2.607-2.413,2.225-4.069 C10.628,6.245,9.294,4.898,7.937,4.898z"></path></g><g><path fill="#fcbf95" d="M33.388,6.518c-0.666,0.642-0.643,2.014-0.622,2.875c0.02,0.837,0.222,1.605,0.67,2.309 c0.563,0.885,1.425,1.06,2.477,0.841c1.52-0.316,1.937-2.502,1.975-3.773c0.033-1.079-0.134-2.144-1.244-2.575 C35.599,5.789,33.705,5.475,33.388,6.518z"></path><path fill="#010101" d="M35.161,13.126c-0.937,0-1.656-0.387-2.146-1.156c-0.479-0.753-0.725-1.592-0.749-2.566 c-0.021-0.881-0.056-2.333,0.689-3.157c0.128-0.313,0.364-0.559,0.69-0.718c1.152-0.56,2.976,0.121,3.18,0.199 c1.638,0.636,1.584,2.395,1.563,3.057c-0.055,1.826-0.707,3.9-2.374,4.247C35.713,13.095,35.428,13.126,35.161,13.126z M34.745,6.311c-0.262,0-0.493,0.036-0.662,0.118c-0.15,0.073-0.194,0.164-0.216,0.233c-0.024,0.082-0.07,0.156-0.132,0.215 c-0.518,0.5-0.486,1.803-0.47,2.503c0.02,0.786,0.213,1.457,0.593,2.053c0.399,0.626,1,0.815,1.953,0.62 c1.175-0.244,1.544-2.188,1.577-3.299c0.038-1.217-0.23-1.824-0.925-2.093C35.946,6.46,35.281,6.311,34.745,6.311z M33.389,6.517 h0.01H33.389z"></path></g><g><path fill="#f58420" d="M35.399,6.96c-0.535,0.744-1.886,0.049-2.358,0.771c-0.291,0.446-0.371,2.521,0.203,3.861 c0.406,0.948-1.248,0.037-2.106-0.431c-0.601-0.328-1.124-0.945-1.101-1.601c0.024-0.687,0.357-2.613,0.696-3.158 c0.365-0.586,0.793-1.048,1.171-1.559c0.372-0.503,0.727-1.141,1.361-1.242c0.82-0.132,1.994-0.285,2.816-0.085 c0.879,0.214,1.071,0.773,1.71,1.253c0.269,0.203,0.592,0.218,0.865,0.378c0.314,0.183,0.624,0.623,0.864,0.881 c0.471,0.508,0.359,0.937,0.426,1.556c0.06,0.551,0.392,2.375,0.119,2.917c-0.17,0.337-0.658,0.649-1.028,0.757 c-0.314,0.092-2.26,1.083-2.154,0.766c0.287-0.862,0.431-1.638,0.862-2.92c0.148-0.44,0.247-1.036-0.048-1.406 c-0.301-0.377-0.718-0.737-1.388-0.65C36.381,6.956,35.392,7.045,35.399,6.96z"></path><path fill="#010101" d="M36.931,12.588c-0.153,0-0.269-0.049-0.377-0.146c-0.146-0.133-0.208-0.389-0.146-0.577 c0.125-0.374,0.222-0.731,0.327-1.122c0.139-0.51,0.292-1.075,0.536-1.8c0.142-0.425,0.155-0.783,0.035-0.935 c-0.302-0.377-0.575-0.512-0.934-0.466c-0.093,0.01-0.188-0.003-0.271-0.041c-0.065-0.002-0.149,0-0.234,0 c-0.105-0.001-0.206,0-0.293-0.003c-0.411,0.336-0.958,0.347-1.377,0.355c-0.392,0.008-0.654,0.023-0.738,0.151 c-0.16,0.28-0.292,2.137,0.246,3.39c0.224,0.524,0.028,0.811-0.107,0.935c-0.439,0.399-1.146,0.117-2.665-0.711 c-0.683-0.373-1.429-1.124-1.396-2.077c0.023-0.679,0.348-2.724,0.771-3.405c0.251-0.402,0.523-0.742,0.787-1.071 c0.138-0.173,0.275-0.344,0.406-0.521l0.157-0.219c0.347-0.49,0.777-1.1,1.527-1.22c0.934-0.15,2.12-0.295,3.013-0.078 c0.724,0.176,1.09,0.558,1.413,0.895c0.141,0.146,0.287,0.301,0.479,0.446c0.084,0.063,0.202,0.102,0.339,0.146 c0.146,0.047,0.312,0.102,0.478,0.199c0.303,0.177,0.559,0.48,0.784,0.749c0.068,0.082,0.134,0.159,0.193,0.224 c0.489,0.526,0.513,1.032,0.533,1.477c0.005,0.115,0.011,0.235,0.024,0.365c0.011,0.097,0.029,0.234,0.053,0.396 c0.162,1.168,0.286,2.262,0.015,2.8c-0.241,0.479-0.854,0.872-1.333,1.012c-0.09,0.027-0.304,0.127-0.561,0.242 C37.72,12.383,37.245,12.587,36.931,12.588z M35.132,3.918c-0.603,0-1.271,0.092-1.787,0.175c-0.334,0.054-0.594,0.421-0.869,0.81 L32.307,5.14c-0.139,0.188-0.284,0.369-0.431,0.552c-0.257,0.32-0.499,0.623-0.719,0.974c-0.259,0.417-0.597,2.207-0.62,2.911 c-0.015,0.397,0.331,0.868,0.841,1.146c0.257,0.14,0.823,0.449,1.251,0.634c-0.438-1.436-0.396-3.301-0.007-3.899 c0.38-0.58,1.031-0.593,1.555-0.604c0.432-0.009,0.701-0.026,0.816-0.186c0.132-0.182,0.37-0.255,0.578-0.177 c0.008,0.002,0.016,0.005,0.022,0.008c0.075,0.005,0.175,0.002,0.272,0.002c0.211,0.003,0.397,0,0.543,0.035 c0.952-0.047,1.496,0.621,1.679,0.849c0.442,0.554,0.315,1.327,0.132,1.877c-0.237,0.702-0.385,1.25-0.519,1.743 c-0.03,0.111-0.06,0.219-0.089,0.326c0.22-0.094,0.442-0.194,0.595-0.263c0.318-0.143,0.587-0.26,0.69-0.29 c0.281-0.083,0.632-0.327,0.721-0.502c0.153-0.306-0.047-1.741-0.113-2.212C39.48,7.888,39.46,7.74,39.449,7.636 c-0.017-0.151-0.023-0.292-0.029-0.427c-0.019-0.389-0.027-0.584-0.267-0.842c-0.07-0.076-0.146-0.166-0.227-0.261 c-0.164-0.196-0.369-0.439-0.522-0.529c-0.074-0.043-0.171-0.075-0.283-0.111c-0.184-0.06-0.413-0.135-0.631-0.298 c-0.24-0.181-0.424-0.37-0.599-0.552C36.598,4.309,36.403,4.107,35.963,4C35.72,3.941,35.435,3.918,35.132,3.918z"></path></g></svg>