<svg xmlns="http://www.w3.org/2000/svg" x="0px" y="0px"
width="48" height="48"
viewBox="0 0 512 512"
style=" fill:#000000;"><path fill="#EF4754" d="M283.2 393.9c-.1-5.7-.8-11.2-1.6-16.8-5.2 6.5-11.7 11.5-19.7 13.5-9.3 2.3-18.8-.9-25.8-7.1-3.4-3-6.8-6-10.1-9.1-5.3 5.7-13 9.6-21.2 11.7 2.4 7 4.6 14 7.7 20.6 2.8 6.1 5.9 12 8.8 18 2.5 5.2 5.4 11.2 10.1 14.7 4.8 3.5 11.6 4.7 17.4 3.6 11.9-2.3 21.7-12.8 27.4-22.9 2.8-4.9 4.6-9.9 6.2-15.3.5-2 1.5-4.7 2.1-7.6C283.6 396.4 283.2 395.3 283.2 393.9zM382.4 278.5c-1.2-9.1-3.5-19.1-10.2-25.8-5.9 0-11.9-.9-17.8-1.6-2.4 5.1-5.6 9.8-9.6 14.1-1.6 1.7-3.4 3.6-5.4 5.4.2.3.3.7.4 1 3.8 13.2 7.3 26.7 8.4 40.4.7 9.5.6 19.6-2.5 28.7 8.4-.5 17.6-1.3 24.8-5.7 9.2-5.5 10.6-14.3 11.7-24.3C383.4 300.1 383.8 289.2 382.4 278.5zM310.1 122.9c-5.2.1-10.5.9-15.5 1.9-3 .6-6 1.3-8.8 2.6-.3.1-.5.2-.8.4 1.7 4.8-4.6 9.1-8.6 6.1-1.2 2.5-2.3 4.9-3.3 7.5 4.8-.9 9.4 1.9 13.4 6.9 4.4 5.6 12.3 5.3 18 8.9 5.7-11.9 20.7-21.7 31.8-22.8.8-.1 1.6-.1 2.5-.2C336.3 127.3 313.9 122.9 310.1 122.9z"></path><path fill="#71C598" d="M282.3,71c-2-1-4-2.4-6-3.4c-0.1,0.2-0.3,0.5-0.4,0.8c-3,6-7.3,11.3-10.5,17.3c-4.8,8.8-8.5,18.4-11.3,28.3c0.1,0.7,0.1,1.3,0.1,2.1c0,1.6-0.7,2.9-1.6,3.9c-3.2,13.8-4.7,28-4.4,41.7c1.9,1.6,2.8,4.2,1.8,6.3c1.8,0.6,3.7,0.9,5.7,1c3.1-34.7,22.7-66.7,49.7-88.4C297.3,78.2,289.8,74.7,282.3,71z"></path><path fill="#71C598" d="M302.4,169.5c0-0.1,0-0.2,0-0.3c-0.8-0.2-1.6-0.7-2.4-1.5c-2.8-3-7.4-3.6-11.4-4.9c1.8,2.1,2.1,5.2,0.2,7.4c-1.9,2.2-5.6,2.6-7.8,0.5c-0.6-0.6-1.2-1.2-1.9-1.7c-0.6-0.4-0.7-0.5-0.3-0.3c-0.3-0.2-0.7-0.4-1-0.6c-0.2-0.1-0.3-0.1-0.4-0.2c-0.2,0-0.3-0.1-0.5-0.1c-0.1,0-0.9,0-0.4-0.1c-2.9,0.6-5.9-0.3-7-3.4c-0.9-2.6,0.4-6.4,3.4-7c2.3-0.5,4.6-0.7,6.8-0.2c-0.5-0.5-1-1-1.4-1.6c-1.8-2.3-2.4-4.5-4.5-2.4c-1.5,1.5-3.3,2-4.9,1.6c-1.2,5-2,10-2.5,15.1c1.4,1.5,2.2,3.7,1.2,6.1c0.4-0.9,0.2,0.5,0.3,1c0.4,1.2,0.8,2.3,1.4,3.4c1.2,2.1,2.5,4.1,3.9,6.1c4.2,5.7-4.9,11.8-9.1,6.2c-2.7-3.6-5.6-8-6.8-12.6c-3.7-0.1-7.5-0.4-11-1.5c-1.8,3.7-6.1,7.5-6.2,11.7c-0.1,3-1.8,5.7-5.1,5.9c-2.7,0.2-6-2.1-5.9-5.1c0.1-3.6,1-6.9,2.9-10c1.4-2.3,3-4.4,4.2-6.8c-3.3,0.6-6.8,0.9-10.2,0.9c-7.1,0.1-7.9-10.9-0.8-11c3.8,0,8-0.2,11.9-1.3c0-1.4,0-2.9,0-4.4c-0.8,0.8-1.8,1.4-3,1.6c-11.3,2.4-22.8,3.5-34.4,4.4c2.8,3.3,6.2,6.3,8.1,9.9c2.9,5.4,2.3,10.6-0.9,14.8c0,1.7-0.7,3.3-2.2,4.2c9.4,1.3,17.8,5.8,23.1,14.5c9-5.9,19.3-9.9,30-9.3c5.2,0.3,10.3,1.3,15,3.2c-0.6-1.3-0.8-2.9-0.2-4.6C277.8,183.7,289,172,302.4,169.5z"></path><path fill="#EF4754" d="M208.6 356c-6.8-9-11.8-18.8-12.5-30.2-.4-5.8-.2-12.1 1.5-17.9-10.8-.4-22.5-3.7-30.9-10.5-2.9-2.4-5.3-5.1-7.3-8.1-.3.2-.6.3-.9.5-3.1 1.3-6.3 2.1-9.5 2.4-.5 2.7-2.8 5.3-6.3 4.8-5.5-.8-3.4 16.7-2.7 19.4 3.5 13.5 10.5 25.9 18.1 37.4 6.4 9.6 16.5 23.9 29.7 23.4 10.3-.4 22.9-2.4 30.2-10.3C214.6 363.3 211.5 359.8 208.6 356zM336.8 308.3c-1.3-10.3-3.8-20.4-6.6-30.4-9.4 6.4-20.3 10.3-30.1 5.8-4.3 8-10.6 15.3-18.4 19.9 12.1 11.9 16.8 30.6 12.5 47.1-.9 3.6-2.2 7.3-3.7 11 .7.8 1.2 1.9 1.4 3 15.5 7.9 35.9-10.5 42-24C338.5 330.7 338.2 319 336.8 308.3zM389.5 203c-2.4-8.6-4.2-17.4-7.4-25.7-3.4-8.8-8.3-16-15.8-21.8-6.8-5.3-15.6-10.4-24.5-10.4-7.8 0-14.3 2.8-20 8.2-4.1 3.9-10.4 10.1-8.1 16.3 1.5.3 3 .7 4.6 1.3 17.9 6.5 34 24.6 39.1 42.8 2.5 9 2.7 18.2.6 26.9 14.1 1.5 33.1 3.5 34.9-15C393.7 217.9 391.6 210.2 389.5 203zM270.5 308.5c-7.4 2.2-15.2 2.3-23-.1-7.1-2.2-13.4-6.1-19-11-5.6 4.1-11.9 7.4-18.5 9.1-3.6 6-3.5 14.4-2.7 20.9 1.2 9 5.8 16.7 11.4 23.7 7 8.7 15.3 15.8 23.5 23.2 4.5 4 10.5 7.5 16.8 5.7 13.1-3.9 21.4-18.9 24.4-31.4C286.9 334.1 283 317.3 270.5 308.5zM294.6 253.2c-1.8-10.1-4.7-20.9-10.7-29.4-6.3-9-17-15.1-28.2-14.4-11.4.7-21.7 6.1-30 13.7-1 .9-2.1 1.4-3.2 1.5-.2.5-.5 1-.8 1.5-7.8 10.2-10.2 22.5-5.8 34.8 3.1 8.6 8.6 17 15.1 23.7 2.1.6 3.8 2.2 4.3 4.1 7.7 6.7 17.4 12 27.9 10.3.6-.1 1.3-.2 1.9-.4 1.3-2.2 3.8-3.6 6.7-2.2 6.4-2.9 12-7.7 16-13.6 1.9-2.7 3.4-5.5 4.5-8.4.1-.4.3-.9.5-1.3C295.1 266.8 295.8 260.1 294.6 253.2z"></path><path fill="#EF4754" d="M219.3 287.7c-7.6-9.4-14.2-20.3-16-32.4-2-13.5 2.1-25.8 10.2-36.5.9-1.2 2-1.8 3.1-2 .2-.3.5-.7.9-1 .5-.5 1-.9 1.5-1.4-4.9-10-16.3-12-26.6-10.3-1.5 2.4-5.1 3.4-7.7 2-12.2 4.2-23.4 12.2-25.9 25.7-2.3 12.5.9 24.7 3.9 36.8 1.8 7.2 4.2 14.9 10.2 19.7 9.1 7.3 20.5 9.6 31.3 7.7 1.3-1 2.7-1.2 4.1-.9 4.3-1.2 8.5-3.1 12.3-5.7C220.3 288.9 219.8 288.3 219.3 287.7zM346.7 215.9c-4.8-14.1-16.4-28.4-30.4-34.2-15.6-6.4-28.3 6.4-33.7 20.2-.6 1.6-1.7 2.6-2.9 2.9 3.8 2.3 7.3 5.1 10.2 8.6 7.4 8.7 11.7 20 14.2 31.1 2.2 9.9 3 19.3.3 28.9 5.9 2.9 12.3 0 18-3.7 6.4-4.2 12.3-8.9 17-15C347.8 243.6 351.3 229.4 346.7 215.9zM344.1 353.5c-.3-.5-.6-1.1-.7-1.6-.1 0-.2 0-.3 0-1 .1-2-.1-2.7-.5-10.4 15-29.8 29.9-47.8 25.2.3 2 .6 4.1.9 6.1 3.6 6.6 2.2 14.5.3 21.5-1.8 6.7-3.7 13.5-7.2 19.6-2.6 4.6-5.7 9.1-9.2 13.2 9.4 6.8 20.3 8.5 30.6 6.3 1.3-1.2 2.9-1.5 4.5-1.2 10.5-3.5 19.8-11.1 25.4-21.5 5.6-10.3 8.3-22.5 9.8-34C349 376.1 350.2 362.9 344.1 353.5zM387 334.2c-2.4 4-5.7 7.4-10.3 10-6.7 3.7-14.1 5.6-21.6 6.6 5.7 11.4 5 25.7 3.3 37.9-1.1 8-2.8 16.4-5.4 24.3 7.3-.8 13.6-6.7 18.1-12.1 5.7-6.9 10.3-14.8 13.2-23.3 2.5-7.3 3.8-15.6 4.5-23.3C389.3 348.7 390.1 339.9 387 334.2zM367.5 419.1c-5.7 3.5-12 5.5-19 4.8-.9 1.8-1.9 3.5-2.9 5.1-7.4 11.6-18.3 19.8-30.4 23.6-3 6.3-5.9 13.1-9.8 19.1 3.2 5 12.9 1.3 17.1-.5 9.2-3.9 18.2-10.2 25.5-17.1 5.9-5.6 11.2-11.1 14.9-18.5C365.4 430.8 368.2 424.7 367.5 419.1zM216.1 109.9c-6.9.7-13.2 2-19.9 5.3-7.1 3.5-13.1 8.7-18.7 14.2 1.9.7 3.7 1.5 5.4 2.4 6.7 3.8 10.6 9.6 16.4 14.5 2.4 2.1 2.3 4.9.9 6.9 11.1-.9 22.1-2 33-4.3 1.8-.4 3.2.1 4.1 1 .5-10.7 2-21.3 4.6-31.6.3-1.1.6-2.3.9-3.4C240.2 107.8 221.4 109.4 216.1 109.9zM410.9 288.2c-1.2-16.1-4.6-32.8-12.8-46.9-3.3 4.4-7.8 7.8-13.4 9.6 11.9 17.9 10.5 44.2 8 64.3-.3 2.5-.7 5-1.3 7.5.3.2.6.4.8.7 3.1 3 5 6.7 6.2 10.6 4.2-5.7 8.1-12 10.1-18.8C411.1 306.3 411.5 297.3 410.9 288.2zM269.4 444.8c-5.1 4-10.8 7.1-17.2 8.7-8 1.9-16.8.8-24-3.1-2.4-1.3-4.4-2.9-6.3-4.7-1.6 2.6-4 4.2-6.9 5.2 10.2 18.2 30.5 28.1 51.1 28.4 9.9.1 19.9-1.1 26.7-9.1 3.8-4.5 6.6-9.7 9.1-15C290.7 455.6 279.3 452.5 269.4 444.8z"></path><path fill="#EF4754" d="M179.9,196.1c-2.2-5.9-5-11.9-10-15.4c-8-5.6-20.5-2.5-28.8,0.5c-15.5,5.6-27.4,15.3-32,31.7c-4.2,14.9-3.8,31.5,3,45.5c7.3,15,25.5,27.9,42.5,21c-0.8-2.3-1.5-4.7-2.1-7.1c-3.6-14.3-7.8-29.7-3.9-44.4C152.7,212.3,165,201.3,179.9,196.1z"></path><path fill="#EF4754" d="M196.6 183.9c1.8-1.2 2.9-1.9 1.9-4-1.1-2.3-3-4.3-4.6-6.2-3.3-3.7-7-7.5-8.4-12.4-.9-3.4 1-7 4.8-7.3.3 0 .7 0 1-.1-4.9-4.4-8.3-10-14.5-12.9-5.9-2.7-12.6-3.9-19.1-3.4-9.3.7-16.1 4.6-23.3 10.2-7.6 6-14.9 12.9-20.4 20.8-3.4 4.8-8.5 12.9-4.7 18.7.3.5.5 1 .7 1.4 8.1-9.4 19.1-16 32-19.5 11.3-3.1 25.3-4.8 35.2 3.1 6.8 5.4 10.4 13.1 13.4 21.1 2-.3 4-.5 6-.6C193.7 190.8 193 186.4 196.6 183.9zM127.9 310.8c-.4-6.6.8-15.3 5-20.4-7.6-2.4-14.7-6.9-20.4-12.6-.3.1-.7.1-1 .2-5 15.8-2.4 35.9 4.6 50.4 3.6 7.5 8.8 16.4 15.3 21.6 3.6 2.9 8.6 2.3 13.1 3.1C136.7 340.3 128.7 325.7 127.9 310.8zM213.9 434.4c-3.6-6.8-6.9-13.7-10.2-20.6-4-8.4-6.9-17.2-9.9-25.9-2.8.2-5.6.2-8.2 0-14.8-1.2-25.6-12.4-33.9-24-1.7 2.4-5 3.5-7.6.7-.7-.7-1.6-1.1-2.7-1.4-1.5 11.5 4 23.3 9.8 33 6.7 10.9 14.6 21.1 23.4 30.4 5.2 5.6 14.3 9 21.6 11.5 4 1.3 8.6 2.7 12.8 2.4 2.9-.2 3.9-.4 4.3-3.1.1-1 .5-1.8 1-2.4C214.1 434.8 214 434.6 213.9 434.4z"></path><path d="M430.8 202c.2.1.4.1.7.2.4-1.2.7-2.3 1-3.5C431.9 199.8 431.4 200.9 430.8 202zM422 290.3c-.8-20.7-6-42.7-17.8-59.9-.2-.3-.5-.6-.7-.8 2-9-.6-19-2.9-27.6-3-11-5.4-22.3-10-32.7-7-16.1-22.9-30-40.5-34 0-15.8-28.3-23.1-40.9-23.3-4-.1-13.6.8-21.9 3.3 9.4-13.1 21.3-24.5 34.4-33.3 3.7-2.5 2.9-9.5-2-10-14.3-1.3-26.8-7.9-39.2-14.6-4.1-2.2-8.4-1.9-11.8 1.5-1.5 1.5-2.4 3.9-3.4 5.7-2 3.9-4.7 7.5-7 11.2-5.2 8.3-9 17.6-12 27.1-7.9-4.3-20-4.5-27.4-4.2-8.1.4-16.2 2-23.7 5-10.8 4.3-19.5 12.1-27.7 20.1-1 1-1.5 2-1.5 3.1-2.1-.2-4.2-.3-6.2-.3-12.2-.2-22.2 4.9-31.6 12.1-9.7 7.4-18.5 16.3-25.2 26.6-5.4 8.3-8.8 19.3-2.9 28.3 1.2 1.9 3 2.5 4.7 2.4-2.4 3.8-4.3 8-5.8 12.6-6 18.6-4.5 39.4 4.4 56.8.4.8.9 1.6 1.4 2.5-.9.6-1.7 1.4-2 2.2-7.3 18.6-5.4 41.2 2 59.5 3.8 9.4 10 18.4 16.7 25.9 2.6 2.9 5.5 5 9 6.2-2 13.8 4.2 27.7 10.9 39.4 4.2 7.4 9.3 14.2 14.7 20.8 4 4.9 8.1 10.6 13 14.6 6.2 5.1 22.3 13.5 35.5 15-.3 1.3-.2 2.6.5 4 11.9 23 37 33.8 61.9 34.6 11.6.4 22.4-2.2 31.1-9.8 5.6 6.2 15.8 5 23.3 3 11.6-3.2 22.3-11 31.3-18.6 8.2-7 15-14.5 20.1-24.1 4.4-8.4 8.2-19.7 4-28.9 0-.1-.1-.1-.1-.2 7.7-8.1 13.5-18.7 17-27.9 3.6-9.4 5.2-19.7 6-29.6.2-2.2.3-4.5.3-6.8 1.3 0 2.6-.6 3.7-2 6-7.7 11.4-15.8 14.6-25.1C421.7 310.4 422.4 300.4 422 290.3zM366.3 155.5c7.4 5.8 12.4 13 15.8 21.8 3.2 8.3 5 17.1 7.4 25.7 2.1 7.2 4.2 14.9 3.4 22.5-1.8 18.5-20.8 16.5-34.9 15 2-8.7 1.9-17.9-.6-26.9-5.1-18.3-21.2-36.3-39.1-42.8-1.5-.6-3-1-4.6-1.3-2.3-6.2 4-12.4 8.1-16.3 5.6-5.3 12.2-8.2 20-8.2C350.7 145.1 359.5 150.2 366.3 155.5zM281.7 303.6c7.8-4.6 14.1-11.8 18.4-19.9 9.7 4.5 20.7.6 30.1-5.8 2.8 10 5.2 20.1 6.6 30.4 1.4 10.7 1.7 22.4-2.8 32.4-6.1 13.5-26.5 31.9-42 24-.2-1.1-.7-2.1-1.4-3 1.6-3.7 2.8-7.4 3.7-11C298.5 334.2 293.8 315.5 281.7 303.6zM283.4 348.6c-3 12.5-11.3 27.5-24.4 31.4-6.3 1.9-12.3-1.6-16.8-5.7-8.2-7.4-16.5-14.5-23.5-23.2-5.7-7-10.3-14.7-11.4-23.7-.8-6.6-1-15 2.7-20.9 6.7-1.8 13-5 18.5-9.1 5.6 4.8 11.9 8.8 19 11 7.8 2.4 15.6 2.3 23 .1C283 317.3 286.9 334.1 283.4 348.6zM322.3 269.7c-5.7 3.7-12.1 6.7-18 3.7 2.7-9.6 1.9-19-.3-28.9-2.5-11.1-6.8-22.4-14.2-31.1-3-3.5-6.4-6.4-10.2-8.6 1.2-.4 2.3-1.3 2.9-2.9 5.3-13.8 18-26.6 33.7-20.2 14.1 5.8 25.6 20.1 30.4 34.2 4.6 13.4 1.1 27.7-7.4 38.8C334.7 260.8 328.7 265.5 322.3 269.7zM283.9 223.8c6 8.5 8.9 19.3 10.7 29.4 1.2 6.8.5 13.6-1.8 19.9-.2.4-.4.8-.5 1.3-1.2 2.9-2.7 5.8-4.5 8.4-4.1 5.8-9.6 10.7-16 13.6-2.9-1.4-5.4 0-6.7 2.2-.6.1-1.3.3-1.9.4-10.5 1.6-20.2-3.7-27.9-10.3-.5-1.9-2.2-3.5-4.3-4.1-6.5-6.7-12-15.1-15.1-23.7-4.4-12.2-2-24.5 5.8-34.8.4-.5.6-1 .8-1.5 1.1-.1 2.2-.6 3.2-1.5 8.3-7.6 18.6-13 30-13.7C267 208.7 277.6 214.8 283.9 223.8zM217.5 215.8c-.4.3-.6.7-.9 1-1.1.2-2.2.8-3.1 2-8.1 10.7-12.2 23-10.2 36.5 1.8 12.1 8.3 23 16 32.4.5.6 1 1.2 1.5 1.8-3.8 2.5-8 4.4-12.3 5.7-1.3-.3-2.8 0-4.1.9-10.8 1.9-22.2-.4-31.3-7.7-6-4.9-8.5-12.5-10.2-19.7-3-12.1-6.2-24.3-3.9-36.8 2.4-13.4 13.6-21.5 25.9-25.7 2.6 1.4 6.1.4 7.7-2 10.3-1.7 21.7.3 26.6 10.3C218.5 214.9 218 215.4 217.5 215.8zM158.5 289.7c.3-.1.6-.3.9-.5 2 3 4.3 5.7 7.3 8.1 8.5 6.8 20.2 10.2 30.9 10.5-1.6 5.8-1.8 12.1-1.5 17.9.7 11.4 5.7 21.2 12.5 30.2 2.9 3.8 6 7.4 9.3 10.7-7.4 7.9-19.9 9.9-30.2 10.3-13.2.5-23.3-13.7-29.7-23.4-7.6-11.5-14.6-23.9-18.1-37.4-.7-2.7-2.8-20.2 2.7-19.4 3.6.5 5.8-2 6.3-4.8C152.1 291.7 155.3 291 158.5 289.7zM225.9 374.4c3.3 3.1 6.7 6.1 10.1 9.1 7 6.3 16.5 9.5 25.8 7.1 8-2 14.6-7.1 19.7-13.5.9 5.6 1.6 11.1 1.6 16.8 0 1.4.5 2.5 1.2 3.3-.6 2.8-1.6 5.6-2.1 7.6-1.5 5.4-3.4 10.4-6.2 15.3-5.7 10.2-15.5 20.6-27.4 22.9-5.8 1.1-12.6-.1-17.4-3.6-4.8-3.5-7.6-9.6-10.1-14.7-2.9-6-6-12-8.8-18-3.1-6.7-5.3-13.7-7.7-20.6C212.9 383.9 220.6 380.1 225.9 374.4zM286.5 423.9c3.4-6.1 5.4-12.8 7.2-19.6 1.9-7 3.3-14.9-.3-21.5-.2-2-.5-4.1-.9-6.1 18 4.7 37.4-10.2 47.8-25.2.8.4 1.7.6 2.7.5.1 0 .2 0 .3 0 .2.5.4 1.1.7 1.6 6.1 9.3 4.9 22.6 3.6 33.1-1.5 11.5-4.2 23.7-9.8 34-5.6 10.4-15 18-25.4 21.5-1.6-.3-3.2 0-4.5 1.2-10.2 2.2-21.2.5-30.6-6.3C280.9 433 284 428.5 286.5 423.9zM345.7 340.8c3.1-9.1 3.2-19.2 2.5-28.7-1.1-13.7-4.6-27.2-8.4-40.4-.1-.4-.2-.7-.4-1 2-1.8 3.8-3.6 5.4-5.4 4-4.3 7.2-9 9.6-14.1 5.9.6 11.9 1.6 17.8 1.6 6.7 6.7 9 16.7 10.2 25.8 1.4 10.7 1 21.6-.1 32.3-1.1 9.9-2.5 18.8-11.7 24.3C363.4 339.5 354.2 340.3 345.7 340.8zM294.5 124.9c5.1-1 10.4-1.9 15.5-1.9 3.9-.1 26.2 4.3 28.8 11.2-.8 0-1.6.1-2.5.2-11.1 1.1-26.1 10.9-31.8 22.8-5.7-3.6-13.6-3.3-18-8.9-4-5-8.6-7.7-13.4-6.9 1-2.5 2.1-5 3.3-7.5 4 3 10.3-1.3 8.6-6.1.2-.1.5-.2.8-.4C288.5 126.2 291.6 125.5 294.5 124.9zM252.5 119.9c.9-.9 1.6-2.2 1.6-3.9 0-.7 0-1.4-.1-2.1 2.8-9.9 6.5-19.5 11.3-28.3 3.2-5.9 7.5-11.2 10.5-17.3.2-.3.3-.6.4-.8 2.1 1 4 2.4 6 3.4 7.5 3.8 15 7.3 22.9 9.6-27 21.7-46.5 53.7-49.7 88.4-2-.1-3.9-.4-5.7-1 1-2.1.1-4.7-1.8-6.3C247.9 147.9 249.3 133.7 252.5 119.9zM246.3 178.4c3.5 1.2 7.3 1.5 11 1.5 1.2 4.6 4.1 9 6.8 12.6 4.2 5.7 13.3-.4 9.1-6.2-1.4-1.9-2.7-3.9-3.9-6.1-.6-1.1-1-2.2-1.4-3.4-.2-.5 0-1.9-.3-1 1-2.4.3-4.6-1.2-6.1.4-5.1 1.2-10.1 2.5-15.1 1.6.3 3.5-.1 4.9-1.6 2-2.1 2.6.1 4.5 2.4.5.6.9 1.1 1.4 1.6-2.2-.5-4.5-.3-6.8.2-2.9.6-4.3 4.5-3.4 7 1.1 3.1 4.1 4 7 3.4-.5.1.3.1.4.1.2 0 .3.1.5.1.1 0 .2.1.4.2.3.2.7.4 1 .6-.4-.2-.3-.1.3.3.7.5 1.3 1.1 1.9 1.7 2.1 2.1 5.9 1.7 7.8-.5 2-2.2 1.7-5.3-.2-7.4 4 1.3 8.6 1.9 11.4 4.9.8.8 1.6 1.3 2.4 1.5 0 .1 0 .2 0 .3-13.5 2.6-24.6 14.3-29.7 27.6-.6 1.7-.5 3.3.2 4.6-4.8-1.8-9.8-2.9-15-3.2-10.7-.6-21.1 3.5-30 9.3-5.3-8.8-13.7-13.2-23.1-14.5 1.5-.9 2.2-2.5 2.2-4.2 3.2-4.2 3.8-9.4.9-14.8-1.9-3.6-5.4-6.6-8.1-9.9 11.5-.9 23-2 34.4-4.4 1.3-.3 2.3-.8 3-1.6 0 1.5 0 2.9 0 4.4-3.8 1.1-8 1.3-11.9 1.3-7.1.1-6.2 11 .8 11 3.4 0 6.8-.3 10.2-.9-1.2 2.4-2.8 4.5-4.2 6.8-1.9 3.1-2.7 6.4-2.9 10-.1 3 3.2 5.3 5.9 5.1 3.2-.2 4.9-2.9 5.1-5.9C240.3 185.9 244.5 182.1 246.3 178.4zM196.2 115.2c6.7-3.3 13-4.6 19.9-5.3 5.3-.5 24.1-2.2 26.8 5-.3 1.2-.6 2.3-.9 3.4-2.6 10.3-4.1 21-4.6 31.6-.9-.9-2.3-1.4-4.1-1-10.9 2.3-21.9 3.4-33 4.3 1.4-2 1.5-4.8-.9-6.9-5.8-4.9-9.7-10.7-16.4-14.5-1.7-1-3.5-1.8-5.4-2.4C183.1 123.9 189.1 118.7 196.2 115.2zM113.9 168.7c5.6-8 12.8-14.9 20.4-20.8 7.2-5.6 14-9.4 23.3-10.2 6.5-.5 13.2.7 19.1 3.4 6.2 2.8 9.7 8.4 14.5 12.9-.3 0-.7 0-1 .1-3.7.3-5.7 3.9-4.8 7.3 1.4 4.9 5.2 8.7 8.4 12.4 1.6 1.9 3.5 3.9 4.6 6.2 1 2.1-.1 2.7-1.9 4-3.6 2.5-2.8 6.9.1 9-2 .1-4 .3-6 .6-3-7.9-6.6-15.7-13.4-21.1-9.9-7.9-23.9-6.1-35.2-3.1-12.9 3.5-24 10-32 19.5-.2-.5-.4-1-.7-1.4C105.4 181.6 110.5 173.5 113.9 168.7zM109.1 212.8c4.6-16.4 16.4-26.1 32-31.7 8.4-3 20.9-6.1 28.8-.5 5.1 3.5 7.8 9.5 10 15.4-14.9 5.2-27.3 16.2-31.4 31.8-3.9 14.7.3 30.1 3.9 44.4.6 2.4 1.3 4.8 2.1 7.1-17 6.9-35.2-5.9-42.5-21C105.3 244.3 104.9 227.7 109.1 212.8zM116.1 328.3c-7-14.5-9.6-34.6-4.6-50.4.4 0 .7-.1 1-.2 5.7 5.7 12.8 10.2 20.4 12.6-4.2 5.2-5.4 13.8-5 20.4.8 14.9 8.8 29.5 16.7 42.2-4.5-.8-9.5-.2-13.1-3.1C125 344.7 119.7 335.7 116.1 328.3zM213.2 437.4c-.4 2.7-1.4 2.9-4.3 3.1-4.2.3-8.8-1.1-12.8-2.4-7.3-2.5-16.4-5.9-21.6-11.5-8.7-9.4-16.7-19.5-23.4-30.4-5.9-9.6-11.3-21.4-9.8-33 1.1.3 2 .7 2.7 1.4 2.6 2.8 5.9 1.7 7.6-.7 8.3 11.7 19.1 22.8 33.9 24 2.6.2 5.4.2 8.2 0 3 8.7 5.9 17.5 9.9 25.9 3.3 6.9 6.7 13.9 10.2 20.6.1.2.2.4.3.6C213.7 435.6 213.4 436.4 213.2 437.4zM292.8 470.1c-6.8 8-16.8 9.2-26.7 9.1-20.6-.3-40.9-10.2-51.1-28.4 2.9-.9 5.3-2.6 6.9-5.2 1.9 1.8 3.9 3.4 6.3 4.7 7.2 4 16 5 24 3.1 6.4-1.5 12.1-4.6 17.2-8.7 10 7.6 21.4 10.8 32.6 10.3C299.4 460.4 296.6 465.6 292.8 470.1zM363 435.7c-3.7 7.4-9 12.9-14.9 18.5-7.2 6.9-16.3 13.2-25.5 17.1-4.3 1.8-14 5.5-17.1.5 3.9-5.9 6.8-12.7 9.8-19.1 12-3.9 23-12.1 30.4-23.6 1.1-1.7 2-3.4 2.9-5.1 7 .6 13.3-1.3 19-4.8C368.2 424.7 365.4 430.8 363 435.7zM388.8 354.4c-.7 7.7-1.9 15.9-4.5 23.3-2.9 8.4-7.5 16.4-13.2 23.3-4.4 5.4-10.8 11.3-18.1 12.1 2.7-7.9 4.3-16.3 5.4-24.3 1.7-12.2 2.4-26.5-3.3-37.9 7.5-1 14.8-2.9 21.6-6.6 4.6-2.6 7.9-6 10.3-10C390.1 339.9 389.3 348.7 388.8 354.4zM408.5 315.2c-2 6.8-5.8 13-10.1 18.8-1.2-4-3.1-7.6-6.2-10.6-.3-.3-.5-.5-.8-.7.6-2.4 1-4.9 1.3-7.5 2.5-20 3.9-46.4-8-64.3 5.5-1.8 10-5.2 13.4-9.6 8.2 14.1 11.6 30.8 12.8 46.9C411.5 297.3 411.1 306.3 408.5 315.2z"></path></svg>