<svg xmlns="http://www.w3.org/2000/svg" x="0px" y="0px"
width="48" height="48"
viewBox="0 0 48 48"
style=" fill:#000000;"><path fill="#d6e5e5" d="M35.88,22.14c-0.07-0.13-0.22-0.22-0.41-0.28c-0.01,0-0.03,0-0.05-0.01 c-0.05-0.01-0.1-0.02-0.16-0.02c-0.31-0.04-0.66,0.03-1.01,0.1c-0.16,0.04-0.34-0.02-0.46-0.15c-0.12-0.12-0.16-0.3-0.12-0.47 c0.04-0.12-0.02-0.29-0.13-0.36c-0.1-0.08-0.27-0.09-0.39-0.02c-0.06,0.04-0.13,0.06-0.2,0.06c-0.08,0.01-0.17,0-0.25-0.03 c-0.03-0.01-0.06-0.03-0.08-0.05c-0.01,0-0.02,0-0.02-0.01c-0.01,0-0.01-0.01-0.01-0.01c-0.01,0-0.01-0.01-0.01-0.01 c-0.02-0.01-0.04-0.02-0.06-0.05c-0.03-0.02-0.05-0.06-0.07-0.1c0,0-0.01-0.01-0.01-0.02c0,0,0-0.01-0.01-0.02 c-0.01-0.02-0.01-0.04-0.02-0.07c0-0.01,0-0.01-0.01-0.02c-0.08-0.26-0.4-0.47-0.66-0.44c-0.09,0.01-0.25,0.08-0.41,0.14 c-0.38,0.14-0.62,0.23-0.83,0.23c-0.69,0-0.95-0.78-1.11-1.35c-0.05-0.18-0.13-0.46-0.2-0.59c-0.18,0.05-0.55,0.21-0.92,0.39 c-0.01,0-0.01,0.01-0.02,0.01c-0.47,0.23-0.95,0.49-1.08,0.61c-0.14,0.14-0.1,0.37,0.02,0.86c0.11,0.46,0.25,1.03-0.01,1.58 c-0.12,0.25-0.42,0.36-0.67,0.24s-0.36-0.42-0.24-0.67c0.11-0.23,0.03-0.56-0.05-0.92c-0.14-0.55-0.3-1.23,0.23-1.79 c0.17-0.17,0.67-0.47,1.21-0.74c0.82-1.9,1.76-3.82,2.86-5.83c-0.39,0.15-0.73,0.42-0.85,0.8c-0.07,0.22-0.29,0.37-0.53,0.35 c-0.94-0.09-1.52-0.84-2.03-1.5c-0.41-0.55-0.81-1.06-1.32-1.14c-0.43-0.06-0.85,0.17-1.35,0.43c-0.46,0.25-0.93,0.5-1.49,0.57 c-0.55,0.06-1.04-0.08-1.52-0.21c-0.27-0.08-0.54-0.15-0.8-0.18c-1.27-0.17-2.52,0.67-3.68,1.56c-0.7,0.55-1.42,1.14-2,1.8v0.01 c-0.68,0.79-1.04,1.56-1.11,2.34c-0.01,0.17-0.11,0.32-0.26,0.4c-0.15,0.08-0.33,0.08-0.48,0c-0.18-0.1-0.46,0.01-0.64,0.14 c-0.16,0.1-0.29,0.21-0.43,0.33c-0.18,0.15-0.37,0.31-0.57,0.43c-0.59,0.36-1.25,0.45-1.88,0.52C9.29,19.02,9,19.06,8.72,19.12 c-0.45,0.11-0.88,0.42-1.06,0.75c-0.09,0.16-0.11,0.32-0.05,0.47c0.05,0.15,0.03,0.33-0.07,0.46c-0.09,0.14-0.26,0.21-0.41,0.21 H7.09c-0.97,0-1.79,0.93-2.06,1.82c-0.28,0.9-0.14,3.19,0.05,4.68c2.52,0.93,5.02,1.77,7.62,2.13c6.22,0.83,12.51-1.42,18.06-3.4 c1.75-0.64,3.74-1.34,5.45-2.35C36.2,23.44,36.02,22.37,35.88,22.14z M19.04,28.11c-0.26,0.24-0.59,0.37-0.92,0.37 c-0.05,0-0.1,0-0.16-0.01c-0.27-0.03-0.46-0.28-0.43-0.56c0.04-0.27,0.3-0.46,0.56-0.43c0.13,0.02,0.22-0.06,0.27-0.1 c0.12-0.12,0.19-0.29,0.19-0.43c-0.02-0.37-0.36-0.69-0.68-0.83c-0.73-0.33-1.72-0.01-2.13,0.68c-0.09,0.15-0.29,0.21-0.43,0.24 c-0.18,0-0.35-0.1-0.43-0.25c-0.15-0.25-0.44-0.41-0.73-0.42c-0.29,0-0.59,0.18-0.72,0.44c-0.13,0.24-0.43,0.34-0.68,0.21 c-0.24-0.13-0.33-0.43-0.21-0.68c0.31-0.58,0.93-0.96,1.59-0.97c0.42-0.01,0.83,0.14,1.16,0.4c0.77-0.76,1.99-1.01,2.99-0.56 c0.73,0.32,1.23,0.99,1.27,1.69C19.57,27.34,19.38,27.8,19.04,28.11z M22.87,20.42c-0.04,0.27-0.3,0.46-0.57,0.42 c-0.28-0.05-0.46-0.3-0.42-0.58c0.06-0.35-0.18-0.75-0.52-0.86c-0.34-0.11-0.77,0.06-0.94,0.37c-0.08,0.15-0.22,0.24-0.38,0.26 c-0.16,0.02-0.32-0.03-0.43-0.15c-0.05-0.06-0.16-0.1-0.27-0.09c-0.11,0.01-0.21,0.05-0.26,0.12c-0.04,0.05-0.07,0.1-0.1,0.15 c-0.11,0.2-0.28,0.49-0.63,0.61c-0.38,0.14-0.73-0.03-0.96-0.14c-0.46-0.21-1.01-0.23-1.33,0.07c-0.14,0.13-0.21,0.35-0.18,0.56 c0.01,0.09,0.04,0.25,0.18,0.33c0.23,0.15,0.31,0.45,0.17,0.69c-0.1,0.15-0.26,0.24-0.43,0.24c-0.09,0-0.18-0.02-0.26-0.07 c-0.37-0.23-0.61-0.62-0.66-1.09c-0.05-0.51,0.13-1.04,0.49-1.38c0.59-0.56,1.54-0.68,2.37-0.29c0.15,0.07,0.27,0.13,0.31,0.13 c-0.02,0,0.03-0.09,0.07-0.15c0.05-0.1,0.1-0.19,0.16-0.27c0.24-0.3,0.6-0.49,1.01-0.51c0.21-0.01,0.39,0.02,0.57,0.09 c0.47-0.45,1.18-0.64,1.82-0.43C22.48,18.72,23,19.59,22.87,20.42z"></path><path fill="#14b6b9" d="M19.55,26.9c0.02,0.44-0.17,0.9-0.51,1.21c-0.26,0.24-0.59,0.37-0.92,0.37c-0.05,0-0.1,0-0.16-0.01 c-0.27-0.03-0.46-0.28-0.43-0.56c0.04-0.27,0.3-0.46,0.56-0.43c0.13,0.02,0.22-0.06,0.27-0.1c0.12-0.12,0.19-0.29,0.19-0.43 c-0.02-0.37-0.36-0.69-0.68-0.83c-0.73-0.33-1.72-0.01-2.13,0.68c-0.09,0.15-0.29,0.21-0.43,0.24c-0.18,0-0.35-0.1-0.43-0.25 c-0.15-0.25-0.44-0.41-0.73-0.42c-0.29,0-0.59,0.18-0.72,0.44c-0.13,0.24-0.43,0.34-0.68,0.21c-0.24-0.13-0.33-0.43-0.21-0.68 c0.31-0.58,0.93-0.96,1.59-0.97c0.42-0.01,0.83,0.14,1.16,0.4c0.77-0.76,1.99-1.01,2.99-0.56C19.01,25.53,19.51,26.2,19.55,26.9z"></path><path fill="#14b6b9" d="M14.88,21.26c-0.05-0.51,0.13-1.04,0.49-1.38c0.59-0.56,1.54-0.68,2.37-0.29 c0.15,0.07,0.27,0.13,0.31,0.13c-0.02,0,0.03-0.09,0.07-0.15c0.05-0.1,0.1-0.19,0.16-0.27c0.24-0.3,0.6-0.49,1.01-0.51 c0.21-0.01,0.39,0.02,0.57,0.09c0.47-0.45,1.18-0.64,1.82-0.43c0.8,0.27,1.32,1.14,1.19,1.97c-0.04,0.27-0.3,0.46-0.57,0.42 c-0.28-0.05-0.46-0.3-0.42-0.58c0.06-0.35-0.18-0.75-0.52-0.86c-0.34-0.11-0.77,0.06-0.94,0.37c-0.08,0.15-0.22,0.24-0.38,0.26 c-0.16,0.02-0.32-0.03-0.43-0.15c-0.05-0.06-0.16-0.1-0.27-0.09c-0.11,0.01-0.21,0.05-0.26,0.12c-0.04,0.05-0.07,0.1-0.1,0.15 c-0.11,0.2-0.28,0.49-0.63,0.61c-0.38,0.14-0.73-0.03-0.96-0.14c-0.46-0.21-1.01-0.23-1.33,0.07c-0.14,0.13-0.21,0.35-0.18,0.56 c0.01,0.09,0.04,0.25,0.18,0.33c0.23,0.15,0.31,0.45,0.17,0.69c-0.1,0.15-0.26,0.24-0.43,0.24c-0.09,0-0.18-0.02-0.26-0.07 C15.17,22.12,14.93,21.73,14.88,21.26z"></path><path fill="#14b6b9" d="M32.62,20.91c0.02,0.02,0.05,0.04,0.08,0.05h0.03C32.69,20.95,32.65,20.93,32.62,20.91z M27.66,18.16c-0.54,0.27-1.04,0.57-1.21,0.74c-0.53,0.56-0.37,1.24-0.23,1.79c0.08,0.36,0.16,0.69,0.05,0.92 c-0.12,0.25-0.01,0.55,0.24,0.67s0.55,0.01,0.67-0.24c0.26-0.55,0.12-1.12,0.01-1.58c-0.12-0.49-0.16-0.72-0.02-0.86 c0.13-0.12,0.61-0.38,1.08-0.61c0.01,0,0.01-0.01,0.02-0.01c0.1-0.06,0.19-0.14,0.24-0.26c0.16-0.37,0.32-0.73,0.48-1.1 C28.66,17.7,28.14,17.92,27.66,18.16z M31.38,12.21c-0.07-0.01-0.14-0.01-0.21-0.01c-0.21,0.01-0.44,0.05-0.65,0.13 c-1.1,2.01-2.04,3.93-2.86,5.83c-0.02,0.06-0.05,0.11-0.07,0.17c-0.11,0.25,0.01,0.55,0.26,0.66c0.14,0.05,0.28,0.05,0.4,0 c0.01,0,0.01-0.01,0.02-0.01c0.1-0.06,0.19-0.14,0.24-0.26c0.16-0.37,0.32-0.73,0.48-1.1c0.01,0,0.01-0.01,0.01-0.01 c0.82-1.83,1.77-3.69,2.88-5.65C31.78,12.13,31.58,12.24,31.38,12.21z M37.53,14.63c-0.11-0.04-0.21-0.07-0.32-0.1 c-0.17-0.06-0.33-0.1-0.5-0.14c-0.3-0.56-0.78-0.54-1.06-0.54c-0.06,0.01-0.12,0.01-0.17,0.01c-0.08-0.14-0.18-0.36-0.26-0.52 c-0.15-0.33-0.28-0.6-0.41-0.8c-0.12-0.19-0.25-0.31-0.41-0.38c-0.18-0.09-0.4-0.06-0.55,0.06c-0.01,0-0.01,0.01-0.01,0.01 c-0.06,0.04-0.1,0.1-0.13,0.16c-0.03,0.04-0.04,0.09-0.04,0.14v0.01c-0.88,1.57-1.77,3.12-2.66,4.68l-0.76,1.34 c-0.16-0.49-0.41-0.98-0.99-0.98h-0.03c-0.06,0-0.14,0.01-0.23,0.03c0,0,0,0.01-0.01,0.01c-0.16,0.37-0.32,0.73-0.48,1.1 c-0.05,0.12-0.14,0.2-0.24,0.26c0.37-0.18,0.74-0.34,0.92-0.39c0.07,0.13,0.15,0.41,0.2,0.59c0.16,0.57,0.42,1.35,1.11,1.35 c0.21,0,0.45-0.09,0.83-0.23c0.16-0.06,0.32-0.13,0.41-0.14c0.26-0.03,0.58,0.18,0.66,0.44c0.01,0.01,0.01,0.01,0.01,0.02 c0.01,0.03,0.01,0.05,0.02,0.07c0.01,0.01,0.01,0.02,0.01,0.02c0,0.01,0.01,0.02,0.01,0.02c0.02,0.04,0.04,0.07,0.07,0.1 c0.01,0.02,0.04,0.04,0.06,0.05c0,0,0,0.01,0.01,0.01c0,0,0,0,0.01,0.01c0,0.01,0.01,0.01,0.02,0.01c0.03,0.02,0.07,0.04,0.11,0.05 c0.01,0,0.02,0,0.03,0.01c0.06,0.02,0.13,0.03,0.19,0.02c0.07,0,0.14-0.02,0.2-0.06s0.11-0.08,0.15-0.13 c0.21-0.26,0.42-0.52,0.63-0.78c1.12-1.39,2.18-2.67,3.24-3.92l0.01-0.01c0.02-0.02,0.04-0.05,0.06-0.07 c0.01-0.01,0.02-0.02,0.02-0.03c0.01,0,0.01-0.01,0.01-0.01c0.15-0.18,0.3-0.36,0.48-0.55c0.01-0.01,0.02-0.03,0.04-0.04 c0.02-0.04,0.04-0.08,0.06-0.13C37.93,15,37.79,14.71,37.53,14.63z M32.95,19.64c-0.34-0.34-0.83-0.53-1.32-0.48 c-0.17,0.02-0.36,0.09-0.66,0.2c-0.01,0-0.02,0.01-0.03,0.01l0.94-1.66c0.79-1.38,1.57-2.76,2.35-4.15 c0.03,0.07,0.06,0.14,0.09,0.2c0.23,0.51,0.38,0.81,0.6,0.98c0.06,0.04,0.14,0.08,0.22,0.09c0.2,0.03,0.37,0.03,0.53,0.02 c0.07,0,0.16,0,0.15-0.02c0,0.01,0.03,0.04,0.07,0.15l0.01,0.01c0,0.03,0.01,0.05,0.03,0.07c0.05,0.18,0.08,0.36,0.11,0.54 c0.01,0.07,0.04,0.13,0.08,0.19C35.09,17.01,34.05,18.28,32.95,19.64z M32.62,20.91c0.02,0.02,0.05,0.04,0.08,0.05h0.03 C32.69,20.95,32.65,20.93,32.62,20.91z M26.45,18.9c-0.53,0.56-0.37,1.24-0.23,1.79c0.08,0.36,0.16,0.69,0.05,0.92 c-0.12,0.25-0.01,0.55,0.24,0.67s0.55,0.01,0.67-0.24c0.26-0.55,0.12-1.12,0.01-1.58c-0.12-0.49-0.16-0.72-0.02-0.86 c0.13-0.12,0.61-0.38,1.08-0.61c0.01,0,0.01-0.01,0.02-0.01c0.1-0.06,0.19-0.14,0.24-0.26c0.16-0.37,0.32-0.73,0.48-1.1 c-0.33,0.08-0.85,0.3-1.33,0.54C27.12,18.43,26.62,18.73,26.45,18.9z M31.38,12.21c-0.07-0.01-0.14-0.01-0.21-0.01 c-0.21,0.01-0.44,0.05-0.65,0.13c-1.1,2.01-2.04,3.93-2.86,5.83c0.48-0.24,1-0.46,1.33-0.54c0.01,0,0.01-0.01,0.01-0.01 c0.82-1.83,1.77-3.69,2.88-5.65C31.78,12.13,31.58,12.24,31.38,12.21z M30.56,19.51c-0.08-0.13-0.15-0.41-0.2-0.59 c-0.03-0.11-0.07-0.24-0.11-0.36l-0.46,0.82c-0.13,0.24-0.05,0.54,0.19,0.68c0.08,0.04,0.16,0.06,0.25,0.06 c0.17,0,0.34-0.09,0.43-0.25l0.28-0.5C30.82,19.42,30.65,19.48,30.56,19.51z M46.99,7.75c-0.49-0.43-1.19-0.64-1.83-0.54 c-1.05,0.16-1.89,0.95-2.45,1.48c-1.75,1.66-3.51,3.53-5.5,5.84c-0.17-0.06-0.33-0.1-0.5-0.14c-0.3-0.56-0.78-0.54-1.06-0.54 c-0.06,0.01-0.12,0.01-0.17,0.01c-0.08-0.14-0.18-0.36-0.26-0.52c-0.15-0.33-0.28-0.6-0.41-0.8c0.67-1.17,1.34-2.36,2.01-3.54 l1.49-2.63c0.44-0.75,0.86-1.57,0.81-2.5c-0.05-0.59-0.38-1.19-0.87-1.54c-0.4-0.29-0.86-0.39-1.3-0.28 c-0.13,0.03-0.24,0.1-0.31,0.21c-2.09,3.28-3.83,6.02-5.48,8.94c-0.8,0.02-1.77,0.41-2.25,1.19c-0.36-0.18-0.66-0.58-1-1.02 c-0.5-0.65-1.06-1.38-1.97-1.52c-0.75-0.12-1.4,0.23-1.98,0.54c-0.39,0.21-0.76,0.41-1.11,0.46c-0.37,0.03-0.74-0.08-1.15-0.19 c-0.3-0.08-0.62-0.17-0.94-0.21c-1.65-0.21-3.15,0.8-4.42,1.77c-0.71,0.55-1.44,1.15-2.04,1.83c-1.9,0.42-3.77,0.98-5.6,1.64 c-1.77,0.65-3.79,1.51-5.38,2.94c-1.35,1.21-2.91,3.09-2.91,5.27c0,0.1,0,0.21,0.01,0.31c0.11,1.21,0.47,2.07,1.17,2.7 c0.89,6.29,5.82,12.61,11.27,14.41c0.51,0.17,1.02,0.31,1.55,0.44c0,0.04-0.01,0.07-0.01,0.11c0,0.03,0.02,2.3,0.81,2.79 c0.37,0.23,0.79,0.29,1.15,0.32c0.76,0.07,1.53,0.1,2.3,0.1c3.29,0,6.57-0.57,9.3-1.05c0.95-0.17,2.12-0.38,3.02-1.1 c0.81-0.65,1.21-2.18,1.5-3.79c2.47-1.26,4.36-2.74,5.73-4.48c2.52-3.21,2.51-7.32,2.51-11.3c0-0.68,0-1.35,0.01-2.02 c0-0.01,0-0.01,0-0.02c0.74-0.9,1.43-1.96,1.21-3.11c-0.14-0.75-0.71-1.36-1.27-1.82c1.88-1.97,3.81-3.8,5.72-5.44 c0.45-0.38,1.19-1,1.2-1.88C47.61,8.57,47.39,8.11,46.99,7.75z M34.92,14.74c0.06,0.04,0.14,0.08,0.22,0.09 c0.2,0.03,0.37,0.03,0.53,0.02c0.07,0,0.16,0,0.15-0.02c0,0.01,0.03,0.04,0.07,0.15l0.01,0.01c0,0.03,0.01,0.05,0.03,0.07 c0.05,0.18,0.08,0.36,0.11,0.54c0.01,0.07,0.04,0.13,0.08,0.19c-1.03,1.22-2.07,2.49-3.17,3.85c-0.34-0.34-0.83-0.53-1.32-0.48 c-0.17,0.02-0.36,0.09-0.66,0.2c-0.01,0-0.02,0.01-0.03,0.01l0.94-1.66c0.79-1.38,1.57-2.76,2.35-4.15 c0.03,0.07,0.06,0.14,0.09,0.2C34.55,14.27,34.7,14.57,34.92,14.74z M37.35,3.01c0.13,0.01,0.24,0.07,0.31,0.13 c0.25,0.18,0.43,0.51,0.46,0.8c0.04,0.65-0.3,1.28-0.68,1.93l-1.49,2.64c-0.7,1.24-1.4,2.47-2.1,3.71c-0.01,0-0.01,0.01-0.01,0.01 c-0.06,0.04-0.1,0.1-0.13,0.16c-0.03,0.04-0.04,0.09-0.04,0.14v0.01c-0.88,1.57-1.77,3.12-2.66,4.68l-0.76,1.34 c-0.16-0.49-0.41-0.98-0.99-0.98h-0.03c-0.06,0-0.14,0.01-0.23,0.03c0.82-1.83,1.77-3.69,2.88-5.65v-0.01 C33.52,9.02,35.26,6.28,37.35,3.01z M16.95,13.01c1.16-0.89,2.41-1.73,3.68-1.56c0.26,0.03,0.53,0.1,0.8,0.18 c0.48,0.13,0.97,0.27,1.52,0.21c0.56-0.07,1.03-0.32,1.49-0.57c0.5-0.26,0.92-0.49,1.35-0.43c0.51,0.08,0.91,0.59,1.32,1.14 c0.51,0.66,1.09,1.41,2.03,1.5c0.24,0.02,0.46-0.13,0.53-0.35c0.12-0.38,0.46-0.65,0.85-0.8c-1.1,2.01-2.04,3.93-2.86,5.83 c-0.54,0.27-1.04,0.57-1.21,0.74c-0.53,0.56-0.37,1.24-0.23,1.79c0.08,0.36,0.16,0.69,0.05,0.92c-0.12,0.25-0.01,0.55,0.24,0.67 s0.55,0.01,0.67-0.24c0.26-0.55,0.12-1.12,0.01-1.58c-0.12-0.49-0.16-0.72-0.02-0.86c0.13-0.12,0.61-0.38,1.08-0.61 c0.01,0,0.01-0.01,0.02-0.01c0.37-0.18,0.74-0.34,0.92-0.39c0.07,0.13,0.15,0.41,0.2,0.59c0.16,0.57,0.42,1.35,1.11,1.35 c0.21,0,0.45-0.09,0.83-0.23c0.16-0.06,0.32-0.13,0.41-0.14c0.26-0.03,0.58,0.18,0.66,0.44c0.01,0.01,0.01,0.01,0.01,0.02 c0.01,0.03,0.01,0.05,0.02,0.07c0.01,0.01,0.01,0.02,0.01,0.02c0,0.01,0.01,0.02,0.01,0.02c0.02,0.04,0.04,0.07,0.07,0.1 c0.01,0.02,0.04,0.04,0.06,0.05c0,0,0,0.01,0.01,0.01c0,0,0,0,0.01,0.01c0,0.01,0.01,0.01,0.02,0.01c0.02,0.02,0.05,0.04,0.08,0.05 h0.03c0.01,0,0.02,0,0.03,0.01c0.06,0.02,0.13,0.03,0.19,0.02c0.07,0,0.14-0.02,0.2-0.06c0.12-0.07,0.29-0.06,0.39,0.02 c0.11,0.07,0.17,0.24,0.13,0.36c-0.04,0.17,0,0.35,0.12,0.47c0.12,0.13,0.3,0.19,0.46,0.15c0.35-0.07,0.7-0.14,1.01-0.1 c0.06,0,0.11,0.01,0.16,0.02c0.02,0.01,0.04,0.01,0.05,0.01c0.01,0,0.02,0.01,0.03,0.01c0.18,0.06,0.31,0.15,0.38,0.27 c0.14,0.23,0.32,1.3,0.33,1.75c-1.71,1.01-3.7,1.71-5.45,2.35c-5.55,1.98-11.84,4.23-18.06,3.4c-2.6-0.36-5.1-1.2-7.62-2.13 c-0.19-1.49-0.33-3.78-0.05-4.68c0.27-0.89,1.09-1.82,2.06-1.82h0.04c0.15,0,0.32-0.07,0.41-0.21c0.1-0.13,0.12-0.31,0.07-0.46 c-0.06-0.15-0.04-0.31,0.05-0.47c0.18-0.33,0.61-0.64,1.06-0.75c0.28-0.06,0.57-0.1,0.86-0.14c0.63-0.07,1.29-0.16,1.88-0.52 c0.2-0.12,0.39-0.28,0.57-0.43c0.14-0.12,0.27-0.23,0.43-0.33c0.18-0.13,0.46-0.24,0.64-0.14c0.15,0.08,0.33,0.08,0.48,0 c0.15-0.08,0.25-0.23,0.26-0.4c0.07-0.78,0.43-1.55,1.11-2.34v-0.01C15.53,14.15,16.25,13.56,16.95,13.01z M38.54,18.68 c0.18,0.45,0.45,0.95,0.85,1.28c0.23,0.2-0.3,1.23-0.48,1.57c-0.13,0.25-0.22,0.42-0.26,0.56c-0.01,0.01-0.01,0.01-0.01,0.01 c-0.45,0.43-0.94,0.83-1.48,1.2c-0.08-0.67-0.27-1.43-0.44-1.7c-0.09-0.14-0.21-0.27-0.34-0.37v-0.01 C37.08,20.36,37.8,19.51,38.54,18.68z M45.75,10.19c-2.07,1.76-4.13,3.74-6.15,5.87c-0.01,0.01-0.03,0.03-0.04,0.04 c-0.02,0.02-0.03,0.03-0.04,0.05c-0.41,0.41-0.81,0.85-1.19,1.27v0.01c-1.01,1.1-1.99,2.25-2.93,3.41 c-0.01-0.01-0.03-0.01-0.04-0.01c-0.25-0.03-0.5-0.01-0.74,0.02c-0.08-0.28-0.24-0.53-0.48-0.71c-0.07-0.05-0.13-0.09-0.21-0.12 c1.12-1.39,2.18-2.67,3.24-3.92l0.01-0.01c0.02-0.02,0.04-0.05,0.06-0.07c0.01-0.01,0.02-0.02,0.02-0.03 c0.01,0,0.01-0.01,0.01-0.01c0.15-0.18,0.3-0.36,0.48-0.55c0.01-0.01,0.02-0.03,0.04-0.04c2.05-2.39,3.83-4.29,5.61-5.97 c0.61-0.59,1.22-1.12,1.91-1.22c0.35-0.06,0.76,0.07,1.02,0.3c0.13,0.11,0.27,0.29,0.26,0.54C46.59,9.44,46.17,9.83,45.75,10.19z M30.56,19.51c-0.08-0.13-0.15-0.41-0.2-0.59c-0.03-0.11-0.07-0.24-0.11-0.36l-0.46,0.82c-0.13,0.24-0.05,0.54,0.19,0.68 c0.08,0.04,0.16,0.06,0.25,0.06c0.17,0,0.34-0.09,0.43-0.25l0.28-0.5C30.82,19.42,30.65,19.48,30.56,19.51z M31.38,12.21 c-0.07-0.01-0.14-0.01-0.21-0.01c-0.21,0.01-0.44,0.05-0.65,0.13c-1.1,2.01-2.04,3.93-2.86,5.83c-0.02,0.06-0.05,0.11-0.07,0.17 c-0.11,0.25,0.01,0.55,0.26,0.66c0.14,0.05,0.28,0.05,0.4,0c0.01,0,0.01-0.01,0.02-0.01c0.1-0.06,0.19-0.14,0.24-0.26 c0.16-0.37,0.32-0.73,0.48-1.1c0.01,0,0.01-0.01,0.01-0.01c0.82-1.83,1.77-3.69,2.88-5.65C31.78,12.13,31.58,12.24,31.38,12.21z M27.66,18.16c-0.54,0.27-1.04,0.57-1.21,0.74c-0.53,0.56-0.37,1.24-0.23,1.79c0.08,0.36,0.16,0.69,0.05,0.92 c-0.12,0.25-0.01,0.55,0.24,0.67s0.55,0.01,0.67-0.24c0.26-0.55,0.12-1.12,0.01-1.58c-0.12-0.49-0.16-0.72-0.02-0.86 c0.13-0.12,0.61-0.38,1.08-0.61c0.01,0,0.01-0.01,0.02-0.01c0.1-0.06,0.19-0.14,0.24-0.26c0.16-0.37,0.32-0.73,0.48-1.1 C28.66,17.7,28.14,17.92,27.66,18.16z M32.62,20.91c0.02,0.02,0.05,0.04,0.08,0.05h0.03C32.69,20.95,32.65,20.93,32.62,20.91z M27.66,18.16c-0.54,0.27-1.04,0.57-1.21,0.74c-0.53,0.56-0.37,1.24-0.23,1.79c0.08,0.36,0.16,0.69,0.05,0.92 c-0.12,0.25-0.01,0.55,0.24,0.67s0.55,0.01,0.67-0.24c0.26-0.55,0.12-1.12,0.01-1.58c-0.12-0.49-0.16-0.72-0.02-0.86 c0.13-0.12,0.61-0.38,1.08-0.61c0.01,0,0.01-0.01,0.02-0.01c0.1-0.06,0.19-0.14,0.24-0.26c0.16-0.37,0.32-0.73,0.48-1.1 C28.66,17.7,28.14,17.92,27.66,18.16z M32.62,20.91c0.02,0.02,0.05,0.04,0.08,0.05h0.03C32.69,20.95,32.65,20.93,32.62,20.91z"></path><path fill="#d6e5e5" d="M38.91,21.53c-0.13,0.25-0.22,0.42-0.26,0.56c-0.01,0.01-0.01,0.01-0.01,0.01 c-0.45,0.43-0.94,0.83-1.48,1.2c-0.08-0.67-0.27-1.43-0.44-1.7c-0.09-0.14-0.21-0.27-0.34-0.37v-0.01c0.7-0.86,1.42-1.71,2.16-2.54 c0.18,0.45,0.45,0.95,0.85,1.28C39.62,20.16,39.09,21.19,38.91,21.53z"></path><path fill="#febf10" d="M46.59,9.04c0,0.4-0.42,0.79-0.84,1.15c-2.07,1.76-4.13,3.74-6.15,5.87 c-0.01,0.01-0.03,0.03-0.04,0.04c-0.02,0.02-0.03,0.03-0.04,0.05c-0.41,0.41-0.81,0.85-1.19,1.27v0.01 c-1.01,1.1-1.99,2.25-2.93,3.41c-0.01-0.01-0.03-0.01-0.04-0.01c-0.25-0.03-0.5-0.01-0.74,0.02c-0.08-0.28-0.24-0.53-0.48-0.71 c-0.07-0.05-0.13-0.09-0.21-0.12c1.12-1.39,2.18-2.67,3.24-3.92l0.01-0.01c0.02-0.02,0.04-0.05,0.06-0.07 c0.01-0.01,0.02-0.02,0.02-0.03c0.01,0,0.01-0.01,0.01-0.01c0.15-0.18,0.3-0.36,0.48-0.55c0.01-0.01,0.02-0.03,0.04-0.04 c2.05-2.39,3.83-4.29,5.61-5.97c0.61-0.59,1.22-1.12,1.91-1.22c0.35-0.06,0.76,0.07,1.02,0.3C46.46,8.61,46.6,8.79,46.59,9.04z"></path><path fill="#d6e5e5" d="M36.12,15.79c-1.03,1.22-2.07,2.49-3.17,3.85c-0.34-0.34-0.83-0.53-1.32-0.48 c-0.17,0.02-0.36,0.09-0.66,0.2c-0.01,0-0.02,0.01-0.03,0.01l0.94-1.66c0.79-1.38,1.57-2.76,2.35-4.15 c0.03,0.07,0.06,0.14,0.09,0.2c0.23,0.51,0.38,0.81,0.6,0.98c0.06,0.04,0.14,0.08,0.22,0.09c0.2,0.03,0.37,0.03,0.53,0.02 c0.07,0,0.16,0,0.15-0.02c0,0.01,0.03,0.04,0.07,0.15l0.01,0.01c0,0.03,0.01,0.05,0.03,0.07c0.05,0.18,0.08,0.36,0.11,0.54 C36.05,15.67,36.08,15.73,36.12,15.79z"></path><path fill="#febf10" d="M38.12,3.94c0.04,0.65-0.3,1.28-0.68,1.93l-1.49,2.64c-0.7,1.24-1.4,2.47-2.1,3.71 c-0.01,0-0.01,0.01-0.01,0.01c-0.06,0.04-0.1,0.1-0.13,0.16c-0.03,0.04-0.04,0.09-0.04,0.14v0.01c-0.88,1.57-1.77,3.12-2.66,4.68 l-0.76,1.34c-0.16-0.49-0.41-0.98-0.99-0.98h-0.03c-0.06,0-0.14,0.01-0.23,0.03c0.82-1.83,1.77-3.69,2.88-5.65v-0.01 c1.64-2.93,3.38-5.67,5.47-8.94c0.13,0.01,0.24,0.07,0.31,0.13C37.91,3.32,38.09,3.65,38.12,3.94z"></path><g><path fill="#010101" d="M37.85,15.26c-0.02,0.05-0.04,0.09-0.06,0.13c-0.02,0.01-0.03,0.03-0.04,0.04 c-0.1,0.11-0.24,0.17-0.38,0.17c-0.01,0-0.01,0-0.02,0c-0.04,0-0.09-0.01-0.14-0.02c-0.24-0.09-0.48-0.16-0.73-0.22 c-0.06-0.02-0.13-0.04-0.2-0.05c-0.17-0.03-0.32-0.16-0.38-0.32c-0.02-0.05-0.03-0.11-0.03-0.17c0-0.28,0.22-0.5,0.49-0.5h0.02 c0.03,0,0.07,0,0.1,0.01c0.08,0.02,0.16,0.04,0.23,0.06c0.17,0.04,0.33,0.08,0.5,0.14c0.11,0.03,0.21,0.06,0.32,0.1 C37.79,14.71,37.93,15,37.85,15.26z"></path><path fill="#010101" d="M40.73,21.32c-0.04,0.05-0.08,0.09-0.12,0.14c-0.18,0.21-0.36,0.4-0.53,0.59l-0.27,0.29 c-0.03,0.03-0.06,0.06-0.09,0.09c-0.06,0.07-0.12,0.14-0.19,0.19c-0.05,0.06-0.11,0.12-0.16,0.17c-0.01,0.01-0.02,0.02-0.03,0.02 c-0.67,0.65-1.45,1.24-2.3,1.74c0,0.01-0.01,0.02-0.02,0.02c0,0.01,0,0.01-0.01,0.01c0,0.01,0,0.01-0.01,0 c-0.03,0.01-0.05,0.03-0.08,0.05c-0.03,0.02-0.07,0.04-0.1,0.06c0,0.01,0,0.01-0.01,0c0,0-0.01,0.01-0.02,0.01 c-1.8,1.08-3.86,1.82-5.69,2.48c-4.82,1.72-10.19,3.63-15.66,3.63c-0.96,0-1.91-0.05-2.87-0.18c-2.81-0.38-5.44-1.3-8.12-2.28 c-0.01,0-0.03-0.01-0.04-0.01l-0.37-0.15c-0.39-0.14-0.85-0.3-1.3-0.53c-0.33-0.16-0.65-0.35-0.95-0.59L1.6,26.92l-0.01-0.01 c-0.7-0.63-1.06-1.49-1.17-2.7C0.41,24.11,0.41,24,0.41,23.9c0-2.18,1.56-4.06,2.91-5.27c1.59-1.43,3.61-2.29,5.38-2.94 c1.83-0.66,3.7-1.22,5.6-1.64c0.05-0.02,0.11-0.03,0.16-0.04c0.27-0.06,0.54,0.11,0.59,0.38c0.03,0.15-0.01,0.3-0.1,0.42 c-0.07,0.08-0.17,0.15-0.28,0.17c-0.42,0.1-0.84,0.2-1.26,0.3c-1.48,0.38-2.94,0.83-4.37,1.35c-1.67,0.62-3.59,1.43-5.06,2.75 c-1.24,1.12-2.7,2.85-2.57,4.76c0.09,0.95,0.35,1.58,0.84,2.02l0.16,0.13c0.46,0.37,1.05,0.62,1.61,0.83 c0.13,0.05,0.26,0.1,0.38,0.14l0.4,0.15c0.09,0.03,0.19,0.07,0.28,0.1c2.52,0.93,5.02,1.77,7.62,2.13 c6.22,0.83,12.51-1.42,18.06-3.4c1.75-0.64,3.74-1.34,5.45-2.35c0.07-0.04,0.13-0.08,0.2-0.12c0.26-0.15,0.51-0.31,0.75-0.47 c0.54-0.37,1.03-0.77,1.48-1.2c0,0,0.01,0,0.01-0.01c0.15-0.14,0.29-0.28,0.43-0.43l0.27-0.29c0.16-0.18,0.33-0.37,0.51-0.56 c0.2-0.24,0.39-0.48,0.58-0.74v-0.01c0.36-0.55,0.62-1.12,0.52-1.66c-0.08-0.39-0.39-0.81-0.98-1.29 c-0.11-0.08-0.22-0.17-0.35-0.26c-0.22-0.16-0.27-0.47-0.11-0.7c0.01-0.02,0.02-0.03,0.04-0.05c0.01-0.01,0.03-0.03,0.04-0.04 c0.17-0.14,0.42-0.16,0.61-0.02c0.15,0.1,0.3,0.22,0.46,0.35c0.56,0.46,1.13,1.07,1.27,1.82C42.16,19.36,41.47,20.42,40.73,21.32z"></path><path fill="#010101" d="M40.73,21.32c0,0.01,0,0.01,0,0.02c-0.01,0.67-0.01,1.34-0.01,2.02c0,3.98,0.01,8.09-2.51,11.3 c-1.37,1.74-3.26,3.22-5.73,4.48c-0.36,0.18-0.73,0.36-1.11,0.53c-0.34,0.16-0.68,0.31-1.04,0.45c-3.63,1.48-7.3,2.23-10.77,2.23 c-1.43,0-2.82-0.13-4.16-0.38c-0.33-0.06-0.67-0.13-0.99-0.21c-0.53-0.13-1.04-0.27-1.55-0.44C7.41,39.52,2.48,33.2,1.59,26.91 c-0.01-0.04-0.01-0.07-0.02-0.11C1.53,26.53,1.72,26.28,2,26.24c0.27-0.04,0.52,0.15,0.56,0.43c0.04,0.33,0.1,0.66,0.18,0.99 c1.15,5.57,5.65,11.13,10.43,12.71c0.62,0.2,1.25,0.38,1.9,0.51c0.02,0,0.03,0.01,0.05,0.01l0.01,0.01 c4.53,0.97,9.71,0.38,14.82-1.7c0.62-0.26,1.21-0.52,1.77-0.79c0.01-0.01,0.02-0.02,0.04-0.02c0.05-0.03,0.1-0.05,0.14-0.08 c2.4-1.2,4.21-2.61,5.52-4.27c2.31-2.93,2.3-6.87,2.3-10.68v-0.93c0-0.1,0-0.2,0.01-0.3c0,0,0,0,0-0.01c-0.01-0.27,0-0.53,0-0.79 c0.01-0.28,0.23-0.49,0.51-0.5c0.03,0,0.05,0,0.08,0.01C40.55,20.88,40.73,21.09,40.73,21.32z"></path><path fill="#010101" d="M32.53,38.88c-0.02,0.09-0.03,0.18-0.05,0.26c-0.29,1.61-0.69,3.14-1.5,3.79 c-0.9,0.72-2.07,0.93-3.02,1.1c-2.73,0.48-6.01,1.05-9.3,1.05c-0.77,0-1.54-0.03-2.3-0.1c-0.36-0.03-0.78-0.09-1.15-0.32 c-0.79-0.49-0.81-2.76-0.81-2.79c0-0.04,0.01-0.07,0.01-0.11c0.02-0.19,0.05-0.36,0.09-0.53c0.07-0.24,0.33-0.4,0.57-0.35 c0.02,0,0.03,0.01,0.05,0.01l0.01,0.01c0.26,0.07,0.41,0.34,0.34,0.6c-0.04,0.13-0.06,0.27-0.07,0.42v0.05 c-0.01,0.57,0.19,1.67,0.37,1.86c0.16,0.1,0.43,0.14,0.67,0.15c3.62,0.34,7.13-0.2,11.35-0.94c1.06-0.18,1.92-0.37,2.57-0.89 c0.47-0.39,0.8-1.55,1.01-2.48c0.08-0.39,0.14-0.73,0.18-0.96c0.02-0.13,0.08-0.23,0.17-0.3c0.01-0.01,0.02-0.02,0.04-0.02 c0.05-0.03,0.1-0.05,0.14-0.08c0.07-0.02,0.15-0.02,0.22-0.01C32.4,38.35,32.58,38.61,32.53,38.88z"></path><path fill="#010101" d="M40.44,20.06v0.01c0,0.25-0.05,0.51-0.12,0.77c-0.14,0.42-0.36,0.83-0.52,1.15 c-0.02,0.04-0.05,0.09-0.07,0.13c0,0.01,0,0.01,0,0.01c-0.07,0.14-0.14,0.27-0.15,0.32c-0.01,0.06-0.03,0.12-0.05,0.17 c-0.05,0.06-0.11,0.12-0.16,0.17c-0.01,0.01-0.02,0.02-0.03,0.02c-0.07,0.05-0.16,0.07-0.25,0.07h-0.06 c-0.28-0.03-0.47-0.29-0.44-0.57c0.01-0.06,0.02-0.13,0.05-0.21c0,0,0,0,0.01-0.01c0.04-0.14,0.13-0.31,0.26-0.56 c0.18-0.34,0.71-1.37,0.48-1.57c-0.4-0.33-0.67-0.83-0.85-1.28c-0.07-0.16-0.13-0.31-0.18-0.44c-0.04-0.11-0.08-0.2-0.11-0.27 c-0.09-0.19-0.05-0.4,0.08-0.54c0.05-0.05,0.1-0.09,0.16-0.12c0.25-0.12,0.55-0.01,0.67,0.24c0.03,0.08,0.07,0.19,0.12,0.31v0.01 l0.01,0.01c0.15,0.39,0.4,1.03,0.74,1.32C40.31,19.43,40.42,19.73,40.44,20.06z"></path><path fill="#010101" d="M31.94,11.77c-0.01,0.07-0.03,0.13-0.06,0.18v0.01c-0.1,0.17-0.3,0.28-0.5,0.25 c-0.07-0.01-0.14-0.01-0.21-0.01c-0.21,0.01-0.44,0.05-0.65,0.13c-0.39,0.15-0.73,0.42-0.85,0.8c-0.07,0.22-0.29,0.37-0.53,0.35 c-0.94-0.09-1.52-0.84-2.03-1.5c-0.41-0.55-0.81-1.06-1.32-1.14c-0.43-0.06-0.85,0.17-1.35,0.43c-0.46,0.25-0.93,0.5-1.49,0.57 c-0.55,0.06-1.04-0.08-1.52-0.21c-0.27-0.08-0.54-0.15-0.8-0.18c-1.27-0.17-2.52,0.67-3.68,1.56c-0.7,0.55-1.42,1.14-2,1.8v0.01 c-0.68,0.79-1.04,1.56-1.11,2.34c-0.01,0.17-0.11,0.32-0.26,0.4c-0.15,0.08-0.33,0.08-0.48,0c-0.18-0.1-0.46,0.01-0.64,0.14 c-0.16,0.1-0.29,0.21-0.43,0.33c-0.18,0.15-0.37,0.31-0.57,0.43c-0.59,0.36-1.25,0.45-1.88,0.52C9.29,19.02,9,19.06,8.72,19.12 c-0.45,0.11-0.88,0.42-1.06,0.75c-0.09,0.16-0.11,0.32-0.05,0.47c0.05,0.15,0.03,0.33-0.07,0.46c-0.09,0.14-0.26,0.21-0.41,0.21 H7.09c-0.97,0-1.79,0.93-2.06,1.82c-0.28,0.9-0.14,3.19,0.05,4.68c0,0.11,0.02,0.21,0.03,0.3c0.03,0.28-0.16,0.53-0.43,0.56 c-0.03,0.01-0.05,0.01-0.07,0.01c-0.06,0-0.11-0.01-0.16-0.03c-0.01,0-0.03-0.01-0.04-0.01c-0.15-0.07-0.27-0.21-0.29-0.4 c-0.01-0.04-0.05-0.35-0.1-0.82c-0.12-1.22-0.28-3.5,0.05-4.59c0.35-1.11,1.29-2.22,2.51-2.47c0.01-0.22,0.08-0.45,0.2-0.67 c0.31-0.58,0.98-1.07,1.71-1.24c0.31-0.08,0.64-0.12,0.97-0.16c0.55-0.07,1.07-0.13,1.48-0.38c0.16-0.1,0.3-0.22,0.44-0.34 c0.17-0.15,0.34-0.29,0.53-0.41c0.33-0.23,0.69-0.34,1.02-0.34c0.09-0.42,0.25-0.83,0.48-1.24c0.2-0.37,0.46-0.74,0.78-1.11 c0.04-0.04,0.07-0.08,0.11-0.12c0.6-0.68,1.33-1.28,2.04-1.83c1.27-0.97,2.77-1.98,4.42-1.77c0.32,0.04,0.64,0.13,0.94,0.21 c0.41,0.11,0.78,0.22,1.15,0.19c0.35-0.05,0.72-0.25,1.11-0.46c0.58-0.31,1.23-0.66,1.98-0.54c0.91,0.14,1.47,0.87,1.97,1.52 c0.34,0.44,0.64,0.84,1,1.02c0.48-0.78,1.45-1.17,2.25-1.19c0.12,0,0.23,0,0.35,0.02C31.78,11.25,31.98,11.5,31.94,11.77z"></path><path fill="#010101" d="M37.35,15.6c0.02,0.12,0,0.26-0.08,0.38c0,0,0,0.01-0.01,0.01c0,0.01-0.01,0.02-0.02,0.03 c-0.02,0.02-0.04,0.05-0.06,0.07l-0.01,0.01c-0.09,0.06-0.19,0.1-0.31,0.1c-0.11,0-0.22-0.03-0.31-0.1 c-0.06-0.04-0.13-0.09-0.22-0.12c-0.09-0.04-0.16-0.11-0.21-0.19c-0.04-0.06-0.07-0.12-0.08-0.19c-0.03-0.18-0.06-0.36-0.11-0.54 c-0.02-0.02-0.03-0.04-0.03-0.07l-0.01-0.01c-0.04-0.11-0.07-0.14-0.07-0.15c0.01,0.02-0.08,0.02-0.15,0.02 c-0.16,0.01-0.33,0.01-0.53-0.02c-0.08-0.01-0.16-0.05-0.22-0.09c-0.22-0.17-0.37-0.47-0.6-0.98c-0.03-0.06-0.06-0.13-0.09-0.2 c-0.11-0.22-0.23-0.46-0.3-0.53c-0.2-0.09-0.3-0.28-0.26-0.49v-0.01c0-0.05,0.01-0.1,0.04-0.14c0.03-0.06,0.07-0.12,0.13-0.16 c0,0,0-0.01,0.01-0.01c0.15-0.12,0.37-0.15,0.55-0.06c0.16,0.07,0.29,0.19,0.41,0.38c0.13,0.2,0.26,0.47,0.41,0.8 c0.08,0.16,0.18,0.38,0.26,0.52c0.05,0,0.11,0,0.17-0.01c0.28,0,0.76-0.02,1.06,0.54c0.03,0.05,0.06,0.1,0.08,0.16 c0.03,0.03,0.05,0.07,0.06,0.12c0.02,0.07,0.04,0.13,0.06,0.2c0.03,0.11,0.05,0.22,0.07,0.32c0.06,0.04,0.12,0.07,0.18,0.12 C37.26,15.38,37.32,15.48,37.35,15.6z"></path><path fill="#010101" d="M22.87,20.42c-0.04,0.27-0.3,0.46-0.57,0.42c-0.28-0.05-0.46-0.3-0.42-0.58 c0.06-0.35-0.18-0.75-0.52-0.86c-0.34-0.11-0.77,0.06-0.94,0.37c-0.08,0.15-0.22,0.24-0.38,0.26c-0.16,0.02-0.32-0.03-0.43-0.15 c-0.05-0.06-0.16-0.1-0.27-0.09c-0.11,0.01-0.21,0.05-0.26,0.12c-0.04,0.05-0.07,0.1-0.1,0.15c-0.11,0.2-0.28,0.49-0.63,0.61 c-0.38,0.14-0.73-0.03-0.96-0.14c-0.46-0.21-1.01-0.23-1.33,0.07c-0.14,0.13-0.21,0.35-0.18,0.56c0.01,0.09,0.04,0.25,0.18,0.33 c0.23,0.15,0.31,0.45,0.17,0.69c-0.1,0.15-0.26,0.24-0.43,0.24c-0.09,0-0.18-0.02-0.26-0.07c-0.37-0.23-0.61-0.62-0.66-1.09 c-0.05-0.51,0.13-1.04,0.49-1.38c0.59-0.56,1.54-0.68,2.37-0.29c0.15,0.07,0.27,0.13,0.31,0.13c-0.02,0,0.03-0.09,0.07-0.15 c0.05-0.1,0.1-0.19,0.16-0.27c0.24-0.3,0.6-0.49,1.01-0.51c0.21-0.01,0.39,0.02,0.57,0.09c0.47-0.45,1.18-0.64,1.82-0.43 C22.48,18.72,23,19.59,22.87,20.42z"></path><path fill="#010101" d="M19.55,26.9c0.02,0.44-0.17,0.9-0.51,1.21c-0.26,0.24-0.59,0.37-0.92,0.37c-0.05,0-0.1,0-0.16-0.01 c-0.27-0.03-0.46-0.28-0.43-0.56c0.04-0.27,0.3-0.46,0.56-0.43c0.13,0.02,0.22-0.06,0.27-0.1c0.12-0.12,0.19-0.29,0.19-0.43 c-0.02-0.37-0.36-0.69-0.68-0.83c-0.73-0.33-1.72-0.01-2.13,0.68c-0.09,0.15-0.29,0.21-0.43,0.24c-0.18,0-0.35-0.1-0.43-0.25 c-0.15-0.25-0.44-0.41-0.73-0.42c-0.29,0-0.59,0.18-0.72,0.44c-0.13,0.24-0.43,0.34-0.68,0.21c-0.24-0.13-0.33-0.43-0.21-0.68 c0.31-0.58,0.93-0.96,1.59-0.97c0.42-0.01,0.83,0.14,1.16,0.4c0.77-0.76,1.99-1.01,2.99-0.56C19.01,25.53,19.51,26.2,19.55,26.9z"></path><path fill="#010101" d="M47.59,9.07c-0.01,0.88-0.75,1.5-1.2,1.88c-1.91,1.64-3.84,3.47-5.72,5.44 c-0.13,0.13-0.25,0.27-0.38,0.4c-0.1,0.11-0.21,0.21-0.31,0.32c-0.23,0.25-0.46,0.5-0.7,0.75v0.01c-0.07,0.07-0.13,0.15-0.2,0.22 c-0.18,0.2-0.36,0.39-0.54,0.59c-0.74,0.83-1.46,1.68-2.16,2.54v0.01c-0.14,0.16-0.26,0.31-0.39,0.47 c-0.1,0.12-0.24,0.18-0.39,0.18c-0.03,0-0.07,0-0.1-0.01c-0.01,0-0.02-0.01-0.03-0.01c-0.01,0-0.03,0-0.05-0.01 c-0.05-0.02-0.09-0.04-0.13-0.08c-0.22-0.17-0.25-0.48-0.08-0.7c0.06-0.08,0.12-0.15,0.19-0.23c0.94-1.16,1.92-2.31,2.93-3.41 v-0.01c0.38-0.42,0.78-0.86,1.19-1.27c0.01-0.02,0.02-0.03,0.04-0.05c0.01-0.01,0.03-0.03,0.04-0.04 c2.02-2.13,4.08-4.11,6.15-5.87c0.42-0.36,0.84-0.75,0.84-1.15c0.01-0.25-0.13-0.43-0.26-0.54c-0.26-0.23-0.67-0.36-1.02-0.3 c-0.69,0.1-1.3,0.63-1.91,1.22c-1.78,1.68-3.56,3.58-5.61,5.97c-0.02,0.01-0.03,0.03-0.04,0.04c-0.18,0.19-0.33,0.37-0.48,0.55 c0,0,0,0.01-0.01,0.01c0,0.01-0.01,0.02-0.02,0.03c-0.02,0.02-0.04,0.05-0.06,0.07l-0.01,0.01c-1.06,1.25-2.12,2.53-3.24,3.92 c-0.21,0.26-0.42,0.52-0.63,0.78c-0.04,0.05-0.09,0.09-0.15,0.13s-0.13,0.06-0.2,0.06c-0.06,0.01-0.13,0-0.19-0.02 c-0.01-0.01-0.02-0.01-0.03-0.01c-0.04-0.01-0.08-0.03-0.11-0.05c-0.01,0-0.02,0-0.02-0.01c-0.01-0.01-0.01-0.01-0.01-0.01 c-0.01,0-0.01-0.01-0.01-0.01c-0.02-0.01-0.05-0.03-0.06-0.05c-0.03-0.03-0.05-0.06-0.07-0.1c0,0-0.01-0.01-0.01-0.02 c0,0,0-0.01-0.01-0.02c-0.01-0.02-0.01-0.04-0.02-0.07c0-0.01,0-0.01-0.01-0.02c-0.01-0.03-0.01-0.07-0.01-0.1 c0-0.16,0.07-0.3,0.18-0.39c0.13-0.16,0.25-0.31,0.38-0.47c1.1-1.36,2.14-2.63,3.17-3.85c0.12-0.14,0.24-0.27,0.35-0.41 c0.01-0.01,0.01-0.01,0.01-0.02c0.13-0.16,0.27-0.33,0.43-0.49c0.03-0.04,0.06-0.07,0.1-0.11c0.07-0.08,0.13-0.16,0.2-0.23 c1.99-2.31,3.75-4.18,5.5-5.84c0.56-0.53,1.4-1.32,2.45-1.48c0.64-0.1,1.34,0.11,1.83,0.54C47.39,8.11,47.61,8.57,47.59,9.07z"></path><path fill="#010101" d="M39.12,3.87c0.05,0.93-0.37,1.75-0.81,2.5L36.82,9c-0.67,1.18-1.34,2.37-2.01,3.54 c-0.06,0.11-0.12,0.21-0.18,0.32c-0.13,0.23-0.26,0.47-0.4,0.7c-0.78,1.39-1.56,2.77-2.35,4.15l-0.94,1.66l-0.28,0.5 c-0.09,0.16-0.26,0.25-0.43,0.25c-0.09,0-0.17-0.02-0.25-0.06c-0.24-0.14-0.32-0.44-0.19-0.68l0.46-0.82l0.76-1.34 c0.89-1.56,1.78-3.11,2.66-4.68v-0.01c0.03-0.05,0.06-0.11,0.09-0.16c0.03-0.05,0.05-0.09,0.08-0.14c0,0,0-0.01,0.01-0.01 c0.7-1.24,1.4-2.47,2.1-3.71l1.49-2.64c0.38-0.65,0.72-1.28,0.68-1.93c-0.03-0.29-0.21-0.62-0.46-0.8 c-0.07-0.06-0.18-0.12-0.31-0.13c-2.09,3.27-3.83,6.01-5.47,8.94v0.01c-1.11,1.96-2.06,3.82-2.88,5.65c0,0,0,0.01-0.01,0.01 c-0.16,0.37-0.32,0.73-0.48,1.1c-0.05,0.12-0.14,0.2-0.24,0.26c-0.01,0-0.01,0.01-0.02,0.01c-0.12,0.05-0.26,0.05-0.4,0 c-0.25-0.11-0.37-0.41-0.26-0.66c0.02-0.06,0.05-0.11,0.07-0.17c0.82-1.9,1.76-3.82,2.86-5.83c0.17-0.28,0.33-0.57,0.49-0.86 c0.05-0.09,0.1-0.18,0.15-0.27c1.65-2.92,3.39-5.66,5.48-8.94c0.07-0.11,0.18-0.18,0.31-0.21c0.44-0.11,0.9-0.01,1.3,0.28 C38.74,2.68,39.07,3.28,39.12,3.87z"></path><path fill="#010101" d="M37.15,24.37c-0.02,0.07-0.06,0.13-0.11,0.18c0,0.01-0.01,0.02-0.02,0.02c0,0.01,0,0.01-0.01,0.01 c0,0.01,0,0.01-0.01,0c-0.03,0.01-0.05,0.03-0.08,0.05c-0.03,0.02-0.07,0.04-0.1,0.06c0,0.01,0,0.01-0.01,0 c0,0-0.01,0.01-0.02,0.01c-0.04,0.01-0.08,0.02-0.12,0.02c-0.05,0-0.1-0.01-0.16-0.03c-0.26-0.09-0.4-0.37-0.31-0.63 c0.01-0.04,0.01-0.09,0.01-0.17c-0.01-0.45-0.19-1.52-0.33-1.75c-0.07-0.12-0.2-0.21-0.38-0.27c-0.01,0-0.02-0.01-0.03-0.01 c-0.01,0-0.03,0-0.05-0.01c-0.05-0.01-0.1-0.02-0.16-0.02c-0.31-0.04-0.66,0.03-1.01,0.1c-0.16,0.04-0.34-0.02-0.46-0.15 c-0.12-0.12-0.16-0.3-0.12-0.47c0.04-0.12-0.02-0.29-0.13-0.36c-0.1-0.08-0.27-0.09-0.39-0.02c-0.06,0.04-0.13,0.06-0.2,0.06 c-0.06,0.01-0.13,0-0.19-0.02c-0.01-0.01-0.02-0.01-0.03-0.01H32.7c-0.03-0.01-0.06-0.03-0.08-0.05c-0.01,0-0.02,0-0.02-0.01 c-0.01-0.01-0.01-0.01-0.01-0.01c-0.01,0-0.01-0.01-0.01-0.01c-0.02-0.01-0.05-0.03-0.06-0.05c-0.03-0.03-0.05-0.06-0.07-0.1 c0,0-0.01-0.01-0.01-0.02c0,0,0-0.01-0.01-0.02c-0.01-0.02-0.01-0.04-0.02-0.07c0-0.01,0-0.01-0.01-0.02 c-0.08-0.26-0.4-0.47-0.66-0.44c-0.09,0.01-0.25,0.08-0.41,0.14c-0.38,0.14-0.62,0.23-0.83,0.23c-0.69,0-0.95-0.78-1.11-1.35 c-0.05-0.18-0.13-0.46-0.2-0.59c-0.18,0.05-0.55,0.21-0.92,0.39c-0.01,0-0.01,0.01-0.02,0.01c-0.47,0.23-0.95,0.49-1.08,0.61 c-0.14,0.14-0.1,0.37,0.02,0.86c0.11,0.46,0.25,1.03-0.01,1.58c-0.12,0.25-0.42,0.36-0.67,0.24s-0.36-0.42-0.24-0.67 c0.11-0.23,0.03-0.56-0.05-0.92c-0.14-0.55-0.3-1.23,0.23-1.79c0.17-0.17,0.67-0.47,1.21-0.74c0.48-0.24,1-0.46,1.33-0.54 c0.01,0,0.01-0.01,0.01-0.01c0.09-0.02,0.17-0.03,0.23-0.03h0.03c0.58,0,0.83,0.49,0.99,0.98c0.04,0.12,0.08,0.25,0.11,0.36 c0.05,0.18,0.12,0.46,0.2,0.59c0.09-0.03,0.26-0.09,0.38-0.14c0.01,0,0.02-0.01,0.03-0.01c0.3-0.11,0.49-0.18,0.66-0.2 c0.49-0.05,0.98,0.14,1.32,0.48c0.08,0.08,0.15,0.16,0.21,0.25c0.27-0.03,0.54,0.02,0.77,0.13c0.08,0.03,0.14,0.07,0.21,0.12 c0.24,0.18,0.4,0.43,0.48,0.71c0.24-0.03,0.49-0.05,0.74-0.02c0.01,0,0.03,0,0.04,0.01c0.38,0.04,0.72,0.18,0.98,0.38v0.01 c0.13,0.1,0.25,0.23,0.34,0.37c0.17,0.27,0.36,1.03,0.44,1.7C37.21,23.75,37.22,24.16,37.15,24.37z"></path></g></svg>