<svg xmlns="http://www.w3.org/2000/svg"  viewBox="0 0 48 48" width="48px" height="48px"><path fill="#513620" d="M46.594,28.048c-0.011-0.539-0.021-1.079-0.032-1.618c-0.011-0.529-0.617-0.61-0.876-0.285	c-0.108,0.039-0.195,0.115-0.244,0.226c-0.673,0.483-1.382,0.906-2.127,1.266c-0.166-0.008-0.339,0.004-0.525,0.068	c-2.397,0.827-4.877,1.426-7.396,1.715c-0.11,0.013-0.216,0.035-0.32,0.064c-0.158-0.011-0.32-0.002-0.481,0.026	c-0.841,0.147-1.683,0.294-2.524,0.441c-0.643,0.112-1.353,0.292-2.007,0.18c-0.099-0.017-0.196-0.004-0.295-0.006	c-0.046-0.017-0.09-0.038-0.139-0.05c-0.955-0.224-1.929-0.365-2.907-0.438c-0.415-0.085-0.829-0.169-1.244-0.254	c-0.108-0.022-0.218-0.031-0.329-0.032c-0.621-0.134-1.238-0.28-1.852-0.445c-0.376-0.101-0.778-0.021-1.118,0.169	c-0.144-0.049-0.29-0.095-0.453-0.102c-0.473-0.019-0.946-0.038-1.419-0.058c-0.522-0.046-1.045-0.072-1.572-0.064	c-0.117,0.002-0.232,0.023-0.345,0.053c-0.194-0.094-0.406-0.165-0.644-0.195c-1.482-0.185-2.97-0.307-4.462-0.365	c-0.103-0.004-0.202,0.007-0.299,0.026c-0.069-0.004-0.139-0.008-0.208-0.012c-0.243-0.178-0.529-0.306-0.867-0.332	c-1.126-0.085-2.251-0.17-3.377-0.255c-0.913-0.22-1.872-0.128-2.803-0.221c-0.074-0.007-0.147-0.016-0.221-0.025	c0.059,0.008,0.117,0.016,0.176,0.024c-0.144-0.003-0.298-0.046-0.44-0.07c-0.257-0.044-0.512-0.091-0.769-0.135	c-0.605-0.102-1.217-0.195-1.831-0.21c-0.521-0.013-1.027,0.296-1.287,0.743c-0.243,0.417-0.311,1.096-0.003,1.508	c0.018,0.43,0.203,0.791,0.518,1.053c0.154,0.45,0.489,0.831,0.983,0.931c1.127,0.229,2.277,0.337,3.425,0.27	c0.171-0.01,0.333-0.05,0.486-0.105c0.39,0.014,0.779,0.032,1.167,0.069c0.115,0.011,0.23,0.023,0.345,0.037	c0.043,0.005,0.085,0.01,0.128,0.016c0.227,0.026,0.455,0.069,0.678,0.109c1.013,0.184,2.01,0.493,3.048,0.505	c0.298,0.004,0.564-0.107,0.797-0.265c0.797,0.132,1.596,0.255,2.397,0.367c0.18,0.19,0.4,0.351,0.646,0.385	c0.701,0.097,1.4,0.204,2.097,0.324c0.218,0.03,0.419,0.046,0.616,0.024c0.461,0.093,0.924,0.181,1.386,0.265	c0.283,0.051,0.555,0.057,0.818-0.016c1.524,0.325,3.044,0.664,4.557,1.033c0.389,0.095,0.812,0.026,1.159-0.17	c0.831,0.11,1.631,0.097,2.481-0.038c0.105-0.017,0.205-0.058,0.302-0.109c0.181,0.055,0.356,0.122,0.543,0.157	c1.43,0.71,3.027,0.447,4.559,0.296c1.64-0.162,3.279-0.4,4.845-0.933c0.025-0.008,0.041-0.023,0.065-0.032	c0.061,0.012,0.109,0.039,0.175,0.045c1.478,0.134,2.959-0.189,4.28-0.859c0.641-0.325,1.358-0.77,1.727-1.408	c0.082-0.142,0.139-0.297,0.187-0.456c0.314-0.395,0.582-0.824,0.721-1.316C46.629,29.072,46.604,28.555,46.594,28.048z"/><path fill="#a37b57" d="M21.887,24.328c-0.812-0.402-1.767-0.416-2.644-0.578c-0.31-0.057-0.617-0.129-0.925-0.196	c-0.736-0.201-1.478-0.38-2.228-0.524c-0.286-0.055-0.492,0.115-0.576,0.327c-0.416-0.108-0.833-0.215-1.249-0.323	c-0.254-0.066-0.442,0.057-0.539,0.234c-0.271-0.072-0.544-0.13-0.82-0.167c-0.316-0.079-0.632-0.157-0.948-0.236	c-0.199-0.05-0.378,0.032-0.494,0.166c-0.348-0.129-0.7-0.247-1.044-0.39c-0.516-0.213-0.749,0.5-0.483,0.836	c0.651,0.822,1.332,1.618,2.043,2.389c0.1,0.109,0.213,0.15,0.323,0.152c0.097,0.136,0.193,0.273,0.29,0.409	c0.002,0.013,0,0.025,0.003,0.039c0.246,1.037,1.21,1.41,2.145,1.621c1.253,0.283,2.515,0.518,3.797,0.618	c0.88,0.068,2.29,0.352,2.945-0.422c0.329-0.388,0.488-0.954,0.647-1.428c0.21-0.63,0.356-1.275,0.457-1.931	C22.653,24.479,22.196,24.22,21.887,24.328z"/><path fill="#a37b57" d="M45.361,23.72c-1.204-0.651-2.72-0.469-4.025-0.386c-1.605,0.103-3.211,0.205-4.816,0.308	c-0.906,0.058-1.811,0.116-2.717,0.174c-0.616,0.039-1.504-0.055-2.038,0.332c-0.018,0.013-0.031,0.035-0.049,0.049	c-0.242-0.073-0.538,0.01-0.637,0.321c-0.187,0.589-0.344,1.186-0.483,1.787c-0.241,0.663-0.429,1.341-0.543,2.041	c-0.027,0.169,0.042,0.327,0.15,0.447c0.003,0.024-0.001,0.051,0.002,0.075c0.073,0.487,0.412,0.715,0.851,0.807	c0.106,0.053,0.232,0.066,0.354,0.04c0.668,0.043,1.444-0.113,1.884-0.146c1.574-0.119,3.145-0.275,4.712-0.468	c1.454-0.178,2.931-0.347,4.331-0.798c1.159-0.373,2.383-0.925,3.129-1.935C46.041,25.593,46.388,24.275,45.361,23.72z"/><path fill="#a37b57" d="M7.084,26.585c-0.605-0.812-1.211-1.624-1.816-2.436c0.007-0.059,0.005-0.121-0.016-0.183	c-0.078-0.243-0.349-0.443-0.611-0.349c-0.632,0.226-1.229,0.527-1.808,0.865c-0.202-0.017-0.384,0.1-0.468,0.29	c-0.135,0.089-0.282,0.16-0.413,0.256c-0.153,0.112-0.257,0.296-0.244,0.481C1.689,25.54,1.663,25.56,1.648,25.6	c-0.063,0.171-0.073,0.352-0.037,0.531c0.074,0.366,0.348,0.659,0.701,0.765c0.126,0.063,0.26,0.105,0.393,0.133	c0.357,0.169,0.78,0.19,1.187,0.187c0.101,0.037,0.21,0.035,0.317-0.004c0.028,0,0.057-0.001,0.084-0.001	c0.743-0.007,1.489-0.016,2.209,0.195c0.317,0.092,0.537-0.119,0.595-0.369C7.167,26.89,7.183,26.716,7.084,26.585z"/><path fill="#f3ad20" d="M35.023,16.309c-1.976-1.519-5.729-3.122-7.861-1.036c-0.167,0.164-0.178,0.361-0.105,0.525	c-0.28,0.366-0.548,0.739-0.797,1.126c-0.584,0.823-1.123,1.676-1.583,2.576c-0.041,0.037-0.081,0.076-0.113,0.134	c-0.309,0.552-0.554,1.131-0.737,1.737c-0.011,0.038-0.007,0.07-0.011,0.105c-0.011,0.035-0.026,0.068-0.037,0.102	c-0.056,0.173,0.001,0.325,0.103,0.439c-0.028,0.081-0.059,0.16-0.086,0.241c-0.082,0.039-0.156,0.1-0.206,0.206	c-0.143,0.305-0.267,0.618-0.398,0.928c-0.007,0.015-0.018,0.024-0.024,0.04l-0.046,0.124c-0.31,0.743-0.599,1.495-0.84,2.266	c-0.041,0.132-0.024,0.241,0.018,0.334c-0.077,0.259-0.166,0.517-0.233,0.778c-0.053,0.208-0.057,0.448-0.017,0.672	c-0.298,0.186-0.439,0.689-0.042,0.87c0.118,0.054,0.21,0.096,0.339,0.114c0.054,0.007,0.104,0.005,0.154,0.001	c-0.007,0.005-0.014,0.011-0.022,0.017c0.734,0.032,1.444,0.147,2.153,0.342c0.007,0.002,0.013,0,0.019,0.001	c0.058,0.063,0.131,0.117,0.24,0.146c0.216,0.056,0.435,0.094,0.651,0.146c0.186,0.054,0.369,0.115,0.552,0.191	c0.113,0.047,0.214,0.037,0.304,0c0.98,0.206,1.965,0.384,2.961,0.503c0.136,0.016,0.249-0.045,0.335-0.137	c0.251-0.019,0.499-0.19,0.484-0.484c0-0.001,0-0.002,0-0.004c0.044-0.054,0.08-0.119,0.095-0.205l0.433-2.533	c0.032-0.189-0.05-0.367-0.178-0.488c0.069-0.401,0.148-0.801,0.248-1.199c0.001-0.005,0-0.009,0.001-0.014	c0.365-0.832,0.647-1.692,0.843-2.581c0.234-0.484,0.442-0.979,0.629-1.485c0.549-0.818,1.065-1.657,1.512-2.539	c0.002-0.004,0.001-0.008,0.003-0.012c0.213-0.239,0.445-0.458,0.69-0.663c0.167-0.025,0.305-0.134,0.38-0.281	c0.065-0.044,0.121-0.098,0.189-0.14C35.37,16.961,35.313,16.532,35.023,16.309z"/><path fill="#f3ad20" d="M12.438,26.879c-0.039-0.002-0.079-0.004-0.118-0.006c-0.023-0.037-0.047-0.074-0.085-0.105	c-0.236-0.195-0.454-0.406-0.67-0.62c-1.954-2.554-3.773-5.21-5.447-7.959c-0.116-0.191-0.292-0.251-0.459-0.231	c-0.393-0.842-0.771-1.691-1.118-2.554c-0.234-0.582-1.117-0.376-0.958,0.266c0.017,0.07,0.044,0.135,0.062,0.205	c-0.054,0.093-0.077,0.203-0.062,0.319c-0.026,0.053-0.051,0.107-0.08,0.159c-0.063,0.116-0.134,0.228-0.208,0.337	c-0.152,0.225-0.318,0.44-0.464,0.669c-0.152,0.239-0.286,0.502-0.356,0.779c-0.055,0.218-0.072,0.465-0.01,0.675	c-0.07,0.128-0.09,0.287-0.006,0.46c1.283,2.664,3.414,4.865,5.301,7.103c0.219,0.346,0.418,0.705,0.643,1.047	c0.208,0.316,0.579,0.274,0.784,0.073c0.002,0.003,0.004,0.006,0.006,0.009c0.124,0.179,0.305,0.233,0.476,0.214	c0.031,0.007,0.056,0.02,0.091,0.022c0.893,0.047,1.787,0.093,2.68,0.14C13.077,27.913,13.075,26.912,12.438,26.879z"/><path fill="#f58420" d="M38.66,19.967c-0.114-0.452-0.286-0.887-0.583-1.25c-0.06-0.073-0.16-0.156-0.263-0.242	c-0.019-0.031-0.039-0.061-0.059-0.092c-0.111-0.216-0.23-0.428-0.357-0.635c-0.088-0.143-0.224-0.213-0.364-0.229	c-0.081-0.059-0.17-0.107-0.266-0.144c-0.118-0.149-0.303-0.25-0.51-0.206c-1.137,0.241-2.138,1.042-2.611,2.113	c-0.049,0.111-0.069,0.23-0.053,0.341c-0.553,0.711-1.043,1.455-1.396,2.29c-0.005,0.009-0.012,0.017-0.017,0.026	c0.001,0.001,0.003,0.001,0.004,0.002c-0.017,0.04-0.038,0.077-0.054,0.118c-0.043,0.109-0.034,0.207-0.003,0.294	c-0.055,0.116-0.113,0.232-0.165,0.349c-0.237,0.189-0.331,0.526-0.179,0.884c0.076,0.179,0.283,0.251,0.479,0.234	c0.072,0.038,0.147,0.074,0.232,0.084c1.085,0.125,2.179,0.159,3.27,0.089c0.55-0.035,1.099-0.097,1.644-0.178	c0.373-0.056,0.875-0.099,1.088-0.423c0.095-0.058,0.171-0.149,0.199-0.28C38.92,22.072,38.921,20.999,38.66,19.967z"/><path fill="#f58420" d="M14.168,22.3c-1.026-1.264-2.089-2.496-3.187-3.696c-0.105-0.115-0.237-0.15-0.366-0.138	c-1.379-1.466-2.803-2.887-4.294-4.236c-0.117-0.106-0.249-0.141-0.373-0.132c-0.048-0.19-0.277-0.364-0.47-0.346	c-0.915,0.083-0.971,1.014-0.546,1.657c0.084,0.127,0.218,0.195,0.357,0.217c0.324,1.115,0.821,2.171,1.453,3.147	c-0.007,0.09,0.006,0.182,0.066,0.272c0.577,0.872,1.199,1.712,1.852,2.528c-0.068,0.164-0.045,0.367,0.093,0.545	c0.348,0.449,0.896,0.626,1.434,0.717c0.683,0.115,1.374,0.171,2.066,0.18c0.138,0.002,0.248-0.055,0.332-0.139	c0.397,0.139,0.8,0.244,1.232,0.278C14.289,23.191,14.413,22.602,14.168,22.3z"/><path fill="#010101" d="M14.847,22.637c-1.359-1.849-2.82-3.618-4.394-5.286c-0.772-0.818-1.569-1.611-2.39-2.379 c-0.411-0.384-0.827-0.761-1.249-1.132c-0.368-0.323-0.757-0.702-1.249-0.81c-0.817-0.179-1.496,0.449-1.588,1.25 c-0.115,0.99,0.595,2.036,1.03,2.875c1.004,1.94,2.16,3.799,3.442,5.565c1.46,2.013,3.075,3.904,4.798,5.692 c0.446,0.463,1.148-0.245,0.703-0.707c-2.582-2.678-4.912-5.592-6.825-8.794c-0.461-0.772-0.898-1.558-1.309-2.357 C5.65,16.236,4.3,13.732,5.459,14.043c0.373,0.1,0.788,0.623,1.073,0.878c0.391,0.35,0.776,0.706,1.156,1.068 c0.679,0.646,1.341,1.309,1.986,1.989c1.544,1.629,2.985,3.355,4.316,5.165C14.365,23.654,15.228,23.156,14.847,22.637 L14.847,22.637z"/><path fill="#010101" d="M2.815,18.718c0.133-0.848,0.748-1.504,1.162-2.226c0.387-0.675,0.623-1.414,0.893-2.14 c0.094-0.253-0.105-0.548-0.347-0.615c-0.279-0.077-0.517,0.095-0.611,0.349c-0.27,0.726-0.474,1.369-0.866,2.026 c-0.448,0.751-1.049,1.447-1.189,2.34c-0.042,0.267,0.068,0.538,0.347,0.615C2.44,19.132,2.773,18.986,2.815,18.718L2.815,18.718z"/><path fill="#010101" d="M1.94,18.994c0.414,1.56,1.395,2.838,2.336,4.112c1.082,1.465,2.163,2.93,3.245,4.396 c0.377,0.511,1.24,0.013,0.858-0.505c-1.049-1.421-2.098-2.842-3.147-4.263c-0.916-1.24-1.931-2.486-2.334-4.006 C2.733,18.107,1.774,18.37,1.94,18.994L1.94,18.994z"/><path fill="#010101" d="M39.464,23.129c0.216-1.977-0.317-4.006-1.508-5.598c-0.533-0.712-1.182-1.241-2.12-1.069 c-0.989,0.181-1.663,1.003-2.253,1.754c-2.517,3.201-3.848,7.251-3.741,11.331c0.017,0.643,1.011,0.645,0.994,0 c-0.089-3.378,0.846-6.721,2.687-9.55c0.457-0.702,0.962-1.428,1.57-2.008c0.342-0.327,0.84-0.686,1.345-0.53 c0.388,0.12,0.682,0.589,0.896,0.906c0.947,1.403,1.32,3.086,1.137,4.764C38.401,23.768,39.395,23.763,39.464,23.129L39.464,23.129 z"/><path fill="#010101" d="M22.164,28.616c0.777-4.031,2.214-7.909,4.288-11.446c0.436-0.743,0.899-1.556,1.626-2.049 c0.862-0.586,1.849-0.252,2.772-0.001c1.83,0.497,3.503,1.328,5.165,2.23c0.563,0.306,1.065-0.558,0.501-0.864 c-1.799-0.977-3.621-1.867-5.607-2.385c-0.981-0.256-1.994-0.51-2.957-0.056c-0.786,0.371-1.363,1.067-1.839,1.778 c-2.481,3.699-4.067,8.171-4.907,12.528C21.084,28.979,22.042,29.248,22.164,28.616L22.164,28.616z"/><path fill="#010101" d="M2.067,26.412c-0.017-0.042-0.033-0.084-0.045-0.128c-0.003-0.012-0.029-0.132-0.018-0.065 c0.011,0.066-0.003-0.053-0.003-0.067c-0.001-0.045,0.002-0.09,0.005-0.135c-0.005,0.073-0.002,0.019,0.007-0.024 c0.008-0.037,0.018-0.074,0.029-0.111c0.003-0.011,0.042-0.126,0.022-0.07c-0.02,0.055,0.026-0.056,0.032-0.067 c0.039-0.076,0.083-0.148,0.133-0.217c0.031-0.043-0.039,0.039,0.022-0.025c0.035-0.036,0.067-0.074,0.103-0.109 c0.059-0.058,0.121-0.114,0.186-0.165c-0.064,0.05,0.059-0.041,0.059-0.041c0.034-0.024,0.069-0.047,0.104-0.07 c0.309-0.2,0.644-0.36,0.971-0.527c0.378-0.193,0.756-0.386,1.133-0.579c0.232-0.119,0.318-0.467,0.178-0.684 c-0.153-0.239-0.431-0.306-0.68-0.179c-0.422,0.216-0.843,0.431-1.265,0.647c-0.358,0.183-0.722,0.36-1.044,0.603 c-0.677,0.51-1.241,1.409-0.887,2.282c0.098,0.241,0.335,0.439,0.611,0.349C1.951,26.952,2.173,26.671,2.067,26.412L2.067,26.412z"/><path fill="#010101" d="M9.128,23.258c2.56,0.029,5.098,0.359,7.633,0.696c1.269,0.169,2.538,0.335,3.811,0.467 c0.727,0.075,1.627,0.328,2.329,0.038c0.584-0.241,0.328-1.209-0.264-0.965c-0.694,0.286-1.818-0.045-2.542-0.124 c-1.193-0.13-2.382-0.291-3.572-0.449c-2.455-0.327-4.915-0.636-7.395-0.664C8.489,22.251,8.488,23.251,9.128,23.258L9.128,23.258z"/><path fill="#010101" d="M1.081,26.745c0.484,0.869,1.714,0.806,2.57,0.895c1.265,0.132,2.533,0.22,3.801,0.308 c2.52,0.175,5.016,0.393,7.501,0.861c2.465,0.465,4.938,0.384,7.426,0.601c2.635,0.229,5.242,0.691,7.845,1.151 c0.625,0.11,0.894-0.853,0.264-0.965c-2.37-0.419-4.743-0.835-7.137-1.092c-2.478-0.266-5.008-0.108-7.465-0.537 c-2.296-0.401-4.563-0.736-6.889-0.91c-1.189-0.089-2.379-0.162-3.567-0.256c-0.594-0.047-1.188-0.099-1.78-0.161 c-0.419-0.044-1.476,0.025-1.713-0.4C1.626,25.679,0.767,26.182,1.081,26.745L1.081,26.745z"/><path fill="#010101" d="M30.489,30.561c4.381-0.66,8.988-0.69,13.099-2.536c1.309-0.588,3.897-2.102,3-3.952 c-0.446-0.921-1.744-0.98-2.627-1.088c-1.226-0.15-2.463-0.135-3.694-0.073c-2.947,0.149-5.893,0.388-8.837,0.587 c-0.635,0.043-0.639,1.044,0,1c2.281-0.154,4.563-0.308,6.844-0.461c2.143-0.144,4.34-0.348,6.465,0.074 c0.496,0.099,1.088,0.176,0.981,0.815c-0.073,0.439-0.394,0.793-0.711,1.079c-0.72,0.649-1.658,1.071-2.551,1.416 c-1.822,0.703-3.752,1.077-5.678,1.353c-2.18,0.313-4.376,0.492-6.555,0.82C29.595,29.691,29.863,30.655,30.489,30.561 L30.489,30.561z"/><path fill="#010101" d="M1.008,26.17c0.07,0.823,0.077,1.65,0.104,2.476c0.025,0.76-0.01,1.629,0.278,2.344 c0.62,1.54,2.828,1.441,4.175,1.473c2.049,0.05,4.084,0.052,6.128,0.242c2.048,0.191,4.085,0.485,6.119,0.797 c4.039,0.621,8.084,1.318,12.175,1.467c4.042,0.147,8.108-0.246,12.051-1.151c1.812-0.416,3.846-0.736,4.563-2.709 c0.703-1.934,0.298-4.185,0.137-6.175c-0.051-0.637-1.045-0.643-0.994,0c0.14,1.735,0.439,3.556,0.074,5.284 c-0.158,0.751-0.47,1.405-1.158,1.788c-0.788,0.438-1.789,0.591-2.657,0.795c-3.664,0.862-7.43,1.261-11.192,1.192 c-7.469-0.138-14.738-2.237-22.198-2.488c-1.015-0.034-2.031-0.017-3.047-0.042c-0.853-0.021-1.956,0.044-2.748-0.345 c-0.795-0.391-0.677-1.512-0.705-2.276c-0.033-0.891-0.035-1.784-0.111-2.672C1.947,25.533,0.953,25.527,1.008,26.17L1.008,26.17z"/></svg>