<svg xmlns="http://www.w3.org/2000/svg" x="0px" y="0px"
width="48" height="48"
viewBox="0 0 512 512"
style=" fill:#000000;"><path fill="#BCBCBC" d="M202.3 195c-2.5 0-5.1-.2-7.7-.4.2 6.7.7 13.5.8 20.2 0 2.1.3 5.6 0 8.8.4-.1.8-.1 1.3-.1h4.8C200.9 214.1 200 204.1 202.3 195zM293.7 183.5h-11.3c0 0 0 0 0 0 .1.3.1.7.1 1.1.1 12.7 2.2 25.2 2.8 37.8 2.7-.9 5.5-1.1 8.3-1.2-.6-6-.3-12 .1-18.1C294.3 196.6 295 189.9 293.7 183.5zM277.8 279.6c-21.5 1.1-42.4 7.7-64 6.1.5 4.1 1.3 8.1 1.6 12.3 10.8.6 21.8-1.8 32.3-3.5 10.8-1.8 21.8-3 32.6-5.1C279.9 286.1 278.8 282.9 277.8 279.6zM184.3 223.3c0 .1 0 .1 0 .1 0 .1 0 .1 0 .2.3-.8.9-1.4 1.5-2C184.9 222.2 184.5 222.8 184.3 223.3zM184 224.1c0 .3.1.2.2-.5C184.2 223.8 184.1 223.9 184 224.1z"></path><path fill="#BCBCBC" d="M426.3,331.5c-1.8-30.9-2.7-61.6-1.8-92.6c0.9-30.6,2.8-61.1,2.4-91.7c-0.2-12.7-0.2-25.6-1.3-38.2c-0.9-10-2.4-21-8-29.5c-6.7-10.3-17.2-14-29.2-13.4c-13.3,0.7-26.2,4.1-39.5,5c-32.1,2.3-64.2,0.6-96.2-0.6c-63.9-2.4-128.3,0.2-191.7,9.3c-1.3,3.5,0,8.1,0.9,11.5c1.3,4.9,3,9.8,3.5,14.9c1.4,15.3,3.5,30.7,4.3,46c1.8,31.6,3.6,63.2,5.3,94.9c1.7,31.5,2.9,63,4,94.4c0.5,15.4,1,30.9,1.3,46.3c0.3,12.8,1.1,25.5,1.4,38.3c0.5,0.1,1,0.3,1.5,0.6c2,1.1,4,2.1,6.1,2.7c22.4,6.4,46.7-0.2,69.3-1.5c14.5-0.8,29.1-0.5,43.6-0.9c16-0.4,32-0.9,48.1-0.9c32.3,0.1,64.6,1.8,96.9,2.6c15.9,0.4,31.8,0.5,47.7,0.6c8,0,16,0,23.9-1c3.6-0.4,7.2-1,10.7-1.9c0.4-0.1,0.9-0.2,1.3-0.4C430.7,394.4,428.2,363,426.3,331.5z M366.8,285.7c-1.9,20.3-10.3,38.6-26.8,51.1c-15.7,11.9-35.5,17.6-54.9,19.6c-20.2,2.1-41.8,1.2-61.4-4.7c-41.3-12.3-83.7-44.7-86.9-90.8c-5.9-35-0.1-76.1,25.6-102.5c25.9-26.6,68.4-37.3,104.5-34.2c23.3,2,46.7,10.4,63.7,27c17.1,16.7,27.6,38.8,32.7,62C368.3,237.1,369,261.5,366.8,285.7z"></path><path fill="#D6E5E5" d="M355.6,234.3c-2.8-23.6-9.7-47.6-24.7-66.3c-30.9-38.5-88.2-40.4-130.7-21.7c-21.4,9.4-37.8,24.3-46.6,46.3c-8.4,21.1-9.6,44.4-6,66.7c0.1,0.3,0.1,0.6,0.1,0.9c0.1,0.3,0.1,0.6,0.1,0.9c4.2,50.3,59.4,80.9,104.9,84.7c35.6,3,84.8-4.1,99.2-42.5c3.8-10.3,4.4-21.6,4.9-32.4C357.3,258.7,357,246.4,355.6,234.3z M192.1,230.8c-1,0.7-2.4,0.9-4.1,0.6c-3.9-0.7-5-4.4-3.9-7.3c0-0.2,0.1-0.4,0.2-0.8c0-0.3,0.1-1,0.1-0.9c0-1.3,0.1-2.6,0.1-3.8c0-3.4-0.1-6.7-0.2-10.1c-0.2-5.4-0.6-10.7-0.6-16.1c0-1.5,0.5-2.6,1.2-3.6c-0.2-2.7,1.4-5.4,4.9-5.3c5.3,0.1,13.4,2.4,18.3-0.1c4.3-2.2,11.1,1.7,8,7c-6.7,11.3-3.5,25.7-3.4,38.1c0,2.8-1.9,5.9-5.1,5.9h-10C194.7,234.5,192.9,232.8,192.1,230.8z M291.5,290.6c0,1.4-0.4,2.5-1,3.4c0.4,2.3-0.6,4.6-3.6,5.2c-13.1,2.8-26.6,4.3-39.8,6.5c-12.5,2.1-25.3,4.4-38.1,2.7c-3.2-0.4-4.6-3.6-4.3-6.4c0.6-6.5-1.9-13-2.1-19.5c-0.1-3.1,2-5,4.3-5.6c1.1-1.5,2.9-2.5,5.2-2.2c23.3,2.7,46.3-5.9,69.5-6.1c2.3,0,5.1,1.2,5.6,3.7c0.9,4.2,2.4,8.2,3.4,12.4c0.6,0.8,0.9,1.8,0.9,3V290.6z M300.4,231.5c-4.2,0.8-8.6,0.1-12.6,1.7c-2.1,0.9-3.9,0.4-5.1-0.7c-3.2,1.9-8.2,0.7-8.2-4.1c-0.1-14.4-2.9-28.6-3-43c0-3.6,2.8-5.6,5.5-5.7c-1.1-3.2,0.2-7.2,4.5-7.2h16c2.5,0,4.8,1.2,5.6,3.7c5.2,15.8-1.8,32.2,2,48C306.1,227.9,304.1,230.8,300.4,231.5z"></path><path fill="#010101" d="M441.5,426.8c0.1-0.5,0.2-1,0.2-1.6c-0.1-32.9-2.7-65.6-4.7-98.4c-1.9-32.9-2.4-65.6-1.2-98.4c1.1-32.4,2.9-64.9,1.6-97.3c-0.9-22.2,0.1-47.4-16.3-64.7c-8.3-8.8-20.4-11.3-32.1-11.2c-5.8,0.1-11.6,1-17.4,2c-7.2,1.3-14.3,2.3-21.6,2.9c-32,2.6-64.2,0.9-96.3-0.4c-64.8-2.5-129.9,0.1-194.1,9.3c-0.6,0.1-1.3,0.2-1.9,0.3c-1.9,0.3-3.2,1.3-4,2.6c-0.8,0.4-1.4,1.1-2,1.9c-5.3,8.2-0.6,20.2,1.7,28.7c1.7,6.4,1.7,13.5,2.3,20.1c0.8,8.2,1.6,16.5,2.3,24.7c3,32.1,3.8,64.6,5.6,96.8c1.8,32.1,3.1,64.3,4.1,96.5c0.5,15.5,1.1,30.9,1.3,46.4c0.2,15.1,1.4,30.2,1.5,45.3c0,4.4,4.2,5.7,7.4,4.4c0,0,0.1,0,0.1,0.1c20,10.9,46.4,5.8,67.8,3.5c12.6-1.3,25-1.4,37.7-1.6c16.1-0.3,32.2-0.9,48.3-1.2c32.3-0.6,64.5,0.8,96.8,1.9c15.9,0.5,31.9,0.9,47.8,1c15.5,0,31,0.8,46.4-1.3c2.8-0.4,5.5-1,8.3-1.6c2.1-0.5,4.4-1.6,6.5-1.6C442.9,435.6,443.9,430,441.5,426.8z M429.4,426.3c-3.5,0.9-7.1,1.4-10.7,1.9c-7.9,1-15.9,1-23.9,1c-15.9,0-31.8-0.2-47.7-0.6c-32.3-0.8-64.6-2.5-96.9-2.6c-16,0-32,0.4-48.1,0.9c-14.5,0.4-29.1,0-43.6,0.9c-22.7,1.3-46.9,7.9-69.3,1.5c-2.2-0.6-4.2-1.6-6.1-2.7c-0.5-0.3-1-0.5-1.5-0.6c-0.2-12.8-1.1-25.5-1.4-38.3c-0.4-15.4-0.8-30.9-1.3-46.3c-1-31.5-2.2-63-4-94.4c-1.7-31.6-3.5-63.2-5.3-94.9c-0.9-15.3-2.9-30.7-4.3-46c-0.5-5.1-2.2-10-3.5-14.9c-0.9-3.4-2.2-8-0.9-11.5c63.4-9.1,127.7-11.7,191.7-9.3c32.1,1.2,64.2,2.9,96.2,0.6c13.3-0.9,26.2-4.3,39.5-5c11.9-0.6,22.5,3.1,29.2,13.4c5.6,8.6,7.1,19.6,8,29.5c1.1,12.6,1.1,25.6,1.3,38.2c0.4,30.6-1.4,61.2-2.4,91.7c-1,30.9-0.1,61.7,1.8,92.6c1.9,31.5,4.4,62.9,4.4,94.5C430.3,426.1,429.9,426.2,429.4,426.3z"></path><path fill="#010101" d="M363.2,213.3c-5-23.2-15.6-45.3-32.7-62c-17-16.6-40.4-25-63.7-27c-36.1-3.2-78.6,7.5-104.5,34.2c-25.7,26.4-31.4,67.5-25.6,102.5c3.2,46.1,45.7,78.5,86.9,90.8c19.5,5.8,41.2,6.7,61.4,4.7c19.4-2,39.2-7.7,54.9-19.6c16.5-12.5,24.9-30.8,26.8-51.1C369,261.5,368.3,237.1,363.2,213.3z M356.8,270.9c-0.4,10.8-1,22.2-4.9,32.4c-14.4,38.4-63.6,45.5-99.2,42.5c-45.5-3.8-100.8-34.4-104.9-84.7c0-0.3,0-0.6-0.1-0.9c0-0.3-0.1-0.6-0.1-0.9c-3.6-22.3-2.4-45.6,6-66.7c8.8-22,25.3-36.8,46.6-46.3c42.4-18.7,99.8-16.8,130.7,21.7c15.1,18.8,22,42.8,24.7,66.3C357,246.4,357.3,258.7,356.8,270.9z"></path><path fill="#010101" d="M207.9,183.4c-4.9,2.5-13.1,0.2-18.3,0.1c-3.5-0.1-5.1,2.6-4.9,5.3c-0.7,0.9-1.2,2.1-1.2,3.6c0,5.4,0.4,10.7,0.6,16.1c0.1,3.3,0.2,6.7,0.2,10.1c0,1.3,0,2.6-0.1,3.8c0-0.1-0.1,0.6-0.1,0.9c0.2-0.5,0.7-1.1,1.5-1.6c-0.6,0.5-1.1,1.2-1.5,2c-0.1,0.7-0.2,0.7-0.2,0.5c-1.1,2.9,0,6.6,3.9,7.3c1.8,0.3,3.1,0,4.1-0.6c0.8,2,2.6,3.7,5.3,3.7h10c3.1,0,5.1-3.1,5.1-5.9c-0.1-12.4-3.2-26.9,3.4-38.1C219.1,185.2,212.3,181.2,207.9,183.4z M201.3,223.5h-4.8c-0.5,0-0.9,0-1.3,0.1c0.3-3.2,0.1-6.6,0-8.8c-0.1-6.7-0.6-13.5-0.8-20.2c2.6,0.2,5.2,0.4,7.7,0.4C200,204.1,200.9,214.1,201.3,223.5z"></path><path fill="#010101" d="M184 224.1c.1-.2.1-.3.2-.5 0-.1 0-.1 0-.2 0 0 0-.1 0-.1C184.1 223.6 184.1 223.9 184 224.1zM305.2 224.2c-3.8-15.8 3.2-32.2-2-48-.8-2.5-3.2-3.7-5.6-3.7h-16c-4.3 0-5.7 4-4.5 7.2-2.8.2-5.6 2.2-5.5 5.7.1 14.4 2.9 28.6 3 43 0 4.7 5 5.9 8.2 4.1 1.3 1.1 3 1.6 5.1.7 4-1.6 8.4-.9 12.6-1.7C304.1 230.8 306.1 227.9 305.2 224.2zM293.8 203c-.5 6.1-.8 12.1-.1 18.1-2.8.2-5.6.4-8.3 1.2-.6-12.6-2.7-25.2-2.8-37.8 0-.4 0-.8-.1-1.1 0 0 0 0 0 0h11.3C295 189.9 294.3 196.6 293.8 203zM291.5 287.6c0-1.2-.3-2.2-.9-3-1-4.2-2.5-8.2-3.4-12.4-.6-2.5-3.4-3.7-5.6-3.7-23.3.2-46.2 8.8-69.5 6.1-2.3-.3-4.1.7-5.2 2.2-2.4.6-4.4 2.5-4.3 5.6.2 6.5 2.7 13 2.1 19.5-.3 2.8 1.2 6 4.3 6.4 12.7 1.7 25.5-.6 38.1-2.7 13.2-2.2 26.7-3.7 39.8-6.5 3-.6 4-2.9 3.6-5.2.6-.9 1-2 1-3.4V287.6zM247.7 294.5c-10.5 1.8-21.5 4.1-32.3 3.5-.3-4.1-1.1-8.1-1.6-12.3 21.6 1.5 42.5-5.1 64-6.1 1 3.2 2 6.4 2.5 9.8C269.6 291.5 258.5 292.7 247.7 294.5z"></path></svg>