<svg xmlns="http://www.w3.org/2000/svg"  viewBox="0 0 48 48" width="48px" height="48px"><path fill="#d6e5e5" d="M30.679,7.865c-4.13-0.496-8.727-0.134-12.866,0.286C15.567,8.378,12.221,9.019,8.5,11.5 c-6,4-5.48,7.059-5.833,8.922c-0.494,2.604,0.46,6.831,1.436,9.293c0.622,1.569,1.54,3.261,3.16,3.704 c0.46,0.126,1.034,0.202,1.214,0.647c0.146,0.36-0.065,0.758-0.284,1.079c-1.394,2.042-3.24,3.698-5.549,4.56 c4.22,1.412,9.321,0.884,12.48-2.264c1.624,0.634,7.459,1.469,9.866,1.692c1.925,0.178,3.863,0.319,5.789,0.156 c2.606-0.22,5.151-0.998,7.505-2.143c2.127-1.035,4.163-2.424,5.453-4.415c1.393-2.149,1.793-4.808,1.76-7.373 c-0.032-2.565,0.102-5.198-0.576-7.672C43.5,12.5,41.36,11.43,39.5,10.5C37.5,9.5,33.161,8.163,30.679,7.865z"/><path d="M7.197,40.958c-1.547,0-3.144-0.255-4.711-0.778c-0.201-0.067-0.338-0.254-0.342-0.466s0.127-0.403,0.325-0.478 c2.07-0.774,3.857-2.246,5.311-4.374c0.249-0.364,0.264-0.532,0.232-0.609c-0.059-0.145-0.382-0.226-0.668-0.297l-0.214-0.055 c-1.917-0.524-2.912-2.535-3.493-4.002c-1.074-2.713-1.952-6.989-1.462-9.57c0.046-0.243,0.076-0.507,0.108-0.791 c0.225-1.939,0.563-4.87,5.938-8.454c2.934-1.955,6.054-3.078,9.54-3.431c4.328-0.439,8.896-0.776,12.976-0.284l0,0 c2.446,0.293,6.813,1.598,8.985,2.684c1.871,0.935,4.199,2.099,5.681,7.501c0.58,2.118,0.584,4.342,0.587,6.491 c0.001,0.437,0.001,0.872,0.007,1.307c0.039,3.131-0.58,5.705-1.84,7.65c-1.175,1.813-3.024,3.314-5.654,4.593 c-2.546,1.239-5.13,1.977-7.682,2.192c-2.015,0.171-4.009,0.016-5.877-0.156c-2.078-0.193-7.622-0.951-9.695-1.617 C13.189,39.938,10.293,40.958,7.197,40.958z M4.099,39.598c4.058,0.948,8.139,0.015,10.674-2.512 c0.14-0.139,0.353-0.183,0.534-0.111c1.553,0.606,7.263,1.431,9.73,1.66c1.826,0.168,3.768,0.319,5.701,0.156 c2.428-0.206,4.894-0.911,7.328-2.095c2.462-1.197,4.18-2.583,5.252-4.238c1.151-1.776,1.717-4.164,1.68-7.095 c-0.006-0.438-0.006-0.877-0.007-1.316c-0.003-2.084-0.007-4.239-0.552-6.229c-1.363-4.971-3.382-5.98-5.163-6.87 c-2.054-1.027-6.342-2.308-8.657-2.586l0,0c-3.986-0.479-8.485-0.145-12.755,0.286c-3.32,0.337-6.293,1.405-9.087,3.269 c-4.99,3.327-5.284,5.876-5.499,7.736c-0.036,0.311-0.07,0.598-0.12,0.862c-0.455,2.397,0.387,6.435,1.409,9.016 c0.502,1.268,1.342,3,2.827,3.406l0.192,0.05c0.466,0.116,1.104,0.274,1.354,0.892c0.24,0.597-0.075,1.17-0.334,1.549 C7.338,37.283,5.826,38.682,4.099,39.598z"/><path d="M30.52,18.246c-0.314,0-0.632-0.004-0.954-0.013c-0.796-0.022-1.618-0.045-2.429-0.239 c-0.291-0.069-0.576-0.161-0.861-0.253c-0.4-0.129-0.779-0.25-1.164-0.304c-0.591-0.079-1.199-0.001-1.846,0.083 c-0.485,0.063-0.965,0.143-1.496,0.125c-0.801-0.005-1.568-0.176-2.311-0.342c-0.567-0.127-1.103-0.246-1.648-0.296 c-1.773-0.163-3.598,0.44-5.206,0.974c-0.263,0.089-0.545-0.056-0.632-0.317s0.056-0.545,0.317-0.632 c1.7-0.563,3.627-1.197,5.612-1.021c0.609,0.056,1.201,0.188,1.774,0.316c0.723,0.161,1.405,0.313,2.099,0.317 c0.443-0.021,0.889-0.056,1.361-0.117c0.683-0.089,1.389-0.18,2.11-0.081c0.473,0.065,0.911,0.206,1.335,0.343 c0.261,0.083,0.521,0.168,0.787,0.231c0.71,0.171,1.479,0.191,2.224,0.212c1.354,0.039,2.646-0.017,3.895-0.069 c1.266-0.054,2.573-0.108,3.964-0.07c0.276,0.008,0.494,0.237,0.486,0.514c-0.008,0.271-0.229,0.486-0.5,0.486 c-0.004,0-0.009,0-0.014,0c-1.351-0.037-2.644,0.018-3.895,0.069C32.557,18.204,31.559,18.246,30.52,18.246z"/><path d="M32.473,23.37c-1.346,0-2.686-0.051-4-0.101c-1.357-0.051-2.751-0.094-4.135-0.1c-1.354-0.015-2.696-0.121-4.011-0.241 c-2.639-0.244-5.133-0.474-7.517,0.251c-0.267,0.081-0.544-0.069-0.624-0.333c-0.08-0.265,0.069-0.544,0.333-0.624 c2.573-0.782,5.283-0.531,7.899-0.29c1.268,0.117,2.577,0.237,3.846,0.237c0.088-0.001,0.172,0,0.257,0 c1.331,0,2.682,0.051,3.989,0.101c2.287,0.086,4.65,0.176,6.95-0.008c0.272-0.01,0.517,0.183,0.538,0.458 c0.022,0.275-0.183,0.517-0.458,0.538C34.521,23.341,33.495,23.37,32.473,23.37z"/><path d="M24.537,28.065c-0.001,0-0.002,0-0.004,0l-11.767-0.081c-0.275-0.002-0.498-0.228-0.496-0.504 c0.002-0.274,0.226-0.496,0.5-0.496c0.001,0,0.002,0,0.004,0l11.767,0.081c0.275,0.002,0.498,0.228,0.496,0.504 C25.035,27.844,24.812,28.065,24.537,28.065z"/></svg>