<svg xmlns="http://www.w3.org/2000/svg" x="0px" y="0px"
width="48" height="48"
viewBox="0 0 48 48"
style=" fill:#000000;"><path fill="#38b47b" d="M11.125,22.25c1.156-2.696,1.533-4.908,3.167-7.375c2.189-3.305,4.183-3.693,7.235-6.324 s7.765-5.473,11.879-5.888c4.122-0.415,6.761-0.108,9.511,2.837c1.191,1.275,1.178,5.174,0.98,7.768 c-0.17,2.223-0.355,4.273-1.358,7.285c-1.361,4.085-3.013,5.4-6.6,8.049c-3.587,2.649-7.903,4.322-12.332,5.338 c-1.158,0.266-8.079,0.321-9.387,0.685c-6.19,1.72-6.996,6.573-8.694,11.876c-0.625,0.124-1.837-0.084-2.004-1.022 c0.738-4.64,3.102-8.455,5.323-11.635C11,30.756,9.52,25.993,11.125,22.25z"></path><path fill="#d4e2a9" d="M5.608,46.24c0,0-0.538,0.436-1.511,0.028s-0.453-1.495-0.399-1.743 c0.054-0.248,1.81-5.907,3.65-8.442s2.638-4.478,4.283-5.866s6.234-4.978,7.208-5.618c0.974-0.64,4.099-3.244,4.099-3.244 l-2.75,3.125c0,0-4.021,4.221-4.905,5.24c0,0-3.358,3.773-4.847,6.036C8.947,38.018,7.34,40.187,5.608,46.24z"></path><path fill="#010101" d="M43.282,5.159c-2.865-3.069-5.703-3.419-9.927-2.993C29.023,2.603,24.236,5.555,21.2,8.172 c-1.056,0.91-1.966,1.535-2.846,2.14c-1.614,1.109-3.008,2.067-4.479,4.287c-1.108,1.673-1.65,3.217-2.225,4.853 c-0.293,0.832-0.595,1.692-0.985,2.602c-0.77,1.797-0.861,3.778-0.949,5.695c-0.101,2.188-0.195,4.253-1.282,5.81 C6.064,36.95,3.77,40.733,3.026,45.401c-0.009,0.055-0.008,0.111,0.002,0.166C3.105,46,3.348,46.366,3.728,46.626 c0.428,0.292,0.967,0.408,1.431,0.408c0.167,0,0.325-0.015,0.464-0.043c0.179-0.035,0.323-0.165,0.379-0.338 c0.181-0.566,0.353-1.127,0.521-1.68c0.684-2.241,1.322-4.328,2.436-6.042c0.044-0.037,0.086-0.078,0.12-0.137 c0.046-0.081,0.099-0.159,0.145-0.24c1.115-1.553,2.677-2.766,5.13-3.448c0.657-0.183,3.163-0.295,5.178-0.385 c1.939-0.088,3.615-0.163,4.188-0.294c4.979-1.143,9.191-2.968,12.517-5.423c3.692-2.728,5.384-4.109,6.778-8.294 c0.983-2.949,1.193-4.93,1.383-7.404C44.578,10.905,44.678,6.654,43.282,5.159z M5.565,44.682 c-0.136,0.445-0.273,0.897-0.417,1.353C4.86,46.031,4.521,45.956,4.291,45.8c-0.135-0.092-0.221-0.203-0.262-0.337 c0.728-4.425,2.939-8.062,5.225-11.333c0.006-0.009,0.011-0.019,0.017-0.029c0.001-0.002,0.003-0.003,0.004-0.005 c2.087-3.819,5.961-6.107,9.361-8.744c-0.084,0.087-0.17,0.173-0.254,0.26c-3.632,3.779-7.337,7.821-9.989,12.381 C7.029,39.911,6.305,42.258,5.565,44.682z M43.397,13.23c-0.153,2.018-0.313,4.104-1.334,7.164 c-1.301,3.905-2.816,5.142-6.423,7.806c-3.215,2.374-7.302,4.141-12.146,5.253c-0.484,0.111-2.276,0.191-4.009,0.27 c-2.8,0.125-4.688,0.223-5.4,0.421c-1.05,0.292-1.949,0.676-2.733,1.131c2.117-2.943,4.597-5.665,7.08-8.265 c0.036,0.008,0.068,0.022,0.11,0.021c5.085-0.041,10.151,0.09,14.999-1.674c0.6-0.218,0.341-1.185-0.266-0.964 c-4.498,1.637-9.187,1.608-13.899,1.634c2.418-2.503,4.943-4.943,7.614-7.2c3.732,1.3,8.049,3.059,11.855,0.944 c0.563-0.313,0.059-1.177-0.505-0.864c-3.334,1.853-7.149,0.366-10.462-0.823c1.716-1.405,3.492-2.732,5.344-3.941 c0.004-0.002,0.005-0.006,0.008-0.008c0.027-0.009,0.054-0.009,0.081-0.023c1.33-0.679,2.774-1.092,4.23-1.403 c1.04-0.222,2.186-0.239,3.147-0.714c0.577-0.285,0.071-1.148-0.505-0.864c-1.1,0.544-2.626,0.525-3.82,0.825 c-0.269,0.068-0.535,0.142-0.801,0.22c0.083-0.117,0.173-0.226,0.25-0.348c0.471-0.754,0.79-1.611,1.366-2.296 c0.487-0.579,1.098-1.062,1.642-1.583c0.466-0.446-0.242-1.152-0.707-0.707c-0.863,0.827-1.753,1.564-2.354,2.614 c-0.757,1.323-1.397,2.776-2.924,3.375c-0.019,0.007-0.03,0.021-0.047,0.03c-0.024,0.008-0.047,0.008-0.072,0.02 c-0.576,0.28-1.134,0.584-1.683,0.9c0.346-3.163,1.484-5.936,3.756-8.263c0.45-0.461-0.257-1.168-0.707-0.707 c-2.605,2.668-3.837,5.893-4.116,9.583c-0.001,0.015,0.005,0.025,0.005,0.039c-2.463,1.551-4.7,3.407-6.885,5.339 c0.058-3.647,1.309-7.083,2.844-10.375c0.27-0.58-0.591-1.088-0.864-0.505c-1.732,3.716-3.149,7.617-2.985,11.771 c-0.844,0.755-1.685,1.512-2.536,2.261c-1.402,1.234-2.955,2.34-4.481,3.476c0.397-3.394,1.817-6.253,3.907-9.004 c0.389-0.512-0.479-1.011-0.863-0.505c-2.381,3.133-3.872,6.382-4.128,10.336c-1.257,0.97-2.459,1.992-3.514,3.149 c0.149-0.974,0.201-1.983,0.247-2.98c0.084-1.828,0.171-3.718,0.87-5.347c0.403-0.94,0.711-1.817,1.009-2.665 c0.553-1.575,1.075-3.063,2.115-4.631c1.363-2.059,2.62-2.922,4.212-4.016c0.86-0.591,1.835-1.261,2.932-2.206 c2.787-2.402,7.498-5.354,11.603-5.77c4.004-0.397,6.504-0.097,9.097,2.681C43.356,6.703,43.681,9.534,43.397,13.23z"></path></svg>