<svg xmlns="http://www.w3.org/2000/svg" x="0px" y="0px"
width="48" height="48"
viewBox="0 0 48 48"
style=" fill:#000000;"><path fill="#f58420" d="M22.249,16.826c1.909-0.843,4.04-1,6.122-1.145c0.735-0.051,1.474-0.102,2.206-0.02 c0.804,0.09,1.58,0.339,2.345,0.602c3.308,1.135,6.615,2.607,9.034,5.133c3.155,3.295,4.421,8.042,4.396,12.604 c0,0-0.476,4.083-7.059,3.5S22.249,16.826,22.249,16.826z"></path><path fill="#38b47b" d="M4.226,31.791c-0.903-0.463-1.785-1.046-2.332-1.9c-0.548-0.854-0.688-2.032-0.116-2.871 c0.572-0.838,1.946-1.08,2.624-0.325c-0.297-0.642-0.594-1.284-0.891-1.926c-0.442-0.955-0.894-1.97-0.776-3.015 s1.049-2.074,2.084-1.889c0.398,0.071,0.819,0.305,1.179,0.119c-0.196-0.89-0.158-1.832-0.355-2.722 c-0.182-0.826-0.283-1.871,0.419-2.341c0.276-0.185,0.623-0.23,0.955-0.241c1.371-0.045,2.518,0.467,3.588,1.326 c0.188-1.486-0.075-3.023,0.296-4.475s1.754-2.849,3.199-2.452c0.781,0.214,1.359,0.909,1.642,1.668s0.317,1.585,0.34,2.395 c-0.115-2.087,1.521-4.127,3.584-4.468c0.589-0.097,1.268-0.039,1.669,0.403c0.269,0.297,0.362,0.711,0.419,1.108 c0.185,1.284,0.103,2.605-0.24,3.856c0.723-1.601,1.918-2.984,3.398-3.931c0.447-0.286,0.942-0.539,1.473-0.542 c1.285-0.006,2.09,1.371,2.497,2.591c0.373,1.118,0.561,2.553-0.356,3.292c0.697-1.271,1.404-2.557,2.396-3.615 c0.992-1.057,2.315-1.878,3.762-1.967c0.201-0.012,0.414-0.008,0.588,0.093c0.206,0.119,0.319,0.347,0.406,0.569 c0.753,1.91,0.298,4.239-1.118,5.725c1.413-0.3,2.541-1.496,3.976-1.658c1.535-0.174,3.058,1.048,3.337,2.568 s-0.622,3.14-2.009,3.82c1.427-0.968,2.516-1.901,3.988-2.8c0.245-0.15,0.512-0.304,0.799-0.283 c0.248,0.018,0.468,0.167,0.652,0.334c1.134,1.027,1.296,2.74,1.196,4.266c-0.066,1.018-0.223,2.057-0.722,2.946 c-0.498,0.89-1.036,1.61-2.055,1.656c1.024-0.469,1.836-0.853,2.511,0.048c0.388,0.518,0.31,1.275-0.027,1.827 s-0.6,2.168-1.145,2.516c-2.266,1.448-3.344,3.732-5.977,4.281L4.226,31.791z"></path><path fill="#ef4823" d="M37.021,28.583c0.115-0.029,0.692-0.492,0.759-0.591c0.647-0.951,1.315-1.983,1.305-3.133 c-0.005-0.577-0.183-1.136-0.359-1.685c-0.098-0.305-0.201-0.627-0.438-0.841c-0.939-0.85-2.577-1.399-3.141-1.632 c0,0-1.063-0.756-3.938,0.605L37.021,28.583z"></path><path fill="#a37b57" d="M17.792,14.25c0,0,4.208-3.042,8.375,0.458l-1.417,3.667l-5.958-0.449L17.792,14.25z"></path><path fill="#ef4823" d="M24.364,17.265c-0.155,0.076-0.277-0.152-0.292-0.324c-0.134-1.481,0.534-3.036,1.766-3.869 c0.577-0.39,1.268-0.621,1.965-0.618c0.999,0.004,1.971,0.498,2.62,1.258s1.013,2.543,1.085,2.462c0,0,1.117,3.938-0.674,5.132 C29.042,22.5,24.364,17.265,24.364,17.265z"></path><path fill="#ef4823" d="M12.646,17.876c-0.21-0.44-0.173-0.959-0.051-1.43s0.325-0.92,0.44-1.393 c0.102-0.42,0.137-0.864,0.33-1.25c0.277-0.554,0.849-0.913,1.447-1.077c0.597-0.163,1.226-0.157,1.846-0.148 c0.458,0.006,0.946,0.021,1.324,0.28c0.508,0.349,1.007,1.285,1.116,1.892c0.087,0.489-0.06,2.181,0,2.218L12.646,17.876z"></path><path fill="#a37b57" d="M38.498,33.383c0.986-0.089,1.909-0.702,2.374-1.576c0.206-0.386,0.324-0.812,0.439-1.235 c0.156-0.576,0.31-1.165,0.282-1.761c-0.035-0.762-0.381-1.505-0.941-2.023c-0.56-0.518-2.06-1.157-2.818-1.241 c-1.444-0.16-2.958-0.491-5.083,0.46L38.498,33.383z"></path><path fill="#ef4823" d="M10.25,17.992c0,0-4.875-0.909-5.125,2.841s4.292,4.527,4.292,4.527L10.25,17.992z"></path><path fill="#a37b57" d="M15.021,17.375c-0.559-0.888-1.809-2.336-2.853-2.43s-2.09,0.169-3.076,0.526 c-0.261,0.095-0.528,0.202-0.719,0.404c-0.176,0.187-0.267,0.435-0.355,0.676c-0.23,0.636-0.464,1.315-0.321,1.977 c0.098,0.455,0.366,0.853,0.628,1.238c0.285,0.419,0.557,0.846,0.854,1.256c0.301,0.415,1.143,0.859,1.301,0.915L15.021,17.375z"></path><path fill="#a37b57" d="M29.6,19.776c-0.293-0.263-0.156-0.742,0.017-1.095c0.492-1.007,1.113-1.972,1.971-2.692 c0.858-0.721,1.977-1.179,3.092-1.076s2.195,0.837,2.541,1.902c0.39,1.2-0.173,2.496-0.861,3.554 c-0.202,0.311-0.417,0.615-0.678,0.878c-0.912,0.92-2.275,1.233-3.569,1.288c0.089-0.014,0.178-0.028,0.267-0.042L29.6,19.776z"></path><path fill="#febf10" d="M46.333,32.936c-0.095,1.45-0.05,3.669-1.121,4.65c-1.028,0.942-2.523,1.12-3.913,1.238 c-11.066,0.939-22.212,0.927-33.276-0.035c-1.23-0.107-2.499-0.237-3.582-0.831c-0.88-0.482-1.971-1.242-1.925-2.244 c0.115-2.509,1.249-4.918,1.956-7.328c0.951-3.243,3.218-5.947,5.748-8.188c0.988-0.875,2.033-1.702,3.205-2.31 c2.273-1.179,4.926-1.479,7.474-1.226s5.013,1.033,7.416,1.916c0.979,0.36,1.967,0.747,2.787,1.39 c0.783,0.613,1.376,1.431,1.958,2.237c0.727,1.007,1.454,2.013,2.182,3.02c0.583,0.807,1.168,1.618,1.632,2.499 c0.439,0.834,0.763,1.722,1.111,2.599c0.553,1.396,1.034,2.332,1.704,3.676c0.513,1.029,1.155,2.126,2.242,2.5 c0.989,0.341,2.132-0.046,2.873-0.785s1.332-2.525,1.487-3.56L46.333,32.936z"></path><path d="M47,22.54c0.14-2.19-0.3-3.71-1.36-4.67c-0.32-0.29-0.63-0.44-0.95-0.46c-0.47-0.04-0.85,0.2-1.1,0.35 c-0.45,0.28-0.87,0.56-1.27,0.84c0.12-0.5,0.14-1.02,0.05-1.52c-0.34-1.82-2.12-3.17-3.89-2.98 c-0.819,0.094-1.513,0.464-2.185,0.841c-0.073-0.045-0.146-0.087-0.223-0.127c0.581-1.408,0.632-3.029,0.067-4.464 c-0.11-0.28-0.28-0.62-0.62-0.82c-0.29-0.17-0.62-0.17-0.87-0.16c-1.44,0.09-2.89,0.84-4.09,2.13 c-0.305,0.321-0.577,0.665-0.833,1.016c-0.092-0.054-0.178-0.122-0.274-0.169c-0.032-0.115-0.056-0.225-0.094-0.347 c-0.63-1.86-1.71-2.93-2.97-2.93c0,0,0,0-0.01,0c-0.68,0-1.29,0.33-1.74,0.62c-0.86,0.56-1.64,1.26-2.29,2.06 c0.01-0.55-0.02-1.1-0.1-1.64c-0.07-0.45-0.18-0.97-0.54-1.37c-0.47-0.51-1.22-0.71-2.13-0.56c-1.41,0.24-2.64,1.19-3.36,2.43 c0-0.01-0.01-0.03-0.01-0.04c-0.37-1-1.11-1.74-1.98-1.97c-0.65-0.18-1.33-0.08-1.97,0.29c-0.87,0.5-1.58,1.47-1.84,2.52 c-0.24,0.91-0.24,1.83-0.24,2.72c0,0.173-0.004,0.333-0.005,0.498c-0.197,0.046-0.395,0.093-0.573,0.146 C8.76,14.357,7.897,14.156,7,14.18c-0.36,0.01-0.82,0.06-1.22,0.33c-1.09,0.73-0.74,2.33-0.63,2.86c0.1,0.41,0.13,0.84,0.17,1.3 c0.006,0.052,0.012,0.108,0.017,0.161c-0.136,0.172-0.256,0.357-0.353,0.558c-0.024-0.006-0.051-0.014-0.074-0.02 c-0.54-0.09-1.1,0.05-1.58,0.41c-0.59,0.44-1.01,1.18-1.09,1.92c-0.14,1.21,0.39,2.36,0.82,3.28l0.35,0.76 c-0.08,0-0.17,0-0.25,0.01c-0.72,0.04-1.41,0.42-1.8,0.99c-0.64,0.94-0.59,2.32,0.11,3.42c0.383,0.591,0.904,1.051,1.419,1.41 c-0.437,1.338-0.809,2.71-0.874,4.122c-0.067,1.47,1.627,2.399,2.184,2.705c1.217,0.667,2.638,0.791,3.779,0.891 c5.602,0.487,11.242,0.73,16.883,0.73c5.506,0,11.012-0.232,16.479-0.696c1.513-0.128,3.085-0.338,4.208-1.366 c0.919-0.842,1.123-2.326,1.21-3.681c0.053-0.079,0.091-0.17,0.091-0.274c0.002-0.329-0.01-0.654-0.021-0.978l0.003-0.053 c0.001-0.013-0.005-0.025-0.005-0.037c-0.011-0.302-0.031-0.601-0.053-0.898c0-0.001,0-0.002,0-0.003 c-0.061-0.816-0.162-1.614-0.306-2.386c0.058-0.169,0.114-0.316,0.163-0.404c0.4-0.65,0.56-1.64,0-2.38 c-0.23-0.32-0.48-0.51-0.74-0.63c0.11-0.17,0.22-0.35,0.32-0.53C46.79,24.66,46.94,23.46,47,22.54z M39.516,32.531 c-0.379-0.772-0.705-1.477-1.067-2.392l-0.172-0.438c-0.287-0.731-0.583-1.489-0.961-2.209c-0.294-0.56-0.639-1.086-0.994-1.601 c0.333,0.026,0.662,0.061,0.989,0.098l0.47,0.06c0.68,0.07,2.07,0.68,2.53,1.11c0.46,0.42,0.75,1.05,0.78,1.67 c0.03,0.54-0.13,1.11-0.26,1.61c-0.1,0.37-0.21,0.78-0.4,1.13C40.224,31.966,39.901,32.297,39.516,32.531z M38.558,25.198 c-0.25-0.073-0.482-0.127-0.668-0.148L37.43,25c-0.568-0.07-1.174-0.143-1.833-0.136l-1.549-2.144 c0.809-0.234,1.482-0.602,1.992-1.12c0.001-0.001,0.003-0.003,0.004-0.005c0.643,0.275,1.398,0.645,1.906,1.105 c0.14,0.13,0.22,0.37,0.3,0.63c0.16,0.5,0.33,1.03,0.33,1.53C38.58,24.974,38.571,25.086,38.558,25.198z M35.94,20.1 c-0.17,0.25-0.37,0.55-0.61,0.8c-0.453,0.453-1.096,0.773-1.904,0.958c-0.583-0.807-1.189-1.635-2.015-2.283 c-0.4-0.314-0.833-0.564-1.283-0.784c0.525-1.062,1.106-1.861,1.782-2.421c0.83-0.69,1.82-1.05,2.72-0.96 c0.98,0.09,1.85,0.73,2.12,1.56C37.02,17.8,36.75,18.86,35.94,20.1z M6.539,23.385c-0.58-0.594-0.99-1.405-0.919-2.515 c0.06-0.8,0.34-1.38,0.87-1.79c0.222-0.172,0.474-0.296,0.737-0.395c0.128,0.534,0.422,0.969,0.683,1.365l0.28,0.42 c0.13,0.192,0.264,0.388,0.398,0.583C7.812,21.827,7.133,22.604,6.539,23.385z M9.322,20.35c-0.097-0.143-0.196-0.287-0.292-0.43 l-0.29-0.43c-0.24-0.35-0.48-0.7-0.55-1.07c-0.11-0.5,0.06-1.04,0.3-1.7c0.07-0.19,0.14-0.39,0.25-0.5 c0.11-0.12,0.31-0.2,0.52-0.28c1.14-0.41,2.05-0.57,2.86-0.5c0.57,0.058,1.391,0.773,2.026,1.573 c-0.326,0.132-0.646,0.274-0.952,0.433c-1.326,0.688-2.463,1.633-3.307,2.379C9.689,19.999,9.51,20.175,9.322,20.35z M15.135,16.667c-0.331-0.451-0.908-1.141-1.584-1.635c0.02-0.088,0.039-0.177,0.059-0.262c0.05-0.28,0.1-0.53,0.2-0.74 c0.19-0.38,0.6-0.68,1.13-0.82c0.54-0.15,1.14-0.14,1.71-0.13c0.44,0,0.8,0.02,1.05,0.19c0.35,0.24,0.81,1.03,0.91,1.57 c0.037,0.204,0.014,0.804-0.005,1.258C17.379,16.147,16.215,16.338,15.135,16.667z M19.59,14.66 c-0.036-0.199-0.107-0.425-0.202-0.656c1.145-0.443,2.931-0.778,4.844,0.092c-0.441,0.747-0.678,1.621-0.67,2.517 c-0.856-0.193-1.725-0.359-2.614-0.447c-0.454-0.045-0.9-0.066-1.342-0.076C19.63,15.457,19.636,14.945,19.59,14.66z M24.656,16.874c-0.032-0.023-0.059-0.054-0.096-0.064c-0.08-1.31,0.54-2.63,1.56-3.32c0.51-0.35,1.1-0.54,1.67-0.54h0.01 c0.83,0.01,1.67,0.41,2.24,1.09c0.37,0.43,0.67,1.36,0.83,1.87c0.007,0.022,0.013,0.038,0.02,0.059 c-0.628,0.617-1.179,1.407-1.68,2.415c-0.238-0.095-0.48-0.186-0.723-0.275C27.314,17.678,26.018,17.238,24.656,16.874z M31.29,12.18c1.02-1.09,2.24-1.74,3.43-1.81c0.15-0.01,0.25,0,0.3,0.03c0.06,0.03,0.12,0.14,0.19,0.32 c0.469,1.189,0.406,2.573-0.095,3.761c-0.127-0.025-0.254-0.05-0.385-0.061c-1.016-0.095-2.076,0.232-3.01,0.874 c-0.195-0.6-0.487-1.402-0.92-1.904c-0.083-0.098-0.185-0.174-0.276-0.263C30.765,12.797,31.017,12.474,31.29,12.18z M25.18,10.53 c0.34-0.21,0.78-0.46,1.21-0.46c0.99,0,1.61,1.183,1.906,1.94c-0.162-0.023-0.324-0.059-0.486-0.06c-0.78,0-1.58,0.25-2.25,0.71 c-0.256,0.173-0.483,0.381-0.695,0.604c-0.659-0.327-1.307-0.525-1.929-0.629C23.558,11.805,24.319,11.082,25.18,10.53z M19.75,9.17c0.26-0.04,0.9-0.11,1.21,0.25c0.19,0.19,0.25,0.52,0.3,0.84c0.105,0.759,0.113,1.531,0.025,2.295 c-0.93,0.067-1.747,0.305-2.381,0.56c-0.192-0.272-0.408-0.51-0.634-0.664c-0.51-0.353-1.124-0.369-1.572-0.37 C17.058,10.647,18.288,9.409,19.75,9.17z M11.18,14.14c0-0.88,0-1.7,0.21-2.48c0.2-0.79,0.74-1.54,1.37-1.9 c0.41-0.24,0.81-0.31,1.21-0.2c0.55,0.15,1.04,0.66,1.3,1.36c0.139,0.364,0.202,0.766,0.244,1.186 c-0.278,0.023-0.559,0.06-0.834,0.134c-0.8,0.22-1.45,0.71-1.76,1.34c-0.166,0.321-0.226,0.652-0.294,0.974 c-0.138-0.043-0.276-0.091-0.416-0.104c-0.351-0.033-0.696-0.022-1.033,0.009C11.177,14.353,11.18,14.246,11.18,14.14z M6.34,15.34 c0.19-0.13,0.47-0.15,0.69-0.16c0.431-0.019,0.846,0.033,1.256,0.144c-0.095,0.064-0.194,0.118-0.276,0.206 c-0.25,0.27-0.37,0.59-0.46,0.85c-0.131,0.356-0.278,0.797-0.348,1.265c-0.321,0.094-0.636,0.22-0.933,0.391 c-0.031-0.292-0.07-0.584-0.14-0.876C5.92,16.19,5.99,15.57,6.34,15.34z M3.23,21.81c0.05-0.47,0.33-0.95,0.7-1.23 c0.174-0.135,0.443-0.276,0.768-0.222C4.673,20.504,4.64,20.644,4.63,20.8c-0.103,1.486,0.49,2.594,1.324,3.391 c-0.466,0.687-0.866,1.378-1.198,2.077L3.96,24.56C3.57,23.71,3.13,22.75,3.23,21.81z M2.31,29.62c-0.48-0.76-0.53-1.71-0.12-2.32 c0.21-0.31,0.62-0.53,1.03-0.55c0.2-0.02,0.56,0,0.81,0.28c0.088,0.093,0.203,0.147,0.322,0.159 c-0.136,0.35-0.257,0.702-0.361,1.056c-0.202,0.688-0.439,1.376-0.677,2.066c-0.029,0.084-0.057,0.169-0.086,0.253 C2.883,30.298,2.55,29.996,2.31,29.62z M44.874,37.217c-0.892,0.817-2.22,0.99-3.618,1.108c-11.01,0.936-22.177,0.924-33.19-0.034 c-1.048-0.092-2.353-0.205-3.385-0.771c-1.131-0.62-1.692-1.221-1.666-1.783c0.078-1.713,0.671-3.435,1.245-5.099 c0.243-0.705,0.485-1.408,0.691-2.111c0.798-2.721,2.629-5.322,5.599-7.954c0.8-0.707,1.875-1.602,3.104-2.24 c1.595-0.827,3.503-1.253,5.587-1.253c0.525,0,1.062,0.027,1.607,0.081c2.607,0.26,5.15,1.1,7.293,1.889 c0.967,0.354,1.897,0.723,2.651,1.313c0.733,0.574,1.307,1.368,1.861,2.136l2.185,3.024c0.563,0.78,1.146,1.587,1.592,2.435 c0.353,0.671,0.638,1.402,0.915,2.108l0.173,0.441c0.514,1.3,0.975,2.222,1.557,3.388l0.165,0.328c0.587,1.18,1.3,2.328,2.526,2.75 c1.106,0.38,2.466,0.018,3.39-0.902c0.166-0.166,0.322-0.371,0.468-0.602C45.5,36.188,45.283,36.843,44.874,37.217z M45.715,31.507 c0.022,0.204,0.058,0.401,0.073,0.607c-0.167,1.077-0.752,2.662-1.339,3.247c-0.66,0.657-1.606,0.923-2.358,0.666 c-0.342-0.118-0.638-0.334-0.901-0.611c0.746-0.481,1.379-1.084,1.999-1.687c0.65-0.63,1.32-1.29,2.14-1.81 C45.48,31.825,45.603,31.676,45.715,31.507z M46,22.47c-0.05,0.82-0.18,1.88-0.66,2.74c-0.24,0.42-0.46,0.76-0.72,1 c-0.37,0.11-0.74,0.28-1.1,0.44c-0.22,0.1-0.34,0.34-0.28,0.57c0.05,0.24,0.26,0.42,0.51,0.39c0.54-0.03,0.98-0.21,1.34-0.49 c0.33-0.05,0.53,0.05,0.74,0.34c0.28,0.36,0.17,0.91-0.05,1.26c-0.16,0.26-0.28,0.63-0.42,1.06c-0.13,0.41-0.38,1.18-0.57,1.3 c-0.9,0.58-1.61,1.27-2.3,1.93c-0.629,0.621-1.218,1.187-1.892,1.612c-0.165-0.269-0.319-0.554-0.464-0.844l-0.164-0.33 c-0.005-0.011-0.01-0.02-0.015-0.031C40.518,33.091,41,32.62,41.31,32.04c0.24-0.45,0.38-0.94,0.48-1.34 c0.15-0.54,0.33-1.22,0.3-1.91c-0.04-0.9-0.44-1.76-1.1-2.37c-0.331-0.306-0.893-0.621-1.475-0.873 c0.043-0.225,0.07-0.453,0.065-0.687c0-0.66-0.2-1.29-0.38-1.85c-0.11-0.33-0.24-0.74-0.58-1.05 c-0.543-0.495-1.279-0.879-1.94-1.174c0.031-0.048,0.07-0.1,0.1-0.146c0.98-1.5,1.29-2.84,0.92-3.98 c-0.124-0.378-0.331-0.72-0.588-1.023c0.492-0.263,0.972-0.488,1.478-0.537c1.25-0.15,2.55,0.86,2.79,2.16 c0.18,0.95-0.2,1.99-0.92,2.7c-0.28,0.2-0.57,0.41-0.88,0.61c-0.21,0.15-0.28,0.44-0.15,0.67c0.13,0.22,0.42,0.31,0.65,0.2 c0.37-0.18,0.7-0.42,1-0.7c0.24-0.17,0.47-0.34,0.7-0.51c0.76-0.56,1.48-1.09,2.33-1.62c0.15-0.08,0.36-0.24,0.5-0.21 c0.07,0.01,0.18,0.05,0.36,0.21C45.78,19.35,46.12,20.61,46,22.47z"></path></svg>