<svg xmlns="http://www.w3.org/2000/svg" x="0px" y="0px"
width="48" height="48"
viewBox="0 0 512 512"
style=" fill:#000000;"><path fill="#D6E5E5" d="M366.7,198.6c-4.6,5.2-8.7,10.8-11.8,17.1c-1.1,2.2-3.6,3-5.8,2.5c-2.6,1.4-5.5,2.2-8.4,2.7c3.9,22.3,0,45.4-12.6,64.5c-12,18.2-31.7,32.5-52.8,38.2c-38,10.2-79.4-6.2-100.7-39.2c-23.1-35.9-18.4-83.9,12.6-113.8c14.4-13.9,32.9-23.8,53-26.2c20.1-2.4,39.6,3.1,55.8,15c1.8-4.3,4.4-8.3,8.1-12.2c5.7-6,11.8-11.6,18-17c0,0,0,0,0,0c-29.1-25.3-74.3-30.2-109-13.9c-22.2,10.4-39.7,29.3-52.4,49.9c-13,21-23.3,44-26.2,68.7c-2.8,23.4,0.6,48.1,11.9,69c11.8,22,30.5,39.6,52.9,50.6c44.6,21.8,99.4,16.1,135.5-19.3C370.7,299.8,385.9,246.1,366.7,198.6z"></path><path fill="#3AB37C" d="M362.4,124.1c0-6-0.1-11.9-0.3-17.8c-7.4,6.5-14.1,13.9-21.1,20.7c-9.5,9.2-20.4,17.1-29.3,26.9c-4,4.4-7.2,8.6-8.4,14.5c-1,5-1.2,10.1-1.2,15.2c0,6.8,0.1,13.7-1.1,20.3c9.3-10,18.9-19.7,28.1-29.9c7.4-8.2,14.9-16.3,22.5-24.3c2.7-2.8,6.8-8.5,11.3-11C363.7,134.3,362.4,128.2,362.4,124.1z"></path><path fill="#EF4823" d="M331.2,225c-1.3-0.7-2.3-2.1-2.6-3.6c-1.2,0-2.3-0.1-3.5-0.2c-8.4-0.4-16.8-1.7-25.1-1.8c-3.9,4-8,7.7-12.2,11.4c10.5,13.3-1.9,36-13.9,44.4c-13.4,9.3-33.5,11.1-46.1-0.6c-14.5-13.4-12.3-36.7-2.4-52.3c11.4-17.8,40.8-21.1,56.3-6.6c4.7,4.4-1.9,11.9-6.6,7.5c-11.9-11.1-35.4-8-42.7,6.9c-5.6,11.4-8.7,28.6,2.7,37.6c9.2,7.3,22.9,6.4,32.3-0.1c5.5-3.9,9.6-9,12.1-15.3c1.8-4.6,3.4-10.5,0.7-14.8c-6.1,5.3-12.2,10.5-18,16.2c-4.6,4.5-12.1-2.1-7.5-6.6c7.1-7,14.9-13.3,22.6-19.8c4.6-3.9,8.9-8,13-12.2c-1.6-1.3-2.5-3.5-1.4-5.9c4.6-9.8,2.7-21.4,3.3-31.9c0.2-2.8,0.5-5.5,0.9-8.1c-0.7-0.2-1.4-0.5-2-1c-25.2-19.7-59.5-18.1-85.2-0.2c-26.4,18.4-41,49.9-34.8,81.9c7.6,39.1,45.2,69.4,85.2,66.7c22.3-1.5,44.1-12.7,58.3-30C329.2,269,334.2,247.1,331.2,225z"></path><path fill="#EF4823" d="M432.5,159.3c-5-10.9-11.7-20.8-19.5-29.8c-2.1,15.2-12.5,29.4-21.7,40.9c-5.6,7-11.5,13.8-17.6,20.4c0.6,0.5,1.1,1.1,1.4,1.9c24.1,55.9,2.7,123.6-45.3,159.7c-39.2,29.4-92.9,32.5-136.3,10.2c-43.8-22.6-72-67.2-69.9-116.9c1.1-24.8,8.5-48.1,20-69.9c11.3-21.4,25.9-41.9,45.4-56.5c40.3-30.3,101.2-30,139.7,3.4c0.4,0.3,0.6,0.6,0.9,1c1.7-1.5,3.4-3,5.1-4.5c9.6-8.7,18-18.8,28.5-26.5c-1.4-0.7-2.8-1.3-4.2-2c-5.6-2.5-11.3-4.8-17.1-6.8c-6.2-2.1-12.6-3.6-18.7-5.9c-1.2-0.5-2-1.2-2.5-2.1c-38.5-11.4-79.7-9.2-116.8,6.2c-35.1,14.6-67.4,39.6-87.1,72.4C93,194.2,86.1,243,98.2,287.7c12.3,45.6,42.1,86.7,84.3,108.9c41,21.6,90,24.5,132.8,6.1c45.5-19.5,83-57.5,105.6-101.3C442.8,258.8,453.3,204.6,432.5,159.3z"></path><path fill="#D6E5E5" d="M475.3,154.4c-21.3-43.4-61.6-77.5-104.2-99c-42.8-21.7-92.3-33.1-140.1-25.5C139.6,44.3,51.6,119.5,46.6,215.7c-0.1,2.2-1.4,3.7-2.9,4.5c-1.3,8.6-2.1,17.2-2.9,25.8c-0.8,9.2-1.2,18.4-1.1,27.6c0.3,18.1,2.4,36.2,6.9,53.7c8.7,33.3,25.5,64.8,52,87.3c18.2,15.5,39.5,25.7,62.4,32.3c25,7.3,51,11.4,77.1,11.5c51.5,0.1,103.2-13.9,145.6-43.7C462.1,359.5,521.2,247.9,475.3,154.4z M439.7,283.9c-34.5,87.9-128.5,162.5-226.4,135.6c-45.2-12.4-83.4-43.1-106.3-84c-22.7-40.6-30.7-89.2-19.8-134.6c11.4-47.6,41.8-87.4,83.4-113c46.1-28.2,101.7-37.3,153.7-21.4c1.4,0.4,2.4,1.3,3,2.3c0.1,0,0.2,0.1,0.3,0.1c6.6,2.5,13.4,4,20,6.4c5.3,1.9,10.6,4,15.7,6.3c10.1,4.6,19.8,10,29,16.4c18.1,12.6,34.2,28.8,44.7,48.3C460.1,188.7,456.9,240.1,439.7,283.9z"></path><path fill="#EF4823" d="M389.1,108c-5.7-4.1-11.6-7.8-17.7-11.1c0.9,9.7,0.7,19.4,0.9,29.2c0.1,3.1,0.5,6.5,0.4,9.9c10.4-5.7,20.7-11.8,32.2-14.8C400,116.4,394.7,112,389.1,108z"></path><path fill="#3AB37C" d="M372.2,147.6c-1.3,0.7-2.7,0.7-3.9,0.4c-0.4,0.2-0.9,0.3-1.3,0.3c-1.1,1-2.2,2.1-3.2,3.1c-3.5,3.5-6.9,7.1-10.3,10.7c-6.5,7-13.1,14-19.4,21.1c-8.1,9.2-16.8,17.9-25.2,26.8c4.7,0.4,9.4,0.9,14.1,1.2c6.4,0.4,15.8,1.6,21.5-1.9c0.3-0.2,0.6-0.3,0.9-0.4c0.4-2.2,2.1-3.6,4-4.1c8.4-13.6,20.9-24.9,31.1-37c5.4-6.4,10.5-13.2,14.7-20.4c2.6-4.5,5.5-9.6,7-14.8C391.7,136.4,382.2,142.5,372.2,147.6z"></path><path d="M474.9,133.5C449.7,93.1,409,61.9,366.3,41.9C323,21.7,273.4,12.4,226,20.6C135.1,36.4,48.9,109.1,37.6,203.7c-0.2,1.3-0.3,2.5-0.4,3.8c-1,0.6-1.7,1.7-2,3.1c-2.7,13.3-3.9,26.9-4.8,40.4c-0.8,11.4-0.9,22.9-0.3,34.3c1.3,22.3,5.6,44.5,13.3,65.5c15.3,41.8,45.5,76.5,86.1,95.3c23.1,10.6,48.8,16.7,73.9,20c25.5,3.3,51.5,3.1,77-0.6c50.9-7.4,98.5-29.7,136.1-64.8c36.4-33.9,65-77.6,78.1-125.8C507.7,226.9,501.4,176,474.9,133.5z M383.6,414.8c-42.4,29.8-94.1,43.8-145.6,43.7C212,458.4,186,454.3,161,447c-22.9-6.7-44.2-16.8-62.4-32.3c-26.5-22.5-43.3-54-52-87.3c-4.5-17.5-6.6-35.6-6.9-53.7c-0.2-9.2,0.2-18.4,1.1-27.6c0.8-8.7,1.6-17.3,2.9-25.8c1.6-0.8,2.8-2.3,2.9-4.5c5.1-96.2,93.1-171.4,184.4-185.8c47.9-7.6,97.3,3.8,140.1,25.5c42.6,21.5,82.8,55.7,104.2,99C521.2,247.9,462.1,359.5,383.6,414.8z"></path><path d="M437.1,146.3c-10.6-19.5-26.6-35.7-44.7-48.3c-9.1-6.3-18.9-11.8-29-16.4c-5.1-2.4-10.4-4.4-15.7-6.3c-6.6-2.4-13.5-3.9-20-6.4c-0.1,0-0.2-0.1-0.3-0.1c-0.6-1-1.6-1.9-3-2.3c-52-15.9-107.6-6.8-153.7,21.4c-41.7,25.5-72,65.3-83.4,113c-10.9,45.5-3,94.1,19.8,134.6c22.9,40.9,61,71.6,106.3,84c98,26.9,191.9-47.7,226.4-135.6C456.9,240.1,460.1,188.7,437.1,146.3z M389.1,108c5.6,4,10.9,8.4,15.9,13.2c-11.5,3-21.8,9.2-32.2,14.8c0-3.4-0.4-6.9-0.4-9.9c-0.3-9.8-0.1-19.5-0.9-29.2C377.5,100.2,383.5,103.9,389.1,108z M363.8,151.4c1.1-1.1,2.1-2.1,3.2-3.1c0.5,0,0.9-0.1,1.3-0.3c1.2,0.3,2.5,0.3,3.9-0.4c10-5.1,19.6-11.2,30.1-15.1c-1.5,5.3-4.4,10.3-7,14.8c-4.2,7.3-9.3,14-14.7,20.4c-10.2,12.1-22.7,23.4-31.1,37c-1.9,0.5-3.6,1.8-4,4.1c-0.3,0.1-0.6,0.3-0.9,0.4c-5.7,3.5-15.1,2.2-21.5,1.9c-4.7-0.3-9.4-0.8-14.1-1.2c8.4-8.9,17.1-17.6,25.2-26.8c6.3-7.2,12.8-14.2,19.4-21.1C356.9,158.5,360.3,155,363.8,151.4z M288.9,209.2c-1.1,2.4-0.3,4.6,1.4,5.9c-4.2,4.2-8.4,8.3-13,12.2c-7.7,6.5-15.5,12.8-22.6,19.8c-4.6,4.5,3,11.1,7.5,6.6c5.8-5.7,11.9-11,18-16.2c2.6,4.3,1.1,10.2-0.7,14.8c-2.5,6.3-6.5,11.4-12.1,15.3c-9.4,6.5-23.1,7.4-32.3,0.1c-11.4-9-8.3-26.2-2.7-37.6c7.3-14.8,30.8-18,42.7-6.9c4.7,4.4,11.3-3.1,6.6-7.5c-15.5-14.5-44.9-11.2-56.3,6.6c-10,15.6-12.1,38.9,2.4,52.3c12.7,11.7,32.8,10,46.1,0.6c12-8.4,24.4-31,13.9-44.4c4.2-3.7,8.3-7.4,12.2-11.4c8.4,0.1,16.8,1.3,25.1,1.8c1.1,0.1,2.3,0.1,3.5,0.2c0.3,1.5,1.3,2.9,2.6,3.6c3,22.1-2,44.1-16.5,61.6c-14.3,17.3-36,28.5-58.3,30c-40.1,2.7-77.7-27.6-85.2-66.7c-6.2-32,8.3-63.6,34.8-81.9c25.7-17.9,60-19.5,85.2,0.2c0.7,0.5,1.3,0.8,2,1c-0.5,2.6-0.8,5.3-0.9,8.1C291.6,187.8,293.5,199.4,288.9,209.2z M304.1,147.3c-3.7,3.9-6.3,7.9-8.1,12.2c-16.2-12-35.7-17.4-55.8-15c-20.1,2.4-38.6,12.3-53,26.2c-31,29.8-35.7,77.9-12.6,113.8c21.3,33.1,62.8,49.4,100.7,39.2c21.1-5.7,40.8-20,52.8-38.2c12.6-19.1,16.5-42.1,12.6-64.5c3-0.5,5.8-1.3,8.4-2.7c2.2,0.5,4.7-0.3,5.8-2.5c3.1-6.3,7.3-11.8,11.8-17.1c19.2,47.5,4.1,101.2-31.9,136.5c-36.1,35.4-90.9,41-135.5,19.3c-22.5-11-41.1-28.5-52.9-50.6c-11.3-20.9-14.7-45.6-11.9-69c2.9-24.7,13.2-47.7,26.2-68.7c12.8-20.6,30.2-39.5,52.4-49.9c34.7-16.2,79.9-11.3,109,13.9c0,0,0,0,0,0C315.9,135.7,309.7,141.3,304.1,147.3z M340.9,127c7-6.8,13.7-14.2,21.1-20.7c0.3,5.9,0.3,11.9,0.3,17.8c0,4.1,1.3,10.2,0.3,14.6c-4.5,2.4-8.6,8.2-11.3,11c-7.6,7.9-15.1,16-22.5,24.3c-9.1,10.2-18.8,19.9-28.1,29.9c1.2-6.7,1.1-13.6,1.1-20.3c0-5.1,0.2-10.2,1.2-15.2c1.2-5.9,4.4-10.2,8.4-14.5C320.5,144.1,331.4,136.2,340.9,127z M420.8,301.5c-22.5,43.7-60.1,81.7-105.6,101.3c-42.8,18.4-91.7,15.6-132.8-6.1c-42.1-22.2-72-63.4-84.3-108.9c-12-44.8-5.2-93.5,18.6-133.2c19.7-32.8,52-57.8,87.1-72.4c37.1-15.4,78.3-17.6,116.8-6.2c0.4,0.9,1.2,1.6,2.5,2.1c6.1,2.3,12.5,3.8,18.7,5.9c5.8,2,11.5,4.3,17.1,6.8c1.4,0.6,2.8,1.3,4.2,2c-10.5,7.7-18.9,17.8-28.5,26.5c-1.7,1.5-3.4,3-5.1,4.5c-0.2-0.3-0.5-0.7-0.9-1C290.2,89.3,229.2,89,189,119.3c-19.5,14.7-34.1,35.2-45.4,56.5c-11.6,21.8-18.9,45.1-20,69.9c-2.1,49.7,26.1,94.3,69.9,116.9c43.3,22.3,97.1,19.2,136.3-10.2c48.1-36.1,69.5-103.8,45.3-159.7c-0.4-0.8-0.8-1.5-1.4-1.9c6.1-6.6,12-13.4,17.6-20.4c9.2-11.5,19.6-25.8,21.7-40.9c7.8,8.9,14.5,18.9,19.5,29.8C453.3,204.6,442.8,258.8,420.8,301.5z"></path></svg>