<svg xmlns="http://www.w3.org/2000/svg"  viewBox="0 0 48 48" width="48px" height="48px"><path fill="#010101" d="M4.803,24.982c-0.427-0.526-0.41-1.84-0.204-4.781c0.048-0.696,0.092-1.312,0.092-1.696l0.001-0.677 c0.005-1.815,0.011-3.692-0.326-5.397l0.981-0.193c0.355,1.803,0.35,3.73,0.344,5.594l-0.001,0.674c0,0.4-0.044,1.042-0.095,1.766 c-0.083,1.193-0.257,3.675-0.01,4.09L4.803,24.982z"/><path fill="#373837" d="M30.524,15.833c0.49,0.366,3.779-2.456,4.675-3.005c2.33-1.426,1.872-2.184-0.383-3.166 c-3.792-1.653-7.564-3.426-11.413-4.992c-1.843-0.75-3.146-2.078-5.171-1.308C16.464,4.035,14.634,5.174,12.891,6 c-3.507,1.661-7.127,4.281-10.2,6.5l-0.02,0.073c-0.133,2.01,1.857,1.418,3.196,1.881c1.379,0.476,3.02,1.812,3.991,2.213 l10.434,2.75L30.524,15.833z"/><path fill="#010101" d="M20.292,19.917c-0.043,0-0.085-0.005-0.127-0.017L9.73,17.15c-0.515-0.208-1.073-0.563-1.665-0.938 c-0.761-0.483-1.624-1.031-2.363-1.286c-0.327-0.113-0.733-0.156-1.125-0.198c-1.008-0.107-2.532-0.27-2.406-2.188 c0.002-0.035,0.008-0.069,0.018-0.102c0.03-0.109,0.118-0.277,0.209-0.344c3.192-2.306,6.75-4.875,10.279-6.546 c0.657-0.312,1.328-0.668,2.002-1.027c1.107-0.589,2.252-1.199,3.375-1.625c0.469-0.178,0.921-0.265,1.382-0.265 c1.063,0,1.936,0.46,2.858,0.947c0.415,0.219,0.844,0.445,1.297,0.629c2.516,1.023,5.034,2.151,7.469,3.241 c1.318,0.591,2.636,1.18,3.955,1.755c1.293,0.564,2.167,1.108,2.224,1.932c0.048,0.693-0.484,1.327-1.778,2.12 c-0.247,0.151-0.742,0.529-1.267,0.928c-2.107,1.606-3.101,2.256-3.658,2.176l-10.08,3.529 C20.403,19.907,20.348,19.917,20.292,19.917z M3.166,12.774c-0.014,0.712,0.333,0.833,1.517,0.96 c0.448,0.048,0.912,0.097,1.346,0.247c0.85,0.294,1.765,0.875,2.572,1.387c0.554,0.351,1.076,0.683,1.447,0.836l10.222,2.689 l10.089-3.532c0.105-0.037,0.219-0.036,0.322-0.003c0.472-0.115,2.108-1.362,2.906-1.971c0.569-0.434,1.061-0.809,1.351-0.986 c1.265-0.775,1.307-1.134,1.302-1.198c-0.008-0.117-0.183-0.456-1.625-1.084c-1.323-0.577-2.643-1.167-3.964-1.76 c-2.427-1.086-4.937-2.21-7.437-3.227c-0.499-0.203-0.951-0.441-1.387-0.672c-1.194-0.63-2.209-1.091-3.418-0.632 c-1.064,0.405-2.181,0.999-3.261,1.574c-0.688,0.366-1.373,0.73-2.044,1.048C9.707,8.061,6.238,10.555,3.166,12.774z"/><path fill="#bcbcbc" d="M12.524,20.667c-1.983-0.481-1.915-0.838-1.988-2.834c-0.047-1.314-0.75-3.328,0.217-4.384 l0.283-0.367c2.043-2.423,6.071-2.856,8.988-2.424c2.89,0.428,7.78,0.56,10.025,2.501c-0.882,2.15,2.632,7.568-1.191,7.675 L12.524,20.667z"/><path fill="#010101" d="M28.857,21.333c-0.001,0-0.003,0-0.005,0L12.52,21.167c-0.038,0-0.076-0.005-0.113-0.014 c-2.178-0.528-2.294-1.117-2.362-3.077l-0.008-0.225c-0.012-0.332-0.069-0.711-0.128-1.108c-0.185-1.256-0.396-2.681,0.476-3.631 l0.255-0.334c1.488-1.765,4.16-2.767,7.345-2.767c0.717,0,1.428,0.051,2.113,0.153c0.567,0.084,1.212,0.156,1.9,0.233 c2.878,0.323,6.461,0.726,8.379,2.384c0.163,0.141,0.217,0.37,0.135,0.568c-0.27,0.657,0.002,1.863,0.265,3.029 c0.353,1.566,0.718,3.186-0.046,4.168c-0.387,0.499-1.013,0.763-1.859,0.787C28.867,21.333,28.862,21.333,28.857,21.333z M12.587,20.167l16.266,0.167c0.536-0.017,0.892-0.147,1.088-0.401c0.474-0.61,0.148-2.058-0.14-3.335 c-0.272-1.208-0.531-2.356-0.329-3.26c-1.754-1.292-4.975-1.654-7.586-1.947c-0.7-0.079-1.357-0.152-1.935-0.238 c-0.637-0.094-1.298-0.142-1.966-0.142c-2.89,0-5.283,0.873-6.566,2.394l-0.269,0.35c-0.577,0.633-0.404,1.807-0.251,2.843 c0.064,0.433,0.125,0.842,0.138,1.218l0.008,0.227C11.104,19.786,11.105,19.808,12.587,20.167z"/><path fill="#febf10" d="M11.489,30.5h25.143l-1.023-4.029l0.978-3.918l1.58-0.046V20.09H30.25l-3.417,0.66l-5.166-0.66	h-8.774c-2.518,0-4.56,2.042-4.56,4.56v2.695C8.333,29.087,9.746,30.5,11.489,30.5z"/><path fill="#d6e5e5" d="M15.276,30.752h21.89l-2-4.281l1-3.969H14.323c-1.403,0-2.54,1.137-2.54,2.54v2.217	C11.784,29.189,13.347,30.752,15.276,30.752z"/><path fill="#ef4823" d="M13.206,43.064h23.961v-8.37l1-2.379v-1.997H11.072c-2.321,0-4.203,1.882-4.203,4.203v2.206	C6.869,40.227,9.706,43.064,13.206,43.064z"/><path fill="#d6e5e5" d="M13.626,42.012l3.818,1.03h19.473V34.42l2-2.003h-18.82l-6.098,0.661	c-2.001,0.217-3.522,1.899-3.537,3.913l-0.009,0.833C10.431,39.78,11.737,41.503,13.626,42.012z"/><path fill="#bcbcbc" d="M4.858,30.667c-0.974-1.376-2.802-5.779-0.037-6.512c3.403-0.902,0.292,5.116,0.37,6.345 L4.858,30.667z"/><path fill="#010101" d="M4.858,31.167c-0.158,0-0.312-0.075-0.409-0.211c-0.728-1.028-2.092-3.92-1.405-5.813 c0.271-0.748,0.841-1.256,1.649-1.47c1.043-0.276,1.662,0.098,1.904,0.428c0.707,0.966,0.087,2.927-0.46,4.657 c-0.217,0.685-0.463,1.462-0.447,1.712c0.013,0.201-0.096,0.389-0.276,0.479l-0.333,0.167C5.009,31.149,4.933,31.167,4.858,31.167z M5.437,24.563c-0.136,0-0.3,0.025-0.488,0.075c-0.497,0.132-0.803,0.4-0.964,0.844c-0.398,1.098,0.21,2.949,0.841,4.16 c0.084-0.32,0.206-0.708,0.357-1.188c0.379-1.2,1.015-3.208,0.607-3.764C5.762,24.652,5.697,24.563,5.437,24.563z"/><path fill="#010101" d="M20.251,43.991c-3.211,0-8.893-1.13-10.165-5.385c-0.419-1.403-0.323-2.594,0.286-3.54 c1.261-1.956,4.424-2.386,6.734-2.7l0.482-0.066c3.167-0.444,6.804-0.668,11.427-0.635c1.703,0.004,3.429,0.1,5.432,0.299 c1.051,0.104,2.029,0.034,3.066-0.041c0.809-0.059,1.644-0.117,2.526-0.09c0.276,0.008,0.492,0.239,0.483,0.516 c-0.009,0.276-0.213,0.516-0.516,0.483c-0.833-0.026-1.639,0.032-2.421,0.089c-1.033,0.075-2.102,0.151-3.237,0.039 c-1.971-0.196-3.667-0.29-5.336-0.294c-4.591-0.009-8.167,0.188-11.286,0.625l-0.486,0.067c-2.118,0.288-5.017,0.682-6.029,2.25 c-0.45,0.698-0.505,1.585-0.168,2.711c1.111,3.718,6.323,4.679,9.27,4.671c1.798-0.009,3.668-0.145,5.478-0.276 c1.167-0.084,2.337-0.169,3.506-0.224c1.236-0.057,2.464-0.022,3.649,0.01c1.836,0.051,3.569,0.1,5.337-0.163 c0.273-0.035,0.528,0.148,0.568,0.421c0.041,0.273-0.148,0.527-0.421,0.568c-1.854,0.275-3.714,0.223-5.511,0.173 c-1.168-0.032-2.375-0.066-3.576-0.01c-1.159,0.054-2.321,0.138-3.479,0.222c-1.826,0.132-3.713,0.27-5.545,0.278 C20.297,43.991,20.274,43.991,20.251,43.991z"/><path fill="#010101" d="M12.858,41.5c-0.031,0-0.063-0.003-0.095-0.009c-0.271-0.052-0.449-0.314-0.397-0.585 c0.102-0.528,0.283-1.086,0.475-1.677c0.532-1.638,1.135-3.495,0.095-5.126c-0.148-0.233-0.08-0.542,0.152-0.69 c0.233-0.15,0.542-0.081,0.69,0.152c1.294,2.03,0.584,4.216,0.014,5.973c-0.182,0.561-0.354,1.091-0.444,1.557 C13.302,41.333,13.093,41.5,12.858,41.5z"/><path fill="#010101" d="M37.025,42.5c-0.188,0-0.368-0.106-0.453-0.287c-0.039-0.082-0.053-0.168-0.046-0.251 c-0.006-0.106-0.037-0.374-0.077-0.732c-0.185-1.674-0.374-3.523-0.262-4.267l0.027-0.183c0.175-1.195,0.469-3.195,1.61-3.92 c0.438-0.279,0.96-0.339,1.511-0.172c0.265,0.08,0.415,0.358,0.334,0.623c-0.08,0.264-0.358,0.416-0.623,0.334 c-0.361-0.108-0.564-0.019-0.686,0.059c-0.754,0.479-1.026,2.332-1.157,3.222l-0.027,0.186c-0.102,0.677,0.147,2.927,0.267,4.008 c0.12,1.086,0.13,1.175-0.205,1.333C37.168,42.485,37.096,42.5,37.025,42.5z"/><path fill="#010101" d="M21.343,36.178c-0.111,0-0.223-0.002-0.334-0.008c-0.748-0.036-1.48-0.144-2.189-0.248 c-0.851-0.125-1.731-0.255-2.626-0.255c-0.24-0.014-0.503-0.222-0.503-0.5c0-0.276,0.224-0.5,0.5-0.5c0.001,0,0.002,0,0.003,0 c0.968,0,1.885,0.135,2.772,0.266c0.716,0.106,1.392,0.206,2.091,0.239c0.818,0.042,1.648-0.098,2.525-0.243 c0.693-0.115,1.411-0.234,2.135-0.261c0.869-0.035,1.73,0.019,2.563,0.068c0.85,0.05,1.729,0.104,2.594,0.062 c0.494-0.023,1.094-0.088,1.711-0.153c1.196-0.127,2.435-0.26,3.185-0.137c0.273,0.044,0.458,0.301,0.414,0.574 c-0.044,0.272-0.303,0.457-0.574,0.414c-0.618-0.102-1.84,0.029-2.919,0.144c-0.638,0.068-1.259,0.134-1.769,0.158 c-0.919,0.042-1.825-0.01-2.701-0.063c-0.81-0.048-1.646-0.098-2.467-0.067c-0.661,0.025-1.346,0.138-2.009,0.248 C22.962,36.044,22.156,36.178,21.343,36.178z"/><path fill="#010101" d="M21.482,38.312c-1.384,0-2.715-0.161-3.701-0.708c-0.241-0.134-0.328-0.438-0.194-0.68 c0.134-0.241,0.438-0.33,0.68-0.194c1.486,0.827,4.169,0.59,6.322,0.4c0.615-0.054,1.194-0.105,1.703-0.129 c1.238-0.057,2.698,0.046,4.107,0.146c1.835,0.131,3.732,0.265,5.034,0.029c0.277-0.053,0.532,0.13,0.582,0.402 c0.05,0.272-0.13,0.532-0.402,0.582c-1.426,0.261-3.387,0.121-5.285-0.015c-1.381-0.099-2.81-0.2-3.99-0.144 c-0.497,0.023-1.062,0.073-1.662,0.126C23.674,38.214,22.562,38.312,21.482,38.312z"/><path fill="#010101" d="M35.858,41.167c-0.143,0-0.283-0.061-0.379-0.174c-0.198-0.024-0.49-0.045-0.689-0.059 c-0.267-0.019-0.527-0.038-0.709-0.063c-0.945-0.129-1.881-0.255-2.826-0.374c-1.487-0.186-3.08-0.185-5.011,0.001 c-0.462,0.045-0.929,0.095-1.399,0.145c-2.977,0.318-6.054,0.648-8.954-0.161c-0.266-0.074-0.421-0.35-0.347-0.616 s0.351-0.422,0.616-0.347c2.713,0.755,5.694,0.437,8.579,0.129c0.473-0.05,0.943-0.101,1.409-0.146 c2.006-0.195,3.668-0.194,5.232,0.001c0.949,0.119,1.889,0.246,2.838,0.375c0.166,0.023,0.401,0.039,0.644,0.057 c0.974,0.069,1.418,0.101,1.529,0.55c0.052,0.21-0.085,0.492-0.27,0.606C36.038,41.143,35.947,41.167,35.858,41.167z"/><path fill="#010101" d="M18.761,43.935c-0.35,0-6.026-0.01-7.893-0.626c-1.769-0.583-2.871-2.392-3.546-3.701 c-0.938-1.821-1.214-3.853-0.795-5.876c0.882-4.264,5.204-4.055,8.357-3.903l0.206,0.01c1.791,0.085,3.608,0.116,5.365,0.147 c1.781,0.031,3.623,0.063,5.432,0.15c1.787,0.087,3.671-0.07,5.493-0.221c1.526-0.127,3.124-0.258,4.646-0.251 c0.846,0.004,2.169,0.088,3.115,0.314c0.713,0.17,1.994,0.92,1.899,1.748c-0.04,0.351-0.307,0.771-1.346,0.776c0,0-0.001,0-0.002,0 c-0.275,0-0.499-0.222-0.5-0.498c-0.001-0.276,0.221-0.501,0.498-0.502c0.08,0,0.146-0.004,0.202-0.008 c-0.218-0.199-0.615-0.455-0.982-0.542c-0.807-0.193-2.031-0.283-2.887-0.287c-1.498-0.004-3.055,0.122-4.56,0.248 c-1.854,0.154-3.772,0.314-5.624,0.224c-1.794-0.087-3.628-0.119-5.401-0.149c-1.765-0.03-3.589-0.062-5.395-0.147l-0.207-0.01 c-3.104-0.15-6.622-0.319-7.33,3.107c-0.372,1.797-0.128,3.6,0.705,5.215c0.933,1.808,1.905,2.858,2.971,3.21 c1.728,0.57,7.491,0.576,7.587,0.576h0c0,0,0,0,0,0c0.276,0,0.5,0.224,0.5,0.5c0,0.276-0.224,0.5-0.5,0.5 C18.768,43.935,18.764,43.935,18.761,43.935z"/><path fill="#010101" d="M10.274,30.84c-0.446,0-0.873-0.21-1.236-0.622C7.654,28.65,7.194,23.8,8.293,22.355 c2.089-2.746,5.483-2.868,8.477-2.976c0.373-0.014,0.742-0.027,1.104-0.045c1.712-0.085,3.313,0.174,4.864,0.425 c1.556,0.251,3.028,0.49,4.593,0.407c1.067-0.055,2.125-0.14,3.18-0.224c1.997-0.159,4.064-0.322,6.123-0.278l0.055-0.014 c1.503-0.168,2.307,0.52,2.448,1.221c0.126,0.627-0.237,1.513-1.676,1.944c-1.036,0.311-2.502,0.112-3.681-0.047 c-0.307-0.041-0.592-0.08-0.842-0.105c-2.11-0.213-4.141-0.054-6.293,0.113c-2.176,0.17-4.406,0.252-6.858,0.15 c-2.113-0.09-4.298-0.183-6.153,0.232c-1.373,0.307-1.72,0.876-1.613,2.648c0.086,1.447,0.799,3.46,1.25,3.532 c0.273,0.043,0.459,0.299,0.416,0.572c-0.043,0.273-0.298,0.464-0.572,0.416c-1.522-0.241-2.05-3.774-2.091-4.46 c-0.112-1.865,0.252-3.206,2.394-3.684c1.983-0.443,4.236-0.348,6.413-0.256C20.686,21.964,21.527,22,22.325,22 c1.429,0,2.858-0.112,4.241-0.22c2.1-0.164,4.272-0.334,6.472-0.111c0.26,0.026,0.557,0.066,0.875,0.109 c1.083,0.146,2.433,0.328,3.261,0.08c0.707-0.212,1.029-0.557,0.983-0.789c-0.047-0.233-0.48-0.522-1.292-0.437l-0.051,0.018 c-0.044,0.011-0.093,0.011-0.134,0.015c-2.037-0.047-4.095,0.115-6.088,0.274c-1.064,0.084-2.132,0.169-3.208,0.226 c-1.678,0.087-3.266-0.17-4.804-0.419c-1.5-0.242-3.05-0.494-4.655-0.413c-0.367,0.018-0.74,0.032-1.118,0.045 c-2.908,0.104-5.915,0.213-7.717,2.582c-0.755,0.992-0.444,5.301,0.699,6.596c0.315,0.358,0.556,0.33,0.818,0.177 c0.24-0.138,0.545-0.056,0.684,0.182c0.139,0.239,0.057,0.545-0.182,0.684C10.831,30.76,10.549,30.84,10.274,30.84z"/><path fill="#010101" d="M36.69,30.079c-0.174,0-0.362-0.07-0.48-0.178c-0.057-0.058-0.112-0.118-0.166-0.178 c-0.021-0.016-0.04-0.035-0.058-0.055c-0.024-0.027-0.046-0.056-0.063-0.087c-1.338-1.632-1.34-3.909-0.02-6.79 c0.115-0.25,0.41-0.359,0.663-0.246c0.251,0.115,0.361,0.412,0.246,0.663c-1.19,2.596-1.206,4.504-0.046,5.824 c0.06,0.053,0.116,0.109,0.167,0.161c0.191,0.193,0.26,0.573,0.072,0.769C36.927,30.044,36.812,30.079,36.69,30.079z"/><path fill="#010101" d="M24.128,25.916c-1.4,0-2.837-0.238-4.242-0.47c-1.357-0.224-2.639-0.436-3.866-0.445 c-0.276-0.002-0.498-0.228-0.496-0.504C15.526,24.221,15.75,24,16.024,24c0.001,0,0.002,0,0.004,0 c1.305,0.01,2.686,0.238,4.021,0.459c2.031,0.335,4.131,0.684,5.973,0.261c0.45-0.103,0.865-0.216,1.266-0.326 c1.057-0.288,2.056-0.561,3.337-0.561c0.005,0,0.011,0,0.015,0c0.319,0,0.75-0.036,1.223-0.075 c1.846-0.152,3.202-0.215,3.835,0.376c0.202,0.188,0.213,0.504,0.025,0.707c-0.188,0.203-0.504,0.214-0.707,0.025 c-0.359-0.335-2.125-0.189-3.072-0.111c-0.507,0.042-0.945,0.111-1.311,0.079c-0.003,0-0.006,0-0.009,0 c-1.147,0-2.041,0.244-3.074,0.525c-0.414,0.113-0.842,0.229-1.306,0.336C25.556,25.853,24.847,25.916,24.128,25.916z"/><path fill="#010101" d="M28.201,28.335c-0.839,0-1.684-0.017-2.535-0.06c-0.878-0.044-1.843-0.137-2.864-0.236 c-2.375-0.229-5.067-0.49-6.831-0.079c-0.271,0.061-0.538-0.104-0.601-0.373c-0.063-0.269,0.104-0.538,0.373-0.601 c1.924-0.449,4.583-0.191,7.155,0.057c0.995,0.097,1.957,0.19,2.817,0.232c2.639,0.131,5.243,0.015,7.763-0.098l1.191-0.052 c0.257-0.017,0.509,0.202,0.521,0.479c0.012,0.276-0.203,0.509-0.479,0.521l-1.188,0.052 C31.787,28.255,30.009,28.335,28.201,28.335z"/><path fill="#010101" d="M13.857,30.5c-0.062,0-0.125-0.012-0.187-0.036c-0.256-0.103-0.38-0.394-0.277-0.65 c1.243-3.094,1.042-4.986-0.742-6.98c-0.184-0.206-0.167-0.522,0.039-0.706c0.207-0.185,0.522-0.167,0.706,0.039 c2.514,2.812,1.93,5.516,0.924,8.02C14.243,30.381,14.055,30.5,13.857,30.5z"/><path fill="#ef4754" d="M42.139,9.107c0.519-0.035,1.147-0.068,1.743,0.008c-0.143-0.501-0.254-1.009-0.491-1.477	c-0.342-0.661-1.014-0.899-1.73-0.8c-0.416,0.056-0.834,0.142-1.236,0.264c-0.287,0.087-0.682,0.192-0.877,0.428	c-0.426,0.486-0.463,1.339-0.353,2.049C40.153,9.355,41.14,9.183,42.139,9.107z"/><path fill="#febf10" d="M40.935,12.432c0.397-0.034,0.808-0.051,1.205-0.135c0.421-0.095,0.827-0.226,1.25-0.299	c0.465-0.077,0.919-0.078,1.368,0.061c0.019-0.225,0.029-0.453,0.027-0.675c-0.002-0.172,0.008-0.35-0.015-0.521	c-0.025-0.191-0.126-0.292,0.05-0.152c-0.077-0.061-0.129-0.132-0.16-0.205c-0.652-0.593-2.013-0.419-2.772-0.338	c-0.888,0.1-1.779,0.26-2.64,0.471c-0.12,0.124-0.322,0.174-0.501,0.143c-0.036,0.571-0.021,1.142-0.007,1.713	C39.459,12.54,40.195,12.49,40.935,12.432z M41.586,41.763c0.536-0.331,1.385-0.79,1.953-0.443c0.146-0.366,0.304-0.737,0.45-1.103	c0.201-0.505,0.401-1.031,0.553-1.566c-0.068-0.057-0.117-0.137-0.155-0.244c-0.08-0.254-0.679-0.372-0.894-0.417	c-0.399-0.088-0.806-0.13-1.214-0.12c-1.017,0.019-1.855,0.653-2.65,1.204c-0.028,0.019-0.056,0.038-0.089,0.045	c0.288,0.973,1.09,1.696,1.679,2.496c0.038,0.056,0.11,0.155,0.192,0.278C41.462,41.845,41.521,41.798,41.586,41.763z"/><path fill="#14b6b9" d="M42.419,36.837c-0.012-0.045-0.021-0.099-0.026-0.162c-0.01-1.013,0.001-2.028-0.051-3.038	c-0.054-1.081-0.184-9.223-0.086-10.304c0.086-0.975,0.274-8.852,0.075-9.82c-0.019-0.078-0.021-0.15-0.005-0.214	c-0.09,0.024-0.178,0.04-0.273,0.053c-0.336,0.058-0.694,0.097-1.05,0.127c0.037,0.035,0.07,0.078,0.091,0.127	c0.295,0.552,0.132,15.187,0.098,15.779c-0.02,0.456,0.031-6.09,0.031-5.635c-0.001,0.534-0.028,1.058-0.038,1.589	c-0.008,0.855,0.023,8.715,0.036,9.568c0.016,0.693,0.033,1.386,0.166,2.065C41.721,36.891,42.057,36.834,42.419,36.837z M40.419,37.372c-0.178-0.768-0.204-1.565-0.224-2.35c-0.02-0.785-0.045-8.582-0.048-9.361c0.008-1.006-0.02-2.026-0.004-3.029	c0.001-0.333,0.041-7.532,0.051-7.861c0.008-0.198,0.052-0.535-0.029-0.688c-0.119-0.209-0.068-0.411,0.055-0.543	c-0.503,0.021-1.004,0.013-1.495-0.021c0.005,0.214-0.001,0.433-0.017,0.649c-0.061,1.267,0.066,9.391,0.151,10.646	c0.092,1.288,0.229,9.564,0.238,10.859c0.003,0.829-0.082,1.673,0.026,2.493C39.562,37.878,39.984,37.602,40.419,37.372z"/><path fill="#14b6b9" d="M44.806,37.405c0.016-0.115,0.022-0.233,0.029-0.352c-0.019-0.078-0.026-0.162,0-0.252	c0.253-1.191,0.107-2.47-0.02-3.672c-0.13-1.192-0.281-9.383-0.274-10.591c0.008-0.804,0.057-8.484,0.116-9.289	c-0.059-0.054-0.106-0.113-0.138-0.186c-0.044-0.017-0.091-0.026-0.134-0.043c-0.164-0.045-0.298-0.088-0.474-0.078	c-0.23,0.019-0.461,0.068-0.693,0.117c0.047,0.059,0.087,0.136,0.103,0.223c0.217,1.025,0.055,8.913-0.031,9.938	c-0.094,1.123,0.02,9.279,0.077,10.402c0.057,1.022,0.039,2.054,0.054,3.08c0.002,0.071-0.014,0.136-0.038,0.197	C43.892,36.99,44.413,37.127,44.806,37.405z"/><path fill="#010101" d="M37.659,14.537c0.004,0.002,0.008,0.003,0.012,0.005c-0.023,1.172,0.102,9.224,0.18,10.396	c0.087,1.276,0.215,9.548,0.222,10.823c0.006,0.366-0.01,0.733-0.021,1.092c-0.07,0.041,0.165,1.678,0.322,2.424	c0.054,0.065,0.103,0.137,0.179,0.167c0.346,1.107,1.2,1.952,1.887,2.862c0.174,0.221,0.357,0.496,0.577,0.755	c-0.011,0.029,0.797,0.812,0.807,0.786c0.375,0.25,0.808,0.352,1.295,0.143c0.548-0.236,0.816-0.755,1.015-1.281	c0.21-0.552,0.39-1.106,0.609-1.655c0.536-1.32,1.104-2.719,1.125-4.164c-0.002-0.021-0.004-0.042-0.002-0.071	c0.28-1.614,0.057-10.257-0.128-11.895c0.057,0.02-0.09-0.863-0.09-0.863c-0.051-0.606,0.053-10.828,0.126-11.898	c0.041-0.559,0.146-1.355-0.112-1.922c-0.004-0.092-0.037-0.186-0.103-0.273c-0.124-0.17-0.279-0.313-0.448-0.421	c-0.007-0.033-0.017-0.057-0.033-0.094c-0.396-0.854-0.446-1.843-0.989-2.635c-0.609-0.878-1.65-1.102-2.646-0.984	c-0.858,0.102-2.172,0.335-2.723,1.084c-0.551,0.749-0.696,1.822-0.552,2.777c-0.202,0.051-0.379,0.192-0.412,0.451	c-0.134,1.097-0.029,2.199-0.036,3.306c-0.009-0.003-0.017-0.007-0.026-0.01c-0.011-0.004-0.022-0.007-0.032-0.012	C37.703,13.805,37.709,14.175,37.659,14.537z M44.002,40.233c-0.146,0.366-0.304,0.737-0.45,1.103	c-0.578-0.372-1.431,0.096-1.967,0.427c-0.064,0.035-0.115,0.085-0.16,0.148c-0.082-0.123-0.153-0.223-0.192-0.278	c-0.589-0.8-1.391-1.523-1.679-2.496c0.028-0.019,0.061-0.026,0.089-0.045c0.798-0.56,1.633-1.186,2.65-1.204	c0.407-0.009,0.815,0.032,1.214,0.12c0.214,0.045,0.813,0.163,0.894,0.417c0.03,0.103,0.087,0.186,0.155,0.244	C44.394,39.198,44.198,39.716,44.002,40.233z M41.09,13.614c-0.03-0.052-0.054-0.092-0.091-0.127c0.355-0.03,0.705-0.072,1.05-0.127	c0.087-0.016,0.183-0.028,0.273-0.053c-0.016,0.064-0.014,0.136,0.006,0.214c0.208,0.971,0.011,8.845-0.075,9.82	c-0.089,1.085,0.032,9.223,0.086,10.304c0.052,1.01,0.041,2.025,0.051,3.038c-0.003,0.059,0.005,0.113,0.026,0.162	c-0.362-0.003-0.698,0.055-1.027,0.146c-0.133-0.679-0.15-1.372-0.166-2.065c-0.013-0.853-0.044-8.713-0.036-9.568	c0.01-0.531,0.028-1.058,0.038-1.589c-0.001-0.454-0.052,6.091-0.031,5.635C41.222,28.8,41.388,14.157,41.09,13.614z M44.538,22.547	c-0.004,1.199,0.144,9.399,0.274,10.591c0.127,1.201,0.273,2.48,0.02,3.672c-0.017,0.094-0.019,0.174,0,0.252	c-0.007,0.118-0.014,0.237-0.029,0.352c-0.394-0.278-0.914-0.415-1.418-0.494c0.021-0.052,0.036-0.117,0.038-0.197	c-0.006-1.022,0.003-2.058-0.054-3.08c-0.057-1.123-0.172-9.279-0.077-10.402c0.086-1.025,0.252-8.922,0.031-9.938	c-0.024-0.09-0.056-0.164-0.103-0.223c0.223-0.052,0.454-0.102,0.693-0.117c0.176-0.011,0.31,0.033,0.474,0.078	c0.047,0.009,0.091,0.026,0.134,0.043c0.038,0.056,0.082,0.123,0.133,0.174C44.595,14.062,44.545,21.742,44.538,22.547z M39.537,7.535c0.203-0.232,0.598-0.337,0.877-0.428c0.402-0.122,0.82-0.208,1.236-0.264c0.715-0.098,1.388,0.139,1.73,0.8	c0.241,0.459,0.351,0.968,0.491,1.477c-0.595-0.076-1.224-0.044-1.743-0.008c-0.99,0.08-1.974,0.243-2.955,0.477	C39.073,8.874,39.111,8.021,39.537,7.535z M38.729,10.775c0.188,0.035,0.381-0.02,0.501-0.143c0.87-0.208,1.753-0.371,2.64-0.471	c0.759-0.081,2.12-0.255,2.772,0.338c0.031,0.073,0.084,0.144,0.16,0.205c-0.167-0.137-0.075-0.04-0.05,0.151	c0.023,0.171,0.013,0.348,0.015,0.521c0.002,0.223-0.008,0.451-0.027,0.676c-0.441-0.135-0.895-0.135-1.368-0.061	c-0.423,0.074-0.828,0.205-1.25,0.299c-0.388,0.088-0.808,0.102-1.205,0.135c-0.731,0.062-1.476,0.108-2.213,0.057	C38.711,11.909,38.697,11.338,38.729,10.775z M39.118,35.672c-0.009-1.295-0.146-9.571-0.238-10.859	c-0.094-1.259-0.212-9.379-0.159-10.65c0.007-0.219,0.01-0.43,0.017-0.649c0.491,0.034,0.992,0.042,1.495,0.021	c-0.123,0.132-0.174,0.334-0.055,0.543c0.089,0.157,0.037,0.489,0.029,0.688c-0.01,0.329-0.05,7.529-0.051,7.861	c-0.016,1.003,0.011,2.023,0.004,3.029c-0.001,0.787,0.028,8.575,0.048,9.361c0.011,0.782,0.045,1.582,0.224,2.35	c-0.444,0.227-0.87,0.511-1.287,0.799C39.04,37.337,39.13,36.505,39.118,35.672z"/></svg>