<svg xmlns="http://www.w3.org/2000/svg" x="0px" y="0px"
width="48" height="48"
viewBox="0 0 512 512"
style=" fill:#000000;"><path fill="#3AB37C" d="M268.3 152c-.3-.1-.7-.3-1-.5-.8 2.3-2.9 3.9-5.9 3-.9-.3-1.7-.2-2.6 0-3.8 6.6-8.5 12.5-12.9 18.7-4.3 6.1-6.4 12.9-10.1 19.2-1.4 2.3-2.9 4.3-4.5 6.1 8.2.9 17.1 1.3 24-4 12.2-9.4 10.6-24.2 10.6-38C266 154.5 267 153 268.3 152zM263.9 128.5c-6-.9-12.6-4.9-16.2-9.6-1.4-1.7-2.4-3.7-3.4-5.7-.9 7.7.7 16.2 5.8 21 4.7-.8 9.5-1 13.9-.2C263.9 132.1 263.9 130.3 263.9 128.5zM249.4 145.4c-7.2 1.4-14.1 4.5-21.3 5.9-13.3 2.5-23.6-2.2-31.8-10.6.2 3.7.8 7.4 2.1 10.7 3.4 8.5 11.3 10.9 19.7 12.5 10.3 1.9 16.6-2.4 23.5-9.5 3.4-3.5 7.5-7.6 12.2-9.7C252.3 144.8 250.8 145.1 249.4 145.4zM316.9 132.8c-.3.5-.6 1-.9 1.5 1-.1 2-.4 3.1-.7C318.3 133.4 317.6 133.2 316.9 132.8zM311.2 58c-12.5 3.1-21.2 19.4-26 29.6-3.7 7.9-7.1 16.2-8.7 24.9-1.8 9.3-1.9 18.6-1.1 27.9.1.2.3.4.4.6-1.2-13.6 4.7-29 9.8-40.3 3.9-8.5 9.4-16.7 17.2-22.1 4.8-3.3 10.1-5.5 15.7-7C314.7 67.6 311.6 63.4 311.2 58z"></path><path fill="#3AB37C" d="M329.3,141.3c-9.6,3.7-17.9,6.7-26.4-1.1c-2.5-2.2-2.6-6.9,0.6-8.7c3.6-2,5.4-7.1,6-10.9c0.1-0.8,0.2-1.5,0.2-2.2c-0.4,0.2-1.1,0.3-1.5,0.7c-5.6,4.2-13.1,14.3-21.1,15.2c-0.6,4.8-0.4,9.8,2.1,13.8c2,3.3,0.2,8.6-4.1,8.6c-1.2,0-2.4,0-3.6,0c4.8,8.9,2.4,19.1,3.6,29.1c1,8.5,8.1,14.8,16.1,17.5c0-5.4-0.1-10.9-0.5-16.3c-0.5-6.1-0.6-16.3-5.7-20.7c-3.4-2.9-1.7-9.7,3.2-9.6c13.3,0.3,25.9,7.6,38.3-0.1c7.8-4.8,12.1-12.2,14.8-20.5C343.7,136.9,336.1,138.7,329.3,141.3z"></path><path fill="#EF4823" d="M441.2,155.6c-13.8-16.3-31.8-31.5-52.8-37.2c-10.2-2.8-20.7-3.7-31.1-1.8c-5.8,1-11.4,2.8-16.8,5.3c-5.7,2.6-10.7,6.3-15.9,9.6c2.6-1,5.3-1.8,8.1-2.6c8.3-2.2,16.8-4.1,25.4-4.2c3.5-0.1,6.6,2.9,5.8,6.5c-2.9,12.9-8.4,26.5-20.1,33.8c-6.8,4.2-14.2,7.1-22.3,6.4c-4.3-0.3-8.5-1.4-12.6-2.3c1.4,4.4,2,9.1,2.4,13.3c0.9,9.1,0.8,18.2,0.8,27.4c0,3.8-2.8,6.2-6.5,5.8c-12-1.3-23.6-8.9-28.8-19.8c-1.4-3-2-6.2-2.2-9.5c-1.7,5.3-4.6,10.3-9.3,14.6c-7.3,6.7-17,9.8-26.8,9.3c-8.2-0.5-16.7-2.5-24.9-1.5c-1.7,0.4-3.5,0.8-5.4,1c-6.2,0.9-8.3-9.1-2.2-10.7c1.7-0.4,3.4-0.8,5-1c8.4-2,14.5-6.4,17.9-15.3c1.2-3.1,2.6-6.1,4.3-8.9c-8.2,2.6-17,1.5-25.5-1.3c-9.2-3.1-16.7-9.1-19.7-18.6c-3-9.7-2.5-19.9-1.5-29.8c0.5-4.8,7.6-6,10-2c4.2,7,9.2,14.8,17.2,17.8c7.5,2.8,15.1,0.1,22.3-2.2c0.8-0.3,1.7-0.5,2.6-0.8c-1.7-2.8-3-5.9-3.8-9.3c-0.4-0.1-0.8-0.3-1.3-0.6c-4.3-2.5-8.7-4.8-13.3-6.5c-42.2-16.1-89.4,4.5-119.7,34.6c-15.3,15.3-28.6,33.9-35.1,54.8c-6.4,20.6-8.6,42.8-7.7,64.2c1.8,43.4,16.3,87.3,45,120.4c32.6,37.6,81.2,53.4,129.7,56.9c27.8,2,55.9,0.1,83.2-5.4c26.1-5.3,52.4-13.4,75.7-26.5c21.8-12.3,41.8-27.9,57.3-47.7c16.9-21.7,27.1-46.7,30.6-74C485.3,247.4,474.5,195,441.2,155.6z M260.2,260.6c1,6.6-0.1,14.2-0.2,20.1c0,2.3-1.2,5.1-3.7,5.6c-10.4,2.3-19.8,5.7-30.7,5.5c-9.6-0.2-19.3,0-28.8-1.5c-20.4-3.2-36.7-14.2-54.7-23.3c-10.4-5.3-26.8-11.1-23.9-25.7c2.8-14,13.4-25.3,21.2-36.9c2.5-3.8,6.9-2.1,8.6,1.1c1.4-0.2,2.8,0.1,4.2,1.4c14.4,12.8,28.2,27.2,46.1,35.1c14.6,6.4,31.9,11.5,48.3,10.1c1.3-3,4.9-5,8-2.7c1.2,0,2.4,0.4,3.6,1.5c-0.3,0-0.5-0.1-0.8-0.1C261.6,252.1,263.9,258.2,260.2,260.6z"></path><path fill="#D6E5E5" d="M249.4,262.8c-18,1.9-36.6-2.6-53-9.5c-20.1-8.4-35.4-23.6-51.3-37.9c-6.1,8.3-13.8,17.1-15.8,27c-1.1,5.4,2.9,7,7.4,9.2c5.7,2.8,11.2,5.8,16.8,8.9c15.1,8.3,29.7,17.1,47.1,19.2c8.6,1.1,17.5,1.2,26.1,1.1c8-0.1,15.1-2.3,22.6-4.1c0.1-2.9,0.3-5.7,0.2-8.6C249.4,266.9,249.5,264.8,249.4,262.8z"></path><path d="M484.3,213.5c-10.9-41.4-41.1-83.2-80.6-101.2c-12.8-5.8-26.8-8.6-40.9-7.6c-7.5,0.5-15,2.4-22,5c-7.3,2.7-13.6,6.9-20.1,11.1c0.4-4.7-0.7-9-4-11.8c-5.2-4.4-12.5-1.1-16.9,2.6c-2.8,2.4-5.4,5-8.2,7.4c-0.6,0.5-1.2,1-1.8,1.4c1.5-5.1,3.4-10.1,5.6-14.9c3.1-7,7.3-13.3,13.5-17.9c6.1-4.4,13.6-6.2,21-7.1c5.1-0.6,6.3-6.1,3.2-9.6c-2.7-3-5.8-5.7-8.6-8.6c-2.8-2.9-2.8-5.6-1.7-9.3c0.8-2.6-1.6-6.3-4.3-6.4c-20.3-1.3-33.2,16.5-41.6,32.7c-4.5,8.7-8.1,18-10.5,27.5c-0.9,3.4-1.5,6.9-1.9,10.4c-9.9-2.5-12-14.5-18.4-21.4c-2.6-2.7-7-1.1-8.6,1.7c-2.6,4.7-4.2,10.7-4.5,16.9c-39-19.8-84.5-9.2-119.4,15c-18.6,12.9-34.3,29.7-46.1,48.9c-11.5,18.6-17.2,39.4-19.9,61c-5.4,43.8,2.6,89,23,128.1c10,19.2,23.5,36.5,39.8,50.8c17.5,15.3,38.1,25.5,60.1,32.7c52.3,17.1,110.2,15.4,163,2.1c49.6-12.4,96.9-37.9,127.4-80C493.8,327.8,498.3,266.6,484.3,213.5z M316.9,132.8c0.7,0.4,1.4,0.7,2.2,0.8c-1.1,0.4-2.1,0.7-3.1,0.7C316.3,133.8,316.6,133.3,316.9,132.8z M308.1,119.1c0.5-0.3,1.1-0.5,1.5-0.7c0,0.8-0.1,1.5-0.2,2.2c-0.6,3.9-2.4,8.9-6,10.9c-3.2,1.8-3,6.5-0.6,8.7c8.5,7.8,16.9,4.8,26.4,1.1c6.8-2.6,14.4-4.4,21.9-5.2c-2.7,8.3-7,15.7-14.8,20.5c-12.5,7.7-25,0.4-38.3,0.1c-4.9-0.1-6.6,6.7-3.2,9.6c5.1,4.3,5.2,14.6,5.7,20.7c0.4,5.4,0.5,10.9,0.5,16.3c-7.9-2.8-15-9-16.1-17.5c-1.2-10,1.2-20.2-3.6-29.1c1.2,0,2.4,0,3.6,0c4.4,0,6.1-5.3,4.1-8.6c-2.5-4-2.7-9-2.1-13.8C295,133.4,302.5,123.2,308.1,119.1z M276.5,112.5c1.7-8.6,5-16.9,8.7-24.9c4.8-10.2,13.5-26.5,26-29.6c0.4,5.4,3.5,9.6,7.3,13.6c-5.5,1.5-10.8,3.7-15.7,7c-7.9,5.4-13.3,13.6-17.2,22.1c-5.2,11.3-11,26.7-9.8,40.3c-0.1-0.2-0.3-0.4-0.4-0.6C274.6,131.1,274.7,121.8,276.5,112.5z M267.4,151.5c0.3,0.2,0.6,0.4,1,0.5c-1.3,1-2.3,2.5-2.3,4.6c0,13.8,1.7,28.6-10.6,38c-7,5.3-15.8,4.9-24,4c1.6-1.8,3.1-3.8,4.5-6.1c3.7-6.3,5.9-13.2,10.1-19.2c4.4-6.2,9.1-12.1,12.9-18.7c0.8-0.2,1.7-0.2,2.6,0C264.5,155.4,266.6,153.8,267.4,151.5z M244.3,113.1c1,2,2,4,3.4,5.7c3.7,4.7,10.2,8.8,16.2,9.6c0,1.8,0,3.6,0.1,5.4c-4.4-0.8-9.2-0.5-13.9,0.2C245,129.3,243.4,120.8,244.3,113.1z M249.4,145.4c1.4-0.3,2.9-0.6,4.5-0.8c-4.7,2.1-8.8,6.2-12.2,9.7c-7,7.1-13.2,11.4-23.5,9.5c-8.4-1.5-16.3-3.9-19.7-12.5c-1.3-3.4-1.9-7-2.1-10.7c8.2,8.4,18.5,13.1,31.8,10.6C235.3,149.9,242.1,146.8,249.4,145.4z M478.8,297.9c-3.5,27.3-13.7,52.3-30.6,74c-15.5,19.8-35.5,35.5-57.3,47.7c-23.3,13.1-49.6,21.2-75.7,26.5c-27.3,5.5-55.5,7.5-83.2,5.4c-48.5-3.5-97.1-19.3-129.7-56.9c-28.7-33.2-43.2-77-45-120.4c-0.9-21.5,1.3-43.7,7.7-64.2c6.5-20.9,19.7-39.5,35.1-54.8c30.3-30.2,77.6-50.8,119.7-34.6c4.6,1.8,9.1,4,13.3,6.5c0.4,0.3,0.9,0.4,1.3,0.6c0.8,3.3,2.1,6.5,3.8,9.3c-0.9,0.3-1.8,0.5-2.6,0.8c-7.2,2.2-14.8,4.9-22.3,2.2c-8-3-13.1-10.8-17.2-17.8c-2.3-3.9-9.5-2.7-10,2c-1,10-1.5,20.2,1.5,29.8c3,9.6,10.5,15.5,19.7,18.6c8.5,2.8,17.3,3.9,25.5,1.3c-1.6,2.8-3.1,5.7-4.3,8.9c-3.3,8.9-9.5,13.3-17.9,15.3c-1.7,0.2-3.3,0.5-5,1c-6,1.6-3.9,11.6,2.2,10.7c1.9-0.3,3.6-0.6,5.4-1c8.2-1,16.8,1.1,24.9,1.5c9.9,0.5,19.5-2.6,26.8-9.3c4.7-4.3,7.6-9.3,9.3-14.6c0.2,3.3,0.8,6.5,2.2,9.5c5.3,10.9,16.9,18.6,28.8,19.8c3.7,0.4,6.5-2,6.5-5.8c0-9.1,0.1-18.3-0.8-27.4c-0.4-4.2-1-8.9-2.4-13.3c4.2,0.9,8.4,2,12.6,2.3c8.1,0.6,15.5-2.2,22.3-6.4c11.7-7.3,17.3-20.9,20.1-33.8c0.8-3.7-2.4-6.6-5.8-6.5c-8.6,0.1-17.1,2-25.4,4.2c-2.7,0.7-5.4,1.6-8.1,2.6c5.2-3.4,10.3-7,15.9-9.6c5.3-2.4,11-4.2,16.8-5.3c10.4-1.9,20.9-1,31.1,1.8c21,5.8,39,20.9,52.8,37.2C474.5,195,485.3,247.4,478.8,297.9z"></path><path d="M257.4,250.9c0.3,0,0.5,0.1,0.8,0.1c-1.1-1.1-2.4-1.5-3.6-1.5c-3.1-2.3-6.7-0.3-8,2.7c-16.4,1.4-33.7-3.6-48.3-10.1c-17.9-7.9-31.8-22.3-46.1-35.1c-1.4-1.2-2.8-1.6-4.2-1.4c-1.7-3.2-6-4.9-8.6-1.1c-7.8,11.5-18.3,22.8-21.2,36.9c-2.9,14.6,13.5,20.4,23.9,25.7c18,9.2,34.4,20.1,54.7,23.3c9.5,1.5,19.2,1.3,28.8,1.5c10.9,0.2,20.3-3.2,30.7-5.5c2.5-0.6,3.6-3.4,3.7-5.6c0.1-5.9,1.2-13.5,0.2-20.1C263.9,258.2,261.6,252.1,257.4,250.9z M249.4,268.2c0,2.9-0.1,5.7-0.2,8.6c-7.5,1.9-14.6,4.1-22.6,4.1c-8.7,0.1-17.5,0-26.1-1.1c-17.4-2.2-32-10.9-47.1-19.2c-5.6-3.1-11.1-6.1-16.8-8.9c-4.5-2.2-8.5-3.8-7.4-9.2c2-9.9,9.7-18.7,15.8-27c16,14.3,31.3,29.4,51.3,37.9c16.4,6.9,35.1,11.4,53,9.5C249.5,264.8,249.4,266.9,249.4,268.2z"></path></svg>