<svg xmlns="http://www.w3.org/2000/svg" x="0px" y="0px"
width="48" height="48"
viewBox="0 0 512 512"
style=" fill:#000000;"><path fill="#127274" d="M107 218.7c-.4-.1-.7-.2-1.1-.4-4.8 2.7-8.2 8.3-10.2 13.1-1.3 3-3.7 11.2.2 12.1 7.5 1.9 13.3-3.1 15.9-9.8C114 228 113.9 220.6 107 218.7zM252.6 463.9c-1.4 13.3 12.9 21.9 23.3 13.2 3.5-2.9 5.9-6.7 7.5-10.8C274 459.8 254.3 448.2 252.6 463.9zM410.2 188.9c-7.5.2-15.5 1.3-20.4 7.5-3.8 4.8-9.8 13.2-7.1 19.8 3.5 8.4 14.8.4 18.8-3.4 6.1-5.9 9-13.5 9.6-21.8C410.6 190.4 410.3 189.6 410.2 188.9zM379.5 98.4c-9.8-2-19.5-3.2-28.7-7 .1 6.6.2 13.2.4 19.9.5-.1 1.1-.1 1.8 0 18.1 2.3 36.1 5.5 54.3 6.4 1-5 2.1-10 3.4-14.8C400.2 102.4 389.9 100.5 379.5 98.4zM345.7 172c-10.1-.6-21.6.1-29.2 7.7-4.5 4.5-9.1 12.2-1.3 16.1 9.6 4.9 20.1 4 26.5-5.4 1.2-1.7 3-5.3 4.2-8.4.6-1.5 1.1-3.1 1.4-4.7.1-.5.2-.9.2-1.4C346 174.7 345.6 173.4 345.7 172z"></path><path d="M334.2,261.2c-9.5-10.4-23-15.5-36.4-18.7c-16-3.8-32.8-3.8-48.9-0.6c-4.7,0.9-9.4,2.1-13.9,3.5c-1.4-4.4-2.8-8.8-4.2-13.2c-7.2-22.1-14.3-44-20.6-66.2c1.8-4,3.6-8,5.3-12.1c11.7-27.2,25.8-54.7,27.6-84.9c1.2-20.2-4.4-46.2-25.7-54.2c-20.7-7.8-31.4,14.9-34.2,31.5c-5,29.1,0.9,60.2,7.5,88.5c2.4,10.2,5,20.3,7.8,30.4c-3.7,8.2-7.6,16.3-11.6,24.3c-6.9,13.7-14.4,27.1-22.8,39.9c-8,12.2-16.7,23.8-24.6,36.1c-13.9,21.4-28.3,48.4-17.7,74.2c9.9,24,38.4,34.9,62.2,38.1c25.7,3.5,52.6,2.2,78.1-3.3c4.1,10.5,8.3,20.8,12.3,31.3c4.7,12.4,9.5,25,11.1,38.2c0.4,3.4,0.6,7,0.3,10.6c-8.3-5.5-17.6-10.3-27.4-9.3c-10.7,1.1-16.4,10.4-16.9,20.3c-0.5,10.5,6.8,21.3,16.7,24.8c10.2,3.6,20.5-0.3,27.7-7.8c4.1-4.3,6.9-9.1,8.7-14.2c1-1,1.6-2.4,1.6-4.1v-1.9c3-16.3-2.3-34.9-7.5-49.7c-4.8-13.8-10.2-27.3-15.4-40.9c0.3-0.1,0.5-0.1,0.8-0.2c25.2-6.9,50.1-18.6,64.7-41.1C352.7,308.8,351.8,280.3,334.2,261.2z M275.9,477.1c-10.5,8.8-24.8,0.2-23.3-13.2c1.7-15.7,21.4-4.1,30.8,2.4C281.8,470.4,279.4,474.1,275.9,477.1z M193.7,50.3c1-8.1,3.4-17.1,9.2-23.2c6.7-7.2,16.9,0.6,21.4,6.5c14.8,19.5,7.2,50,0.1,70.7c-5.1,14.7-11.9,28.7-18,43c-0.3,0.6-0.5,1.2-0.8,1.8c-0.6-2.3-1.2-4.7-1.8-7C196.2,112.5,189.8,80.9,193.7,50.3z M171.1,364c-12.4-3.2-24-9.4-32.8-18.8c-9.1-9.8-10.6-23-8-35.6c2.8-13.6,10.7-26.2,18-37.8c7.8-12.3,16.5-24,24.6-36.1c11.5-17.2,21.3-35.6,30.2-54.3c4.3,14.6,9,29.2,13.8,43.7c2.7,8,5.2,16,7.7,24c-21.9,8.8-41.5,23.2-58.1,40c-5,5.1,3.3,12.3,8.3,7.3c15.3-15.4,33.1-28.3,53-36.6c5.7,18.9,11.1,37.9,16.1,57.1c4,15.4,8.2,30.6,13.6,45.6c0.2,0.6,0.4,1.1,0.6,1.7C229.6,369.2,199.4,371.4,171.1,364z M328.9,325.5c-7,11.4-18.7,19.6-30.4,25.4c-9,4.5-19,8.1-29,10.7c-4.5-12.3-8.8-24.7-12.2-37.4c-6.2-22.9-12.3-45.7-19.1-68.4c1.3-0.4,2.6-0.8,3.9-1.2c23.8-6.8,52.8-6.2,74.6,6.5c9.9,5.7,16.8,15,19.8,25.9C340.1,300.2,335.7,314.4,328.9,325.5z"></path><path d="M417.6 91.8c-12.2.5-24.1-1.8-36-4.2-10.2-2-20.4-3.1-29.8-7.9-3.1-1.6-5.9 0-7.1 2.4-2.5.5-4.8 2.4-4.8 5.6 0 24.4 1.7 48.8 1.9 73.3-13.5 0-26.5 2.9-35.9 13.9-8.9 10.4-7.6 23.7 4.3 30.7 14.2 8.3 31.5 3.9 40.6-9.4 4.4-6.4 12.5-22.2 4.2-28.4-.7-.5-1.4-.9-2.2-1 0-.2 0-.4 0-.6 0-14.7-.6-29.4-1.1-44.1 18 2.3 35.9 5.4 54 6.3-2.2 16.6-2 33.4 1.9 49.6-4 .3-7.9.8-11.8 1.9-6.6 1.8-11.5 6.1-15.8 11.2-7.2 8.5-12.2 23.1-5.3 33 7.9 11.3 22.3 6 31.2-.7 11.5-8.7 16.1-21.8 16.3-35.9 0-1.7-.8-3-2.1-3.8.1-.7 0-1.5-.2-2.2-5.3-17-5.7-35-3.2-52.7h.2c6.2 0 6.3-8.3 1.6-10.5 1.3-6.8 3-13.5 5-20C424.5 94.8 420.9 91.7 417.6 91.8zM347.2 177.2c-.3 1.6-.8 3.2-1.4 4.7-1.2 3.1-3 6.7-4.2 8.4-6.4 9.4-16.9 10.3-26.5 5.4-7.8-3.9-3.1-11.6 1.3-16.1 7.6-7.6 19.1-8.3 29.2-7.7-.1 1.3.4 2.7 1.7 3.8C347.4 176.3 347.3 176.7 347.2 177.2zM407.4 117.6c-18.2-.8-36.2-4.1-54.3-6.4-.6-.1-1.2-.1-1.8 0-.2-6.6-.4-13.2-.4-19.9 9.2 3.8 18.9 5.1 28.7 7 10.4 2.1 20.7 4 31.3 4.4C409.5 107.7 408.4 112.6 407.4 117.6zM401.5 212.8c-4 3.8-15.4 11.8-18.8 3.4-2.7-6.6 3.3-14.9 7.1-19.8 4.8-6.2 12.9-7.3 20.4-7.5.2.8.5 1.5.9 2.1C410.5 199.3 407.6 206.9 401.5 212.8zM118.4 146.4c-7.5-4.6-16.4-4-24.4-7.1-6.9-2.7-11.4-7.5-15.6-12.1-.4-.8-1.1-1.5-2-2.1-.2-.1-.4-.2-.6-.3-1.6-1-4.1-.7-5.5.4 0 0 0 0-.1 0-2.4 1.8-2.9 4.6-1.7 7-1.4 2.1-1.6 5 .4 7.3 8.9 9.9 11.8 24.3 16.6 36.4 4.4 11.1 7.4 23.5 13.3 34.1-14.4 10.6-26.2 40.7-3.6 44.8 25.5 4.6 40.9-37.1 15.6-46.1-4-5.9-6.3-12.5-8.6-19.2-2.3-6.7-4.9-13.2-7.5-19.8-2.8-7.3-5.2-14.9-8.4-22 5.2 2.6 10.5 4 16.6 5.1 6 1.1 17.1 4.6 16 12.7-.4 2.8-3 5-4.9 7-2.1 2.3-4 4.9-5.2 7.8-2.6 6.6 7.2 11.5 9.9 4.9 1.3-3.3 3.8-5.7 6.2-8.3 2.5-2.8 3.7-5.8 4.8-9.3C132.5 159.1 125 150.4 118.4 146.4zM105.9 218.3c.3.2.7.3 1.1.4 6.9 1.9 7.1 9.3 4.8 15-2.7 6.7-8.5 11.7-15.9 9.8-3.9-1-1.4-9.1-.2-12.1C97.7 226.6 101.1 221 105.9 218.3z"></path></svg>