<svg xmlns="http://www.w3.org/2000/svg" x="0px" y="0px"
width="48" height="48"
viewBox="0 0 512 512"
style=" fill:#000000;"><path fill="#FCBF95" d="M229.8,366c-5.1-26.5,5.2-52.4,3.2-79.1c-0.6-7.4-1.8-14.8-2.1-22.2c-0.3-7.2-0.2-14.4-0.8-21.5c-0.9-11.6-2.6-25.7-11.6-34.1c-4-3.7-11.3-7.5-16.7-4.6c-6.9,3.7-3.2,15.1-0.6,20.3c5.7,11.2,12.6,22.4,6.9,35.2c-5,11.2-17.9,13.3-27.3,6.3c-7.3-5.4-11.5-14.1-14.4-22.5c-3.6-10.2-6-20.7-8.1-31.2c-4.9-25.3-11.8-50.6-3.6-76.1c1.4-4.3,2.8-8.6,3.9-13c0.8-3.2,2.2-8.3,0.5-11.4c-3.8-7.4-13.7,8.6-15.1,11.2c-4.9,9-8.1,19-8.8,29.1c-0.6,7.6-0.5,15.3-1.4,22.9c-0.7,6.4-3.9,13.7-1.1,19.9c2.9,6.5-7,11.2-9.9,4.7c-4.6-10-0.1-20.5,0.5-30.9c0.6-10.3,0.3-20.8,3.1-30.9c2.5-9.3,6.7-21.2,13.5-29.3c-0.2-1.2,0-2.6,0.8-3.9c1.8-2.8,1.3-8.7,0.3-11.8c-0.4-1.2,0.2-0.6-0.6-0.6c-0.8,0-1.8,0.3-2.6,0.6c-6.2,2.5-12.2,6.3-16.5,11.5c-9.5,11.5-14.5,26.1-17.8,40.4c-3.5,14.7-5.2,29.8-6.1,44.9c-0.4,7-0.9,14.1-1,21.2c-0.1,6.5-0.7,15.4,3.6,20.9c4.3,5.6-4.1,12.7-8.4,7.1c-6.2-8.1-6.4-19.2-6.1-28.9c0.2-8.6,0.7-17.1,1.3-25.7c1.4-18.9,4.1-38,10-56c2.9-8.7,6.6-17.2,11.6-24.6c-7.1,3.7-12.8,10.9-16.9,17c-7,10.5-12.4,22.2-16,34.3c-9.5,31.9-4.6,64.9-1,97.4c0.8,7-10,9.1-10.8,2c-2.7-24.4-6-49.2-4-73.6c-1.4,2.6-2.6,5.6-3.2,7.1c-2.5,6.9-4.3,14-5.4,21.2c-2.6,16.1-3.3,32.9-2.4,49.2c1.2,21.2,5.1,41.1,15,60c11.4,21.7,23.8,42.9,37.2,63.5c7.2,11,15.6,21.6,21.8,33.2c4.7,8.7,8.5,17.9,12.5,26.9c7.3,16.4,16.4,37,34.9,43.3c16.6,5.7,35.4-2.8,49.8-11c8.6-4.9,16.9-10.7,23.7-17.8c5-5.2,10-11.7,10.5-19.2c0.2-2.3,1.4-3.7,3-4.4C246.9,411.2,234.4,389.9,229.8,366z"></path><path fill="#3AB37C" d="M295.8,83.4c-3.6-26.2-22.4-43.6-42.3-58.9c-15.5,21-31.3,47.6-22.6,74.1c3.4,10.3,7.1,20.7,11.8,30.4c3,6.2,6.7,12.9,12.2,17.3c0.5-3.5,0.9-7,1-10.6c0.1-9.2,1.1-18.4,1.3-27.6c0.2-8.3,0.2-16.6,0.2-24.9c0-7.1,11-7.9,11-0.8c0,17.6-0.7,35-1.5,52.5c-0.1,3.1-0.5,6.1-0.9,9.1c0.6-0.4,1.1-0.9,1.6-1.3c6.3-5.2,12.8-10.7,18.1-16.9C295.9,113.7,297.9,98.9,295.8,83.4z"></path><path fill="#FCBF95" d="M486.3,201.6c-0.3-14.5-1.2-29.5-5-43.6c-1.3-5-3.2-10.6-6.5-14.1c-1-1-2-1.5-3.1-1.5c0.2,0-1.4,0.2-1.3,0.2c-1,0.4-2,0.8-2.9,1.3c0,0,0,0-0.1,0c0,16.7-2.1,33.4-4.4,49.9c-2.5,17.2-5.8,34.3-11.4,50.7c-1.7,5-10,4.6-10.6-0.9l-0.5-4.5c-0.3-2.7,1.1-4.6,3-5.6c3.3-11,5.6-22.2,7.4-33.5c1.1-7.1,2.1-14.3,2.9-21.5c0.8-6.4,2.1-13.1,2.2-19.5c0.2-7.4,0.9-14.9,0.2-22.3c-0.5-5.8-1-13.1-4.6-17.9c-1.3-1.7-3.7-4.9-6.2-4.3c-3.3,0.8-4.5,6.4-5.1,9.1c-0.5,2.6-2.4,4-4.5,4.5c-0.1,10.5-1.7,21.2-3.6,31c-3.8,20-9.6,39.4-15.4,58.9c-1.5,5.1-10,4.5-10.6-0.9l-0.3-3c-0.2-2.2,0.7-4,2.1-5.1c4.4-14.5,8.7-29,11.8-43.9c3.2-15.4,6.2-32.3,4.3-48.1c-0.5-4.3-5-24.7-13.3-19.7c-5.1,3.1-6.9,10.8-9.1,15.9c-3,7.2-5.5,14.6-3.8,22.4c0.6,2.9-0.9,4.9-3,5.8c0.1,20.3-1.7,41.8-10,60.4c-2.9,6.4-13.2,2.7-10.3-3.8c3.7-8.3,6-17.1,7.3-26c1.4-10.2,1.7-20.6,2.1-30.9c0.2-6.9-0.4-14-1.9-20.8c-0.6-2.6-1.5-6.2-2.9-8.1c-0.5-0.7-1.1-1.1-1.2-1.2c-0.1,0-0.2,0.1-0.3,0.2c-8.1,4.4-9.4,16.3-10.1,24.4c-0.5,5.7-0.7,11.4-1.5,17c-0.7,5.2-2.2,10.2-3.1,15.4c-2.1,12.9-3.3,25.8-4.8,38.8c-2.9,25.2-7.1,51-21.4,72.5c-1.6,2.4-5.4,3.2-7.7,1.3c-3.3-2.7-7.8-3.6-11.3-6.2c-3.3-2.4-6.2-5.2-8.3-8.7c-3.9-6.6-4.1-14.4-3-21.8c1.2-7.8,3.6-15.7,3.5-23.6c0-5.5-2.1-14.3-6.8-17.5c-0.3-0.2-0.4-0.3-0.4-0.4c0,0-0.1,0-0.2,0.1c-0.5,0.1,0-0.3-1.1,0.7c-1.7,1.5-3.3,3.8-4.6,6.1c-3.6,6.4-6,13.5-8.1,20.5c-5.4,17.8-8.1,36.2-2.9,55.2c3.6,13.2,9.7,25.6,15,38.2c5.7,13.7,8.3,28.4,6.9,43.3c-1.3,13.6-4.8,27.2-8.8,40.2c-3.6,11.4-8.6,24.1-6.5,36.3c0.1,0.5,0.1,1,0.1,1.5c-0.1,1.8,1,4.9,2.8,7.2c2.6,3.5,5.7,6.4,9.2,9c8.7,6.5,18.4,11.6,28.5,15.5c9.3,3.6,19.1,6.8,29.1,7.3c3,0.2,7,0.1,8.8-0.7c1.2-0.5,1-0.4,1.3-0.6c0.2-0.2,0.4-0.3,0.5-0.3c0,0,0-0.1,0.1-0.1c0.3-0.4,0.2,0.3,0.3-1.4c0.1-3.1,2.3-4.6,4.6-4.8c3.6-12.3,6.8-24.8,11.6-36.7c2.8-6.9,6-13.7,9.9-20c2-3.1,5.1-6.2,6.6-9.5c1.1-2.4,2.9-4.3,5.1-5.7c1.7-1.1,3.5-0.7,5,0.3c20.3-18.5,31.8-45.7,41.3-70.8C473.4,291.5,487.1,246.6,486.3,201.6z"></path><path d="M494.6 167.9c-1.6-10.2-3.9-21.4-10.3-29.8-4.6-6.1-11-7.4-17.3-5.6-1.1-11.1-4.6-22.9-15-27.6-7.9-3.5-13.7.1-17.6 5.8-.5-2.5-1.2-5-2-7.5-3.9-11.2-16.1-22.9-28-14.3-6.9 4.9-9.4 13.3-12.7 20.7-.2.6-.5 1.1-.7 1.7-1.8-4.8-4.7-9.7-9.8-10.9-8.2-1.9-15.1 5.3-18.7 11.8-5.3 9.6-5.6 21.1-6.4 31.8-.9 11.4-3.9 22.5-5.4 33.8-1.7 13-2.8 26-4.6 39-2.4 18-6.3 36.1-15.4 51.8-2.5-1.2-5.1-2.3-7.4-4-3.7-2.7-5.5-6.4-6.1-10.8-1.2-8.8 2.5-18.3 3.6-26.9 1.2-9.9-.6-19.4-6.1-27.7-3.6-5.4-9.5-9.5-16.1-6.8-5.9 2.4-9.4 8.7-12.2 14.1-3.5 6.7-6 14-8.1 21.3-5.5 18.4-7.9 37.5-3.6 56.5 2.9 12.8 8.5 25 13.7 37 3.2 7.5 6.3 14.8 7.8 22.9 1.5 7.7 1.5 15.5.8 23.3-1.3 13.6-5.4 26.9-9.4 39.9-3.8 11.9-7.7 24.7-5.6 37.3.8 30.1 78.1 61 97.9 45.8 2.5.7 5.2-.2 6.2-3.3 4-12.8 7.2-25.8 11.6-38.4 2.3-6.6 5-13.1 8.4-19.3 1.6-2.9 3.3-5.6 5.2-8.3.9-1.3 1.8-2.5 2.7-3.8 1.5.4 3.2.2 4.8-1 19.9-15.8 33-39.9 42.7-62.9 11.6-27.7 21.3-56.4 28-85.7C496.8 234.6 499.8 201.5 494.6 167.9zM457.5 333.1c-9.6 25.1-21.1 52.3-41.3 70.8-1.5-1-3.3-1.3-5-.3-2.3 1.4-4 3.3-5.1 5.7-1.5 3.3-4.7 6.4-6.6 9.5-4 6.3-7.2 13.1-9.9 20-4.8 11.9-8 24.4-11.6 36.7-2.3.2-4.5 1.8-4.6 4.8-.1 1.8 0 1-.3 1.4 0 .1-.1.1-.1.1-.1 0-.2.1-.5.3-.2.2-.1.1-1.3.6-1.8.8-5.8.9-8.8.7-10-.6-19.8-3.8-29.1-7.3-10.1-3.9-19.9-8.9-28.5-15.5-3.4-2.6-6.6-5.5-9.2-9-1.8-2.4-2.8-5.4-2.8-7.2 0-.5 0-1-.1-1.5-2.1-12.2 2.9-24.8 6.5-36.3 4.1-13 7.6-26.6 8.8-40.2 1.4-14.8-1.2-29.6-6.9-43.3-5.3-12.6-11.4-25-15-38.2-5.2-19-2.5-37.4 2.9-55.2 2.1-7 4.6-14.1 8.1-20.5 1.3-2.3 2.9-4.6 4.6-6.1 1.1-1 .6-.6 1.1-.7.1 0 .2-.1.2-.1 0 0 .1.2.4.4 4.7 3.2 6.7 12 6.8 17.5.1 8-2.3 15.8-3.5 23.6-1.1 7.4-.9 15.2 3 21.8 2.1 3.5 5 6.3 8.3 8.7 3.5 2.5 8 3.5 11.3 6.2 2.3 1.8 6.1 1 7.7-1.3 14.3-21.5 18.5-47.3 21.4-72.5 1.5-12.9 2.7-25.9 4.8-38.8.9-5.2 2.3-10.2 3.1-15.4.8-5.6 1-11.4 1.5-17 .7-8.1 2-20 10.1-24.4.1-.1.2-.1.3-.2.1.1.6.5 1.2 1.2 1.4 1.9 2.3 5.5 2.9 8.1 1.6 6.8 2.2 13.9 1.9 20.8-.3 10.3-.6 20.7-2.1 30.9-1.3 9-3.6 17.7-7.3 26-2.9 6.5 7.4 10.2 10.3 3.8 8.3-18.6 10.2-40.1 10-60.4 2.1-.9 3.6-2.9 3-5.8-1.7-7.8.8-15.2 3.8-22.4 2.1-5.1 4-12.8 9.1-15.9 8.3-5 12.8 15.4 13.3 19.7 1.9 15.8-1.1 32.6-4.3 48.1-3.1 14.8-7.5 29.4-11.8 43.9-1.4 1.1-2.4 2.8-2.1 5.1l.3 3c.6 5.4 9 6 10.6.9 5.8-19.5 11.6-38.9 15.4-58.9 1.9-9.9 3.5-20.5 3.6-31 2.1-.5 3.9-2 4.5-4.5.6-2.7 1.8-8.3 5.1-9.1 2.5-.6 4.9 2.7 6.2 4.3 3.7 4.8 4.1 12.1 4.6 17.9.6 7.4-.1 14.9-.2 22.3-.1 6.4-1.4 13.1-2.2 19.5-.8 7.2-1.8 14.3-2.9 21.5-1.8 11.3-4.1 22.5-7.4 33.5-1.9 1-3.3 3-3 5.6l.5 4.5c.6 5.5 8.9 5.9 10.6.9 5.6-16.5 8.9-33.6 11.4-50.7 2.4-16.6 4.4-33.2 4.4-49.9 0 0 0 0 .1 0 .9-.6 1.9-1 2.9-1.3-.1 0 1.5-.2 1.3-.2 1.1 0 2.1.5 3.1 1.5 3.4 3.4 5.2 9 6.5 14.1 3.8 14.1 4.7 29.1 5 43.6C487.1 246.6 473.4 291.5 457.5 333.1zM270.6 436.5c-10.7-25-25.9-48.5-30.6-75.7-2.3-13.2.2-26.4 2-39.6 1.8-13.3 2.6-26.5 1.4-39.9-.6-7-1.6-13.9-1.8-20.9-.2-7.6-.3-15.2-1-22.8-1.1-12-4.3-24.9-12.3-34.2-9.6-11.1-31.3-16.9-39.2-.9-4.4 8.9-1.4 19.8 2.8 28.2 2.7 5.4 6.1 10.5 7.3 16.5 1 5-1.3 12.6-7.4 12.1-8.6-.7-13.1-13.9-15.5-20.4-3.6-9.9-5.7-20.5-7.6-30.9-2.2-11.6-5.2-23.1-6.5-34.8-1.5-13.5.7-26.1 4.7-38.9 2.7-8.6 5.8-18.4 2.2-27.2-2.8-7-9.7-8.6-16.1-7.1.4-5.8-.9-11.9-4.4-15.4-6.3-6.2-15.5-2-21.9 1.7-2.2 1.3-4.2 2.7-6.1 4.2-.5-.2-1.1-.3-1.8-.2-28.1.4-44.2 33.7-52.1 56.4-2.2 6.4-3.9 12.8-5 19.3-14.9 3.9-18.9 27.7-21.2 40.3-3.9 21.4-3.9 44-1.7 65.5 1.3 12.9 3.9 25.6 8.5 37.7 5.2 13.9 13.6 27.2 21 40.1 7.7 13.4 15.8 26.5 24.2 39.4 7.1 10.9 15.3 21.3 21.3 32.9 15.4 29.3 27.3 78.8 69.5 76.4 18.2-1 35.9-10 50.9-19.8 12-7.9 25.9-19.7 29.9-34.3C267.8 445.1 272.6 441.3 270.6 436.5zM254 437.5c-.6 7.5-5.5 14-10.5 19.2-6.9 7.1-15.2 12.9-23.7 17.8-14.4 8.1-33.2 16.6-49.8 11-18.5-6.3-27.5-26.9-34.9-43.3-4-9-7.8-18.2-12.5-26.9-6.2-11.6-14.6-22.2-21.8-33.2-13.4-20.6-25.8-41.8-37.2-63.5-9.9-18.9-13.8-38.8-15-60-.9-16.3-.2-33.1 2.4-49.2 1.1-7.2 2.9-14.4 5.4-21.2.6-1.5 1.8-4.6 3.2-7.1-2 24.4 1.3 49.1 4 73.6.8 7 11.6 5 10.8-2-3.6-32.5-8.5-65.5 1-97.4 3.6-12.1 8.9-23.8 16-34.3 4.1-6.2 9.9-13.3 16.9-17-5.1 7.5-8.7 16-11.6 24.6-6 18-8.6 37.2-10 56-.7 8.5-1.1 17.1-1.3 25.7-.3 9.8-.1 20.8 6.1 28.9 4.3 5.6 12.7-1.5 8.4-7.1-4.2-5.5-3.7-14.4-3.6-20.9.1-7.1.6-14.1 1-21.2.9-15.1 2.7-30.2 6.1-44.9 3.4-14.3 8.3-28.9 17.8-40.4 4.3-5.2 10.3-9 16.5-11.5.8-.3 1.8-.6 2.6-.6.8 0 .2-.7.6.6 1 3.1 1.5 8.9-.3 11.8-.8 1.3-1.1 2.7-.8 3.9-6.8 8.1-11 20-13.5 29.3-2.7 10-2.4 20.6-3.1 30.9-.6 10.4-5.1 20.9-.5 30.9 2.9 6.5 12.9 1.7 9.9-4.7-2.8-6.2.3-13.5 1.1-19.9.9-7.6.8-15.3 1.4-22.9.7-10.2 3.9-20.2 8.8-29.1 1.4-2.5 11.3-18.6 15.1-11.2 1.6 3.1.2 8.2-.5 11.4-1.1 4.4-2.5 8.7-3.9 13-8.3 25.5-1.3 50.7 3.6 76.1 2 10.6 4.5 21.1 8.1 31.2 2.9 8.3 7.1 17.1 14.4 22.5 9.5 7 22.4 4.8 27.3-6.3 5.7-12.8-1.2-23.9-6.9-35.2-2.6-5.1-6.3-16.6.6-20.3 5.4-2.8 12.8.9 16.7 4.6 8.9 8.4 10.7 22.6 11.6 34.1.5 7.2.5 14.4.8 21.5.3 7.5 1.5 14.8 2.1 22.2 2 26.6-8.3 52.6-3.2 79.1 4.6 23.9 17.1 45.2 27.3 67.1C255.5 433.8 254.2 435.3 254 437.5zM306.9 84c-3.2-32-26.7-53.1-50.9-71.3-2.3-1.7-5.8-2-7.8.5-18.8 24.7-36.3 53.6-28.7 85.7 2.8 11.8 8 24.1 13.3 35 4.5 9.2 10.5 19.2 19.7 24.3-1.7 8.4-3.4 16.8-2.7 25.6.5 7.1 11 6.2 11-.8v-4.5c0-.4 0-.8-.1-1.2.1-5.4 1-10.8 2-16.2.1-.1.2-.1.2-.1.9-.6 1.5-1.3 1.9-2 .7-.5 1.3-1.1 1.7-1.5 3-2.8 6.7-5.1 9.8-7.8 6.8-5.7 13.8-11.8 19.4-18.8C306.6 117.4 308.6 100.7 306.9 84zM285.6 125.8c-5.3 6.2-11.8 11.8-18.1 16.9-.5.4-1.1.9-1.6 1.3.5-3 .8-6.1.9-9.1.8-17.5 1.5-34.9 1.5-52.5 0-7.1-11-6.2-11 .8 0 8.3 0 16.6-.2 24.9-.2 9.2-1.2 18.4-1.3 27.6-.1 3.6-.4 7.1-1 10.6-5.5-4.4-9.2-11.1-12.2-17.3-4.7-9.7-8.4-20.1-11.8-30.4-8.8-26.5 7-53.1 22.6-74.1 19.9 15.3 38.8 32.7 42.3 58.9C297.9 98.9 295.9 113.7 285.6 125.8z"></path></svg>