<svg xmlns="http://www.w3.org/2000/svg"  viewBox="0 0 512 512" width="48px" height="48px"><path fill="#EF4754" d="M58.1,313.8c-2.4-5-5.2-11.1-6.8-17.3c-4.4,3.4-9,6.5-12.7,10.7c-5.2,6-4.9,13.6-1.1,20.3c2.2,3.9,4.7,7.7,7.5,11.2c2,2.5,4.6,6,7.7,7c6.5,2.3,15.1-0.7,21.7-4.6C68.4,332.5,62.8,323.4,58.1,313.8z"/><path fill="#FEBF10" d="M95.8 312.6c-1.9-3.8-3.7-7.8-6.1-11.4-2.6-3.8-5.5-7.3-7.9-11.2-2.6-4.3-4.4-8.8-4.8-13.8-2.3.7-4.6 1.5-6.8 2.4-1.7.7-3.5 1.3-5.1 2.2-1.8 1-2.4 2.4-1.7.1-.3 1-.8 1.8-1.4 2.4-3.3 8.8 3.8 21.6 7.6 28.8 4.5 8.4 9.6 16.6 15.1 24.3 1.7.7 3 2.5 3.4 4.4 5.8-1.9 11.4-4.3 17-6.7C102.7 326.8 99.3 319.7 95.8 312.6zM246.4 245.1c-5.4-4-13.3-10.6-12.1-17.6-4.2 0-8.5-.1-12.7-.1-5.8 0-11.8.1-17.7.7-.3.9-.9 1.7-1.8 2.5-2.2 1.8-1 8.2-.6 10.5.7 4.3 1.9 8.5 3.6 12.5 4.2 10 13.8 15.8 22.4 21.5.3.2.6.4.8.7 8.5-6.7 12.5-17.5 18.1-26.5.4-.6 1.1-1.7 2-3C247.7 246 247 245.6 246.4 245.1z"/><path fill="#14B6B9" d="M194.3 256.3c-.4.3-.9.6-1.5.9-10 4.1-20.1 8-29.9 12.5-10.5 4.8-21.3 10.6-32.4 13.9-10 3-20.7 5.1-29.5 10.9-.7.5-1.4.8-2.1.9.6.8 1.1 1.6 1.6 2.5 1.9 3.1 3.7 6.5 5.4 9.9.2-.5.5-1 .9-1.4 4.3-5.1 12.5-6.5 18.5-8.5 4.6-1.6 8.9-3.9 13.4-5.7 5.3-2.1 10.6-3.9 15.9-5.9 8.5-3.3 16.9-7 25.3-10.5 6.8-2.9 13.6-5.8 19.8-9.8C197.6 263 195.7 259.9 194.3 256.3zM207.5 274c-6.9 4.8-14.7 8.2-22.4 11.5-7.7 3.3-15.5 6.7-23.2 9.8-10 3.9-20 8.2-30 12-3.3 1.3-6.7 2.2-10 3.4-2 .7-5.5 1.6-6.7 3-1.6 2-3.8 2.3-5.6 1.6 2.2 4.9 4.1 9.9 5.7 14.9 2.1-.9 4.3-1.7 6.5-2.4 12.8-4.4 24.7-10.6 36.8-16.4 12.4-6 24.5-12.4 37.3-17.6 8.2-3.3 16.9-5.8 24.6-10.1C215.9 280.5 211.5 277.4 207.5 274z"/><path fill="#BCBCBC" d="M397.5,88.6c-5.2-7.3-12.2-13.1-18.1-19.8c-0.6-0.6-1.1-1.3-1.7-1.9c1.4,8.3,3.1,16.5,3.1,24.9c0,10.5-0.9,20.9-3.7,30.9c3.1,0.4,6.3,0.4,9.3,0.6c7.9,0.5,15.7,1,23.5,1.7c2.8,0.3,8.2,0.5,13.6,1.4C415.4,113.5,406.4,101.1,397.5,88.6z"/><path fill="#14B6B9" d="M190.5,230.4c-1.2,0.3-2.4,0.7-3.6,1.1c-0.7,0.5-1.5,0.9-2.5,1c-12.8,2.2-24.9,8.7-36.3,14.7c-11.3,6-22.5,12.2-34.5,16.9c-8,3.1-16.2,5.8-24.4,8.4c-0.3,0.8-0.7,1.5-1.3,2.1c0,0.5,0.1,1,0.1,1.5c0.2,1.8,0.3,3.3,1.1,5c1.1,2.2,2.5,4.3,3.9,6.4c0.4-0.7,1-1.4,1.8-1.9c9.3-6.2,20-8.6,30.5-11.8c11.5-3.5,22.5-9.2,33.4-14.2c9.9-4.6,20.2-8.5,30.3-12.7c0.7-0.3,1.4-0.4,2.1-0.4C190,241.1,189.3,235.4,190.5,230.4z"/><path fill="#D6E5E5" d="M440.8,427.8c-2.6-6.4-0.2-15.6-0.3-22.3c-0.1-7.7-0.7-15.3-1.5-22.9c-1.5-16-2.4-31.7-2.2-47.8c0.1-8.3,0.2-16.7-0.3-25c-0.5-7.7-1.7-15.3-2-23.1c-0.6-16.2,0.9-32.4,0.5-48.6c-0.3-15.8-1.5-31.7-2.2-47.5c-0.7-15.7-1.4-31.2-3.5-46.8c-0.1-1-0.2-1.9-0.4-2.9c-0.2-0.4-0.4-0.9-0.4-1.4c-0.4-0.2-1-0.5-1.2-0.5c-1.1-0.4-4.4-1.1-6.3-1.5c-6.5-1.1-13-1.7-19.6-2.2c-6.7-0.5-13.3-0.9-20-1.4c-4.1-0.3-8.6-0.4-12.6-1.6c-3.7-1.1-5.2-4.2-3.9-7.8c3.2-8.7,4.6-18.2,4.8-27.6c-2,2.6-5,2.1-7,0.3c-0.2,0-0.4,0-0.7,0c-1.1,0-2.2,0.1-3.2,0.1c-2.7,0.1-5.3,0.1-8,0.3c-8.1,0.6-16.1,0.7-24.2,0.9c-16.2,0.3-32.4,1-48.5,1.8c-33.3,1.8-66.5,4-99.8,4.1c-7.1,0-7.9-11-0.8-11c37.9-0.1,75.6-3,113.4-4.8c18.5-0.9,37.2-0.2,55.6-1.7c6-0.5,12.3-1,18.3-0.6c2,0.1,3.7,0.9,4.8,1.9c0-0.2,0-0.4,0-0.6c-0.6-11.6-4-22.8-4.9-34.3c-2.4,0-4.9,0.1-7.3,0.1c-25.8,0-51.6,0.1-77.4,0.3c-50.2,0.3-100.4,0.7-150.6,0.7c0,0.3,0,0.6,0,0.9c0.4,32.2,2.7,64.3,1.3,96.5c-0.7,16.2-1.6,32.5-0.6,48.8c0.9,14,1.8,28,2.3,42.1c15.5-8.3,31-17,48-20.6c0.2-0.1,0.4-0.2,0.7-0.3c14.4-5.5,30.5-5.4,45.7-5.3c6.3,0,12.5-0.4,18.8-0.5c6-0.1,12.3,0.6,16.7,5c4,4,4.6,8.6,3.7,13.4c39.5-0.7,79-1.5,118.5-0.9c7,0.1,7.9,11.1,0.8,11c-41.3-0.6-82.6,0.3-123.9,1c-1.8,3.1-3.7,6.1-5.2,8.7c-6.2,10.4-11.3,22.3-20.9,30c0,1.2-0.5,2.5-1.4,3.6c3.3-0.3,6.7-0.4,10.1-0.1c0.8,0.1,1.5,0.3,2.1,0.6c12.7-0.2,25.4-0.5,38.1-0.7c17.9-0.2,35.6-0.7,53.4-2c17.6-1.3,35.2-2.6,52.8-2.1c7,0.2,7.9,11.2,0.8,11c-18.3-0.5-36.5,0.9-54.7,2.2c-17.8,1.3-35.6,1.6-53.4,1.9c-18,0.3-35.9,0.8-53.9,0.9c-1,0-1.9,0-2.9,0c-3.7,0.5-7.4,1-11.1,1.1c-1.5,0-2.7-0.4-3.6-1.2c-3.6,1.4-7.3,2.7-10.9,4.1c-12.7,5.1-24.7,11.4-37,17.3c-11.3,5.4-22.4,11.3-34.2,15.7c0,3-0.1,6.1,0,9.1c0.4,30.4,6.2,60.3,6.8,90.7c26-0.9,52,0.6,78,1.8c27.2,1.3,54.3,1.4,81.6,1.1c27.6-0.3,55.2-0.9,82.7-1.5c13.1-0.3,26.2,0,39.3-0.8c5.6-0.3,11.1-0.4,16.7-0.4c2.7,0,6.1,0.3,9.1-0.3C443.1,433.4,442,430.7,440.8,427.8z M180.6,144.5c17.3,0,34.5-0.4,51.7-1.5c16.6-1,33-3.4,49.7-3.8c17.8-0.4,35.5,0.4,53.3-0.1c8.5-0.2,17-1.1,25.5-1c8,0.1,15.9,0.4,23.8,0.4c7,0,7.9,11,0.8,11h-2c-0.2,0-0.5,0-0.7,0c-7.6-0.1-15.3-0.5-22.9-0.4c-8.5,0.1-17,0.9-25.6,1.1c-17.1,0.3-34.3-0.4-51.4,0.1c-17.2,0.5-34.3,2.9-51.5,3.9c-16.6,0.9-33.2,1.3-49.9,1.4C174.4,155.4,173.5,144.5,180.6,144.5z M390.4,189.4c-33.9,0-67.2,2.2-100.8,6.5c-34.2,4.4-68.7,4.5-103.2,4.5c-7.1,0-7.9-11-0.8-11c34.4,0,69,0.1,103.2-4.5c32.9-4.4,65.5-6.4,98.6-6.5c0.1,0,0.1,0,0.2,0h2C396.6,178.5,397.5,189.4,390.4,189.4z M176.9,338.4c2.9-2.5,7.3-3.2,11.3-3.4h4.7v0c6.5,0.1,12.9,0.6,19.4,1.1c17.7,1.4,36,0.5,53.7-0.7c21.4-1.5,42.8-3.7,64.3-4.9c11-0.6,22-1.2,33-1c9.7,0.2,19.5,0.9,29.2,1c7.1,0,7.9,11,0.8,11c-10.3-0.1-20.7-1-31-1c-10.4,0-20.8,0.4-31.3,1c-20.8,1.3-41.6,3.4-62.4,4.8c-18,1.2-36.6,2.2-54.6,0.9c-5.9-0.4-11.9-1.1-17.8-1.2c-3.8-0.1-10.5-0.9-13.3,1.5C177.7,352.1,171.6,343,176.9,338.4z M398.4,402.4c-8.1,0.7-16.2-0.3-24.3-0.8c-8.5-0.5-17.1-0.2-25.7,0.2c-18.5,0.9-36.9,2.7-55.4,3.3c-18.3,0.6-36.6-0.4-54.9-0.7c-17.5-0.2-34.8,2.9-52.3,1.9c-7.1-0.4-4.9-11.2,2.1-10.8c9.5,0.6,19.1-0.7,28.5-1.4c8.9-0.7,17.7-0.7,26.5-0.5c17.7,0.4,35.3,1.2,53,0.4c17.8-0.8,35.6-2.5,53.5-3.2c8.3-0.3,16.7-0.6,25-0.1c7.7,0.5,15.3,1.4,23,0.7C404.7,390.8,405.5,401.8,398.4,402.4z"/><path d="M384.6 138.5c-8 0-15.9-.4-23.8-.4-8.5-.1-17 .8-25.5 1-17.8.5-35.5-.3-53.3.1-16.6.4-33.1 2.8-49.7 3.8-17.2 1.1-34.5 1.5-51.7 1.5-7.1 0-6.2 11 .8 11 16.6 0 33.3-.4 49.9-1.4 17.2-1 34.3-3.4 51.5-3.9 17.1-.5 34.3.2 51.4-.1 8.5-.2 17-1 25.6-1.1 7.6-.1 15.3.3 22.9.4.2 0 .5 0 .7 0h2C392.5 149.4 391.6 138.5 384.6 138.5zM389.6 178.5h-2c-.1 0-.1 0-.2 0-33.1.1-65.8 2.1-98.6 6.5-34.2 4.6-68.8 4.5-103.2 4.5-7.1 0-6.2 11 .8 11 34.4 0 69 0 103.2-4.5 33.6-4.4 66.9-6.5 100.8-6.5C397.5 189.4 396.6 178.5 389.6 178.5z"/><path d="M455.4,438.8c-0.2-2.6-0.7-5.1-1.4-7.6c-0.9-3.1-2.6-5.8-2.8-9.1c-0.6-7.1,0.5-14.3,0.3-21.4c-0.5-15.3-2.9-30.5-3.5-45.8c-0.6-15.4,0.4-30.8-0.3-46.1c-0.4-7.7-1.6-15.3-2-23.1c-0.4-7.8-0.2-15.6,0.1-23.4c0.9-30.6-1.2-61.1-2.7-91.6c-0.5-10.9-2.1-21.6-3.2-32.3c1.7-1.7,2.2-4.3,0.7-6.8c-0.4-0.7-0.9-1.2-1.5-1.6c0-0.4-0.1-0.8-0.1-1.1h-0.9c-9.7-16.7-21.1-32.3-32.3-48.1c-5-7.1-11.9-12.8-17.8-19.1c-3.2-3.4-5.7-7.3-7.9-11.4c-1.5-2.7-2.6-4.7-4.5-6.3c-0.9-1.5-2.6-2.6-4.8-2.6c-1,0-1.7,0.1-2.7,0.4c-0.5,0.1-0.9,0.3-1.2,0.6c-2,0-4.1,0.1-6.1,0.1c-26.5,0-52.9,0.1-79.4,0.3C229,43,176.8,43.4,124.6,43.5c-2.4,0-3.9,1.3-4.6,3c-0.9,1-1.5,2.3-1.5,3.9c0.1,32.2,2.8,64.3,1.6,96.5c-0.6,16.2-1.6,32.5-1.1,48.8c0.5,16.3,2.1,32.5,2.6,48.8c0,0.9,0,1.7,0.1,2.6h2.6c-5.8,2.9-11.6,5.7-17.5,7.9C96,259,84.9,262.2,74,265.7c-5.7,1.8-14,3.9-18.6,8.7c-0.9,0.4-1.7,1.1-2.3,2.1c-1.2,1.9-2,4-2.4,6.1c-0.3,0.2-0.5,0.4-0.8,0.7c-6.9,7.3-16.5,11.7-22.2,20.2c-6.3,9.5-4.4,20.7,0.7,30.1c4.4,8.1,11.9,20.2,21.5,22.7c9.6,2.5,20.8-0.3,29.7-5.5c1.3,1.8,3.4,3,6.1,2.3c11.4-3,21.9-8.4,32.9-12.7c0,0.1,0,0.2,0,0.3c-0.3,31.6,5.9,62.7,6.8,94.2c0,1.8,0.1,3.6,0.1,5.4c0,2.5,1.3,4,3.1,4.6c0.9,1.5,2.6,2.6,4.9,2.5c27.9-1.3,55.9,0.4,83.8,1.7c27.9,1.3,55.7,1.3,83.6,1c28.2-0.3,56.5-1,84.7-1.6c13-0.3,26-0.1,39-1c8.1-0.6,16.5,0.9,24.3-1.4c2.6,0.4,5.6-0.9,6.5-3.8C455.8,441.3,455.8,440,455.4,438.8z M377.7,66.8c0.6,0.7,1.1,1.3,1.7,1.9c6,6.7,12.9,12.4,18.1,19.8c8.8,12.5,17.9,24.9,26,37.9c-5.4-0.9-10.8-1.1-13.6-1.4c-7.8-0.7-15.7-1.2-23.5-1.7c-3-0.2-6.2-0.3-9.3-0.6c2.8-10.1,3.8-20.4,3.7-30.9C380.8,83.3,379.2,75.1,377.7,66.8z M89.3,272.5c8.2-2.6,16.4-5.3,24.4-8.4c11.9-4.7,23.2-10.9,34.5-16.9c11.4-6,23.5-12.5,36.3-14.7c1-0.2,1.8-0.5,2.5-1c1.2-0.4,2.4-0.8,3.6-1.1c-1.2,5-0.5,10.7,0.7,16c-0.6,0-1.3,0.1-2.1,0.4c-10.1,4.1-20.4,8.1-30.3,12.7c-10.9,5-21.9,10.7-33.4,14.2c-10.5,3.2-21.3,5.6-30.5,11.8c-0.8,0.6-1.4,1.2-1.8,1.9c-1.4-2-2.8-4.1-3.9-6.4c-0.8-1.7-0.9-3.2-1.1-5c-0.1-0.5-0.1-1-0.1-1.5C88.5,273.9,89,273.2,89.3,272.5z M52.8,345.8c-3.1-1.1-5.7-4.6-7.7-7c-2.8-3.5-5.3-7.3-7.5-11.2c-3.8-6.7-4.1-14.3,1.1-20.3c3.6-4.2,8.2-7.3,12.7-10.7c1.6,6.2,4.4,12.3,6.8,17.3c4.7,9.5,10.2,18.6,16.4,27.4C67.9,345.1,59.3,348.1,52.8,345.8z M88.1,341c-0.4-2-1.7-3.7-3.4-4.4c-5.5-7.8-10.6-15.9-15.1-24.3c-3.8-7.2-10.9-20-7.6-28.8c0.6-0.6,1.1-1.4,1.4-2.4c-0.7,2.2-0.1,0.9,1.7-0.1c1.6-0.9,3.4-1.5,5.1-2.2c2.2-0.9,4.5-1.7,6.8-2.4c0.4,4.9,2.2,9.4,4.8,13.8c2.4,3.9,5.3,7.4,7.9,11.2c2.4,3.5,4.2,7.6,6.1,11.4c3.5,7,6.9,14.2,9.3,21.7C99.4,336.7,93.8,339.1,88.1,341z M106.9,306.4c-0.4,0.5-0.7,0.9-0.9,1.4c-1.7-3.4-3.5-6.7-5.4-9.9c-0.5-0.8-1-1.7-1.6-2.5c0.7-0.1,1.4-0.4,2.1-0.9c8.8-5.9,19.5-7.9,29.5-10.9c11.1-3.4,21.9-9.1,32.4-13.9c9.8-4.5,19.9-8.4,29.9-12.5c0.6-0.2,1.1-0.5,1.5-0.9c1.4,3.6,3.3,6.7,5.5,9.6c-6.2,4-13,6.9-19.8,9.8c-8.4,3.5-16.8,7.2-25.3,10.5c-5.3,2-10.6,3.9-15.9,5.9c-4.5,1.8-8.8,4.1-13.4,5.7C119.4,299.9,111.1,301.3,106.9,306.4z M121.7,327.7c-2.2,0.8-4.3,1.6-6.5,2.4c-1.6-5-3.5-10-5.7-14.9c1.8,0.7,4,0.4,5.6-1.6c1.2-1.5,4.7-2.3,6.7-3c3.3-1.2,6.7-2.1,10-3.4c10-3.8,20-8.1,30-12c7.8-3.1,15.5-6.5,23.2-9.8c7.7-3.2,15.5-6.7,22.4-11.5c4,3.5,8.5,6.6,13,9.6c-7.8,4.3-16.4,6.7-24.6,10.1c-12.8,5.2-24.9,11.6-37.3,17.6C146.4,317.1,134.5,323.2,121.7,327.7z M246.4,245.1c0.6,0.5,1.3,0.8,2.1,1c-0.9,1.3-1.6,2.4-2,3c-5.6,9-9.6,19.8-18.1,26.5c-0.3-0.2-0.5-0.5-0.8-0.7c-8.7-5.7-18.2-11.5-22.4-21.5c-1.7-4-2.9-8.2-3.6-12.5c-0.4-2.3-1.6-8.7,0.6-10.5c0.9-0.7,1.5-1.6,1.8-2.5c5.9-0.5,11.8-0.6,17.7-0.7c4.2,0,8.5,0.1,12.7,0.1C233,234.5,241,241.1,246.4,245.1z M434.7,436.6c-5.6,0-11.1,0-16.7,0.4c-13.1,0.7-26.2,0.5-39.3,0.8c-27.6,0.6-55.2,1.2-82.7,1.5c-27.2,0.3-54.4,0.2-81.6-1.1c-26-1.3-52-2.7-78-1.8c-0.5-30.4-6.4-60.3-6.8-90.7c0-3,0-6.1,0-9.1c11.7-4.4,22.9-10.3,34.2-15.7c12.3-5.9,24.4-12.2,37-17.3c3.6-1.5,7.3-2.8,10.9-4.1c0.9,0.7,2.1,1.2,3.6,1.2c3.7-0.1,7.4-0.6,11.1-1.1c1,0,1.9,0,2.9,0c18-0.1,35.9-0.6,53.9-0.9c17.9-0.3,35.6-0.6,53.4-1.9c18.2-1.3,36.5-2.8,54.7-2.2c7.1,0.2,6.2-10.8-0.8-11c-17.6-0.5-35.2,0.8-52.8,2.1c-17.8,1.3-35.6,1.8-53.4,2c-12.7,0.1-25.4,0.5-38.1,0.7c-0.6-0.3-1.3-0.5-2.1-0.6c-3.4-0.3-6.7-0.2-10.1,0.1c0.9-1.1,1.4-2.3,1.4-3.6c9.6-7.8,14.6-19.6,20.9-30c1.5-2.6,3.5-5.5,5.2-8.7c41.3-0.8,82.6-1.6,123.9-1c7.1,0.1,6.2-10.9-0.8-11c-39.5-0.6-79,0.2-118.5,0.9c1-4.7,0.3-9.4-3.7-13.4c-4.5-4.5-10.7-5.1-16.7-5c-6.3,0.1-12.5,0.5-18.8,0.5c-15.2-0.1-31.3-0.2-45.7,5.3c-0.2,0.1-0.4,0.2-0.7,0.3c-17.1,3.6-32.5,12.3-48,20.6c-0.5-14-1.4-28.1-2.3-42.1c-1-16.2-0.1-32.5,0.6-48.8c1.4-32.2-0.9-64.3-1.3-96.5c0-0.3,0-0.6,0-0.9c50.2,0,100.4-0.4,150.6-0.7c25.8-0.1,51.6-0.3,77.4-0.3c2.4,0,4.9,0,7.3-0.1c1,11.5,4.3,22.7,4.9,34.3c0,0.2,0,0.4,0,0.6c-1.2-1.1-2.8-1.8-4.8-1.9c-6-0.4-12.3,0.2-18.3,0.6c-18.4,1.5-37.1,0.9-55.6,1.7c-37.8,1.7-75.6,4.7-113.4,4.8c-7.1,0-6.2,11,0.8,11c33.3,0,66.6-2.3,99.8-4.1c16.2-0.9,32.3-1.6,48.5-1.8c8.1-0.1,16.1-0.3,24.2-0.9c2.7-0.2,5.3-0.2,8-0.3c1.1-0.1,2.2-0.1,3.2-0.1c0.2,0,0.5,0,0.7,0c2,1.8,4.9,2.3,7-0.3c-0.2,9.4-1.6,18.8-4.8,27.6c-1.3,3.6,0.2,6.7,3.9,7.8c4,1.2,8.5,1.3,12.6,1.6c6.7,0.5,13.3,0.9,20,1.4c6.5,0.5,13.1,1.1,19.6,2.2c1.9,0.3,5.3,1.1,6.3,1.5c0.2,0.1,0.7,0.3,1.2,0.5c0.1,0.5,0.2,1,0.4,1.4c0.1,1,0.2,1.9,0.4,2.9c2.1,15.6,2.7,31.1,3.5,46.8c0.7,15.8,1.9,31.7,2.2,47.5c0.3,16.2-1.2,32.4-0.5,48.6c0.3,7.7,1.6,15.4,2,23.1c0.5,8.3,0.4,16.7,0.3,25c-0.2,16.1,0.7,31.8,2.2,47.8c0.7,7.6,1.3,15.3,1.5,22.9c0.1,6.7-2.3,15.9,0.3,22.3c1.2,2.9,2.3,5.7,3,8.6C440.8,436.9,437.4,436.6,434.7,436.6z"/><path d="M392.6 330.5c-9.8-.1-19.5-.8-29.2-1-11-.2-22 .4-33 1-21.4 1.3-42.8 3.4-64.3 4.9-17.7 1.2-36 2.1-53.7.7-6.4-.5-12.9-1.1-19.4-1.1v0h-4.7c-4 .2-8.4.9-11.3 3.4-5.3 4.6.8 13.8 6.2 9.1 2.8-2.5 9.5-1.6 13.3-1.5 5.9.1 11.9.8 17.8 1.2 18 1.3 36.6.3 54.6-.9 20.8-1.4 41.5-3.5 62.4-4.8 10.4-.6 20.8-1 31.3-1 10.3 0 20.7.9 31 1C400.5 341.5 399.6 330.5 392.6 330.5zM397.6 391.5c-7.7.7-15.3-.2-23-.7-8.3-.5-16.7-.3-25 .1-17.8.7-35.6 2.4-53.5 3.2-17.7.8-35.3 0-53-.4-8.9-.2-17.7-.2-26.5.5-9.5.7-19 2-28.5 1.4-7-.4-9.2 10.4-2.1 10.8 17.4 1 34.8-2.1 52.3-1.9 18.3.3 36.5 1.3 54.9.7 18.5-.6 37-2.4 55.4-3.3 8.5-.4 17.1-.8 25.7-.2 8.1.5 16.2 1.5 24.3.8C405.5 401.8 404.7 390.8 397.6 391.5z"/></svg>